<?xml version="1.0" standalone="no"?>
<!DOCTYPE svg PUBLIC "-//W3C//DTD SVG 1.1//EN" "http://www.w3.org/Graphics/SVG/1.1/DTD/svg11.dtd" >
<svg xmlns="http://www.w3.org/2000/svg">
<metadata></metadata>
<defs>
<font id="ds_supervixen_cyrregular" horiz-adv-x="761" >
<font-face units-per-em="2048" ascent="1638" descent="-410" />
<missing-glyph horiz-adv-x="500" />
<glyph horiz-adv-x="0" />
<glyph unicode="&#xd;" />
<glyph unicode=" " />
<glyph unicode="!" horiz-adv-x="217" d="M80 0h136v68h-136v-68zM80 119h136v992h-136v-992z" />
<glyph unicode="&#x22;" horiz-adv-x="319" d="M80 806h84v292h-84v-292zM233 806h84v292h-84v-292z" />
<glyph unicode="#" d="M80 144q0 -59 42.5 -101.5t101.5 -42.5h393q59 0 102 42.5t43 101.5v57q0 60 -43 102t-102 42h-393q-60 0 -102 -42.5t-42 -101.5v-57zM80 532q0 -60 42.5 -102t101.5 -42h393q59 0 102 42t43 102v56q0 60 -43 102.5t-102 42.5h-393q-60 0 -102 -43t-42 -102v-56zM80 911 q0 -59 42.5 -101.5t101.5 -42.5h393q59 0 102 42.5t43 101.5v56q0 60 -43 102t-102 42h-393q-60 0 -102 -42t-42 -102v-56zM216 144v57q0 24 17.5 41.5t42.5 17.5h290q24 0 42 -18t18 -41v-57q0 -24 -18 -41.5t-42 -17.5h-290q-25 0 -42.5 17.5t-17.5 41.5zM216 532v56 q0 25 17.5 42t42.5 17h290q24 0 42 -17.5t18 -41.5v-56q0 -24 -18 -42t-42 -18h-290q-25 0 -42.5 18t-17.5 42zM216 911v56q0 24 17.5 42t42.5 18h290q24 0 42 -18t18 -42v-56q0 -24 -18 -41.5t-42 -17.5h-290q-25 0 -42.5 17.5t-17.5 41.5z" />
<glyph unicode="$" d="M80 315q0 -60 42.5 -102.5t101.5 -42.5h89v-170h83v170h56v-170h83v170h82q59 0 102 42.5t43 102.5v103q0 60 -43 102.5t-102 42.5h-341q-25 0 -42.5 17.5t-17.5 41.5v176q0 24 17.5 41.5t42.5 17.5h290q24 0 42 -18t18 -41v-128h136v128q0 59 -43 101.5t-102 42.5h-82 v169h-83v-169h-56v169h-83v-169h-89q-60 0 -102 -42.5t-42 -101.5v-176q0 -59 42.5 -102t101.5 -43h342q24 0 42 -17.5t18 -41.5v-103q0 -25 -18 -42.5t-42 -17.5h-290q-25 0 -42.5 17.5t-17.5 42.5v64h-136v-64z" />
<glyph unicode="%" horiz-adv-x="973" d="M80 654q0 -60 42.5 -102t101.5 -42h133q60 0 102 42.5t42 101.5v313q0 60 -42 102t-102 42h-133q-60 0 -102 -42t-42 -102v-313zM81 379h893v83h-893v-83zM216 654v313q0 24 17.5 42t42.5 18h30q24 0 41.5 -18t17.5 -42v-313q0 -24 -17.5 -41.5t-41.5 -17.5h-30 q-25 0 -42.5 18t-17.5 41zM553 654q0 -60 42 -102t102 -42h132q60 0 102.5 42.5t42.5 101.5v313q0 60 -42.5 102t-102.5 42h-132q-60 0 -102 -42t-42 -102v-313zM688 654v313q0 24 18 42t42 18h31q24 0 41.5 -18t17.5 -42v-313q0 -24 -17.5 -41.5t-41.5 -17.5h-31 q-24 0 -42 18t-18 41z" />
<glyph unicode="&#x26;" horiz-adv-x="1567" d="M81 379h1486v83h-1486v-83zM81 654q0 -60 43 -102t102 -42h131q60 0 102 42.5t42 101.5v313q0 60 -42 102t-102 42h-131q-60 0 -102.5 -42t-42.5 -102v-41h136v41q0 24 18 42t42 18h29q24 0 41.5 -18t17.5 -42v-313q0 -24 -17.5 -41.5t-41.5 -17.5h-29q-24 0 -42 18 t-18 41v77q0 24 18 41.5t42 17.5h38v86h-89q-60 0 -102.5 -43t-42.5 -102v-77zM554 510h85v457q0 24 18 42t42 18t41.5 -18t17.5 -42v-313q0 -60 42.5 -102t101.5 -42h60q60 0 102 42.5t42 101.5v457h-136v-457q0 -24 -17.5 -41.5t-41.5 -17.5h-9q-24 0 -41.5 18t-17.5 41 v313q0 60 -42.5 102t-101.5 42q-60 0 -102.5 -42t-42.5 -102v-457zM1156 654q0 -60 42.5 -102t102.5 -42h123q60 0 102.5 42.5t42.5 101.5v313q0 60 -42.5 102t-102.5 42h-266v-84h216q24 0 41.5 -18t17.5 -42v-313q0 -24 -18 -41.5t-41 -17.5h-73q-24 0 -42 18t-18 41v313 h-85v-313z" />
<glyph unicode="'" horiz-adv-x="162" d="M80 806h84v292h-84v-292z" />
<glyph unicode="(" horiz-adv-x="420" d="M81 144q0 -59 43 -101.5t102 -42.5h196v85h-145q-24 0 -42 17.5t-18 41.5v823q0 24 18 42t42 18h145v84h-196q-60 0 -102.5 -42t-42.5 -102v-823z" />
<glyph unicode=")" horiz-adv-x="420" d="M81 0h196q60 0 102.5 42.5t42.5 101.5v823q0 60 -42.5 102t-102.5 42h-196v-84h145q24 0 42 -18t18 -42v-823q0 -24 -18 -41.5t-42 -17.5h-145v-85z" />
<glyph unicode="*" d="M80 144q0 -59 42.5 -101.5t101.5 -42.5h393q59 0 102 42.5t43 101.5v57q0 60 -43 102t-102 42h-393q-60 0 -102 -42.5t-42 -101.5v-57zM80 911q0 -59 42.5 -101.5t101.5 -42.5h393q59 0 102 42.5t43 101.5v56q0 60 -43 102t-102 42h-393q-60 0 -102 -42t-42 -102v-56z M216 144v57q0 24 17.5 41.5t42.5 17.5h290q24 0 42 -18t18 -41v-57q0 -24 -18 -41.5t-42 -17.5h-290q-25 0 -42.5 17.5t-17.5 41.5zM216 911v56q0 24 17.5 42t42.5 18h290q24 0 42 -18t18 -42v-56q0 -24 -18 -41.5t-42 -17.5h-290q-25 0 -42.5 17.5t-17.5 41.5z" />
<glyph unicode="+" d="M80 144q0 -59 42.5 -101.5t101.5 -42.5h393q59 0 102 42.5t43 101.5v57q0 60 -43 102t-102 42h-393q-60 0 -102 -42.5t-42 -101.5v-57zM80 532q0 -60 42.5 -102t101.5 -42h393q59 0 102 42t43 102v56q0 60 -43 102.5t-102 42.5h-393q-60 0 -102 -43t-42 -102v-56z M216 144v57q0 24 17.5 41.5t42.5 17.5h290q24 0 42 -18t18 -41v-57q0 -24 -18 -41.5t-42 -17.5h-290q-25 0 -42.5 17.5t-17.5 41.5zM216 532v56q0 25 17.5 42t42.5 17h290q24 0 42 -17.5t18 -41.5v-56q0 -24 -18 -42t-42 -18h-290q-25 0 -42.5 18t-17.5 42z" />
<glyph unicode="," horiz-adv-x="162" d="M80 104v-292h84v292h-84z" />
<glyph unicode="-" horiz-adv-x="579" d="M81 379h498v83h-498v-83z" />
<glyph unicode="." horiz-adv-x="175" d="M81 0h96v83h-96v-83z" />
<glyph unicode="/" d="M80 532q0 -60 42.5 -102t101.5 -42h393q59 0 102 42t43 102v56q0 60 -43 102.5t-102 42.5h-393q-60 0 -102 -43t-42 -102v-56zM80 911q0 -59 42.5 -101.5t101.5 -42.5h393q59 0 102 42.5t43 101.5v56q0 60 -43 102t-102 42h-393q-60 0 -102 -42t-42 -102v-56zM216 532v56 q0 25 17.5 42t42.5 17h290q24 0 42 -17.5t18 -41.5v-56q0 -24 -18 -42t-42 -18h-290q-25 0 -42.5 18t-17.5 42zM216 911v56q0 24 17.5 42t42.5 18h290q24 0 42 -18t18 -42v-56q0 -24 -18 -41.5t-42 -17.5h-290q-25 0 -42.5 17.5t-17.5 41.5z" />
<glyph unicode="0" d="M80 144q0 -59 42.5 -101.5t101.5 -42.5h393q59 0 102 42.5t43 101.5v823q0 60 -43 102t-102 42h-393q-60 0 -102 -42t-42 -102v-823zM216 144v823q0 24 17.5 42t42.5 18h290q24 0 42 -18t18 -42v-823q0 -24 -18 -41.5t-42 -17.5h-290q-25 0 -42.5 17.5t-17.5 41.5z" />
<glyph unicode="1" horiz-adv-x="273" d="M80 1025q24 0 41.5 -18t17.5 -42v-965h137v965q0 62 -42 102.5t-103 42.5l-50 1z" />
<glyph unicode="2" d="M80 144q0 -59 42.5 -101.5t101.5 -42.5h538v85h-486q-25 0 -42.5 17.5t-17.5 41.5v176q0 24 17.5 41.5t42.5 17.5h341q59 0 102 42.5t43 102.5v443q0 60 -43 102t-102 42h-393q-60 0 -102 -42t-42 -102v-320h136v320q0 24 17.5 42t42.5 18h290q24 0 42 -18t18 -42v-443 q0 -24 -18 -42t-42 -18h-342q-60 0 -102 -42.5t-42 -101.5v-176z" />
<glyph unicode="3" d="M80 144q0 -59 42.5 -101.5t101.5 -42.5h393q59 0 102 42.5t43 101.5v216q0 60 -43 102.5t-102 42.5h-447v-85h396q24 0 42 -18t18 -42v-216q0 -24 -18 -41.5t-42 -17.5h-290q-25 0 -42.5 17.5t-17.5 41.5v184h-136v-184zM80 720h136v247q0 24 17.5 42t42.5 18h290 q24 0 42 -18t18 -42v-281q0 -24 -18 -41.5t-42 -17.5h-399v-85h450q59 0 102 42.5t43 101.5v281q0 60 -43 102t-102 42h-393q-60 0 -102 -42t-42 -102v-247z" />
<glyph unicode="4" d="M80 524q0 -60 42.5 -102.5t101.5 -42.5h402v-379h136v1111h-136v-647h-350q-25 0 -42.5 18t-17.5 42v587h-136v-587z" />
<glyph unicode="5" d="M80 144q0 -59 42.5 -101.5t101.5 -42.5h393q59 0 102 42.5t43 101.5v444q0 60 -43 102.5t-102 42.5h-341q-25 0 -42.5 18t-17.5 41v175q0 24 17.5 42t42.5 18h486v84h-538q-60 0 -102 -42t-42 -102v-175q0 -60 42.5 -102.5t101.5 -42.5h342q24 0 42 -17.5t18 -41.5v-444 q0 -24 -18 -41.5t-42 -17.5h-290q-25 0 -42.5 17.5t-17.5 41.5v320h-136v-320z" />
<glyph unicode="6" d="M80 144q0 -59 42.5 -101.5t101.5 -42.5h393q59 0 102 42.5t43 101.5v444q0 60 -43 102.5t-102 42.5h-401v234q0 24 17.5 42t42.5 18h290q24 0 42 -18t18 -42v-183h136v183q0 60 -43 102t-102 42h-393q-60 0 -102 -42t-42 -102v-823zM216 144v503h350q24 0 42 -17.5 t18 -41.5v-444q0 -24 -18 -41.5t-42 -17.5h-290q-25 0 -42.5 17.5t-17.5 41.5z" />
<glyph unicode="7" d="M80 647h136v320q0 24 17.5 42t42.5 18h290q24 0 42 -18t18 -42v-967h136v967q0 60 -43 102t-102 42h-393q-60 0 -102 -42t-42 -102v-320z" />
<glyph unicode="8" d="M80 144q0 -59 42.5 -101.5t101.5 -42.5h393q59 0 102 42.5t43 101.5v313q0 60 -43 102.5t-102 42.5h-393q-60 0 -102 -42.5t-42 -102.5v-313zM80 792q0 -60 42.5 -102.5t101.5 -42.5h393q59 0 102 43t43 102v175q0 60 -43 102t-102 42h-393q-60 0 -102 -42t-42 -102v-175 zM216 144v313q0 24 17.5 42t42.5 18h290q24 0 42 -18t18 -42v-313q0 -24 -18 -41.5t-42 -17.5h-290q-25 0 -42.5 17.5t-17.5 41.5zM216 792v175q0 24 17.5 42t42.5 18h290q24 0 42 -18t18 -42v-175q0 -24 -18 -41.5t-42 -17.5h-290q-25 0 -42.5 18t-17.5 41z" />
<glyph unicode="9" d="M80 144q0 -59 42.5 -101.5t101.5 -42.5h393q59 0 102 42.5t43 101.5v823q0 60 -43 102t-102 42h-393q-60 0 -102 -42t-42 -102v-443q0 -60 42.5 -102.5t101.5 -42.5h402v-235q0 -24 -18 -41.5t-42 -17.5h-290q-25 0 -42.5 17.5t-17.5 41.5v184h-136v-184zM216 524v443 q0 24 17.5 42t42.5 18h290q24 0 42 -18t18 -42v-503h-350q-25 0 -42.5 18t-17.5 42z" />
<glyph unicode=":" horiz-adv-x="175" d="M81 0h96v83h-96v-83zM81 374h96v83h-96v-83z" />
<glyph unicode=";" horiz-adv-x="162" d="M80 104v-292h84v292h-84zM81 374h96v83h-96v-83z" />
<glyph unicode="&#x3c;" d="M80 532q0 -60 42.5 -102t101.5 -42h393q59 0 102 42t43 102v56q0 60 -43 102.5t-102 42.5h-393q-60 0 -102 -43t-42 -102v-56zM216 532v56q0 25 17.5 42t42.5 17h290q24 0 42 -17.5t18 -41.5v-56q0 -24 -18 -42t-42 -18h-290q-25 0 -42.5 18t-17.5 42z" />
<glyph unicode="=" horiz-adv-x="579" d="M81 379h498v83h-498v-83zM81 549h498v83h-498v-83z" />
<glyph unicode="&#x3e;" d="M80 144q0 -59 42.5 -101.5t101.5 -42.5h393q59 0 102 42.5t43 101.5v57q0 60 -43 102t-102 42h-393q-60 0 -102 -42.5t-42 -101.5v-57zM80 532q0 -60 42.5 -102t101.5 -42h393q59 0 102 42t43 102v56q0 60 -43 102.5t-102 42.5h-393q-60 0 -102 -43t-42 -102v-56zM80 911 q0 -59 42.5 -101.5t101.5 -42.5h393q59 0 102 42.5t43 101.5v56q0 60 -43 102t-102 42h-393q-60 0 -102 -42t-42 -102v-56zM216 144v57q0 24 17.5 41.5t42.5 17.5h290q24 0 42 -18t18 -41v-57q0 -24 -18 -41.5t-42 -17.5h-290q-25 0 -42.5 17.5t-17.5 41.5zM216 532v56 q0 25 17.5 42t42.5 17h290q24 0 42 -17.5t18 -41.5v-56q0 -24 -18 -42t-42 -18h-290q-25 0 -42.5 18t-17.5 42zM216 911v56q0 24 17.5 42t42.5 18h290q24 0 42 -18t18 -42v-56q0 -24 -18 -41.5t-42 -17.5h-290q-25 0 -42.5 17.5t-17.5 41.5z" />
<glyph unicode="?" d="M80 0h136v68h-136v-68zM80 144h136v346q0 24 17.5 41.5t42.5 17.5h341q59 0 102 42.5t43 102.5v273q0 60 -43 102t-102 42h-393q-60 0 -102 -42t-42 -102v-234h136v234q0 24 17.5 42t42.5 18h290q24 0 42 -18t18 -42v-273q0 -24 -18 -42t-42 -18h-342q-60 0 -102 -42.5 t-42 -101.5v-346z" />
<glyph unicode="@" horiz-adv-x="973" d="M81 144q0 -59 43 -101.5t102 -42.5h746v85h-712q-24 0 -41.5 17.5t-17.5 41.5v866q0 24 18 41.5t41 17.5h568q24 0 41.5 -18t17.5 -41v-729q0 -25 -17.5 -42.5t-41.5 -17.5q-25 0 -42 17.5t-17 42.5v584q0 60 -43 102.5t-102 42.5h-226q-60 0 -102.5 -42.5t-42.5 -102.5 v-385q0 -60 43 -103t102 -43h234v86h-183q-24 0 -42 18t-18 42v385q0 24 18 42t42 18h175q24 0 41.5 -18t17.5 -42v-584q0 -60 43 -102.5t102 -42.5t101.5 42.5t42.5 102.5v729q0 60 -42.5 102.5t-101.5 42.5h-602q-60 0 -102.5 -43t-42.5 -102v-866z" />
<glyph unicode="A" d="M81 0h136v477h410v-477h137v967q0 60 -43 102t-103 42h-392q-60 0 -102.5 -42t-42.5 -102v-967zM217 563v404q0 24 18 42t42 18h291q24 0 41.5 -18t17.5 -42v-404h-410z" />
<glyph unicode="B" d="M80 144q0 -59 42.5 -101.5t101.5 -42.5h393q59 0 102 42.5t43 101.5v216q0 60 -43 102.5t-102 42.5h-350v-85h299q24 0 42 -18t18 -42v-216q0 -24 -18 -41.5t-42 -17.5h-290q-25 0 -42.5 17.5t-17.5 41.5v823q0 24 17.5 42t42.5 18h290q24 0 42 -18t18 -42v-281 q0 -24 -18 -41.5t-42 -17.5h-299v-85h350q59 0 102 42.5t43 101.5v281q0 60 -43 102t-102 42h-393q-60 0 -102 -42t-42 -102v-823z" />
<glyph unicode="C" d="M80 144q0 -59 42.5 -101.5t101.5 -42.5h393q59 0 102 42.5t43 101.5v320h-136v-320q0 -24 -18 -41.5t-42 -17.5h-290q-25 0 -42.5 17.5t-17.5 41.5v823q0 24 17.5 42t42.5 18h290q24 0 42 -18t18 -42v-320h136v320q0 60 -43 102t-102 42h-393q-60 0 -102 -42t-42 -102 v-823z" />
<glyph unicode="D" d="M80 144q0 -59 42.5 -101.5t101.5 -42.5h393q59 0 102 42.5t43 101.5v823q0 60 -43 102t-102 42h-536v-84h485q24 0 42 -18t18 -42v-823q0 -24 -18 -41.5t-42 -17.5h-290q-25 0 -42.5 17.5t-17.5 41.5v823h-136v-823z" />
<glyph unicode="E" d="M80 144q0 -59 42.5 -101.5t101.5 -42.5h393q59 0 102 42.5t43 101.5v184h-136v-184q0 -24 -18 -41.5t-42 -17.5h-290q-25 0 -42.5 17.5t-17.5 41.5v216q0 24 17.5 42t42.5 18h395v85h-447q-60 0 -102 -42.5t-42 -102.5v-216zM80 686q0 -59 42.5 -101.5t101.5 -42.5h451 v85h-399q-25 0 -42.5 18t-17.5 41v281q0 24 17.5 42t42.5 18h290q24 0 42 -18t18 -42v-247h136v247q0 60 -43 102t-102 42h-393q-60 0 -102 -42t-42 -102v-281z" />
<glyph unicode="F" d="M80 0h136v360q0 24 17.5 42t42.5 18h395v85h-447q-60 0 -102 -42.5t-42 -102.5v-360zM80 686q0 -59 42.5 -101.5t101.5 -42.5h451v85h-399q-25 0 -42.5 18t-17.5 41v281q0 24 17.5 42t42.5 18h290q24 0 42 -18t18 -42v-247h136v247q0 60 -43 102t-102 42h-393 q-60 0 -102 -42t-42 -102v-281z" />
<glyph unicode="G" d="M80 144q0 -59 42.5 -101.5t101.5 -42.5h393q59 0 102 42.5t43 101.5v279q0 60 -43 102.5t-102 42.5h-199v-85h148q24 0 42 -18t18 -42v-279q0 -24 -18 -41.5t-42 -17.5h-290q-25 0 -42.5 17.5t-17.5 41.5v823q0 24 17.5 42t42.5 18h290q24 0 42 -18t18 -42v-320h136v320 q0 60 -43 102t-102 42h-393q-60 0 -102 -42t-42 -102v-823z" />
<glyph unicode="H" d="M80 0h136v477h410v-477h136v1111h-136v-548h-410v548h-136v-1111z" />
<glyph unicode="I" horiz-adv-x="215" d="M80 0h136v1111h-136v-1111z" />
<glyph unicode="J" d="M80 144q0 -59 42.5 -101.5t101.5 -42.5h393q59 0 102 42.5t43 101.5v823q0 60 -43 102t-102 42h-393v-84h342q24 0 42 -18t18 -42v-823q0 -24 -18 -41.5t-42 -17.5h-290q-25 0 -42.5 17.5t-17.5 41.5v320h-136v-320z" />
<glyph unicode="K" d="M80 0h136v1111h-136v-1111zM267 420h299q24 0 42 -18t18 -42v-360h136v360q0 60 -43 102.5t-102 42.5h-350v-85zM267 542h350q59 0 102 42.5t43 101.5v425h-136v-425q0 -24 -18 -41.5t-42 -17.5h-299v-85z" />
<glyph unicode="L" d="M80 144q0 -59 42.5 -101.5t101.5 -42.5h393q59 0 102 42.5t43 101.5v320h-136v-320q0 -24 -18 -41.5t-42 -17.5h-290q-25 0 -42.5 17.5t-17.5 41.5v967h-136v-967z" />
<glyph unicode="M" horiz-adv-x="1223" d="M80 0h136v967q0 24 17.5 42t42.5 18h171q24 0 41.5 -18t17.5 -42v-823q0 -59 43 -101.5t102 -42.5t101.5 42.5t42.5 101.5v823q0 24 18 42t42 18h172q24 0 41.5 -18t17.5 -42v-967h137v967q0 60 -43 102t-103 42h-222q-60 0 -102.5 -42t-42.5 -102v-823 q0 -24 -17.5 -41.5t-41.5 -17.5t-41.5 17.5t-17.5 41.5v823q0 60 -43 102t-102 42h-223q-60 0 -102 -42t-42 -102v-967z" />
<glyph unicode="N" horiz-adv-x="795" d="M80 0h136v967q0 24 17.5 42t42.5 18h171q24 0 41.5 -18t17.5 -42v-823q0 -59 43 -101.5t102 -42.5t101.5 42.5t42.5 101.5v967h-85v-967q0 -24 -17.5 -41.5t-41.5 -17.5t-41.5 17.5t-17.5 41.5v823q0 60 -43 102t-102 42h-223q-60 0 -102 -42t-42 -102v-967z" />
<glyph unicode="O" d="M80 144q0 -59 42.5 -101.5t101.5 -42.5h393q59 0 102 42.5t43 101.5v823q0 60 -43 102t-102 42h-393q-60 0 -102 -42t-42 -102v-823zM216 144v823q0 24 17.5 42t42.5 18h290q24 0 42 -18t18 -42v-823q0 -24 -18 -41.5t-42 -17.5h-290q-25 0 -42.5 17.5t-17.5 41.5z" />
<glyph unicode="P" d="M80 0h136v967q0 24 17.5 42t42.5 18h290q24 0 42 -18t18 -42v-175q0 -24 -18 -41.5t-42 -17.5h-297v-86h348q59 0 102 43t43 102v175q0 60 -43 102t-102 42h-393q-60 0 -102 -42t-42 -102v-967z" />
<glyph unicode="Q" horiz-adv-x="817" d="M80 146q0 -61 42 -102t102 -42l52 -2v86q-25 0 -42.5 18t-17.5 42v821q0 24 17.5 42t42.5 18h395q25 0 42.5 -18t17.5 -42v-821q0 -24 -17.5 -42t-42.5 -18q-24 0 -41.5 18t-17.5 42v233q0 60 -42.5 102.5t-102.5 42.5q-59 0 -101.5 -43t-42.5 -102v-598h85v598 q0 24 18 41.5t41 17.5q24 0 42 -17.5t18 -41.5v-233q0 -60 42.5 -102t101.5 -42q60 0 102.5 42t42.5 102v821q0 60 -42.5 102t-102.5 42h-447q-60 0 -102 -42t-42 -102v-821z" />
<glyph unicode="R" d="M80 0h136v967q0 24 17.5 42t42.5 18h290q24 0 42 -18t18 -42v-281q0 -24 -18 -41.5t-42 -17.5h-299v-85h350q59 0 102 42.5t43 101.5v281q0 60 -43 102t-102 42h-393q-60 0 -102 -42t-42 -102v-967zM267 420h299q24 0 42 -18t18 -42v-360h136v360q0 60 -43 102.5 t-102 42.5h-350v-85z" />
<glyph unicode="S" d="M80 144q0 -59 42.5 -101.5t101.5 -42.5h393q59 0 102 42.5t43 101.5v274q0 60 -43 102.5t-102 42.5h-341q-25 0 -42.5 17.5t-17.5 41.5v345q0 24 17.5 42t42.5 18h290q24 0 42 -18t18 -42v-297h136v297q0 60 -43 102t-102 42h-393q-60 0 -102 -42t-42 -102v-345 q0 -59 42.5 -102t101.5 -43h342q24 0 42 -17.5t18 -41.5v-274q0 -24 -18 -41.5t-42 -17.5h-290q-25 0 -42.5 17.5t-17.5 41.5v235h-136v-235z" />
<glyph unicode="T" horiz-adv-x="752" d="M81 925h273q24 0 41.5 -18t17.5 -42v-865h136v865q0 60 -42.5 102.5t-102.5 42.5h-323v-85zM81 1027h672v84h-672v-84z" />
<glyph unicode="U" horiz-adv-x="795" d="M80 144q0 -59 42.5 -101.5t101.5 -42.5h223q60 0 102.5 42.5t42.5 101.5v823q0 24 17.5 42t41.5 18t41.5 -18t17.5 -42v-967h85v967q0 60 -42.5 102t-101.5 42q-60 0 -102.5 -42t-42.5 -102v-823q0 -24 -17.5 -41.5t-41.5 -17.5h-171q-25 0 -42.5 17.5t-17.5 41.5v967 h-136v-967z" />
<glyph unicode="V" d="M80 144q0 -59 42.5 -101.5t101.5 -42.5h393q59 0 102 42.5t43 101.5v967h-86v-967q0 -24 -17.5 -41.5t-41.5 -17.5h-341q-25 0 -42.5 17.5t-17.5 41.5v967h-136v-967z" />
<glyph unicode="W" horiz-adv-x="1223" d="M80 144q0 -59 42.5 -101.5t101.5 -42.5h223q60 0 102.5 42.5t42.5 101.5v823q0 24 17.5 42t41.5 18t41.5 -18t17.5 -42v-823q0 -59 42.5 -101.5t102.5 -42.5h222q60 0 103 42.5t43 101.5v967h-137v-967q0 -24 -17.5 -41.5t-41.5 -17.5h-172q-24 0 -42 17.5t-18 41.5v823 q0 60 -42.5 102t-101.5 42q-60 0 -102.5 -42t-42.5 -102v-823q0 -24 -17.5 -41.5t-41.5 -17.5h-171q-25 0 -42.5 17.5t-17.5 41.5v967h-136v-967z" />
<glyph unicode="X" d="M80 0h136v362q0 24 17.5 42t42.5 18h290q24 0 42 -18t18 -42v-362h136v362q0 60 -43 102t-102 42h-393q-60 0 -102 -42t-42 -102v-362zM80 686q0 -59 42.5 -101.5t101.5 -42.5h393q59 0 102 42.5t43 101.5v425h-136v-425q0 -24 -18 -41.5t-42 -17.5h-290q-25 0 -42.5 18 t-17.5 41v425h-136v-425z" />
<glyph unicode="Y" horiz-adv-x="795" d="M80 144q0 -59 42.5 -101.5t101.5 -42.5h427q30 0 57 12t46.5 31.5t30 45.5t10.5 57v821q0 60 -42.5 102t-101.5 42q-60 0 -102.5 -42t-42.5 -102v-345q0 -24 -17.5 -41.5t-41.5 -17.5h-171q-25 0 -42.5 17.5t-17.5 41.5v489h-136v-489q0 -59 42.5 -102t101.5 -43h223 q60 0 102.5 43t42.5 102v345q0 24 17.5 42t41.5 18t41.5 -18t17.5 -42v-821q0 -26 -17 -43.5t-42 -17.5h-375q-25 0 -42.5 17.5t-17.5 41.5v235h-136v-235z" />
<glyph unicode="Z" d="M80 144q0 -59 42.5 -101.5t101.5 -42.5h393q59 0 102 42.5t43 101.5v235h-136v-235q0 -24 -18 -41.5t-42 -17.5h-342q-24 0 -41.5 17.5t-17.5 41.5q0 51 25 88q12 16 113 117l290 290q169 169 169 328q0 60 -43 102t-102 42h-393q-60 0 -102 -42t-42 -102v-297h136v297 q0 24 17.5 42t42.5 18h341q24 0 41.5 -18t17.5 -42q0 -83 -42 -148q-24 -40 -102 -118l-290 -291q-103 -102 -127 -138q-35 -55 -35 -128z" />
<glyph unicode="[" horiz-adv-x="420" d="M81 144q0 -59 43 -101.5t102 -42.5h196v85h-145q-24 0 -42 17.5t-18 41.5v823q0 24 18 42t42 18h145v84h-196q-60 0 -102.5 -42t-42.5 -102v-823z" />
<glyph unicode="\" horiz-adv-x="752" d="M122 102q0 -42 30 -72t72 -30h393q42 0 72 30t30 72v908q0 42 -29.5 71.5t-72.5 29.5h-393q-42 0 -72 -29.5t-30 -71.5v-908z" />
<glyph unicode="]" horiz-adv-x="420" d="M81 0h196q60 0 102.5 42.5t42.5 101.5v823q0 60 -42.5 102t-102.5 42h-196v-84h145q24 0 42 -18t18 -42v-823q0 -24 -18 -41.5t-42 -17.5h-145v-85z" />
<glyph unicode="^" horiz-adv-x="375" d="M87 903h85v55q0 24 17.5 41.5t41.5 17.5t41.5 -18t17.5 -41l-1 -55h87v55q0 60 -43 102.5t-102 42.5t-101.5 -43t-42.5 -102v-55z" />
<glyph unicode="_" horiz-adv-x="854" d="M81 -51v-136h772v136h-772z" />
<glyph unicode="`" horiz-adv-x="337" d="M88 1051l186 -184l59 59l-184 185z" />
<glyph unicode="a" d="M80 153q0 -60 42.5 -102.5t101.5 -42.5h393q59 0 102 43t43 102v814q0 60 -43 102t-102 42h-393q-60 0 -102 -42t-42 -102v-183h136v183q0 24 17.5 42t42.5 18h290q24 0 42 -18t18 -42v-814q0 -24 -18 -41.5t-42 -17.5h-290q-25 0 -42.5 17.5t-17.5 41.5v435 q0 25 17.5 42t42.5 17h298v86h-350q-60 0 -102 -43t-42 -102v-435z" />
<glyph unicode="b" d="M80 144q0 -59 42.5 -101.5t101.5 -42.5h393q59 0 102 42.5t43 101.5v444q0 60 -43 102.5t-102 42.5h-348v-86h297q24 0 42 -17.5t18 -41.5v-444q0 -24 -18 -41.5t-42 -17.5h-290q-25 0 -42.5 17.5t-17.5 41.5v967h-136v-967z" />
<glyph unicode="c" d="M80 144q0 -59 42.5 -101.5t101.5 -42.5h393q59 0 102 42.5t43 101.5v320h-136v-320q0 -24 -18 -41.5t-42 -17.5h-290q-25 0 -42.5 17.5t-17.5 41.5v823q0 24 17.5 42t42.5 18h290q24 0 42 -18t18 -42v-320h136v320q0 60 -43 102t-102 42h-393q-60 0 -102 -42t-42 -102 v-823z" />
<glyph unicode="d" d="M80 144q0 -59 42.5 -101.5t101.5 -42.5h393q59 0 102 42.5t43 101.5v967h-136v-967q0 -24 -18 -41.5t-42 -17.5h-290q-25 0 -42.5 17.5t-17.5 41.5v444q0 25 17.5 42t42.5 17h297v86h-349q-60 0 -102 -43t-42 -102v-444z" />
<glyph unicode="e" d="M80 144q0 -59 42.5 -101.5t101.5 -42.5h393q59 0 102 42.5t43 101.5v184h-136v-184q0 -24 -18 -41.5t-42 -17.5h-290q-25 0 -42.5 17.5t-17.5 41.5v823q0 24 17.5 42t42.5 18h290q24 0 42 -18t18 -42v-443q0 -24 -18 -42t-42 -18h-299v-85h350q59 0 102 42.5t43 102.5 v443q0 60 -43 102t-102 42h-393q-60 0 -102 -42t-42 -102v-823z" />
<glyph unicode="f" d="M80 0h136v360q0 24 17.5 42t42.5 18h395v85h-447q-60 0 -102 -42.5t-42 -102.5v-360zM80 686q0 -59 42.5 -101.5t101.5 -42.5h451v85h-399q-25 0 -42.5 18t-17.5 41v281q0 24 17.5 42t42.5 18h290q24 0 42 -18t18 -42v-247h136v247q0 60 -43 102t-102 42h-393 q-60 0 -102 -42t-42 -102v-281z" />
<glyph unicode="g" d="M80 144q0 -59 42.5 -101.5t101.5 -42.5h393q59 0 102 42.5t43 101.5v823q0 60 -43 102t-102 42h-393q-60 0 -102 -42t-42 -102v-443q0 -60 42.5 -102.5t101.5 -42.5h350v85h-298q-25 0 -42.5 18t-17.5 42v443q0 24 17.5 42t42.5 18h290q24 0 42 -18t18 -42v-823 q0 -24 -18 -41.5t-42 -17.5h-290q-25 0 -42.5 17.5t-17.5 41.5v184h-136v-184z" />
<glyph unicode="h" d="M80 0h136v1111h-136v-1111zM267 0h85v588q0 25 18 42t42 17h154q24 0 42 -17.5t18 -41.5v-588h136v588q0 60 -43 102.5t-102 42.5h-205q-60 0 -102.5 -43t-42.5 -102v-588z" />
<glyph unicode="i" horiz-adv-x="217" d="M80 0h136v993h-136v-993zM80 1043h136v68h-136v-68z" />
<glyph unicode="j" d="M80 144q0 -59 42.5 -101.5t101.5 -42.5h393q59 0 102 42.5t43 101.5v704q0 60 -43 102.5t-102 42.5h-393v-85h342q24 0 42 -18t18 -42v-704q0 -24 -18 -41.5t-42 -17.5h-290q-25 0 -42.5 17.5t-17.5 41.5v234h-136v-234zM224 1043h538v68h-538v-68z" />
<glyph unicode="k" d="M80 0h136v1111h-136v-1111zM267 420h299q24 0 42 -18t18 -42v-360h136v360q0 60 -43 102.5t-102 42.5h-350v-85zM267 542h350q59 0 102 42.5t43 101.5v425h-136v-425q0 -24 -18 -41.5t-42 -17.5h-299v-85z" />
<glyph unicode="l" d="M80 144q0 -59 42.5 -101.5t101.5 -42.5h393q59 0 102 42.5t43 101.5v320h-136v-320q0 -24 -18 -41.5t-42 -17.5h-290q-25 0 -42.5 17.5t-17.5 41.5v967h-136v-967z" />
<glyph unicode="m" horiz-adv-x="1223" d="M80 0h136v967q0 24 17.5 42t42.5 18h171q24 0 41.5 -18t17.5 -42v-823q0 -59 43 -101.5t102 -42.5t101.5 42.5t42.5 101.5v823q0 24 18 42t42 18h172q24 0 41.5 -18t17.5 -42v-967h137v967q0 60 -43 102t-103 42h-222q-60 0 -102.5 -42t-42.5 -102v-823 q0 -24 -17.5 -41.5t-41.5 -17.5t-41.5 17.5t-17.5 41.5v823q0 60 -43 102t-102 42h-223q-60 0 -102 -42t-42 -102v-967z" />
<glyph unicode="n" horiz-adv-x="795" d="M80 144q0 -59 42.5 -101.5t101.5 -42.5q60 0 102.5 42.5t42.5 101.5v823q0 24 17.5 42t41.5 18h172q24 0 42 -18t18 -42v-967h135v967q0 60 -42.5 102t-101.5 42h-223q-59 0 -101.5 -42t-42.5 -102v-823q0 -24 -18 -41.5t-42 -17.5t-41.5 17.5t-17.5 41.5v967h-85v-967z " />
<glyph unicode="o" d="M80 144q0 -59 42.5 -101.5t101.5 -42.5h393q59 0 102 42.5t43 101.5v823q0 60 -43 102t-102 42h-393q-60 0 -102 -42t-42 -102v-823zM216 144v823q0 24 17.5 42t42.5 18h290q24 0 42 -18t18 -42v-823q0 -24 -18 -41.5t-42 -17.5h-290q-25 0 -42.5 17.5t-17.5 41.5z" />
<glyph unicode="p" d="M80 0h136v967q0 24 17.5 42t42.5 18h290q24 0 42 -18t18 -42v-443q0 -24 -18 -42t-42 -18h-297v-85h348q59 0 102 42.5t43 102.5v443q0 60 -43 102t-102 42h-393q-60 0 -102 -42t-42 -102v-967z" />
<glyph unicode="q" d="M80 524q0 -60 42.5 -102.5t101.5 -42.5h349v85h-297q-25 0 -42.5 18t-17.5 42v443q0 24 17.5 42t42.5 18h290q24 0 42 -18t18 -42v-967h136v967q0 60 -43 102t-102 42h-393q-60 0 -102 -42t-42 -102v-443z" />
<glyph unicode="r" d="M80 0h136v967q0 24 17.5 42t42.5 18h290q24 0 42 -18t18 -42v-320h136v320q0 60 -43 102t-102 42h-393q-60 0 -102 -42t-42 -102v-967z" />
<glyph unicode="s" d="M80 144q0 -59 42.5 -101.5t101.5 -42.5h393q59 0 102 42.5t43 101.5v274q0 60 -43 102.5t-102 42.5h-341q-25 0 -42.5 17.5t-17.5 41.5v345q0 24 17.5 42t42.5 18h290q24 0 42 -18t18 -42v-297h136v297q0 60 -43 102t-102 42h-393q-60 0 -102 -42t-42 -102v-345 q0 -59 42.5 -102t101.5 -43h342q24 0 42 -17.5t18 -41.5v-274q0 -24 -18 -41.5t-42 -17.5h-290q-25 0 -42.5 17.5t-17.5 41.5v235h-136v-235z" />
<glyph unicode="t" d="M80 144q0 -59 42.5 -101.5t101.5 -42.5h393q59 0 102 42.5t43 101.5v320h-136v-320q0 -24 -18 -41.5t-42 -17.5h-290q-25 0 -42.5 17.5t-17.5 41.5v444q0 25 17.5 42t42.5 17h486v86h-538q-60 0 -102 -43t-42 -102v-444zM80 915q0 -60 42.5 -102.5t101.5 -42.5h538v85 h-486q-25 0 -42.5 18t-17.5 42v196h-136v-196z" />
<glyph unicode="u" horiz-adv-x="795" d="M80 144q0 -59 42.5 -101.5t101.5 -42.5h223q60 0 102.5 42.5t42.5 101.5v823q0 24 17.5 42t41.5 18t41.5 -18t17.5 -42v-967h85v967q0 60 -42.5 102t-101.5 42q-60 0 -102.5 -42t-42.5 -102v-823q0 -24 -17.5 -41.5t-41.5 -17.5h-171q-25 0 -42.5 17.5t-17.5 41.5v967 h-136v-967z" />
<glyph unicode="v" d="M80 144q0 -59 42.5 -101.5t101.5 -42.5h393q59 0 102 42.5t43 101.5v967h-86v-967q0 -24 -17.5 -41.5t-41.5 -17.5h-341q-25 0 -42.5 17.5t-17.5 41.5v967h-136v-967z" />
<glyph unicode="w" horiz-adv-x="1223" d="M80 144q0 -59 42.5 -101.5t101.5 -42.5h223q60 0 102.5 42.5t42.5 101.5v823q0 24 17.5 42t41.5 18t41.5 -18t17.5 -42v-823q0 -59 42.5 -101.5t102.5 -42.5h222q60 0 103 42.5t43 101.5v967h-137v-967q0 -24 -17.5 -41.5t-41.5 -17.5h-172q-24 0 -42 17.5t-18 41.5v823 q0 60 -42.5 102t-101.5 42q-60 0 -102.5 -42t-42.5 -102v-823q0 -24 -17.5 -41.5t-41.5 -17.5h-171q-25 0 -42.5 17.5t-17.5 41.5v967h-136v-967z" />
<glyph unicode="x" d="M80 0h136v362q0 24 17.5 42t42.5 18h290q24 0 42 -18t18 -42v-362h136v362q0 60 -43 102t-102 42h-393q-60 0 -102 -42t-42 -102v-362zM80 686q0 -59 42.5 -101.5t101.5 -42.5h393q59 0 102 42.5t43 101.5v425h-136v-425q0 -24 -18 -41.5t-42 -17.5h-290q-25 0 -42.5 18 t-17.5 41v425h-136v-425z" />
<glyph unicode="y" horiz-adv-x="795" d="M80 144q0 -59 42.5 -101.5t101.5 -42.5h427q30 0 57 12t46.5 31.5t30 45.5t10.5 57v821q0 60 -42.5 102t-101.5 42q-60 0 -102.5 -42t-42.5 -102v-345q0 -24 -17.5 -41.5t-41.5 -17.5h-171q-25 0 -42.5 17.5t-17.5 41.5v489h-136v-489q0 -59 42.5 -102t101.5 -43h223 q60 0 102.5 43t42.5 102v345q0 24 17.5 42t41.5 18t41.5 -18t17.5 -42v-821q0 -26 -17 -43.5t-42 -17.5h-375q-25 0 -42.5 17.5t-17.5 41.5v235h-136v-235z" />
<glyph unicode="z" d="M80 144q0 -59 42.5 -101.5t101.5 -42.5h393q59 0 102 42.5t43 101.5v235h-136v-235q0 -24 -18 -41.5t-42 -17.5h-342q-24 0 -41.5 17.5t-17.5 41.5q0 51 25 88q12 16 113 117l290 290q169 169 169 328q0 60 -43 102t-102 42h-393q-60 0 -102 -42t-42 -102v-297h136v297 q0 24 17.5 42t42.5 18h341q24 0 41.5 -18t17.5 -42q0 -83 -42 -148q-24 -40 -102 -118l-290 -291q-103 -102 -127 -138q-35 -55 -35 -128z" />
<glyph unicode="{" horiz-adv-x="420" d="M81 144q0 -59 43 -101.5t102 -42.5h196v85h-145q-24 0 -42 17.5t-18 41.5v823q0 24 18 42t42 18h145v84h-196q-60 0 -102.5 -42t-42.5 -102v-823z" />
<glyph unicode="|" horiz-adv-x="215" d="M80 -170h136v1452h-136v-1452z" />
<glyph unicode="}" horiz-adv-x="420" d="M81 0h196q60 0 102.5 42.5t42.5 101.5v823q0 60 -42.5 102t-102.5 42h-196v-84h145q24 0 42 -18t18 -42v-823q0 -24 -18 -41.5t-42 -17.5h-145v-85z" />
<glyph unicode="~" horiz-adv-x="579" d="M81 818h86v149q0 24 18 42t41 18h6q24 0 41 -18t17 -42v-5q0 -60 43 -102t102 -42q60 0 102 42t42 102v149h-84v-149q0 -24 -18 -42t-42 -18t-41.5 18t-17.5 42v5q0 60 -43 102t-101 42h-6q-60 0 -102.5 -42t-42.5 -102v-149z" />
<glyph unicode="&#xa0;" />
<glyph unicode="&#xa1;" horiz-adv-x="217" d="M80 0h136v993h-136v-993zM80 1043h136v68h-136v-68z" />
<glyph unicode="&#xa2;" d="M80 144q0 -59 42.5 -101.5t101.5 -42.5h393q59 0 102 42.5t43 101.5v57q0 60 -43 102t-102 42h-393q-60 0 -102 -42.5t-42 -101.5v-57zM80 532q0 -60 42.5 -102t101.5 -42h393q59 0 102 42t43 102v56q0 60 -43 102.5t-102 42.5h-393q-60 0 -102 -43t-42 -102v-56z M216 144v57q0 24 17.5 41.5t42.5 17.5h290q24 0 42 -18t18 -41v-57q0 -24 -18 -41.5t-42 -17.5h-290q-25 0 -42.5 17.5t-17.5 41.5zM216 532v56q0 25 17.5 42t42.5 17h290q24 0 42 -17.5t18 -41.5v-56q0 -24 -18 -42t-42 -18h-290q-25 0 -42.5 18t-17.5 42z" />
<glyph unicode="&#xa3;" d="M80 144q0 -59 42.5 -101.5t101.5 -42.5h393q59 0 102 42.5t43 101.5v320h-136v-320q0 -24 -18 -41.5t-42 -17.5h-290q-25 0 -42.5 17.5t-17.5 41.5v589h228v86h-228v148q0 24 17.5 42t42.5 18h341v84h-393q-60 0 -102 -42t-42 -102v-823z" />
<glyph unicode="&#xa4;" d="M80 144q0 -59 42.5 -101.5t101.5 -42.5h393q59 0 102 42.5t43 101.5v57q0 60 -43 102t-102 42h-393q-60 0 -102 -42.5t-42 -101.5v-57zM80 532q0 -60 42.5 -102t101.5 -42h393q59 0 102 42t43 102v56q0 60 -43 102.5t-102 42.5h-393q-60 0 -102 -43t-42 -102v-56z M216 144v57q0 24 17.5 41.5t42.5 17.5h290q24 0 42 -18t18 -41v-57q0 -24 -18 -41.5t-42 -17.5h-290q-25 0 -42.5 17.5t-17.5 41.5zM216 532v56q0 25 17.5 42t42.5 17h290q24 0 42 -17.5t18 -41.5v-56q0 -24 -18 -42t-42 -18h-290q-25 0 -42.5 18t-17.5 42z" />
<glyph unicode="&#xa5;" d="M80 532q0 -60 42.5 -102t101.5 -42h393q59 0 102 42t43 102v56q0 60 -43 102.5t-102 42.5h-393q-60 0 -102 -43t-42 -102v-56zM216 532v56q0 25 17.5 42t42.5 17h290q24 0 42 -17.5t18 -41.5v-56q0 -24 -18 -42t-42 -18h-290q-25 0 -42.5 18t-17.5 42z" />
<glyph unicode="&#xa7;" d="M80 144q0 -59 42.5 -101.5t101.5 -42.5h393q59 0 102 42.5t43 101.5v274q0 60 -43 102.5t-102 42.5h-341q-25 0 -42.5 17.5t-17.5 41.5v345q0 24 17.5 42t42.5 18h290q24 0 42 -18t18 -42v-297h136v297q0 60 -43 102t-102 42h-393q-60 0 -102 -42t-42 -102v-345 q0 -59 42.5 -102t101.5 -43h342q24 0 42 -17.5t18 -41.5v-274q0 -24 -18 -41.5t-42 -17.5h-290q-25 0 -42.5 17.5t-17.5 41.5v235h-136v-235z" />
<glyph unicode="&#xa8;" horiz-adv-x="579" d="M276 1231q0 -24 17 -41t40 -17q24 0 41 17t17 41t-17 40.5t-41 16.5t-40.5 -16.5t-16.5 -40.5zM480 1231q0 -24 16.5 -41t40.5 -17t41 17t17 41t-17 40.5t-41 16.5t-40.5 -16.5t-16.5 -40.5z" />
<glyph unicode="&#xa9;" horiz-adv-x="929" d="M80 144q0 -59 42.5 -101.5t101.5 -42.5h563q60 0 102 42.5t42 101.5v823q0 60 -42 102t-102 42h-563q-60 0 -102 -42t-42 -102v-823zM216 144v823q0 24 17.5 42t42.5 18h460q24 0 41.5 -18t17.5 -42v-823q0 -24 -18 -41.5t-41 -17.5h-460q-25 0 -42.5 17.5t-17.5 41.5z M250 315q0 -60 42 -102.5t102 -42.5h223q59 0 102 42.5t43 102.5v149h-136v-149q0 -25 -18 -42.5t-42 -17.5h-120q-24 0 -42 17.5t-18 42.5v483q0 24 18 41.5t42 17.5h120q24 0 42 -18t18 -41v-151h136v151q0 59 -43 101.5t-102 42.5h-223q-60 0 -102 -42.5t-42 -101.5v-483 z" />
<glyph unicode="&#xaa;" d="M80 144q0 -59 42.5 -101.5t101.5 -42.5h393q59 0 102 42.5t43 101.5v57q0 60 -43 102t-102 42h-393q-60 0 -102 -42.5t-42 -101.5v-57zM80 911q0 -59 42.5 -101.5t101.5 -42.5h393q59 0 102 42.5t43 101.5v56q0 60 -43 102t-102 42h-393q-60 0 -102 -42t-42 -102v-56z M216 144v57q0 24 17.5 41.5t42.5 17.5h290q24 0 42 -18t18 -41v-57q0 -24 -18 -41.5t-42 -17.5h-290q-25 0 -42.5 17.5t-17.5 41.5zM216 911v56q0 24 17.5 42t42.5 18h290q24 0 42 -18t18 -42v-56q0 -24 -18 -41.5t-42 -17.5h-290q-25 0 -42.5 17.5t-17.5 41.5z" />
<glyph unicode="&#xab;" d="M80 532q0 -60 42.5 -102t101.5 -42h393q59 0 102 42t43 102v56q0 60 -43 102.5t-102 42.5h-393q-60 0 -102 -43t-42 -102v-56zM216 532v56q0 25 17.5 42t42.5 17h290q24 0 42 -17.5t18 -41.5v-56q0 -24 -18 -42t-42 -18h-290q-25 0 -42.5 18t-17.5 42z" />
<glyph unicode="&#xac;" d="M80 532q0 -60 42.5 -102t101.5 -42h393q59 0 102 42t43 102v56q0 60 -43 102.5t-102 42.5h-393q-60 0 -102 -43t-42 -102v-56zM216 532v56q0 25 17.5 42t42.5 17h290q24 0 42 -17.5t18 -41.5v-56q0 -24 -18 -42t-42 -18h-290q-25 0 -42.5 18t-17.5 42z" />
<glyph unicode="&#xad;" horiz-adv-x="579" d="M81 379h498v83h-498v-83z" />
<glyph unicode="&#xae;" horiz-adv-x="929" d="M80 144q0 -59 42.5 -101.5t101.5 -42.5h563q60 0 102 42.5t42 101.5v823q0 60 -42 102t-102 42h-563q-60 0 -102 -42t-42 -102v-823zM216 144v823q0 24 17.5 42t42.5 18h460q24 0 41.5 -18t17.5 -42v-823q0 -24 -18 -41.5t-41 -17.5h-460q-25 0 -42.5 17.5t-17.5 41.5z M250 170h136v628q0 24 18 41.5t42 17.5h120q24 0 42 -18t18 -41v-112q0 -24 -18 -41.5t-42 -17.5h-129v-85h180q59 0 102 42.5t43 101.5v112q0 59 -43 101.5t-102 42.5h-223q-60 0 -102 -42.5t-42 -101.5v-628zM437 420h129q24 0 42 -18t18 -42v-190h136v190q0 60 -43 102.5 t-102 42.5h-180v-85z" />
<glyph unicode="&#xaf;" horiz-adv-x="579" d="M199 1174h498v84h-498v-84z" />
<glyph unicode="&#xb0;" horiz-adv-x="392" d="M99 967q0 -60 41.5 -101.5t101.5 -41.5t101.5 42t41.5 101q0 60 -41.5 101.5t-101.5 41.5t-101.5 -41.5t-41.5 -101.5z" />
<glyph unicode="&#xb1;" d="M80 144q0 -59 42.5 -101.5t101.5 -42.5h393q59 0 102 42.5t43 101.5v57q0 60 -43 102t-102 42h-393q-60 0 -102 -42.5t-42 -101.5v-57zM80 911q0 -59 42.5 -101.5t101.5 -42.5h393q59 0 102 42.5t43 101.5v56q0 60 -43 102t-102 42h-393q-60 0 -102 -42t-42 -102v-56z M216 144v57q0 24 17.5 41.5t42.5 17.5h290q24 0 42 -18t18 -41v-57q0 -24 -18 -41.5t-42 -17.5h-290q-25 0 -42.5 17.5t-17.5 41.5zM216 911v56q0 24 17.5 42t42.5 18h290q24 0 42 -18t18 -42v-56q0 -24 -18 -41.5t-42 -17.5h-290q-25 0 -42.5 17.5t-17.5 41.5z" />
<glyph unicode="&#xb4;" horiz-adv-x="579" d="M328 1234l60 -60l185 186l-60 59z" />
<glyph unicode="&#xb6;" d="M80 532q0 -60 42.5 -102t101.5 -42h393q59 0 102 42t43 102v56q0 60 -43 102.5t-102 42.5h-393q-60 0 -102 -43t-42 -102v-56zM80 911q0 -59 42.5 -101.5t101.5 -42.5h393q59 0 102 42.5t43 101.5v56q0 60 -43 102t-102 42h-393q-60 0 -102 -42t-42 -102v-56zM216 532v56 q0 25 17.5 42t42.5 17h290q24 0 42 -17.5t18 -41.5v-56q0 -24 -18 -42t-42 -18h-290q-25 0 -42.5 18t-17.5 42zM216 911v56q0 24 17.5 42t42.5 18h290q24 0 42 -18t18 -42v-56q0 -24 -18 -41.5t-42 -17.5h-290q-25 0 -42.5 17.5t-17.5 41.5z" />
<glyph unicode="&#xb7;" horiz-adv-x="175" d="M81 0h96v83h-96v-83z" />
<glyph unicode="&#xb8;" horiz-adv-x="594" d="M308 -170v-54q0 -60 42.5 -102.5t101.5 -42.5q60 0 102.5 42.5t42.5 102.5v224h-86v-224q0 -24 -17.5 -42t-41.5 -18t-41.5 18t-17.5 42l1 54h-86z" />
<glyph unicode="&#xba;" d="M80 144q0 -59 42.5 -101.5t101.5 -42.5h393q59 0 102 42.5t43 101.5v57q0 60 -43 102t-102 42h-393q-60 0 -102 -42.5t-42 -101.5v-57zM80 532q0 -60 42.5 -102t101.5 -42h393q59 0 102 42t43 102v56q0 60 -43 102.5t-102 42.5h-393q-60 0 -102 -43t-42 -102v-56z M216 144v57q0 24 17.5 41.5t42.5 17.5h290q24 0 42 -18t18 -41v-57q0 -24 -18 -41.5t-42 -17.5h-290q-25 0 -42.5 17.5t-17.5 41.5zM216 532v56q0 25 17.5 42t42.5 17h290q24 0 42 -17.5t18 -41.5v-56q0 -24 -18 -42t-42 -18h-290q-25 0 -42.5 18t-17.5 42z" />
<glyph unicode="&#xbb;" d="M80 144q0 -59 42.5 -101.5t101.5 -42.5h393q59 0 102 42.5t43 101.5v57q0 60 -43 102t-102 42h-393q-60 0 -102 -42.5t-42 -101.5v-57zM80 532q0 -60 42.5 -102t101.5 -42h393q59 0 102 42t43 102v56q0 60 -43 102.5t-102 42.5h-393q-60 0 -102 -43t-42 -102v-56zM80 911 q0 -59 42.5 -101.5t101.5 -42.5h393q59 0 102 42.5t43 101.5v56q0 60 -43 102t-102 42h-393q-60 0 -102 -42t-42 -102v-56zM216 144v57q0 24 17.5 41.5t42.5 17.5h290q24 0 42 -18t18 -41v-57q0 -24 -18 -41.5t-42 -17.5h-290q-25 0 -42.5 17.5t-17.5 41.5zM216 532v56 q0 25 17.5 42t42.5 17h290q24 0 42 -17.5t18 -41.5v-56q0 -24 -18 -42t-42 -18h-290q-25 0 -42.5 18t-17.5 42zM216 911v56q0 24 17.5 42t42.5 18h290q24 0 42 -18t18 -42v-56q0 -24 -18 -41.5t-42 -17.5h-290q-25 0 -42.5 17.5t-17.5 41.5z" />
<glyph unicode="&#xbf;" d="M80 144q0 -59 42.5 -101.5t101.5 -42.5h393q59 0 102 42.5t43 101.5v235h-136v-235q0 -24 -18 -41.5t-42 -17.5h-290q-25 0 -42.5 17.5t-17.5 41.5v274q0 24 17.5 41.5t42.5 17.5h341q59 0 102 43t43 102v345h-136v-345q0 -24 -18 -41.5t-42 -17.5h-342q-60 0 -102 -43 t-42 -102v-274zM626 1043h136v68h-136v-68z" />
<glyph unicode="&#xc0;" d="M81 0h136v477h410v-477h137v967q0 60 -43 102t-103 42h-392q-60 0 -102.5 -42t-42.5 -102v-967zM217 563v404q0 24 18 42t42 18h291q24 0 41.5 -18t17.5 -42v-404h-410z" />
<glyph unicode="&#xc1;" d="M80 144q0 -59 42.5 -101.5t101.5 -42.5h393q59 0 102 42.5t43 101.5v216q0 60 -43 102.5t-102 42.5h-350v-85h299q24 0 42 -18t18 -42v-216q0 -24 -18 -41.5t-42 -17.5h-290q-25 0 -42.5 17.5t-17.5 41.5v823q0 24 17.5 42t42.5 18h486v84h-538q-60 0 -102 -42t-42 -102 v-823z" />
<glyph unicode="&#xc2;" d="M80 144q0 -59 42.5 -101.5t101.5 -42.5h393q59 0 102 42.5t43 101.5v216q0 60 -43 102.5t-102 42.5h-350v-85h299q24 0 42 -18t18 -42v-216q0 -24 -18 -41.5t-42 -17.5h-290q-25 0 -42.5 17.5t-17.5 41.5v823q0 24 17.5 42t42.5 18h290q24 0 42 -18t18 -42v-281 q0 -24 -18 -41.5t-42 -17.5h-299v-85h350q59 0 102 42.5t43 101.5v281q0 60 -43 102t-102 42h-393q-60 0 -102 -42t-42 -102v-823z" />
<glyph unicode="&#xc3;" d="M80 0h136v967q0 24 17.5 42t42.5 18h486v84h-538q-60 0 -102 -42t-42 -102v-967z" />
<glyph unicode="&#xc4;" horiz-adv-x="976" d="M80 0h557q60 0 98.5 41.5t38.5 101.5v238q1 22 18 38t41 16t41.5 -18t17.5 -41v-598h86v598q0 60 -43 102t-102 42q-32 0 -59 -14v461q0 60 -43 102t-102 42h-223q-60 0 -102.5 -42t-42.5 -102v-823q0 -24 -18.5 -42.5t-44.5 -18.5h-118v-83zM331 83q7 13 11.5 29t4.5 32 v823q0 24 18 42t41 18h172q24 0 41.5 -18t17.5 -42v-884h-306z" />
<glyph unicode="&#xc5;" d="M80 144q0 -59 42.5 -101.5t101.5 -42.5h393q59 0 102 42.5t43 101.5v184h-136v-184q0 -24 -18 -41.5t-42 -17.5h-290q-25 0 -42.5 17.5t-17.5 41.5v216q0 24 17.5 42t42.5 18h395v85h-447q-60 0 -102 -42.5t-42 -102.5v-216zM80 686q0 -59 42.5 -101.5t101.5 -42.5h451 v85h-399q-25 0 -42.5 18t-17.5 41v281q0 24 17.5 42t42.5 18h290q24 0 42 -18t18 -42v-247h136v247q0 60 -43 102t-102 42h-393q-60 0 -102 -42t-42 -102v-281z" />
<glyph unicode="&#xc6;" horiz-adv-x="1304" d="M78 0h136v360q0 24 18 42t42 18h299v85h-351q-59 0 -101.5 -42.5t-42.5 -102.5v-360zM78 686q0 -59 43 -101.5t101 -42.5h351v85h-299q-24 0 -42 18t-18 41v425h-136v-425zM624 0h135v1111h-135v-1111zM811 420h299q24 0 41.5 -18t17.5 -42v-360h137v360q0 60 -43 102.5 t-102 42.5h-350v-85zM811 542h350q60 0 102.5 42.5t42.5 101.5v425h-137v-425q0 -24 -17.5 -41.5t-41.5 -17.5h-299v-85z" />
<glyph unicode="&#xc7;" d="M78 144q0 -59 43 -101.5t101 -42.5h393q60 0 102 42.5t42 101.5v216q0 60 -42 102.5t-102 42.5h-447v-85h396q24 0 42 -18t18 -42v-216q0 -24 -18 -41.5t-42 -17.5h-290q-24 0 -42 17.5t-18 41.5v184h-136v-184zM78 720h136v247q0 24 18 42t42 18h290q24 0 42 -18t18 -42 v-281q0 -24 -18 -41.5t-42 -17.5h-399v-85h450q60 0 102 42.5t42 101.5v281q0 60 -42 102t-102 42h-393q-59 0 -101.5 -42t-42.5 -102v-247z" />
<glyph unicode="&#xc8;" horiz-adv-x="795" d="M80 144q0 -59 42.5 -101.5t101.5 -42.5h223q60 0 102.5 42.5t42.5 101.5v823q0 24 17.5 42t41.5 18t41.5 -18t17.5 -42v-967h85v967q0 60 -42.5 102t-101.5 42q-60 0 -102.5 -42t-42.5 -102v-823q0 -24 -17.5 -41.5t-41.5 -17.5h-171q-25 0 -42.5 17.5t-17.5 41.5v967 h-136v-967z" />
<glyph unicode="&#xc9;" horiz-adv-x="795" d="M80 144q0 -59 42.5 -101.5t101.5 -42.5h223q60 0 102.5 42.5t42.5 101.5v823q0 24 17.5 42t41.5 18t41.5 -18t17.5 -42v-967h85v967q0 60 -42.5 102t-101.5 42q-60 0 -102.5 -42t-42.5 -102v-823q0 -24 -17.5 -41.5t-41.5 -17.5h-171q-25 0 -42.5 17.5t-17.5 41.5v967 h-136v-967zM162 1202h85v149q0 24 17.5 42t41.5 18h5q24 0 41.5 -18t17.5 -42v-5q0 -60 43 -102t102 -42q60 0 102.5 42t42.5 102v150h-86v-150q0 -24 -17.5 -42t-41.5 -18t-41.5 18t-17.5 42v5q0 60 -43 102.5t-102 42.5h-5q-59 0 -101.5 -42.5t-42.5 -102.5v-149z" />
<glyph unicode="&#xca;" d="M80 0h136v1111h-136v-1111zM267 420h299q24 0 42 -18t18 -42v-360h136v360q0 60 -43 102.5t-102 42.5h-350v-85zM267 542h350q59 0 102 42.5t43 101.5v425h-136v-425q0 -24 -18 -41.5t-42 -17.5h-299v-85z" />
<glyph unicode="&#xcb;" horiz-adv-x="657" d="M80 0q30 0 57.5 11t48 30.5t33.5 46t13 56.5v823q0 24 17.5 42t40.5 18h172q24 0 42 -18t18 -42v-967h136v967q0 60 -42.5 102t-102.5 42h-223q-59 0 -101.5 -42t-42.5 -102v-823q0 -24 -19.5 -42.5t-46.5 -18.5v-83z" />
<glyph unicode="&#xcc;" horiz-adv-x="1223" d="M80 0h136v967q0 24 17.5 42t42.5 18h171q24 0 41.5 -18t17.5 -42v-823q0 -59 43 -101.5t102 -42.5t101.5 42.5t42.5 101.5v823q0 24 18 42t42 18h172q24 0 41.5 -18t17.5 -42v-967h137v967q0 60 -43 102t-103 42h-222q-60 0 -102.5 -42t-42.5 -102v-823 q0 -24 -17.5 -41.5t-41.5 -17.5t-41.5 17.5t-17.5 41.5v823q0 60 -43 102t-102 42h-223q-60 0 -102 -42t-42 -102v-967z" />
<glyph unicode="&#xcd;" d="M80 0h136v477h410v-477h136v1111h-136v-548h-410v548h-136v-1111z" />
<glyph unicode="&#xce;" d="M80 144q0 -59 42.5 -101.5t101.5 -42.5h393q59 0 102 42.5t43 101.5v823q0 60 -43 102t-102 42h-393q-60 0 -102 -42t-42 -102v-823zM216 144v823q0 24 17.5 42t42.5 18h290q24 0 42 -18t18 -42v-823q0 -24 -18 -41.5t-42 -17.5h-290q-25 0 -42.5 17.5t-17.5 41.5z" />
<glyph unicode="&#xcf;" d="M80 0h136v967q0 24 17.5 42t42.5 18h290q24 0 42 -18t18 -42v-967h136v967q0 60 -43 102t-102 42h-393q-60 0 -102 -42t-42 -102v-967z" />
<glyph unicode="&#xd0;" d="M80 0h136v967q0 24 17.5 42t42.5 18h290q24 0 42 -18t18 -42v-175q0 -24 -18 -41.5t-42 -17.5h-297v-86h348q59 0 102 43t43 102v175q0 60 -43 102t-102 42h-393q-60 0 -102 -42t-42 -102v-967z" />
<glyph unicode="&#xd1;" d="M80 144q0 -59 42.5 -101.5t101.5 -42.5h393q59 0 102 42.5t43 101.5v320h-136v-320q0 -24 -18 -41.5t-42 -17.5h-290q-25 0 -42.5 17.5t-17.5 41.5v823q0 24 17.5 42t42.5 18h290q24 0 42 -18t18 -42v-320h136v320q0 60 -43 102t-102 42h-393q-60 0 -102 -42t-42 -102 v-823z" />
<glyph unicode="&#xd2;" horiz-adv-x="752" d="M81 925h273q24 0 41.5 -18t17.5 -42v-865h136v865q0 60 -42.5 102.5t-102.5 42.5h-323v-85zM81 1027h672v84h-672v-84z" />
<glyph unicode="&#xd3;" horiz-adv-x="795" d="M80 144q0 -59 42.5 -101.5t101.5 -42.5h427q30 0 57 12t46.5 31.5t30 45.5t10.5 57v821q0 60 -42.5 102t-101.5 42q-60 0 -102.5 -42t-42.5 -102v-345q0 -24 -17.5 -41.5t-41.5 -17.5h-171q-25 0 -42.5 17.5t-17.5 41.5v489h-136v-489q0 -59 42.5 -102t101.5 -43h223 q60 0 102.5 43t42.5 102v345q0 24 17.5 42t41.5 18t41.5 -18t17.5 -42v-821q0 -26 -17 -43.5t-42 -17.5h-375q-25 0 -42.5 17.5t-17.5 41.5v235h-136v-235z" />
<glyph unicode="&#xd4;" horiz-adv-x="1137" d="M80 605q0 -60 42.5 -102t101.5 -42h316v-461h136v780q0 24 18 42t42 18h206q24 0 41.5 -18t17.5 -42v-175q0 -24 -18 -42t-41 -18h-212v-84h263q59 0 101.5 42t42.5 102v175q0 60 -42.5 102.5t-101.5 42.5h-317v186h-136v-521q-5 -19 -21 -32t-36 -13h-207 q-25 0 -42.5 18t-17.5 42v175q0 24 17.5 42t42.5 18h214v85h-266q-60 0 -102 -42.5t-42 -102.5v-175z" />
<glyph unicode="&#xd5;" d="M80 0h136v362q0 24 17.5 42t42.5 18h290q24 0 42 -18t18 -42v-362h136v362q0 60 -43 102t-102 42h-393q-60 0 -102 -42t-42 -102v-362zM80 686q0 -59 42.5 -101.5t101.5 -42.5h393q59 0 102 42.5t43 101.5v425h-136v-425q0 -24 -18 -41.5t-42 -17.5h-290q-25 0 -42.5 18 t-17.5 41v425h-136v-425z" />
<glyph unicode="&#xd6;" horiz-adv-x="913" d="M80 144q0 -59 42.5 -101.5t101.5 -42.5h538v435q2 0 3.5 1t4.5 1q24 0 41.5 -18t17.5 -41v-599h86v599q0 59 -43 101.5t-102 42.5h-8v589h-136v-965q0 -31 -17 -46t-38 -15h-295q-25 0 -42.5 17.5t-17.5 41.5v967h-136v-967z" />
<glyph unicode="&#xd7;" d="M80 686q0 -59 42.5 -101.5t101.5 -42.5h393q59 0 102 42.5t43 101.5v425h-136v-425q0 -24 -18 -41.5t-42 -17.5h-290q-25 0 -42.5 18t-17.5 41v425h-136v-425zM216 422h350q24 0 42 -18t18 -42v-362h136v362q0 60 -43 102t-102 42h-401v-84z" />
<glyph unicode="&#xd8;" horiz-adv-x="1223" d="M80 0h367q60 0 102.5 42.5t42.5 101.5v823q0 24 17.5 42t41.5 18t41.5 -18t17.5 -42v-823q0 -59 42.5 -101.5t102.5 -42.5h368v1111h-137v-967q0 -24 -17.5 -41.5t-41.5 -17.5h-172q-24 0 -42 17.5t-18 41.5v823q0 60 -42.5 102t-101.5 42q-60 0 -102.5 -42t-42.5 -102 v-823q0 -24 -17.5 -41.5t-41.5 -17.5h-171q-25 0 -42.5 17.5t-17.5 41.5v967h-136v-1111z" />
<glyph unicode="&#xd9;" horiz-adv-x="1374" d="M80 0h367q60 0 102.5 42.5t42.5 101.5v823q0 24 17.5 42t41.5 18t41.5 -18t17.5 -42v-823q0 -59 42.5 -101.5t102.5 -42.5h368v435q1 0 3 1t5 1q24 0 41.5 -18t17.5 -41v-599h85v599q0 59 -42.5 101.5t-101.5 42.5h-8v589h-137v-968q0 -28 -17 -43t-41 -15h-173 q-24 0 -42 17.5t-18 41.5v823q0 60 -42.5 102t-101.5 42q-60 0 -102.5 -42t-42.5 -102v-823q0 -24 -17.5 -41.5t-41.5 -17.5h-171q-25 0 -42.5 17.5t-17.5 41.5v967h-136v-1111z" />
<glyph unicode="&#xda;" horiz-adv-x="1162" d="M80 1027h342q24 0 39.5 -16.5t19.5 -38.5v-828q0 -59 42.5 -101.5t102.5 -42.5h392q60 0 102.5 42.5t42.5 101.5v216q0 60 -43 102.5t-102 42.5h-350v-85h299q24 0 42 -18t18 -42v-216q0 -24 -18 -41.5t-42 -17.5h-291q-24 0 -41.5 17.5t-17.5 41.5v823q0 60 -42.5 102 t-102.5 42h-392v-84z" />
<glyph unicode="&#xdb;" horiz-adv-x="1072" d="M80 144q0 -59 42.5 -101.5t101.5 -42.5h393q59 0 102 42.5t43 101.5v216q0 60 -43 102.5t-102 42.5h-350v-85h299q24 0 42 -18t18 -42v-216q0 -24 -18 -41.5t-42 -17.5h-290q-25 0 -42.5 17.5t-17.5 41.5v967h-136v-967zM936 0h136v1111h-136v-1111z" />
<glyph unicode="&#xdc;" d="M80 144q0 -59 42.5 -101.5t101.5 -42.5h393q59 0 102 42.5t43 101.5v216q0 60 -43 102.5t-102 42.5h-350v-85h299q24 0 42 -18t18 -42v-216q0 -24 -18 -41.5t-42 -17.5h-290q-25 0 -42.5 17.5t-17.5 41.5v967h-136v-967z" />
<glyph unicode="&#xdd;" d="M78 144q0 -59 43 -101.5t101 -42.5h393q60 0 102 42.5t42 101.5v216q0 60 -42 102.5t-102 42.5h-447v-85h396q24 0 42 -18t18 -42v-216q0 -24 -18 -41.5t-42 -17.5h-290q-24 0 -42 17.5t-18 41.5h-136zM78 967h136q0 24 18 42t42 18h290q24 0 42 -18t18 -42v-281 q0 -24 -18 -41.5t-42 -17.5h-399v-85h450q60 0 102 42.5t42 101.5v281q0 60 -42 102t-102 42h-393q-59 0 -101.5 -42t-42.5 -102z" />
<glyph unicode="&#xde;" horiz-adv-x="1236" d="M80 0h136v362q0 24 17.5 42t42.5 18h280v-278q0 -59 42.5 -101.5t102.5 -42.5h392q60 0 102.5 42.5t42.5 101.5v823q0 60 -42.5 102t-102.5 42h-392q-60 0 -102.5 -42t-42.5 -102v-340h-280q-25 0 -42.5 18t-17.5 41v425h-136v-425q0 -59 42.5 -101.5t101.5 -42.5h468 v425q0 24 18 42t41 18h291q24 0 41.5 -18t17.5 -42v-823q0 -24 -17.5 -41.5t-41.5 -17.5h-291q-24 0 -41.5 17.5t-17.5 41.5v362h-468q-60 0 -102 -42t-42 -102v-362z" />
<glyph unicode="&#xdf;" d="M78 0h136v360q0 24 18 42t42 18h299v85h-351q-59 0 -101.5 -42.5t-42.5 -102.5v-360zM78 686q0 -59 43 -101.5t101 -42.5h351v85h-299q-24 0 -42 18t-18 41v281q0 24 18 42t42 18h290q24 0 42 -18t18 -42v-967h135v967q0 60 -42 102t-102 42h-393q-59 0 -101.5 -42 t-42.5 -102v-281z" />
<glyph unicode="&#xe0;" d="M80 153q0 -60 42.5 -102.5t101.5 -42.5h393q59 0 102 43t43 102v814q0 60 -43 102t-102 42h-393q-60 0 -102 -42t-42 -102v-183h136v183q0 24 17.5 42t42.5 18h290q24 0 42 -18t18 -42v-814q0 -24 -18 -41.5t-42 -17.5h-290q-25 0 -42.5 17.5t-17.5 41.5v435 q0 25 17.5 42t42.5 17h298v86h-350q-60 0 -102 -43t-42 -102v-435z" />
<glyph unicode="&#xe1;" d="M78 153q0 -60 43 -102.5t101 -42.5h393q60 0 102 43t42 102v435q0 60 -42 102.5t-102 42.5h-350v-86h299q24 0 42 -17.5t18 -41.5v-435q0 -24 -18 -41.5t-42 -17.5h-290q-24 0 -42 17.5t-18 41.5v814q0 24 18 42t42 18h488v84h-540q-59 0 -101.5 -42t-42.5 -102v-814z " />
<glyph unicode="&#xe2;" d="M80 144q0 -59 42.5 -101.5t101.5 -42.5h393q59 0 102 42.5t43 101.5v216q0 60 -43 102.5t-102 42.5h-350v-85h299q24 0 42 -18t18 -42v-216q0 -24 -18 -41.5t-42 -17.5h-290q-25 0 -42.5 17.5t-17.5 41.5v823q0 24 17.5 42t42.5 18h290q24 0 42 -18t18 -42v-281 q0 -24 -18 -41.5t-42 -17.5h-299v-85h350q59 0 102 42.5t43 101.5v281q0 60 -43 102t-102 42h-393q-60 0 -102 -42t-42 -102v-823z" />
<glyph unicode="&#xe3;" d="M80 0h136v967q0 24 17.5 42t42.5 18h290q24 0 42 -18t18 -42v-320h136v320q0 60 -43 102t-102 42h-393q-60 0 -102 -42t-42 -102v-967z" />
<glyph unicode="&#xe4;" d="M80 144q0 -59 42.5 -101.5t101.5 -42.5h393q59 0 102 42.5t43 101.5v823q0 60 -43 102t-102 42h-393q-60 0 -102 -42t-42 -102v-443q0 -60 42.5 -102.5t101.5 -42.5h350v85h-298q-25 0 -42.5 18t-17.5 42v443q0 24 17.5 42t42.5 18h290q24 0 42 -18t18 -42v-823 q0 -24 -18 -41.5t-42 -17.5h-290q-25 0 -42.5 17.5t-17.5 41.5v184h-136v-184z" />
<glyph unicode="&#xe5;" d="M80 144q0 -59 42.5 -101.5t101.5 -42.5h393q59 0 102 42.5t43 101.5v184h-136v-184q0 -24 -18 -41.5t-42 -17.5h-290q-25 0 -42.5 17.5t-17.5 41.5v823q0 24 17.5 42t42.5 18h290q24 0 42 -18t18 -42v-443q0 -24 -18 -42t-42 -18h-299v-85h350q59 0 102 42.5t43 102.5 v443q0 60 -43 102t-102 42h-393q-60 0 -102 -42t-42 -102v-823z" />
<glyph unicode="&#xe6;" horiz-adv-x="1304" d="M78 0h136v360q0 24 18 42t42 18h299v85h-351q-59 0 -101.5 -42.5t-42.5 -102.5v-360zM78 686q0 -59 43 -101.5t101 -42.5h351v85h-299q-24 0 -42 18t-18 41v425h-136v-425zM624 0h135v1111h-135v-1111zM811 420h299q24 0 41.5 -18t17.5 -42v-360h137v360q0 60 -43 102.5 t-102 42.5h-350v-85zM811 542h350q60 0 102.5 42.5t42.5 101.5v425h-137v-425q0 -24 -17.5 -41.5t-41.5 -17.5h-299v-85z" />
<glyph unicode="&#xe7;" d="M78 144q0 -59 43 -101.5t101 -42.5h393q60 0 102 42.5t42 101.5v216q0 60 -42 102.5t-102 42.5h-447v-85h396q24 0 42 -18t18 -42v-216q0 -24 -18 -41.5t-42 -17.5h-290q-24 0 -42 17.5t-18 41.5v184h-136v-184zM78 720h136v247q0 24 18 42t42 18h290q24 0 42 -18t18 -42 v-281q0 -24 -18 -41.5t-42 -17.5h-399v-85h450q60 0 102 42.5t42 101.5v281q0 60 -42 102t-102 42h-393q-59 0 -101.5 -42t-42.5 -102v-247z" />
<glyph unicode="&#xe8;" horiz-adv-x="795" d="M80 144q0 -59 42.5 -101.5t101.5 -42.5h223q60 0 102.5 42.5t42.5 101.5v823q0 24 17.5 42t41.5 18t41.5 -18t17.5 -42v-967h85v967q0 60 -42.5 102t-101.5 42q-60 0 -102.5 -42t-42.5 -102v-823q0 -24 -17.5 -41.5t-41.5 -17.5h-171q-25 0 -42.5 17.5t-17.5 41.5v967 h-136v-967z" />
<glyph unicode="&#xe9;" horiz-adv-x="795" d="M80 144q0 -59 42.5 -101.5t101.5 -42.5h223q60 0 102.5 42.5t42.5 101.5v823q0 24 17.5 42t41.5 18t41.5 -18t17.5 -42v-967h85v967q0 60 -42.5 102t-101.5 42q-60 0 -102.5 -42t-42.5 -102v-823q0 -24 -17.5 -41.5t-41.5 -17.5h-171q-25 0 -42.5 17.5t-17.5 41.5v967 h-136v-967zM162 1202h85v149q0 24 17.5 42t41.5 18h5q24 0 41.5 -18t17.5 -42v-5q0 -60 43 -102t102 -42q60 0 102.5 42t42.5 102v150h-86v-150q0 -24 -17.5 -42t-41.5 -18t-41.5 18t-17.5 42v5q0 60 -43 102.5t-102 42.5h-5q-59 0 -101.5 -42.5t-42.5 -102.5v-149z" />
<glyph unicode="&#xea;" d="M80 0h136v1111h-136v-1111zM267 420h299q24 0 42 -18t18 -42v-360h136v360q0 60 -43 102.5t-102 42.5h-350v-85zM267 542h350q59 0 102 42.5t43 101.5v425h-136v-425q0 -24 -18 -41.5t-42 -17.5h-299v-85z" />
<glyph unicode="&#xeb;" horiz-adv-x="657" d="M80 0q30 0 57.5 11t48 30.5t33.5 46t13 56.5v823q0 24 17.5 42t40.5 18h172q24 0 42 -18t18 -42v-967h136v967q0 60 -42.5 102t-102.5 42h-223q-59 0 -101.5 -42t-42.5 -102v-823q0 -24 -19.5 -42.5t-46.5 -18.5v-83z" />
<glyph unicode="&#xec;" horiz-adv-x="1223" d="M80 0h136v967q0 24 17.5 42t42.5 18h171q24 0 41.5 -18t17.5 -42v-823q0 -59 43 -101.5t102 -42.5t101.5 42.5t42.5 101.5v823q0 24 18 42t42 18h172q24 0 41.5 -18t17.5 -42v-967h137v967q0 60 -43 102t-103 42h-222q-60 0 -102.5 -42t-42.5 -102v-823 q0 -24 -17.5 -41.5t-41.5 -17.5t-41.5 17.5t-17.5 41.5v823q0 60 -43 102t-102 42h-223q-60 0 -102 -42t-42 -102v-967z" />
<glyph unicode="&#xed;" d="M80 0h136v477h410v-477h136v1111h-136v-548h-410v548h-136v-1111z" />
<glyph unicode="&#xee;" d="M80 144q0 -59 42.5 -101.5t101.5 -42.5h393q59 0 102 42.5t43 101.5v823q0 60 -43 102t-102 42h-393q-60 0 -102 -42t-42 -102v-823zM216 144v823q0 24 17.5 42t42.5 18h290q24 0 42 -18t18 -42v-823q0 -24 -18 -41.5t-42 -17.5h-290q-25 0 -42.5 17.5t-17.5 41.5z" />
<glyph unicode="&#xef;" d="M78 0h86v967q0 24 17.5 42t40.5 18h342q24 0 42 -18t18 -42v-967h135v967q0 60 -42 102t-102 42h-393q-59 0 -101.5 -42t-42.5 -102v-967z" />
<glyph unicode="&#xf0;" d="M80 0h136v967q0 24 17.5 42t42.5 18h290q24 0 42 -18t18 -42v-443q0 -24 -18 -42t-42 -18h-297v-85h348q59 0 102 42.5t43 102.5v443q0 60 -43 102t-102 42h-393q-60 0 -102 -42t-42 -102v-967z" />
<glyph unicode="&#xf1;" d="M80 144q0 -59 42.5 -101.5t101.5 -42.5h393q59 0 102 42.5t43 101.5v320h-136v-320q0 -24 -18 -41.5t-42 -17.5h-290q-25 0 -42.5 17.5t-17.5 41.5v823q0 24 17.5 42t42.5 18h290q24 0 42 -18t18 -42v-320h136v320q0 60 -43 102t-102 42h-393q-60 0 -102 -42t-42 -102 v-823z" />
<glyph unicode="&#xf2;" horiz-adv-x="752" d="M81 925h273q24 0 41.5 -18t17.5 -42v-865h136v865q0 60 -42.5 102.5t-102.5 42.5h-323v-85zM81 1027h672v84h-672v-84z" />
<glyph unicode="&#xf3;" horiz-adv-x="795" d="M80 144q0 -59 42.5 -101.5t101.5 -42.5h427q30 0 57 12t46.5 31.5t30 45.5t10.5 57v821q0 60 -42.5 102t-101.5 42q-60 0 -102.5 -42t-42.5 -102v-345q0 -24 -17.5 -41.5t-41.5 -17.5h-171q-25 0 -42.5 17.5t-17.5 41.5v489h-136v-489q0 -59 42.5 -102t101.5 -43h223 q60 0 102.5 43t42.5 102v345q0 24 17.5 42t41.5 18t41.5 -18t17.5 -42v-821q0 -26 -17 -43.5t-42 -17.5h-375q-25 0 -42.5 17.5t-17.5 41.5v235h-136v-235z" />
<glyph unicode="&#xf4;" horiz-adv-x="1137" d="M80 367q0 -60 42.5 -102.5t101.5 -42.5h316v-222h136v780q0 24 18 42t42 18h206q24 0 41.5 -18t17.5 -42v-413q0 -24 -18 -41.5t-41 -17.5h-212v-86h263q59 0 101.5 43t42.5 102v413q0 60 -42.5 102.5t-101.5 42.5h-317v186h-136v-759q-5 -19 -21 -31.5t-36 -12.5h-207 q-25 0 -42.5 18t-17.5 41v413q0 24 17.5 42t42.5 18h214v85h-266q-60 0 -102 -42.5t-42 -102.5v-413z" />
<glyph unicode="&#xf5;" d="M80 0h136v362q0 24 17.5 42t42.5 18h290q24 0 42 -18t18 -42v-362h136v362q0 60 -43 102t-102 42h-393q-60 0 -102 -42t-42 -102v-362zM80 686q0 -59 42.5 -101.5t101.5 -42.5h393q59 0 102 42.5t43 101.5v425h-136v-425q0 -24 -18 -41.5t-42 -17.5h-290q-25 0 -42.5 18 t-17.5 41v425h-136v-425z" />
<glyph unicode="&#xf6;" horiz-adv-x="913" d="M80 144q0 -59 42.5 -101.5t101.5 -42.5h538v435q2 0 3.5 1t4.5 1q24 0 41.5 -18t17.5 -41v-599h86v599q0 59 -43 101.5t-102 42.5h-8v589h-136v-965q0 -31 -17 -46t-38 -15h-295q-25 0 -42.5 17.5t-17.5 41.5v967h-136v-967z" />
<glyph unicode="&#xf7;" d="M80 686q0 -59 42.5 -101.5t101.5 -42.5h393q59 0 102 42.5t43 101.5v425h-136v-425q0 -24 -18 -41.5t-42 -17.5h-290q-25 0 -42.5 18t-17.5 41v425h-136v-425zM216 422h350q24 0 42 -18t18 -42v-362h136v362q0 60 -43 102t-102 42h-401v-84z" />
<glyph unicode="&#xf8;" horiz-adv-x="1223" d="M80 0h367q60 0 102.5 42.5t42.5 101.5v823q0 24 17.5 42t41.5 18t41.5 -18t17.5 -42v-823q0 -59 42.5 -101.5t102.5 -42.5h368v1111h-137v-967q0 -24 -17.5 -41.5t-41.5 -17.5h-172q-24 0 -42 17.5t-18 41.5v823q0 60 -42.5 102t-101.5 42q-60 0 -102.5 -42t-42.5 -102 v-823q0 -24 -17.5 -41.5t-41.5 -17.5h-171q-25 0 -42.5 17.5t-17.5 41.5v967h-136v-1111z" />
<glyph unicode="&#xf9;" horiz-adv-x="1374" d="M80 0h367q60 0 102.5 42.5t42.5 101.5v823q0 24 17.5 42t41.5 18t41.5 -18t17.5 -42v-823q0 -59 42.5 -101.5t102.5 -42.5h368v435q1 0 3 1t5 1q24 0 41.5 -18t17.5 -41v-599h85v599q0 59 -42.5 101.5t-101.5 42.5h-8v589h-137v-968q0 -28 -17 -43t-41 -15h-173 q-24 0 -42 17.5t-18 41.5v823q0 60 -42.5 102t-101.5 42q-60 0 -102.5 -42t-42.5 -102v-823q0 -24 -17.5 -41.5t-41.5 -17.5h-171q-25 0 -42.5 17.5t-17.5 41.5v967h-136v-1111z" />
<glyph unicode="&#xfa;" horiz-adv-x="1162" d="M80 1027h342q24 0 39.5 -16.5t19.5 -38.5v-828q0 -59 42.5 -101.5t102.5 -42.5h392q60 0 102.5 42.5t42.5 101.5v216q0 60 -43 102.5t-102 42.5h-350v-85h299q24 0 42 -18t18 -42v-216q0 -24 -18 -41.5t-42 -17.5h-291q-24 0 -41.5 17.5t-17.5 41.5v823q0 60 -42.5 102 t-102.5 42h-392v-84z" />
<glyph unicode="&#xfb;" horiz-adv-x="1072" d="M80 144q0 -59 42.5 -101.5t101.5 -42.5h393q59 0 102 42.5t43 101.5v216q0 60 -43 102.5t-102 42.5h-350v-85h299q24 0 42 -18t18 -42v-216q0 -24 -18 -41.5t-42 -17.5h-290q-25 0 -42.5 17.5t-17.5 41.5v967h-136v-967zM936 0h136v1111h-136v-1111z" />
<glyph unicode="&#xfc;" d="M80 144q0 -59 42.5 -101.5t101.5 -42.5h393q59 0 102 42.5t43 101.5v216q0 60 -43 102.5t-102 42.5h-350v-85h299q24 0 42 -18t18 -42v-216q0 -24 -18 -41.5t-42 -17.5h-290q-25 0 -42.5 17.5t-17.5 41.5v967h-136v-967z" />
<glyph unicode="&#xfd;" d="M78 144q0 -59 43 -101.5t101 -42.5h393q60 0 102 42.5t42 101.5v216q0 60 -42 102.5t-102 42.5h-447v-85h396q24 0 42 -18t18 -42v-216q0 -24 -18 -41.5t-42 -17.5h-290q-24 0 -42 17.5t-18 41.5h-136zM78 967h136q0 24 18 42t42 18h290q24 0 42 -18t18 -42v-281 q0 -24 -18 -41.5t-42 -17.5h-399v-85h450q60 0 102 42.5t42 101.5v281q0 60 -42 102t-102 42h-393q-59 0 -101.5 -42t-42.5 -102z" />
<glyph unicode="&#xfe;" horiz-adv-x="1236" d="M80 0h136v362q0 24 17.5 42t42.5 18h280v-278q0 -59 42.5 -101.5t102.5 -42.5h392q60 0 102.5 42.5t42.5 101.5v823q0 60 -42.5 102t-102.5 42h-392q-60 0 -102.5 -42t-42.5 -102v-340h-280q-25 0 -42.5 18t-17.5 41v425h-136v-425q0 -59 42.5 -101.5t101.5 -42.5h468 v425q0 24 18 42t41 18h291q24 0 41.5 -18t17.5 -42v-823q0 -24 -17.5 -41.5t-41.5 -17.5h-291q-24 0 -41.5 17.5t-17.5 41.5v362h-468q-60 0 -102 -42t-42 -102v-362z" />
<glyph unicode="&#xff;" d="M78 0h136v360q0 24 18 42t42 18h299v85h-351q-59 0 -101.5 -42.5t-42.5 -102.5v-360zM78 686q0 -59 43 -101.5t101 -42.5h351v85h-299q-24 0 -42 18t-18 41v281q0 24 18 42t42 18h290q24 0 42 -18t18 -42v-967h135v967q0 60 -42 102t-102 42h-393q-59 0 -101.5 -42 t-42.5 -102v-281z" />
<glyph unicode="&#x131;" horiz-adv-x="217" d="M80 0h136v993h-136v-993z" />
<glyph unicode="&#x141;" d="M0 649h80v-505q0 -59 42.5 -101.5t101.5 -42.5h393q59 0 102 42.5t43 101.5v320h-136v-320q0 -24 -18 -41.5t-42 -17.5h-290q-25 0 -42.5 17.5t-17.5 41.5v505h146v84h-146v378h-136v-378h-80v-84z" />
<glyph unicode="&#x142;" horiz-adv-x="360" d="M0 649h80v-649h136v649h146v84h-146v378h-136v-378h-80v-84z" />
<glyph unicode="&#x152;" horiz-adv-x="1308" d="M80 144q0 -59 42.5 -101.5t101.5 -42.5h393q43 0 77 22q34 -22 76 -22h393q60 0 102 42.5t42 101.5v184h-136v-184q0 -24 -18 -41.5t-42 -17.5h-290q-24 0 -41.5 17.5t-17.5 41.5v216q0 24 18 42t41 18h396v85h-447q-60 0 -102 -42.5t-42 -102.5v-216q0 -24 -18 -41.5 t-42 -17.5h-290q-25 0 -42.5 17.5t-17.5 41.5v823q0 24 17.5 42t42.5 18h290q24 0 42 -18t18 -42v-281q0 -59 42 -101.5t102 -42.5h450v85h-399q-24 0 -41.5 18t-17.5 41v281q0 24 18 42t41 18h290q24 0 42 -18t18 -42v-247h136v247q0 60 -42 102t-102 42h-393 q-42 0 -76 -21q-34 22 -77 21h-393q-60 0 -102 -42t-42 -102v-823z" />
<glyph unicode="&#x153;" horiz-adv-x="1308" d="M80 144q0 -59 42.5 -101.5t101.5 -42.5h393q43 0 77 22q34 -22 76 -22h393q60 0 102 42.5t42 101.5v184h-136v-184q0 -24 -18 -41.5t-42 -17.5h-290q-24 0 -41.5 17.5t-17.5 41.5v823q0 24 18 42t41 18h290q24 0 42 -18t18 -42v-443q0 -24 -18 -42t-42 -18h-298v-85h350 q60 0 102 42.5t42 102.5v443q0 60 -42 102t-102 42h-393q-42 0 -76 -21q-34 22 -77 21h-393q-60 0 -102 -42t-42 -102v-823zM216 144v823q0 24 17.5 42t42.5 18h290q24 0 42 -18t18 -42v-823q0 -24 -18 -41.5t-42 -17.5h-290q-25 0 -42.5 17.5t-17.5 41.5z" />
<glyph unicode="&#x160;" d="M80 144q0 -59 42.5 -101.5t101.5 -42.5h393q59 0 102 42.5t43 101.5v274q0 60 -43 102.5t-102 42.5h-341q-25 0 -42.5 17.5t-17.5 41.5v345q0 24 17.5 42t42.5 18h290q24 0 42 -18t18 -42v-297h136v297q0 60 -43 102t-102 42h-393q-60 0 -102 -42t-42 -102v-345 q0 -59 42.5 -102t101.5 -43h342q24 0 42 -17.5t18 -41.5v-274q0 -24 -18 -41.5t-42 -17.5h-290q-25 0 -42.5 17.5t-17.5 41.5v235h-136v-235zM308 1319q0 -60 42.5 -102.5t101.5 -42.5q60 0 102.5 43t42.5 102v55h-86v-55q0 -24 -17.5 -41.5t-41.5 -17.5t-41.5 18t-17.5 41 l1 55h-86v-55z" />
<glyph unicode="&#x161;" d="M80 144q0 -59 42.5 -101.5t101.5 -42.5h393q59 0 102 42.5t43 101.5v274q0 60 -43 102.5t-102 42.5h-341q-25 0 -42.5 17.5t-17.5 41.5v345q0 24 17.5 42t42.5 18h290q24 0 42 -18t18 -42v-297h136v297q0 60 -43 102t-102 42h-393q-60 0 -102 -42t-42 -102v-345 q0 -59 42.5 -102t101.5 -43h342q24 0 42 -17.5t18 -41.5v-274q0 -24 -18 -41.5t-42 -17.5h-290q-25 0 -42.5 17.5t-17.5 41.5v235h-136v-235zM308 1319q0 -60 42.5 -102.5t101.5 -42.5q60 0 102.5 43t42.5 102v55h-86v-55q0 -24 -17.5 -41.5t-41.5 -17.5t-41.5 18t-17.5 41 l1 55h-86v-55z" />
<glyph unicode="&#x178;" horiz-adv-x="795" d="M80 144q0 -59 42.5 -101.5t101.5 -42.5h427q30 0 57 12t46.5 31.5t30 45.5t10.5 57v821q0 60 -42.5 102t-101.5 42q-60 0 -102.5 -42t-42.5 -102v-345q0 -24 -17.5 -41.5t-41.5 -17.5h-171q-25 0 -42.5 17.5t-17.5 41.5v489h-136v-489q0 -59 42.5 -102t101.5 -43h223 q60 0 102.5 43t42.5 102v345q0 24 17.5 42t41.5 18t41.5 -18t17.5 -42v-821q0 -26 -17 -43.5t-42 -17.5h-375q-25 0 -42.5 17.5t-17.5 41.5v235h-136v-235zM276 1231q0 -24 17 -41t40 -17q24 0 41 17t17 41t-17 40.5t-41 16.5t-40.5 -16.5t-16.5 -40.5zM480 1231 q0 -24 16.5 -41t40.5 -17t41 17t17 41t-17 40.5t-41 16.5t-40.5 -16.5t-16.5 -40.5z" />
<glyph unicode="&#x17d;" d="M80 144q0 -59 42.5 -101.5t101.5 -42.5h393q59 0 102 42.5t43 101.5v235h-136v-235q0 -24 -18 -41.5t-42 -17.5h-342q-24 0 -41.5 17.5t-17.5 41.5q0 51 25 88q12 16 113 117l290 290q169 169 169 328q0 60 -43 102t-102 42h-393q-60 0 -102 -42t-42 -102v-297h136v297 q0 24 17.5 42t42.5 18h341q24 0 41.5 -18t17.5 -42q0 -83 -42 -148q-24 -40 -102 -118l-290 -291q-103 -102 -127 -138q-35 -55 -35 -128zM308 1319q0 -60 42.5 -102.5t101.5 -42.5q60 0 102.5 43t42.5 102v55h-86v-55q0 -24 -17.5 -41.5t-41.5 -17.5t-41.5 18t-17.5 41 l1 55h-86v-55z" />
<glyph unicode="&#x17e;" d="M80 144q0 -59 42.5 -101.5t101.5 -42.5h393q59 0 102 42.5t43 101.5v235h-136v-235q0 -24 -18 -41.5t-42 -17.5h-342q-24 0 -41.5 17.5t-17.5 41.5q0 51 25 88q12 16 113 117l290 290q169 169 169 328q0 60 -43 102t-102 42h-393q-60 0 -102 -42t-42 -102v-297h136v297 q0 24 17.5 42t42.5 18h341q24 0 41.5 -18t17.5 -42q0 -83 -42 -148q-24 -40 -102 -118l-290 -291q-103 -102 -127 -138q-35 -55 -35 -128zM308 1319q0 -60 42.5 -102.5t101.5 -42.5q60 0 102.5 43t42.5 102v55h-86v-55q0 -24 -17.5 -41.5t-41.5 -17.5t-41.5 18t-17.5 41 l1 55h-86v-55z" />
<glyph unicode="&#x192;" d="M80 144q0 -59 42.5 -101.5t101.5 -42.5h393q59 0 102 42.5t43 101.5v57q0 60 -43 102t-102 42h-393q-60 0 -102 -42.5t-42 -101.5v-57zM80 911q0 -59 42.5 -101.5t101.5 -42.5h393q59 0 102 42.5t43 101.5v56q0 60 -43 102t-102 42h-393q-60 0 -102 -42t-42 -102v-56z M216 144v57q0 24 17.5 41.5t42.5 17.5h290q24 0 42 -18t18 -41v-57q0 -24 -18 -41.5t-42 -17.5h-290q-25 0 -42.5 17.5t-17.5 41.5zM216 911v56q0 24 17.5 42t42.5 18h290q24 0 42 -18t18 -42v-56q0 -24 -18 -41.5t-42 -17.5h-290q-25 0 -42.5 17.5t-17.5 41.5z" />
<glyph unicode="&#x2c6;" horiz-adv-x="579" d="M308 1174h85v55q0 24 17.5 41.5t41.5 17.5t41.5 -18t17.5 -41l-1 -55h87v55q0 60 -43 102.5t-102 42.5t-101.5 -43t-42.5 -102v-55z" />
<glyph unicode="&#x2c7;" horiz-adv-x="579" d="M308 1319q0 -60 42.5 -102.5t101.5 -42.5q60 0 102.5 43t42.5 102v55h-86v-55q0 -24 -17.5 -41.5t-41.5 -17.5t-41.5 18t-17.5 41l1 55h-86v-55z" />
<glyph unicode="&#x2d8;" horiz-adv-x="579" d="M308 1319q0 -60 42.5 -102.5t101.5 -42.5q60 0 102.5 43t42.5 102v55h-86v-55q0 -24 -17.5 -41.5t-41.5 -17.5t-41.5 18t-17.5 41l1 55h-86v-55z" />
<glyph unicode="&#x2d9;" horiz-adv-x="579" d="M374 1231q0 -24 17 -41t41 -17t41 17t17 41t-17 40.5t-41 16.5t-41 -16.5t-17 -40.5z" />
<glyph unicode="&#x2da;" horiz-adv-x="579" d="M287 1317q0 -60 41.5 -101.5t101.5 -41.5t101.5 42t41.5 101q0 60 -41.5 101.5t-101.5 41.5t-101.5 -41.5t-41.5 -101.5z" />
<glyph unicode="&#x2db;" d="M80 532q0 -60 42.5 -102t101.5 -42h393q59 0 102 42t43 102v56q0 60 -43 102.5t-102 42.5h-393q-60 0 -102 -43t-42 -102v-56zM80 911q0 -59 42.5 -101.5t101.5 -42.5h393q59 0 102 42.5t43 101.5v56q0 60 -43 102t-102 42h-393q-60 0 -102 -42t-42 -102v-56zM216 532v56 q0 25 17.5 42t42.5 17h290q24 0 42 -17.5t18 -41.5v-56q0 -24 -18 -42t-42 -18h-290q-25 0 -42.5 18t-17.5 42zM216 911v56q0 24 17.5 42t42.5 18h290q24 0 42 -18t18 -42v-56q0 -24 -18 -41.5t-42 -17.5h-290q-25 0 -42.5 17.5t-17.5 41.5z" />
<glyph unicode="&#x2dc;" horiz-adv-x="579" d="M200 1175h86v149q0 24 18 42t41 18h6q24 0 41 -18t17 -42v-5q0 -60 43 -102t102 -42q60 0 102 42t42 102v149h-84v-149q0 -24 -18 -42t-42 -18t-41.5 18t-17.5 42v5q0 60 -43 102t-101 42h-6q-60 0 -102.5 -42t-42.5 -102v-149z" />
<glyph unicode="&#x3a9;" d="M80 532q0 -60 42.5 -102t101.5 -42h393q59 0 102 42t43 102v56q0 60 -43 102.5t-102 42.5h-393q-60 0 -102 -43t-42 -102v-56zM80 911q0 -59 42.5 -101.5t101.5 -42.5h393q59 0 102 42.5t43 101.5v56q0 60 -43 102t-102 42h-393q-60 0 -102 -42t-42 -102v-56zM216 532v56 q0 25 17.5 42t42.5 17h290q24 0 42 -17.5t18 -41.5v-56q0 -24 -18 -42t-42 -18h-290q-25 0 -42.5 18t-17.5 42zM216 911v56q0 24 17.5 42t42.5 18h290q24 0 42 -18t18 -42v-56q0 -24 -18 -41.5t-42 -17.5h-290q-25 0 -42.5 17.5t-17.5 41.5z" />
<glyph unicode="&#x3c0;" d="M80 532q0 -60 42.5 -102t101.5 -42h393q59 0 102 42t43 102v56q0 60 -43 102.5t-102 42.5h-393q-60 0 -102 -43t-42 -102v-56zM216 532v56q0 25 17.5 42t42.5 17h290q24 0 42 -17.5t18 -41.5v-56q0 -24 -18 -42t-42 -18h-290q-25 0 -42.5 18t-17.5 42z" />
<glyph unicode="&#x405;" d="M80 144q0 -59 42.5 -101.5t101.5 -42.5h393q59 0 102 42.5t43 101.5v274q0 60 -43 102.5t-102 42.5h-341q-25 0 -42.5 17.5t-17.5 41.5v345q0 24 17.5 42t42.5 18h290q24 0 42 -18t18 -42v-297h136v297q0 60 -43 102t-102 42h-393q-60 0 -102 -42t-42 -102v-345 q0 -59 42.5 -102t101.5 -43h342q24 0 42 -17.5t18 -41.5v-274q0 -24 -18 -41.5t-42 -17.5h-290q-25 0 -42.5 17.5t-17.5 41.5v235h-136v-235z" />
<glyph unicode="&#x406;" horiz-adv-x="215" d="M80 0h136v1111h-136v-1111z" />
<glyph unicode="&#x408;" d="M80 144q0 -59 42.5 -101.5t101.5 -42.5h393q59 0 102 42.5t43 101.5v823q0 60 -43 102t-102 42h-393v-84h342q24 0 42 -18t18 -42v-823q0 -24 -18 -41.5t-42 -17.5h-290q-25 0 -42.5 17.5t-17.5 41.5v320h-136v-320z" />
<glyph unicode="&#x410;" d="M81 0h136v477h410v-477h137v967q0 60 -43 102t-103 42h-392q-60 0 -102.5 -42t-42.5 -102v-967zM217 563v404q0 24 18 42t42 18h291q24 0 41.5 -18t17.5 -42v-404h-410z" />
<glyph unicode="&#x411;" d="M80 144q0 -59 42.5 -101.5t101.5 -42.5h393q59 0 102 42.5t43 101.5v216q0 60 -43 102.5t-102 42.5h-350v-85h299q24 0 42 -18t18 -42v-216q0 -24 -18 -41.5t-42 -17.5h-290q-25 0 -42.5 17.5t-17.5 41.5v823q0 24 17.5 42t42.5 18h486v84h-538q-60 0 -102 -42t-42 -102 v-823z" />
<glyph unicode="&#x412;" d="M80 144q0 -59 42.5 -101.5t101.5 -42.5h393q59 0 102 42.5t43 101.5v216q0 60 -43 102.5t-102 42.5h-350v-85h299q24 0 42 -18t18 -42v-216q0 -24 -18 -41.5t-42 -17.5h-290q-25 0 -42.5 17.5t-17.5 41.5v823q0 24 17.5 42t42.5 18h290q24 0 42 -18t18 -42v-281 q0 -24 -18 -41.5t-42 -17.5h-299v-85h350q59 0 102 42.5t43 101.5v281q0 60 -43 102t-102 42h-393q-60 0 -102 -42t-42 -102v-823z" />
<glyph unicode="&#x413;" d="M80 0h136v967q0 24 17.5 42t42.5 18h486v84h-538q-60 0 -102 -42t-42 -102v-967z" />
<glyph unicode="&#x414;" horiz-adv-x="976" d="M80 0h557q60 0 98.5 41.5t38.5 101.5v238q1 22 18 38t41 16t41.5 -18t17.5 -41v-598h86v598q0 60 -43 102t-102 42q-32 0 -59 -14v461q0 60 -43 102t-102 42h-223q-60 0 -102.5 -42t-42.5 -102v-823q0 -24 -18.5 -42.5t-44.5 -18.5h-118v-83zM331 83q7 13 11.5 29t4.5 32 v823q0 24 18 42t41 18h172q24 0 41.5 -18t17.5 -42v-884h-306z" />
<glyph unicode="&#x415;" d="M80 144q0 -59 42.5 -101.5t101.5 -42.5h393q59 0 102 42.5t43 101.5v184h-136v-184q0 -24 -18 -41.5t-42 -17.5h-290q-25 0 -42.5 17.5t-17.5 41.5v216q0 24 17.5 42t42.5 18h395v85h-447q-60 0 -102 -42.5t-42 -102.5v-216zM80 686q0 -59 42.5 -101.5t101.5 -42.5h451 v85h-399q-25 0 -42.5 18t-17.5 41v281q0 24 17.5 42t42.5 18h290q24 0 42 -18t18 -42v-247h136v247q0 60 -43 102t-102 42h-393q-60 0 -102 -42t-42 -102v-281z" />
<glyph unicode="&#x416;" horiz-adv-x="1304" d="M78 0h136v360q0 24 18 42t42 18h299v85h-351q-59 0 -101.5 -42.5t-42.5 -102.5v-360zM78 686q0 -59 43 -101.5t101 -42.5h351v85h-299q-24 0 -42 18t-18 41v425h-136v-425zM624 0h135v1111h-135v-1111zM811 420h299q24 0 41.5 -18t17.5 -42v-360h137v360q0 60 -43 102.5 t-102 42.5h-350v-85zM811 542h350q60 0 102.5 42.5t42.5 101.5v425h-137v-425q0 -24 -17.5 -41.5t-41.5 -17.5h-299v-85z" />
<glyph unicode="&#x417;" d="M78 144q0 -59 43 -101.5t101 -42.5h393q60 0 102 42.5t42 101.5v216q0 60 -42 102.5t-102 42.5h-447v-85h396q24 0 42 -18t18 -42v-216q0 -24 -18 -41.5t-42 -17.5h-290q-24 0 -42 17.5t-18 41.5v184h-136v-184zM78 720h136v247q0 24 18 42t42 18h290q24 0 42 -18t18 -42 v-281q0 -24 -18 -41.5t-42 -17.5h-399v-85h450q60 0 102 42.5t42 101.5v281q0 60 -42 102t-102 42h-393q-59 0 -101.5 -42t-42.5 -102v-247z" />
<glyph unicode="&#x418;" horiz-adv-x="795" d="M80 144q0 -59 42.5 -101.5t101.5 -42.5h223q60 0 102.5 42.5t42.5 101.5v823q0 24 17.5 42t41.5 18t41.5 -18t17.5 -42v-967h85v967q0 60 -42.5 102t-101.5 42q-60 0 -102.5 -42t-42.5 -102v-823q0 -24 -17.5 -41.5t-41.5 -17.5h-171q-25 0 -42.5 17.5t-17.5 41.5v967 h-136v-967z" />
<glyph unicode="&#x419;" horiz-adv-x="795" d="M80 144q0 -59 42.5 -101.5t101.5 -42.5h223q60 0 102.5 42.5t42.5 101.5v823q0 24 17.5 42t41.5 18t41.5 -18t17.5 -42v-967h85v967q0 60 -42.5 102t-101.5 42q-60 0 -102.5 -42t-42.5 -102v-823q0 -24 -17.5 -41.5t-41.5 -17.5h-171q-25 0 -42.5 17.5t-17.5 41.5v967 h-136v-967zM162 1202h85v149q0 24 17.5 42t41.5 18h5q24 0 41.5 -18t17.5 -42v-5q0 -60 43 -102t102 -42q60 0 102.5 42t42.5 102v150h-86v-150q0 -24 -17.5 -42t-41.5 -18t-41.5 18t-17.5 42v5q0 60 -43 102.5t-102 42.5h-5q-59 0 -101.5 -42.5t-42.5 -102.5v-149z" />
<glyph unicode="&#x41a;" d="M80 0h136v1111h-136v-1111zM267 420h299q24 0 42 -18t18 -42v-360h136v360q0 60 -43 102.5t-102 42.5h-350v-85zM267 542h350q59 0 102 42.5t43 101.5v425h-136v-425q0 -24 -18 -41.5t-42 -17.5h-299v-85z" />
<glyph unicode="&#x41b;" horiz-adv-x="657" d="M80 0q30 0 57.5 11t48 30.5t33.5 46t13 56.5v823q0 24 17.5 42t40.5 18h172q24 0 42 -18t18 -42v-967h136v967q0 60 -42.5 102t-102.5 42h-223q-59 0 -101.5 -42t-42.5 -102v-823q0 -24 -19.5 -42.5t-46.5 -18.5v-83z" />
<glyph unicode="&#x41c;" horiz-adv-x="1223" d="M80 0h136v967q0 24 17.5 42t42.5 18h171q24 0 41.5 -18t17.5 -42v-823q0 -59 43 -101.5t102 -42.5t101.5 42.5t42.5 101.5v823q0 24 18 42t42 18h172q24 0 41.5 -18t17.5 -42v-967h137v967q0 60 -43 102t-103 42h-222q-60 0 -102.5 -42t-42.5 -102v-823 q0 -24 -17.5 -41.5t-41.5 -17.5t-41.5 17.5t-17.5 41.5v823q0 60 -43 102t-102 42h-223q-60 0 -102 -42t-42 -102v-967z" />
<glyph unicode="&#x41d;" d="M80 0h136v477h410v-477h136v1111h-136v-548h-410v548h-136v-1111z" />
<glyph unicode="&#x41e;" d="M80 144q0 -59 42.5 -101.5t101.5 -42.5h393q59 0 102 42.5t43 101.5v823q0 60 -43 102t-102 42h-393q-60 0 -102 -42t-42 -102v-823zM216 144v823q0 24 17.5 42t42.5 18h290q24 0 42 -18t18 -42v-823q0 -24 -18 -41.5t-42 -17.5h-290q-25 0 -42.5 17.5t-17.5 41.5z" />
<glyph unicode="&#x41f;" d="M80 0h136v967q0 24 17.5 42t42.5 18h290q24 0 42 -18t18 -42v-967h136v967q0 60 -43 102t-102 42h-393q-60 0 -102 -42t-42 -102v-967z" />
<glyph unicode="&#x420;" d="M80 0h136v967q0 24 17.5 42t42.5 18h290q24 0 42 -18t18 -42v-175q0 -24 -18 -41.5t-42 -17.5h-297v-86h348q59 0 102 43t43 102v175q0 60 -43 102t-102 42h-393q-60 0 -102 -42t-42 -102v-967z" />
<glyph unicode="&#x421;" d="M80 144q0 -59 42.5 -101.5t101.5 -42.5h393q59 0 102 42.5t43 101.5v320h-136v-320q0 -24 -18 -41.5t-42 -17.5h-290q-25 0 -42.5 17.5t-17.5 41.5v823q0 24 17.5 42t42.5 18h290q24 0 42 -18t18 -42v-320h136v320q0 60 -43 102t-102 42h-393q-60 0 -102 -42t-42 -102 v-823z" />
<glyph unicode="&#x422;" horiz-adv-x="752" d="M81 925h273q24 0 41.5 -18t17.5 -42v-865h136v865q0 60 -42.5 102.5t-102.5 42.5h-323v-85zM81 1027h672v84h-672v-84z" />
<glyph unicode="&#x423;" horiz-adv-x="795" d="M80 144q0 -59 42.5 -101.5t101.5 -42.5h427q30 0 57 12t46.5 31.5t30 45.5t10.5 57v821q0 60 -42.5 102t-101.5 42q-60 0 -102.5 -42t-42.5 -102v-345q0 -24 -17.5 -41.5t-41.5 -17.5h-171q-25 0 -42.5 17.5t-17.5 41.5v489h-136v-489q0 -59 42.5 -102t101.5 -43h223 q60 0 102.5 43t42.5 102v345q0 24 17.5 42t41.5 18t41.5 -18t17.5 -42v-821q0 -26 -17 -43.5t-42 -17.5h-375q-25 0 -42.5 17.5t-17.5 41.5v235h-136v-235z" />
<glyph unicode="&#x424;" horiz-adv-x="1137" d="M80 605q0 -60 42.5 -102t101.5 -42h316v-461h136v780q0 24 18 42t42 18h206q24 0 41.5 -18t17.5 -42v-175q0 -24 -18 -42t-41 -18h-212v-84h263q59 0 101.5 42t42.5 102v175q0 60 -42.5 102.5t-101.5 42.5h-317v186h-136v-521q-5 -19 -21 -32t-36 -13h-207 q-25 0 -42.5 18t-17.5 42v175q0 24 17.5 42t42.5 18h214v85h-266q-60 0 -102 -42.5t-42 -102.5v-175z" />
<glyph unicode="&#x425;" d="M80 0h136v362q0 24 17.5 42t42.5 18h290q24 0 42 -18t18 -42v-362h136v362q0 60 -43 102t-102 42h-393q-60 0 -102 -42t-42 -102v-362zM80 686q0 -59 42.5 -101.5t101.5 -42.5h393q59 0 102 42.5t43 101.5v425h-136v-425q0 -24 -18 -41.5t-42 -17.5h-290q-25 0 -42.5 18 t-17.5 41v425h-136v-425z" />
<glyph unicode="&#x426;" horiz-adv-x="913" d="M80 144q0 -59 42.5 -101.5t101.5 -42.5h538v435q2 0 3.5 1t4.5 1q24 0 41.5 -18t17.5 -41v-599h86v599q0 59 -43 101.5t-102 42.5h-8v589h-136v-965q0 -31 -17 -46t-38 -15h-295q-25 0 -42.5 17.5t-17.5 41.5v967h-136v-967z" />
<glyph unicode="&#x427;" d="M80 686q0 -59 42.5 -101.5t101.5 -42.5h393q59 0 102 42.5t43 101.5v425h-136v-425q0 -24 -18 -41.5t-42 -17.5h-290q-25 0 -42.5 18t-17.5 41v425h-136v-425zM216 422h350q24 0 42 -18t18 -42v-362h136v362q0 60 -43 102t-102 42h-401v-84z" />
<glyph unicode="&#x428;" horiz-adv-x="1223" d="M80 0h367q60 0 102.5 42.5t42.5 101.5v823q0 24 17.5 42t41.5 18t41.5 -18t17.5 -42v-823q0 -59 42.5 -101.5t102.5 -42.5h368v1111h-137v-967q0 -24 -17.5 -41.5t-41.5 -17.5h-172q-24 0 -42 17.5t-18 41.5v823q0 60 -42.5 102t-101.5 42q-60 0 -102.5 -42t-42.5 -102 v-823q0 -24 -17.5 -41.5t-41.5 -17.5h-171q-25 0 -42.5 17.5t-17.5 41.5v967h-136v-1111z" />
<glyph unicode="&#x429;" horiz-adv-x="1374" d="M80 0h367q60 0 102.5 42.5t42.5 101.5v823q0 24 17.5 42t41.5 18t41.5 -18t17.5 -42v-823q0 -59 42.5 -101.5t102.5 -42.5h368v435q1 0 3 1t5 1q24 0 41.5 -18t17.5 -41v-599h85v599q0 59 -42.5 101.5t-101.5 42.5h-8v589h-137v-968q0 -28 -17 -43t-41 -15h-173 q-24 0 -42 17.5t-18 41.5v823q0 60 -42.5 102t-101.5 42q-60 0 -102.5 -42t-42.5 -102v-823q0 -24 -17.5 -41.5t-41.5 -17.5h-171q-25 0 -42.5 17.5t-17.5 41.5v967h-136v-1111z" />
<glyph unicode="&#x42a;" horiz-adv-x="1162" d="M80 1027h342q24 0 39.5 -16.5t19.5 -38.5v-828q0 -59 42.5 -101.5t102.5 -42.5h392q60 0 102.5 42.5t42.5 101.5v216q0 60 -43 102.5t-102 42.5h-350v-85h299q24 0 42 -18t18 -42v-216q0 -24 -18 -41.5t-42 -17.5h-291q-24 0 -41.5 17.5t-17.5 41.5v823q0 60 -42.5 102 t-102.5 42h-392v-84z" />
<glyph unicode="&#x42b;" horiz-adv-x="1072" d="M80 144q0 -59 42.5 -101.5t101.5 -42.5h393q59 0 102 42.5t43 101.5v216q0 60 -43 102.5t-102 42.5h-350v-85h299q24 0 42 -18t18 -42v-216q0 -24 -18 -41.5t-42 -17.5h-290q-25 0 -42.5 17.5t-17.5 41.5v967h-136v-967zM936 0h136v1111h-136v-1111z" />
<glyph unicode="&#x42c;" d="M80 144q0 -59 42.5 -101.5t101.5 -42.5h393q59 0 102 42.5t43 101.5v216q0 60 -43 102.5t-102 42.5h-350v-85h299q24 0 42 -18t18 -42v-216q0 -24 -18 -41.5t-42 -17.5h-290q-25 0 -42.5 17.5t-17.5 41.5v967h-136v-967z" />
<glyph unicode="&#x42d;" d="M78 144q0 -59 43 -101.5t101 -42.5h393q60 0 102 42.5t42 101.5v216q0 60 -42 102.5t-102 42.5h-447v-85h396q24 0 42 -18t18 -42v-216q0 -24 -18 -41.5t-42 -17.5h-290q-24 0 -42 17.5t-18 41.5h-136zM78 967h136q0 24 18 42t42 18h290q24 0 42 -18t18 -42v-281 q0 -24 -18 -41.5t-42 -17.5h-399v-85h450q60 0 102 42.5t42 101.5v281q0 60 -42 102t-102 42h-393q-59 0 -101.5 -42t-42.5 -102z" />
<glyph unicode="&#x42e;" horiz-adv-x="1236" d="M80 0h136v362q0 24 17.5 42t42.5 18h280v-278q0 -59 42.5 -101.5t102.5 -42.5h392q60 0 102.5 42.5t42.5 101.5v823q0 60 -42.5 102t-102.5 42h-392q-60 0 -102.5 -42t-42.5 -102v-340h-280q-25 0 -42.5 18t-17.5 41v425h-136v-425q0 -59 42.5 -101.5t101.5 -42.5h468 v425q0 24 18 42t41 18h291q24 0 41.5 -18t17.5 -42v-823q0 -24 -17.5 -41.5t-41.5 -17.5h-291q-24 0 -41.5 17.5t-17.5 41.5v362h-468q-60 0 -102 -42t-42 -102v-362z" />
<glyph unicode="&#x42f;" d="M78 0h136v360q0 24 18 42t42 18h299v85h-351q-59 0 -101.5 -42.5t-42.5 -102.5v-360zM78 686q0 -59 43 -101.5t101 -42.5h351v85h-299q-24 0 -42 18t-18 41v281q0 24 18 42t42 18h290q24 0 42 -18t18 -42v-967h135v967q0 60 -42 102t-102 42h-393q-59 0 -101.5 -42 t-42.5 -102v-281z" />
<glyph unicode="&#x430;" d="M80 153q0 -60 42.5 -102.5t101.5 -42.5h393q59 0 102 43t43 102v814q0 60 -43 102t-102 42h-393q-60 0 -102 -42t-42 -102v-183h136v183q0 24 17.5 42t42.5 18h290q24 0 42 -18t18 -42v-814q0 -24 -18 -41.5t-42 -17.5h-290q-25 0 -42.5 17.5t-17.5 41.5v435 q0 25 17.5 42t42.5 17h298v86h-350q-60 0 -102 -43t-42 -102v-435z" />
<glyph unicode="&#x431;" d="M78 153q0 -60 43 -102.5t101 -42.5h393q60 0 102 43t42 102v435q0 60 -42 102.5t-102 42.5h-350v-86h299q24 0 42 -17.5t18 -41.5v-435q0 -24 -18 -41.5t-42 -17.5h-290q-24 0 -42 17.5t-18 41.5v814q0 24 18 42t42 18h488v84h-540q-59 0 -101.5 -42t-42.5 -102v-814z " />
<glyph unicode="&#x432;" d="M80 144q0 -59 42.5 -101.5t101.5 -42.5h393q59 0 102 42.5t43 101.5v216q0 60 -43 102.5t-102 42.5h-350v-85h299q24 0 42 -18t18 -42v-216q0 -24 -18 -41.5t-42 -17.5h-290q-25 0 -42.5 17.5t-17.5 41.5v823q0 24 17.5 42t42.5 18h290q24 0 42 -18t18 -42v-281 q0 -24 -18 -41.5t-42 -17.5h-299v-85h350q59 0 102 42.5t43 101.5v281q0 60 -43 102t-102 42h-393q-60 0 -102 -42t-42 -102v-823z" />
<glyph unicode="&#x433;" d="M80 0h136v967q0 24 17.5 42t42.5 18h290q24 0 42 -18t18 -42v-320h136v320q0 60 -43 102t-102 42h-393q-60 0 -102 -42t-42 -102v-967z" />
<glyph unicode="&#x434;" d="M80 144q0 -59 42.5 -101.5t101.5 -42.5h393q59 0 102 42.5t43 101.5v823q0 60 -43 102t-102 42h-393q-60 0 -102 -42t-42 -102v-443q0 -60 42.5 -102.5t101.5 -42.5h350v85h-298q-25 0 -42.5 18t-17.5 42v443q0 24 17.5 42t42.5 18h290q24 0 42 -18t18 -42v-823 q0 -24 -18 -41.5t-42 -17.5h-290q-25 0 -42.5 17.5t-17.5 41.5v184h-136v-184z" />
<glyph unicode="&#x435;" d="M80 144q0 -59 42.5 -101.5t101.5 -42.5h393q59 0 102 42.5t43 101.5v184h-136v-184q0 -24 -18 -41.5t-42 -17.5h-290q-25 0 -42.5 17.5t-17.5 41.5v823q0 24 17.5 42t42.5 18h290q24 0 42 -18t18 -42v-443q0 -24 -18 -42t-42 -18h-299v-85h350q59 0 102 42.5t43 102.5 v443q0 60 -43 102t-102 42h-393q-60 0 -102 -42t-42 -102v-823z" />
<glyph unicode="&#x436;" horiz-adv-x="1304" d="M78 0h136v360q0 24 18 42t42 18h299v85h-351q-59 0 -101.5 -42.5t-42.5 -102.5v-360zM78 686q0 -59 43 -101.5t101 -42.5h351v85h-299q-24 0 -42 18t-18 41v425h-136v-425zM624 0h135v1111h-135v-1111zM811 420h299q24 0 41.5 -18t17.5 -42v-360h137v360q0 60 -43 102.5 t-102 42.5h-350v-85zM811 542h350q60 0 102.5 42.5t42.5 101.5v425h-137v-425q0 -24 -17.5 -41.5t-41.5 -17.5h-299v-85z" />
<glyph unicode="&#x437;" d="M78 144q0 -59 43 -101.5t101 -42.5h393q60 0 102 42.5t42 101.5v216q0 60 -42 102.5t-102 42.5h-447v-85h396q24 0 42 -18t18 -42v-216q0 -24 -18 -41.5t-42 -17.5h-290q-24 0 -42 17.5t-18 41.5v184h-136v-184zM78 720h136v247q0 24 18 42t42 18h290q24 0 42 -18t18 -42 v-281q0 -24 -18 -41.5t-42 -17.5h-399v-85h450q60 0 102 42.5t42 101.5v281q0 60 -42 102t-102 42h-393q-59 0 -101.5 -42t-42.5 -102v-247z" />
<glyph unicode="&#x438;" horiz-adv-x="795" d="M80 144q0 -59 42.5 -101.5t101.5 -42.5h223q60 0 102.5 42.5t42.5 101.5v823q0 24 17.5 42t41.5 18t41.5 -18t17.5 -42v-967h85v967q0 60 -42.5 102t-101.5 42q-60 0 -102.5 -42t-42.5 -102v-823q0 -24 -17.5 -41.5t-41.5 -17.5h-171q-25 0 -42.5 17.5t-17.5 41.5v967 h-136v-967z" />
<glyph unicode="&#x439;" horiz-adv-x="795" d="M80 144q0 -59 42.5 -101.5t101.5 -42.5h223q60 0 102.5 42.5t42.5 101.5v823q0 24 17.5 42t41.5 18t41.5 -18t17.5 -42v-967h85v967q0 60 -42.5 102t-101.5 42q-60 0 -102.5 -42t-42.5 -102v-823q0 -24 -17.5 -41.5t-41.5 -17.5h-171q-25 0 -42.5 17.5t-17.5 41.5v967 h-136v-967zM162 1202h85v149q0 24 17.5 42t41.5 18h5q24 0 41.5 -18t17.5 -42v-5q0 -60 43 -102t102 -42q60 0 102.5 42t42.5 102v150h-86v-150q0 -24 -17.5 -42t-41.5 -18t-41.5 18t-17.5 42v5q0 60 -43 102.5t-102 42.5h-5q-59 0 -101.5 -42.5t-42.5 -102.5v-149z" />
<glyph unicode="&#x43a;" d="M80 0h136v1111h-136v-1111zM267 420h299q24 0 42 -18t18 -42v-360h136v360q0 60 -43 102.5t-102 42.5h-350v-85zM267 542h350q59 0 102 42.5t43 101.5v425h-136v-425q0 -24 -18 -41.5t-42 -17.5h-299v-85z" />
<glyph unicode="&#x43b;" horiz-adv-x="657" d="M80 0q30 0 57.5 11t48 30.5t33.5 46t13 56.5v823q0 24 17.5 42t40.5 18h172q24 0 42 -18t18 -42v-967h136v967q0 60 -42.5 102t-102.5 42h-223q-59 0 -101.5 -42t-42.5 -102v-823q0 -24 -19.5 -42.5t-46.5 -18.5v-83z" />
<glyph unicode="&#x43c;" horiz-adv-x="1223" d="M80 0h136v967q0 24 17.5 42t42.5 18h171q24 0 41.5 -18t17.5 -42v-823q0 -59 43 -101.5t102 -42.5t101.5 42.5t42.5 101.5v823q0 24 18 42t42 18h172q24 0 41.5 -18t17.5 -42v-967h137v967q0 60 -43 102t-103 42h-222q-60 0 -102.5 -42t-42.5 -102v-823 q0 -24 -17.5 -41.5t-41.5 -17.5t-41.5 17.5t-17.5 41.5v823q0 60 -43 102t-102 42h-223q-60 0 -102 -42t-42 -102v-967z" />
<glyph unicode="&#x43d;" d="M80 0h136v477h410v-477h136v1111h-136v-548h-410v548h-136v-1111z" />
<glyph unicode="&#x43e;" d="M80 144q0 -59 42.5 -101.5t101.5 -42.5h393q59 0 102 42.5t43 101.5v823q0 60 -43 102t-102 42h-393q-60 0 -102 -42t-42 -102v-823zM216 144v823q0 24 17.5 42t42.5 18h290q24 0 42 -18t18 -42v-823q0 -24 -18 -41.5t-42 -17.5h-290q-25 0 -42.5 17.5t-17.5 41.5z" />
<glyph unicode="&#x43f;" d="M78 0h86v967q0 24 17.5 42t40.5 18h342q24 0 42 -18t18 -42v-967h135v967q0 60 -42 102t-102 42h-393q-59 0 -101.5 -42t-42.5 -102v-967z" />
<glyph unicode="&#x440;" d="M80 0h136v967q0 24 17.5 42t42.5 18h290q24 0 42 -18t18 -42v-443q0 -24 -18 -42t-42 -18h-297v-85h348q59 0 102 42.5t43 102.5v443q0 60 -43 102t-102 42h-393q-60 0 -102 -42t-42 -102v-967z" />
<glyph unicode="&#x441;" d="M80 144q0 -59 42.5 -101.5t101.5 -42.5h393q59 0 102 42.5t43 101.5v320h-136v-320q0 -24 -18 -41.5t-42 -17.5h-290q-25 0 -42.5 17.5t-17.5 41.5v823q0 24 17.5 42t42.5 18h290q24 0 42 -18t18 -42v-320h136v320q0 60 -43 102t-102 42h-393q-60 0 -102 -42t-42 -102 v-823z" />
<glyph unicode="&#x442;" horiz-adv-x="752" d="M81 925h273q24 0 41.5 -18t17.5 -42v-865h136v865q0 60 -42.5 102.5t-102.5 42.5h-323v-85zM81 1027h672v84h-672v-84z" />
<glyph unicode="&#x443;" horiz-adv-x="795" d="M80 144q0 -59 42.5 -101.5t101.5 -42.5h427q30 0 57 12t46.5 31.5t30 45.5t10.5 57v821q0 60 -42.5 102t-101.5 42q-60 0 -102.5 -42t-42.5 -102v-345q0 -24 -17.5 -41.5t-41.5 -17.5h-171q-25 0 -42.5 17.5t-17.5 41.5v489h-136v-489q0 -59 42.5 -102t101.5 -43h223 q60 0 102.5 43t42.5 102v345q0 24 17.5 42t41.5 18t41.5 -18t17.5 -42v-821q0 -26 -17 -43.5t-42 -17.5h-375q-25 0 -42.5 17.5t-17.5 41.5v235h-136v-235z" />
<glyph unicode="&#x444;" horiz-adv-x="1137" d="M80 367q0 -60 42.5 -102.5t101.5 -42.5h316v-222h136v780q0 24 18 42t42 18h206q24 0 41.5 -18t17.5 -42v-413q0 -24 -18 -41.5t-41 -17.5h-212v-86h263q59 0 101.5 43t42.5 102v413q0 60 -42.5 102.5t-101.5 42.5h-317v186h-136v-759q-5 -19 -21 -31.5t-36 -12.5h-207 q-25 0 -42.5 18t-17.5 41v413q0 24 17.5 42t42.5 18h214v85h-266q-60 0 -102 -42.5t-42 -102.5v-413z" />
<glyph unicode="&#x445;" d="M80 0h136v362q0 24 17.5 42t42.5 18h290q24 0 42 -18t18 -42v-362h136v362q0 60 -43 102t-102 42h-393q-60 0 -102 -42t-42 -102v-362zM80 686q0 -59 42.5 -101.5t101.5 -42.5h393q59 0 102 42.5t43 101.5v425h-136v-425q0 -24 -18 -41.5t-42 -17.5h-290q-25 0 -42.5 18 t-17.5 41v425h-136v-425z" />
<glyph unicode="&#x446;" horiz-adv-x="913" d="M80 144q0 -59 42.5 -101.5t101.5 -42.5h538v435q2 0 3.5 1t4.5 1q24 0 41.5 -18t17.5 -41v-599h86v599q0 59 -43 101.5t-102 42.5h-8v589h-136v-965q0 -31 -17 -46t-38 -15h-295q-25 0 -42.5 17.5t-17.5 41.5v967h-136v-967z" />
<glyph unicode="&#x447;" d="M80 686q0 -59 42.5 -101.5t101.5 -42.5h393q59 0 102 42.5t43 101.5v425h-136v-425q0 -24 -18 -41.5t-42 -17.5h-290q-25 0 -42.5 18t-17.5 41v425h-136v-425zM216 422h350q24 0 42 -18t18 -42v-362h136v362q0 60 -43 102t-102 42h-401v-84z" />
<glyph unicode="&#x448;" horiz-adv-x="1223" d="M80 0h367q60 0 102.5 42.5t42.5 101.5v823q0 24 17.5 42t41.5 18t41.5 -18t17.5 -42v-823q0 -59 42.5 -101.5t102.5 -42.5h368v1111h-137v-967q0 -24 -17.5 -41.5t-41.5 -17.5h-172q-24 0 -42 17.5t-18 41.5v823q0 60 -42.5 102t-101.5 42q-60 0 -102.5 -42t-42.5 -102 v-823q0 -24 -17.5 -41.5t-41.5 -17.5h-171q-25 0 -42.5 17.5t-17.5 41.5v967h-136v-1111z" />
<glyph unicode="&#x449;" horiz-adv-x="1374" d="M80 0h367q60 0 102.5 42.5t42.5 101.5v823q0 24 17.5 42t41.5 18t41.5 -18t17.5 -42v-823q0 -59 42.5 -101.5t102.5 -42.5h368v435q1 0 3 1t5 1q24 0 41.5 -18t17.5 -41v-599h85v599q0 59 -42.5 101.5t-101.5 42.5h-8v589h-137v-968q0 -28 -17 -43t-41 -15h-173 q-24 0 -42 17.5t-18 41.5v823q0 60 -42.5 102t-101.5 42q-60 0 -102.5 -42t-42.5 -102v-823q0 -24 -17.5 -41.5t-41.5 -17.5h-171q-25 0 -42.5 17.5t-17.5 41.5v967h-136v-1111z" />
<glyph unicode="&#x44a;" horiz-adv-x="1162" d="M80 1027h342q24 0 39.5 -16.5t19.5 -38.5v-828q0 -59 42.5 -101.5t102.5 -42.5h392q60 0 102.5 42.5t42.5 101.5v216q0 60 -43 102.5t-102 42.5h-350v-85h299q24 0 42 -18t18 -42v-216q0 -24 -18 -41.5t-42 -17.5h-291q-24 0 -41.5 17.5t-17.5 41.5v823q0 60 -42.5 102 t-102.5 42h-392v-84z" />
<glyph unicode="&#x44b;" horiz-adv-x="1072" d="M80 144q0 -59 42.5 -101.5t101.5 -42.5h393q59 0 102 42.5t43 101.5v216q0 60 -43 102.5t-102 42.5h-350v-85h299q24 0 42 -18t18 -42v-216q0 -24 -18 -41.5t-42 -17.5h-290q-25 0 -42.5 17.5t-17.5 41.5v967h-136v-967zM936 0h136v1111h-136v-1111z" />
<glyph unicode="&#x44c;" d="M80 144q0 -59 42.5 -101.5t101.5 -42.5h393q59 0 102 42.5t43 101.5v216q0 60 -43 102.5t-102 42.5h-350v-85h299q24 0 42 -18t18 -42v-216q0 -24 -18 -41.5t-42 -17.5h-290q-25 0 -42.5 17.5t-17.5 41.5v967h-136v-967z" />
<glyph unicode="&#x44d;" d="M78 144q0 -59 43 -101.5t101 -42.5h393q60 0 102 42.5t42 101.5v216q0 60 -42 102.5t-102 42.5h-447v-85h396q24 0 42 -18t18 -42v-216q0 -24 -18 -41.5t-42 -17.5h-290q-24 0 -42 17.5t-18 41.5h-136zM78 967h136q0 24 18 42t42 18h290q24 0 42 -18t18 -42v-281 q0 -24 -18 -41.5t-42 -17.5h-399v-85h450q60 0 102 42.5t42 101.5v281q0 60 -42 102t-102 42h-393q-59 0 -101.5 -42t-42.5 -102z" />
<glyph unicode="&#x44e;" horiz-adv-x="1236" d="M80 0h136v362q0 24 17.5 42t42.5 18h280v-278q0 -59 42.5 -101.5t102.5 -42.5h392q60 0 102.5 42.5t42.5 101.5v823q0 60 -42.5 102t-102.5 42h-392q-60 0 -102.5 -42t-42.5 -102v-340h-280q-25 0 -42.5 18t-17.5 41v425h-136v-425q0 -59 42.5 -101.5t101.5 -42.5h468 v425q0 24 18 42t41 18h291q24 0 41.5 -18t17.5 -42v-823q0 -24 -17.5 -41.5t-41.5 -17.5h-291q-24 0 -41.5 17.5t-17.5 41.5v362h-468q-60 0 -102 -42t-42 -102v-362z" />
<glyph unicode="&#x44f;" d="M78 0h136v360q0 24 18 42t42 18h299v85h-351q-59 0 -101.5 -42.5t-42.5 -102.5v-360zM78 686q0 -59 43 -101.5t101 -42.5h351v85h-299q-24 0 -42 18t-18 41v281q0 24 18 42t42 18h290q24 0 42 -18t18 -42v-967h135v967q0 60 -42 102t-102 42h-393q-59 0 -101.5 -42 t-42.5 -102v-281z" />
<glyph unicode="&#x455;" d="M80 144q0 -59 42.5 -101.5t101.5 -42.5h393q59 0 102 42.5t43 101.5v274q0 60 -43 102.5t-102 42.5h-341q-25 0 -42.5 17.5t-17.5 41.5v345q0 24 17.5 42t42.5 18h290q24 0 42 -18t18 -42v-297h136v297q0 60 -43 102t-102 42h-393q-60 0 -102 -42t-42 -102v-345 q0 -59 42.5 -102t101.5 -43h342q24 0 42 -17.5t18 -41.5v-274q0 -24 -18 -41.5t-42 -17.5h-290q-25 0 -42.5 17.5t-17.5 41.5v235h-136v-235z" />
<glyph unicode="&#x456;" horiz-adv-x="217" d="M80 0h136v993h-136v-993zM80 1043h136v68h-136v-68z" />
<glyph unicode="&#x458;" d="M80 144q0 -59 42.5 -101.5t101.5 -42.5h393q59 0 102 42.5t43 101.5v704q0 60 -43 102.5t-102 42.5h-393v-85h342q24 0 42 -18t18 -42v-704q0 -24 -18 -41.5t-42 -17.5h-290q-25 0 -42.5 17.5t-17.5 41.5v234h-136v-234zM224 1043h538v68h-538v-68z" />
<glyph unicode="&#x45e;" horiz-adv-x="817" d="M491 172q60 0 102.5 42t42.5 102v233q0 25 17.5 42t42.5 17q24 0 41 -17.5t17 -41.5v-598h86v598q0 60 -43 102.5t-101 42.5q-60 0 -102.5 -43t-42.5 -102v-233q0 -24 -18 -42t-42 -18v-84z" />
<glyph unicode="&#x2000;" horiz-adv-x="748" />
<glyph unicode="&#x2001;" horiz-adv-x="1496" />
<glyph unicode="&#x2002;" horiz-adv-x="748" />
<glyph unicode="&#x2003;" horiz-adv-x="1496" />
<glyph unicode="&#x2004;" horiz-adv-x="498" />
<glyph unicode="&#x2005;" horiz-adv-x="374" />
<glyph unicode="&#x2006;" horiz-adv-x="249" />
<glyph unicode="&#x2007;" horiz-adv-x="249" />
<glyph unicode="&#x2008;" horiz-adv-x="187" />
<glyph unicode="&#x2009;" horiz-adv-x="299" />
<glyph unicode="&#x200a;" horiz-adv-x="83" />
<glyph unicode="&#x2010;" horiz-adv-x="579" d="M81 379h498v83h-498v-83z" />
<glyph unicode="&#x2011;" horiz-adv-x="579" d="M81 379h498v83h-498v-83z" />
<glyph unicode="&#x2012;" horiz-adv-x="579" d="M81 379h498v83h-498v-83z" />
<glyph unicode="&#x2013;" d="M80 144q0 -59 42.5 -101.5t101.5 -42.5h393q59 0 102 42.5t43 101.5v57q0 60 -43 102t-102 42h-393q-60 0 -102 -42.5t-42 -101.5v-57zM80 532q0 -60 42.5 -102t101.5 -42h393q59 0 102 42t43 102v56q0 60 -43 102.5t-102 42.5h-393q-60 0 -102 -43t-42 -102v-56z M216 144v57q0 24 17.5 41.5t42.5 17.5h290q24 0 42 -18t18 -41v-57q0 -24 -18 -41.5t-42 -17.5h-290q-25 0 -42.5 17.5t-17.5 41.5zM216 532v56q0 25 17.5 42t42.5 17h290q24 0 42 -17.5t18 -41.5v-56q0 -24 -18 -42t-42 -18h-290q-25 0 -42.5 18t-17.5 42z" />
<glyph unicode="&#x2014;" d="M80 532q0 -60 42.5 -102t101.5 -42h393q59 0 102 42t43 102v56q0 60 -43 102.5t-102 42.5h-393q-60 0 -102 -43t-42 -102v-56zM80 911q0 -59 42.5 -101.5t101.5 -42.5h393q59 0 102 42.5t43 101.5v56q0 60 -43 102t-102 42h-393q-60 0 -102 -42t-42 -102v-56zM216 532v56 q0 25 17.5 42t42.5 17h290q24 0 42 -17.5t18 -41.5v-56q0 -24 -18 -42t-42 -18h-290q-25 0 -42.5 18t-17.5 42zM216 911v56q0 24 17.5 42t42.5 18h290q24 0 42 -18t18 -42v-56q0 -24 -18 -41.5t-42 -17.5h-290q-25 0 -42.5 17.5t-17.5 41.5z" />
<glyph unicode="&#x2018;" horiz-adv-x="162" d="M80 806h84v292h-84v-292z" />
<glyph unicode="&#x2019;" horiz-adv-x="162" d="M80 806h84v292h-84v-292z" />
<glyph unicode="&#x201a;" horiz-adv-x="162" d="M80 104v-292h84v292h-84z" />
<glyph unicode="&#x201c;" horiz-adv-x="319" d="M80 806h84v292h-84v-292zM233 806h84v292h-84v-292z" />
<glyph unicode="&#x201d;" horiz-adv-x="319" d="M80 806h84v292h-84v-292zM233 806h84v292h-84v-292z" />
<glyph unicode="&#x201e;" d="M80 144q0 -59 42.5 -101.5t101.5 -42.5h393q59 0 102 42.5t43 101.5v57q0 60 -43 102t-102 42h-393q-60 0 -102 -42.5t-42 -101.5v-57zM80 911q0 -59 42.5 -101.5t101.5 -42.5h393q59 0 102 42.5t43 101.5v56q0 60 -43 102t-102 42h-393q-60 0 -102 -42t-42 -102v-56z M216 144v57q0 24 17.5 41.5t42.5 17.5h290q24 0 42 -18t18 -41v-57q0 -24 -18 -41.5t-42 -17.5h-290q-25 0 -42.5 17.5t-17.5 41.5zM216 911v56q0 24 17.5 42t42.5 18h290q24 0 42 -18t18 -42v-56q0 -24 -18 -41.5t-42 -17.5h-290q-25 0 -42.5 17.5t-17.5 41.5z" />
<glyph unicode="&#x2020;" d="M80 144q0 -59 42.5 -101.5t101.5 -42.5h393q59 0 102 42.5t43 101.5v57q0 60 -43 102t-102 42h-393q-60 0 -102 -42.5t-42 -101.5v-57zM80 911q0 -59 42.5 -101.5t101.5 -42.5h393q59 0 102 42.5t43 101.5v56q0 60 -43 102t-102 42h-393q-60 0 -102 -42t-42 -102v-56z M216 144v57q0 24 17.5 41.5t42.5 17.5h290q24 0 42 -18t18 -41v-57q0 -24 -18 -41.5t-42 -17.5h-290q-25 0 -42.5 17.5t-17.5 41.5zM216 911v56q0 24 17.5 42t42.5 18h290q24 0 42 -18t18 -42v-56q0 -24 -18 -41.5t-42 -17.5h-290q-25 0 -42.5 17.5t-17.5 41.5z" />
<glyph unicode="&#x2021;" d="M80 144q0 -59 42.5 -101.5t101.5 -42.5h393q59 0 102 42.5t43 101.5v57q0 60 -43 102t-102 42h-393q-60 0 -102 -42.5t-42 -101.5v-57zM80 532q0 -60 42.5 -102t101.5 -42h393q59 0 102 42t43 102v56q0 60 -43 102.5t-102 42.5h-393q-60 0 -102 -43t-42 -102v-56zM80 911 q0 -59 42.5 -101.5t101.5 -42.5h393q59 0 102 42.5t43 101.5v56q0 60 -43 102t-102 42h-393q-60 0 -102 -42t-42 -102v-56zM216 144v57q0 24 17.5 41.5t42.5 17.5h290q24 0 42 -18t18 -41v-57q0 -24 -18 -41.5t-42 -17.5h-290q-25 0 -42.5 17.5t-17.5 41.5zM216 532v56 q0 25 17.5 42t42.5 17h290q24 0 42 -17.5t18 -41.5v-56q0 -24 -18 -42t-42 -18h-290q-25 0 -42.5 18t-17.5 42zM216 911v56q0 24 17.5 42t42.5 18h290q24 0 42 -18t18 -42v-56q0 -24 -18 -41.5t-42 -17.5h-290q-25 0 -42.5 17.5t-17.5 41.5z" />
<glyph unicode="&#x2022;" horiz-adv-x="439" d="M81 556q0 -36 14 -68t38.5 -57t56.5 -38.5t68 -13.5t68.5 13.5t57 38.5t38 57t13.5 68t-13.5 68.5t-38 57t-57 38t-68.5 13.5t-68 -13.5t-56.5 -38t-38.5 -57t-14 -68.5z" />
<glyph unicode="&#x2026;" d="M80 144q0 -59 42.5 -101.5t101.5 -42.5h393q59 0 102 42.5t43 101.5v57q0 60 -43 102t-102 42h-393q-60 0 -102 -42.5t-42 -101.5v-57zM80 911q0 -59 42.5 -101.5t101.5 -42.5h393q59 0 102 42.5t43 101.5v56q0 60 -43 102t-102 42h-393q-60 0 -102 -42t-42 -102v-56z M216 144v57q0 24 17.5 41.5t42.5 17.5h290q24 0 42 -18t18 -41v-57q0 -24 -18 -41.5t-42 -17.5h-290q-25 0 -42.5 17.5t-17.5 41.5zM216 911v56q0 24 17.5 42t42.5 18h290q24 0 42 -18t18 -42v-56q0 -24 -18 -41.5t-42 -17.5h-290q-25 0 -42.5 17.5t-17.5 41.5z" />
<glyph unicode="&#x202f;" horiz-adv-x="299" />
<glyph unicode="&#x2030;" d="M80 144q0 -59 42.5 -101.5t101.5 -42.5h393q59 0 102 42.5t43 101.5v57q0 60 -43 102t-102 42h-393q-60 0 -102 -42.5t-42 -101.5v-57zM80 532q0 -60 42.5 -102t101.5 -42h393q59 0 102 42t43 102v56q0 60 -43 102.5t-102 42.5h-393q-60 0 -102 -43t-42 -102v-56z M216 144v57q0 24 17.5 41.5t42.5 17.5h290q24 0 42 -18t18 -41v-57q0 -24 -18 -41.5t-42 -17.5h-290q-25 0 -42.5 17.5t-17.5 41.5zM216 532v56q0 25 17.5 42t42.5 17h290q24 0 42 -17.5t18 -41.5v-56q0 -24 -18 -42t-42 -18h-290q-25 0 -42.5 18t-17.5 42z" />
<glyph unicode="&#x2039;" d="M80 532q0 -60 42.5 -102t101.5 -42h393q59 0 102 42t43 102v56q0 60 -43 102.5t-102 42.5h-393q-60 0 -102 -43t-42 -102v-56zM80 911q0 -59 42.5 -101.5t101.5 -42.5h393q59 0 102 42.5t43 101.5v56q0 60 -43 102t-102 42h-393q-60 0 -102 -42t-42 -102v-56zM216 532v56 q0 25 17.5 42t42.5 17h290q24 0 42 -17.5t18 -41.5v-56q0 -24 -18 -42t-42 -18h-290q-25 0 -42.5 18t-17.5 42zM216 911v56q0 24 17.5 42t42.5 18h290q24 0 42 -18t18 -42v-56q0 -24 -18 -41.5t-42 -17.5h-290q-25 0 -42.5 17.5t-17.5 41.5z" />
<glyph unicode="&#x203a;" d="M80 532q0 -60 42.5 -102t101.5 -42h393q59 0 102 42t43 102v56q0 60 -43 102.5t-102 42.5h-393q-60 0 -102 -43t-42 -102v-56zM216 532v56q0 25 17.5 42t42.5 17h290q24 0 42 -17.5t18 -41.5v-56q0 -24 -18 -42t-42 -18h-290q-25 0 -42.5 18t-17.5 42z" />
<glyph unicode="&#x2044;" d="M80 144q0 -59 42.5 -101.5t101.5 -42.5h393q59 0 102 42.5t43 101.5v57q0 60 -43 102t-102 42h-393q-60 0 -102 -42.5t-42 -101.5v-57zM80 911q0 -59 42.5 -101.5t101.5 -42.5h393q59 0 102 42.5t43 101.5v56q0 60 -43 102t-102 42h-393q-60 0 -102 -42t-42 -102v-56z M216 144v57q0 24 17.5 41.5t42.5 17.5h290q24 0 42 -18t18 -41v-57q0 -24 -18 -41.5t-42 -17.5h-290q-25 0 -42.5 17.5t-17.5 41.5zM216 911v56q0 24 17.5 42t42.5 18h290q24 0 42 -18t18 -42v-56q0 -24 -18 -41.5t-42 -17.5h-290q-25 0 -42.5 17.5t-17.5 41.5z" />
<glyph unicode="&#x205f;" horiz-adv-x="374" />
<glyph unicode="&#x2122;" horiz-adv-x="1249" d="M81 925h102q25 0 42.5 -18t17.5 -42v-355h136v355q0 60 -42.5 102.5t-101.5 42.5h-154v-85zM81 1027h370q-14 -31 -14 -60v-457h136v457q0 24 17.5 42t41.5 18h9q24 0 42 -18t18 -42v-313q0 -60 42 -102t102 -42t102 42.5t42 101.5v313q0 24 18 42t42 18h5q24 0 41.5 -18 t17.5 -42v-457h136v457q0 60 -42.5 102t-101.5 42h-56q-60 0 -102 -42t-42 -102v-313q0 -24 -18 -41.5t-42 -17.5t-42 18t-18 41v313q0 60 -42 102t-102 42h-560v-84z" />
<glyph unicode="&#x2202;" d="M80 144q0 -59 42.5 -101.5t101.5 -42.5h393q59 0 102 42.5t43 101.5v57q0 60 -43 102t-102 42h-393q-60 0 -102 -42.5t-42 -101.5v-57zM80 911q0 -59 42.5 -101.5t101.5 -42.5h393q59 0 102 42.5t43 101.5v56q0 60 -43 102t-102 42h-393q-60 0 -102 -42t-42 -102v-56z M216 144v57q0 24 17.5 41.5t42.5 17.5h290q24 0 42 -18t18 -41v-57q0 -24 -18 -41.5t-42 -17.5h-290q-25 0 -42.5 17.5t-17.5 41.5zM216 911v56q0 24 17.5 42t42.5 18h290q24 0 42 -18t18 -42v-56q0 -24 -18 -41.5t-42 -17.5h-290q-25 0 -42.5 17.5t-17.5 41.5z" />
<glyph unicode="&#x220f;" d="M80 532q0 -60 42.5 -102t101.5 -42h393q59 0 102 42t43 102v56q0 60 -43 102.5t-102 42.5h-393q-60 0 -102 -43t-42 -102v-56zM80 911q0 -59 42.5 -101.5t101.5 -42.5h393q59 0 102 42.5t43 101.5v56q0 60 -43 102t-102 42h-393q-60 0 -102 -42t-42 -102v-56zM216 532v56 q0 25 17.5 42t42.5 17h290q24 0 42 -17.5t18 -41.5v-56q0 -24 -18 -42t-42 -18h-290q-25 0 -42.5 18t-17.5 42zM216 911v56q0 24 17.5 42t42.5 18h290q24 0 42 -18t18 -42v-56q0 -24 -18 -41.5t-42 -17.5h-290q-25 0 -42.5 17.5t-17.5 41.5z" />
<glyph unicode="&#x2211;" d="M80 144q0 -59 42.5 -101.5t101.5 -42.5h393q59 0 102 42.5t43 101.5v57q0 60 -43 102t-102 42h-393q-60 0 -102 -42.5t-42 -101.5v-57zM80 532q0 -60 42.5 -102t101.5 -42h393q59 0 102 42t43 102v56q0 60 -43 102.5t-102 42.5h-393q-60 0 -102 -43t-42 -102v-56z M216 144v57q0 24 17.5 41.5t42.5 17.5h290q24 0 42 -18t18 -41v-57q0 -24 -18 -41.5t-42 -17.5h-290q-25 0 -42.5 17.5t-17.5 41.5zM216 532v56q0 25 17.5 42t42.5 17h290q24 0 42 -17.5t18 -41.5v-56q0 -24 -18 -42t-42 -18h-290q-25 0 -42.5 18t-17.5 42z" />
<glyph unicode="&#x221a;" d="M80 144q0 -59 42.5 -101.5t101.5 -42.5h393q59 0 102 42.5t43 101.5v57q0 60 -43 102t-102 42h-393q-60 0 -102 -42.5t-42 -101.5v-57zM80 532q0 -60 42.5 -102t101.5 -42h393q59 0 102 42t43 102v56q0 60 -43 102.5t-102 42.5h-393q-60 0 -102 -43t-42 -102v-56zM80 911 q0 -59 42.5 -101.5t101.5 -42.5h393q59 0 102 42.5t43 101.5v56q0 60 -43 102t-102 42h-393q-60 0 -102 -42t-42 -102v-56zM216 144v57q0 24 17.5 41.5t42.5 17.5h290q24 0 42 -18t18 -41v-57q0 -24 -18 -41.5t-42 -17.5h-290q-25 0 -42.5 17.5t-17.5 41.5zM216 532v56 q0 25 17.5 42t42.5 17h290q24 0 42 -17.5t18 -41.5v-56q0 -24 -18 -42t-42 -18h-290q-25 0 -42.5 18t-17.5 42zM216 911v56q0 24 17.5 42t42.5 18h290q24 0 42 -18t18 -42v-56q0 -24 -18 -41.5t-42 -17.5h-290q-25 0 -42.5 17.5t-17.5 41.5z" />
<glyph unicode="&#x221e;" d="M80 144q0 -59 42.5 -101.5t101.5 -42.5h393q59 0 102 42.5t43 101.5v57q0 60 -43 102t-102 42h-393q-60 0 -102 -42.5t-42 -101.5v-57zM80 532q0 -60 42.5 -102t101.5 -42h393q59 0 102 42t43 102v56q0 60 -43 102.5t-102 42.5h-393q-60 0 -102 -43t-42 -102v-56zM80 911 q0 -59 42.5 -101.5t101.5 -42.5h393q59 0 102 42.5t43 101.5v56q0 60 -43 102t-102 42h-393q-60 0 -102 -42t-42 -102v-56zM216 144v57q0 24 17.5 41.5t42.5 17.5h290q24 0 42 -18t18 -41v-57q0 -24 -18 -41.5t-42 -17.5h-290q-25 0 -42.5 17.5t-17.5 41.5zM216 532v56 q0 25 17.5 42t42.5 17h290q24 0 42 -17.5t18 -41.5v-56q0 -24 -18 -42t-42 -18h-290q-25 0 -42.5 18t-17.5 42zM216 911v56q0 24 17.5 42t42.5 18h290q24 0 42 -18t18 -42v-56q0 -24 -18 -41.5t-42 -17.5h-290q-25 0 -42.5 17.5t-17.5 41.5z" />
<glyph unicode="&#x222b;" d="M80 144q0 -59 42.5 -101.5t101.5 -42.5h393q59 0 102 42.5t43 101.5v57q0 60 -43 102t-102 42h-393q-60 0 -102 -42.5t-42 -101.5v-57zM80 532q0 -60 42.5 -102t101.5 -42h393q59 0 102 42t43 102v56q0 60 -43 102.5t-102 42.5h-393q-60 0 -102 -43t-42 -102v-56zM80 911 q0 -59 42.5 -101.5t101.5 -42.5h393q59 0 102 42.5t43 101.5v56q0 60 -43 102t-102 42h-393q-60 0 -102 -42t-42 -102v-56zM216 144v57q0 24 17.5 41.5t42.5 17.5h290q24 0 42 -18t18 -41v-57q0 -24 -18 -41.5t-42 -17.5h-290q-25 0 -42.5 17.5t-17.5 41.5zM216 532v56 q0 25 17.5 42t42.5 17h290q24 0 42 -17.5t18 -41.5v-56q0 -24 -18 -42t-42 -18h-290q-25 0 -42.5 18t-17.5 42zM216 911v56q0 24 17.5 42t42.5 18h290q24 0 42 -18t18 -42v-56q0 -24 -18 -41.5t-42 -17.5h-290q-25 0 -42.5 17.5t-17.5 41.5z" />
<glyph unicode="&#x2248;" d="M80 144q0 -59 42.5 -101.5t101.5 -42.5h393q59 0 102 42.5t43 101.5v57q0 60 -43 102t-102 42h-393q-60 0 -102 -42.5t-42 -101.5v-57zM80 532q0 -60 42.5 -102t101.5 -42h393q59 0 102 42t43 102v56q0 60 -43 102.5t-102 42.5h-393q-60 0 -102 -43t-42 -102v-56z M216 144v57q0 24 17.5 41.5t42.5 17.5h290q24 0 42 -18t18 -41v-57q0 -24 -18 -41.5t-42 -17.5h-290q-25 0 -42.5 17.5t-17.5 41.5zM216 532v56q0 25 17.5 42t42.5 17h290q24 0 42 -17.5t18 -41.5v-56q0 -24 -18 -42t-42 -18h-290q-25 0 -42.5 18t-17.5 42z" />
<glyph unicode="&#x2260;" d="M80 532q0 -60 42.5 -102t101.5 -42h393q59 0 102 42t43 102v56q0 60 -43 102.5t-102 42.5h-393q-60 0 -102 -43t-42 -102v-56zM216 532v56q0 25 17.5 42t42.5 17h290q24 0 42 -17.5t18 -41.5v-56q0 -24 -18 -42t-42 -18h-290q-25 0 -42.5 18t-17.5 42z" />
<glyph unicode="&#x2264;" d="M80 144q0 -59 42.5 -101.5t101.5 -42.5h393q59 0 102 42.5t43 101.5v57q0 60 -43 102t-102 42h-393q-60 0 -102 -42.5t-42 -101.5v-57zM80 532q0 -60 42.5 -102t101.5 -42h393q59 0 102 42t43 102v56q0 60 -43 102.5t-102 42.5h-393q-60 0 -102 -43t-42 -102v-56z M216 144v57q0 24 17.5 41.5t42.5 17.5h290q24 0 42 -18t18 -41v-57q0 -24 -18 -41.5t-42 -17.5h-290q-25 0 -42.5 17.5t-17.5 41.5zM216 532v56q0 25 17.5 42t42.5 17h290q24 0 42 -17.5t18 -41.5v-56q0 -24 -18 -42t-42 -18h-290q-25 0 -42.5 18t-17.5 42z" />
<glyph unicode="&#x2265;" d="M80 532q0 -60 42.5 -102t101.5 -42h393q59 0 102 42t43 102v56q0 60 -43 102.5t-102 42.5h-393q-60 0 -102 -43t-42 -102v-56zM80 911q0 -59 42.5 -101.5t101.5 -42.5h393q59 0 102 42.5t43 101.5v56q0 60 -43 102t-102 42h-393q-60 0 -102 -42t-42 -102v-56zM216 532v56 q0 25 17.5 42t42.5 17h290q24 0 42 -17.5t18 -41.5v-56q0 -24 -18 -42t-42 -18h-290q-25 0 -42.5 18t-17.5 42zM216 911v56q0 24 17.5 42t42.5 18h290q24 0 42 -18t18 -42v-56q0 -24 -18 -41.5t-42 -17.5h-290q-25 0 -42.5 17.5t-17.5 41.5z" />
<glyph unicode="&#x25ca;" d="M80 144q0 -59 42.5 -101.5t101.5 -42.5h393q59 0 102 42.5t43 101.5v57q0 60 -43 102t-102 42h-393q-60 0 -102 -42.5t-42 -101.5v-57zM80 532q0 -60 42.5 -102t101.5 -42h393q59 0 102 42t43 102v56q0 60 -43 102.5t-102 42.5h-393q-60 0 -102 -43t-42 -102v-56zM80 911 q0 -59 42.5 -101.5t101.5 -42.5h393q59 0 102 42.5t43 101.5v56q0 60 -43 102t-102 42h-393q-60 0 -102 -42t-42 -102v-56zM216 144v57q0 24 17.5 41.5t42.5 17.5h290q24 0 42 -18t18 -41v-57q0 -24 -18 -41.5t-42 -17.5h-290q-25 0 -42.5 17.5t-17.5 41.5zM216 532v56 q0 25 17.5 42t42.5 17h290q24 0 42 -17.5t18 -41.5v-56q0 -24 -18 -42t-42 -18h-290q-25 0 -42.5 18t-17.5 42zM216 911v56q0 24 17.5 42t42.5 18h290q24 0 42 -18t18 -42v-56q0 -24 -18 -41.5t-42 -17.5h-290q-25 0 -42.5 17.5t-17.5 41.5z" />
<glyph unicode="&#x25fc;" horiz-adv-x="1113" d="M0 0v1113h1113v-1113h-1113z" />
</font>
</defs>
</svg>
