<?xml version="1.0" standalone="no"?>
<!DOCTYPE svg PUBLIC "-//W3C//DTD SVG 1.1//EN" "http://www.w3.org/Graphics/SVG/1.1/DTD/svg11.dtd" >
<svg xmlns="http://www.w3.org/2000/svg">
<metadata></metadata>
<defs>
<font id="okolaksregular" horiz-adv-x="1364" >
<font-face units-per-em="2048" ascent="1622" descent="-426" />
<missing-glyph horiz-adv-x="1280" />
<glyph horiz-adv-x="1108" />
<glyph horiz-adv-x="1108" />
<glyph unicode="&#xd;" horiz-adv-x="1108" />
<glyph horiz-adv-x="1108" />
<glyph horiz-adv-x="1108" />
<glyph horiz-adv-x="1108" />
<glyph horiz-adv-x="1108" />
<glyph horiz-adv-x="1108" />
<glyph horiz-adv-x="1108" />
<glyph horiz-adv-x="1108" />
<glyph horiz-adv-x="1108" />
<glyph unicode="&#x9;" horiz-adv-x="1108" />
<glyph unicode="&#xa;" horiz-adv-x="1108" />
<glyph horiz-adv-x="1108" />
<glyph horiz-adv-x="1108" />
<glyph horiz-adv-x="1108" />
<glyph horiz-adv-x="1108" />
<glyph horiz-adv-x="1108" />
<glyph horiz-adv-x="1108" />
<glyph horiz-adv-x="1108" />
<glyph horiz-adv-x="1108" />
<glyph horiz-adv-x="1108" />
<glyph horiz-adv-x="1108" />
<glyph horiz-adv-x="1108" />
<glyph horiz-adv-x="1108" />
<glyph horiz-adv-x="1108" />
<glyph horiz-adv-x="2048" />
<glyph horiz-adv-x="1108" />
<glyph horiz-adv-x="1108" />
<glyph horiz-adv-x="1108" />
<glyph horiz-adv-x="1108" />
<glyph horiz-adv-x="1108" />
<glyph horiz-adv-x="2048" />
<glyph unicode=" "  horiz-adv-x="1280" />
<glyph unicode="&#x09;" horiz-adv-x="1280" />
<glyph unicode="&#xa0;" horiz-adv-x="1280" />
<glyph unicode="!" horiz-adv-x="426" d="M86 42q0 36 25 61t59 25q36 0 61 -25t25 -61q0 -34 -25 -59t-61 -25q-34 0 -59 25t-25 59zM86 426v1196h170v-1196h-170z" />
<glyph unicode="&#x22;" horiz-adv-x="768" d="M86 1536q0 34 25 60t59 26q36 0 61 -26t25 -60q0 -18 -21 -85t-21 -171h-86q0 100 -21 170t-21 86zM426 1536q0 34 26 60t60 26t60 -26t26 -60q0 -18 -22 -85t-22 -171h-84q0 100 -22 170t-22 86z" />
<glyph unicode="#" horiz-adv-x="1450" d="M86 0l204 598h-204v84h234l118 342h-268v86h298l174 512h92l-178 -512h372l174 512h92l-176 -512h262v-86h-292l-118 -342h324v-84h-354l-206 -598h-88l204 598h-370l-208 -598h-86zM410 682h370l118 342h-372z" />
<glyph unicode="$" d="M94 384h158q0 -96 96 -151t250 -63v608q-116 34 -170 52t-121 45t-93 50t-45 55t-19 74q0 60 25 123t75 123t141 101t207 47v174l84 -2v-170q210 -8 323 -81t155 -217h-158q0 94 -87 149t-233 65v-526q304 -92 408 -156t104 -178v-2q0 -176 -134 -291t-378 -125v-258h-84 v256q-216 6 -338 80t-166 218zM320 1088q0 -50 11 -82t51 -57t65 -35t107 -34q28 -10 44 -14v498q-134 -12 -206 -87t-72 -189zM682 172q148 12 243 92t95 206q0 118 -72 169t-266 111v-578z" />
<glyph unicode="%" horiz-adv-x="1706" d="M86 186l1424 1224l68 -92l-1428 -1216zM222 1280v64q0 80 68 136t188 56q118 0 187 -58t69 -134v-64q0 -94 -65 -154t-191 -60q-128 0 -192 60t-64 154zM308 1258q0 -54 46 -91t124 -37t124 37t46 91v108q0 40 -47 73t-123 33q-72 0 -121 -32t-49 -74v-108zM862 214v64 q0 80 68 136t188 56q118 0 187 -58t69 -134v-64q0 -94 -65 -154t-191 -60q-128 0 -192 60t-64 154zM948 192q0 -54 46 -91t124 -37t124 37t46 91v106q0 42 -47 75t-123 33q-72 0 -121 -32t-49 -76v-106z" />
<glyph unicode="&#x26;" d="M86 426v44q0 66 15 133t53 149t121 153t201 115q-12 12 -28 33t-44 88t-28 139q0 126 81 191t183 65q90 0 162 -76t72 -180q0 -192 -270 -298l390 -648q30 56 34 178h166q0 -176 -120 -320l122 -192h-106l-78 130q-154 -130 -372 -130q-256 0 -405 121t-149 305zM256 342 q0 -106 112 -181t272 -75q180 0 300 164l-422 704q-108 -44 -185 -136t-77 -178v-298zM474 1280q0 -36 7 -68t20 -59t22 -42t25 -39l18 -22q16 10 65 34t78 42t55 59t26 95q0 68 -48 119t-102 51q-66 0 -116 -40t-50 -130z" />
<glyph unicode="'" horiz-adv-x="426" d="M86 1536q0 34 25 60t59 26q36 0 61 -26t25 -60q0 -18 -21 -85t-21 -171h-86q0 100 -21 170t-21 86z" />
<glyph unicode="(" horiz-adv-x="682" d="M86 256v982q0 196 89 290t337 94v-86q-152 0 -204 -50t-52 -164v-1152q0 -120 55 -188t201 -68v-84q-130 0 -217 32t-131 94t-61 133t-17 167z" />
<glyph unicode=")" horiz-adv-x="682" d="M86 -86q146 0 201 68t55 188v1152q0 114 -53 164t-203 50v86q248 0 337 -94t89 -290v-982q0 -96 -17 -167t-61 -133t-131 -94t-217 -32v84z" />
<glyph unicode="*" horiz-adv-x="596" d="M68 896l60 54l-24 100l108 -26l44 70l44 -70l106 26l-22 -100l60 -54l-60 -54l22 -96l-106 22l-44 -70l-44 70l-108 -22l24 96z" />
<glyph unicode="+" horiz-adv-x="1280" d="M86 854v84h426v512h170v-512h428v-84h-428v-512h-170v512h-426z" />
<glyph unicode="," horiz-adv-x="512" d="M86 -142q18 0 35 13t33 58t16 113q0 36 26 61t60 25t60 -25t26 -61q0 -112 -102 -194t-154 -82v92z" />
<glyph unicode="-" d="M86 854v84h1108v-84h-1108z" />
<glyph unicode="." horiz-adv-x="426" d="M86 42q0 36 25 61t59 25q36 0 61 -25t25 -61q0 -34 -25 -59t-61 -25q-34 0 -59 25t-25 59z" />
<glyph unicode="/" horiz-adv-x="1280" d="M86 -256l898 1878h126l-904 -1878h-120z" />
<glyph unicode="0" d="M86 426v726q0 180 146 282t408 102q264 0 409 -103t145 -281v-726q0 -184 -149 -305t-405 -121q-260 0 -407 121t-147 305zM256 342q0 -106 112 -181t272 -75t272 75t112 181v896q0 102 -109 157t-275 55t-275 -55t-109 -157v-896z" />
<glyph unicode="1" horiz-adv-x="596" d="M86 1282v126l170 128h170v-1536h-170v1414z" />
<glyph unicode="2" horiz-adv-x="1450" d="M86 0q956 1032 960 1238q0 212 -320 212q-290 0 -316 -170h-208q38 134 165 195t359 61q490 0 490 -362q0 -214 -832 -1088h896v-86h-1194z" />
<glyph unicode="3" d="M86 426h170v-84q0 -106 112 -181t272 -75q166 0 275 55t109 157v428q0 106 -71 159t-227 53v86q138 0 175 40t37 140v110q0 136 -298 136q-146 0 -237 -43t-105 -127h-170q40 134 161 195t351 61q248 0 359 -84t111 -214q0 -114 -39 -166t-129 -88q252 -84 252 -386v-172 q0 -184 -149 -305t-405 -121q-260 0 -407 121t-147 305z" />
<glyph unicode="4" d="M86 512v86l852 938h172v-938h84v-86h-84v-512h-172v512h-852zM214 598h724v798z" />
<glyph unicode="5" d="M86 426h170v-84q0 -106 112 -181t272 -75t272 75t112 181v384q0 102 -109 157t-275 55t-275 -55t-109 -157h-170v810h1108v-86h-938v-512q168 86 384 86q264 0 409 -103t145 -281v-214q0 -184 -149 -305t-405 -121q-260 0 -407 121t-147 305zM256 426z" />
<glyph unicode="6" d="M86 426v726q0 180 146 282t408 102q452 0 542 -298h-158q0 102 -109 157t-275 55t-275 -55t-109 -157v-300q168 86 384 86q264 0 409 -103t145 -281v-214q0 -184 -149 -305t-405 -121q-260 0 -407 121t-147 305zM256 342q0 -106 112 -181t272 -75t272 75t112 181v384 q0 102 -109 157t-275 55t-275 -55t-109 -157v-384z" />
<glyph unicode="7" d="M86 1450v86h1108l-38 -86l-664 -1450h-196l664 1450h-874z" />
<glyph unicode="8" horiz-adv-x="1536" d="M170 426v172q0 130 65 236t187 150q-92 52 -118 104t-26 150q0 298 448 298t448 -298q0 -100 -26 -153t-120 -101q252 -102 252 -386v-172q0 -184 -149 -305t-405 -121q-260 0 -408 121t-148 305zM342 342q0 -106 112 -181t272 -75q158 0 271 75t113 181v340 q0 106 -113 181t-271 75q-160 0 -272 -75t-112 -181v-340zM448 1216q0 -106 60 -149t218 -43q156 0 216 43t60 149v64q0 170 -276 170q-146 0 -212 -49t-66 -121v-64z" />
<glyph unicode="9" d="M86 938v214q0 180 146 282t408 102q264 0 409 -103t145 -281v-726q0 -184 -149 -305t-405 -121q-224 0 -360 93t-182 249h158q0 -106 112 -181t272 -75t272 75t112 181v256q-168 -86 -384 -86q-260 0 -407 121t-147 305zM256 854q0 -106 112 -181t272 -75t272 75t112 181 v384q0 102 -109 157t-275 55t-275 -55t-109 -157v-384z" />
<glyph unicode=":" horiz-adv-x="426" d="M86 42q0 36 25 61t59 25q36 0 61 -25t25 -61q0 -34 -25 -59t-61 -25q-34 0 -59 25t-25 59zM86 854q0 34 25 59t59 25q36 0 61 -25t25 -59q0 -36 -25 -61t-61 -25q-34 0 -59 25t-25 61z" />
<glyph unicode=";" horiz-adv-x="512" d="M86 -142q18 0 35 13t33 58t16 113q0 36 26 61t60 25t60 -25t26 -61q0 -112 -102 -194t-154 -82v92zM170 854q0 34 26 59t60 25t60 -25t26 -59q0 -36 -26 -61t-60 -25t-60 25t-26 61z" />
<glyph unicode="&#x3c;" horiz-adv-x="852" d="M86 726q244 382 315 468t153 86q36 0 61 -25t25 -61q0 -34 -25 -59t-61 -25q-68 0 -98 -20q-32 -22 -69 -70t-161 -226q-30 -44 -48 -68q152 -222 197 -282t81 -84q30 -18 98 -18q36 0 61 -26t25 -60t-25 -60t-61 -26q-84 0 -154 87t-314 469z" />
<glyph unicode="=" d="M86 682v86h1108v-86h-1108zM86 1024v86h1108v-86h-1108z" />
<glyph unicode="&#x3e;" horiz-adv-x="852" d="M86 256q0 34 25 60t59 26q70 0 98 18q34 22 70 69t158 223q34 48 52 74q-26 36 -57 81t-48 69t-39 55t-33 46t-26 34t-23 29t-19 21t-19 17l-16 12q-28 20 -98 20q-34 0 -59 25t-25 59q0 36 25 61t59 25q84 0 153 -85t317 -469q-248 -386 -317 -471t-153 -85 q-34 0 -59 26t-25 60z" />
<glyph unicode="?" horiz-adv-x="1280" d="M86 1322q44 150 164 225t348 75q126 0 228 -41t161 -104t91 -131t32 -130q0 -58 -3 -90t-20 -85t-51 -92t-101 -86t-163 -91q-72 -32 -100 -80t-32 -126v-140h-170v2v166q4 70 69 130t211 138q92 48 140 148t48 186q0 130 -95 235t-245 105q-164 0 -259 -55t-95 -159 h-158zM470 42q0 36 25 61t59 25q36 0 61 -25t25 -61q0 -34 -25 -59t-61 -25q-34 0 -59 25t-25 59z" />
<glyph unicode="@" horiz-adv-x="2346" d="M86 768q0 180 62 333t184 271t321 184t457 66q510 0 788 -241t278 -613q0 -228 -132 -370t-380 -142q-56 0 -86 7t-37 16t-9 19t-9 17t-29 7q-4 0 -126 -33t-258 -33q-260 0 -408 121t-148 305v214q0 180 147 282t409 102q264 0 409 -103t145 -281v-414q0 -140 32 -140 q170 0 261 118t91 308q0 336 -241 552t-697 216q-232 0 -407 -60t-280 -166t-157 -242t-52 -300t52 -300t157 -242t280 -166t407 -60q230 0 470 82l32 -82q-254 -86 -502 -86q-258 0 -457 66t-321 184t-184 271t-62 333zM726 598q0 -106 112 -181t272 -75q158 0 271 75 t113 181v384q0 100 -109 156t-275 56t-275 -55t-109 -157v-384z" />
<glyph unicode="A" d="M86 0v1152q0 180 146 282t408 102q264 0 409 -103t145 -281v-1152h-170v854h-768v-854h-170zM256 938h768v300q0 102 -109 157t-275 55t-275 -55t-109 -157v-300z" />
<glyph unicode="B" d="M86 0v1536h512q244 0 378 -93t134 -255v-2q0 -214 -176 -286q152 -80 206 -170t54 -260q0 -190 -151 -330t-403 -140h-554zM86 1536zM256 226q0 -34 12 -59t42 -40t57 -24t81 -12t88 -4t104 -1q154 0 269 94t115 204v214q0 106 -113 181t-271 75h-384v-628zM256 1082 q0 -52 27 -82t90 -43t114 -16t153 -3q162 0 230 51t68 185v64q0 212 -384 212q-54 0 -81 -1t-69 -4t-63 -12t-44 -24t-32 -40t-9 -59v-228z" />
<glyph unicode="C" d="M86 426v726q0 180 146 282t408 102q238 0 393 -82t161 -216h-128q0 100 -127 156t-299 56q-166 0 -275 -55t-109 -157v-896q0 -106 112 -181t272 -75q164 0 295 76t131 180h128q-12 -136 -170 -239t-384 -103q-260 0 -407 121t-147 305z" />
<glyph unicode="D" d="M86 0v1536h554q264 0 409 -103t145 -281v-726q0 -184 -149 -305t-405 -121h-554zM256 226q0 -34 12 -59t42 -40t57 -24t81 -12t88 -4t104 -1q160 0 272 75t112 181v896q0 102 -109 157t-275 55q-70 0 -104 -1t-88 -4t-81 -12t-57 -24t-42 -40t-12 -59v-1084z" />
<glyph unicode="E" d="M86 0v1536h1108v-86h-682q-68 0 -101 -3t-76 -15t-61 -42t-18 -80v-372h682v-84h-682v-628q0 -50 18 -80t61 -42t76 -15t101 -3h682v-86h-1108z" />
<glyph unicode="F" d="M86 0v1536h1108v-86h-682q-68 0 -101 -3t-76 -15t-61 -42t-18 -80v-372h682v-84h-682v-854h-170z" />
<glyph unicode="G" d="M86 426v726q0 180 146 282t408 102q452 0 542 -298h-158q0 102 -109 157t-275 55t-275 -55t-109 -157v-896q0 -106 112 -181t272 -75t272 75t112 181v512h-342v84h512v-512q0 -184 -149 -305t-405 -121q-260 0 -407 121t-147 305z" />
<glyph unicode="H" d="M86 0v1536h170v-598h768v598h170v-1536h-170v854h-768v-854h-170z" />
<glyph unicode="I" horiz-adv-x="426" d="M86 0v1536h170v-1536h-170z" />
<glyph unicode="J" horiz-adv-x="596" d="M86 -316q50 -26 138 -26q32 0 32 142v1650h-170v86h340v-1752q0 -210 -170 -210q-120 0 -170 18v92z" />
<glyph unicode="K" d="M86 0v1536h170v-370l874 370l64 -72l-480 -216q480 -48 480 -438v-810h-170v896q0 128 -127 205t-365 77l-276 -110v-1068h-170z" />
<glyph unicode="L" horiz-adv-x="1108" d="M86 0v86v1450h170v-1450h682v-86h-682h-170z" />
<glyph unicode="M" horiz-adv-x="1962" d="M86 0v1110q0 188 116 307t352 119q94 0 161 -21t102 -46t99 -83q14 -14 22 -20q110 98 156 124q86 46 228 46q266 0 368 -112t102 -314v-1110h-170v1194q0 114 -74 185t-226 71q-150 0 -224 -71t-74 -185v-596h-170v596q0 114 -74 185t-226 71q-150 0 -224 -71t-74 -185 v-1194h-170z" />
<glyph unicode="N" d="M86 0v1536h554q264 0 409 -103t145 -281v-1152h-170v1238q0 102 -109 157t-275 55t-275 -55t-109 -157v-1238h-170z" />
<glyph unicode="O" d="M86 426v726q0 180 146 282t408 102q264 0 409 -103t145 -281v-726q0 -184 -149 -305t-405 -121q-260 0 -407 121t-147 305zM256 342q0 -106 112 -181t272 -75t272 75t112 181v896q0 102 -109 157t-275 55t-275 -55t-109 -157v-896z" />
<glyph unicode="P" d="M86 0v1536h554q264 0 409 -103t145 -281v-214q0 -184 -149 -305t-405 -121q-216 0 -384 86v-598h-170zM256 854q0 -106 112 -181t272 -75t272 75t112 181v384q0 102 -109 157t-275 55t-275 -55t-109 -157v-384z" />
<glyph unicode="Q" d="M86 426v726q0 180 146 282t408 102q264 0 409 -103t145 -281v-726q0 -296 -274 -384q-62 -16 -126 -41t-131 -62t-109 -88t-42 -107h512v-86h-682q0 76 9 124t55 109t134 113q-224 24 -339 139t-115 283zM256 342q0 -106 112 -181t272 -75t272 75t112 181v896 q0 102 -109 157t-275 55t-275 -55t-109 -157v-896z" />
<glyph unicode="R" d="M86 0v1536h512q240 0 376 -85t136 -257v-2q0 -202 -176 -292q140 -52 200 -136t60 -210v-554h-170v640q0 102 -109 158t-275 56h-384v-854h-170zM256 1082q0 -52 27 -82t90 -43t114 -16t153 -3q146 0 222 64t76 148v88q0 102 -109 157t-275 55q-68 0 -100 -1t-78 -7 t-67 -19t-37 -38t-16 -63v-240z" />
<glyph unicode="S" d="M94 298h158q0 -100 109 -156t275 -56q164 0 274 86t110 222q0 134 -94 222t-290 150q-486 150 -486 380q0 62 28 127t84 126t154 99t224 38q230 0 353 -74t167 -224h-158q0 102 -99 157t-263 55q-154 0 -237 -76t-83 -200q0 -118 76 -193t240 -125q300 -94 429 -196 t129 -232v-2q0 -184 -150 -305t-408 -121q-450 0 -542 298z" />
<glyph unicode="T" d="M86 1450v86h1108v-86h-468v-1450h-172v1450h-468z" />
<glyph unicode="U" d="M86 426v1110h170v-1194q0 -106 112 -181t272 -75t272 75t112 181v1194h170v-1536q-60 0 -96 33t-74 33q-4 0 -126 -33t-258 -33q-260 0 -407 121t-147 305z" />
<glyph unicode="V" d="M86 768v768h170v-1046q0 -72 50 -165t142 -166t192 -73t192 73t142 166t50 165v1046h170v-768q0 -94 -38 -221t-105 -251t-177 -210t-234 -86q-126 0 -236 86t-176 211t-104 251t-38 220z" />
<glyph unicode="W" horiz-adv-x="2048" d="M86 426v1110h170v-1194q0 -114 74 -185t224 -71q156 0 249 73t93 183v596h170v-596q0 -110 93 -183t249 -73q150 0 224 71t74 185v1194h172v-1110q0 -96 -21 -168t-71 -133t-145 -93t-233 -32q-148 0 -239 41t-187 129q-100 -88 -191 -129t-237 -41q-240 0 -354 118 t-114 308z" />
<glyph unicode="X" d="M86 0v554q0 136 57 220t203 126q-146 48 -203 145t-57 235v256h170v-342q0 -106 113 -181t271 -75t271 75t113 181v342h170v-256q0 -292 -260 -380q146 -40 203 -126t57 -220v-554h-170v640q0 102 -109 158t-275 56t-275 -56t-109 -158v-640h-170z" />
<glyph unicode="Y" d="M86 428v1108h170v-1192q0 -108 112 -183t272 -75t272 75t112 183v1192h170v-1536q0 -204 -145 -315t-409 -111q-192 0 -330 69t-214 187h146q48 -74 161 -123t237 -49q158 0 271 75t113 181v172q-168 -86 -384 -86q-260 0 -407 122t-147 306z" />
<glyph unicode="Z" horiz-adv-x="1450" d="M86 0l52 86l786 1230q30 56 30 88q0 46 -58 46h-726v86h1098l-56 -86l-870 -1364h938v-86h-1194zM138 86zM1212 1450z" />
<glyph unicode="[" horiz-adv-x="512" d="M86 -426v2048h340v-86h-170v-1878h170v-84h-340z" />
<glyph unicode="\" horiz-adv-x="1280" d="M86 1620l126 2l898 -1878h-122z" />
<glyph unicode="]" horiz-adv-x="512" d="M86 -342h170v1878h-170v86h340v-2048h-340v84z" />
<glyph unicode="^" horiz-adv-x="1280" d="M170 1280q0 50 91 114t293 180q56 32 86 48q318 -184 380 -228q90 -68 90 -114q0 -60 -38 -94t-90 -34q-50 0 -89 34t-39 94q0 48 -10 82t-45 68t-52 45t-83 51q-14 10 -22 14q-130 -78 -162 -112q-54 -56 -54 -148q0 -60 -39 -94t-89 -34q-52 0 -90 34t-38 94z" />
<glyph unicode="_" horiz-adv-x="1536" d="M86 -342h1364v-84h-1364v84z" />
<glyph unicode="`" horiz-adv-x="512" d="M170 1450q0 36 26 61t60 25t60 -25t26 -61q0 -68 16 -113t33 -58t35 -13q0 -92 -28 -92q-50 0 -139 82t-89 194z" />
<glyph unicode="a" d="M86 406q0 128 136 166q94 26 418 26h384v128q0 102 -109 157t-275 55q-232 0 -330 -96l-94 94q170 88 422 88q266 0 411 -103t145 -281v-640q-58 0 -95 33t-75 33q-4 0 -126 -33t-258 -33q-256 0 -405 121t-149 285zM256 342q0 -106 112 -181t272 -75t272 75t112 181v170 h-384q-86 0 -150 -7t-120 -25t-85 -53t-29 -85z" />
<glyph unicode="b" d="M86 426v1110h170v-598q168 86 384 86q264 0 409 -103t145 -281v-214q0 -184 -149 -305t-405 -121q-260 0 -407 121t-147 305zM256 342q0 -106 112 -181t272 -75t272 75t112 181v384q0 102 -109 157t-275 55t-275 -55t-109 -157v-384z" />
<glyph unicode="c" d="M86 426v214q0 180 146 282t408 102q468 0 554 -298h-170q0 102 -109 157t-275 55t-275 -55t-109 -157v-384q0 -106 112 -181t272 -75t272 75t112 181h170q-48 -154 -189 -248t-365 -94q-260 0 -407 121t-147 305z" />
<glyph unicode="d" d="M86 426v214q0 180 146 282t408 102q216 0 384 -86v598h170v-1536q-54 0 -88 33t-82 33q-66 0 -163 -33t-221 -33q-260 0 -407 121t-147 305zM256 342q0 -106 112 -181t272 -75t272 75t112 181v384q0 102 -109 157t-275 55t-275 -55t-109 -157v-384z" />
<glyph unicode="e" d="M86 426v214q0 180 146 282t408 102q260 0 407 -121t147 -305v-86h-938v-170q0 -106 112 -181t272 -75q126 0 248 49t170 121h116q-168 -256 -534 -256q-260 0 -407 121t-147 305zM256 598h768v128q0 102 -109 157t-275 55t-275 -55t-109 -157v-128z" />
<glyph unicode="f" horiz-adv-x="852" d="M86 938v86h84v128q0 182 153 283t445 101v-86q-172 0 -299 -56t-127 -156v-214h340v-86h-340v-1364h-172v1364h-84z" />
<glyph unicode="g" d="M86 426v214q0 180 146 282t408 102q264 0 409 -103t145 -281v-640q0 -184 -149 -305t-405 -121q-192 0 -330 69t-214 187h146q48 -74 161 -123t237 -49q158 0 271 75t113 181v172q-168 -86 -384 -86q-260 0 -407 121t-147 305zM256 342q0 -106 112 -181t272 -75t272 75 t112 181v384q0 102 -109 157t-275 55t-275 -55t-109 -157v-384z" />
<glyph unicode="h" d="M86 0v1536h170v-580q164 68 384 68q264 0 409 -103t145 -281v-640h-170v726q0 102 -109 157t-275 55t-275 -55t-109 -157v-726h-170z" />
<glyph unicode="i" horiz-adv-x="596" d="M86 212v812h170v-798q0 -140 32 -140q76 0 224 88v-90q-136 -84 -256 -84q-170 0 -170 212zM86 1450q0 36 25 61t59 25q36 0 61 -25t25 -61q0 -34 -25 -59t-61 -25q-34 0 -59 25t-25 59z" />
<glyph unicode="j" horiz-adv-x="512" d="M42 -316q50 -26 96 -26q32 0 32 142v1224h172v-1240q0 -210 -172 -210q-78 0 -128 18v92zM170 1450q0 36 26 61t60 25t60 -25t26 -61q0 -34 -26 -59t-60 -25t-60 25t-26 59z" />
<glyph unicode="k" d="M86 0v1536h170v-882l874 370l64 -72l-446 -190q206 -30 326 -123t120 -233v-406h-170v448q0 100 -146 172t-312 72l-310 -136v-556h-170z" />
<glyph unicode="l" horiz-adv-x="596" d="M86 212v1324h170v-1310q0 -140 32 -140q76 0 224 88v-90q-136 -84 -256 -84q-170 0 -170 212z" />
<glyph unicode="m" horiz-adv-x="1962" d="M86 0v1024h170v-68q70 30 97 39t80 19t121 10q102 0 173 -20t104 -42t107 -80q78 60 110 81t103 41t171 20q140 0 235 -26t145 -79t70 -119t20 -160v-640h-170v726q0 106 -72 159t-228 53t-227 -53t-71 -159v-726h-170v726q0 106 -72 159t-228 53t-227 -53t-71 -159v-726 h-170z" />
<glyph unicode="n" d="M86 0v1024h170v-68q164 68 384 68q264 0 409 -103t145 -281v-640h-170v726q0 102 -109 157t-275 55t-275 -55t-109 -157v-726h-170z" />
<glyph unicode="o" d="M86 426v214q0 180 146 282t408 102q264 0 409 -103t145 -281v-214q0 -184 -149 -305t-405 -121q-260 0 -407 121t-147 305zM256 342q0 -106 112 -181t272 -75t272 75t112 181v384q0 102 -109 157t-275 55t-275 -55t-109 -157v-384z" />
<glyph unicode="p" d="M86 -426v1450h170v-68q164 68 384 68q264 0 409 -103t145 -281v-214q0 -184 -149 -305t-405 -121q-216 0 -384 86v-512h-170zM256 342q0 -106 112 -181t272 -75t272 75t112 181v384q0 102 -109 157t-275 55t-275 -55t-109 -157v-384z" />
<glyph unicode="q" d="M86 426v214q0 178 145 281t409 103q220 0 384 -68v68h170v-1450h-170v512q-168 -86 -384 -86q-256 0 -405 121t-149 305zM256 342q0 -106 112 -181t272 -75t272 75t112 181v384q0 102 -109 157t-275 55t-275 -55t-109 -157v-384z" />
<glyph unicode="r" horiz-adv-x="768" d="M86 0v1024h170v-68q164 68 342 68v-86q-162 0 -252 -54t-90 -158v-726h-170z" />
<glyph unicode="s" d="M94 298h162q0 -102 107 -157t273 -55q118 0 198 15t135 65t55 134q0 212 -384 212q-218 0 -354 63t-136 171q0 124 130 201t382 77q236 0 345 -44t175 -170h-200q-42 80 -109 104t-211 24q-168 0 -255 -44t-87 -148q0 -54 53 -89t121 -47t146 -12q286 0 420 -92t134 -206 v-2q0 -170 -137 -234t-421 -64q-450 0 -542 298z" />
<glyph unicode="t" horiz-adv-x="682" d="M86 938v86h84v512h172v-512h256v-86h-256v-712q0 -140 32 -140q76 0 224 88v-90q-136 -84 -256 -84q-172 0 -172 212v726h-84z" />
<glyph unicode="u" d="M86 426v598h170v-682q0 -106 112 -181t272 -75t272 75t112 181v682h170v-1024q-58 0 -95 33t-75 33q-4 0 -126 -33t-258 -33q-260 0 -407 121t-147 305z" />
<glyph unicode="v" d="M86 726v298h170v-512q0 -122 119 -274t265 -152t265 152t119 274v512h170v-298q0 -94 -38 -215t-105 -237t-177 -195t-234 -79q-126 0 -236 79t-176 196t-104 237t-38 214z" />
<glyph unicode="w" horiz-adv-x="1962" d="M86 426v598h170v-682q0 -114 74 -185t224 -71q152 0 226 71t74 185v426h170v-426q0 -114 74 -185t224 -71q152 0 226 71t74 185v682h170v-598q0 -96 -21 -168t-71 -133t-145 -93t-233 -32q-94 0 -161 21t-102 46t-99 83q-14 14 -22 20q-110 -98 -156 -124 q-86 -46 -228 -46q-240 0 -354 118t-114 308z" />
<glyph unicode="x" d="M86 0v214q0 134 57 219t203 125q-146 50 -203 146t-57 234v86h170v-234q0 -192 384 -192t384 192v234h170v-86q0 -290 -260 -380q146 -40 203 -125t57 -219v-214h-170v342q0 50 -29 85t-85 53t-120 25t-150 7t-150 -7t-120 -25t-85 -53t-29 -85v-342h-170z" />
<glyph unicode="y" d="M86 428v596h170v-680q0 -108 112 -183t272 -75t272 75t112 183v680h170v-1024q0 -184 -149 -305t-405 -121q-192 0 -330 69t-214 187h146q48 -74 161 -123t237 -49q158 0 271 75t113 181v172q-168 -86 -384 -86q-260 0 -407 122t-147 306z" />
<glyph unicode="z" d="M86 0l672 798q50 60 50 96q0 44 -84 44h-596v86h1046l-794 -938h814v-86h-1108z" />
<glyph unicode="{" horiz-adv-x="768" d="M86 544zM86 544v22q58 30 114 110t56 166v396q0 196 89 290t337 94v-86q-150 0 -203 -50t-53 -164v-340q0 -94 -48 -216t-122 -190v-42q74 -68 122 -190t48 -216v-342q0 -112 53 -162t203 -50v-86q-248 0 -337 94t-89 290v394q0 86 -56 167t-114 111zM86 566zM256 266z M256 842z" />
<glyph unicode="|" horiz-adv-x="340" d="M86 -426v2048l84 -2v-2046h-84z" />
<glyph unicode="}" horiz-adv-x="768" d="M86 -426q150 0 203 50t53 162v342q0 94 48 216t122 190v42q-74 68 -122 190t-48 216v340q0 114 -53 164t-203 50v86q248 0 337 -94t89 -290v-396q0 -86 56 -166t114 -110v-22q-58 -30 -114 -111t-56 -167v-394q0 -196 -89 -290t-337 -94v86zM512 266zM512 842zM682 544z M682 566z" />
<glyph unicode="~" d="M170 854q0 56 18 120t69 121t123 57q86 0 151 -35t103 -86t69 -101t69 -85t86 -35q80 0 80 214h172q0 -56 -18 -120t-69 -121t-123 -57q-96 0 -170 53t-112 117t-89 117t-107 53q-80 0 -80 -212h-172z" />
<glyph horiz-adv-x="1108" />
<glyph horiz-adv-x="1108" />
<glyph horiz-adv-x="1108" />
<glyph horiz-adv-x="1108" />
<glyph horiz-adv-x="1108" />
<glyph horiz-adv-x="1108" />
<glyph unicode="&#x85;" horiz-adv-x="1108" />
<glyph horiz-adv-x="1108" />
<glyph horiz-adv-x="1108" />
<glyph horiz-adv-x="1108" />
<glyph horiz-adv-x="1108" />
<glyph horiz-adv-x="1108" />
<glyph horiz-adv-x="1108" />
<glyph horiz-adv-x="1108" />
<glyph horiz-adv-x="1108" />
<glyph horiz-adv-x="1108" />
<glyph horiz-adv-x="1108" />
<glyph horiz-adv-x="1108" />
<glyph horiz-adv-x="1108" />
<glyph horiz-adv-x="1108" />
<glyph horiz-adv-x="1108" />
<glyph horiz-adv-x="1108" />
<glyph horiz-adv-x="1108" />
<glyph horiz-adv-x="1108" />
<glyph horiz-adv-x="1108" />
<glyph horiz-adv-x="1108" />
<glyph horiz-adv-x="1108" />
<glyph horiz-adv-x="1108" />
<glyph horiz-adv-x="1108" />
<glyph horiz-adv-x="1108" />
<glyph unicode="&#xa1;" horiz-adv-x="426" d="M86 -42v1194h170v-1194h-170zM86 1536q0 34 25 60t59 26q36 0 61 -26t25 -60t-25 -60t-61 -26q-34 0 -59 26t-25 60z" />
<glyph unicode="&#xa2;" d="M86 598v212q0 174 132 275t380 109v256h84v-256q448 -16 534 -298h-150q0 94 -112 149t-272 65v-852q152 10 268 84t116 170h150q-46 -146 -184 -239t-350 -103v-256h-84v256q-244 12 -378 131t-134 297zM256 512q0 -98 99 -172t243 -84v854q-152 -10 -247 -65t-95 -149 v-384z" />
<glyph unicode="&#xa3;" horiz-adv-x="1024" d="M42 0v86h128v768h-128v84h128v214q0 384 556 384v-86q-166 0 -275 -55t-109 -157v-300h298v-84h-298v-768h512v-86h-512q-86 0 -86 86q0 -86 -86 -86h-128z" />
<glyph unicode="&#xa4;" horiz-adv-x="980" d="M86 596l184 182q-36 56 -36 118t36 118l-184 182l62 62l182 -184q56 36 118 36t118 -36l182 184l62 -62l-184 -182q36 -56 36 -118t-36 -118l184 -182l-62 -62l-182 184q-56 -36 -118 -36t-118 36l-182 -184zM320 896q0 -52 38 -90t90 -38t90 38t38 90t-38 90t-90 38 t-90 -38t-38 -90z" />
<glyph unicode="&#xa5;" d="M86 1194v342h170v-426q0 -122 119 -275t265 -153t265 153t119 275v426h170v-342q0 -108 -54 -226t-165 -220t-249 -136v-100h256v-86h-256v-426h-172v426h-256v86h256v100q-206 50 -337 231t-131 351z" />
<glyph unicode="&#xa6;" horiz-adv-x="426" d="M86 256h170v-682h-170v682zM86 938v684h170v-684h-170z" />
<glyph unicode="&#xa7;" horiz-adv-x="1450" d="M94 -128h200q0 -104 91 -159t251 -55q166 0 264 63t98 195q0 130 -89 202t-295 136q-250 78 -368 166t-118 198q0 108 106 217t302 163q-168 62 -235 136t-67 168q0 134 113 227t357 93q228 0 352 -75t168 -225h-200q0 214 -320 214q-156 0 -227 -57t-71 -177 q0 -112 70 -167t246 -109q300 -94 429 -196t129 -230v-2q0 -142 -98 -220t-312 -124q324 -128 324 -358v-2q0 -124 -153 -222t-405 -98q-450 0 -542 298zM298 618q0 -112 70 -166t246 -108l76 -24q168 4 292 77t124 203q0 128 -90 201t-294 135l-20 6q-160 -6 -282 -106 t-122 -218z" />
<glyph unicode="&#xa8;" horiz-adv-x="1536" d="M298 1450q0 36 26 61t60 25t60 -25t26 -61q0 -34 -26 -59t-60 -25t-60 25t-26 59zM982 1450q0 36 25 61t59 25q36 0 61 -25t25 -61q0 -34 -25 -59t-61 -25q-34 0 -59 25t-25 59z" />
<glyph unicode="&#xa9;" horiz-adv-x="1962" d="M86 768q0 352 250 603t602 251t603 -251t251 -603t-251 -603t-603 -251t-602 251t-250 603zM170 768q0 -312 228 -540t540 -228t540 228t228 540t-228 540t-540 228t-540 -228t-228 -540zM470 682v214q0 188 108 286t360 98q226 0 340 -73t160 -225h-158q0 104 -90 158 t-252 54q-156 0 -227 -53t-71 -159v-384q0 -114 74 -185t224 -71q156 0 249 73t93 183h158q-50 -162 -166 -252t-334 -90q-468 0 -468 426z" />
<glyph unicode="&#xaa;" horiz-adv-x="1040" d="M86 1250q0 42 23 68t81 37t116 14t168 3h268v56q0 60 -77 95t-191 35q-168 0 -230 -52l-66 62q124 54 294 54q188 0 293 -62t105 -170v-384q-40 0 -71 21t-57 21q-2 0 -87 -21t-181 -21q-180 0 -284 72t-104 172zM214 1212q0 -64 75 -109t185 -45t189 45t79 109v96h-268 q-64 0 -105 -3t-79 -12t-57 -29t-19 -52z" />
<glyph unicode="&#xab;" horiz-adv-x="1450" d="M86 726q244 382 315 468t153 86q36 0 61 -25t25 -61q0 -34 -25 -59t-61 -25q-68 0 -98 -20q-32 -22 -69 -70t-161 -226q-30 -44 -48 -68q152 -222 197 -282t81 -84q30 -18 98 -18q36 0 61 -26t25 -60t-25 -60t-61 -26q-84 0 -154 87t-314 469zM684 726q244 382 315 468 t153 86q36 0 61 -25t25 -61q0 -34 -25 -59t-61 -25q-68 0 -98 -20q-32 -22 -69 -70t-161 -226q-30 -44 -48 -68q152 -222 197 -282t81 -84q30 -18 98 -18q36 0 61 -26t25 -60t-25 -60t-61 -26q-84 0 -154 87t-314 469z" />
<glyph unicode="&#xad;" horiz-adv-x="1108" />
<glyph unicode="&#xae;" horiz-adv-x="1962" d="M86 768q0 352 250 603t602 251t603 -251t251 -603t-251 -603t-603 -251t-602 251t-250 603zM170 768q0 -312 228 -540t540 -228t540 228t228 540t-228 540t-540 228t-540 -228t-228 -540zM534 278v1044h384q222 0 303 -71t81 -227v-2q0 -88 -63 -145t-155 -83 q302 -60 302 -346v-170h-128v234q0 96 -134 165t-250 69h-212v-468h-128zM662 940q0 -76 39 -92t173 -16q98 0 199 50t101 118v24q0 214 -300 214q-212 0 -212 -172v-126z" />
<glyph unicode="&#xaf;" horiz-adv-x="1536" d="M170 1536v86h1110v-86h-1110z" />
<glyph unicode="&#xb0;" horiz-adv-x="596" d="M86 1322q0 88 62 151t150 63t151 -63t63 -151t-63 -150t-151 -62q-86 0 -149 63t-63 149zM170 1322q0 -52 38 -90t90 -38q54 0 91 38t37 90q0 54 -37 91t-91 37q-52 0 -90 -37t-38 -91z" />
<glyph unicode="&#xb1;" horiz-adv-x="1280" d="M86 0v86h1024v-86h-1024zM86 854v84h426v512h170v-512h428v-84h-428v-512h-170v512h-426z" />
<glyph unicode="&#xb2;" horiz-adv-x="996" d="M74 700q670 614 672 742q0 128 -224 128q-198 0 -222 -102h-142q50 154 364 154q344 0 344 -218q0 -128 -582 -654h626v-50h-836z" />
<glyph unicode="&#xb3;" horiz-adv-x="946" d="M86 956h118v-52q0 -64 80 -109t190 -45q116 0 192 34t76 94v256q0 128 -208 128v52q96 0 122 24t26 82v70q0 80 -208 80q-218 0 -240 -102h-118q28 80 113 117t245 37q174 0 251 -51t77 -129q0 -68 -27 -100t-91 -52q178 -50 178 -232v-102q0 -112 -104 -184t-284 -72 q-182 0 -285 73t-103 183z" />
<glyph unicode="&#xb4;" horiz-adv-x="512" d="M128 1266q18 0 35 13t34 58t17 113q0 36 25 61t59 25q36 0 61 -25t25 -61q0 -112 -89 -194t-139 -82q-28 0 -28 92z" />
<glyph unicode="&#xb5;" d="M86 -342v1366h170v-682q0 -106 112 -181t272 -75t272 75t112 181v682h170v-776q0 -162 32 -162q48 0 96 28v-92q-54 -22 -128 -22q-56 0 -86 7t-37 16t-8 19t-9 17t-30 7q-4 0 -126 -33t-258 -33q-216 0 -384 86v-428h-170z" />
<glyph unicode="&#xb6;" horiz-adv-x="1194" d="M86 1302q0 86 83 160t173 74h682v-1962h-170v1876h-342v-1876h-170v1492q-90 0 -173 74t-83 162z" />
<glyph unicode="&#xb7;" horiz-adv-x="512" d="M128 854q0 34 25 59t61 25q34 0 59 -25t25 -59q0 -36 -25 -61t-59 -25q-36 0 -61 25t-25 61z" />
<glyph unicode="&#xb8;" horiz-adv-x="1620" d="M1110 0v90q24 0 89 -44t105 -106q40 -66 51 -99t11 -95q0 -48 -35 -68t-73 -20q-22 0 -43 6t-42 27t-21 55q0 32 32 76t32 70q0 48 -42 78t-64 30z" />
<glyph unicode="&#xb9;" horiz-adv-x="374" d="M42 1470v74l120 78h128v-922h-128v848z" />
<glyph unicode="&#xba;" horiz-adv-x="1032" d="M86 1262v128q0 108 102 170t286 62q186 0 287 -62t101 -170v-128q0 -110 -104 -183t-284 -73q-182 0 -285 73t-103 183zM214 1224q0 -64 75 -109t185 -45q108 0 184 45t76 109v206q0 60 -73 94t-187 34q-116 0 -188 -33t-72 -95v-206z" />
<glyph unicode="&#xbb;" horiz-adv-x="1450" d="M86 256q0 34 25 60t59 26q70 0 98 18q34 22 70 69t158 223q34 48 52 74q-26 36 -57 81t-48 69t-39 55t-33 46t-26 34t-23 29t-19 21t-19 17l-16 12q-28 20 -98 20q-34 0 -59 25t-25 59q0 36 25 61t59 25q84 0 153 -85t317 -469q-248 -386 -317 -471t-153 -85 q-34 0 -59 26t-25 60zM684 256q0 34 25 60t59 26q70 0 98 18q34 22 70 69t158 223q34 48 52 74q-26 36 -57 81t-48 69t-39 55t-33 46t-26 34t-23 29t-19 21t-19 17l-16 12q-28 20 -98 20q-34 0 -59 25t-25 59q0 36 25 61t59 25q84 0 153 -85t317 -469q-248 -386 -317 -471 t-153 -85q-34 0 -59 26t-25 60z" />
<glyph unicode="&#xbc;" horiz-adv-x="1764" d="M92 1470v74l120 78h128v-922h-128v848zM184 264l1358 1298l72 -88l-1362 -1288zM768 136v52l598 562h128v-562h60v-52h-60v-306h-128v306h-598zM858 188h508v478z" />
<glyph unicode="&#xbd;" horiz-adv-x="1956" d="M92 1470v74l120 78h128v-922h-128v848zM184 264l1358 1298l72 -88l-1362 -1288zM970 -172q670 614 672 742q0 128 -224 128q-198 0 -222 -102h-142q48 152 364 152q344 0 344 -216q0 -128 -582 -654h626v-50h-836z" />
<glyph unicode="&#xbe;" horiz-adv-x="2104" d="M86 956h118v-52q0 -64 80 -109t190 -45q116 0 192 34t76 94v256q0 128 -208 128v52q96 0 122 24t26 82v70q0 80 -208 80q-218 0 -240 -102h-118q28 80 113 117t245 37q174 0 251 -51t77 -129q0 -68 -27 -100t-91 -52q178 -50 178 -232v-102q0 -112 -104 -184t-284 -72 q-182 0 -285 73t-103 183zM524 264l1360 1298l72 -88l-1362 -1288zM1110 136v52l596 562h128v-562h60v-52h-60v-306h-128v306h-596zM1198 188h508v478z" />
<glyph unicode="&#xbf;" horiz-adv-x="1280" d="M86 362q0 58 3 90t20 86t51 92t100 86t162 90q72 32 100 81t32 127v138h172v-2v-164q-6 -70 -71 -131t-211 -139q-92 -48 -140 -148t-48 -186q0 -130 96 -235t246 -105q162 0 258 56t96 158h158q-46 -150 -165 -224t-347 -74q-126 0 -228 41t-161 103t-91 130t-32 130z M554 1536q0 34 26 60t60 26t60 -26t26 -60t-26 -60t-60 -26t-60 26t-26 60z" />
<glyph unicode="&#xc0;" d="M86 0v1152q0 180 146 282t408 102q264 0 409 -103t145 -281v-1152h-170v854h-768v-854h-170zM256 938h768v300q0 102 -109 157t-275 55t-275 -55t-109 -157v-300zM426 2004q0 36 26 61t60 25t60 -25t26 -61q0 -68 16 -113t33 -58t35 -13q0 -92 -28 -92q-50 0 -139 82 t-89 194z" />
<glyph unicode="&#xc1;" d="M86 0v1152q0 180 146 282t408 102q264 0 409 -103t145 -281v-1152h-170v854h-768v-854h-170zM256 938h768v300q0 102 -109 157t-275 55t-275 -55t-109 -157v-300zM598 1820q18 0 35 13t34 58t17 113q0 36 25 61t59 25q36 0 61 -25t25 -61q0 -112 -89 -194t-139 -82 q-28 0 -28 92z" />
<glyph unicode="&#xc2;" d="M86 0v1152q0 180 146 282t408 102q264 0 409 -103t145 -281v-1152h-170v854h-768v-854h-170zM166 1708q0 20 2 35t12 31t19 28t33 31t45 33t62 40t78 49t101 62t122 75q54 -34 113 -71t94 -58t75 -46t60 -39t44 -31t34 -29t21 -25t15 -26t6 -27t2 -32q0 -36 -25 -61 t-59 -25q-36 0 -61 25t-25 61q0 74 -14 98q-6 8 -11 14l-10 12t-14 13t-16 12l-21 15t-25 16t-33 20t-39 25t-51 31t-60 36q-38 -22 -82 -49t-64 -39t-45 -28t-34 -23t-22 -18t-19 -18t-14 -19q-14 -24 -14 -98q0 -36 -26 -61t-60 -25q-36 0 -65 25t-29 61zM256 938h768v300 q0 102 -109 157t-275 55t-275 -55t-109 -157v-300z" />
<glyph unicode="&#xc3;" d="M86 0v1152q0 180 146 282t408 102q264 0 409 -103t145 -281v-1152h-170v854h-768v-854h-170zM170 1750q0 56 18 120t69 121t123 57q86 0 151 -35t102 -86t68 -101t69 -85t86 -35q82 0 82 214h170q0 -56 -18 -120t-68 -121t-122 -57q-80 0 -142 35t-102 85t-74 100t-74 85 t-86 35q-82 0 -82 -212h-170zM256 938h768v300q0 102 -109 157t-275 55t-275 -55t-109 -157v-300z" />
<glyph unicode="&#xc4;" d="M86 0v1152q0 180 146 282t408 102q264 0 409 -103t145 -281v-1152h-170v854h-768v-854h-170zM212 1792q0 36 26 61t60 25t60 -25t26 -61q0 -34 -26 -59t-60 -25t-60 25t-26 59zM256 938h768v300q0 102 -109 157t-275 55t-275 -55t-109 -157v-300zM896 1792q0 36 25 61 t59 25q36 0 61 -25t25 -61q0 -34 -25 -59t-61 -25q-34 0 -59 25t-25 59z" />
<glyph unicode="&#xc5;" d="M86 0v1152q0 180 146 282t408 102q264 0 409 -103t145 -281v-1152h-170v854h-768v-854h-170zM256 938h768v300q0 102 -109 157t-275 55t-275 -55t-109 -157v-300zM428 1798q0 88 62 151t150 63t151 -63t63 -151t-63 -150t-151 -62q-86 0 -149 63t-63 149zM512 1798 q0 -52 38 -90t90 -38q54 0 91 38t37 90q0 54 -37 91t-91 37q-52 0 -90 -37t-38 -91z" />
<glyph unicode="&#xc6;" horiz-adv-x="2304" d="M86 0v1152q0 180 146 282t408 102q176 0 384 -90v90h1110v-86h-684q-68 0 -101 -3t-76 -15t-61 -42t-18 -80v-372h684v-84h-684v-628q0 -50 18 -80t61 -42t76 -15t101 -3h684v-86h-1110v854h-768v-854h-170zM256 938h768v300q0 102 -109 157t-275 55t-275 -55t-109 -157 v-300z" />
<glyph unicode="&#xc7;" d="M86 426v726q0 180 146 282t408 102q238 0 393 -82t161 -216h-128q0 100 -127 156t-299 56q-166 0 -275 -55t-109 -157v-896q0 -106 112 -181t272 -75q164 0 295 76t131 180h128q-10 -114 -127 -208t-295 -124q42 -32 64 -70q40 -64 50 -97t10 -97q0 -48 -34 -68t-72 -20 q-22 0 -44 6t-43 27t-21 55q0 32 32 76t32 70q0 48 -41 78t-65 30q-260 0 -407 121t-147 305z" />
<glyph unicode="&#xc8;" d="M86 0v1536h1108v-86h-682q-68 0 -101 -3t-76 -15t-61 -42t-18 -80v-372h682v-84h-682v-628q0 -50 18 -80t61 -42t76 -15t101 -3h682v-86h-1108zM426 2004q0 36 26 61t60 25t60 -25t26 -61q0 -68 16 -113t33 -58t35 -13q0 -92 -28 -92q-50 0 -139 82t-89 194z" />
<glyph unicode="&#xc9;" d="M86 0v1536h1108v-86h-682q-68 0 -101 -3t-76 -15t-61 -42t-18 -80v-372h682v-84h-682v-628q0 -50 18 -80t61 -42t76 -15t101 -3h682v-86h-1108zM598 1820q18 0 35 13t34 58t17 113q0 36 25 61t59 25q36 0 61 -25t25 -61q0 -112 -89 -194t-139 -82q-28 0 -28 92z" />
<glyph unicode="&#xca;" d="M86 0v1536h1108v-86h-682q-68 0 -101 -3t-76 -15t-61 -42t-18 -80v-372h682v-84h-682v-628q0 -50 18 -80t61 -42t76 -15t101 -3h682v-86h-1108zM170 1708q0 20 2 35t12 31t19 28t33 31t45 33t62 40t78 49t101 62t122 75q54 -34 113 -71t94 -58t75 -46t60 -39t44 -31 t34 -29t21 -25t15 -26t6 -27t2 -32q0 -36 -25 -61t-59 -25q-36 0 -61 25t-25 61q0 74 -14 98q-6 8 -11 14l-10 12t-14 13t-16 12l-21 15t-25 16t-33 20t-39 25t-51 31t-60 36q-38 -22 -82 -49t-64 -39t-45 -28t-34 -23t-22 -18t-19 -18t-14 -19q-14 -24 -14 -98 q0 -36 -26 -61t-60 -25q-36 0 -65 25t-29 61z" />
<glyph unicode="&#xcb;" d="M86 0v1536h1108v-86h-682q-68 0 -101 -3t-76 -15t-61 -42t-18 -80v-372h682v-84h-682v-628q0 -50 18 -80t61 -42t76 -15t101 -3h682v-86h-1108zM170 1792q0 36 26 61t60 25t60 -25t26 -61q0 -34 -26 -59t-60 -25t-60 25t-26 59zM854 1792q0 36 25 61t59 25q36 0 61 -25 t25 -61q0 -34 -25 -59t-61 -25q-34 0 -59 25t-25 59z" />
<glyph unicode="&#xcc;" horiz-adv-x="426" d="M0 2004q0 36 26 61t60 25t60 -25t26 -61q0 -68 16 -113t33 -58t35 -13q0 -92 -28 -92q-50 0 -139 82t-89 194zM86 0v1536h170v-1536h-170z" />
<glyph unicode="&#xcd;" horiz-adv-x="426" d="M86 0v1536h170v-1536h-170zM170 1820q18 0 35 13t34 58t17 113q0 36 25 61t59 25q36 0 61 -25t25 -61q0 -112 -89 -194t-139 -82q-28 0 -28 92z" />
<glyph unicode="&#xce;" horiz-adv-x="426" d="M-128 1692q0 74 41 119t257 201q150 -110 206 -158t71 -75t15 -77q0 -32 -13 -52t-25 -24t-22 -4q-26 0 -44 21t-18 49q0 76 -30 120t-140 122q-110 -78 -139 -122t-29 -120q0 -28 -18 -49t-44 -21t-47 21t-21 49zM86 0v1536h170v-1536h-170z" />
<glyph unicode="&#xcf;" horiz-adv-x="426" d="M-86 1792q0 36 25 61t61 25q34 0 59 -25t25 -61q0 -34 -25 -59t-59 -25q-36 0 -61 25t-25 59zM86 0v1536h170v-1536h-170zM256 1792q0 36 25 61t61 25q34 0 59 -25t25 -61q0 -34 -25 -59t-59 -25q-36 0 -61 25t-25 59z" />
<glyph unicode="&#xd0;" d="M0 854v84h86v598h554q264 0 409 -103t145 -281v-726q0 -184 -149 -305t-405 -121h-554v854h-86zM256 226q0 -34 12 -59t42 -40t57 -24t81 -12t88 -4t104 -1q160 0 272 75t112 181v896q0 102 -109 157t-275 55q-70 0 -104 -1t-88 -4t-81 -12t-57 -24t-42 -40t-12 -59v-372 h342v-84h-342v-628z" />
<glyph unicode="&#xd1;" d="M86 0v1536h554q264 0 409 -103t145 -281v-1152h-170v1238q0 102 -109 157t-275 55t-275 -55t-109 -157v-1238h-170zM170 1750q0 56 18 120t69 121t123 57q86 0 151 -35t102 -86t68 -101t69 -85t86 -35q82 0 82 214h170q0 -56 -18 -120t-68 -121t-122 -57q-80 0 -142 35 t-102 85t-74 100t-74 85t-86 35q-82 0 -82 -212h-170z" />
<glyph unicode="&#xd2;" d="M86 426v726q0 180 146 282t408 102q264 0 409 -103t145 -281v-726q0 -184 -149 -305t-405 -121q-260 0 -407 121t-147 305zM256 342q0 -106 112 -181t272 -75t272 75t112 181v896q0 102 -109 157t-275 55t-275 -55t-109 -157v-896zM426 2004q0 36 26 61t60 25t60 -25 t26 -61q0 -68 16 -113t33 -58t35 -13q0 -92 -28 -92q-50 0 -139 82t-89 194z" />
<glyph unicode="&#xd3;" d="M86 426v726q0 180 146 282t408 102q264 0 409 -103t145 -281v-726q0 -184 -149 -305t-405 -121q-260 0 -407 121t-147 305zM256 342q0 -106 112 -181t272 -75t272 75t112 181v896q0 102 -109 157t-275 55t-275 -55t-109 -157v-896zM598 1820q18 0 35 13t34 58t17 113 q0 36 25 61t59 25q36 0 61 -25t25 -61q0 -112 -89 -194t-139 -82q-28 0 -28 92z" />
<glyph unicode="&#xd4;" d="M86 426v726q0 180 146 282t408 102q264 0 409 -103t145 -281v-726q0 -184 -149 -305t-405 -121q-260 0 -407 121t-147 305zM166 1708q0 20 2 35t12 31t19 28t33 31t45 33t62 40t78 49t101 62t122 75q54 -34 113 -71t94 -58t75 -46t60 -39t44 -31t34 -29t21 -25t15 -26 t6 -27t2 -32q0 -36 -25 -61t-59 -25q-36 0 -61 25t-25 61q0 74 -14 98q-6 8 -11 14l-10 12t-14 13t-16 12l-21 15t-25 16t-33 20t-39 25t-51 31t-60 36q-38 -22 -82 -49t-64 -39t-45 -28t-34 -23t-22 -18t-19 -18t-14 -19q-14 -24 -14 -98q0 -36 -26 -61t-60 -25 q-36 0 -65 25t-29 61zM256 342q0 -106 112 -181t272 -75t272 75t112 181v896q0 102 -109 157t-275 55t-275 -55t-109 -157v-896z" />
<glyph unicode="&#xd5;" d="M86 426v726q0 180 146 282t408 102q264 0 409 -103t145 -281v-726q0 -184 -149 -305t-405 -121q-260 0 -407 121t-147 305zM192 1750q0 56 18 120t69 121t123 57q86 0 151 -35t102 -86t68 -101t69 -85t86 -35q82 0 82 214h170q0 -56 -18 -120t-68 -121t-122 -57 q-80 0 -142 35t-102 85t-74 100t-74 85t-86 35q-82 0 -82 -212h-170zM256 342q0 -106 112 -181t272 -75t272 75t112 181v896q0 102 -109 157t-275 55t-275 -55t-109 -157v-896z" />
<glyph unicode="&#xd6;" d="M86 426v726q0 180 146 282t408 102q264 0 409 -103t145 -281v-726q0 -184 -149 -305t-405 -121q-260 0 -407 121t-147 305zM212 1792q0 36 26 61t60 25t60 -25t26 -61q0 -34 -26 -59t-60 -25t-60 25t-26 59zM256 342q0 -106 112 -181t272 -75t272 75t112 181v896 q0 102 -109 157t-275 55t-275 -55t-109 -157v-896zM896 1792q0 36 25 61t59 25q36 0 61 -25t25 -61q0 -34 -25 -59t-61 -25q-34 0 -59 25t-25 59z" />
<glyph unicode="&#xd7;" horiz-adv-x="980" d="M86 596l302 300l-302 300l62 62l300 -300l300 300l62 -62l-300 -300l300 -300l-62 -62l-300 302l-300 -302z" />
<glyph unicode="&#xd8;" d="M86 426v726q0 180 146 282t408 102q148 0 284 -38l70 124h116l-88 -156q100 -68 136 -137t36 -177v-726q0 -184 -149 -305t-405 -121q-218 0 -386 86l-48 -86h-110l74 134q-84 70 -84 292zM256 342q0 -22 6 -44l616 1114q-96 38 -238 38q-166 0 -275 -55t-109 -157v-896z M320 200q114 -114 320 -114q160 0 272 75t112 181v896q0 74 -60 124z" />
<glyph unicode="&#xd9;" d="M86 426v1110h170v-1194q0 -106 112 -181t272 -75t272 75t112 181v1194h170v-1536q-60 0 -96 33t-74 33q-4 0 -126 -33t-258 -33q-260 0 -407 121t-147 305zM468 2004q0 36 26 61t60 25t60 -25t26 -61q0 -68 16 -113t33 -58t35 -13q0 -92 -28 -92q-50 0 -139 82t-89 194z " />
<glyph unicode="&#xda;" d="M86 426v1110h170v-1194q0 -106 112 -181t272 -75t272 75t112 181v1194h170v-1536q-60 0 -96 33t-74 33q-4 0 -126 -33t-258 -33q-260 0 -407 121t-147 305zM598 1820q18 0 35 13t34 58t17 113q0 36 25 61t59 25q36 0 61 -25t25 -61q0 -112 -89 -194t-139 -82 q-28 0 -28 92z" />
<glyph unicode="&#xdb;" d="M86 426v1110h170v-1194q0 -106 112 -181t272 -75t272 75t112 181v1194h170v-1536q-60 0 -96 33t-74 33q-4 0 -126 -33t-258 -33q-260 0 -407 121t-147 305zM166 1708q0 20 2 35t12 31t19 28t33 31t45 33t62 40t78 49t101 62t122 75q54 -34 113 -71t94 -58t75 -46t60 -39 t44 -31t34 -29t21 -25t15 -26t6 -27t2 -32q0 -36 -25 -61t-59 -25q-36 0 -61 25t-25 61q0 74 -14 98q-6 8 -11 14l-10 12t-14 13t-16 12l-21 15t-25 16t-33 20t-39 25t-51 31t-60 36q-38 -22 -82 -49t-64 -39t-45 -28t-34 -23t-22 -18t-19 -18t-14 -19q-14 -24 -14 -98 q0 -36 -26 -61t-60 -25q-36 0 -65 25t-29 61z" />
<glyph unicode="&#xdc;" d="M86 426v1110h170v-1194q0 -106 112 -181t272 -75t272 75t112 181v1194h170v-1536q-60 0 -96 33t-74 33q-4 0 -126 -33t-258 -33q-260 0 -407 121t-147 305zM212 1792q0 36 26 61t60 25t60 -25t26 -61q0 -34 -26 -59t-60 -25t-60 25t-26 59zM896 1792q0 36 25 61t59 25 q36 0 61 -25t25 -61q0 -34 -25 -59t-61 -25q-34 0 -59 25t-25 59z" />
<glyph unicode="&#xdd;" d="M86 428v1108h170v-1192q0 -108 112 -183t272 -75t272 75t112 183v1192h170v-1536q0 -204 -145 -315t-409 -111q-192 0 -330 69t-214 187h146q48 -74 161 -123t237 -49q158 0 271 75t113 181v172q-168 -86 -384 -86q-260 0 -407 122t-147 306zM598 1820q18 0 35 13t34 58 t17 113q0 36 25 61t59 25q36 0 61 -25t25 -61q0 -112 -89 -194t-139 -82q-28 0 -28 92z" />
<glyph unicode="&#xde;" d="M86 0v1792h170v-256h384q264 0 409 -103t145 -281v-214q0 -184 -149 -305t-405 -121q-216 0 -384 86v-598h-170zM256 854q0 -106 112 -181t272 -75t272 75t112 181v384q0 102 -109 157t-275 55t-275 -55t-109 -157v-384z" />
<glyph unicode="&#xdf;" d="M86 0v1110q0 188 116 307t352 119q76 0 151 -17t150 -56t122 -116t47 -181v-2q0 -122 -35 -190t-119 -116q150 -42 237 -151t87 -237q0 -190 -151 -330t-403 -140h-214v86h214q156 0 270 84t114 190v214q0 102 -109 159t-275 57v84q214 14 214 244v98q0 108 -78 171 t-222 63q-120 0 -209 -75t-89 -181v-1194h-170z" />
<glyph unicode="&#xe0;" d="M86 406q0 128 136 166q94 26 418 26h384v128q0 102 -109 157t-275 55q-232 0 -330 -96l-94 94q170 88 422 88q266 0 411 -103t145 -281v-640q-58 0 -95 33t-75 33q-4 0 -126 -33t-258 -33q-256 0 -405 121t-149 285zM256 342q0 -106 112 -181t272 -75t272 75t112 181v170 h-384q-86 0 -150 -7t-120 -25t-85 -53t-29 -85zM468 1536q0 36 26 61t60 25t60 -25t26 -61q0 -68 16 -113t33 -58t35 -13q0 -92 -28 -92q-50 0 -139 82t-89 194z" />
<glyph unicode="&#xe1;" d="M86 406q0 128 136 166q94 26 418 26h384v128q0 102 -109 157t-275 55q-232 0 -330 -96l-94 94q170 88 422 88q266 0 411 -103t145 -281v-640q-58 0 -95 33t-75 33q-4 0 -126 -33t-258 -33q-256 0 -405 121t-149 285zM256 342q0 -106 112 -181t272 -75t272 75t112 181v170 h-384q-86 0 -150 -7t-120 -25t-85 -53t-29 -85zM598 1352q18 0 35 13t34 58t17 113q0 36 25 61t59 25q36 0 61 -25t25 -61q0 -112 -89 -194t-139 -82q-28 0 -28 92z" />
<glyph unicode="&#xe2;" d="M86 406q0 128 136 166q94 26 418 26h384v128q0 102 -109 157t-275 55q-232 0 -330 -96l-94 94q170 88 422 88q266 0 411 -103t145 -281v-640q-58 0 -95 33t-75 33q-4 0 -126 -33t-258 -33q-256 0 -405 121t-149 285zM210 1238q0 20 2 35t12 31t19 28t33 31t45 33t62 40 t78 49t101 62t122 75q54 -34 113 -71t94 -58t75 -46t60 -39t44 -31t34 -29t21 -25t15 -26t6 -27t2 -32q0 -36 -25 -61t-59 -25q-36 0 -61 25t-25 61q0 74 -14 98q-6 8 -11 14l-10 12t-14 13t-16 12l-21 15t-25 16t-33 20t-39 25t-51 31t-60 36q-38 -22 -82 -49t-64 -39 t-45 -28t-34 -23t-22 -18t-19 -18t-14 -19q-14 -24 -14 -98q0 -36 -26 -61t-60 -25q-36 0 -65 25t-29 61zM256 342q0 -106 112 -181t272 -75t272 75t112 181v170h-384q-86 0 -150 -7t-120 -25t-85 -53t-29 -85z" />
<glyph unicode="&#xe3;" d="M86 406q0 128 136 166q94 26 418 26h384v128q0 102 -109 157t-275 55q-232 0 -330 -96l-94 94q170 88 422 88q266 0 411 -103t145 -281v-640q-58 0 -95 33t-75 33q-4 0 -126 -33t-258 -33q-256 0 -405 121t-149 285zM214 1324q0 56 18 120t69 121t123 57q86 0 151 -35 t102 -86t68 -101t69 -85t86 -35q82 0 82 214h170q0 -56 -18 -120t-68 -121t-122 -57q-80 0 -142 35t-102 85t-74 100t-74 85t-86 35q-82 0 -82 -212h-170zM256 342q0 -106 112 -181t272 -75t272 75t112 181v170h-384q-86 0 -150 -7t-120 -25t-85 -53t-29 -85z" />
<glyph unicode="&#xe4;" d="M86 406q0 128 136 166q94 26 418 26h384v128q0 102 -109 157t-275 55q-232 0 -330 -96l-94 94q170 88 422 88q266 0 411 -103t145 -281v-640q-58 0 -95 33t-75 33q-4 0 -126 -33t-258 -33q-256 0 -405 121t-149 285zM212 1450q0 36 26 61t60 25t60 -25t26 -61 q0 -34 -26 -59t-60 -25t-60 25t-26 59zM256 342q0 -106 112 -181t272 -75t272 75t112 181v170h-384q-86 0 -150 -7t-120 -25t-85 -53t-29 -85zM896 1450q0 36 25 61t59 25q36 0 61 -25t25 -61q0 -34 -25 -59t-61 -25q-34 0 -59 25t-25 59z" />
<glyph unicode="&#xe5;" d="M86 406q0 128 136 166q94 26 418 26h384v128q0 102 -109 157t-275 55q-232 0 -330 -96l-94 94q170 88 422 88q266 0 411 -103t145 -281v-640q-58 0 -95 33t-75 33q-4 0 -126 -33t-258 -33q-256 0 -405 121t-149 285zM256 342q0 -106 112 -181t272 -75t272 75t112 181v170 h-384q-86 0 -150 -7t-120 -25t-85 -53t-29 -85zM418 1322q0 88 62 151t150 63t151 -63t63 -151t-63 -150t-151 -62q-86 0 -149 63t-63 149zM502 1322q0 -52 38 -90t90 -38q54 0 91 38t37 90q0 54 -37 91t-91 37q-52 0 -90 -37t-38 -91z" />
<glyph unicode="&#xe6;" horiz-adv-x="2304" d="M86 406q0 128 136 166q94 26 418 26h384v128q0 102 -109 157t-275 55q-232 0 -330 -96l-94 94q170 88 424 88q278 0 470 -156q178 156 468 156q260 0 408 -121t148 -305v-86h-940v-170q0 -106 113 -181t271 -75q164 0 270 56t114 156h172q-44 -136 -187 -217t-369 -81 q-212 0 -384 86v-86q-34 0 -81 33t-89 33q-4 0 -126 -33t-258 -33q-256 0 -405 121t-149 285zM256 342q0 -106 112 -181t272 -75t272 75t112 181v170h-384q-86 0 -150 -7t-120 -25t-85 -53t-29 -85zM1194 598h768v128q0 102 -109 157t-275 55t-275 -56t-109 -156v-128z" />
<glyph unicode="&#xe7;" d="M86 426v214q0 180 146 282t408 102q468 0 554 -298h-170q0 102 -109 157t-275 55t-275 -55t-109 -157v-384q0 -106 112 -181t272 -75t272 75t112 181h170q-38 -130 -146 -219t-276 -113q38 -28 62 -70q40 -64 51 -98t11 -96q0 -48 -34 -68t-72 -20q-22 0 -44 6t-43 27 t-21 55q0 32 32 76t32 70q0 48 -41 78t-65 30q-260 0 -407 121t-147 305z" />
<glyph unicode="&#xe8;" d="M86 426v214q0 180 146 282t408 102q260 0 407 -121t147 -305v-86h-938v-170q0 -106 112 -181t272 -75q126 0 248 49t170 121h116q-168 -256 -534 -256q-260 0 -407 121t-147 305zM256 598h768v128q0 102 -109 157t-275 55t-275 -55t-109 -157v-128zM468 1536q0 36 26 61 t60 25t60 -25t26 -61q0 -68 16 -113t33 -58t35 -13q0 -92 -28 -92q-50 0 -139 82t-89 194z" />
<glyph unicode="&#xe9;" d="M86 426v214q0 180 146 282t408 102q260 0 407 -121t147 -305v-86h-938v-170q0 -106 112 -181t272 -75q126 0 248 49t170 121h116q-168 -256 -534 -256q-260 0 -407 121t-147 305zM256 598h768v128q0 102 -109 157t-275 55t-275 -55t-109 -157v-128zM642 1352q18 0 35 13 t34 58t17 113q0 36 25 61t59 25q36 0 61 -25t25 -61q0 -112 -89 -194t-139 -82q-28 0 -28 92z" />
<glyph unicode="&#xea;" d="M86 426v214q0 180 146 282t408 102q260 0 407 -121t147 -305v-86h-938v-170q0 -106 112 -181t272 -75q126 0 248 49t170 121h116q-168 -256 -534 -256q-260 0 -407 121t-147 305zM166 1238q0 20 2 35t12 31t19 28t33 31t45 33t62 40t78 49t101 62t122 75q54 -34 113 -71 t94 -58t75 -46t60 -39t44 -31t34 -29t21 -25t15 -26t6 -27t2 -32q0 -36 -25 -61t-59 -25q-36 0 -61 25t-25 61q0 74 -14 98q-6 8 -11 14l-10 12t-14 13t-16 12l-21 15t-25 16t-33 20t-39 25t-51 31t-60 36q-38 -22 -82 -49t-64 -39t-45 -28t-34 -23t-22 -18t-19 -18t-14 -19 q-14 -24 -14 -98q0 -36 -26 -61t-60 -25q-36 0 -65 25t-29 61zM256 598h768v128q0 102 -109 157t-275 55t-275 -55t-109 -157v-128z" />
<glyph unicode="&#xeb;" d="M86 426v214q0 180 146 282t408 102q260 0 407 -121t147 -305v-86h-938v-170q0 -106 112 -181t272 -75q126 0 248 49t170 121h116q-168 -256 -534 -256q-260 0 -407 121t-147 305zM212 1448q0 36 26 61t60 25t60 -25t26 -61q0 -34 -26 -59t-60 -25t-60 25t-26 59zM256 598 h768v128q0 102 -109 157t-275 55t-275 -55t-109 -157v-128zM896 1448q0 36 25 61t59 25q36 0 61 -25t25 -61q0 -34 -25 -59t-61 -25q-34 0 -59 25t-25 59z" />
<glyph unicode="&#xec;" horiz-adv-x="596" d="M0 1534q0 36 26 61t60 25t60 -25t26 -61q0 -68 16 -113t33 -58t35 -13q0 -92 -28 -92q-50 0 -139 82t-89 194zM86 212v812h170v-798q0 -140 32 -140q76 0 224 88v-90q-136 -84 -256 -84q-170 0 -170 212z" />
<glyph unicode="&#xed;" horiz-adv-x="596" d="M86 212v812h170v-798q0 -140 32 -140q76 0 224 88v-90q-136 -84 -256 -84q-170 0 -170 212zM128 1352q18 0 35 13t34 58t17 113q0 36 25 61t59 25q36 0 61 -25t25 -61q0 -112 -89 -194t-139 -82q-28 0 -28 92z" />
<glyph unicode="&#xee;" horiz-adv-x="596" d="M-44 1232q0 20 1.5 35t9 31t14.5 28t25.5 31t35 33t48 40t60 49t78 62t94.5 75q42 -34 87.5 -71t72.5 -58t58 -46t46.5 -39t34 -31t26 -29t16 -25t12 -26t5 -27t1.5 -32q0 -36 -19.5 -61t-45.5 -25q-28 0 -47.5 25t-19.5 61q0 74 -11 98q-4 8 -8 14l-8 12t-11 13l-12 12 t-16 15t-19.5 16t-25.5 20t-30 25t-39.5 31t-46.5 36q-29 -22 -63 -49t-49.5 -39t-35 -28t-26.5 -23t-17 -18t-14.5 -18t-10.5 -19q-11 -24 -11 -98q0 -36 -20 -61t-47 -25t-49.5 25t-22.5 61zM86 212v812h170v-798q0 -140 32 -140q76 0 224 88v-90q-136 -84 -256 -84 q-170 0 -170 212z" />
<glyph unicode="&#xef;" horiz-adv-x="596" d="M0 1450q0 36 25 61t61 25q34 0 59 -25t25 -61q0 -34 -25 -59t-59 -25q-36 0 -61 25t-25 59zM86 212v812h170v-798q0 -140 32 -140q76 0 224 88v-90q-136 -84 -256 -84q-170 0 -170 212zM426 1450q0 36 26 61t60 25t60 -25t26 -61q0 -34 -26 -59t-60 -25t-60 25t-26 59z " />
<glyph unicode="&#xf0;" d="M86 426v214q0 180 146 282t408 102q96 0 152 -15t140 -51q14 -6 22 -10l-400 400l-130 -132l-62 62l132 130l-132 130l62 62l130 -130l130 130l62 -62l-130 -130l474 -476q38 -40 71 -117t33 -175v-214q0 -184 -149 -305t-405 -121q-260 0 -407 121t-147 305zM256 342 q0 -106 112 -181t272 -75t272 75t112 181v384q0 102 -109 157t-275 55t-275 -55t-109 -157v-384z" />
<glyph unicode="&#xf1;" d="M86 0v1024h170v-68q164 68 384 68q264 0 409 -103t145 -281v-640h-170v726q0 102 -109 157t-275 55t-275 -55t-109 -157v-726h-170zM170 1324q0 56 18 120t69 121t123 57q86 0 151 -35t102 -86t68 -101t69 -85t86 -35q82 0 82 214h170q0 -56 -18 -120t-68 -121t-122 -57 q-80 0 -142 35t-102 85t-74 100t-74 85t-86 35q-82 0 -82 -212h-170z" />
<glyph unicode="&#xf2;" d="M86 426v214q0 180 146 282t408 102q264 0 409 -103t145 -281v-214q0 -184 -149 -305t-405 -121q-260 0 -407 121t-147 305zM256 342q0 -106 112 -181t272 -75t272 75t112 181v384q0 102 -109 157t-275 55t-275 -55t-109 -157v-384zM512 1528q0 36 26 61t60 25t60 -25 t26 -61q0 -68 16 -113t33 -58t35 -13q0 -92 -28 -92q-50 0 -139 82t-89 194z" />
<glyph unicode="&#xf3;" d="M86 426v214q0 180 146 282t408 102q264 0 409 -103t145 -281v-214q0 -184 -149 -305t-405 -121q-260 0 -407 121t-147 305zM256 342q0 -106 112 -181t272 -75t272 75t112 181v384q0 102 -109 157t-275 55t-275 -55t-109 -157v-384zM554 1352q18 0 35 13t34 58t17 113 q0 36 25 61t59 25q36 0 61 -25t25 -61q0 -112 -89 -194t-139 -82q-28 0 -28 92z" />
<glyph unicode="&#xf4;" d="M86 426v214q0 180 146 282t408 102q264 0 409 -103t145 -281v-214q0 -184 -149 -305t-405 -121q-260 0 -407 121t-147 305zM166 1232q0 20 2 35t12 31t19 28t33 31t45 33t62 40t78 49t101 62t122 75q54 -34 113 -71t94 -58t75 -46t60 -39t44 -31t34 -29t21 -25t15 -26 t6 -27t2 -32q0 -36 -25 -61t-59 -25q-36 0 -61 25t-25 61q0 74 -14 98q-6 8 -11 14l-10 12t-14 13t-16 12l-21 15t-25 16t-33 20t-39 25t-51 31t-60 36q-38 -22 -82 -49t-64 -39t-45 -28t-34 -23t-22 -18t-19 -18t-14 -19q-14 -24 -14 -98q0 -36 -26 -61t-60 -25 q-36 0 -65 25t-29 61zM256 342q0 -106 112 -181t272 -75t272 75t112 181v384q0 102 -109 157t-275 55t-275 -55t-109 -157v-384z" />
<glyph unicode="&#xf5;" d="M86 426v214q0 180 146 282t408 102q264 0 409 -103t145 -281v-214q0 -184 -149 -305t-405 -121q-260 0 -407 121t-147 305zM170 1324q0 56 18 120t69 121t123 57q86 0 151 -35t102 -86t68 -101t69 -85t86 -35q82 0 82 214h170q0 -56 -18 -120t-68 -121t-122 -57 q-80 0 -142 35t-102 85t-74 100t-74 85t-86 35q-82 0 -82 -212h-170zM256 342q0 -106 112 -181t272 -75t272 75t112 181v384q0 102 -109 157t-275 55t-275 -55t-109 -157v-384z" />
<glyph unicode="&#xf6;" d="M86 426v214q0 180 146 282t408 102q264 0 409 -103t145 -281v-214q0 -184 -149 -305t-405 -121q-260 0 -407 121t-147 305zM212 1450q0 36 26 61t60 25t60 -25t26 -61q0 -34 -26 -59t-60 -25t-60 25t-26 59zM256 342q0 -106 112 -181t272 -75t272 75t112 181v384 q0 102 -109 157t-275 55t-275 -55t-109 -157v-384zM896 1450q0 36 25 61t59 25q36 0 61 -25t25 -61q0 -34 -25 -59t-61 -25q-34 0 -59 25t-25 59z" />
<glyph unicode="&#xf7;" d="M86 854v84h1108v-84h-1108zM512 470q0 52 38 90t90 38t90 -38t38 -90q0 -54 -38 -91t-90 -37t-90 37t-38 91zM512 1408q0 52 38 90t90 38t90 -38t38 -90t-38 -90t-90 -38t-90 38t-38 90z" />
<glyph unicode="&#xf8;" horiz-adv-x="1536" d="M170 426v214q0 180 147 282t409 102q116 0 210 -20l58 106h116l-72 -128q124 -64 183 -144t59 -198v-214q0 -184 -149 -305t-405 -121q-114 0 -214 24l-60 -110h-110l74 140q-246 128 -246 372zM342 342q0 -116 128 -190l422 770q-84 16 -166 16q-166 0 -275 -55 t-109 -157v-384zM558 110q78 -24 168 -24q158 0 271 75t113 181v384q0 104 -122 164z" />
<glyph unicode="&#xf9;" d="M86 426v598h170v-682q0 -106 112 -181t272 -75t272 75t112 181v682h170v-1024q-58 0 -95 33t-75 33q-4 0 -126 -33t-258 -33q-260 0 -407 121t-147 305zM468 1536q0 36 26 61t60 25t60 -25t26 -61q0 -68 16 -113t33 -58t35 -13q0 -92 -28 -92q-50 0 -139 82t-89 194z" />
<glyph unicode="&#xfa;" d="M86 426v598h170v-682q0 -106 112 -181t272 -75t272 75t112 181v682h170v-1024q-58 0 -95 33t-75 33q-4 0 -126 -33t-258 -33q-260 0 -407 121t-147 305zM554 1352q18 0 35 13t34 58t17 113q0 36 25 61t59 25q36 0 61 -25t25 -61q0 -112 -89 -194t-139 -82q-28 0 -28 92z " />
<glyph unicode="&#xfb;" d="M86 426v598h170v-682q0 -106 112 -181t272 -75t272 75t112 181v682h170v-1024q-58 0 -95 33t-75 33q-4 0 -126 -33t-258 -33q-260 0 -407 121t-147 305zM166 1238q0 20 2 35t12 31t19 28t33 31t45 33t62 40t78 49t101 62t122 75q54 -34 113 -71t94 -58t75 -46t60 -39 t44 -31t34 -29t21 -25t15 -26t6 -27t2 -32q0 -36 -25 -61t-59 -25q-36 0 -61 25t-25 61q0 74 -14 98q-6 8 -11 14l-10 12t-14 13t-16 12l-21 15t-25 16t-33 20t-39 25t-51 31t-60 36q-38 -22 -82 -49t-64 -39t-45 -28t-34 -23t-22 -18t-19 -18t-14 -19q-14 -24 -14 -98 q0 -36 -26 -61t-60 -25q-36 0 -65 25t-29 61z" />
<glyph unicode="&#xfc;" d="M86 426v598h170v-682q0 -106 112 -181t272 -75t272 75t112 181v682h170v-1024q-58 0 -95 33t-75 33q-4 0 -126 -33t-258 -33q-260 0 -407 121t-147 305zM212 1450q0 36 26 61t60 25t60 -25t26 -61q0 -34 -26 -59t-60 -25t-60 25t-26 59zM896 1450q0 36 25 61t59 25 q36 0 61 -25t25 -61q0 -34 -25 -59t-61 -25q-34 0 -59 25t-25 59z" />
<glyph unicode="&#xfd;" d="M86 428v596h170v-680q0 -108 112 -183t272 -75t272 75t112 183v680h170v-1024q0 -184 -149 -305t-405 -121q-192 0 -330 69t-214 187h146q48 -74 161 -123t237 -49q158 0 271 75t113 181v172q-168 -86 -384 -86q-260 0 -407 122t-147 306zM554 1352q18 0 35 13t34 58 t17 113q0 36 25 61t59 25q36 0 61 -25t25 -61q0 -112 -89 -194t-139 -82q-28 0 -28 92z" />
<glyph unicode="&#xfe;" d="M86 -426v1962h170v-580q164 68 384 68q264 0 409 -103t145 -281v-214q0 -184 -149 -305t-405 -121q-216 0 -384 86v-512h-170zM256 342q0 -106 112 -181t272 -75t272 75t112 181v384q0 102 -109 157t-275 55t-275 -55t-109 -157v-384z" />
<glyph unicode="&#xff;" d="M86 428v596h170v-680q0 -108 112 -183t272 -75t272 75t112 183v680h170v-1024q0 -184 -149 -305t-405 -121q-192 0 -330 69t-214 187h146q48 -74 161 -123t237 -49q158 0 271 75t113 181v172q-168 -86 -384 -86q-260 0 -407 122t-147 306zM212 1450q0 36 26 61t60 25 t60 -25t26 -61q0 -34 -26 -59t-60 -25t-60 25t-26 59zM896 1450q0 36 25 61t59 25q36 0 61 -25t25 -61q0 -34 -25 -59t-61 -25q-34 0 -59 25t-25 59z" />
<glyph unicode="&#x100;" d="M84 1706v86h1110v-86h-1110zM86 0v1152q0 180 146 282t408 102q264 0 409 -103t145 -281v-1152h-170v854h-768v-854h-170zM256 938h768v300q0 102 -109 157t-275 55t-275 -55t-109 -157v-300z" />
<glyph unicode="&#x101;" d="M86 406q0 128 136 166q94 26 418 26h384v128q0 102 -109 157t-275 55q-232 0 -330 -96l-94 94q170 88 422 88q266 0 411 -103t145 -281v-640q-58 0 -95 33t-75 33q-4 0 -126 -33t-258 -33q-256 0 -405 121t-149 285zM221 1366v86h973v-86h-973zM256 342q0 -106 112 -181 t272 -75t272 75t112 181v170h-384q-86 0 -150 -7t-120 -25t-85 -53t-29 -85z" />
<glyph unicode="&#x102;" d="M86 0v1152q0 180 146 282t408 102q264 0 409 -103t145 -281v-1152h-170v854h-768v-854h-170zM170 2004q0 36 29 61t65 25q34 0 60 -25t26 -61q0 -12 -4 -48t-4 -50q0 -58 91 -136t211 -78q118 0 209 79t91 135q0 14 -3 50t-3 48q0 36 25 61t61 25q34 0 59 -25t25 -61 q0 -106 -139 -245t-325 -139q-100 0 -192 43t-152 105t-95 126t-35 110zM256 938h768v300q0 102 -109 157t-275 55t-275 -55t-109 -157v-300z" />
<glyph unicode="&#x103;" d="M86 406q0 128 136 166q94 26 418 26h384v128q0 102 -109 157t-275 55q-232 0 -330 -96l-94 94q170 88 422 88q266 0 411 -103t145 -281v-640q-58 0 -95 33t-75 33q-4 0 -126 -33t-258 -33q-256 0 -405 121t-149 285zM214 1536q0 36 29 61t65 25q34 0 60 -25t26 -61 q0 -12 -4 -48t-4 -50q0 -58 91 -136t211 -78q118 0 209 79t91 135q0 14 -3 50t-3 48q0 36 25 61t61 25q34 0 59 -25t25 -61q0 -106 -139 -245t-325 -139q-100 0 -192 43t-152 105t-95 126t-35 110zM256 342q0 -106 112 -181t272 -75t272 75t112 181v170h-384q-86 0 -150 -7 t-120 -25t-85 -53t-29 -85z" />
<glyph unicode="&#x104;" d="M86 0v1152q0 180 146 282t408 102q264 0 409 -103t145 -281v-1152h-170q-24 0 -65 -30t-41 -78q0 -26 32 -70t32 -76q0 -48 -35 -68t-73 -20q-22 0 -44 6t-42 27t-20 55q0 62 11 96t51 98q40 62 105 104t89 42v768h-768v-854h-170zM256 938h768v300q0 102 -109 157 t-275 55t-275 -55t-109 -157v-300z" />
<glyph unicode="&#x105;" d="M86 406q0 128 136 166q94 26 418 26h384v128q0 102 -109 157t-275 55q-232 0 -330 -96l-94 94q170 88 422 88q266 0 411 -103t145 -281v-640h-42q-24 0 -65 -30t-41 -78q0 -26 32 -70t32 -76q0 -48 -35 -68t-73 -20q-22 0 -44 6t-42 27t-20 55q0 104 62 194 q50 72 116 114q-24 12 -50 12q-4 0 -126 -33t-258 -33q-256 0 -405 121t-149 285zM256 342q0 -106 112 -181t272 -75t272 75t112 181v170h-384q-86 0 -150 -7t-120 -25t-85 -53t-29 -85z" />
<glyph unicode="&#x106;" d="M86 426v726q0 180 146 282t408 102q238 0 393 -82t161 -216h-128q0 100 -127 156t-299 56q-166 0 -275 -55t-109 -157v-896q0 -106 112 -181t272 -75q164 0 295 76t131 180h128q-12 -136 -170 -239t-384 -103q-260 0 -407 121t-147 305zM568 1864q18 0 35 13t34 58 t17 113q0 36 25 61t59 25q36 0 61 -25t25 -61q0 -112 -89 -194t-139 -82q-28 0 -28 92z" />
<glyph unicode="&#x107;" d="M86 426v214q0 180 146 282t408 102q468 0 554 -298h-170q0 102 -109 157t-275 55t-275 -55t-109 -157v-384q0 -106 112 -181t272 -75t272 75t112 181h170q-48 -154 -189 -248t-365 -94q-260 0 -407 121t-147 305zM598 1352q18 0 35 13t34 58t17 113q0 36 25 61t59 25 q36 0 61 -25t25 -61q0 -112 -89 -194t-139 -82q-28 0 -28 92z" />
<glyph unicode="&#x108;" d="M86 426v726q0 180 146 282t408 102q238 0 393 -82t161 -216h-128q0 100 -127 156t-299 56q-166 0 -275 -55t-109 -157v-896q0 -106 112 -181t272 -75q164 0 295 76t131 180h128q-12 -136 -170 -239t-384 -103q-260 0 -407 121t-147 305zM166 1708q0 20 2 35t12 31t19 28 t33 31t45 33t62 40t78 49t101 62t122 75q54 -34 113 -71t94 -58t75 -46t60 -39t44 -31t34 -29t21 -25t15 -26t6 -27t2 -32q0 -36 -25 -61t-59 -25q-36 0 -61 25t-25 61q0 74 -14 98q-6 8 -11 14l-10 12t-14 13t-16 12l-21 15t-25 16t-33 20t-39 25t-51 31t-60 36 q-38 -22 -82 -49t-64 -39t-45 -28t-34 -23t-22 -18t-19 -18t-14 -19q-14 -24 -14 -98q0 -36 -26 -61t-60 -25q-36 0 -65 25t-29 61z" />
<glyph unicode="&#x109;" d="M86 426v214q0 180 146 282t408 102q468 0 554 -298h-170q0 102 -109 157t-275 55t-275 -55t-109 -157v-384q0 -106 112 -181t272 -75t272 75t112 181h170q-48 -154 -189 -248t-365 -94q-260 0 -407 121t-147 305zM158 1232q0 20 2 35t12 31t19 28t33 31t45 33t62 40 t78 49t101 62t122 75q54 -34 113 -71t94 -58t75 -46t60 -39t44 -31t34 -29t21 -25t15 -26t6 -27t2 -32q0 -36 -25 -61t-59 -25q-36 0 -61 25t-25 61q0 74 -14 98q-6 8 -11 14l-10 12t-14 13t-16 12l-21 15t-25 16t-33 20t-39 25t-51 31t-60 36q-38 -22 -82 -49t-64 -39 t-45 -28t-34 -23t-22 -18t-19 -18t-14 -19q-14 -24 -14 -98q0 -36 -26 -61t-60 -25q-36 0 -65 25t-29 61z" />
<glyph unicode="&#x10a;" d="M86 426v726q0 180 146 282t408 102q238 0 393 -82t161 -216h-128q0 100 -127 156t-299 56q-166 0 -275 -55t-109 -157v-896q0 -106 112 -181t272 -75q164 0 295 76t131 180h128q-12 -136 -170 -239t-384 -103q-260 0 -407 121t-147 305zM554 1828q0 36 25 61t61 25 q34 0 59 -25t25 -61q0 -34 -25 -59t-59 -25q-36 0 -61 25t-25 59z" />
<glyph unicode="&#x10b;" d="M86 426v214q0 180 146 282t408 102q468 0 554 -298h-170q0 102 -109 157t-275 55t-275 -55t-109 -157v-384q0 -106 112 -181t272 -75t272 75t112 181h170q-48 -154 -189 -248t-365 -94q-260 0 -407 121t-147 305zM554 1450q0 36 25 61t61 25q34 0 59 -25t25 -61 q0 -34 -25 -59t-59 -25q-36 0 -61 25t-25 59z" />
<glyph unicode="&#x10c;" d="M86 426v726q0 180 146 282t408 102q238 0 393 -82t161 -216h-128q0 100 -127 156t-299 56q-166 0 -275 -55t-109 -157v-896q0 -106 112 -181t272 -75q164 0 295 76t131 180h128q-12 -136 -170 -239t-384 -103q-260 0 -407 121t-147 305zM166 2004q0 36 29 61t65 25 q34 0 60 -25t26 -61q0 -74 14 -98q8 -12 14 -19t19 -18t22 -18t34 -23t45 -28t64 -39t82 -49q26 16 60 36t51 31t39 25t33 20t25 16l21 15t16 12t14 13l10 12t11 14q14 24 14 98q0 36 25 61t61 25q34 0 59 -25t25 -61q0 -18 -2 -32t-6 -27t-15 -26t-21 -25t-34 -29t-44 -31 t-60 -39t-75 -46t-94 -58t-113 -71q-58 36 -122 75t-101 62t-78 49t-62 40t-45 33t-33 31t-19 28t-12 31t-2 35z" />
<glyph unicode="&#x10d;" d="M86 426v214q0 180 146 282t408 102q468 0 554 -298h-170q0 102 -109 157t-275 55t-275 -55t-109 -157v-384q0 -106 112 -181t272 -75t272 75t112 181h170q-48 -154 -189 -248t-365 -94q-260 0 -407 121t-147 305zM158 1536q0 36 29 61t65 25q34 0 60 -25t26 -61 q0 -74 14 -98q8 -12 14 -19t19 -18t22 -18t34 -23t45 -28t64 -39t82 -49q26 16 60 36t51 31t39 25t33 20t25 16l21 15t16 12t14 13l10 12t11 14q14 24 14 98q0 36 25 61t61 25q34 0 59 -25t25 -61q0 -18 -2 -32t-6 -27t-15 -26t-21 -25t-34 -29t-44 -31t-60 -39t-75 -46 t-94 -58t-113 -71q-58 36 -122 75t-101 62t-78 49t-62 40t-45 33t-33 31t-19 28t-12 31t-2 35z" />
<glyph unicode="&#x10e;" d="M86 0v1536h554q264 0 409 -103t145 -281v-726q0 -184 -149 -305t-405 -121h-554zM166 2004q0 36 29 61t65 25q34 0 60 -25t26 -61q0 -74 14 -98q8 -12 14 -19t19 -18t22 -18t34 -23t45 -28t64 -39t82 -49q26 16 60 36t51 31t39 25t33 20t25 16l21 15t16 12t14 13l10 12 t11 14q14 24 14 98q0 36 25 61t61 25q34 0 59 -25t25 -61q0 -18 -2 -32t-6 -27t-15 -26t-21 -25t-34 -29t-44 -31t-60 -39t-75 -46t-94 -58t-113 -71q-58 36 -122 75t-101 62t-78 49t-62 40t-45 33t-33 31t-19 28t-12 31t-2 35zM256 226q0 -34 12 -59t42 -40t57 -24t81 -12 t88 -4t104 -1q160 0 272 75t112 181v896q0 102 -109 157t-275 55q-70 0 -104 -1t-88 -4t-81 -12t-57 -24t-42 -40t-12 -59v-1084z" />
<glyph unicode="&#x10f;" horiz-adv-x="1664" d="M86 426v214q0 180 146 282t408 102q216 0 384 -86v598h170v-1536q-54 0 -88 33t-82 33q-66 0 -163 -33t-221 -33q-260 0 -407 121t-147 305zM256 342q0 -106 112 -181t272 -75t272 75t112 181v384q0 102 -109 157t-275 55t-275 -55t-109 -157v-384zM1324 1174v92 q18 0 35 13t33 58t16 113q0 36 26 61t60 25t60 -25t26 -61q0 -112 -102 -194t-154 -82z" />
<glyph unicode="&#x110;" d="M0 854v84h86v598h554q264 0 409 -103t145 -281v-726q0 -184 -149 -305t-405 -121h-554v854h-86zM256 226q0 -34 12 -59t42 -40t57 -24t81 -12t88 -4t104 -1q160 0 272 75t112 181v896q0 102 -109 157t-275 55q-70 0 -104 -1t-88 -4t-81 -12t-57 -24t-42 -40t-12 -59v-372 h342v-84h-342v-628z" />
<glyph unicode="&#x111;" horiz-adv-x="1450" d="M86 426v214q0 180 146 282t408 102q216 0 384 -86v256h-512v86h512v256h170v-256h86v-86h-86v-1194q-54 0 -83 7t-35 16t-7 19t-10 17t-35 7q-66 0 -163 -33t-221 -33q-260 0 -407 121t-147 305zM256 342q0 -106 112 -181t272 -75t272 75t112 181v384q0 102 -109 157 t-275 55t-275 -55t-109 -157v-384z" />
<glyph unicode="&#x112;" d="M84 1706v86h1110v-86h-1110zM86 0v1536h1108v-86h-682q-68 0 -101 -3t-76 -15t-61 -42t-18 -80v-372h682v-84h-682v-628q0 -50 18 -80t61 -42t76 -15t101 -3h682v-86h-1108z" />
<glyph unicode="&#x113;" d="M84 1366v86h1110v-86h-1110zM86 426v214q0 180 146 282t408 102q260 0 407 -121t147 -305v-86h-938v-170q0 -106 112 -181t272 -75q126 0 248 49t170 121h116q-168 -256 -534 -256q-260 0 -407 121t-147 305zM256 598h768v128q0 102 -109 157t-275 55t-275 -55t-109 -157 v-128z" />
<glyph unicode="&#x114;" d="M86 0v1536h1108v-86h-682q-68 0 -101 -3t-76 -15t-61 -42t-18 -80v-372h682v-84h-682v-628q0 -50 18 -80t61 -42t76 -15t101 -3h682v-86h-1108zM256 2004q0 36 29 61t65 25q34 0 60 -25t26 -61q0 -12 -4 -48t-4 -50q0 -58 91 -136t211 -78q118 0 209 79t91 135 q0 14 -3 50t-3 48q0 36 25 61t61 25q34 0 59 -25t25 -61q0 -106 -139 -245t-325 -139q-100 0 -192 43t-152 105t-95 126t-35 110z" />
<glyph unicode="&#x115;" d="M86 426v214q0 180 146 282t408 102q260 0 407 -121t147 -305v-86h-938v-170q0 -106 112 -181t272 -75q126 0 248 49t170 121h116q-168 -256 -534 -256q-260 0 -407 121t-147 305zM170 1536q0 36 29 61t65 25q34 0 60 -25t26 -61q0 -12 -4 -48t-4 -50q0 -58 91 -136 t211 -78q118 0 209 79t91 135q0 14 -3 50t-3 48q0 36 25 61t61 25q34 0 59 -25t25 -61q0 -106 -139 -245t-325 -139q-100 0 -192 43t-152 105t-95 126t-35 110zM256 598h768v128q0 102 -109 157t-275 55t-275 -55t-109 -157v-128z" />
<glyph unicode="&#x116;" d="M86 0v1536h1108v-86h-682q-68 0 -101 -3t-76 -15t-61 -42t-18 -80v-372h682v-84h-682v-628q0 -50 18 -80t61 -42t76 -15t101 -3h682v-86h-1108zM640 1828q0 36 25 61t61 25q34 0 59 -25t25 -61q0 -34 -25 -59t-59 -25q-36 0 -61 25t-25 59z" />
<glyph unicode="&#x117;" d="M86 426v214q0 180 146 282t408 102q260 0 407 -121t147 -305v-86h-938v-170q0 -106 112 -181t272 -75q126 0 248 49t170 121h116q-168 -256 -534 -256q-260 0 -407 121t-147 305zM256 598h768v128q0 102 -109 157t-275 55t-275 -55t-109 -157v-128zM554 1450q0 36 25 61 t61 25q34 0 59 -25t25 -61q0 -34 -25 -59t-59 -25q-36 0 -61 25t-25 59z" />
<glyph unicode="&#x118;" d="M86 0v1536h1108v-86h-682q-68 0 -101 -3t-76 -15t-61 -42t-18 -80v-372h682v-84h-682v-628q0 -50 18 -80t61 -42t76 -15t101 -3h682v-86h-114q-28 -8 -63 -42t-35 -78q0 -24 32 -68t32 -76q0 -50 -35 -69t-73 -19q-106 0 -106 88q0 62 11 96t51 98q16 26 60 70h-868z" />
<glyph unicode="&#x119;" d="M86 426v214q0 180 146 282t408 102q260 0 407 -121t147 -305v-86h-938v-170q0 -106 112 -181t272 -75q126 0 248 49t170 121h116q-100 -152 -274 -214q-30 -26 -60 -74t-30 -88q0 -24 32 -68t32 -76q0 -50 -34 -69t-72 -19q-106 0 -106 88q0 58 11 91t51 103q24 42 54 80 q-70 -10 -138 -10q-260 0 -407 121t-147 305zM256 598h768v128q0 102 -109 157t-275 55t-275 -55t-109 -157v-128z" />
<glyph unicode="&#x11a;" d="M86 0v1536h1108v-86h-682q-68 0 -101 -3t-76 -15t-61 -42t-18 -80v-372h682v-84h-682v-628q0 -50 18 -80t61 -42t76 -15t101 -3h682v-86h-1108zM166 2004q0 36 29 61t65 25q34 0 60 -25t26 -61q0 -74 14 -98q8 -12 14 -19t19 -18t22 -18t34 -23t45 -28t64 -39t82 -49 q26 16 60 36t51 31t39 25t33 20t25 16l21 15t16 12t14 13l10 12t11 14q14 24 14 98q0 36 25 61t61 25q34 0 59 -25t25 -61q0 -18 -2 -32t-6 -27t-15 -26t-21 -25t-34 -29t-44 -31t-60 -39t-75 -46t-94 -58t-113 -71q-58 36 -122 75t-101 62t-78 49t-62 40t-45 33t-33 31 t-19 28t-12 31t-2 35z" />
<glyph unicode="&#x11b;" d="M86 426v214q0 180 146 282t408 102q260 0 407 -121t147 -305v-86h-938v-170q0 -106 112 -181t272 -75q126 0 248 49t170 121h116q-168 -256 -534 -256q-260 0 -407 121t-147 305zM162 1536q0 36 29 61t65 25q34 0 60 -25t26 -61q0 -74 14 -98q8 -12 14 -19t19 -18t22 -18 t34 -23t45 -28t64 -39t82 -49q26 16 60 36t51 31t39 25t33 20t25 16l21 15t16 12t14 13l10 12t11 14q14 24 14 98q0 36 25 61t61 25q34 0 59 -25t25 -61q0 -18 -2 -32t-6 -27t-15 -26t-21 -25t-34 -29t-44 -31t-60 -39t-75 -46t-94 -58t-113 -71q-58 36 -122 75t-101 62 t-78 49t-62 40t-45 33t-33 31t-19 28t-12 31t-2 35zM256 598h768v128q0 102 -109 157t-275 55t-275 -55t-109 -157v-128z" />
<glyph unicode="&#x11c;" d="M86 426v726q0 180 146 282t408 102q452 0 542 -298h-158q0 102 -109 157t-275 55t-275 -55t-109 -157v-896q0 -106 112 -181t272 -75t272 75t112 181v512h-342v84h512v-512q0 -184 -149 -305t-405 -121q-260 0 -407 121t-147 305zM166 1708q0 20 2 35t12 31t19 28t33 31 t45 33t62 40t78 49t101 62t122 75q54 -34 113 -71t94 -58t75 -46t60 -39t44 -31t34 -29t21 -25t15 -26t6 -27t2 -32q0 -36 -25 -61t-59 -25q-36 0 -61 25t-25 61q0 74 -14 98q-6 8 -11 14l-10 12t-14 13t-16 12l-21 15t-25 16t-33 20t-39 25t-51 31t-60 36q-38 -22 -82 -49 t-64 -39t-45 -28t-34 -23t-22 -18t-19 -18t-14 -19q-14 -24 -14 -98q0 -36 -26 -61t-60 -25q-36 0 -65 25t-29 61z" />
<glyph unicode="&#x11d;" d="M86 426v214q0 180 146 282t408 102q264 0 409 -103t145 -281v-640q0 -184 -149 -305t-405 -121q-192 0 -330 69t-214 187h146q48 -74 161 -123t237 -49q158 0 271 75t113 181v172q-168 -86 -384 -86q-260 0 -407 121t-147 305zM166 1238q0 20 2 35t12 31t19 28t33 31 t45 33t62 40t78 49t101 62t122 75q54 -34 113 -71t94 -58t75 -46t60 -39t44 -31t34 -29t21 -25t15 -26t6 -27t2 -32q0 -36 -25 -61t-59 -25q-36 0 -61 25t-25 61q0 74 -14 98q-6 8 -11 14l-10 12t-14 13t-16 12l-21 15t-25 16t-33 20t-39 25t-51 31t-60 36q-38 -22 -82 -49 t-64 -39t-45 -28t-34 -23t-22 -18t-19 -18t-14 -19q-14 -24 -14 -98q0 -36 -26 -61t-60 -25q-36 0 -65 25t-29 61zM256 342q0 -106 112 -181t272 -75t272 75t112 181v384q0 102 -109 157t-275 55t-275 -55t-109 -157v-384z" />
<glyph unicode="&#x11e;" d="M86 426v726q0 180 146 282t408 102q452 0 542 -298h-158q0 102 -109 157t-275 55t-275 -55t-109 -157v-896q0 -106 112 -181t272 -75t272 75t112 181v512h-342v84h512v-512q0 -184 -149 -305t-405 -121q-260 0 -407 121t-147 305zM170 2004q0 36 29 61t65 25q34 0 60 -25 t26 -61q0 -12 -4 -48t-4 -50q0 -58 91 -136t211 -78q118 0 209 79t91 135q0 14 -3 50t-3 48q0 36 25 61t61 25q34 0 59 -25t25 -61q0 -106 -139 -245t-325 -139q-100 0 -192 43t-152 105t-95 126t-35 110z" />
<glyph unicode="&#x11f;" d="M86 426v214q0 180 146 282t408 102q264 0 409 -103t145 -281v-640q0 -184 -149 -305t-405 -121q-192 0 -330 69t-214 187h146q48 -74 161 -123t237 -49q158 0 271 75t113 181v172q-168 -86 -384 -86q-260 0 -407 121t-147 305zM170 1536q0 36 29 61t65 25q34 0 60 -25 t26 -61q0 -12 -4 -48t-4 -50q0 -58 91 -136t211 -78q118 0 209 79t91 135q0 14 -3 50t-3 48q0 36 25 61t61 25q34 0 59 -25t25 -61q0 -106 -139 -245t-325 -139q-100 0 -192 43t-152 105t-95 126t-35 110zM256 342q0 -106 112 -181t272 -75t272 75t112 181v384 q0 102 -109 157t-275 55t-275 -55t-109 -157v-384z" />
<glyph unicode="&#x120;" d="M86 426v726q0 180 146 282t408 102q452 0 542 -298h-158q0 102 -109 157t-275 55t-275 -55t-109 -157v-896q0 -106 112 -181t272 -75t272 75t112 181v512h-342v84h512v-512q0 -184 -149 -305t-405 -121q-260 0 -407 121t-147 305zM554 1792q0 36 25 61t61 25q34 0 59 -25 t25 -61q0 -34 -25 -59t-59 -25q-36 0 -61 25t-25 59z" />
<glyph unicode="&#x121;" d="M86 426v214q0 180 146 282t408 102q264 0 409 -103t145 -281v-640q0 -184 -149 -305t-405 -121q-192 0 -330 69t-214 187h146q48 -74 161 -123t237 -49q158 0 271 75t113 181v172q-168 -86 -384 -86q-260 0 -407 121t-147 305zM256 342q0 -106 112 -181t272 -75t272 75 t112 181v384q0 102 -109 157t-275 55t-275 -55t-109 -157v-384zM554 1450q0 36 25 61t61 25q34 0 59 -25t25 -61q0 -34 -25 -59t-59 -25q-36 0 -61 25t-25 59z" />
<glyph unicode="&#x122;" d="M86 426v726q0 180 146 282t408 102q452 0 542 -298h-158q0 102 -109 157t-275 55t-275 -55t-109 -157v-896q0 -106 112 -181t272 -75t272 75t112 181v512h-342v84h512v-512q0 -184 -149 -305t-405 -121q-260 0 -407 121t-147 305zM512 -334q18 0 35 13t33 58t16 113 q0 36 26 61t60 25t60 -25t26 -61q0 -112 -102 -194t-154 -82v92z" />
<glyph unicode="&#x123;" d="M86 426v214q0 180 146 282t408 102q264 0 409 -103t145 -281v-640q0 -184 -149 -305t-405 -121q-192 0 -330 69t-214 187h146q48 -74 161 -123t237 -49q158 0 271 75t113 181v172q-168 -86 -384 -86q-260 0 -407 121t-147 305zM256 342q0 -106 112 -181t272 -75t272 75 t112 181v384q0 102 -109 157t-275 55t-275 -55t-109 -157v-384zM556 1350q18 0 35 13t33 58t16 113q0 36 26 61t60 25t60 -25t26 -61q0 -112 -102 -194t-154 -82v92z" />
<glyph unicode="&#x124;" d="M86 0v1536h170v-598h768v598h170v-1536h-170v854h-768v-854h-170zM166 1708q0 20 2 35t12 31t19 28t33 31t45 33t62 40t78 49t101 62t122 75q54 -34 113 -71t94 -58t75 -46t60 -39t44 -31t34 -29t21 -25t15 -26t6 -27t2 -32q0 -36 -25 -61t-59 -25q-36 0 -61 25t-25 61 q0 74 -14 98q-6 8 -11 14l-10 12t-14 13t-16 12l-21 15t-25 16t-33 20t-39 25t-51 31t-60 36q-38 -22 -82 -49t-64 -39t-45 -28t-34 -23t-22 -18t-19 -18t-14 -19q-14 -24 -14 -98q0 -36 -26 -61t-60 -25q-36 0 -65 25t-29 61z" />
<glyph unicode="&#x125;" d="M86 0v1536h170v-580q164 68 384 68q264 0 409 -103t145 -281v-640h-170v726q0 102 -109 157t-275 55t-275 -55t-109 -157v-726h-170zM166 1708q0 20 2 35t12 31t19 28t33 31t45 33t62 40t78 49t101 62t122 75q54 -34 113 -71t94 -58t75 -46t60 -39t44 -31t34 -29t21 -25 t15 -26t6 -27t2 -32q0 -36 -25 -61t-59 -25q-36 0 -61 25t-25 61q0 74 -14 98q-6 8 -11 14l-10 12t-14 13t-16 12l-21 15t-25 16t-33 20t-39 25t-51 31t-60 36q-38 -22 -82 -49t-64 -39t-45 -28t-34 -23t-22 -18t-19 -18t-14 -19q-14 -24 -14 -98q0 -36 -26 -61t-60 -25 q-36 0 -65 25t-29 61z" />
<glyph unicode="&#x126;" horiz-adv-x="1536" d="M86 1194v86h84v256h172v-256h768v256h170v-256h86v-86h-86v-1194h-170v854h-768v-854h-172v1194h-84zM342 938h768v256h-768v-256z" />
<glyph unicode="&#x127;" d="M0 1194v86h86v256h170v-256h598v-86h-598v-238q164 68 384 68q264 0 409 -103t145 -281v-640h-170v726q0 102 -109 157t-275 55t-275 -55t-109 -157v-726h-170v1194h-86z" />
<glyph unicode="&#x128;" horiz-adv-x="426" d="M0 1750q0 96 25 197t73 101t82 -53t48 -118t36 -118t48 -53q38 0 38 214h76q0 -98 -23 -198t-73 -100q-44 0 -77 53t-49 117t-38 117t-48 53q-40 0 -40 -212h-78zM86 0v1536h170v-1536h-170z" />
<glyph unicode="&#x129;" horiz-adv-x="596" d="M0 1322q0 96 32 198t96 102t111 -53t68 -118t50 -118t63 -53q50 0 50 214h106q0 -96 -33 -198t-97 -102q-60 0 -105 53t-67 118t-54 118t-66 53q-50 0 -50 -214h-104zM86 212v812h170v-798q0 -140 32 -140q76 0 224 88v-90q-136 -84 -256 -84q-170 0 -170 212z" />
<glyph unicode="&#x12a;" horiz-adv-x="426" d="M42 1706v86h342v-86h-342zM86 0v1536h170v-1536h-170z" />
<glyph unicode="&#x12b;" horiz-adv-x="596" d="M42 1366v84h470v-84h-470zM86 212v812h170v-798q0 -140 32 -140q76 0 224 88v-90q-136 -84 -256 -84q-170 0 -170 212z" />
<glyph unicode="&#x12c;" horiz-adv-x="426" d="M-85 1906q0 27 16 45.5t36 18.5q18 0 32.5 -18.5t14.5 -45.5q0 -9 -2.5 -35.5t-2.5 -36.5q0 -43 49.5 -101t115.5 -58q64 0 113.5 58.5t49.5 100.5q0 10 -1.5 36.5t-1.5 35.5q0 27 13.5 45.5t33.5 18.5q18 0 31.5 -18.5t13.5 -45.5q0 -78 -75.5 -181t-176.5 -103 q-55 0 -105 32t-82.5 77.5t-52 93t-19.5 81.5zM86 0v1536h170v-1536h-170z" />
<glyph unicode="&#x12d;" horiz-adv-x="596" d="M-42 1558q0 27 21 45.5t48 18.5q24 0 43 -18.5t19 -45.5q0 -9 -3 -35.5t-3 -36.5q0 -43 66.5 -101t153.5 -58q86 0 152 58.5t66 100.5q0 10 -2 36.5t-2 35.5q0 27 18 45.5t44 18.5q25 0 43 -18.5t18 -45.5q0 -78 -101 -181t-236 -103q-73 0 -140 32t-110.5 77.5t-69 93 t-25.5 81.5zM86 212v812h170v-798q0 -140 32 -140q76 0 224 88v-90q-136 -84 -256 -84q-170 0 -170 212z" />
<glyph unicode="&#x12e;" horiz-adv-x="426" d="M0 -254q0 62 11 96t51 98q14 22 48 60h-24v1536h170v-1536q-24 0 -65 -30t-41 -78q0 -26 32 -70t32 -76q0 -48 -35 -68t-73 -20q-22 0 -44 6t-42 27t-20 55z" />
<glyph unicode="&#x12f;" horiz-adv-x="596" d="M42 -254q0 62 11 95t51 99q24 36 70 78q-88 42 -88 194v812h170v-798q0 -140 32 -140q76 0 224 88v-90q-118 -72 -224 -84q-32 -8 -64 -37t-32 -71q0 -26 32 -70t32 -76q0 -48 -34 -68t-72 -20q-22 0 -44 6t-43 27t-21 55zM86 1450q0 36 25 61t59 25q36 0 61 -25t25 -61 q0 -34 -25 -59t-61 -25q-34 0 -59 25t-25 59z" />
<glyph unicode="&#x130;" horiz-adv-x="426" d="M86 0v1536h170v-1536h-170zM86 1792q0 36 25 61t61 25q34 0 59 -25t25 -61q0 -34 -25 -59t-59 -25q-36 0 -61 25t-25 59z" />
<glyph unicode="&#x131;" horiz-adv-x="596" d="M86 212v812h170v-798q0 -140 32 -140q76 0 224 88v-90q-136 -84 -256 -84q-170 0 -170 212z" />
<glyph unicode="&#x132;" horiz-adv-x="938" d="M86 0v1536h170v-1536h-170zM426 -316q50 -26 140 -26q32 0 32 142v1650h-172v86h342v-1752q0 -210 -170 -210q-122 0 -172 18v92z" />
<glyph unicode="&#x133;" horiz-adv-x="1024" d="M86 212v812h170v-798q0 -140 32 -140q76 0 224 88v-90q-136 -84 -256 -84q-170 0 -170 212zM86 1450q0 36 25 61t59 25q36 0 61 -25t25 -61q0 -34 -25 -59t-61 -25q-34 0 -59 25t-25 59zM554 -316q50 -26 96 -26q32 0 32 142v1224h172v-1240q0 -210 -172 -210 q-78 0 -128 18v92zM682 1450q0 36 26 61t60 25t60 -25t26 -61q0 -34 -26 -59t-60 -25t-60 25t-26 59z" />
<glyph unicode="&#x134;" horiz-adv-x="596" d="M-82 1704q0 30 7 53t16 41t41 49t59 54t95 80t124 107q50 -44 110 -96t87 -74t59 -52t42 -44t22 -35t14 -39t2 -44q0 -34 -18 -59t-44 -25t-44 25t-18 59q0 76 -12 98q-6 14 -13 24t-13 19t-24 24t-32 27t-51 43t-67 57q-30 -26 -66 -56t-51 -43t-32 -28t-24 -24t-14 -19 t-13 -24q-10 -22 -10 -98q0 -34 -18 -59t-44 -25t-48 25t-22 59zM84 -316q50 -26 138 -26q32 0 32 142v1650h-170v86h340v-1752q0 -210 -170 -210q-118 0 -170 18v92z" />
<glyph unicode="&#x135;" horiz-adv-x="512" d="M-42 1238q0 88 42 142t256 242q148 -130 204 -190t70 -93t14 -97q0 -46 -19 -68t-43 -22q-26 0 -44 25t-18 61q0 102 -31 153t-133 139q-100 -86 -124 -124q-46 -66 -46 -168q0 -36 -17 -61t-43 -25t-47 25t-21 61zM0 -316q50 -26 96 -26q32 0 32 142v1224h170v-1240 q0 -210 -170 -210q-76 0 -128 18v92z" />
<glyph unicode="&#x136;" d="M86 0v1536h170v-370l874 370l64 -72l-480 -216q480 -48 480 -438v-810h-170v896q0 128 -127 205t-365 77l-276 -110v-1068h-170zM534 -270q18 0 35 13t33 58t16 113q0 36 26 61t60 25t60 -25t26 -61q0 -112 -102 -194t-154 -82v92z" />
<glyph unicode="&#x137;" d="M86 0v1536h170v-882l874 370l64 -72l-446 -190q206 -30 326 -123t120 -233v-406h-170v448q0 100 -146 172t-312 72l-310 -136v-556h-170zM534 -270q18 0 35 13t33 58t16 113q0 36 26 61t60 25t60 -25t26 -61q0 -112 -102 -194t-154 -82v92z" />
<glyph unicode="&#x138;" d="M86 0v1024h170v-370l874 370l64 -72l-446 -190q206 -30 326 -123t120 -233v-406h-170v448q0 100 -146 172t-312 72l-310 -136v-556h-170z" />
<glyph unicode="&#x139;" horiz-adv-x="1108" d="M86 0v86v1450h170v-1450h682v-86h-682h-170zM244 1820q18 0 35 13t34 58t17 113q0 36 25 61t59 25q36 0 61 -25t25 -61q0 -112 -89 -194t-139 -82q-28 0 -28 92z" />
<glyph unicode="&#x13a;" horiz-adv-x="596" d="M86 212v1324h170v-1310q0 -140 32 -140q76 0 224 88v-90q-136 -84 -256 -84q-170 0 -170 212zM214 1820q18 0 35 13t34 58t17 113q0 36 25 61t59 25q36 0 61 -25t25 -61q0 -112 -89 -194t-139 -82q-28 0 -28 92z" />
<glyph unicode="&#x13b;" horiz-adv-x="1108" d="M86 0v86v1450h170v-1450h682v-86h-682h-170zM342 -347q18 0 35 10.5t33 48.5t16 95q0 31 26 52t60 21t60 -21t26 -52q0 -94 -102 -163t-154 -69v78z" />
<glyph unicode="&#x13c;" horiz-adv-x="596" d="M86 212v1324h170v-1310q0 -140 32 -140q76 0 224 88v-90q-136 -84 -256 -84q-170 0 -170 212zM172 -347q18 0 35 10.5t33 48.5t16 95q0 31 26 52t60 21t60 -21t26 -52q0 -94 -102 -163t-154 -69v78z" />
<glyph unicode="&#x13d;" horiz-adv-x="1108" d="M86 0v86v1450h170v-1450h682v-86h-682h-170zM598 1174v92q18 0 35 13t33 58t16 113q0 36 26 61t60 25t60 -25t26 -61q0 -112 -102 -194t-154 -82z" />
<glyph unicode="&#x13e;" horiz-adv-x="768" d="M86 212v1324h170v-1310q0 -140 32 -140q76 0 224 88v-90q-136 -84 -256 -84q-170 0 -170 212zM428 1174v92q18 0 35 13t33 58t16 113q0 36 26 61t60 25t60 -25t26 -61q0 -112 -102 -194t-154 -82z" />
<glyph unicode="&#x13f;" horiz-adv-x="1108" d="M86 0v86v1450h170v-1450h682v-86h-682h-170zM554 812q0 34 25 59t61 25q34 0 59 -25t25 -59q0 -36 -25 -61t-59 -25q-36 0 -61 25t-25 61z" />
<glyph unicode="&#x140;" horiz-adv-x="596" d="M86 212v1324h170v-1310q0 -140 32 -140q76 0 224 88v-90q-136 -84 -256 -84q-170 0 -170 212zM426 854q0 34 25 59t61 25q34 0 59 -25t25 -59q0 -36 -25 -61t-59 -25q-36 0 -61 25t-25 61z" />
<glyph unicode="&#x141;" horiz-adv-x="1024" d="M86 0v86v1450h170v-696l392 242l46 -72l-438 -270v-654h598v-86h-598h-170z" />
<glyph unicode="&#x142;" horiz-adv-x="596" d="M0 1450v86h512v-86h-256v-1224q0 -140 32 -140q76 0 224 88v-90q-136 -84 -256 -84q-170 0 -170 212v1238h-86z" />
<glyph unicode="&#x143;" d="M86 0v1536h554q264 0 409 -103t145 -281v-1152h-170v1238q0 102 -109 157t-275 55t-275 -55t-109 -157v-1238h-170zM598 1820q18 0 35 13t34 58t17 113q0 36 25 61t59 25q36 0 61 -25t25 -61q0 -112 -89 -194t-139 -82q-28 0 -28 92z" />
<glyph unicode="&#x144;" d="M86 0v1024h170v-68q164 68 384 68q264 0 409 -103t145 -281v-640h-170v726q0 102 -109 157t-275 55t-275 -55t-109 -157v-726h-170zM598 1352q18 0 35 13t34 58t17 113q0 36 25 61t59 25q36 0 61 -25t25 -61q0 -112 -89 -194t-139 -82q-28 0 -28 92z" />
<glyph unicode="&#x145;" d="M86 0v1536h554q264 0 409 -103t145 -281v-1152h-170v1238q0 102 -109 157t-275 55t-275 -55t-109 -157v-1238h-170zM534 -270q18 0 35 13t33 58t16 113q0 36 26 61t60 25t60 -25t26 -61q0 -112 -102 -194t-154 -82v92z" />
<glyph unicode="&#x146;" d="M86 0v1024h170v-68q164 68 384 68q264 0 409 -103t145 -281v-640h-170v726q0 102 -109 157t-275 55t-275 -55t-109 -157v-726h-170zM534 -270q18 0 35 13t33 58t16 113q0 36 26 61t60 25t60 -25t26 -61q0 -112 -102 -194t-154 -82v92z" />
<glyph unicode="&#x147;" d="M86 0v1536h554q264 0 409 -103t145 -281v-1152h-170v1238q0 102 -109 157t-275 55t-275 -55t-109 -157v-1238h-170zM162 2004q0 36 29 61t65 25q34 0 60 -25t26 -61q0 -74 14 -98q8 -12 14 -19t19 -18t22 -18t34 -23t45 -28t64 -39t82 -49q26 16 60 36t51 31t39 25t33 20 t25 16l21 15t16 12t14 13l10 12t11 14q14 24 14 98q0 36 25 61t61 25q34 0 59 -25t25 -61q0 -18 -2 -32t-6 -27t-15 -26t-21 -25t-34 -29t-44 -31t-60 -39t-75 -46t-94 -58t-113 -71q-58 36 -122 75t-101 62t-78 49t-62 40t-45 33t-33 31t-19 28t-12 31t-2 35z" />
<glyph unicode="&#x148;" d="M86 0v1024h170v-68q164 68 384 68q264 0 409 -103t145 -281v-640h-170v726q0 102 -109 157t-275 55t-275 -55t-109 -157v-726h-170zM166 1536q0 36 29 61t65 25q34 0 60 -25t26 -61q0 -74 14 -98q8 -12 14 -19t19 -18t22 -18t34 -23t45 -28t64 -39t82 -49q26 16 60 36 t51 31t39 25t33 20t25 16l21 15t16 12t14 13l10 12t11 14q14 24 14 98q0 36 25 61t61 25q34 0 59 -25t25 -61q0 -18 -2 -32t-6 -27t-15 -26t-21 -25t-34 -29t-44 -31t-60 -39t-75 -46t-94 -58t-113 -71q-58 36 -122 75t-101 62t-78 49t-62 40t-45 33t-33 31t-19 28t-12 31 t-2 35z" />
<glyph unicode="&#x14a;" d="M86 0v1536h170v-68q164 68 384 68q264 0 409 -103t145 -281v-1368q0 -210 -170 -210q-76 0 -128 18v92q50 -26 96 -26q32 0 32 142v1438q0 102 -109 157t-275 55t-275 -55t-109 -157v-1238h-170z" />
<glyph unicode="&#x14b;" d="M86 0v1024h170v-68q164 68 384 68q264 0 409 -103t145 -281v-856q0 -210 -170 -210q-76 0 -128 18v92q50 -26 96 -26q32 0 32 142v926q0 102 -109 157t-275 55t-275 -55t-109 -157v-564v-162h-170z" />
<glyph unicode="&#x14c;" d="M84 1708v86h1110v-86h-1110zM86 426v726q0 180 146 282t408 102q264 0 409 -103t145 -281v-726q0 -184 -149 -305t-405 -121q-260 0 -407 121t-147 305zM256 342q0 -106 112 -181t272 -75t272 75t112 181v896q0 102 -109 157t-275 55t-275 -55t-109 -157v-896z" />
<glyph unicode="&#x14d;" d="M84 1366v86h1110v-86h-1110zM86 426v214q0 180 146 282t408 102q264 0 409 -103t145 -281v-214q0 -184 -149 -305t-405 -121q-260 0 -407 121t-147 305zM256 342q0 -106 112 -181t272 -75t272 75t112 181v384q0 102 -109 157t-275 55t-275 -55t-109 -157v-384z" />
<glyph unicode="&#x14e;" d="M86 426v726q0 180 146 282t408 102q264 0 409 -103t145 -281v-726q0 -184 -149 -305t-405 -121q-260 0 -407 121t-147 305zM170 2004q0 36 29 61t65 25q34 0 60 -25t26 -61q0 -12 -4 -48t-4 -50q0 -58 91 -136t211 -78q118 0 209 79t91 135q0 14 -3 50t-3 48q0 36 25 61 t61 25q34 0 59 -25t25 -61q0 -106 -139 -245t-325 -139q-100 0 -192 43t-152 105t-95 126t-35 110zM256 342q0 -106 112 -181t272 -75t272 75t112 181v896q0 102 -109 157t-275 55t-275 -55t-109 -157v-896z" />
<glyph unicode="&#x14f;" d="M86 426v214q0 180 146 282t408 102q264 0 409 -103t145 -281v-214q0 -184 -149 -305t-405 -121q-260 0 -407 121t-147 305zM170 1536q0 36 29 61t65 25q34 0 60 -25t26 -61q0 -12 -4 -48t-4 -50q0 -58 91 -136t211 -78q118 0 209 79t91 135q0 14 -3 50t-3 48q0 36 25 61 t61 25q34 0 59 -25t25 -61q0 -106 -139 -245t-325 -139q-100 0 -192 43t-152 105t-95 126t-35 110zM256 342q0 -106 112 -181t272 -75t272 75t112 181v384q0 102 -109 157t-275 55t-275 -55t-109 -157v-384z" />
<glyph unicode="&#x150;" d="M86 426v726q0 180 146 282t408 102q264 0 409 -103t145 -281v-726q0 -184 -149 -305t-405 -121q-260 0 -407 121t-147 305zM256 342q0 -106 112 -181t272 -75t272 75t112 181v896q0 102 -109 157t-275 55t-275 -55t-109 -157v-896zM256 1820q18 0 35 13t34 58t17 113 q0 36 25 61t61 25q34 0 59 -25t25 -61q0 -112 -92 -194t-142 -82q-22 0 -22 92zM854 1820q18 0 35 13t34 58t17 113q0 36 25 61t59 25q36 0 61 -25t25 -61q0 -112 -92 -194t-142 -82q-22 0 -22 92z" />
<glyph unicode="&#x151;" d="M86 426v214q0 180 146 282t408 102q264 0 409 -103t145 -281v-214q0 -184 -149 -305t-405 -121q-260 0 -407 121t-147 305zM226 1352q18 0 35 13t34 58t17 113q0 36 25 61t61 25q34 0 59 -25t25 -61q0 -112 -92 -194t-142 -82q-22 0 -22 92zM256 342q0 -106 112 -181 t272 -75t272 75t112 181v384q0 102 -109 157t-275 55t-275 -55t-109 -157v-384zM824 1352q18 0 35 13t34 58t17 113q0 36 25 61t59 25q36 0 61 -25t25 -61q0 -112 -92 -194t-142 -82q-22 0 -22 92z" />
<glyph unicode="&#x152;" horiz-adv-x="2388" d="M170 426v726q0 180 147 282t409 102q172 0 384 -90v90h1108v-86h-682q-68 0 -101 -3t-76 -15t-61 -42t-18 -80v-372h682v-84h-682v-628q0 -50 18 -80t61 -42t76 -15t101 -3h682v-86h-1108v100q-200 -100 -384 -100q-260 0 -408 121t-148 305zM342 342q0 -106 112 -181 t272 -75q158 0 271 75t113 181v896q0 100 -109 156t-275 56t-275 -55t-109 -157v-896z" />
<glyph unicode="&#x153;" horiz-adv-x="2304" d="M86 426v214q0 180 146 282t408 102q286 0 470 -142q184 142 468 142q260 0 408 -121t148 -305v-86h-940v-86v-84q0 -106 113 -181t271 -75q160 0 272 75t112 181h172q-30 -156 -178 -249t-378 -93q-282 0 -468 170q-192 -170 -470 -170q-260 0 -407 121t-147 305z M256 342q0 -106 112 -181t272 -75t272 75t112 181v384q0 102 -109 157t-275 55t-275 -55t-109 -157v-384zM1194 598h768v128q0 102 -109 157t-275 55t-275 -56t-109 -156v-128z" />
<glyph unicode="&#x154;" d="M86 0v1536h512q240 0 376 -85t136 -257v-2q0 -202 -176 -292q140 -52 200 -136t60 -210v-554h-170v640q0 102 -109 158t-275 56h-384v-854h-170zM256 1082q0 -52 27 -82t90 -43t114 -16t153 -3q146 0 222 64t76 148v88q0 102 -109 157t-275 55q-68 0 -100 -1t-78 -7 t-67 -19t-37 -38t-16 -63v-240zM510 1820q18 0 35 13t34 58t17 113q0 36 25 61t59 25q36 0 61 -25t25 -61q0 -112 -89 -194t-139 -82q-28 0 -28 92z" />
<glyph unicode="&#x155;" horiz-adv-x="768" d="M86 0v1024h170v-68q164 68 342 68v-86q-162 0 -252 -54t-90 -158v-726h-170zM256 1352q18 0 35 13t34 58t17 113q0 36 25 61t59 25q36 0 61 -25t25 -61q0 -112 -89 -194t-139 -82q-28 0 -28 92z" />
<glyph unicode="&#x156;" d="M86 0v1536h512q240 0 376 -85t136 -257v-2q0 -202 -176 -292q140 -52 200 -136t60 -210v-554h-170v640q0 102 -109 158t-275 56h-384v-854h-170zM256 1082q0 -52 27 -82t90 -43t114 -16t153 -3q146 0 222 64t76 148v88q0 102 -109 157t-275 55q-68 0 -100 -1t-78 -7 t-67 -19t-37 -38t-16 -63v-240zM526 -270q18 0 35 13t33 58t16 113q0 36 26 61t60 25t60 -25t26 -61q0 -112 -102 -194t-154 -82v92z" />
<glyph unicode="&#x157;" horiz-adv-x="768" d="M86 0v1024h170v-68q164 68 342 68v-86q-162 0 -252 -54t-90 -158v-726h-170zM320 -314q18 0 35 13t33 58t16 113q0 36 26 61t60 25t60 -25t26 -61q0 -112 -102 -194t-154 -82v92z" />
<glyph unicode="&#x158;" d="M86 0v1536h512q240 0 376 -85t136 -257v-2q0 -202 -176 -292q140 -52 200 -136t60 -210v-554h-170v640q0 102 -109 158t-275 56h-384v-854h-170zM166 2004q0 36 29 61t65 25q34 0 60 -25t26 -61q0 -74 14 -98q8 -12 14 -19t19 -18t22 -18t34 -23t45 -28t64 -39t82 -49 q26 16 60 36t51 31t39 25t33 20t25 16l21 15t16 12t14 13l10 12t11 14q14 24 14 98q0 36 25 61t61 25q34 0 59 -25t25 -61q0 -18 -2 -32t-6 -27t-15 -26t-21 -25t-34 -29t-44 -31t-60 -39t-75 -46t-94 -58t-113 -71q-58 36 -122 75t-101 62t-78 49t-62 40t-45 33t-33 31 t-19 28t-12 31t-2 35zM256 1082q0 -52 27 -82t90 -43t114 -16t153 -3q146 0 222 64t76 148v88q0 102 -109 157t-275 55q-68 0 -100 -1t-78 -7t-67 -19t-37 -38t-16 -63v-240z" />
<glyph unicode="&#x159;" horiz-adv-x="768" d="M1 1536q0 36 23.5 61t52.5 25q28 0 49 -25t21 -61q0 -74 11 -98q7 -12 11.5 -19t15 -18t18 -18t27.5 -23t36.5 -28t52 -39t66.5 -49q21 16 48.5 36t41 31t31.5 25t26.5 20t20 16t17 15t13 12t11.5 13l8 12t9 14q11 24 11 98q0 36 20.5 61t49.5 25q27 0 47.5 -25t20.5 -61 q0 -18 -1.5 -32t-5 -27t-12.5 -26t-17 -25t-27.5 -29t-35.5 -31t-48.5 -39t-60.5 -46t-76 -58t-91 -71q-47 36 -99 75t-82 62t-63 49t-50 40t-36.5 33t-26.5 31t-15.5 28t-10 31t-1.5 35zM86 0v1024h170v-68q164 68 342 68v-86q-162 0 -252 -54t-90 -158v-726h-170z" />
<glyph unicode="&#x15a;" d="M94 298h158q0 -100 109 -156t275 -56q164 0 274 86t110 222q0 134 -94 222t-290 150q-486 150 -486 380q0 62 28 127t84 126t154 99t224 38q230 0 353 -74t167 -224h-158q0 102 -99 157t-263 55q-154 0 -237 -76t-83 -200q0 -118 76 -193t240 -125q300 -94 429 -196 t129 -232v-2q0 -184 -150 -305t-408 -121q-450 0 -542 298zM550 1820q18 0 35 13t34 58t17 113q0 36 25 61t59 25q36 0 61 -25t25 -61q0 -112 -89 -194t-139 -82q-28 0 -28 92z" />
<glyph unicode="&#x15b;" d="M94 298h162q0 -102 107 -157t273 -55q118 0 198 15t135 65t55 134q0 212 -384 212q-218 0 -354 63t-136 171q0 124 130 201t382 77q236 0 345 -44t175 -170h-200q-42 80 -109 104t-211 24q-168 0 -255 -44t-87 -148q0 -54 53 -89t121 -47t146 -12q286 0 420 -92t134 -206 v-2q0 -170 -137 -234t-421 -64q-450 0 -542 298zM558 1352q18 0 35 13t34 58t17 113q0 36 25 61t59 25q36 0 61 -25t25 -61q0 -112 -89 -194t-139 -82q-28 0 -28 92z" />
<glyph unicode="&#x15c;" d="M94 298h158q0 -100 109 -156t275 -56q164 0 274 86t110 222q0 134 -94 222t-290 150q-486 150 -486 380q0 62 28 127t84 126t154 99t224 38q230 0 353 -74t167 -224h-158q0 102 -99 157t-263 55q-154 0 -237 -76t-83 -200q0 -118 76 -193t240 -125q300 -94 429 -196 t129 -232v-2q0 -184 -150 -305t-408 -121q-450 0 -542 298zM170 1708q0 20 2 35t12 31t19 28t33 31t45 33t62 40t78 49t101 62t122 75q54 -34 113 -71t94 -58t75 -46t60 -39t44 -31t34 -29t21 -25t15 -26t6 -27t2 -32q0 -36 -25 -61t-59 -25q-36 0 -61 25t-25 61 q0 74 -14 98q-6 8 -11 14l-10 12t-14 13t-16 12l-21 15t-25 16t-33 20t-39 25t-51 31t-60 36q-38 -22 -82 -49t-64 -39t-45 -28t-34 -23t-22 -18t-19 -18t-14 -19q-14 -24 -14 -98q0 -36 -26 -61t-60 -25q-36 0 -65 25t-29 61z" />
<glyph unicode="&#x15d;" d="M94 298h162q0 -102 107 -157t273 -55q118 0 198 15t135 65t55 134q0 212 -384 212q-218 0 -354 63t-136 171q0 124 130 201t382 77q236 0 345 -44t175 -170h-200q-42 80 -109 104t-211 24q-168 0 -255 -44t-87 -148q0 -54 53 -89t121 -47t146 -12q286 0 420 -92t134 -206 v-2q0 -170 -137 -234t-421 -64q-450 0 -542 298zM170 1238q0 20 2 35t12 31t19 28t33 31t45 33t62 40t78 49t101 62t122 75q54 -34 113 -71t94 -58t75 -46t60 -39t44 -31t34 -29t21 -25t15 -26t6 -27t2 -32q0 -36 -25 -61t-59 -25q-36 0 -61 25t-25 61q0 74 -14 98 q-6 8 -11 14l-10 12t-14 13t-16 12l-21 15t-25 16t-33 20t-39 25t-51 31t-60 36q-38 -22 -82 -49t-64 -39t-45 -28t-34 -23t-22 -18t-19 -18t-14 -19q-14 -24 -14 -98q0 -36 -26 -61t-60 -25q-36 0 -65 25t-29 61z" />
<glyph unicode="&#x15e;" d="M94 298h158q0 -100 109 -156t275 -56q164 0 274 86t110 222q0 134 -94 222t-290 150q-486 150 -486 380q0 62 28 127t84 126t154 99t224 38q230 0 353 -74t167 -224h-158q0 102 -99 157t-263 55q-154 0 -237 -76t-83 -200q0 -118 76 -193t240 -125q300 -94 429 -196 t129 -232v-2q0 -172 -131 -290t-361 -134q26 -20 52 -60q38 -62 49 -96t11 -98q0 -48 -34 -68t-72 -20q-22 0 -43 6t-42 27t-21 55q0 32 32 76t32 70q0 42 -32 71t-64 37q-388 18 -476 296z" />
<glyph unicode="&#x15f;" d="M94 298h162q0 -102 107 -157t273 -55q118 0 198 15t135 65t55 134q0 212 -384 212q-218 0 -354 63t-136 171q0 124 130 201t382 77q236 0 345 -44t175 -170h-200q-42 80 -109 104t-211 24q-168 0 -255 -44t-87 -148q0 -54 53 -89t121 -47t146 -12q286 0 420 -92t134 -206 v-2q0 -156 -117 -223t-353 -73q32 -28 50 -60q40 -62 51 -96t11 -98q0 -48 -34 -68t-72 -20q-22 0 -44 6t-43 27t-21 55q0 32 32 76t32 70q0 42 -30 70t-60 36q-412 14 -502 298z" />
<glyph unicode="&#x160;" d="M94 298h158q0 -100 109 -156t275 -56q164 0 274 86t110 222q0 134 -94 222t-290 150q-486 150 -486 380q0 62 28 127t84 126t154 99t224 38q230 0 353 -74t167 -224h-158q0 102 -99 157t-263 55q-154 0 -237 -76t-83 -200q0 -118 76 -193t240 -125q300 -94 429 -196 t129 -232v-2q0 -184 -150 -305t-408 -121q-450 0 -542 298zM170 2004q0 36 29 61t65 25q34 0 60 -25t26 -61q0 -74 14 -98q8 -12 14 -19t19 -18t22 -18t34 -23t45 -28t64 -39t82 -49q26 16 60 36t51 31t39 25t33 20t25 16l21 15t16 12t14 13l10 12t11 14q14 24 14 98 q0 36 25 61t61 25q34 0 59 -25t25 -61q0 -18 -2 -32t-6 -27t-15 -26t-21 -25t-34 -29t-44 -31t-60 -39t-75 -46t-94 -58t-113 -71q-58 36 -122 75t-101 62t-78 49t-62 40t-45 33t-33 31t-19 28t-12 31t-2 35z" />
<glyph unicode="&#x161;" d="M94 298h162q0 -102 107 -157t273 -55q118 0 198 15t135 65t55 134q0 212 -384 212q-218 0 -354 63t-136 171q0 124 130 201t382 77q236 0 345 -44t175 -170h-200q-42 80 -109 104t-211 24q-168 0 -255 -44t-87 -148q0 -54 53 -89t121 -47t146 -12q286 0 420 -92t134 -206 v-2q0 -170 -137 -234t-421 -64q-450 0 -542 298zM170 1536q0 36 29 61t65 25q34 0 60 -25t26 -61q0 -74 14 -98q8 -12 14 -19t19 -18t22 -18t34 -23t45 -28t64 -39t82 -49q26 16 60 36t51 31t39 25t33 20t25 16l21 15t16 12t14 13l10 12t11 14q14 24 14 98q0 36 25 61t61 25 q34 0 59 -25t25 -61q0 -18 -2 -32t-6 -27t-15 -26t-21 -25t-34 -29t-44 -31t-60 -39t-75 -46t-94 -58t-113 -71q-58 36 -122 75t-101 62t-78 49t-62 40t-45 33t-33 31t-19 28t-12 31t-2 35z" />
<glyph unicode="&#x162;" d="M86 1450v86h1108v-86h-468v-1450h-24q38 -42 46 -58q40 -62 51 -96t11 -98q0 -48 -34 -68t-72 -20q-22 0 -43 6t-42 27t-21 55q0 32 32 76t32 70q0 44 -38 75t-70 31v2v90v1358h-468z" />
<glyph unicode="&#x163;" horiz-adv-x="682" d="M86 938v86h84v512h172v-512h256v-86h-256v-712q0 -140 32 -140q76 0 224 88v-90q-80 -50 -176 -74q16 -12 50 -60q40 -64 51 -98t11 -96q0 -86 -108 -86q-22 0 -43 5t-42 26t-21 55q0 32 32 76t32 70q0 68 -84 102q-130 24 -130 208v726h-84z" />
<glyph unicode="&#x164;" d="M86 1450v86h1108v-86h-468v-1450h-172v1450h-468zM166 2004q0 36 29 61t65 25q34 0 60 -25t26 -61q0 -74 14 -98q8 -12 14 -19t19 -18t22 -18t34 -23t45 -28t64 -39t82 -49q26 16 60 36t51 31t39 25t33 20t25 16l21 15t16 12t14 13l10 12t11 14q14 24 14 98q0 36 25 61 t61 25q34 0 59 -25t25 -61q0 -18 -2 -32t-6 -27t-15 -26t-21 -25t-34 -29t-44 -31t-60 -39t-75 -46t-94 -58t-113 -71q-58 36 -122 75t-101 62t-78 49t-62 40t-45 33t-33 31t-19 28t-12 31t-2 35z" />
<glyph unicode="&#x165;" horiz-adv-x="938" d="M86 938v86h84v512h172v-512h256v-86h-256v-712q0 -140 32 -140q76 0 224 88v-90q-136 -84 -256 -84q-172 0 -172 212v726h-84zM556 1174v92q18 0 35 13t33 58t16 113q0 36 26 61t60 25t60 -25t26 -61q0 -112 -102 -194t-154 -82z" />
<glyph unicode="&#x166;" horiz-adv-x="1450" d="M86 1450v86h1194v-86h-512v-170h256v-86h-256v-1194h-170v1194h-256v86h256v170h-512z" />
<glyph unicode="&#x167;" horiz-adv-x="682" d="M0 1194v86h170v256h172v-256h256v-86h-256v-256h170v-84h-170v-628q0 -140 32 -140q76 0 224 88v-90q-136 -84 -256 -84q-172 0 -172 212v642h-84v84h84v256h-170z" />
<glyph unicode="&#x168;" d="M86 426v1110h170v-1194q0 -106 112 -181t272 -75t272 75t112 181v1194h170v-1536q-60 0 -96 33t-74 33q-4 0 -126 -33t-258 -33q-260 0 -407 121t-147 305zM170 1750q0 56 18 120t69 121t123 57q86 0 151 -35t102 -86t68 -101t69 -85t86 -35q82 0 82 214h170 q0 -56 -18 -120t-68 -121t-122 -57q-80 0 -142 35t-102 85t-74 100t-74 85t-86 35q-82 0 -82 -212h-170z" />
<glyph unicode="&#x169;" d="M86 426v598h170v-682q0 -106 112 -181t272 -75t272 75t112 181v682h170v-1024q-58 0 -95 33t-75 33q-4 0 -126 -33t-258 -33q-260 0 -407 121t-147 305zM170 1324q0 56 18 120t69 121t123 57q86 0 151 -35t102 -86t68 -101t69 -85t86 -35q82 0 82 214h170q0 -56 -18 -120 t-68 -121t-122 -57q-80 0 -142 35t-102 85t-74 100t-74 85t-86 35q-82 0 -82 -212h-170z" />
<glyph unicode="&#x16a;" d="M84 1706v86h1110v-86h-1110zM86 426v1110h170v-1194q0 -106 112 -181t272 -75t272 75t112 181v1194h170v-1536q-60 0 -96 33t-74 33q-4 0 -126 -33t-258 -33q-260 0 -407 121t-147 305z" />
<glyph unicode="&#x16b;" d="M84 1366v86h1110v-86h-1110zM86 426v598h170v-682q0 -106 112 -181t272 -75t272 75t112 181v682h170v-1024q-58 0 -95 33t-75 33q-4 0 -126 -33t-258 -33q-260 0 -407 121t-147 305z" />
<glyph unicode="&#x16c;" d="M86 426v1110h170v-1194q0 -106 112 -181t272 -75t272 75t112 181v1194h170v-1536q-60 0 -96 33t-74 33q-4 0 -126 -33t-258 -33q-260 0 -407 121t-147 305zM170 2004q0 36 29 61t65 25q34 0 60 -25t26 -61q0 -12 -4 -48t-4 -50q0 -58 91 -136t211 -78q118 0 209 79 t91 135q0 14 -3 50t-3 48q0 36 25 61t61 25q34 0 59 -25t25 -61q0 -106 -139 -245t-325 -139q-100 0 -192 43t-152 105t-95 126t-35 110z" />
<glyph unicode="&#x16d;" d="M86 426v598h170v-682q0 -106 112 -181t272 -75t272 75t112 181v682h170v-1024q-58 0 -95 33t-75 33q-4 0 -126 -33t-258 -33q-260 0 -407 121t-147 305zM170 1528q0 36 29 61t65 25q34 0 60 -25t26 -61q0 -12 -4 -48t-4 -50q0 -58 91 -136t211 -78q118 0 209 79t91 135 q0 14 -3 50t-3 48q0 36 25 61t61 25q34 0 59 -25t25 -61q0 -106 -139 -245t-325 -139q-100 0 -192 43t-152 105t-95 126t-35 110z" />
<glyph unicode="&#x16e;" d="M86 426v1110h170v-1194q0 -106 112 -181t272 -75t272 75t112 181v1194h170v-1536q-60 0 -96 33t-74 33q-4 0 -126 -33t-258 -33q-260 0 -407 121t-147 305zM428 1834q0 88 62 151t150 63t151 -63t63 -151t-63 -150t-151 -62q-86 0 -149 63t-63 149zM512 1834 q0 -52 38 -90t90 -38q54 0 91 38t37 90q0 54 -37 91t-91 37q-52 0 -90 -37t-38 -91z" />
<glyph unicode="&#x16f;" d="M86 426v598h170v-682q0 -106 112 -181t272 -75t272 75t112 181v682h170v-1024q-58 0 -95 33t-75 33q-4 0 -126 -33t-258 -33q-260 0 -407 121t-147 305zM428 1320q0 88 62 151t150 63t151 -63t63 -151t-63 -150t-151 -62q-86 0 -149 63t-63 149zM512 1320q0 -52 38 -90 t90 -38q54 0 91 38t37 90q0 54 -37 91t-91 37q-52 0 -90 -37t-38 -91z" />
<glyph unicode="&#x170;" d="M86 426v1110h170v-1194q0 -106 112 -181t272 -75t272 75t112 181v1194h170v-1536q-60 0 -96 33t-74 33q-4 0 -126 -33t-258 -33q-260 0 -407 121t-147 305zM276 1820q18 0 35 13t34 58t17 113q0 36 25 61t61 25q34 0 59 -25t25 -61q0 -112 -92 -194t-142 -82 q-22 0 -22 92zM874 1820q18 0 35 13t34 58t17 113q0 36 25 61t59 25q36 0 61 -25t25 -61q0 -112 -92 -194t-142 -82q-22 0 -22 92z" />
<glyph unicode="&#x171;" d="M86 426v598h170v-682q0 -106 112 -181t272 -75t272 75t112 181v682h170v-1024q-58 0 -95 33t-75 33q-4 0 -126 -33t-258 -33q-260 0 -407 121t-147 305zM276 1352q18 0 35 13t34 58t17 113q0 36 25 61t61 25q34 0 59 -25t25 -61q0 -112 -92 -194t-142 -82q-22 0 -22 92z M874 1352q18 0 35 13t34 58t17 113q0 36 25 61t59 25q36 0 61 -25t25 -61q0 -112 -92 -194t-142 -82q-22 0 -22 92z" />
<glyph unicode="&#x172;" d="M86 426v1110h170v-1194q0 -106 112 -181t272 -75t272 75t112 181v1194h170v-1536q-22 0 -64 -30t-42 -78q0 -26 32 -70t32 -76q0 -48 -34 -68t-72 -20q-22 0 -44 6t-43 27t-21 55q0 62 11 95t51 99q34 52 92 96q-26 30 -68 30q-4 0 -126 -33t-258 -33q-260 0 -407 121 t-147 305z" />
<glyph unicode="&#x173;" d="M86 426v598h170v-682q0 -106 112 -181t272 -75t272 75t112 181v682h170v-1022v-2q-30 0 -68 -31t-38 -75q0 -26 32 -70t32 -76q0 -48 -34 -68t-72 -20q-22 0 -44 6t-43 27t-21 55q0 62 11 96t51 98q38 56 92 96q-28 28 -68 28q-4 0 -126 -33t-258 -33q-260 0 -407 121 t-147 305z" />
<glyph unicode="&#x174;" horiz-adv-x="2048" d="M86 426v1110h170v-1194q0 -114 74 -185t224 -71q156 0 249 73t93 183v596h170v-596q0 -110 93 -183t249 -73q150 0 224 71t74 185v1194h172v-1110q0 -96 -21 -168t-71 -133t-145 -93t-233 -32q-148 0 -239 41t-187 129q-100 -88 -191 -129t-237 -41q-240 0 -354 118 t-114 308zM508 1708q0 20 2 35t12 31t19 28t33 31t45 33t62 40t78 49t101 62t122 75q54 -34 113 -71t94 -58t75 -46t60 -39t44 -31t34 -29t21 -25t15 -26t6 -27t2 -32q0 -36 -25 -61t-59 -25q-36 0 -61 25t-25 61q0 74 -14 98q-6 8 -11 14l-10 12t-14 13t-16 12l-21 15 t-25 16t-33 20t-39 25t-51 31t-60 36q-38 -22 -82 -49t-64 -39t-45 -28t-34 -23t-22 -18t-19 -18t-14 -19q-14 -24 -14 -98q0 -36 -26 -61t-60 -25q-36 0 -65 25t-29 61z" />
<glyph unicode="&#x175;" horiz-adv-x="1962" d="M86 426v598h170v-682q0 -114 74 -185t224 -71q152 0 226 71t74 185v426h170v-426q0 -114 74 -185t224 -71q152 0 226 71t74 185v682h170v-598q0 -96 -21 -168t-71 -133t-145 -93t-233 -32q-94 0 -161 21t-102 46t-99 83q-14 14 -22 20q-110 -98 -156 -124 q-86 -46 -228 -46q-240 0 -354 118t-114 308zM466 1238q0 20 2 35t12 31t19 28t33 31t45 33t62 40t78 49t101 62t122 75q54 -34 113 -71t94 -58t75 -46t60 -39t44 -31t34 -29t21 -25t15 -26t6 -27t2 -32q0 -36 -25 -61t-59 -25q-36 0 -61 25t-25 61q0 74 -14 98q-6 8 -11 14 l-10 12t-14 13t-16 12l-21 15t-25 16t-33 20t-39 25t-51 31t-60 36q-38 -22 -82 -49t-64 -39t-45 -28t-34 -23t-22 -18t-19 -18t-14 -19q-14 -24 -14 -98q0 -36 -26 -61t-60 -25q-36 0 -65 25t-29 61z" />
<glyph unicode="&#x176;" d="M86 428v1108h170v-1192q0 -108 112 -183t272 -75t272 75t112 183v1192h170v-1536q0 -204 -145 -315t-409 -111q-192 0 -330 69t-214 187h146q48 -74 161 -123t237 -49q158 0 271 75t113 181v172q-168 -86 -384 -86q-260 0 -407 122t-147 306zM166 1708q0 20 2 35t12 31 t19 28t33 31t45 33t62 40t78 49t101 62t122 75q54 -34 113 -71t94 -58t75 -46t60 -39t44 -31t34 -29t21 -25t15 -26t6 -27t2 -32q0 -36 -25 -61t-59 -25q-36 0 -61 25t-25 61q0 74 -14 98q-6 8 -11 14l-10 12t-14 13t-16 12l-21 15t-25 16t-33 20t-39 25t-51 31t-60 36 q-38 -22 -82 -49t-64 -39t-45 -28t-34 -23t-22 -18t-19 -18t-14 -19q-14 -24 -14 -98q0 -36 -26 -61t-60 -25q-36 0 -65 25t-29 61z" />
<glyph unicode="&#x177;" d="M86 428v596h170v-680q0 -108 112 -183t272 -75t272 75t112 183v680h170v-1024q0 -184 -149 -305t-405 -121q-192 0 -330 69t-214 187h146q48 -74 161 -123t237 -49q158 0 271 75t113 181v172q-168 -86 -384 -86q-260 0 -407 122t-147 306zM166 1234q0 20 2 35t12 31 t19 28t33 31t45 33t62 40t78 49t101 62t122 75q54 -34 113 -71t94 -58t75 -46t60 -39t44 -31t34 -29t21 -25t15 -26t6 -27t2 -32q0 -36 -25 -61t-59 -25q-36 0 -61 25t-25 61q0 74 -14 98q-6 8 -11 14l-10 12t-14 13t-16 12l-21 15t-25 16t-33 20t-39 25t-51 31t-60 36 q-38 -22 -82 -49t-64 -39t-45 -28t-34 -23t-22 -18t-19 -18t-14 -19q-14 -24 -14 -98q0 -36 -26 -61t-60 -25q-36 0 -65 25t-29 61z" />
<glyph unicode="&#x178;" d="M86 428v1108h170v-1192q0 -108 112 -183t272 -75t272 75t112 183v1192h170v-1536q0 -204 -145 -315t-409 -111q-192 0 -330 69t-214 187h146q48 -74 161 -123t237 -49q158 0 271 75t113 181v172q-168 -86 -384 -86q-260 0 -407 122t-147 306zM212 1792q0 36 26 61t60 25 t60 -25t26 -61q0 -34 -26 -59t-60 -25t-60 25t-26 59zM896 1792q0 36 25 61t59 25q36 0 61 -25t25 -61q0 -34 -25 -59t-61 -25q-34 0 -59 25t-25 59z" />
<glyph unicode="&#x179;" horiz-adv-x="1450" d="M86 0l52 86l786 1230q30 56 30 88q0 46 -58 46h-726v86h1098l-56 -86l-870 -1364h938v-86h-1194zM138 86zM640 1856q18 0 35 13t34 58t17 113q0 36 25 61t59 25q36 0 61 -25t25 -61q0 -112 -89 -194t-139 -82q-28 0 -28 92zM1212 1450z" />
<glyph unicode="&#x17a;" d="M86 0l672 798q50 60 50 96q0 44 -84 44h-596v86h1046l-794 -938h814v-86h-1108zM554 1352q18 0 35 13t34 58t17 113q0 36 25 61t59 25q36 0 61 -25t25 -61q0 -112 -89 -194t-139 -82q-28 0 -28 92z" />
<glyph unicode="&#x17b;" horiz-adv-x="1450" d="M86 0l52 86l786 1230q30 56 30 88q0 46 -58 46h-726v86h1098l-56 -86l-870 -1364h938v-86h-1194zM138 86zM640 1830q0 36 25 61t61 25q34 0 59 -25t25 -61q0 -34 -25 -59t-59 -25q-36 0 -61 25t-25 59zM1212 1450z" />
<glyph unicode="&#x17c;" d="M86 0l672 798q50 60 50 96q0 44 -84 44h-596v86h1046l-794 -938h814v-86h-1108zM554 1450q0 36 25 61t61 25q34 0 59 -25t25 -61q0 -34 -25 -59t-59 -25q-36 0 -61 25t-25 59z" />
<glyph unicode="&#x17d;" horiz-adv-x="1450" d="M86 0l52 86l786 1230q30 56 30 88q0 46 -58 46h-726v86h1098l-56 -86l-870 -1364h938v-86h-1194zM138 86zM252 2004q0 36 29 61t65 25q34 0 60 -25t26 -61q0 -74 14 -98q8 -12 14 -19t19 -18t22 -18t34 -23t45 -28t64 -39t82 -49q26 16 60 36t51 31t39 25t33 20t25 16 l21 15t16 12t14 13l10 12t11 14q14 24 14 98q0 36 25 61t61 25q34 0 59 -25t25 -61q0 -18 -2 -32t-6 -27t-15 -26t-21 -25t-34 -29t-44 -31t-60 -39t-75 -46t-94 -58t-113 -71q-58 36 -122 75t-101 62t-78 49t-62 40t-45 33t-33 31t-19 28t-12 31t-2 35zM1212 1450z" />
<glyph unicode="&#x17e;" d="M86 0l672 798q50 60 50 96q0 44 -84 44h-596v86h1046l-794 -938h814v-86h-1108zM252 1536q0 36 29 61t65 25q34 0 60 -25t26 -61q0 -74 14 -98q8 -12 14 -19t19 -18t22 -18t34 -23t45 -28t64 -39t82 -49q26 16 60 36t51 31t39 25t33 20t25 16l21 15t16 12t14 13l10 12 t11 14q14 24 14 98q0 36 25 61t61 25q34 0 59 -25t25 -61q0 -18 -2 -32t-6 -27t-15 -26t-21 -25t-34 -29t-44 -31t-60 -39t-75 -46t-94 -58t-113 -71q-58 36 -122 75t-101 62t-78 49t-62 40t-45 33t-33 31t-19 28t-12 31t-2 35z" />
<glyph unicode="&#x1cd;" d="M86 0v1152q0 180 146 282t408 102q264 0 409 -103t145 -281v-1152h-170v854h-768v-854h-170zM170 2004q0 36 29 61t65 25q34 0 60 -25t26 -61q0 -74 14 -98q8 -12 14 -19t19 -18t22 -18t34 -23t45 -28t64 -39t82 -49q26 16 60 36t51 31t39 25t33 20t25 16l21 15t16 12 t14 13l10 12t11 14q14 24 14 98q0 36 25 61t61 25q34 0 59 -25t25 -61q0 -18 -2 -32t-6 -27t-15 -26t-21 -25t-34 -29t-44 -31t-60 -39t-75 -46t-94 -58t-113 -71q-58 36 -122 75t-101 62t-78 49t-62 40t-45 33t-33 31t-19 28t-12 31t-2 35zM256 938h768v300q0 102 -109 157 t-275 55t-275 -55t-109 -157v-300z" />
<glyph unicode="&#x1ce;" d="M86 406q0 128 136 166q94 26 418 26h384v128q0 102 -109 157t-275 55q-232 0 -330 -96l-94 94q170 88 422 88q266 0 411 -103t145 -281v-640q-58 0 -95 33t-75 33q-4 0 -126 -33t-258 -33q-256 0 -405 121t-149 285zM170 1536q0 36 29 61t65 25q34 0 60 -25t26 -61 q0 -74 14 -98q8 -12 14 -19t19 -18t22 -18t34 -23t45 -28t64 -39t82 -49q26 16 60 36t51 31t39 25t33 20t25 16l21 15t16 12t14 13l10 12t11 14q14 24 14 98q0 36 25 61t61 25q34 0 59 -25t25 -61q0 -18 -2 -32t-6 -27t-15 -26t-21 -25t-34 -29t-44 -31t-60 -39t-75 -46 t-94 -58t-113 -71q-58 36 -122 75t-101 62t-78 49t-62 40t-45 33t-33 31t-19 28t-12 31t-2 35zM256 342q0 -106 112 -181t272 -75t272 75t112 181v170h-384q-86 0 -150 -7t-120 -25t-85 -53t-29 -85z" />
<glyph unicode="&#x1cf;" horiz-adv-x="426" d="M-128 2040q0 36 19 61t42 25q22 0 39 -25t17 -61q0 -74 10 -98q5 -12 9 -19t12.5 -18t14 -18t22 -23t29.5 -28t42 -39t54 -49q17 16 39 36t33.5 31t25.5 25t21.5 20t16.5 16l13.5 15t10.5 12t9.5 13t6.5 12l7 14q9 24 9 98q0 36 16.5 61t40.5 25q22 0 38.5 -25t16.5 -61 q0 -18 -1.5 -32t-4 -27t-10 -26t-14 -25t-22 -29t-28.5 -31t-39.5 -39t-49.5 -46t-61.5 -58t-73.5 -71q-38 36 -80 75t-66 62t-51 49t-41 40t-29.5 33t-21.5 31t-12.5 28t-7.5 31t-1 35zM86 0v1536h170v-1536h-170z" />
<glyph unicode="&#x1d0;" horiz-adv-x="596" d="M0 1536q0 34 22 60t50 26q26 0 46 -26t20 -60q0 -24 -3 -53t-3 -37q0 -32 28 -62t140 -118q110 86 141 118t31 62q0 8 -3 37t-3 53q0 36 19 61t47 25q26 0 46 -26t20 -60q0 -88 -35 -131t-249 -219q-8 -8 -14 -12q-226 184 -263 229t-37 133zM86 212v812h170v-798 q0 -140 32 -140q76 0 224 88v-90q-136 -84 -256 -84q-170 0 -170 212z" />
<glyph unicode="&#x1d1;" d="M86 426v726q0 180 146 282t408 102q264 0 409 -103t145 -281v-726q0 -184 -149 -305t-405 -121q-260 0 -407 121t-147 305zM170 2004q0 36 29 61t65 25q34 0 60 -25t26 -61q0 -74 14 -98q8 -12 14 -19t19 -18t22 -18t34 -23t45 -28t64 -39t82 -49q26 16 60 36t51 31 t39 25t33 20t25 16l21 15t16 12t14 13l10 12t11 14q14 24 14 98q0 36 25 61t61 25q34 0 59 -25t25 -61q0 -18 -2 -32t-6 -27t-15 -26t-21 -25t-34 -29t-44 -31t-60 -39t-75 -46t-94 -58t-113 -71q-58 36 -122 75t-101 62t-78 49t-62 40t-45 33t-33 31t-19 28t-12 31t-2 35z M256 342q0 -106 112 -181t272 -75t272 75t112 181v896q0 102 -109 157t-275 55t-275 -55t-109 -157v-896z" />
<glyph unicode="&#x1d2;" d="M86 426v214q0 180 146 282t408 102q264 0 409 -103t145 -281v-214q0 -184 -149 -305t-405 -121q-260 0 -407 121t-147 305zM170 1536q0 36 29 61t65 25q34 0 60 -25t26 -61q0 -74 14 -98q8 -12 14 -19t19 -18t22 -18t34 -23t45 -28t64 -39t82 -49q26 16 60 36t51 31 t39 25t33 20t25 16l21 15t16 12t14 13l10 12t11 14q14 24 14 98q0 36 25 61t61 25q34 0 59 -25t25 -61q0 -18 -2 -32t-6 -27t-15 -26t-21 -25t-34 -29t-44 -31t-60 -39t-75 -46t-94 -58t-113 -71q-58 36 -122 75t-101 62t-78 49t-62 40t-45 33t-33 31t-19 28t-12 31t-2 35z M256 342q0 -106 112 -181t272 -75t272 75t112 181v384q0 102 -109 157t-275 55t-275 -55t-109 -157v-384z" />
<glyph unicode="&#x1d3;" d="M86 426v1110h170v-1194q0 -106 112 -181t272 -75t272 75t112 181v1194h170v-1536q-60 0 -96 33t-74 33q-4 0 -126 -33t-258 -33q-260 0 -407 121t-147 305zM170 2004q0 36 29 61t65 25q34 0 60 -25t26 -61q0 -74 14 -98q8 -12 14 -19t19 -18t22 -18t34 -23t45 -28t64 -39 t82 -49q26 16 60 36t51 31t39 25t33 20t25 16l21 15t16 12t14 13l10 12t11 14q14 24 14 98q0 36 25 61t61 25q34 0 59 -25t25 -61q0 -18 -2 -32t-6 -27t-15 -26t-21 -25t-34 -29t-44 -31t-60 -39t-75 -46t-94 -58t-113 -71q-58 36 -122 75t-101 62t-78 49t-62 40t-45 33 t-33 31t-19 28t-12 31t-2 35z" />
<glyph unicode="&#x1d4;" d="M86 426v598h170v-682q0 -106 112 -181t272 -75t272 75t112 181v682h170v-1024q-58 0 -95 33t-75 33q-4 0 -126 -33t-258 -33q-260 0 -407 121t-147 305zM170 1536q0 36 29 61t65 25q34 0 60 -25t26 -61q0 -74 14 -98q8 -12 14 -19t19 -18t22 -18t34 -23t45 -28t64 -39 t82 -49q26 16 60 36t51 31t39 25t33 20t25 16l21 15t16 12t14 13l10 12t11 14q14 24 14 98q0 36 25 61t61 25q34 0 59 -25t25 -61q0 -18 -2 -32t-6 -27t-15 -26t-21 -25t-34 -29t-44 -31t-60 -39t-75 -46t-94 -58t-113 -71q-58 36 -122 75t-101 62t-78 49t-62 40t-45 33 t-33 31t-19 28t-12 31t-2 35z" />
<glyph unicode="&#x1d5;" d="M84 1960v86h1110v-86h-1110zM86 426v1110h170v-1194q0 -106 112 -181t272 -75t272 75t112 181v1194h170v-1536q-60 0 -96 33t-74 33q-4 0 -126 -33t-258 -33q-260 0 -407 121t-147 305zM212 1792q0 36 26 61t60 25t60 -25t26 -61q0 -34 -26 -59t-60 -25t-60 25t-26 59z M896 1792q0 36 25 61t59 25q36 0 61 -25t25 -61q0 -34 -25 -59t-61 -25q-34 0 -59 25t-25 59z" />
<glyph unicode="&#x1d6;" d="M84 1622v86h1110v-86h-1110zM86 426v598h170v-682q0 -106 112 -181t272 -75t272 75t112 181v682h170v-1024q-58 0 -95 33t-75 33q-4 0 -126 -33t-258 -33q-260 0 -407 121t-147 305zM212 1450q0 36 26 61t60 25t60 -25t26 -61q0 -34 -26 -59t-60 -25t-60 25t-26 59z M896 1450q0 36 25 61t59 25q36 0 61 -25t25 -61q0 -34 -25 -59t-61 -25q-34 0 -59 25t-25 59z" />
<glyph unicode="&#x1d8;" d="M86 426v598h170v-682q0 -106 112 -181t272 -75t272 75t112 181v682h170v-1024q-58 0 -95 33t-75 33q-4 0 -126 -33t-258 -33q-260 0 -407 121t-147 305zM212 1450q0 36 26 61t60 25t60 -25t26 -61q0 -34 -26 -59t-60 -25t-60 25t-26 59zM534 1716q18 0 35 13t34 58 t17 113q0 36 25 61t59 25q36 0 61 -25t25 -61q0 -112 -89 -194t-139 -82q-28 0 -28 92zM896 1450q0 36 25 61t59 25q36 0 61 -25t25 -61q0 -34 -25 -59t-61 -25q-34 0 -59 25t-25 59z" />
<glyph unicode="&#x1da;" d="M86 426v598h170v-682q0 -106 112 -181t272 -75t272 75t112 181v682h170v-1024q-58 0 -95 33t-75 33q-4 0 -126 -33t-258 -33q-260 0 -407 121t-147 305zM170 2004q0 36 29 61t65 25q34 0 60 -25t26 -61q0 -74 14 -98q8 -12 14 -19t19 -18t22 -18t34 -23t45 -28t64 -39 t82 -49q26 16 60 36t51 31t39 25t33 20t25 16l21 15t16 12t14 13l10 12t11 14q14 24 14 98q0 36 25 61t61 25q34 0 59 -25t25 -61q0 -18 -2 -32t-6 -27t-15 -26t-21 -25t-34 -29t-44 -31t-60 -39t-75 -46t-94 -58t-113 -71q-58 36 -122 75t-101 62t-78 49t-62 40t-45 33 t-33 31t-19 28t-12 31t-2 35zM212 1450q0 36 26 61t60 25t60 -25t26 -61q0 -34 -26 -59t-60 -25t-60 25t-26 59zM896 1450q0 36 25 61t59 25q36 0 61 -25t25 -61q0 -34 -25 -59t-61 -25q-34 0 -59 25t-25 59z" />
<glyph unicode="&#x1dc;" d="M86 426v598h170v-682q0 -106 112 -181t272 -75t272 75t112 181v682h170v-1024q-58 0 -95 33t-75 33q-4 0 -126 -33t-258 -33q-260 0 -407 121t-147 305zM212 1450q0 36 26 61t60 25t60 -25t26 -61q0 -34 -26 -59t-60 -25t-60 25t-26 59zM512 1898q0 36 26 61t60 25 t60 -25t26 -61q0 -68 16 -113t33 -58t35 -13q0 -92 -28 -92q-50 0 -139 82t-89 194zM896 1450q0 36 25 61t59 25q36 0 61 -25t25 -61q0 -34 -25 -59t-61 -25q-34 0 -59 25t-25 59z" />
<glyph unicode="&#x1de;" d="M84 1960v86h1110v-86h-1110zM86 0v1152q0 180 146 282t408 102q264 0 409 -103t145 -281v-1152h-170v854h-768v-854h-170zM212 1792q0 36 26 61t60 25t60 -25t26 -61q0 -34 -26 -59t-60 -25t-60 25t-26 59zM256 938h768v300q0 102 -109 157t-275 55t-275 -55t-109 -157 v-300zM896 1792q0 36 25 61t59 25q36 0 61 -25t25 -61q0 -34 -25 -59t-61 -25q-34 0 -59 25t-25 59z" />
<glyph unicode="&#x1df;" d="M84 1622v86h1110v-86h-1110zM86 406q0 128 136 166q94 26 418 26h384v128q0 102 -109 157t-275 55q-232 0 -330 -96l-94 94q170 88 422 88q266 0 411 -103t145 -281v-640q-58 0 -95 33t-75 33q-4 0 -126 -33t-258 -33q-256 0 -405 121t-149 285zM212 1450q0 36 26 61 t60 25t60 -25t26 -61q0 -34 -26 -59t-60 -25t-60 25t-26 59zM256 342q0 -106 112 -181t272 -75t272 75t112 181v170h-384q-86 0 -150 -7t-120 -25t-85 -53t-29 -85zM896 1450q0 36 25 61t59 25q36 0 61 -25t25 -61q0 -34 -25 -59t-61 -25q-34 0 -59 25t-25 59z" />
<glyph unicode="&#x1e0;" d="M84 1950v86h1110v-86h-1110zM86 0v1152q0 180 146 282t408 102q264 0 409 -103t145 -281v-1152h-170v854h-768v-854h-170zM256 938h768v300q0 102 -109 157t-275 55t-275 -55t-109 -157v-300zM554 1742q0 36 25 61t61 25q34 0 59 -25t25 -61q0 -34 -25 -59t-59 -25 q-36 0 -61 25t-25 59z" />
<glyph unicode="&#x1e1;" d="M84 1706v86h1110v-86h-1110zM86 406q0 128 136 166q94 26 418 26h384v128q0 102 -109 157t-275 55q-232 0 -330 -96l-94 94q170 88 422 88q266 0 411 -103t145 -281v-640q-58 0 -95 33t-75 33q-4 0 -126 -33t-258 -33q-256 0 -405 121t-149 285zM256 342q0 -106 112 -181 t272 -75t272 75t112 181v170h-384q-86 0 -150 -7t-120 -25t-85 -53t-29 -85zM554 1450q0 36 25 61t61 25q34 0 59 -25t25 -61q0 -34 -25 -59t-59 -25q-36 0 -61 25t-25 59z" />
<glyph unicode="&#x1e2;" horiz-adv-x="2304" d="M86 0v1152q0 180 146 282t408 102q176 0 384 -90v90h1110v-86h-684q-68 0 -101 -3t-76 -15t-61 -42t-18 -80v-372h684v-84h-684v-628q0 -50 18 -80t61 -42t76 -15t101 -3h684v-86h-1110v854h-768v-854h-170zM256 938h768v300q0 102 -109 157t-275 55t-275 -55t-109 -157 v-300zM554 1792v86h1110v-86h-1110z" />
<glyph unicode="&#x1e3;" horiz-adv-x="2304" d="M86 406q0 128 136 166q94 26 418 26h384v128q0 102 -109 157t-275 55q-232 0 -330 -96l-94 94q170 88 424 88q278 0 470 -156q178 156 468 156q260 0 408 -121t148 -305v-86h-940v-170q0 -106 113 -181t271 -75q164 0 270 56t114 156h172q-44 -136 -187 -217t-369 -81 q-212 0 -384 86v-86q-34 0 -81 33t-89 33q-4 0 -126 -33t-258 -33q-256 0 -405 121t-149 285zM256 342q0 -106 112 -181t272 -75t272 75t112 181v170h-384q-86 0 -150 -7t-120 -25t-85 -53t-29 -85zM554 1366v86h1110v-86h-1110zM1194 598h768v128q0 102 -109 157t-275 55 t-275 -56t-109 -156v-128z" />
<glyph unicode="&#x1e4;" horiz-adv-x="1280" d="M86 426v726q0 180 146 282t408 102q452 0 542 -298h-158q0 102 -109 157t-275 55t-275 -55t-109 -157v-896q0 -106 112 -181t272 -75t272 75t112 181v84h-426v86h426v342h-342v84h512v-426h86v-86h-86q0 -184 -149 -305t-405 -121q-260 0 -407 121t-147 305z" />
<glyph unicode="&#x1e5;" horiz-adv-x="1280" d="M86 426v214q0 180 146 282t408 102q264 0 409 -103t145 -281v-640q0 -68 -30 -128h116v-86h-170q-96 -98 -203 -155t-267 -57q-192 0 -330 69t-214 187h146q48 -74 161 -123t237 -49q104 0 192 35t140 93h-374v86h420q6 20 6 42v172q-168 -86 -384 -86q-260 0 -407 121 t-147 305zM256 342q0 -106 112 -181t272 -75t272 75t112 181v384q0 102 -109 157t-275 55t-275 -55t-109 -157v-384z" />
<glyph unicode="&#x1e6;" d="M86 426v726q0 180 146 282t408 102q452 0 542 -298h-158q0 102 -109 157t-275 55t-275 -55t-109 -157v-896q0 -106 112 -181t272 -75t272 75t112 181v512h-342v84h512v-512q0 -184 -149 -305t-405 -121q-260 0 -407 121t-147 305zM170 2004q0 36 29 61t65 25q34 0 60 -25 t26 -61q0 -74 14 -98q8 -12 14 -19t19 -18t22 -18t34 -23t45 -28t64 -39t82 -49q26 16 60 36t51 31t39 25t33 20t25 16l21 15t16 12t14 13l10 12t11 14q14 24 14 98q0 36 25 61t61 25q34 0 59 -25t25 -61q0 -18 -2 -32t-6 -27t-15 -26t-21 -25t-34 -29t-44 -31t-60 -39 t-75 -46t-94 -58t-113 -71q-58 36 -122 75t-101 62t-78 49t-62 40t-45 33t-33 31t-19 28t-12 31t-2 35z" />
<glyph unicode="&#x1e7;" d="M86 426v214q0 180 146 282t408 102q264 0 409 -103t145 -281v-640q0 -184 -149 -305t-405 -121q-192 0 -330 69t-214 187h146q48 -74 161 -123t237 -49q158 0 271 75t113 181v172q-168 -86 -384 -86q-260 0 -407 121t-147 305zM170 1536q0 36 29 61t65 25q34 0 60 -25 t26 -61q0 -74 14 -98q8 -12 14 -19t19 -18t22 -18t34 -23t45 -28t64 -39t82 -49q26 16 60 36t51 31t39 25t33 20t25 16l21 15t16 12t14 13l10 12t11 14q14 24 14 98q0 36 25 61t61 25q34 0 59 -25t25 -61q0 -18 -2 -32t-6 -27t-15 -26t-21 -25t-34 -29t-44 -31t-60 -39 t-75 -46t-94 -58t-113 -71q-58 36 -122 75t-101 62t-78 49t-62 40t-45 33t-33 31t-19 28t-12 31t-2 35zM256 342q0 -106 112 -181t272 -75t272 75t112 181v384q0 102 -109 157t-275 55t-275 -55t-109 -157v-384z" />
<glyph unicode="&#x1e8;" d="M86 0v1536h170v-370l874 370l64 -72l-480 -216q480 -48 480 -438v-810h-170v896q0 128 -127 205t-365 77l-276 -110v-1068h-170zM170 2004q0 36 29 61t65 25q34 0 60 -25t26 -61q0 -74 14 -98q8 -12 14 -19t19 -18t22 -18t34 -23t45 -28t64 -39t82 -49q26 16 60 36t51 31 t39 25t33 20t25 16l21 15t16 12t14 13l10 12t11 14q14 24 14 98q0 36 25 61t61 25q34 0 59 -25t25 -61q0 -18 -2 -32t-6 -27t-15 -26t-21 -25t-34 -29t-44 -31t-60 -39t-75 -46t-94 -58t-113 -71q-58 36 -122 75t-101 62t-78 49t-62 40t-45 33t-33 31t-19 28t-12 31t-2 35z " />
<glyph unicode="&#x1e9;" d="M86 0v1536h170v-882l874 370l64 -72l-446 -190q206 -30 326 -123t120 -233v-406h-170v448q0 100 -146 172t-312 72l-310 -136v-556h-170zM170 2004q0 36 29 61t65 25q34 0 60 -25t26 -61q0 -74 14 -98q8 -12 14 -19t19 -18t22 -18t34 -23t45 -28t64 -39t82 -49 q26 16 60 36t51 31t39 25t33 20t25 16l21 15t16 12t14 13l10 12t11 14q14 24 14 98q0 36 25 61t61 25q34 0 59 -25t25 -61q0 -18 -2 -32t-6 -27t-15 -26t-21 -25t-34 -29t-44 -31t-60 -39t-75 -46t-94 -58t-113 -71q-58 36 -122 75t-101 62t-78 49t-62 40t-45 33t-33 31 t-19 28t-12 31t-2 35z" />
<glyph unicode="&#x1ea;" d="M86 426v726q0 180 146 282t408 102q264 0 409 -103t145 -281v-726q0 -184 -149 -305t-405 -121q-24 0 -65 -30t-41 -78q0 -26 32 -70t32 -76q0 -48 -35 -68t-73 -20q-22 0 -44 6t-42 27t-20 55q0 62 11 96t51 98q18 32 60 70q-200 30 -310 145t-110 271zM256 342 q0 -106 112 -181t272 -75t272 75t112 181v896q0 102 -109 157t-275 55t-275 -55t-109 -157v-896z" />
<glyph unicode="&#x1eb;" d="M86 426v214q0 180 146 282t408 102q264 0 409 -103t145 -281v-214q0 -184 -149 -305t-405 -121q-24 0 -65 -30t-41 -78q0 -26 32 -70t32 -76q0 -48 -35 -68t-73 -20q-22 0 -44 6t-42 27t-20 55q0 62 11 96t51 98q18 32 60 70q-200 30 -310 145t-110 271zM256 342 q0 -106 112 -181t272 -75t272 75t112 181v384q0 102 -109 157t-275 55t-275 -55t-109 -157v-384z" />
<glyph unicode="&#x1ec;" d="M84 1706v86h1110v-86h-1110zM86 426v726q0 180 146 282t408 102q264 0 409 -103t145 -281v-726q0 -184 -149 -305t-405 -121q-24 0 -65 -30t-41 -78q0 -26 32 -70t32 -76q0 -48 -35 -68t-73 -20q-22 0 -44 6t-42 27t-20 55q0 62 11 96t51 98q18 32 60 70 q-200 30 -310 145t-110 271zM256 342q0 -106 112 -181t272 -75t272 75t112 181v896q0 102 -109 157t-275 55t-275 -55t-109 -157v-896z" />
<glyph unicode="&#x1ed;" d="M84 1366v86h1110v-86h-1110zM86 426v214q0 180 146 282t408 102q264 0 409 -103t145 -281v-214q0 -184 -149 -305t-405 -121q-24 0 -65 -30t-41 -78q0 -26 32 -70t32 -76q0 -48 -35 -68t-73 -20q-22 0 -44 6t-42 27t-20 55q0 62 11 96t51 98q18 32 60 70 q-200 30 -310 145t-110 271zM256 342q0 -106 112 -181t272 -75t272 75t112 181v384q0 102 -109 157t-275 55t-275 -55t-109 -157v-384z" />
<glyph unicode="&#x1f0;" horiz-adv-x="512" d="M-86 1536q0 34 23 60t51 26q26 0 46 -26t20 -60q0 -68 10 -98q2 -6 6 -17t7 -17t10 -18t18 -23t28 -29t43 -40t62 -50q50 38 81 65t49 49t23 28t13 28t8 24q10 24 10 98q0 34 20 60t46 26t46 -26t20 -60q0 -52 -3 -73t-40 -67t-89 -90t-184 -154q-234 190 -279 243 t-45 141zM0 -316q50 -26 96 -26q32 0 32 142v1224h170v-1240q0 -210 -170 -210q-76 0 -128 18v92z" />
<glyph unicode="&#x1f4;" d="M86 426v726q0 180 146 282t408 102q452 0 542 -298h-158q0 102 -109 157t-275 55t-275 -55t-109 -157v-896q0 -106 112 -181t272 -75t272 75t112 181v512h-342v84h512v-512q0 -184 -149 -305t-405 -121q-260 0 -407 121t-147 305zM598 1820q18 0 35 13t34 58t17 113 q0 36 25 61t59 25q36 0 61 -25t25 -61q0 -112 -89 -194t-139 -82q-28 0 -28 92z" />
<glyph unicode="&#x1f5;" d="M86 426v214q0 180 146 282t408 102q264 0 409 -103t145 -281v-640q0 -184 -149 -305t-405 -121q-192 0 -330 69t-214 187h146q48 -74 161 -123t237 -49q158 0 271 75t113 181v172q-168 -86 -384 -86q-260 0 -407 121t-147 305zM256 342q0 -106 112 -181t272 -75t272 75 t112 181v384q0 102 -109 157t-275 55t-275 -55t-109 -157v-384zM512 1352q18 0 35 13t34 58t17 113q0 36 25 61t59 25q36 0 61 -25t25 -61q0 -112 -89 -194t-139 -82q-28 0 -28 92z" />
<glyph unicode="&#x1f8;" d="M86 0v1536h554q264 0 409 -103t145 -281v-1152h-170v1238q0 102 -109 157t-275 55t-275 -55t-109 -157v-1238h-170zM426 2004q0 36 26 61t60 25t60 -25t26 -61q0 -68 16 -113t33 -58t35 -13q0 -92 -28 -92q-50 0 -139 82t-89 194z" />
<glyph unicode="&#x1f9;" d="M86 0v1024h170v-68q164 68 384 68q264 0 409 -103t145 -281v-640h-170v726q0 102 -109 157t-275 55t-275 -55t-109 -157v-726h-170zM512 1536q0 36 26 61t60 25t60 -25t26 -61q0 -68 16 -113t33 -58t35 -13q0 -92 -28 -92q-50 0 -139 82t-89 194z" />
<glyph unicode="&#x1fb;" d="M86 406q0 128 136 166q94 26 418 26h384v128q0 102 -109 157t-275 55q-232 0 -330 -96l-94 94q170 88 422 88q266 0 411 -103t145 -281v-640q-58 0 -95 33t-75 33q-4 0 -126 -33t-258 -33q-256 0 -405 121t-149 285zM256 342q0 -106 112 -181t272 -75t272 75t112 181v170 h-384q-86 0 -150 -7t-120 -25t-85 -53t-29 -85zM418 1322q0 88 62 151t150 63t151 -63t63 -151t-63 -150t-151 -62q-86 0 -149 63t-63 149zM502 1322q0 -52 38 -90t90 -38q54 0 91 38t37 90q0 54 -37 91t-91 37q-52 0 -90 -37t-38 -91zM512 1750q18 0 35 13t34 58t17 113 q0 36 25 61t59 25q36 0 61 -25t25 -61q0 -112 -89 -194t-139 -82q-28 0 -28 92z" />
<glyph unicode="&#x1fc;" horiz-adv-x="2304" d="M86 0v1152q0 180 146 282t408 102q176 0 384 -90v90h1110v-86h-684q-68 0 -101 -3t-76 -15t-61 -42t-18 -80v-372h684v-84h-684v-628q0 -50 18 -80t61 -42t76 -15t101 -3h684v-86h-1110v854h-768v-854h-170zM256 938h768v300q0 102 -109 157t-275 55t-275 -55t-109 -157 v-300zM1024 1820q18 0 35 13t34 58t17 113q0 36 25 61t59 25q36 0 61 -25t25 -61q0 -112 -89 -194t-139 -82q-28 0 -28 92z" />
<glyph unicode="&#x1fd;" horiz-adv-x="2304" d="M86 406q0 128 136 166q94 26 418 26h384v128q0 102 -109 157t-275 55q-232 0 -330 -96l-94 94q170 88 424 88q278 0 470 -156q178 156 468 156q260 0 408 -121t148 -305v-86h-940v-170q0 -106 113 -181t271 -75q164 0 270 56t114 156h172q-44 -136 -187 -217t-369 -81 q-212 0 -384 86v-86q-34 0 -81 33t-89 33q-4 0 -126 -33t-258 -33q-256 0 -405 121t-149 285zM256 342q0 -106 112 -181t272 -75t272 75t112 181v170h-384q-86 0 -150 -7t-120 -25t-85 -53t-29 -85zM982 1352q18 0 35 13t34 58t17 113q0 36 25 61t59 25q36 0 61 -25t25 -61 q0 -112 -89 -194t-139 -82q-28 0 -28 92zM1194 598h768v128q0 102 -109 157t-275 55t-275 -56t-109 -156v-128z" />
<glyph unicode="&#x1fe;" d="M86 426v726q0 180 146 282t408 102q148 0 284 -38l70 124h116l-88 -156q100 -68 136 -137t36 -177v-726q0 -184 -149 -305t-405 -121q-218 0 -386 86l-48 -86h-110l74 134q-84 70 -84 292zM256 342q0 -22 6 -44l616 1114q-96 38 -238 38q-166 0 -275 -55t-109 -157v-896z M320 200q114 -114 320 -114q160 0 272 75t112 181v896q0 74 -60 124zM598 1820q18 0 35 13t34 58t17 113q0 36 25 61t59 25q36 0 61 -25t25 -61q0 -112 -89 -194t-139 -82q-28 0 -28 92z" />
<glyph unicode="&#x1ff;" horiz-adv-x="1536" d="M170 426v214q0 180 147 282t409 102q116 0 210 -20l58 106h116l-72 -128q124 -64 183 -144t59 -198v-214q0 -184 -149 -305t-405 -121q-114 0 -214 24l-60 -110h-110l74 140q-246 128 -246 372zM342 342q0 -116 128 -190l422 770q-84 16 -166 16q-166 0 -275 -55 t-109 -157v-384zM558 110q78 -24 168 -24q158 0 271 75t113 181v384q0 104 -122 164zM704 1352q18 0 35 13t34 58t17 113q0 36 25 61t59 25q36 0 61 -25t25 -61q0 -112 -89 -194t-139 -82q-28 0 -28 92z" />
<glyph unicode="&#x200;" d="M86 0v1152q0 180 146 282t408 102q264 0 409 -103t145 -281v-1152h-170v854h-768v-854h-170zM200 1956q0 36 25 61t59 25q36 0 61 -25t25 -61q0 -68 17 -113t34 -58t35 -13q0 -92 -22 -92q-50 0 -142 82t-92 194zM256 938h768v300q0 102 -109 157t-275 55t-275 -55 t-109 -157v-300zM780 1956q0 36 25 61t59 25q36 0 61 -25t25 -61q0 -68 17 -113t34 -58t35 -13q0 -92 -22 -92q-50 0 -142 82t-92 194z" />
<glyph unicode="&#x201;" d="M86 406q0 128 136 166q94 26 418 26h384v128q0 102 -109 157t-275 55q-232 0 -330 -96l-94 94q170 88 422 88q266 0 411 -103t145 -281v-640q-58 0 -95 33t-75 33q-4 0 -126 -33t-258 -33q-256 0 -405 121t-149 285zM222 1536q0 36 25 61t59 25q36 0 61 -25t25 -61 q0 -68 17 -113t34 -58t35 -13q0 -92 -22 -92q-50 0 -142 82t-92 194zM256 342q0 -106 112 -181t272 -75t272 75t112 181v170h-384q-86 0 -150 -7t-120 -25t-85 -53t-29 -85zM802 1536q0 36 25 61t59 25q36 0 61 -25t25 -61q0 -68 17 -113t34 -58t35 -13q0 -92 -22 -92 q-50 0 -142 82t-92 194z" />
<glyph unicode="&#x202;" d="M86 0v1152q0 180 146 282t408 102q264 0 409 -103t145 -281v-1152h-170v854h-768v-854h-170zM170 1742q0 46 35 110t95 126t152 105t192 43q188 0 327 -138t139 -246q0 -34 -26 -59t-60 -25t-60 25t-26 59q0 12 4 49t4 51q0 56 -92 135t-210 79t-209 -79t-91 -135 q0 -14 3 -51t3 -49q0 -34 -25 -59t-61 -25t-65 25t-29 59zM256 938h768v300q0 102 -109 157t-275 55t-275 -55t-109 -157v-300z" />
<glyph unicode="&#x203;" d="M86 406q0 128 136 166q94 26 418 26h384v128q0 102 -109 157t-275 55q-232 0 -330 -96l-94 94q170 88 422 88q266 0 411 -103t145 -281v-640q-58 0 -95 33t-75 33q-4 0 -126 -33t-258 -33q-256 0 -405 121t-149 285zM170 1238q0 46 35 110t95 126t152 105t192 43 q188 0 327 -138t139 -246q0 -36 -26 -61t-60 -25t-60 25t-26 61q0 12 4 48t4 50q0 56 -92 135t-210 79t-209 -78t-91 -136q0 -14 3 -50t3 -48q0 -36 -25 -61t-61 -25t-65 25t-29 61zM256 342q0 -106 112 -181t272 -75t272 75t112 181v170h-384q-86 0 -150 -7t-120 -25 t-85 -53t-29 -85z" />
<glyph unicode="&#x204;" d="M86 0v1536h1108v-86h-682q-68 0 -101 -3t-76 -15t-61 -42t-18 -80v-372h682v-84h-682v-628q0 -50 18 -80t61 -42t76 -15t101 -3h682v-86h-1108zM222 1934q0 36 25 61t59 25q36 0 61 -25t25 -61q0 -68 17 -113t34 -58t35 -13q0 -92 -22 -92q-50 0 -142 82t-92 194z M802 1934q0 36 25 61t59 25q36 0 61 -25t25 -61q0 -68 17 -113t34 -58t35 -13q0 -92 -22 -92q-50 0 -142 82t-92 194z" />
<glyph unicode="&#x205;" d="M86 426v214q0 180 146 282t408 102q260 0 407 -121t147 -305v-86h-938v-170q0 -106 112 -181t272 -75q126 0 248 49t170 121h116q-168 -256 -534 -256q-260 0 -407 121t-147 305zM180 1422q0 36 25 61t59 25q36 0 61 -25t25 -61q0 -68 17 -113t34 -58t35 -13 q0 -92 -22 -92q-50 0 -142 82t-92 194zM256 598h768v128q0 102 -109 157t-275 55t-275 -55t-109 -157v-128zM760 1422q0 36 25 61t59 25q36 0 61 -25t25 -61q0 -68 17 -113t34 -58t35 -13q0 -92 -22 -92q-50 0 -142 82t-92 194z" />
<glyph unicode="&#x206;" d="M86 0v1536h1108v-86h-682q-68 0 -101 -3t-76 -15t-61 -42t-18 -80v-372h682v-84h-682v-628q0 -50 18 -80t61 -42t76 -15t101 -3h682v-86h-1108zM170 1742q0 46 35 110t95 126t152 105t192 43q188 0 327 -138t139 -246q0 -34 -26 -59t-60 -25t-60 25t-26 59q0 12 4 49 t4 51q0 56 -92 135t-210 79t-209 -79t-91 -135q0 -14 3 -51t3 -49q0 -34 -25 -59t-61 -25t-65 25t-29 59z" />
<glyph unicode="&#x207;" d="M86 426v214q0 180 146 282t408 102q260 0 407 -121t147 -305v-86h-938v-170q0 -106 112 -181t272 -75q126 0 248 49t170 121h116q-168 -256 -534 -256q-260 0 -407 121t-147 305zM170 1238q0 46 35 110t95 126t152 105t192 43q188 0 327 -138t139 -246q0 -36 -26 -61 t-60 -25t-60 25t-26 61q0 12 4 48t4 50q0 56 -92 135t-210 79t-209 -78t-91 -136q0 -14 3 -50t3 -48q0 -36 -25 -61t-61 -25t-65 25t-29 61zM256 598h768v128q0 102 -109 157t-275 55t-275 -55t-109 -157v-128z" />
<glyph unicode="&#x208;" horiz-adv-x="426" d="M-86 1934q0 36 26 61t60 25t60 -25t26 -61q0 -68 16 -113t33 -58t35 -13q0 -92 -20 -92q-52 0 -144 82t-92 194zM84 0v1536h170v-1536h-170zM214 1934q0 36 25 61t59 25q36 0 61 -25t25 -61q0 -68 17 -113t34 -58t35 -13q0 -92 -22 -92q-50 0 -142 82t-92 194z" />
<glyph unicode="&#x209;" horiz-adv-x="596" d="M-86 1422q0 36 26 61t60 25t60 -25t26 -61q0 -68 16 -113t33 -58t35 -13q0 -92 -20 -92q-52 0 -144 82t-92 194zM86 212v812h170v-798q0 -140 32 -140q76 0 224 88v-90q-136 -84 -256 -84q-170 0 -170 212zM298 1422q0 36 26 61t60 25t60 -25t26 -61q0 -68 16 -113 t33 -58t35 -13q0 -92 -20 -92q-52 0 -144 82t-92 194z" />
<glyph unicode="&#x20a;" horiz-adv-x="426" d="M-170 1742q0 40 8 86t32 100t61 97t100 72t143 29q98 0 169 -42t105 -107t49 -124t15 -111q0 -34 -25 -59t-61 -25q-34 0 -59 25t-25 59q0 14 3 48t3 56q0 210 -174 210q-172 0 -172 -206q0 -24 3 -59t3 -49q0 -34 -25 -59t-59 -25q-36 0 -65 25t-29 59zM86 0v1536h170 v-1536h-170z" />
<glyph unicode="&#x20b;" horiz-adv-x="596" d="M0 1274q0 340 302 340q296 0 296 -340q0 -36 -26 -61t-60 -25t-60 25t-26 61q0 8 6 85t6 85q0 46 -28 73t-108 27q-136 0 -136 -98q0 -12 7 -87t7 -85q0 -36 -26 -61t-60 -25q-36 0 -65 25t-29 61zM86 212v812h170v-798q0 -140 32 -140q76 0 224 88v-90 q-136 -84 -256 -84q-170 0 -170 212z" />
<glyph unicode="&#x20c;" d="M86 426v726q0 180 146 282t408 102q264 0 409 -103t145 -281v-726q0 -184 -149 -305t-405 -121q-260 0 -407 121t-147 305zM222 1934q0 36 25 61t59 25q36 0 61 -25t25 -61q0 -68 17 -113t34 -58t35 -13q0 -92 -22 -92q-50 0 -142 82t-92 194zM256 342q0 -106 112 -181 t272 -75t272 75t112 181v896q0 102 -109 157t-275 55t-275 -55t-109 -157v-896zM802 1934q0 36 25 61t59 25q36 0 61 -25t25 -61q0 -68 17 -113t34 -58t35 -13q0 -92 -22 -92q-50 0 -142 82t-92 194z" />
<glyph unicode="&#x20d;" d="M86 426v214q0 180 146 282t408 102q264 0 409 -103t145 -281v-214q0 -184 -149 -305t-405 -121q-260 0 -407 121t-147 305zM222 1422q0 36 25 61t59 25q36 0 61 -25t25 -61q0 -68 17 -113t34 -58t35 -13q0 -92 -22 -92q-50 0 -142 82t-92 194zM256 342q0 -106 112 -181 t272 -75t272 75t112 181v384q0 102 -109 157t-275 55t-275 -55t-109 -157v-384zM802 1422q0 36 25 61t59 25q36 0 61 -25t25 -61q0 -68 17 -113t34 -58t35 -13q0 -92 -22 -92q-50 0 -142 82t-92 194z" />
<glyph unicode="&#x20e;" d="M86 426v726q0 180 146 282t408 102q264 0 409 -103t145 -281v-726q0 -184 -149 -305t-405 -121q-260 0 -407 121t-147 305zM170 1742q0 46 35 110t95 126t152 105t192 43q188 0 327 -138t139 -246q0 -34 -26 -59t-60 -25t-60 25t-26 59q0 12 4 49t4 51q0 56 -92 135 t-210 79t-209 -79t-91 -135q0 -14 3 -51t3 -49q0 -34 -25 -59t-61 -25t-65 25t-29 59zM256 342q0 -106 112 -181t272 -75t272 75t112 181v896q0 102 -109 157t-275 55t-275 -55t-109 -157v-896z" />
<glyph unicode="&#x20f;" d="M86 426v214q0 180 146 282t408 102q264 0 409 -103t145 -281v-214q0 -184 -149 -305t-405 -121q-260 0 -407 121t-147 305zM170 1230q0 46 35 110t95 126t152 105t192 43q188 0 327 -138t139 -246q0 -34 -26 -59t-60 -25t-60 25t-26 59q0 12 4 49t4 51q0 56 -92 135 t-210 79t-209 -79t-91 -135q0 -14 3 -51t3 -49q0 -34 -25 -59t-61 -25t-65 25t-29 59zM256 342q0 -106 112 -181t272 -75t272 75t112 181v384q0 102 -109 157t-275 55t-275 -55t-109 -157v-384z" />
<glyph unicode="&#x210;" d="M86 0v1536h512q240 0 376 -85t136 -257v-2q0 -202 -176 -292q140 -52 200 -136t60 -210v-554h-170v640q0 102 -109 158t-275 56h-384v-854h-170zM138 1934q0 36 25 61t59 25q36 0 61 -25t25 -61q0 -68 17 -113t34 -58t35 -13q0 -92 -22 -92q-50 0 -142 82t-92 194z M256 1082q0 -52 27 -82t90 -43t114 -16t153 -3q146 0 222 64t76 148v88q0 102 -109 157t-275 55q-68 0 -100 -1t-78 -7t-67 -19t-37 -38t-16 -63v-240zM718 1934q0 36 25 61t59 25q36 0 61 -25t25 -61q0 -68 17 -113t34 -58t35 -13q0 -92 -22 -92q-50 0 -142 82t-92 194z " />
<glyph unicode="&#x211;" horiz-adv-x="768" d="M0 1422q0 36 25 61t61 25q34 0 59 -25t25 -61q0 -68 17 -113t34 -58t35 -13q0 -92 -22 -92q-50 0 -142 82t-92 194zM86 0v1024h170v-68q164 68 342 68v-86q-162 0 -252 -54t-90 -158v-726h-170zM342 1422q0 36 25 61t59 25q36 0 61 -25t25 -61q0 -68 17 -113t34 -58 t35 -13q0 -92 -22 -92q-50 0 -142 82t-92 194z" />
<glyph unicode="&#x212;" d="M86 0v1536h512q240 0 376 -85t136 -257v-2q0 -202 -176 -292q140 -52 200 -136t60 -210v-554h-170v640q0 102 -109 158t-275 56h-384v-854h-170zM130 1706q0 46 35 110t95 126t152 105t192 43q188 0 327 -138t139 -246q0 -36 -26 -61t-60 -25t-60 25t-26 61q0 12 4 48 t4 50q0 56 -92 135t-210 79t-209 -78t-91 -136q0 -14 3 -50t3 -48q0 -36 -25 -61t-61 -25t-65 25t-29 61zM256 1082q0 -52 27 -82t90 -43t114 -16t153 -3q146 0 222 64t76 148v88q0 102 -109 157t-275 55q-68 0 -100 -1t-78 -7t-67 -19t-37 -38t-16 -63v-240z" />
<glyph unicode="&#x213;" horiz-adv-x="768" d="M1 1238q0 46 28.5 110t78 126t124.5 105t157 43q154 0 267.5 -138t113.5 -246q0 -36 -21 -61t-49 -25t-49.5 25t-21.5 61q0 12 3.5 48t3.5 50q0 56 -75.5 135t-172 79t-171 -78t-74.5 -136q0 -14 2.5 -50t2.5 -48q0 -36 -20.5 -61t-49.5 -25t-53 25t-24 61zM86 0v1024 h170v-68q164 68 342 68v-86q-162 0 -252 -54t-90 -158v-726h-170z" />
<glyph unicode="&#x214;" d="M86 426v1110h170v-1194q0 -106 112 -181t272 -75t272 75t112 181v1194h170v-1536q-60 0 -96 33t-74 33q-4 0 -126 -33t-258 -33q-260 0 -407 121t-147 305zM222 1934q0 36 25 61t59 25q36 0 61 -25t25 -61q0 -68 17 -113t34 -58t35 -13q0 -92 -22 -92q-50 0 -142 82 t-92 194zM802 1934q0 36 25 61t59 25q36 0 61 -25t25 -61q0 -68 17 -113t34 -58t35 -13q0 -92 -22 -92q-50 0 -142 82t-92 194z" />
<glyph unicode="&#x215;" d="M86 426v598h170v-682q0 -106 112 -181t272 -75t272 75t112 181v682h170v-1024q-58 0 -95 33t-75 33q-4 0 -126 -33t-258 -33q-260 0 -407 121t-147 305zM222 1536q0 36 25 61t59 25q36 0 61 -25t25 -61q0 -68 17 -113t34 -58t35 -13q0 -92 -22 -92q-50 0 -142 82t-92 194 zM802 1536q0 36 25 61t59 25q36 0 61 -25t25 -61q0 -68 17 -113t34 -58t35 -13q0 -92 -22 -92q-50 0 -142 82t-92 194z" />
<glyph unicode="&#x216;" d="M86 426v1110h170v-1194q0 -106 112 -181t272 -75t272 75t112 181v1194h170v-1536q-60 0 -96 33t-74 33q-4 0 -126 -33t-258 -33q-260 0 -407 121t-147 305zM170 1744q0 46 35 110t95 126t152 105t192 43q188 0 327 -138t139 -246q0 -36 -26 -61t-60 -25t-60 25t-26 61 q0 12 4 48t4 50q0 56 -92 135t-210 79t-209 -78t-91 -136q0 -14 3 -50t3 -48q0 -36 -25 -61t-61 -25t-65 25t-29 61z" />
<glyph unicode="&#x217;" d="M86 426v598h170v-682q0 -106 112 -181t272 -75t272 75t112 181v682h170v-1024q-58 0 -95 33t-75 33q-4 0 -126 -33t-258 -33q-260 0 -407 121t-147 305zM170 1238q0 46 35 110t95 126t152 105t192 43q188 0 327 -138t139 -246q0 -36 -26 -61t-60 -25t-60 25t-26 61 q0 12 4 48t4 50q0 56 -92 135t-210 79t-209 -78t-91 -136q0 -14 3 -50t3 -48q0 -36 -25 -61t-61 -25t-65 25t-29 61z" />
<glyph unicode="&#x218;" d="M94 298h158q0 -100 109 -156t275 -56q164 0 274 86t110 222q0 134 -94 222t-290 150q-486 150 -486 380q0 62 28 127t84 126t154 99t224 38q230 0 353 -74t167 -224h-158q0 102 -99 157t-263 55q-154 0 -237 -76t-83 -200q0 -118 76 -193t240 -125q300 -94 429 -196 t129 -232v-2q0 -184 -150 -305t-408 -121q-450 0 -542 298zM516 -334q18 0 35 13t33 58t16 113q0 36 26 61t60 25t60 -25t26 -61q0 -112 -102 -194t-154 -82v92z" />
<glyph unicode="&#x219;" d="M94 298h162q0 -102 107 -157t273 -55q118 0 198 15t135 65t55 134q0 212 -384 212q-218 0 -354 63t-136 171q0 124 130 201t382 77q236 0 345 -44t175 -170h-200q-42 80 -109 104t-211 24q-168 0 -255 -44t-87 -148q0 -54 53 -89t121 -47t146 -12q286 0 420 -92t134 -206 v-2q0 -170 -137 -234t-421 -64q-450 0 -542 298zM516 -334q18 0 35 13t33 58t16 113q0 36 26 61t60 25t60 -25t26 -61q0 -112 -102 -194t-154 -82v92z" />
<glyph unicode="&#x21a;" d="M86 1450v86h1108v-86h-468v-1450h-172v1450h-468zM500 -334q18 0 35 13t33 58t16 113q0 36 26 61t60 25t60 -25t26 -61q0 -112 -102 -194t-154 -82v92z" />
<glyph unicode="&#x21b;" horiz-adv-x="682" d="M86 938v86h84v512h172v-512h256v-86h-256v-712q0 -140 32 -140q76 0 224 88v-90q-136 -84 -256 -84q-172 0 -172 212v726h-84zM214 -334q18 0 35 13t33 58t16 113q0 36 26 61t60 25t60 -25t26 -61q0 -112 -102 -194t-154 -82v92z" />
<glyph unicode="&#x21e;" d="M86 0v1536h170v-598h768v598h170v-1536h-170v854h-768v-854h-170zM170 2040q0 36 29 61t65 25q34 0 60 -25t26 -61q0 -74 14 -98q8 -12 14 -19t19 -18t22 -18t34 -23t45 -28t64 -39t82 -49q26 16 60 36t51 31t39 25t33 20t25 16l21 15t16 12t14 13l10 12t11 14 q14 24 14 98q0 36 25 61t61 25q34 0 59 -25t25 -61q0 -18 -2 -32t-6 -27t-15 -26t-21 -25t-34 -29t-44 -31t-60 -39t-75 -46t-94 -58t-113 -71q-58 36 -122 75t-101 62t-78 49t-62 40t-45 33t-33 31t-19 28t-12 31t-2 35z" />
<glyph unicode="&#x21f;" d="M86 0v1536h170v-580q164 68 384 68q264 0 409 -103t145 -281v-640h-170v726q0 102 -109 157t-275 55t-275 -55t-109 -157v-726h-170zM170 2040q0 36 29 61t65 25q34 0 60 -25t26 -61q0 -74 14 -98q8 -12 14 -19t19 -18t22 -18t34 -23t45 -28t64 -39t82 -49q26 16 60 36 t51 31t39 25t33 20t25 16l21 15t16 12t14 13l10 12t11 14q14 24 14 98q0 36 25 61t61 25q34 0 59 -25t25 -61q0 -18 -2 -32t-6 -27t-15 -26t-21 -25t-34 -29t-44 -31t-60 -39t-75 -46t-94 -58t-113 -71q-58 36 -122 75t-101 62t-78 49t-62 40t-45 33t-33 31t-19 28t-12 31 t-2 35z" />
<glyph unicode="&#x226;" d="M86 0v1152q0 180 146 282t408 102q264 0 409 -103t145 -281v-1152h-170v854h-768v-854h-170zM256 938h768v300q0 102 -109 157t-275 55t-275 -55t-109 -157v-300zM554 1742q0 36 25 61t61 25q34 0 59 -25t25 -61q0 -34 -25 -59t-59 -25q-36 0 -61 25t-25 59z" />
<glyph unicode="&#x227;" d="M86 406q0 128 136 166q94 26 418 26h384v128q0 102 -109 157t-275 55q-232 0 -330 -96l-94 94q170 88 422 88q266 0 411 -103t145 -281v-640q-58 0 -95 33t-75 33q-4 0 -126 -33t-258 -33q-256 0 -405 121t-149 285zM256 342q0 -106 112 -181t272 -75t272 75t112 181v170 h-384q-86 0 -150 -7t-120 -25t-85 -53t-29 -85zM554 1450q0 36 25 61t61 25q34 0 59 -25t25 -61q0 -34 -25 -59t-59 -25q-36 0 -61 25t-25 59z" />
<glyph unicode="&#x228;" d="M86 0v1536h1108v-86h-682q-68 0 -101 -3t-76 -15t-61 -42t-18 -80v-372h682v-84h-682v-628q0 -50 18 -80t61 -42t76 -15t101 -3h682v-86h-408q38 -42 48 -60q40 -64 51 -98t11 -96q0 -48 -34 -68t-72 -20q-22 0 -44 6t-43 27t-21 55q0 32 32 76t32 70q0 48 -41 78t-65 30 h-554z" />
<glyph unicode="&#x229;" d="M86 426v214q0 180 146 282t408 102q260 0 407 -121t147 -305v-86h-938v-170q0 -106 112 -181t272 -75q126 0 248 49t170 121h116q-136 -206 -400 -246q38 -30 60 -70q40 -64 51 -98t11 -96q0 -48 -34 -68t-72 -20q-22 0 -44 6t-43 27t-21 55q0 32 32 76t32 70 q0 48 -41 78t-65 30q-260 0 -407 121t-147 305zM256 598h768v128q0 102 -109 157t-275 55t-275 -55t-109 -157v-128z" />
<glyph unicode="&#x22a;" d="M84 1998v86h1110v-86h-1110zM86 426v726q0 180 146 282t408 102q264 0 409 -103t145 -281v-726q0 -184 -149 -305t-405 -121q-260 0 -407 121t-147 305zM212 1792q0 36 26 61t60 25t60 -25t26 -61q0 -34 -26 -59t-60 -25t-60 25t-26 59zM256 342q0 -106 112 -181t272 -75 t272 75t112 181v896q0 102 -109 157t-275 55t-275 -55t-109 -157v-896zM896 1792q0 36 25 61t59 25q36 0 61 -25t25 -61q0 -34 -25 -59t-61 -25q-34 0 -59 25t-25 59z" />
<glyph unicode="&#x22b;" d="M84 1706v86h1110v-86h-1110zM86 426v214q0 180 146 282t408 102q264 0 409 -103t145 -281v-214q0 -184 -149 -305t-405 -121q-260 0 -407 121t-147 305zM212 1450q0 36 26 61t60 25t60 -25t26 -61q0 -34 -26 -59t-60 -25t-60 25t-26 59zM256 342q0 -106 112 -181t272 -75 t272 75t112 181v384q0 102 -109 157t-275 55t-275 -55t-109 -157v-384zM896 1450q0 36 25 61t59 25q36 0 61 -25t25 -61q0 -34 -25 -59t-61 -25q-34 0 -59 25t-25 59z" />
<glyph unicode="&#x22d;" d="M84 1704v86h1110v-86h-1110zM86 426v214q0 180 146 282t408 102q264 0 409 -103t145 -281v-214q0 -184 -149 -305t-405 -121q-260 0 -407 121t-147 305zM170 1324q0 56 18 120t69 121t123 57q86 0 151 -35t102 -86t68 -101t69 -85t86 -35q82 0 82 214h170q0 -56 -18 -120 t-68 -121t-122 -57q-80 0 -142 35t-102 85t-74 100t-74 85t-86 35q-82 0 -82 -212h-170zM256 342q0 -106 112 -181t272 -75t272 75t112 181v384q0 102 -109 157t-275 55t-275 -55t-109 -157v-384z" />
<glyph unicode="&#x22e;" d="M86 426v726q0 180 146 282t408 102q264 0 409 -103t145 -281v-726q0 -184 -149 -305t-405 -121q-260 0 -407 121t-147 305zM256 342q0 -106 112 -181t272 -75t272 75t112 181v896q0 102 -109 157t-275 55t-275 -55t-109 -157v-896zM554 1742q0 36 25 61t61 25 q34 0 59 -25t25 -61q0 -34 -25 -59t-59 -25q-36 0 -61 25t-25 59z" />
<glyph unicode="&#x22f;" d="M86 426v214q0 180 146 282t408 102q264 0 409 -103t145 -281v-214q0 -184 -149 -305t-405 -121q-260 0 -407 121t-147 305zM256 342q0 -106 112 -181t272 -75t272 75t112 181v384q0 102 -109 157t-275 55t-275 -55t-109 -157v-384zM554 1450q0 36 25 61t61 25 q34 0 59 -25t25 -61q0 -34 -25 -59t-59 -25q-36 0 -61 25t-25 59z" />
<glyph unicode="&#x230;" d="M84 1950v86h1110v-86h-1110zM86 426v726q0 180 146 282t408 102q264 0 409 -103t145 -281v-726q0 -184 -149 -305t-405 -121q-260 0 -407 121t-147 305zM256 342q0 -106 112 -181t272 -75t272 75t112 181v896q0 102 -109 157t-275 55t-275 -55t-109 -157v-896zM554 1742 q0 36 25 61t61 25q34 0 59 -25t25 -61q0 -34 -25 -59t-59 -25q-36 0 -61 25t-25 59z" />
<glyph unicode="&#x2c6;" horiz-adv-x="1536" d="M256 1238q0 20 2 35t12 31t19 28t33 31t45 33t62 40t78 49t101 62t122 75q54 -34 113 -71t94 -58t75 -46t60 -39t44 -31t34 -29t21 -25t15 -26t6 -27t2 -32q0 -36 -25 -61t-59 -25q-36 0 -61 25t-25 61q0 74 -14 98q-6 8 -11 14l-10 12t-14 13t-16 12l-21 15t-25 16 t-33 20t-39 25t-51 31t-60 36q-38 -22 -82 -49t-64 -39t-45 -28t-34 -23t-22 -18t-19 -18t-14 -19q-14 -24 -14 -98q0 -36 -26 -61t-60 -25q-36 0 -65 25t-29 61z" />
<glyph unicode="&#x2c7;" horiz-adv-x="1536" d="M256 1450q0 36 29 61t65 25q34 0 60 -25t26 -61q0 -74 14 -98q8 -12 14 -19t19 -18t22 -18t34 -23t45 -28t64 -39t82 -49q26 16 60 36t51 31t39 25t33 20t25 16l21 15t16 12t14 13l10 12t11 14q14 24 14 98q0 36 25 61t61 25q34 0 59 -25t25 -61q0 -18 -2 -32t-6 -27 t-15 -26t-21 -25t-34 -29t-44 -31t-60 -39t-75 -46t-94 -58t-113 -71q-58 36 -122 75t-101 62t-78 49t-62 40t-45 33t-33 31t-19 28t-12 31t-2 35z" />
<glyph unicode="&#x2d8;" horiz-adv-x="1536" d="M256 1450q0 36 29 61t65 25q34 0 60 -25t26 -61q0 -12 -4 -48t-4 -50q0 -58 91 -136t211 -78q118 0 209 79t91 135q0 14 -3 50t-3 48q0 36 25 61t61 25q34 0 59 -25t25 -61q0 -106 -139 -245t-325 -139q-100 0 -192 43t-152 105t-95 126t-35 110z" />
<glyph unicode="&#x2d9;" horiz-adv-x="426" d="M128 1450q0 36 25 61t61 25q34 0 59 -25t25 -61q0 -34 -25 -59t-59 -25q-36 0 -61 25t-25 59z" />
<glyph unicode="&#x2da;" horiz-adv-x="596" d="M86 1322q0 88 62 151t150 63t151 -63t63 -151t-63 -150t-151 -62q-86 0 -149 63t-63 149zM170 1322q0 -52 38 -90t90 -38q54 0 91 38t37 90q0 54 -37 91t-91 37q-52 0 -90 -37t-38 -91z" />
<glyph unicode="&#x2db;" horiz-adv-x="1620" d="M1110 -254q0 62 11 96t51 98q38 64 104 107t90 43v-90q-24 0 -66 -30t-42 -78q0 -26 32 -70t32 -76q0 -48 -34 -68t-72 -20q-22 0 -44 6t-42 27t-20 55z" />
<glyph unicode="&#x2dc;" horiz-adv-x="1536" d="M256 1238q0 56 18 120t69 121t123 57q86 0 151 -35t102 -86t68 -101t69 -85t86 -35q82 0 82 214h170q0 -56 -18 -120t-68 -121t-122 -57q-80 0 -142 35t-102 85t-74 100t-74 85t-86 35q-82 0 -82 -212h-170z" />
<glyph unicode="&#x2dd;" horiz-adv-x="1536" d="M298 1266q18 0 35 13t34 58t17 113q0 36 25 61t61 25q34 0 59 -25t25 -61q0 -112 -92 -194t-142 -82q-22 0 -22 92zM896 1266q18 0 35 13t34 58t17 113q0 36 25 61t59 25q36 0 61 -25t25 -61q0 -112 -92 -194t-142 -82q-22 0 -22 92z" />
<glyph unicode="&#x400;" d="M86 0v1536h1108v-86h-682q-68 0 -101 -3t-76 -15t-61 -42t-18 -80v-372h682v-84h-682v-628q0 -50 18 -80t61 -42t76 -15t101 -3h682v-86h-1108zM554 2040q0 36 26 61t60 25t60 -25t26 -61q0 -68 16 -113t33 -58t35 -13q0 -92 -28 -92q-50 0 -139 82t-89 194z" />
<glyph unicode="&#x401;" d="M86 0v1536h1108v-86h-682q-68 0 -101 -3t-76 -15t-61 -42t-18 -80v-372h682v-84h-682v-628q0 -50 18 -80t61 -42t76 -15t101 -3h682v-86h-1108zM212 1828q0 36 26 61t60 25t60 -25t26 -61q0 -34 -26 -59t-60 -25t-60 25t-26 59zM896 1828q0 36 25 61t59 25q36 0 61 -25 t25 -61q0 -34 -25 -59t-61 -25q-34 0 -59 25t-25 59z" />
<glyph unicode="&#x402;" horiz-adv-x="1706" d="M86 1450v86h1280v-86h-598v-494q70 30 97 39t80 19t121 10q256 0 363 -98t107 -286v-856q0 -210 -170 -210q-78 0 -128 18v92q50 -26 96 -26q32 0 32 142v926q0 106 -72 159t-228 53t-227 -53t-71 -159v-726h-170v1450h-512z" />
<glyph unicode="&#x403;" horiz-adv-x="1280" d="M86 0v1536h1024v-86h-598q-68 0 -101 -3t-76 -15t-61 -42t-18 -80v-1224v-86h-170zM554 1856q18 0 35 13t34 58t17 113q0 36 25 61t59 25q36 0 61 -25t25 -61q0 -112 -89 -194t-139 -82q-28 0 -28 92z" />
<glyph unicode="&#x404;" d="M86 426v726q0 180 146 282t408 102q382 0 534 -214l-150 -84q0 102 -109 157t-275 55t-275 -55t-109 -157v-300h598v-84h-598v-512q0 -106 112 -181t272 -75t272 75t112 181l148 -106q-184 -236 -532 -236q-260 0 -407 121t-147 305z" />
<glyph unicode="&#x405;" d="M94 298h158q0 -100 109 -156t275 -56q164 0 274 86t110 222q0 134 -94 222t-290 150q-486 150 -486 380q0 62 28 127t84 126t154 99t224 38q230 0 353 -74t167 -224h-158q0 102 -99 157t-263 55q-154 0 -237 -76t-83 -200q0 -118 76 -193t240 -125q300 -94 429 -196 t129 -232v-2q0 -184 -150 -305t-408 -121q-450 0 -542 298z" />
<glyph unicode="&#x406;" horiz-adv-x="426" d="M86 0v1536h170v-1536h-170z" />
<glyph unicode="&#x407;" horiz-adv-x="426" d="M-86 1742q0 36 26 61t60 25t60 -25t26 -61q0 -34 -26 -59t-60 -25t-60 25t-26 59zM86 0v1536h170v-1536h-170zM256 1742q0 36 25 61t61 25q34 0 59 -25t25 -61q0 -34 -25 -59t-59 -25q-36 0 -61 25t-25 59z" />
<glyph unicode="&#x408;" horiz-adv-x="596" d="M86 -316q50 -26 138 -26q32 0 32 142v1650h-170v86h340v-1752q0 -210 -170 -210q-120 0 -170 18v92z" />
<glyph unicode="&#x409;" horiz-adv-x="2388" d="M42 0v86h96q36 0 55 38t35 187t22 435t6 790h1024v-454q0 -52 27 -82t90 -43t114 -16t153 -3q140 0 245 -32t162 -78t92 -111t45 -117t10 -110q0 -192 -152 -341t-402 -149h-384h-170v1450h-684q-2 -838 -20 -1034q-22 -282 -110 -362q-62 -54 -190 -54h-64zM1280 226 q0 -34 12 -59t42 -40t57 -24t81 -12t88 -4t104 -1q160 0 272 75t112 181v298q0 102 -109 158t-275 56h-384v-628z" />
<glyph unicode="&#x40a;" horiz-adv-x="2304" d="M86 0v1536h170v-598h768v598h170v-454q0 -34 12 -60t42 -41t58 -24t81 -13t89 -5t102 -1q140 0 245 -32t163 -78t93 -111t45 -117t10 -110q0 -192 -153 -341t-403 -149h-384h-170v854h-768v-854h-170zM1194 226q0 -34 12 -59t42 -40t57 -24t81 -12t88 -4t104 -1 q160 0 272 75t112 181v298q0 102 -109 158t-275 56h-384v-628z" />
<glyph unicode="&#x40b;" horiz-adv-x="1706" d="M86 1450v86h1280v-86h-598v-494q70 30 97 39t80 19t121 10q256 0 363 -98t107 -286v-640h-170v726q0 106 -72 159t-228 53t-227 -53t-71 -159v-726h-170v1450h-512z" />
<glyph unicode="&#x40c;" d="M86 0v1536h170v-370l874 370l64 -72l-480 -216q480 -48 480 -438v-810h-170v896q0 128 -127 205t-365 77l-276 -110v-1068h-170zM576 1856q18 0 35 13t34 58t17 113q0 36 25 61t59 25q36 0 61 -25t25 -61q0 -112 -89 -194t-139 -82q-28 0 -28 92z" />
<glyph unicode="&#x40d;" d="M86 0v1536h170v-668q94 78 158 106q96 42 226 50q150 0 267 123t117 239v150h170v-1536h-170v1110q-162 -172 -384 -172q-152 0 -268 -104t-116 -216v-618h-170zM512 2040q0 36 26 61t60 25t60 -25t26 -61q0 -68 16 -113t33 -58t35 -13q0 -92 -28 -92q-50 0 -139 82 t-89 194z" />
<glyph unicode="&#x40e;" d="M86 428v1108h170v-1192q0 -108 112 -183t272 -75t272 75t112 183v1192h170v-1536q0 -204 -145 -315t-409 -111q-192 0 -330 69t-214 187h146q48 -74 161 -123t237 -49q158 0 271 75t113 181v172q-168 -86 -384 -86q-260 0 -407 122t-147 306zM170 2044q0 36 29 61t65 25 q34 0 60 -25t26 -61q0 -12 -4 -48t-4 -50q0 -58 91 -136t211 -78q118 0 209 79t91 135q0 14 -3 50t-3 48q0 36 25 61t61 25q34 0 59 -25t25 -61q0 -106 -139 -245t-325 -139q-100 0 -192 43t-152 105t-95 126t-35 110z" />
<glyph unicode="&#x40f;" horiz-adv-x="1450" d="M86 0v1536h170v-1450h768v1450h170v-1310q0 -140 32 -140h96v-86h-640v-256h-84v256h-512z" />
<glyph unicode="&#x410;" d="M86 0v1152q0 180 146 282t408 102q264 0 409 -103t145 -281v-1152h-170v854h-768v-854h-170zM256 938h768v300q0 102 -109 157t-275 55t-275 -55t-109 -157v-300z" />
<glyph unicode="&#x411;" d="M86 0v1536h938v-86h-470q-54 0 -81 -1t-69 -4t-63 -12t-44 -24t-32 -40t-9 -59v-228q0 -52 27 -82t90 -43t114 -16t153 -3q140 0 245 -32t162 -78t92 -111t45 -117t10 -110q0 -192 -152 -341t-402 -149h-554zM86 1536zM256 226q0 -34 12 -59t42 -40t57 -24t81 -12t88 -4 t104 -1q160 0 272 75t112 181v298q0 102 -109 158t-275 56h-384v-628z" />
<glyph unicode="&#x412;" d="M86 0v1536h512q244 0 378 -93t134 -255v-2q0 -214 -176 -286q152 -80 206 -170t54 -260q0 -190 -151 -330t-403 -140h-554zM86 1536zM256 226q0 -34 12 -59t42 -40t57 -24t81 -12t88 -4t104 -1q154 0 269 94t115 204v214q0 106 -113 181t-271 75h-384v-628zM256 1082 q0 -52 27 -82t90 -43t114 -16t153 -3q162 0 230 51t68 185v64q0 212 -384 212q-54 0 -81 -1t-69 -4t-63 -12t-44 -24t-32 -40t-9 -59v-228z" />
<glyph unicode="&#x413;" horiz-adv-x="1280" d="M86 0v1536h1024v-86h-598q-68 0 -101 -3t-76 -15t-61 -42t-18 -80v-1224v-86h-170z" />
<glyph unicode="&#x414;" horiz-adv-x="1620" d="M86 86h84q88 52 130 103t42 123v1224h938v-1450h170v-256h-84v170h-1196v-170h-84v256zM342 86h768v1364h-598v-1154q0 -48 -52 -129t-118 -81z" />
<glyph unicode="&#x415;" d="M86 0v1536h1108v-86h-682q-68 0 -101 -3t-76 -15t-61 -42t-18 -80v-372h682v-84h-682v-628q0 -50 18 -80t61 -42t76 -15t101 -3h682v-86h-1108z" />
<glyph unicode="&#x416;" horiz-adv-x="2304" d="M86 0v918q0 312 370 368l-370 146l64 72l874 -338v370h170v-370l876 340l64 -72l-372 -148q372 -56 372 -368v-918h-172v1002q0 102 -108 158t-276 56l-384 -148v-1068h-170v1068l-384 148q-168 0 -276 -56t-108 -158v-1002h-170z" />
<glyph unicode="&#x417;" d="M86 426h170v-84q0 -106 112 -181t272 -75q148 0 266 67t118 167v320q0 214 -298 214v84q56 0 97 17t63 42t34 64t15 70t3 73v84q0 162 -298 162q-146 0 -237 -43t-105 -127h-128q40 138 143 197t327 59q248 0 359 -84t111 -214q0 -64 -5 -107t-20 -95t-51 -86t-92 -52 q252 -74 252 -386v-86q0 -184 -149 -305t-405 -121q-260 0 -407 121t-147 305z" />
<glyph unicode="&#x418;" d="M86 0v1536h170v-668q94 78 158 106q96 42 226 50q150 0 267 123t117 239v150h170v-1536h-170v1110q-162 -172 -384 -172q-152 0 -268 -104t-116 -216v-618h-170z" />
<glyph unicode="&#x419;" d="M86 0v1536h170v-668q94 78 158 106q96 42 226 50q150 0 267 123t117 239v150h170v-1536h-170v1110q-162 -172 -384 -172q-152 0 -268 -104t-116 -216v-618h-170zM170 2040q0 36 29 61t65 25q34 0 60 -25t26 -61q0 -12 -4 -48t-4 -50q0 -58 91 -136t211 -78q118 0 209 79 t91 135q0 14 -3 50t-3 48q0 36 25 61t61 25q34 0 59 -25t25 -61q0 -106 -139 -245t-325 -139q-100 0 -192 43t-152 105t-95 126t-35 110z" />
<glyph unicode="&#x41a;" d="M86 0v1536h170v-370l874 370l64 -72l-480 -216q480 -48 480 -438v-810h-170v896q0 128 -127 205t-365 77l-276 -110v-1068h-170z" />
<glyph unicode="&#x41b;" horiz-adv-x="1450" d="M86 0v86h52q36 0 55 38t35 187t22 435t6 790h1024v-1536h-170v1450h-684q-2 -902 -32 -1132q-28 -240 -116 -292q-40 -26 -108 -26h-84z" />
<glyph unicode="&#x41c;" horiz-adv-x="1792" d="M86 0v1536h170q42 -6 111 -22t229 -81t258 -153q88 80 237 144t253 88l106 24h172v-1536h-172v1280q0 118 -126 118q-118 0 -252 -94t-134 -194v-342h-170v342q0 118 -119 197t-245 79q-148 0 -148 -106v-1280h-170z" />
<glyph unicode="&#x41d;" d="M86 0v1536h170v-598h768v598h170v-1536h-170v854h-768v-854h-170z" />
<glyph unicode="&#x41e;" d="M86 426v726q0 180 146 282t408 102q264 0 409 -103t145 -281v-726q0 -184 -149 -305t-405 -121q-260 0 -407 121t-147 305zM256 342q0 -106 112 -181t272 -75t272 75t112 181v896q0 102 -109 157t-275 55t-275 -55t-109 -157v-896z" />
<glyph unicode="&#x41f;" d="M86 0v1536h1108v-1536h-170v1450h-768v-1450h-170z" />
<glyph unicode="&#x420;" d="M86 0v1536h554q264 0 409 -103t145 -281v-214q0 -184 -149 -305t-405 -121q-216 0 -384 86v-598h-170zM256 854q0 -106 112 -181t272 -75t272 75t112 181v384q0 102 -109 157t-275 55t-275 -55t-109 -157v-384z" />
<glyph unicode="&#x421;" d="M86 426v726q0 180 146 282t408 102q238 0 393 -82t161 -216h-128q0 100 -127 156t-299 56q-166 0 -275 -55t-109 -157v-896q0 -106 112 -181t272 -75q164 0 295 76t131 180h128q-12 -136 -170 -239t-384 -103q-260 0 -407 121t-147 305z" />
<glyph unicode="&#x422;" d="M86 1450v86h1108v-86h-468v-1450h-172v1450h-468z" />
<glyph unicode="&#x423;" d="M86 428v1108h170v-1192q0 -108 112 -183t272 -75t272 75t112 183v1192h170v-1536q0 -204 -145 -315t-409 -111q-192 0 -330 69t-214 187h146q48 -74 161 -123t237 -49q158 0 271 75t113 181v172q-168 -86 -384 -86q-260 0 -407 122t-147 306z" />
<glyph unicode="&#x424;" horiz-adv-x="1620" d="M86 598v468q0 162 158 261t438 119v90h172v-90q280 -22 438 -122t158 -258v-468q0 -166 -161 -283t-435 -141v-174h-172v178q-274 26 -435 142t-161 278zM256 512q0 -88 122 -158t304 -92v1100q-188 -14 -307 -69t-119 -141v-640zM854 262q182 22 304 92t122 158v640 q0 86 -118 140t-308 66v-1096z" />
<glyph unicode="&#x425;" d="M86 0v554q0 136 57 220t203 126q-146 48 -203 145t-57 235v256h170v-342q0 -106 113 -181t271 -75t271 75t113 181v342h170v-256q0 -292 -260 -380q146 -40 203 -126t57 -220v-554h-170v640q0 102 -109 158t-275 56t-275 -56t-109 -158v-640h-170z" />
<glyph unicode="&#x426;" horiz-adv-x="1536" d="M86 0v1536h170v-1450h768v1450h170v-1310q0 -140 32 -140h140v-342h-86v256h-1194z" />
<glyph unicode="&#x427;" d="M86 1196v340h170v-424q0 -108 112 -183t272 -75t272 75t112 183v424h170v-1536h-170v854q-168 -86 -384 -86q-260 0 -407 122t-147 306z" />
<glyph unicode="&#x428;" horiz-adv-x="1876" d="M86 0v1536h170v-1450h512v1450h170v-1450h512v1450h172v-1310q0 -140 32 -140h138v-86h-1706z" />
<glyph unicode="&#x429;" horiz-adv-x="1962" d="M86 0v1536h170v-1450h512v1450h170v-1450h512v1450h172v-1310q0 -140 32 -140h138v-342h-86v256h-1620z" />
<glyph unicode="&#x42a;" horiz-adv-x="1792" d="M86 1450v86h596v-454q0 -34 12 -60t42 -41t58 -24t81 -13t89 -5t102 -1q138 0 243 -31t163 -77t93 -110t46 -116t11 -110q0 -200 -146 -347t-410 -147h-554v1450h-426zM682 226q0 -34 12 -59t42 -40t57 -24t81 -12t88 -4t104 -1q160 0 272 75t112 181v298q0 102 -109 158 t-275 56h-384v-628z" />
<glyph unicode="&#x42b;" horiz-adv-x="1706" d="M86 0v1536h170v-454q0 -52 27 -82t90 -43t114 -16t153 -3q138 0 243 -31t162 -77t93 -110t46 -116t10 -110v-4q-4 -206 -152 -348t-402 -142h-554zM256 226q0 -34 12 -59t42 -40t57 -24t81 -12t88 -4t104 -1q160 0 272 75t112 181v298q0 102 -109 158t-275 56h-384v-628z M1366 0v1536h170v-1536h-170z" />
<glyph unicode="&#x42c;" d="M86 0v1536h170v-454q0 -52 27 -82t90 -43t114 -16t153 -3q138 0 243 -31t162 -77t93 -110t46 -116t10 -110v-4q-4 -206 -152 -348t-402 -142h-554zM256 226q0 -34 12 -59t42 -40t57 -24t81 -12t88 -4t104 -1q160 0 272 75t112 181v298q0 102 -109 158t-275 56h-384v-628z " />
<glyph unicode="&#x42d;" d="M106 1322q104 124 220 169t314 45q262 0 408 -102t146 -282v-726q0 -184 -147 -305t-407 -121q-190 0 -316 56t-216 180l148 106q0 -106 112 -181t272 -75t272 75t112 181v426h-598v86h598v384q0 102 -109 157t-275 55t-275 -55t-109 -157z" />
<glyph unicode="&#x42e;" horiz-adv-x="1792" d="M86 0v1536h170v-598h256v214q0 180 146 282t408 102q266 0 411 -103t145 -281v-726q0 -184 -150 -305t-406 -121q-260 0 -407 121t-147 305v428h-256v-854h-170zM682 342q0 -106 113 -181t271 -75q160 0 272 75t112 181v896q0 102 -109 157t-275 55t-275 -56t-109 -156 v-896z" />
<glyph unicode="&#x42f;" d="M86 0v554q0 132 59 217t201 129q-108 46 -142 114t-34 178v2q0 172 136 257t376 85h512v-1536h-170v854h-384q-166 0 -275 -56t-109 -158v-640h-170zM342 1150q0 -84 76 -148t222 -64q102 0 153 3t114 16t90 43t27 82v240q0 38 -16 63t-37 38t-67 19t-78 7t-100 1 q-166 0 -275 -55t-109 -157v-88z" />
<glyph unicode="&#x430;" d="M86 406q0 128 136 166q94 26 418 26h384v128q0 102 -109 157t-275 55q-232 0 -330 -96l-94 94q170 88 422 88q266 0 411 -103t145 -281v-640q-58 0 -95 33t-75 33q-4 0 -126 -33t-258 -33q-256 0 -405 121t-149 285zM256 342q0 -106 112 -181t272 -75t272 75t112 181v170 h-384q-86 0 -150 -7t-120 -25t-85 -53t-29 -85z" />
<glyph unicode="&#x431;" d="M86 426v526q0 154 39 265t97 172t150 95t172 43t188 9h206v-86h-170q-84 0 -146 -5t-136 -26t-120 -58t-78 -104t-32 -161v-140q164 68 384 68q264 0 409 -103t145 -281v-214q0 -184 -149 -305t-405 -121q-260 0 -407 121t-147 305zM256 342q0 -106 112 -181t272 -75 t272 75t112 181v384q0 102 -109 157t-275 55t-275 -55t-109 -157v-384z" />
<glyph unicode="&#x432;" d="M86 0v1024h554q248 0 359 -73t111 -183q0 -76 -44 -138t-124 -74q120 -20 186 -83t66 -153q0 -138 -149 -229t-405 -91h-554zM256 86h384q156 0 270 59t114 133q0 206 -342 234h-426v-426zM256 598h426q134 0 195 57t61 121q0 74 -85 118t-213 44h-384v-340z" />
<glyph unicode="&#x433;" horiz-adv-x="1108" d="M86 0v1024h852v-86h-682v-938h-170z" />
<glyph unicode="&#x434;" horiz-adv-x="1536" d="M86 86h84q88 52 130 103t42 123v712h852v-938h172v-256h-86v170h-1110v-170h-84v256zM342 86h682v852h-512v-642q0 -56 -43 -133t-127 -77z" />
<glyph unicode="&#x435;" d="M86 426v214q0 180 146 282t408 102q260 0 407 -121t147 -305v-86h-938v-170q0 -106 112 -181t272 -75q126 0 248 49t170 121h116q-168 -256 -534 -256q-260 0 -407 121t-147 305zM256 598h768v128q0 102 -109 157t-275 55t-275 -55t-109 -157v-128z" />
<glyph unicode="&#x436;" horiz-adv-x="2304" d="M86 0v406q0 312 370 368l-370 146l64 72l874 -338v370h170v-370l876 340l64 -72l-372 -148q372 -56 372 -368v-406h-172v490q0 102 -108 158t-276 56l-384 -148v-556h-170v556l-384 148q-168 0 -276 -56t-108 -158v-490h-170z" />
<glyph unicode="&#x437;" d="M86 426h170v-84q0 -106 112 -181t272 -75q150 0 267 78t117 156q0 104 -85 184t-257 94v84q138 0 197 40t59 98q0 48 -42 75t-102 35t-154 8q-146 0 -237 -43t-105 -127h-128q40 122 147 189t323 67q256 0 363 -55t107 -159q0 -142 -168 -168q252 -100 252 -280 q0 -142 -152 -252t-402 -110q-260 0 -407 121t-147 305z" />
<glyph unicode="&#x438;" horiz-adv-x="1280" d="M86 0v1024h170v-668q2 2 45 42t65 54t86 35t146 25q146 0 243 121t97 241v150h172v-1024h-172v598q-100 -104 -173 -138t-167 -34q-150 0 -246 -102t-96 -218v-106h-170z" />
<glyph unicode="&#x439;" horiz-adv-x="1280" d="M86 0v1024h170v-668q2 2 45 42t65 54t86 35t146 25q146 0 243 121t97 241v150h172v-1024h-172v598q-100 -104 -173 -138t-167 -34q-150 0 -246 -102t-96 -218v-106h-170zM128 1528q0 36 29 61t65 25q34 0 60 -25t26 -61q0 -12 -4 -48t-4 -50q0 -58 91 -136t211 -78 q118 0 209 79t91 135q0 14 -3 50t-3 48q0 36 25 61t61 25q34 0 59 -25t25 -61q0 -106 -139 -245t-325 -139q-100 0 -192 43t-152 105t-95 126t-35 110z" />
<glyph unicode="&#x43a;" d="M86 0v1024h170v-370l874 370l64 -72l-446 -190q206 -30 326 -123t120 -233v-406h-170v448q0 100 -146 172t-312 72l-310 -136v-556h-170z" />
<glyph unicode="&#x43b;" horiz-adv-x="1450" d="M86 0v86h52q38 0 56 19t35 110t22 280t5 529h1024v-1024h-170v938h-684q0 -588 -30 -740q-30 -150 -118 -182q-40 -16 -108 -16h-84z" />
<glyph unicode="&#x43c;" horiz-adv-x="1620" d="M86 0v1024h170q32 -6 87 -22t191 -81t234 -153q88 80 216 144t212 88l84 24h170v-1024h-170v768q0 118 -104 118q-100 0 -211 -93t-111 -195v-256h-172v256q0 118 -99 197t-205 79q-54 0 -88 -27t-34 -79v-768h-170z" />
<glyph unicode="&#x43d;" horiz-adv-x="1280" d="M86 0v1024h170v-342h682v342h172v-1024h-172v598h-682v-598h-170z" />
<glyph unicode="&#x43e;" d="M86 426v214q0 180 146 282t408 102q264 0 409 -103t145 -281v-214q0 -184 -149 -305t-405 -121q-260 0 -407 121t-147 305zM256 342q0 -106 112 -181t272 -75t272 75t112 181v384q0 102 -109 157t-275 55t-275 -55t-109 -157v-384z" />
<glyph unicode="&#x43f;" horiz-adv-x="1280" d="M86 0v1024h1024v-1024h-172v938h-682v-938h-170z" />
<glyph unicode="&#x440;" d="M86 -426v1450h170v-68q164 68 384 68q264 0 409 -103t145 -281v-214q0 -184 -149 -305t-405 -121q-216 0 -384 86v-512h-170zM256 342q0 -106 112 -181t272 -75t272 75t112 181v384q0 102 -109 157t-275 55t-275 -55t-109 -157v-384z" />
<glyph unicode="&#x441;" d="M86 426v214q0 180 146 282t408 102q468 0 554 -298h-170q0 102 -109 157t-275 55t-275 -55t-109 -157v-384q0 -106 112 -181t272 -75t272 75t112 181h170q-48 -154 -189 -248t-365 -94q-260 0 -407 121t-147 305z" />
<glyph unicode="&#x442;" horiz-adv-x="1280" d="M86 938v86h1024v-86h-428v-938h-170v938h-426z" />
<glyph unicode="&#x443;" d="M86 428v596h170v-680q0 -108 112 -183t272 -75t272 75t112 183v680h170v-1024q0 -184 -149 -305t-405 -121q-192 0 -330 69t-214 187h146q48 -74 161 -123t237 -49q158 0 271 75t113 181v172q-168 -86 -384 -86q-260 0 -407 122t-147 306z" />
<glyph unicode="&#x444;" horiz-adv-x="1450" d="M86 426v214q0 170 121 266t391 114v516h170v-516q270 -20 391 -117t121 -263v-214q0 -172 -123 -286t-389 -136v-430h-170v432q-266 24 -389 137t-123 283zM256 342q0 -96 84 -163t258 -87v842q-342 -22 -342 -208v-384zM768 92q174 20 258 87t84 163v384q0 184 -342 206 v-840z" />
<glyph unicode="&#x445;" d="M86 0v214q0 134 57 219t203 125q-146 50 -203 146t-57 234v86h170v-234q0 -192 384 -192t384 192v234h170v-86q0 -290 -260 -380q146 -40 203 -125t57 -219v-214h-170v342q0 50 -29 85t-85 53t-120 25t-150 7t-150 -7t-120 -25t-85 -53t-29 -85v-342h-170z" />
<glyph unicode="&#x446;" horiz-adv-x="1450" d="M86 0v1024h170v-938h682v938h172v-798q0 -140 32 -140h138v-342h-86v256h-1108z" />
<glyph unicode="&#x447;" horiz-adv-x="1280" d="M86 856v168h170v-254q0 -114 74 -186t224 -72q158 0 271 76t113 182v254h172v-1024h-172v512q-168 -86 -384 -86q-468 0 -468 430z" />
<glyph unicode="&#x448;" horiz-adv-x="1706" d="M86 0v1024h170v-938h426v938h172v-938h426v938h170v-798q0 -140 32 -140h140v-86h-1536z" />
<glyph unicode="&#x449;" horiz-adv-x="1792" d="M86 0v1024h170v-938h426v938h172v-938h426v938h170v-798q0 -140 32 -140h140v-342h-86v256h-1450z" />
<glyph unicode="&#x44a;" horiz-adv-x="1792" d="M86 938v86h596v-342h384q260 0 408 -94t148 -246q0 -122 -153 -232t-403 -110h-384h-170v938h-426zM682 342q0 -166 75 -211t309 -45q160 0 272 75t112 181t-113 181t-271 75h-384v-256z" />
<glyph unicode="&#x44b;" horiz-adv-x="1706" d="M86 0v1024h170v-342h384q258 0 406 -94t148 -246q0 -122 -153 -232t-401 -110h-554zM256 342q0 -166 75 -211t309 -45q160 0 272 75t112 181t-113 181t-271 75h-384v-256zM1366 0v1024h170v-1024h-170z" />
<glyph unicode="&#x44c;" d="M86 0v1024h170v-342h384q258 0 406 -94t148 -246q0 -122 -153 -232t-401 -110h-554zM256 342q0 -166 75 -211t309 -45q160 0 272 75t112 181t-113 181t-271 75h-384v-256z" />
<glyph unicode="&#x44d;" d="M150 810q84 106 196 160t294 54q262 0 408 -102t146 -282v-214q0 -184 -147 -305t-407 -121q-312 0 -488 236l104 106q0 -106 112 -181t272 -75t272 75t112 181v170h-598v86h598v128q0 102 -109 157t-275 55t-275 -55t-109 -157z" />
<glyph unicode="&#x44e;" horiz-adv-x="1792" d="M86 0v1024h170v-342h256q0 150 148 246t406 96q266 0 411 -103t145 -281v-214q0 -184 -150 -305t-406 -121q-260 0 -407 121t-147 305v172h-256v-598h-170zM682 342q0 -106 113 -181t271 -75q160 0 272 75t112 181v384q0 102 -109 157t-275 55t-275 -56t-109 -156v-384z " />
<glyph unicode="&#x44f;" d="M86 0v362q0 90 66 164t186 116q-168 10 -168 168q0 104 107 159t363 55h554v-1024h-170v598h-426q-172 -14 -257 -94t-85 -184v-320h-170zM342 820q0 -58 59 -98t197 -40h426v256h-384q-94 0 -154 -8t-102 -35t-42 -75z" />
<glyph unicode="&#x450;" d="M86 426v214q0 180 146 282t408 102q260 0 407 -121t147 -305v-86h-938v-170q0 -106 112 -181t272 -75q126 0 248 49t170 121h116q-168 -256 -534 -256q-260 0 -407 121t-147 305zM256 598h768v128q0 102 -109 157t-275 55t-275 -55t-109 -157v-128zM512 1528q0 36 26 61 t60 25t60 -25t26 -61q0 -68 16 -113t33 -58t35 -13q0 -92 -28 -92q-50 0 -139 82t-89 194z" />
<glyph unicode="&#x451;" d="M86 426v214q0 180 146 282t408 102q260 0 407 -121t147 -305v-86h-938v-170q0 -106 112 -181t272 -75q126 0 248 49t170 121h116q-168 -256 -534 -256q-260 0 -407 121t-147 305zM212 1450q0 36 26 61t60 25t60 -25t26 -61q0 -34 -26 -59t-60 -25t-60 25t-26 59zM256 598 h768v128q0 102 -109 157t-275 55t-275 -55t-109 -157v-128zM896 1450q0 36 25 61t59 25q36 0 61 -25t25 -61q0 -34 -25 -59t-61 -25q-34 0 -59 25t-25 59z" />
<glyph unicode="&#x452;" horiz-adv-x="1280" d="M0 1024v86h86v426h170v-426h598v-86h-598v-238q164 68 342 68q260 0 386 -101t126 -283v-686q0 -210 -172 -210q-78 0 -128 18v92q50 -26 96 -26q32 0 32 142v754q0 104 -90 159t-250 55q-134 0 -238 -57t-104 -157v-554h-170v1024h-86z" />
<glyph unicode="&#x453;" horiz-adv-x="1108" d="M86 0v1024h852v-86h-682v-938h-170zM426 1344q18 0 35 13t34 58t17 113q0 36 25 61t59 25q36 0 61 -25t25 -61q0 -112 -89 -194t-139 -82q-28 0 -28 92z" />
<glyph unicode="&#x454;" d="M86 426v214q0 180 146 282t408 102q362 0 534 -214l-150 -84q0 102 -109 157t-275 55t-275 -55t-109 -157v-128h598v-86h-598v-170q0 -106 112 -181t272 -75t272 75t112 181l148 -106q-178 -236 -532 -236q-260 0 -407 121t-147 305z" />
<glyph unicode="&#x455;" d="M94 298h162q0 -102 107 -157t273 -55q118 0 198 15t135 65t55 134q0 212 -384 212q-218 0 -354 63t-136 171q0 124 130 201t382 77q236 0 345 -44t175 -170h-200q-42 80 -109 104t-211 24q-168 0 -255 -44t-87 -148q0 -54 53 -89t121 -47t146 -12q286 0 420 -92t134 -206 v-2q0 -170 -137 -234t-421 -64q-450 0 -542 298z" />
<glyph unicode="&#x456;" horiz-adv-x="596" d="M86 212v812h170v-798q0 -140 32 -140q76 0 224 88v-90q-136 -84 -256 -84q-170 0 -170 212zM86 1450q0 36 25 61t59 25q36 0 61 -25t25 -61q0 -34 -25 -59t-61 -25q-34 0 -59 25t-25 59z" />
<glyph unicode="&#x457;" horiz-adv-x="596" d="M0 1450q0 36 25 61t61 25q34 0 59 -25t25 -61q0 -34 -25 -59t-59 -25q-36 0 -61 25t-25 59zM86 212v812h170v-798q0 -140 32 -140q76 0 224 88v-90q-136 -84 -256 -84q-170 0 -170 212zM426 1450q0 36 26 61t60 25t60 -25t26 -61q0 -34 -26 -59t-60 -25t-60 25t-26 59z " />
<glyph unicode="&#x458;" horiz-adv-x="512" d="M42 -316q50 -26 96 -26q32 0 32 142v1224h172v-1240q0 -210 -172 -210q-78 0 -128 18v92zM170 1450q0 36 26 61t60 25t60 -25t26 -61q0 -34 -26 -59t-60 -25t-60 25t-26 59z" />
<glyph unicode="&#x459;" horiz-adv-x="2304" d="M42 0v86h96q32 0 32 140v798h1024v-342h384q260 0 408 -94t148 -246q0 -122 -153 -232t-403 -110h-384h-170v938h-682v-726q0 -34 -10 -77t-52 -89t-110 -46h-128zM1194 342q0 -166 75 -211t309 -45q160 0 272 75t112 181t-113 181t-271 75h-384v-256z" />
<glyph unicode="&#x45a;" horiz-adv-x="2218" d="M86 0v1024h170v-342h682v342h172v-342h384q258 0 406 -94t148 -246q0 -122 -153 -232t-401 -110h-556v598h-682v-598h-170zM1110 342q0 -166 75 -211t309 -45q160 0 272 75t112 181t-113 181t-271 75h-384v-256z" />
<glyph unicode="&#x45b;" horiz-adv-x="1280" d="M0 1024v86h86v426h170v-426h598v-86h-598v-238q164 68 342 68q260 0 386 -101t126 -283v-470h-172v554q0 104 -88 159t-244 55q-144 0 -247 -56t-103 -158v-554h-170v1024h-86z" />
<glyph unicode="&#x45c;" d="M86 0v1024h170v-370l874 370l64 -72l-446 -190q206 -30 326 -123t120 -233v-406h-170v448q0 100 -146 172t-312 72l-310 -136v-556h-170zM534 1344q18 0 35 13t34 58t17 113q0 36 25 61t59 25q36 0 61 -25t25 -61q0 -112 -89 -194t-139 -82q-28 0 -28 92z" />
<glyph unicode="&#x45d;" horiz-adv-x="1280" d="M86 0v1024h170v-668q2 2 45 42t65 54t86 35t146 25q146 0 243 121t97 241v150h172v-1024h-172v598q-100 -104 -173 -138t-167 -34q-150 0 -246 -102t-96 -218v-106h-170zM468 1528q0 36 26 61t60 25t60 -25t26 -61q0 -68 16 -113t33 -58t35 -13q0 -92 -28 -92 q-50 0 -139 82t-89 194z" />
<glyph unicode="&#x45e;" d="M86 428v596h170v-680q0 -108 112 -183t272 -75t272 75t112 183v680h170v-1024q0 -184 -149 -305t-405 -121q-192 0 -330 69t-214 187h146q48 -74 161 -123t237 -49q158 0 271 75t113 181v172q-168 -86 -384 -86q-260 0 -407 122t-147 306zM256 1532q0 36 29 61t65 25 q34 0 60 -25t26 -61q0 -12 -4 -48t-4 -50q0 -58 91 -136t211 -78q118 0 209 79t91 135q0 14 -3 50t-3 48q0 36 25 61t61 25q34 0 59 -25t25 -61q0 -106 -139 -245t-325 -139q-100 0 -192 43t-152 105t-95 126t-35 110z" />
<glyph unicode="&#x45f;" d="M86 0v1024h170v-938h682v938h172v-798q0 -140 32 -140h138v-86h-598v-256h-84v256h-512z" />
<glyph unicode="&#x464;" horiz-adv-x="1792" d="M86 0v1536h170v-598h256v214q0 180 146 282t408 102q188 0 335 -61t199 -153l-150 -84q0 102 -109 157t-275 55t-275 -56t-109 -156v-300h598v-84h-598v-512q0 -106 113 -181t271 -75q160 0 272 75t112 181l148 -106q-144 -236 -532 -236q-260 0 -407 121t-147 305v428 h-256v-854h-170z" />
<glyph unicode="&#x465;" horiz-adv-x="1792" d="M86 0v1024h170v-342h256q0 122 84 202t203 110t267 30q366 0 534 -214l-150 -84q0 102 -109 157t-275 55t-275 -56t-109 -156v-44h598v-84h-598v-256q0 -106 113 -181t271 -75q160 0 272 75t112 181l148 -106q-176 -236 -532 -236q-260 0 -407 121t-147 305v172h-256 v-598h-170z" />
<glyph unicode="&#x490;" horiz-adv-x="1280" d="M86 0v1536h854q52 0 68 16t16 70v170h86v-342h-598q-68 0 -101 -3t-76 -15t-61 -42t-18 -80v-1310h-170z" />
<glyph unicode="&#x491;" horiz-adv-x="1108" d="M86 0v1024h684q52 0 68 16t16 70v170h84v-342h-682v-938h-170z" />
<glyph unicode="&#x494;" horiz-adv-x="1280" d="M86 0v1536h1024v-86h-598q-68 0 -101 -3t-76 -15t-61 -42t-18 -80v-354q164 68 320 68q262 0 398 -102t136 -282v-856q0 -50 -72 -130t-184 -80q-78 0 -128 18v92q50 -26 96 -26q64 0 90 43t26 99v926q0 102 -101 157t-261 55q-320 0 -320 -212v-726h-170z" />
<glyph unicode="&#x495;" horiz-adv-x="1108" d="M86 0v1024h852v-86h-682v-408q104 68 256 68q204 0 315 -103t111 -281v-430q0 -52 -72 -131t-184 -79q-78 0 -128 18v92q50 -26 96 -26q64 0 91 44t27 98v498q0 214 -256 214q-102 0 -179 -57t-77 -157v-298h-170z" />
<glyph unicode="&#x4c0;" horiz-adv-x="426" d="M86 0v1536h170v-1536h-170z" />
<glyph unicode="&#x4c1;" horiz-adv-x="2304" d="M86 0v918q0 312 370 368l-370 146l64 72l874 -338v370h170v-370l876 340l64 -72l-372 -148q372 -56 372 -368v-918h-172v1002q0 102 -108 158t-276 56l-384 -148v-1068h-170v1068l-384 148q-168 0 -276 -56t-108 -158v-1002h-170zM640 1998q0 36 29 61t65 25q34 0 60 -25 t26 -61q0 -12 -4 -48t-4 -50q0 -58 91 -136t211 -78q118 0 209 79t91 135q0 14 -3 50t-3 48q0 36 25 61t61 25q34 0 59 -25t25 -61q0 -106 -139 -245t-325 -139q-100 0 -192 43t-152 105t-95 126t-35 110z" />
<glyph unicode="&#x4c2;" horiz-adv-x="2304" d="M86 0v406q0 312 370 368l-370 146l64 72l874 -338v370h170v-370l876 340l64 -72l-372 -148q372 -56 372 -368v-406h-172v490q0 102 -108 158t-276 56l-384 -148v-556h-170v556l-384 148q-168 0 -276 -56t-108 -158v-490h-170zM640 1534q0 36 29 61t65 25q34 0 60 -25 t26 -61q0 -12 -4 -48t-4 -50q0 -58 91 -136t211 -78q118 0 209 79t91 135q0 14 -3 50t-3 48q0 36 25 61t61 25q34 0 59 -25t25 -61q0 -106 -139 -245t-325 -139q-100 0 -192 43t-152 105t-95 126t-35 110z" />
<glyph unicode="&#x4d0;" d="M86 0v1152q0 180 146 282t408 102q264 0 409 -103t145 -281v-1152h-170v854h-768v-854h-170zM170 2040q0 36 29 61t65 25q34 0 60 -25t26 -61q0 -12 -4 -48t-4 -50q0 -58 91 -136t211 -78q118 0 209 79t91 135q0 14 -3 50t-3 48q0 36 25 61t61 25q34 0 59 -25t25 -61 q0 -106 -139 -245t-325 -139q-100 0 -192 43t-152 105t-95 126t-35 110zM256 938h768v300q0 102 -109 157t-275 55t-275 -55t-109 -157v-300z" />
<glyph unicode="&#x4d1;" d="M86 406q0 128 136 166q94 26 418 26h384v128q0 102 -109 157t-275 55q-232 0 -330 -96l-94 94q170 88 422 88q266 0 411 -103t145 -281v-640q-58 0 -95 33t-75 33q-4 0 -126 -33t-258 -33q-256 0 -405 121t-149 285zM192 1536q0 36 29 61t65 25q34 0 60 -25t26 -61 q0 -12 -4 -48t-4 -50q0 -58 91 -136t211 -78q118 0 209 79t91 135q0 14 -3 50t-3 48q0 36 25 61t61 25q34 0 59 -25t25 -61q0 -106 -139 -245t-325 -139q-100 0 -192 43t-152 105t-95 126t-35 110zM256 342q0 -106 112 -181t272 -75t272 75t112 181v170h-384q-86 0 -150 -7 t-120 -25t-85 -53t-29 -85z" />
<glyph unicode="&#x4d2;" d="M86 0v1152q0 180 146 282t408 102q264 0 409 -103t145 -281v-1152h-170v854h-768v-854h-170zM170 1828q0 36 26 61t60 25t60 -25t26 -61q0 -34 -26 -59t-60 -25t-60 25t-26 59zM256 938h768v300q0 102 -109 157t-275 55t-275 -55t-109 -157v-300zM854 1828q0 36 25 61 t59 25q36 0 61 -25t25 -61q0 -34 -25 -59t-61 -25q-34 0 -59 25t-25 59z" />
<glyph unicode="&#x4d3;" d="M86 406q0 128 136 166q94 26 418 26h384v128q0 102 -109 157t-275 55q-232 0 -330 -96l-94 94q170 88 422 88q266 0 411 -103t145 -281v-640q-58 0 -95 33t-75 33q-4 0 -126 -33t-258 -33q-256 0 -405 121t-149 285zM234 1450q0 36 26 61t60 25t60 -25t26 -61 q0 -34 -26 -59t-60 -25t-60 25t-26 59zM256 342q0 -106 112 -181t272 -75t272 75t112 181v170h-384q-86 0 -150 -7t-120 -25t-85 -53t-29 -85zM918 1450q0 36 25 61t59 25q36 0 61 -25t25 -61q0 -34 -25 -59t-61 -25q-34 0 -59 25t-25 59z" />
<glyph unicode="&#x4d4;" horiz-adv-x="2304" d="M86 0v1152q0 180 146 282t408 102q176 0 384 -90v90h1110v-86h-684q-68 0 -101 -3t-76 -15t-61 -42t-18 -80v-372h684v-84h-684v-628q0 -50 18 -80t61 -42t76 -15t101 -3h684v-86h-1110v854h-768v-854h-170zM256 938h768v300q0 102 -109 157t-275 55t-275 -55t-109 -157 v-300z" />
<glyph unicode="&#x4d5;" horiz-adv-x="2304" d="M86 406q0 128 136 166q94 26 418 26h384v128q0 102 -109 157t-275 55q-232 0 -330 -96l-94 94q170 88 424 88q278 0 470 -156q178 156 468 156q260 0 408 -121t148 -305v-86h-940v-170q0 -106 113 -181t271 -75q164 0 270 56t114 156h172q-44 -136 -187 -217t-369 -81 q-212 0 -384 86v-86q-34 0 -81 33t-89 33q-4 0 -126 -33t-258 -33q-256 0 -405 121t-149 285zM256 342q0 -106 112 -181t272 -75t272 75t112 181v170h-384q-86 0 -150 -7t-120 -25t-85 -53t-29 -85zM1194 598h768v128q0 102 -109 157t-275 55t-275 -56t-109 -156v-128z" />
<glyph unicode="&#x4d6;" d="M86 0v1536h1108v-86h-682q-68 0 -101 -3t-76 -15t-61 -42t-18 -80v-372h682v-84h-682v-628q0 -50 18 -80t61 -42t76 -15t101 -3h682v-86h-1108zM256 2040q0 36 29 61t65 25q34 0 60 -25t26 -61q0 -12 -4 -48t-4 -50q0 -58 91 -136t211 -78q118 0 209 79t91 135 q0 14 -3 50t-3 48q0 36 25 61t61 25q34 0 59 -25t25 -61q0 -106 -139 -245t-325 -139q-100 0 -192 43t-152 105t-95 126t-35 110z" />
<glyph unicode="&#x4d7;" d="M86 426v214q0 180 146 282t408 102q260 0 407 -121t147 -305v-86h-938v-170q0 -106 112 -181t272 -75q126 0 248 49t170 121h116q-168 -256 -534 -256q-260 0 -407 121t-147 305zM170 1536q0 36 29 61t65 25q34 0 60 -25t26 -61q0 -12 -4 -48t-4 -50q0 -58 91 -136 t211 -78q118 0 209 79t91 135q0 14 -3 50t-3 48q0 36 25 61t61 25q34 0 59 -25t25 -61q0 -106 -139 -245t-325 -139q-100 0 -192 43t-152 105t-95 126t-35 110zM256 598h768v128q0 102 -109 157t-275 55t-275 -55t-109 -157v-128z" />
<glyph unicode="&#x4dc;" horiz-adv-x="2304" d="M86 0v918q0 312 370 368l-370 146l64 72l874 -338v370h170v-370l876 340l64 -72l-372 -148q372 -56 372 -368v-918h-172v1002q0 102 -108 158t-276 56l-384 -148v-1068h-170v1068l-384 148q-168 0 -276 -56t-108 -158v-1002h-170zM682 1828q0 36 26 61t60 25t60 -25 t26 -61q0 -34 -26 -59t-60 -25t-60 25t-26 59zM1366 1828q0 36 25 61t59 25q36 0 61 -25t25 -61q0 -34 -25 -59t-61 -25q-34 0 -59 25t-25 59z" />
<glyph unicode="&#x4dd;" horiz-adv-x="2304" d="M86 0v406q0 312 370 368l-370 146l64 72l874 -338v370h170v-370l876 340l64 -72l-372 -148q372 -56 372 -368v-406h-172v490q0 102 -108 158t-276 56l-384 -148v-556h-170v556l-384 148q-168 0 -276 -56t-108 -158v-490h-170zM682 1450q0 36 26 61t60 25t60 -25t26 -61 q0 -34 -26 -59t-60 -25t-60 25t-26 59zM1366 1450q0 36 25 61t59 25q36 0 61 -25t25 -61q0 -34 -25 -59t-61 -25q-34 0 -59 25t-25 59z" />
<glyph unicode="&#x4de;" d="M86 426h170v-84q0 -106 112 -181t272 -75q148 0 266 67t118 167v320q0 214 -298 214v84q56 0 97 17t63 42t34 64t15 70t3 73v84q0 162 -298 162q-146 0 -237 -43t-105 -127h-128q40 138 143 197t327 59q248 0 359 -84t111 -214q0 -64 -5 -107t-20 -95t-51 -86t-92 -52 q252 -74 252 -386v-86q0 -184 -149 -305t-405 -121q-260 0 -407 121t-147 305zM212 1828q0 36 26 61t60 25t60 -25t26 -61q0 -34 -26 -59t-60 -25t-60 25t-26 59zM896 1828q0 36 25 61t59 25q36 0 61 -25t25 -61q0 -34 -25 -59t-61 -25q-34 0 -59 25t-25 59z" />
<glyph unicode="&#x4df;" d="M86 426h170v-84q0 -106 112 -181t272 -75q150 0 267 78t117 156q0 104 -85 184t-257 94v84q138 0 197 40t59 98q0 48 -42 75t-102 35t-154 8q-146 0 -237 -43t-105 -127h-128q40 122 147 189t323 67q256 0 363 -55t107 -159q0 -142 -168 -168q252 -100 252 -280 q0 -142 -152 -252t-402 -110q-260 0 -407 121t-147 305zM212 1450q0 36 26 61t60 25t60 -25t26 -61q0 -34 -26 -59t-60 -25t-60 25t-26 59zM896 1450q0 36 25 61t59 25q36 0 61 -25t25 -61q0 -34 -25 -59t-61 -25q-34 0 -59 25t-25 59z" />
<glyph unicode="&#x4e2;" d="M84 1658v86h1110v-86h-1110zM86 0v1536h170v-668q94 78 158 106q96 42 226 50q150 0 267 123t117 239v150h170v-1536h-170v1110q-162 -172 -384 -172q-152 0 -268 -104t-116 -216v-618h-170z" />
<glyph unicode="&#x4e3;" horiz-adv-x="1280" d="M84 1366v86h1110v-86h-1110zM86 0v1024h170v-668q2 2 45 42t65 54t86 35t146 25q146 0 243 121t97 241v150h172v-1024h-172v598q-100 -104 -173 -138t-167 -34q-150 0 -246 -102t-96 -218v-106h-170z" />
<glyph unicode="&#x4e4;" d="M86 0v1536h170v-668q94 78 158 106q96 42 226 50q150 0 267 123t117 239v150h170v-1536h-170v1110q-162 -172 -384 -172q-152 0 -268 -104t-116 -216v-618h-170zM212 1828q0 36 26 61t60 25t60 -25t26 -61q0 -34 -26 -59t-60 -25t-60 25t-26 59zM896 1828q0 36 25 61 t59 25q36 0 61 -25t25 -61q0 -34 -25 -59t-61 -25q-34 0 -59 25t-25 59z" />
<glyph unicode="&#x4e5;" horiz-adv-x="1280" d="M86 0v1024h170v-668q2 2 45 42t65 54t86 35t146 25q146 0 243 121t97 241v150h172v-1024h-172v598q-100 -104 -173 -138t-167 -34q-150 0 -246 -102t-96 -218v-106h-170zM170 1450q0 36 26 61t60 25t60 -25t26 -61q0 -34 -26 -59t-60 -25t-60 25t-26 59zM854 1450 q0 36 25 61t59 25q36 0 61 -25t25 -61q0 -34 -25 -59t-61 -25q-34 0 -59 25t-25 59z" />
<glyph unicode="&#x4e6;" d="M86 426v726q0 180 146 282t408 102q264 0 409 -103t145 -281v-726q0 -184 -149 -305t-405 -121q-260 0 -407 121t-147 305zM212 1828q0 36 26 61t60 25t60 -25t26 -61q0 -34 -26 -59t-60 -25t-60 25t-26 59zM256 342q0 -106 112 -181t272 -75t272 75t112 181v896 q0 102 -109 157t-275 55t-275 -55t-109 -157v-896zM896 1828q0 36 25 61t59 25q36 0 61 -25t25 -61q0 -34 -25 -59t-61 -25q-34 0 -59 25t-25 59z" />
<glyph unicode="&#x4e7;" d="M86 426v214q0 180 146 282t408 102q264 0 409 -103t145 -281v-214q0 -184 -149 -305t-405 -121q-260 0 -407 121t-147 305zM212 1450q0 36 26 61t60 25t60 -25t26 -61q0 -34 -26 -59t-60 -25t-60 25t-26 59zM256 342q0 -106 112 -181t272 -75t272 75t112 181v384 q0 102 -109 157t-275 55t-275 -55t-109 -157v-384zM896 1450q0 36 25 61t59 25q36 0 61 -25t25 -61q0 -34 -25 -59t-61 -25q-34 0 -59 25t-25 59z" />
<glyph unicode="&#x4e8;" d="M86 426v726q0 180 146 282t408 102q264 0 409 -103t145 -281v-726q0 -184 -149 -305t-405 -121q-260 0 -407 121t-147 305zM256 342q0 -106 112 -181t272 -75t272 75t112 181v426h-768v-426zM256 854h768v384q0 102 -109 157t-275 55t-275 -55t-109 -157v-384z" />
<glyph unicode="&#x4e9;" d="M86 426v214q0 180 146 282t408 102q264 0 409 -103t145 -281v-214q0 -184 -149 -305t-405 -121q-260 0 -407 121t-147 305zM256 342q0 -106 112 -181t272 -75t272 75t112 181v170h-768v-170zM256 598h768v128q0 102 -109 157t-275 55t-275 -55t-109 -157v-128z" />
<glyph unicode="&#x4ea;" d="M86 426v726q0 180 146 282t408 102q264 0 409 -103t145 -281v-726q0 -184 -149 -305t-405 -121q-260 0 -407 121t-147 305zM212 1828q0 36 26 61t60 25t60 -25t26 -61q0 -34 -26 -59t-60 -25t-60 25t-26 59zM256 342q0 -106 112 -181t272 -75t272 75t112 181v426h-768 v-426zM256 854h768v384q0 102 -109 157t-275 55t-275 -55t-109 -157v-384zM896 1828q0 36 25 61t59 25q36 0 61 -25t25 -61q0 -34 -25 -59t-61 -25q-34 0 -59 25t-25 59z" />
<glyph unicode="&#x4eb;" d="M86 426v214q0 180 146 282t408 102q264 0 409 -103t145 -281v-214q0 -184 -149 -305t-405 -121q-260 0 -407 121t-147 305zM212 1450q0 36 26 61t60 25t60 -25t26 -61q0 -34 -26 -59t-60 -25t-60 25t-26 59zM256 342q0 -106 112 -181t272 -75t272 75t112 181v170h-768 v-170zM256 598h768v128q0 102 -109 157t-275 55t-275 -55t-109 -157v-128zM896 1450q0 36 25 61t59 25q36 0 61 -25t25 -61q0 -34 -25 -59t-61 -25q-34 0 -59 25t-25 59z" />
<glyph unicode="&#x4ec;" d="M106 1322q104 124 220 169t314 45q262 0 408 -102t146 -282v-726q0 -184 -147 -305t-407 -121q-190 0 -316 56t-216 180l148 106q0 -106 112 -181t272 -75t272 75t112 181v426h-598v86h598v384q0 102 -109 157t-275 55t-275 -55t-109 -157zM224 1828q0 36 26 61t60 25 t60 -25t26 -61q0 -34 -26 -59t-60 -25t-60 25t-26 59zM908 1828q0 36 25 61t59 25q36 0 61 -25t25 -61q0 -34 -25 -59t-61 -25q-34 0 -59 25t-25 59z" />
<glyph unicode="&#x4ed;" d="M150 810q84 106 196 160t294 54q262 0 408 -102t146 -282v-214q0 -184 -147 -305t-407 -121q-312 0 -488 236l104 106q0 -106 112 -181t272 -75t272 75t112 181v170h-598v86h598v128q0 102 -109 157t-275 55t-275 -55t-109 -157zM244 1450q0 36 26 61t60 25t60 -25 t26 -61q0 -34 -26 -59t-60 -25t-60 25t-26 59zM928 1450q0 36 25 61t59 25q36 0 61 -25t25 -61q0 -34 -25 -59t-61 -25q-34 0 -59 25t-25 59z" />
<glyph unicode="&#x4ee;" d="M84 1660v86h1110v-86h-1110zM86 428v1108h170v-1192q0 -108 112 -183t272 -75t272 75t112 183v1192h170v-1536q0 -204 -145 -315t-409 -111q-192 0 -330 69t-214 187h146q48 -74 161 -123t237 -49q158 0 271 75t113 181v172q-168 -86 -384 -86q-260 0 -407 122t-147 306z " />
<glyph unicode="&#x4ef;" d="M84 1366v86h1110v-86h-1110zM86 428v596h170v-680q0 -108 112 -183t272 -75t272 75t112 183v680h170v-1024q0 -184 -149 -305t-405 -121q-192 0 -330 69t-214 187h146q48 -74 161 -123t237 -49q158 0 271 75t113 181v172q-168 -86 -384 -86q-260 0 -407 122t-147 306z " />
<glyph unicode="&#x4f0;" d="M86 428v1108h170v-1192q0 -108 112 -183t272 -75t272 75t112 183v1192h170v-1536q0 -204 -145 -315t-409 -111q-192 0 -330 69t-214 187h146q48 -74 161 -123t237 -49q158 0 271 75t113 181v172q-168 -86 -384 -86q-260 0 -407 122t-147 306zM212 1830q0 36 26 61t60 25 t60 -25t26 -61q0 -34 -26 -59t-60 -25t-60 25t-26 59zM896 1830q0 36 25 61t59 25q36 0 61 -25t25 -61q0 -34 -25 -59t-61 -25q-34 0 -59 25t-25 59z" />
<glyph unicode="&#x4f1;" d="M86 428v596h170v-680q0 -108 112 -183t272 -75t272 75t112 183v680h170v-1024q0 -184 -149 -305t-405 -121q-192 0 -330 69t-214 187h146q48 -74 161 -123t237 -49q158 0 271 75t113 181v172q-168 -86 -384 -86q-260 0 -407 122t-147 306zM212 1318q0 36 26 61t60 25 t60 -25t26 -61q0 -34 -26 -59t-60 -25t-60 25t-26 59zM896 1318q0 36 25 61t59 25q36 0 61 -25t25 -61q0 -34 -25 -59t-61 -25q-34 0 -59 25t-25 59z" />
<glyph unicode="&#x4f2;" d="M86 428v1108h170v-1192q0 -108 112 -183t272 -75t272 75t112 183v1192h170v-1536q0 -204 -145 -315t-409 -111q-192 0 -330 69t-214 187h146q48 -74 161 -123t237 -49q158 0 271 75t113 181v172q-168 -86 -384 -86q-260 0 -407 122t-147 306zM256 1860q18 0 35 13t34 58 t17 113q0 36 25 61t61 25q34 0 59 -25t25 -61q0 -112 -92 -194t-142 -82q-22 0 -22 92zM854 1860q18 0 35 13t34 58t17 113q0 36 25 61t59 25q36 0 61 -25t25 -61q0 -112 -92 -194t-142 -82q-22 0 -22 92z" />
<glyph unicode="&#x4f3;" d="M86 428v596h170v-680q0 -108 112 -183t272 -75t272 75t112 183v680h170v-1024q0 -184 -149 -305t-405 -121q-192 0 -330 69t-214 187h146q48 -74 161 -123t237 -49q158 0 271 75t113 181v172q-168 -86 -384 -86q-260 0 -407 122t-147 306zM256 1348q18 0 35 13t34 58 t17 113q0 36 25 61t61 25q34 0 59 -25t25 -61q0 -112 -92 -194t-142 -82q-22 0 -22 92zM854 1348q18 0 35 13t34 58t17 113q0 36 25 61t59 25q36 0 61 -25t25 -61q0 -112 -92 -194t-142 -82q-22 0 -22 92z" />
<glyph unicode="&#x4f4;" d="M86 1196v340h170v-424q0 -108 112 -183t272 -75t272 75t112 183v424h170v-1536h-170v854q-168 -86 -384 -86q-260 0 -407 122t-147 306zM170 1830q0 36 26 61t60 25t60 -25t26 -61q0 -34 -26 -59t-60 -25t-60 25t-26 59zM854 1830q0 36 25 61t59 25q36 0 61 -25t25 -61 q0 -34 -25 -59t-61 -25q-34 0 -59 25t-25 59z" />
<glyph unicode="&#x4f5;" horiz-adv-x="1280" d="M86 856v168h170v-254q0 -114 74 -186t224 -72q158 0 271 76t113 182v254h172v-1024h-172v512q-168 -86 -384 -86q-468 0 -468 430zM170 1450q0 36 26 61t60 25t60 -25t26 -61q0 -34 -26 -59t-60 -25t-60 25t-26 59zM854 1450q0 36 25 61t59 25q36 0 61 -25t25 -61 q0 -34 -25 -59t-61 -25q-34 0 -59 25t-25 59z" />
<glyph unicode="&#x4f8;" horiz-adv-x="1706" d="M86 0v1536h170v-454q0 -52 27 -82t90 -43t114 -16t153 -3q138 0 243 -31t162 -77t93 -110t46 -116t10 -110v-4q-4 -206 -152 -348t-402 -142h-554zM256 226q0 -34 12 -59t42 -40t57 -24t81 -12t88 -4t104 -1q160 0 272 75t112 181v298q0 102 -109 158t-275 56h-384v-628z M384 1828q0 36 26 61t60 25t60 -25t26 -61q0 -34 -26 -59t-60 -25t-60 25t-26 59zM1068 1828q0 36 25 61t59 25q36 0 61 -25t25 -61q0 -34 -25 -59t-61 -25q-34 0 -59 25t-25 59zM1366 0v1536h170v-1536h-170z" />
<glyph unicode="&#x4f9;" horiz-adv-x="1706" d="M86 0v1024h170v-342h384q258 0 406 -94t148 -246q0 -122 -153 -232t-401 -110h-554zM256 342q0 -166 75 -211t309 -45q160 0 272 75t112 181t-113 181t-271 75h-384v-256zM384 1452q0 36 26 61t60 25t60 -25t26 -61q0 -34 -26 -59t-60 -25t-60 25t-26 59zM1068 1452 q0 36 25 61t59 25q36 0 61 -25t25 -61q0 -34 -25 -59t-61 -25q-34 0 -59 25t-25 59zM1366 0v1024h170v-1024h-170z" />
<glyph unicode="&#x1e00;" d="M86 0v1152q0 180 146 282t408 102q264 0 409 -103t145 -281v-1152h-170v854h-768v-854h-170zM256 938h768v300q0 102 -109 157t-275 55t-275 -55t-109 -157v-300zM428 -214q0 88 62 151t150 63t151 -63t63 -151t-63 -150t-151 -62q-86 0 -149 63t-63 149zM512 -214 q0 -52 38 -90t90 -38q54 0 91 38t37 90q0 54 -37 91t-91 37q-52 0 -90 -37t-38 -91z" />
<glyph unicode="&#x1e01;" d="M86 406q0 128 136 166q94 26 418 26h384v128q0 102 -109 157t-275 55q-232 0 -330 -96l-94 94q170 88 422 88q266 0 411 -103t145 -281v-640q-58 0 -95 33t-75 33q-4 0 -126 -33t-258 -33q-256 0 -405 121t-149 285zM256 342q0 -106 112 -181t272 -75t272 75t112 181v170 h-384q-86 0 -150 -7t-120 -25t-85 -53t-29 -85zM428 -336q0 88 62 151t150 63t151 -63t63 -151t-63 -150t-151 -62q-86 0 -149 63t-63 149zM512 -336q0 -52 38 -90t90 -38q54 0 91 38t37 90q0 54 -37 91t-91 37q-52 0 -90 -37t-38 -91z" />
<glyph unicode="&#x1e02;" d="M86 0v1536h512q244 0 378 -93t134 -255v-2q0 -214 -176 -286q152 -80 206 -170t54 -260q0 -190 -151 -330t-403 -140h-554zM86 1536zM256 226q0 -34 12 -59t42 -40t57 -24t81 -12t88 -4t104 -1q154 0 269 94t115 204v214q0 106 -113 181t-271 75h-384v-628zM256 1082 q0 -52 27 -82t90 -43t114 -16t153 -3q162 0 230 51t68 185v64q0 212 -384 212q-54 0 -81 -1t-69 -4t-63 -12t-44 -24t-32 -40t-9 -59v-228zM554 1742q0 36 25 61t61 25q34 0 59 -25t25 -61q0 -34 -25 -59t-59 -25q-36 0 -61 25t-25 59z" />
<glyph unicode="&#x1e03;" d="M86 426v1110h170v-598q168 86 384 86q264 0 409 -103t145 -281v-214q0 -184 -149 -305t-405 -121q-260 0 -407 121t-147 305zM256 342q0 -106 112 -181t272 -75t272 75t112 181v384q0 102 -109 157t-275 55t-275 -55t-109 -157v-384zM554 1742q0 36 25 61t61 25 q34 0 59 -25t25 -61q0 -34 -25 -59t-59 -25q-36 0 -61 25t-25 59z" />
<glyph unicode="&#x1e04;" d="M86 0v1536h512q244 0 378 -93t134 -255v-2q0 -214 -176 -286q152 -80 206 -170t54 -260q0 -190 -151 -330t-403 -140h-554zM86 1536zM256 226q0 -34 12 -59t42 -40t57 -24t81 -12t88 -4t104 -1q154 0 269 94t115 204v214q0 106 -113 181t-271 75h-384v-628zM256 1082 q0 -52 27 -82t90 -43t114 -16t153 -3q162 0 230 51t68 185v64q0 212 -384 212q-54 0 -81 -1t-69 -4t-63 -12t-44 -24t-32 -40t-9 -59v-228zM554 -208q0 36 25 61t61 25q34 0 59 -25t25 -61q0 -34 -25 -59t-59 -25q-36 0 -61 25t-25 59z" />
<glyph unicode="&#x1e05;" d="M86 426v1110h170v-598q168 86 384 86q264 0 409 -103t145 -281v-214q0 -184 -149 -305t-405 -121q-260 0 -407 121t-147 305zM256 342q0 -106 112 -181t272 -75t272 75t112 181v384q0 102 -109 157t-275 55t-275 -55t-109 -157v-384zM554 -208q0 36 25 61t61 25 q34 0 59 -25t25 -61q0 -34 -25 -59t-59 -25q-36 0 -61 25t-25 59z" />
<glyph unicode="&#x1e06;" d="M84 -120h1110v-86h-1110v86zM86 0v1536h512q244 0 378 -93t134 -255v-2q0 -214 -176 -286q152 -80 206 -170t54 -260q0 -190 -151 -330t-403 -140h-554zM86 1536zM256 226q0 -34 12 -59t42 -40t57 -24t81 -12t88 -4t104 -1q154 0 269 94t115 204v214q0 106 -113 181 t-271 75h-384v-628zM256 1082q0 -52 27 -82t90 -43t114 -16t153 -3q162 0 230 51t68 185v64q0 212 -384 212q-54 0 -81 -1t-69 -4t-63 -12t-44 -24t-32 -40t-9 -59v-228z" />
<glyph unicode="&#x1e07;" d="M84 -120h1110v-86h-1110v86zM86 426v1110h170v-598q168 86 384 86q264 0 409 -103t145 -281v-214q0 -184 -149 -305t-405 -121q-260 0 -407 121t-147 305zM256 342q0 -106 112 -181t272 -75t272 75t112 181v384q0 102 -109 157t-275 55t-275 -55t-109 -157v-384z" />
<glyph unicode="&#x1e08;" d="M86 426v726q0 180 146 282t408 102q238 0 393 -82t161 -216h-128q0 100 -127 156t-299 56q-166 0 -275 -55t-109 -157v-896q0 -106 112 -181t272 -75q164 0 295 76t131 180h128q-10 -114 -127 -208t-295 -124q42 -32 64 -70q40 -64 50 -97t10 -97q0 -48 -34 -68t-72 -20 q-22 0 -44 6t-43 27t-21 55q0 32 32 76t32 70q0 48 -41 78t-65 30q-260 0 -407 121t-147 305zM512 1750q18 0 35 13t34 58t17 113q0 36 25 61t59 25q36 0 61 -25t25 -61q0 -112 -89 -194t-139 -82q-28 0 -28 92z" />
<glyph unicode="&#x1e09;" d="M86 426v214q0 180 146 282t408 102q468 0 554 -298h-170q0 102 -109 157t-275 55t-275 -55t-109 -157v-384q0 -106 112 -181t272 -75t272 75t112 181h170q-38 -130 -146 -219t-276 -113q38 -28 62 -70q40 -64 51 -98t11 -96q0 -48 -34 -68t-72 -20q-22 0 -44 6t-43 27 t-21 55q0 32 32 76t32 70q0 48 -41 78t-65 30q-260 0 -407 121t-147 305zM512 1238q18 0 35 13t34 58t17 113q0 36 25 61t59 25q36 0 61 -25t25 -61q0 -112 -89 -194t-139 -82q-28 0 -28 92z" />
<glyph unicode="&#x1e0a;" d="M86 0v1536h554q264 0 409 -103t145 -281v-726q0 -184 -149 -305t-405 -121h-554zM256 226q0 -34 12 -59t42 -40t57 -24t81 -12t88 -4t104 -1q160 0 272 75t112 181v896q0 102 -109 157t-275 55q-70 0 -104 -1t-88 -4t-81 -12t-57 -24t-42 -40t-12 -59v-1084zM554 1742 q0 36 25 61t61 25q34 0 59 -25t25 -61q0 -34 -25 -59t-59 -25q-36 0 -61 25t-25 59z" />
<glyph unicode="&#x1e0b;" d="M86 426v214q0 180 146 282t408 102q216 0 384 -86v598h170v-1536q-54 0 -88 33t-82 33q-66 0 -163 -33t-221 -33q-260 0 -407 121t-147 305zM256 342q0 -106 112 -181t272 -75t272 75t112 181v384q0 102 -109 157t-275 55t-275 -55t-109 -157v-384zM554 1742q0 36 25 61 t61 25q34 0 59 -25t25 -61q0 -34 -25 -59t-59 -25q-36 0 -61 25t-25 59z" />
<glyph unicode="&#x1e0c;" d="M86 0v1536h554q264 0 409 -103t145 -281v-726q0 -184 -149 -305t-405 -121h-554zM256 226q0 -34 12 -59t42 -40t57 -24t81 -12t88 -4t104 -1q160 0 272 75t112 181v896q0 102 -109 157t-275 55q-70 0 -104 -1t-88 -4t-81 -12t-57 -24t-42 -40t-12 -59v-1084zM554 -208 q0 36 25 61t61 25q34 0 59 -25t25 -61q0 -34 -25 -59t-59 -25q-36 0 -61 25t-25 59z" />
<glyph unicode="&#x1e0d;" d="M86 426v214q0 180 146 282t408 102q216 0 384 -86v598h170v-1536q-54 0 -88 33t-82 33q-66 0 -163 -33t-221 -33q-260 0 -407 121t-147 305zM256 342q0 -106 112 -181t272 -75t272 75t112 181v384q0 102 -109 157t-275 55t-275 -55t-109 -157v-384zM554 -208q0 36 25 61 t61 25q34 0 59 -25t25 -61q0 -34 -25 -59t-59 -25q-36 0 -61 25t-25 59z" />
<glyph unicode="&#x1e0e;" d="M84 -120h1110v-86h-1110v86zM86 0v1536h554q264 0 409 -103t145 -281v-726q0 -184 -149 -305t-405 -121h-554zM256 226q0 -34 12 -59t42 -40t57 -24t81 -12t88 -4t104 -1q160 0 272 75t112 181v896q0 102 -109 157t-275 55q-70 0 -104 -1t-88 -4t-81 -12t-57 -24t-42 -40 t-12 -59v-1084z" />
<glyph unicode="&#x1e0f;" d="M84 -120h1110v-86h-1110v86zM86 426v214q0 180 146 282t408 102q216 0 384 -86v598h170v-1536q-54 0 -88 33t-82 33q-66 0 -163 -33t-221 -33q-260 0 -407 121t-147 305zM256 342q0 -106 112 -181t272 -75t272 75t112 181v384q0 102 -109 157t-275 55t-275 -55t-109 -157 v-384z" />
<glyph unicode="&#x1e10;" d="M86 0v1536h554q264 0 409 -103t145 -281v-726q0 -166 -122 -282t-338 -140q26 -18 56 -64q40 -66 51 -99t11 -95q0 -48 -35 -68t-73 -20q-22 0 -43 6t-42 27t-21 55q0 32 32 76t32 70q0 46 -38 77t-68 31h-510zM256 226q0 -34 12 -59t42 -40t57 -24t81 -12t88 -4t104 -1 q160 0 272 75t112 181v896q0 102 -109 157t-275 55q-70 0 -104 -1t-88 -4t-81 -12t-57 -24t-42 -40t-12 -59v-1084z" />
<glyph unicode="&#x1e11;" d="M86 426v214q0 180 146 282t408 102q216 0 384 -86v598h170v-1536q-54 0 -88 33t-82 33q-64 0 -139 -25t-111 -31q38 -30 60 -70q40 -64 51 -98t11 -96q0 -48 -34 -68t-72 -20q-22 0 -44 6t-43 27t-21 55q0 32 32 76t32 70q0 48 -41 78t-65 30q-260 0 -407 121t-147 305z M256 342q0 -106 112 -181t272 -75t272 75t112 181v384q0 102 -109 157t-275 55t-275 -55t-109 -157v-384z" />
<glyph unicode="&#x1e12;" d="M86 0v1536h554q264 0 409 -103t145 -281v-726q0 -184 -149 -305t-405 -121h-554zM170 -504q0 20 2 35t12 31t19 28t33 31t45 33t62 40t78 49t101 62t122 75q54 -34 113 -71t94 -58t75 -46t60 -39t44 -31t34 -29t21 -25t15 -26t6 -27t2 -32q0 -36 -25 -61t-59 -25 q-36 0 -61 25t-25 61q0 74 -14 98q-6 8 -11 14l-10 12t-14 13t-16 12l-21 15t-25 16t-33 20t-39 25t-51 31t-60 36q-38 -22 -82 -49t-64 -39t-45 -28t-34 -23t-22 -18t-19 -18t-14 -19q-14 -24 -14 -98q0 -36 -26 -61t-60 -25q-36 0 -65 25t-29 61zM256 226q0 -34 12 -59 t42 -40t57 -24t81 -12t88 -4t104 -1q160 0 272 75t112 181v896q0 102 -109 157t-275 55q-70 0 -104 -1t-88 -4t-81 -12t-57 -24t-42 -40t-12 -59v-1084z" />
<glyph unicode="&#x1e13;" d="M86 426v214q0 180 146 282t408 102q216 0 384 -86v598h170v-1536q-54 0 -88 33t-82 33q-66 0 -163 -33t-221 -33q-260 0 -407 121t-147 305zM170 -504q0 20 2 35t12 31t19 28t33 31t45 33t62 40t78 49t101 62t122 75q54 -34 113 -71t94 -58t75 -46t60 -39t44 -31t34 -29 t21 -25t15 -26t6 -27t2 -32q0 -36 -25 -61t-59 -25q-36 0 -61 25t-25 61q0 74 -14 98q-6 8 -11 14l-10 12t-14 13t-16 12l-21 15t-25 16t-33 20t-39 25t-51 31t-60 36q-38 -22 -82 -49t-64 -39t-45 -28t-34 -23t-22 -18t-19 -18t-14 -19q-14 -24 -14 -98q0 -36 -26 -61 t-60 -25q-36 0 -65 25t-29 61zM256 342q0 -106 112 -181t272 -75t272 75t112 181v384q0 102 -109 157t-275 55t-275 -55t-109 -157v-384z" />
<glyph unicode="&#x1e14;" d="M84 1706v86h1110v-86h-1110zM86 0v1536h1108v-86h-682q-68 0 -101 -3t-76 -15t-61 -42t-18 -80v-372h682v-84h-682v-628q0 -50 18 -80t61 -42t76 -15t101 -3h682v-86h-1108zM512 2190q0 36 26 61t60 25t60 -25t26 -61q0 -68 16 -113t33 -58t35 -13q0 -92 -28 -92 q-50 0 -139 82t-89 194z" />
<glyph unicode="&#x1e15;" d="M84 1366v86h1110v-86h-1110zM86 426v214q0 180 146 282t408 102q260 0 407 -121t147 -305v-86h-938v-170q0 -106 112 -181t272 -75q126 0 248 49t170 121h116q-168 -256 -534 -256q-260 0 -407 121t-147 305zM256 598h768v128q0 102 -109 157t-275 55t-275 -55t-109 -157 v-128zM512 1848q0 36 26 61t60 25t60 -25t26 -61q0 -68 16 -113t33 -58t35 -13q0 -92 -28 -92q-50 0 -139 82t-89 194z" />
<glyph unicode="&#x1e16;" d="M84 1706v86h1110v-86h-1110zM86 0v1536h1108v-86h-682q-68 0 -101 -3t-76 -15t-61 -42t-18 -80v-372h682v-84h-682v-628q0 -50 18 -80t61 -42t76 -15t101 -3h682v-86h-1108zM512 2006q18 0 35 13t34 58t17 113q0 36 25 61t59 25q36 0 61 -25t25 -61q0 -112 -89 -194 t-139 -82q-28 0 -28 92z" />
<glyph unicode="&#x1e17;" d="M84 1366v86h1110v-86h-1110zM86 426v214q0 180 146 282t408 102q260 0 407 -121t147 -305v-86h-938v-170q0 -106 112 -181t272 -75q126 0 248 49t170 121h116q-168 -256 -534 -256q-260 0 -407 121t-147 305zM256 598h768v128q0 102 -109 157t-275 55t-275 -55t-109 -157 v-128zM512 1664q18 0 35 13t34 58t17 113q0 36 25 61t59 25q36 0 61 -25t25 -61q0 -112 -89 -194t-139 -82q-28 0 -28 92z" />
<glyph unicode="&#x1e18;" d="M86 0v1536h1108v-86h-682q-68 0 -101 -3t-76 -15t-61 -42t-18 -80v-372h682v-84h-682v-628q0 -50 18 -80t61 -42t76 -15t101 -3h682v-86h-1108zM170 -504q0 20 2 35t12 31t19 28t33 31t45 33t62 40t78 49t101 62t122 75q54 -34 113 -71t94 -58t75 -46t60 -39t44 -31 t34 -29t21 -25t15 -26t6 -27t2 -32q0 -36 -25 -61t-59 -25q-36 0 -61 25t-25 61q0 74 -14 98q-6 8 -11 14l-10 12t-14 13t-16 12l-21 15t-25 16t-33 20t-39 25t-51 31t-60 36q-38 -22 -82 -49t-64 -39t-45 -28t-34 -23t-22 -18t-19 -18t-14 -19q-14 -24 -14 -98 q0 -36 -26 -61t-60 -25q-36 0 -65 25t-29 61z" />
<glyph unicode="&#x1e19;" d="M86 426v214q0 180 146 282t408 102q260 0 407 -121t147 -305v-86h-938v-170q0 -106 112 -181t272 -75q126 0 248 49t170 121h116q-168 -256 -534 -256q-260 0 -407 121t-147 305zM170 -504q0 20 2 35t12 31t19 28t33 31t45 33t62 40t78 49t101 62t122 75q54 -34 113 -71 t94 -58t75 -46t60 -39t44 -31t34 -29t21 -25t15 -26t6 -27t2 -32q0 -36 -25 -61t-59 -25q-36 0 -61 25t-25 61q0 74 -14 98q-6 8 -11 14l-10 12t-14 13t-16 12l-21 15t-25 16t-33 20t-39 25t-51 31t-60 36q-38 -22 -82 -49t-64 -39t-45 -28t-34 -23t-22 -18t-19 -18t-14 -19 q-14 -24 -14 -98q0 -36 -26 -61t-60 -25q-36 0 -65 25t-29 61zM256 598h768v128q0 102 -109 157t-275 55t-275 -55t-109 -157v-128z" />
<glyph unicode="&#x1e1a;" d="M86 0v1536h1108v-86h-682q-68 0 -101 -3t-76 -15t-61 -42t-18 -80v-372h682v-84h-682v-628q0 -50 18 -80t61 -42t76 -15t101 -3h682v-86h-1108zM170 -420q0 56 18 120t69 121t123 57q86 0 151 -35t102 -86t68 -101t69 -85t86 -35q82 0 82 214h170q0 -56 -18 -120 t-68 -121t-122 -57q-80 0 -142 35t-102 85t-74 100t-74 85t-86 35q-82 0 -82 -212h-170z" />
<glyph unicode="&#x1e1b;" d="M86 426v214q0 180 146 282t408 102q260 0 407 -121t147 -305v-86h-938v-170q0 -106 112 -181t272 -75q126 0 248 49t170 121h116q-168 -256 -534 -256q-260 0 -407 121t-147 305zM170 -420q0 56 18 120t69 121t123 57q86 0 151 -35t102 -86t68 -101t69 -85t86 -35 q82 0 82 214h170q0 -56 -18 -120t-68 -121t-122 -57q-80 0 -142 35t-102 85t-74 100t-74 85t-86 35q-82 0 -82 -212h-170zM256 598h768v128q0 102 -109 157t-275 55t-275 -55t-109 -157v-128z" />
<glyph unicode="&#x1e1c;" d="M86 0v1536h1108v-86h-682q-68 0 -101 -3t-76 -15t-61 -42t-18 -80v-372h682v-84h-682v-628q0 -50 18 -80t61 -42t76 -15t101 -3h682v-86h-408q38 -42 48 -60q40 -64 51 -98t11 -96q0 -48 -34 -68t-72 -20q-22 0 -44 6t-43 27t-21 55q0 32 32 76t32 70q0 48 -41 78t-65 30 h-554zM170 2040q0 36 29 61t65 25q34 0 60 -25t26 -61q0 -12 -4 -48t-4 -50q0 -58 91 -136t211 -78q118 0 209 79t91 135q0 14 -3 50t-3 48q0 36 25 61t61 25q34 0 59 -25t25 -61q0 -106 -139 -245t-325 -139q-100 0 -192 43t-152 105t-95 126t-35 110z" />
<glyph unicode="&#x1e1d;" d="M86 426v214q0 180 146 282t408 102q260 0 407 -121t147 -305v-86h-938v-170q0 -106 112 -181t272 -75q126 0 248 49t170 121h116q-136 -206 -400 -246q38 -30 60 -70q40 -64 51 -98t11 -96q0 -48 -34 -68t-72 -20q-22 0 -44 6t-43 27t-21 55q0 32 32 76t32 70 q0 48 -41 78t-65 30q-260 0 -407 121t-147 305zM170 1528q0 36 29 61t65 25q34 0 60 -25t26 -61q0 -12 -4 -48t-4 -50q0 -58 91 -136t211 -78q118 0 209 79t91 135q0 14 -3 50t-3 48q0 36 25 61t61 25q34 0 59 -25t25 -61q0 -106 -139 -245t-325 -139q-100 0 -192 43 t-152 105t-95 126t-35 110zM256 598h768v128q0 102 -109 157t-275 55t-275 -55t-109 -157v-128z" />
<glyph unicode="&#x1e1e;" d="M86 0v1536h1108v-86h-682q-68 0 -101 -3t-76 -15t-61 -42t-18 -80v-372h682v-84h-682v-854h-170zM554 1742q0 36 25 61t61 25q34 0 59 -25t25 -61q0 -34 -25 -59t-59 -25q-36 0 -61 25t-25 59z" />
<glyph unicode="&#x1e1f;" horiz-adv-x="852" d="M86 938v86h84v128q0 182 153 283t445 101v-86q-172 0 -299 -56t-127 -156v-214h340v-86h-340v-1364h-172v1364h-84zM342 1742q0 36 25 61t61 25q34 0 59 -25t25 -61q0 -34 -25 -59t-59 -25q-36 0 -61 25t-25 59z" />
<glyph unicode="&#x1e20;" d="M84 1658v86h1110v-86h-1110zM86 426v726q0 180 146 282t408 102q452 0 542 -298h-158q0 102 -109 157t-275 55t-275 -55t-109 -157v-896q0 -106 112 -181t272 -75t272 75t112 181v512h-342v84h512v-512q0 -184 -149 -305t-405 -121q-260 0 -407 121t-147 305z" />
<glyph unicode="&#x1e21;" d="M84 1146v86h1110v-86h-1110zM86 426v214q0 180 146 282t408 102q264 0 409 -103t145 -281v-640q0 -184 -149 -305t-405 -121q-192 0 -330 69t-214 187h146q48 -74 161 -123t237 -49q158 0 271 75t113 181v172q-168 -86 -384 -86q-260 0 -407 121t-147 305zM256 342 q0 -106 112 -181t272 -75t272 75t112 181v384q0 102 -109 157t-275 55t-275 -55t-109 -157v-384z" />
<glyph unicode="&#x1e22;" d="M86 0v1536h170v-598h768v598h170v-1536h-170v854h-768v-854h-170zM554 1742q0 36 25 61t61 25q34 0 59 -25t25 -61q0 -34 -25 -59t-59 -25q-36 0 -61 25t-25 59z" />
<glyph unicode="&#x1e23;" d="M86 0v1536h170v-580q164 68 384 68q264 0 409 -103t145 -281v-640h-170v726q0 102 -109 157t-275 55t-275 -55t-109 -157v-726h-170zM554 1742q0 36 25 61t61 25q34 0 59 -25t25 -61q0 -34 -25 -59t-59 -25q-36 0 -61 25t-25 59z" />
<glyph unicode="&#x1e24;" d="M86 0v1536h170v-598h768v598h170v-1536h-170v854h-768v-854h-170zM554 -208q0 36 25 61t61 25q34 0 59 -25t25 -61q0 -34 -25 -59t-59 -25q-36 0 -61 25t-25 59z" />
<glyph unicode="&#x1e25;" d="M86 0v1536h170v-580q164 68 384 68q264 0 409 -103t145 -281v-640h-170v726q0 102 -109 157t-275 55t-275 -55t-109 -157v-726h-170zM554 -208q0 36 25 61t61 25q34 0 59 -25t25 -61q0 -34 -25 -59t-59 -25q-36 0 -61 25t-25 59z" />
<glyph unicode="&#x1e26;" d="M86 0v1536h170v-598h768v598h170v-1536h-170v854h-768v-854h-170zM212 1742q0 36 26 61t60 25t60 -25t26 -61q0 -34 -26 -59t-60 -25t-60 25t-26 59zM896 1742q0 36 25 61t59 25q36 0 61 -25t25 -61q0 -34 -25 -59t-61 -25q-34 0 -59 25t-25 59z" />
<glyph unicode="&#x1e27;" d="M86 0v1536h170v-580q164 68 384 68q264 0 409 -103t145 -281v-640h-170v726q0 102 -109 157t-275 55t-275 -55t-109 -157v-726h-170zM170 1742q0 36 26 61t60 25t60 -25t26 -61q0 -34 -26 -59t-60 -25t-60 25t-26 59zM854 1742q0 36 25 61t59 25q36 0 61 -25t25 -61 q0 -34 -25 -59t-61 -25q-34 0 -59 25t-25 59z" />
<glyph unicode="&#x1e28;" d="M86 0v1536h170v-598h768v598h170v-1536h-170v854h-768v-764q24 0 89 -43t105 -107t51 -98t11 -96q0 -48 -34 -68t-72 -20q-22 0 -44 6t-43 27t-21 55q0 32 32 76t32 70q0 46 -38 77t-68 31h-170z" />
<glyph unicode="&#x1e29;" d="M86 0v1536h170v-580q164 68 384 68q264 0 409 -103t145 -281v-640h-170v726q0 102 -109 157t-275 55t-275 -55t-109 -157v-636q24 0 89 -43t105 -107t51 -98t11 -96q0 -48 -34 -68t-72 -20q-22 0 -44 6t-43 27t-21 55q0 32 32 76t32 70q0 46 -38 77t-68 31h-170z" />
<glyph unicode="&#x1e2a;" d="M86 0v1536h170v-598h768v598h170v-1536h-170v854h-768v-854h-170zM170 -208q0 36 29 61t65 25q34 0 60 -25t26 -61q0 -12 -4 -48t-4 -50q0 -58 91 -136t211 -78q118 0 209 79t91 135q0 14 -3 50t-3 48q0 36 25 61t61 25q34 0 59 -25t25 -61q0 -106 -139 -245t-325 -139 q-100 0 -192 43t-152 105t-95 126t-35 110z" />
<glyph unicode="&#x1e2b;" d="M86 0v1536h170v-580q164 68 384 68q264 0 409 -103t145 -281v-640h-170v726q0 102 -109 157t-275 55t-275 -55t-109 -157v-726h-170zM170 -208q0 36 29 61t65 25q34 0 60 -25t26 -61q0 -12 -4 -48t-4 -50q0 -58 91 -136t211 -78q118 0 209 79t91 135q0 14 -3 50t-3 48 q0 36 25 61t61 25q34 0 59 -25t25 -61q0 -106 -139 -245t-325 -139q-100 0 -192 43t-152 105t-95 126t-35 110z" />
<glyph unicode="&#x1e2c;" horiz-adv-x="426" d="M-127 -420q0 56 12 120t47 121t84 57q58 0 102.5 -35t69.5 -86t46.5 -101t47 -85t58.5 -35q56 0 56 214h116q0 -56 -12.5 -120t-46.5 -121t-83 -57q-54 0 -96.5 35t-69.5 85t-50.5 100t-50.5 85t-59 35q-56 0 -56 -212h-115zM86 0v1536h170v-1536h-170z" />
<glyph unicode="&#x1e2d;" horiz-adv-x="596" d="M1 -420q0 56 12 120t47 121t84 57q58 0 102.5 -35t69.5 -86t46.5 -101t47 -85t58.5 -35q56 0 56 214h116q0 -56 -12.5 -120t-46.5 -121t-83 -57q-54 0 -96.5 35t-69.5 85t-50.5 100t-50.5 85t-59 35q-56 0 -56 -212h-115zM84 212v812h170v-798q0 -140 32 -140 q76 0 224 88v-90q-136 -84 -256 -84q-170 0 -170 212zM84 1450q0 36 25 61t59 25q36 0 61 -25t25 -61q0 -34 -25 -59t-61 -25q-34 0 -59 25t-25 59z" />
<glyph unicode="&#x1e2e;" horiz-adv-x="426" d="M-86 1792q0 36 25 61t61 25q34 0 59 -25t25 -61q0 -34 -25 -59t-59 -25q-36 0 -61 25t-25 59zM42 2092q18 0 35 13t34 58t17 113q0 36 25 61t59 25q36 0 61 -25t25 -61q0 -112 -89 -194t-139 -82q-28 0 -28 92zM86 0v1536h170v-1536h-170zM256 1792q0 36 25 61t61 25 q34 0 59 -25t25 -61q0 -34 -25 -59t-59 -25q-36 0 -61 25t-25 59z" />
<glyph unicode="&#x1e2f;" horiz-adv-x="640" d="M0 1450q0 36 25 61t61 25q34 0 59 -25t25 -61q0 -34 -25 -59t-59 -25q-36 0 -61 25t-25 59zM86 212v812h170v-798q0 -140 32 -140q76 0 224 88v-90q-136 -84 -256 -84q-170 0 -170 212zM170 1750q18 0 35 13t34 58t17 113q0 36 25 61t61 25q34 0 59 -25t25 -61 q0 -112 -89 -194t-139 -82q-28 0 -28 92zM426 1450q0 36 26 61t60 25t60 -25t26 -61q0 -34 -26 -59t-60 -25t-60 25t-26 59z" />
<glyph unicode="&#x1e30;" d="M86 0v1536h170v-370l874 370l64 -72l-480 -216q480 -48 480 -438v-810h-170v896q0 128 -127 205t-365 77l-276 -110v-1068h-170zM512 1750q18 0 35 13t34 58t17 113q0 36 25 61t59 25q36 0 61 -25t25 -61q0 -112 -89 -194t-139 -82q-28 0 -28 92z" />
<glyph unicode="&#x1e31;" d="M86 0v1536h170v-882l874 370l64 -72l-446 -190q206 -30 326 -123t120 -233v-406h-170v448q0 100 -146 172t-312 72l-310 -136v-556h-170zM512 1750q18 0 35 13t34 58t17 113q0 36 25 61t59 25q36 0 61 -25t25 -61q0 -112 -89 -194t-139 -82q-28 0 -28 92z" />
<glyph unicode="&#x1e32;" d="M86 0v1536h170v-370l874 370l64 -72l-480 -216q480 -48 480 -438v-810h-170v896q0 128 -127 205t-365 77l-276 -110v-1068h-170zM554 -208q0 36 25 61t61 25q34 0 59 -25t25 -61q0 -34 -25 -59t-59 -25q-36 0 -61 25t-25 59z" />
<glyph unicode="&#x1e33;" d="M86 0v1536h170v-882l874 370l64 -72l-446 -190q206 -30 326 -123t120 -233v-406h-170v448q0 100 -146 172t-312 72l-310 -136v-556h-170zM554 -208q0 36 25 61t61 25q34 0 59 -25t25 -61q0 -34 -25 -59t-59 -25q-36 0 -61 25t-25 59z" />
<glyph unicode="&#x1e34;" d="M84 -120h1110v-86h-1110v86zM86 0v1536h170v-370l874 370l64 -72l-480 -216q480 -48 480 -438v-810h-170v896q0 128 -127 205t-365 77l-276 -110v-1068h-170z" />
<glyph unicode="&#x1e35;" d="M84 -120h1110v-86h-1110v86zM86 0v1536h170v-882l874 370l64 -72l-446 -190q206 -30 326 -123t120 -233v-406h-170v448q0 100 -146 172t-312 72l-310 -136v-556h-170z" />
<glyph unicode="&#x1e36;" horiz-adv-x="1108" d="M86 0v86v1450h170v-1450h682v-86h-682h-170zM384 -208q0 36 25 61t61 25q34 0 59 -25t25 -61q0 -34 -25 -59t-59 -25q-36 0 -61 25t-25 59z" />
<glyph unicode="&#x1e37;" horiz-adv-x="596" d="M86 212v1324h170v-1310q0 -140 32 -140q76 0 224 88v-90q-136 -84 -256 -84q-170 0 -170 212zM214 -208q0 36 25 61t61 25q34 0 59 -25t25 -61q0 -34 -25 -59t-59 -25q-36 0 -61 25t-25 59z" />
<glyph unicode="&#x1e38;" horiz-adv-x="1108" d="M86 0v86v1450h170v-1450h682v-86h-682h-170zM88 1658v86h852v-86h-852zM384 -208q0 36 25 61t61 25q34 0 59 -25t25 -61q0 -34 -25 -59t-59 -25q-36 0 -61 25t-25 59z" />
<glyph unicode="&#x1e39;" horiz-adv-x="596" d="M0 1658v86h640v-86h-640zM86 212v1324h170v-1310q0 -140 32 -140q76 0 224 88v-90q-136 -84 -256 -84q-170 0 -170 212zM214 -208q0 36 25 61t61 25q34 0 59 -25t25 -61q0 -34 -25 -59t-59 -25q-36 0 -61 25t-25 59z" />
<glyph unicode="&#x1e3a;" horiz-adv-x="1108" d="M85 -120h854v-86h-854v86zM86 0v86v1450h170v-1450h682v-86h-682h-170z" />
<glyph unicode="&#x1e3b;" horiz-adv-x="640" d="M0 -126h640v-86h-640v86zM86 212v1324h170v-1310q0 -140 32 -140q76 0 224 88v-90q-136 -84 -256 -84q-170 0 -170 212z" />
<glyph unicode="&#x1e3c;" horiz-adv-x="1108" d="M0 -504q0 20 2 35t12 31t19 28t33 31t45 33t62 40t78 49t101 62t122 75q54 -34 113 -71t94 -58t75 -46t60 -39t44 -31t34 -29t21 -25t15 -26t6 -27t2 -32q0 -36 -25 -61t-59 -25q-36 0 -61 25t-25 61q0 74 -14 98q-6 8 -11 14l-10 12t-14 13t-16 12l-21 15t-25 16t-33 20 t-39 25t-51 31t-60 36q-38 -22 -82 -49t-64 -39t-45 -28t-34 -23t-22 -18t-19 -18t-14 -19q-14 -24 -14 -98q0 -36 -26 -61t-60 -25q-36 0 -65 25t-29 61zM86 0v86v1450h170v-1450h682v-86h-682h-170z" />
</font>
</defs>
</svg>
