<?xml version="1.0" standalone="no"?>
<!DOCTYPE svg PUBLIC "-//W3C//DTD SVG 1.1//EN" "http://www.w3.org/Graphics/SVG/1.1/DTD/svg11.dtd" >
<svg xmlns="http://www.w3.org/2000/svg">
<metadata></metadata>
<defs>
<font id="anonymous_proregular" horiz-adv-x="1341" >
<font-face units-per-em="2048" ascent="1675" descent="-373" />
<missing-glyph horiz-adv-x="500" />
<glyph />
<glyph />
<glyph unicode="&#xd;" />
<glyph unicode=" " />
<glyph unicode="!" d="M448 0v223h223v-223h-223zM448 1566h220l-61 -1126h-98z" />
<glyph unicode="&#x22;" d="M223 1566h225l-52 -558h-121zM671 1566h223l-48 -558h-124z" />
<glyph unicode="#" d="M0 266v132h265v317h-265v131h265v274h141v-274h307v274h140v-274h265v-131h-265v-317h265v-132h-265v-265h-140v265h-307v-265h-141v265h-265zM406 398h307v317h-307v-317z" />
<glyph unicode="$" d="M0 410l155 40q27 -121 104.5 -210.5t216.5 -114.5v632q-100 37 -179 76t-134 89.5t-83 116t-28 153.5q0 76 29 143.5t83 122t133 88.5t179 46v197h166v-197q90 -12 166 -52.5t131.5 -99.5t89 -130.5t40.5 -144.5l-171 -30q-16 106 -78.5 193.5t-177.5 111.5v-565 q218 -81 327.5 -186t109.5 -281q0 -82 -29.5 -154t-86 -129t-137.5 -96t-184 -48v-204h-166v204q-100 12 -182.5 49.5t-142.5 94.5t-98.5 130.5t-52.5 154.5zM221 1194q0 -92 69 -154t186 -109v511q-66 -9 -115 -35t-79.5 -60t-45.5 -73.5t-15 -79.5zM642 125 q139 20 197.5 95t60.5 174q0 103 -65.5 175.5t-192.5 128.5v-573z" />
<glyph unicode="%" d="M-24 1288q0 61 23 118t63.5 97t96 64.5t116.5 24.5q62 0 117.5 -24.5t96.5 -64.5t64.5 -97t23.5 -118q0 -62 -23.5 -117t-64.5 -96t-96.5 -65.5t-117.5 -24.5q-61 0 -116.5 24.5t-96 65.5t-63.5 96t-23 117zM2 40l1006 1562l110 -76l-1003 -1558zM96 1288 q0 -76 51.5 -129t127.5 -53q77 0 128.5 53t51.5 129t-51.5 129t-128.5 53q-76 0 -127.5 -53t-51.5 -129zM546 275q0 62 24.5 117.5t65 95.5t95.5 63.5t117 23.5t117 -23.5t97 -63.5t66.5 -95.5t24.5 -117.5q0 -64 -24.5 -118t-65.5 -96t-97 -65.5t-118 -23.5t-117 23.5 t-95.5 64.5t-65 96t-24.5 119zM668 275q0 -76 52 -128.5t128 -52.5t129 52.5t53 128.5q0 77 -53 128.5t-129 51.5t-128 -51.5t-52 -128.5z" />
<glyph unicode="&#x26;" d="M-30 401q0 75 16 138t44.5 113.5t67 91t82.5 74.5q-74 94 -115 186t-41 185q0 185 107.5 294t286.5 109q81 0 152.5 -24.5t124.5 -70t82 -110.5t29 -149q0 -93 -37 -159t-93.5 -116.5t-128 -91.5t-139.5 -85l432 -406q58 80 94.5 167t55.5 171l157 -40 q-21 -103 -69 -207.5t-119 -198.5l188 -176l-113 -128l-188 184q-89 -79 -197 -129.5t-234 -50.5q-91 0 -172 34t-141 91.5t-96 135t-36 168.5zM148 401q0 -115 75 -192.5t192 -77.5q94 0 175 35.5t144 93.5l-412 404l-36 34q-63 -54 -100.5 -124t-37.5 -173zM194 1189 q0 -56 21 -127.5t90 -161.5q61 36 121.5 71t107 74t74.5 87t28 111q0 94 -62.5 148t-155.5 54q-52 0 -93.5 -21t-71.5 -56.5t-44.5 -82.5t-14.5 -96z" />
<glyph unicode="'" d="M448 1566h223l-52 -563h-122z" />
<glyph unicode="(" d="M226 680q0 162 36 320t103 302.5t166.5 272.5t228.5 229l86 -108q-114 -92 -203.5 -207t-151 -246.5t-93.5 -274t-32 -288.5q0 -147 32 -289.5t93.5 -272.5t150 -247t204.5 -208l-86 -108q-129 101 -228.5 228.5t-166.5 273t-103 303.5t-36 320z" />
<glyph unicode=")" d="M275 -337q114 91 203.5 207t152.5 247t94.5 273.5t31.5 287.5t-31.5 289t-94.5 275.5t-152.5 246.5t-203.5 207l86 108q129 -101 228 -229t168 -272.5t105 -303.5t36 -321t-36 -319t-105 -302.5t-168 -273t-228 -228.5z" />
<glyph unicode="*" d="M42 335l410 227l-410 220l66 116l398 -246l-16 468h139l-17 -468l398 246l66 -116l-410 -220l410 -227l-66 -113l-398 244l17 -465h-139l16 465l-398 -244z" />
<glyph unicode="+" d="M0 504v140h490v489h139v-489h489v-140h-489v-488h-139v488h-490z" />
<glyph unicode="," d="M288 -448l223 671h221l-329 -671h-115z" />
<glyph unicode="-" d="M0 504v140h1118v-140h-1118z" />
<glyph unicode="." d="M448 0v223h223v-223h-223z" />
<glyph unicode="/" d="M49 -226l919 1851l118 -61l-919 -1852z" />
<glyph unicode="0" d="M-40 781q0 157 34 303.5t104.5 259.5t185 180.5t276.5 67.5t277 -67.5t187 -180.5t104 -259.5t32 -303.5t-32 -303.5t-103 -258t-185.5 -179.5t-279.5 -68q-164 0 -278.5 68t-186 179.5t-103.5 258t-32 303.5zM125 781q0 -174 42 -326l733 774q-58 108 -142.5 165.5 t-197.5 57.5q-211 0 -323 -179.5t-112 -491.5zM223 322q119 -212 337 -212q207 0 321 179.5t114 491.5q0 87 -11 164t-30 148z" />
<glyph unicode="1" d="M0 894v170q73 0 157 46t155 116.5t117.5 160.5t46.5 179h166v-1426h252v-140h-671v140h253v1070q-21 -50 -68 -105.5t-110.5 -102t-139.5 -77.5t-158 -31z" />
<glyph unicode="2" d="M12 1027q0 265 141.5 415t409.5 150q101 0 190 -29t158 -84.5t109 -135t40 -183.5q0 -64 -11.5 -116t-41 -104.5t-77.5 -111.5t-121 -134l-546 -554h661v308h140v-448h-1017v145l609 619q47 47 89.5 94t76.5 95t53 99.5t19 107.5q0 144 -95.5 218t-235.5 74 q-197 0 -298 -109t-101 -316h-152z" />
<glyph unicode="3" d="M32 455l160 21q14 -181 126 -272t277 -91q71 0 133.5 23.5t109 66.5t73.5 100.5t27 128.5q0 96 -30.5 156.5t-88 95t-142 46.5t-196.5 12v140q82 0 158 14t136 45.5t97.5 84.5t37.5 134q0 132 -88 212t-227 80q-175 0 -280.5 -92t-105.5 -288h-155q0 122 39.5 219 t110.5 164t170.5 102t220.5 35q101 0 188 -29t152.5 -84.5t102 -135t36.5 -183.5q0 -133 -80 -221t-227 -111q84 -12 146.5 -47.5t104.5 -90t64 -120.5t22 -138q0 -103 -42 -187.5t-112 -144.5t-162 -94t-193 -34q-114 0 -211.5 31.5t-172.5 91.5t-122 151t-57 209z" />
<glyph unicode="4" d="M0 448v142l656 976h209v-976h253v-142h-253v-308h253v-140h-670v140h253v308h-701zM174 590h527v782z" />
<glyph unicode="5" d="M5 464l159 26q8 -82 39 -152t81.5 -119.5t119 -77.5t149.5 -28q96 0 171 31.5t128 88.5t81 132t28 161q0 88 -28 164.5t-79.5 131.5t-126.5 87t-167 32q-96 0 -184 -40.5t-153 -116.5h-164v782h980v-140h-816v-490q72 70 164 107.5t188 37.5q121 0 222 -39t174 -110.5 t114 -174.5t41 -231q0 -116 -43.5 -216.5t-118.5 -175.5t-180.5 -118.5t-230.5 -43.5q-113 0 -209 34t-168.5 96t-117 153.5t-53.5 208.5z" />
<glyph unicode="6" d="M-10 781q0 160 41.5 306.5t124.5 259.5t207 179t291 66q233 0 388 -162l-108 -96q-108 118 -280 118q-126 0 -222.5 -48t-161 -134t-96 -206.5t-31.5 -264.5q17 61 63.5 115t108 93t132.5 62.5t143 23.5q123 0 226 -41.5t177 -115t115.5 -177t41.5 -226.5 q0 -130 -43 -233t-119 -175.5t-180.5 -112.5t-225.5 -40q-167 0 -279.5 68t-181.5 179.5t-100 258t-31 303.5zM180 548q0 -88 24 -167t74.5 -139t125.5 -94.5t178 -34.5q89 0 162.5 29.5t127.5 83.5t83.5 133t29.5 174q0 89 -27 166t-77.5 133.5t-124 89t-166.5 32.5 q-91 0 -167 -30t-130 -84t-83.5 -128t-29.5 -164z" />
<glyph unicode="7" d="M59 1118v448h1045v-145q-148 -160 -236.5 -314.5t-136.5 -323.5t-65 -360t-19 -423h-173q2 218 23 411.5t74 369t144 335.5t231 310h-747v-308h-140z" />
<glyph unicode="8" d="M-10 440q0 64 23.5 129t67.5 120.5t107 92t138 46.5q-66 7 -117.5 43t-87 84t-55 104.5t-19.5 108.5q0 105 42 185t112.5 132.5t164.5 79.5t194 27q101 0 194.5 -27t164.5 -79.5t113 -132.5t42 -185q0 -52 -20 -108.5t-55 -104.5t-88 -84t-120 -43q77 -10 139 -46.5 t106.5 -92t69 -120.5t24.5 -129q0 -123 -44 -210t-121.5 -144.5t-182 -85.5t-222.5 -28q-120 0 -223 28t-180.5 85.5t-122 144.5t-44.5 210zM155 440q0 -84 33 -145t90 -102t129 -60.5t153 -19.5q82 0 154 19.5t129 60.5t90 102t33 145q0 86 -33 146.5t-90 98t-129 55 t-154 17.5q-81 0 -153 -17.5t-129 -55t-90 -98t-33 -146.5zM211 1168q0 -124 89 -197t260 -73q172 0 261 73t89 197q0 132 -94 208t-256 76t-255.5 -76t-93.5 -208z" />
<glyph unicode="9" d="M-28 1032q0 131 43.5 234t119.5 175.5t180.5 111.5t225.5 39q165 0 279 -67.5t183 -180.5t99.5 -258t30.5 -302q0 -160 -42 -306.5t-124.5 -259t-207.5 -179.5t-290 -67q-233 0 -387 164l108 96q54 -60 125 -89.5t154 -29.5q126 0 221.5 48t161 133.5t97 206.5t31.5 266 q-19 -61 -64.5 -115t-106.5 -94t-134 -63t-142 -23q-123 0 -226 42t-177 115.5t-116 177t-42 225.5zM138 1032q0 -89 27 -166.5t77.5 -133.5t124 -88t166.5 -32q91 0 167 29.5t130 82t83.5 127.5t29.5 167q0 88 -24.5 167t-74.5 139t-125 94t-178 34q-89 0 -162.5 -29.5 t-127.5 -83.5t-83.5 -132.5t-29.5 -174.5z" />
<glyph unicode=":" d="M448 0v223h223v-223h-223zM448 894v224h223v-224h-223z" />
<glyph unicode=";" d="M288 -448l223 671h221l-329 -671h-115zM448 894v224h223v-224h-223z" />
<glyph unicode="&#x3c;" d="M239 574l614 614l93 -96l-519 -518l519 -520l-93 -95z" />
<glyph unicode="=" d="M0 239v140h1118v-140h-1118zM0 767v143h1118v-143h-1118z" />
<glyph unicode="&#x3e;" d="M172 54l518 520l-518 518l93 96l615 -614l-615 -615z" />
<glyph unicode="?" d="M202 1158q21 202 138 318t328 116q200 0 311.5 -102t111.5 -264q0 -93 -34.5 -163.5t-86 -129t-112.5 -110t-112.5 -107t-86.5 -121t-35 -147.5h-174q0 93 35.5 166.5t87 137.5t114.5 120.5t114.5 111.5t87 114.5t35.5 127.5q0 106 -65 166t-188 60q-76 0 -133 -24.5 t-96 -66t-62.5 -99t-30.5 -127.5zM448 0v223h223v-223h-223z" />
<glyph unicode="@" d="M-40 781q0 107 14.5 208.5t44.5 191.5t77.5 165.5t114.5 130t153.5 85t195.5 30.5q162 0 277 -66.5t187 -175.5t104 -247t32 -282q0 -82 -13 -166t-45.5 -151.5t-86.5 -111t-134 -43.5q-35 0 -67.5 12t-57.5 35t-40 53.5t-15 68.5v34q-27 -90 -83 -146.5t-131 -56.5 q-79 0 -132 35t-84.5 92.5t-45 130.5t-13.5 150q0 89 20.5 170t61.5 143t101.5 98.5t140.5 36.5q42 0 89 -21t76 -66v64h157v-630q0 -38 14.5 -55t41.5 -17q34 0 58 32.5t38.5 82t21 109.5t6.5 117q0 83 -10 165t-33.5 156t-61 137t-90.5 109t-123.5 72t-159.5 26 q-135 0 -226.5 -58t-147 -155t-79.5 -224t-24 -268q0 -138 24 -264.5t79.5 -223.5t147.5 -155t226 -58q99 0 177 35t141 94l71 -82q-153 -155 -389 -155q-110 0 -197 31t-153.5 86t-114 130.5t-77.5 165.5t-44 191t-14 205zM377 758q0 -130 34 -196t97 -66q44 0 80 27 t61 70.5t38.5 98t13.5 108.5v170q-28 58 -65.5 81.5t-83.5 23.5t-79 -27t-54.5 -72t-31.5 -102t-10 -116z" />
<glyph unicode="A" d="M-71 0l521 1566h223l521 -1566h-176l-148 448h-619l-145 -448h-177zM298 593h525l-263 807z" />
<glyph unicode="B" d="M59 0v1566h471q99 0 193.5 -16t169.5 -60.5t122 -123t47 -206.5q0 -243 -244 -332q298 -91 298 -380q0 -225 -145 -336.5t-413 -111.5h-499zM223 140h335q184 0 289 77.5t105 230.5q0 162 -105 235.5t-289 73.5h-335v-617zM223 894h307q68 0 132.5 10t116 39.5t85.5 81 t34 135.5q0 83 -35 136t-89 81t-119 38.5t-125 10.5h-307v-532z" />
<glyph unicode="C" d="M-24 781q0 157 32 303.5t104.5 259.5t186.5 180.5t278 67.5q145 0 248.5 -51.5t152.5 -156.5v182h140v-514h-140q0 83 -32 157t-86 128t-127.5 84.5t-155.5 30.5q-127 0 -210.5 -60t-134 -157t-71.5 -216t-21 -238q0 -117 21 -236.5t71.5 -215t134 -156t210.5 -60.5 q293 0 408 354l143 -57q-61 -201 -200.5 -319.5t-350.5 -118.5q-164 0 -278 68t-186.5 179.5t-104.5 258t-32 303.5z" />
<glyph unicode="D" d="M59 0v1566h509q159 0 273.5 -64t187.5 -172t107 -250t34 -299t-33 -299t-105.5 -249.5t-187 -170t-276.5 -62.5h-509zM223 140h345q206 0 322 167t116 474t-116 476t-322 169h-345v-1286z" />
<glyph unicode="E" d="M59 0v1566h1001v-140h-837v-561h617v-140h-617v-585h837v-140h-1001z" />
<glyph unicode="F" d="M59 0v1566h1001v-140h-837v-561h617v-140h-617v-725h-164z" />
<glyph unicode="G" d="M-24 781q0 157 32 303.5t104.5 259.5t186.5 180.5t278 67.5q145 0 248.5 -51.5t152.5 -156.5v182h140v-514h-140q0 86 -32 159.5t-86 126.5t-127.5 83.5t-155.5 30.5q-127 0 -210.5 -60t-134 -157t-71.5 -216t-21 -238q0 -117 21 -236.5t71.5 -215t134 -156t210.5 -60.5 q190 0 299 146.5t130 411.5h-347v140h521v-32q0 -160 -33 -305t-106 -256.5t-187.5 -178.5t-276.5 -67q-164 0 -278 68t-186.5 179.5t-104.5 258t-32 303.5z" />
<glyph unicode="H" d="M59 0v1566h164v-701h671v701h166v-1566h-166v725h-671v-725h-164z" />
<glyph unicode="I" d="M223 0v140h253v1286h-253v140h671v-140h-252v-1286h252v-140h-671z" />
<glyph unicode="J" d="M-2 410l142 54q52 -194 154 -272.5t252 -78.5q110 0 179 44.5t106 113.5t50 154.5t13 172.5v968h166v-968q0 -298 -127 -462t-387 -164q-209 0 -350.5 110t-197.5 328z" />
<glyph unicode="K" d="M59 0v1566h164v-762l671 762h217l-614 -684l614 -882h-201l-521 767l-166 -185v-582h-164z" />
<glyph unicode="L" d="M59 0v1566h164v-1426h837v-140h-1001z" />
<glyph unicode="M" d="M59 0v1566h213l286 -818l288 818h214v-1566h-166v1304l-277 -807h-118l-276 807v-1304h-164z" />
<glyph unicode="N" d="M59 0v1566h231l604 -1264v1264h166v-1566h-204l-633 1325v-1325h-164z" />
<glyph unicode="O" d="M-40 781q0 157 32 303.5t104.5 259.5t187 180.5t276.5 67.5t277 -67.5t185.5 -180.5t104 -259.5t33.5 -303.5t-32 -303.5t-103 -258t-185.5 -179.5t-279.5 -68q-164 0 -278.5 68t-186 179.5t-103.5 258t-32 303.5zM125 781q0 -117 19.5 -236.5t70 -215t134 -156 t211.5 -60.5t212 60.5t134 156t69.5 215t19.5 236.5q0 155 -29.5 279t-84.5 212t-136 134t-185 46q-128 0 -211.5 -60t-134 -157t-70 -216t-19.5 -238z" />
<glyph unicode="P" d="M59 0v1566h516q258 0 399.5 -112t141.5 -336q0 -226 -141.5 -336.5t-397.5 -110.5h-354v-671h-164zM223 811h354q171 0 273 72.5t102 234.5t-102 235t-273 73h-354v-615z" />
<glyph unicode="Q" d="M-40 781q0 157 32 303.5t104.5 259.5t187 180.5t276.5 67.5t277 -67.5t185.5 -180.5t104 -259.5t33.5 -303.5q0 -150 -28 -288.5t-91 -247.5t-164 -180.5t-243 -86.5q27 -160 110.5 -221.5t245.5 -61.5q42 0 71.5 1.5t56.5 3.5v-140q-34 -3 -66 -4t-62 -1 q-245 0 -369 104.5t-152 321.5q-132 17 -229 86t-159 175.5t-91.5 245t-29.5 293.5zM125 781q0 -312 113.5 -490t321.5 -178q207 0 321 178t114 490q0 119 -20.5 238t-69.5 216t-134.5 157t-210.5 60q-128 0 -211.5 -60t-134 -157t-70 -216t-19.5 -238z" />
<glyph unicode="R" d="M59 0v1566h516q258 0 399.5 -112t141.5 -336q0 -98 -35 -176.5t-95 -134t-143 -89t-182 -40.5l472 -678h-209l-457 671h-244v-671h-164zM223 811h352q173 0 272 72.5t99 234.5q0 160 -99 234t-272 74h-352v-615z" />
<glyph unicode="S" d="M30 0v476h139q0 -80 37.5 -146.5t95 -114.5t132.5 -75t153 -27q69 0 128 19.5t103.5 56.5t70 89.5t25.5 119.5q0 76 -33 130t-88.5 92.5t-125 65.5t-141.5 53q-86 30 -171 63t-152 83.5t-109 123t-42 180.5q0 96 40.5 171t106.5 126.5t153.5 78.5t180.5 27 q114 0 210.5 -46.5t150.5 -142.5v163h145v-448h-145q0 71 -29.5 133t-80 105.5t-115 69.5t-136.5 26q-64 0 -121.5 -14.5t-100.5 -46t-69 -82t-26 -120.5q0 -61 30.5 -104t82 -76t119.5 -60t139 -55q89 -31 176.5 -69.5t157 -92.5t114 -132.5t44.5 -191.5q0 -98 -41 -178 t-109.5 -137.5t-157 -89t-184.5 -31.5q-132 0 -242.5 49.5t-175.5 145.5v-167h-139z" />
<glyph unicode="T" d="M0 1037v529h1118v-529h-140v389h-336v-1286h252v-140h-671v140h253v1286h-336v-389h-140z" />
<glyph unicode="U" d="M59 560v1006h164v-1008q0 -71 12.5 -150t49.5 -144t102 -108t171 -43t172.5 43t103 108t48.5 144t12 150v1008h166v-1008q0 -133 -29.5 -241t-91.5 -184.5t-156.5 -118.5t-224.5 -42q-131 0 -225 42t-154.5 118.5t-90 185.5t-29.5 242z" />
<glyph unicode="V" d="M-71 1566h174l457 -1399l455 1399h179l-523 -1566h-223z" />
<glyph unicode="W" d="M-76 1566h174l221 -1289l157 841h162l159 -841l221 1289h176l-282 -1566h-194l-160 764l-162 -764h-192z" />
<glyph unicode="X" d="M-28 0v140h153l339 648l-333 638h-131v140h448v-140h-131l243 -502l237 502h-126v140h447v-140h-135l-327 -638l336 -648h153v-140h-444v140h105l-246 514l-248 -514h106v-140h-446z" />
<glyph unicode="Y" d="M-24 1426v140h442v-140h-130l272 -591l270 591h-129v140h441v-140h-127l-373 -750v-536h252v-140h-671v140h253v536l-373 750h-127z" />
<glyph unicode="Z" d="M59 0v140l787 1286h-647v-384h-140v524h980v-140l-779 -1286h664v390h140v-530h-1005z" />
<glyph unicode="[" d="M448 -448v2237h446v-133h-314v-1968h314v-136h-446z" />
<glyph unicode="\" d="M160 1564l117 61l919 -1851l-117 -62z" />
<glyph unicode="]" d="M223 -312h316v1968h-316v133h448v-2237h-448v136z" />
<glyph unicode="^" d="M2 671l448 895h221l450 -895h-183l-378 735l-375 -735h-183z" />
<glyph unicode="_" d="M0 -83h1118v-140h-1118v140z" />
<glyph unicode="`" d="M275 1506l79 131l486 -345l-49 -78z" />
<glyph unicode="a" d="M-2 302q0 106 52.5 177.5t138.5 113t197 60t226 18.5q44 0 79.5 -1.5t67.5 -3.5t64.5 -6t70.5 -8v80q0 82 -35.5 134.5t-87 83t-108 43.5t-95.5 13q-125 0 -230.5 -34t-197.5 -90l-74 124q101 61 226.5 100t275.5 39q91 0 179 -23.5t158.5 -72t112.5 -128t42 -189.5v-732 h-166v187q-43 -54 -97.5 -94.5t-114.5 -66.5t-120 -40t-114 -14q-222 0 -336 85.5t-114 244.5zM162 302q0 -70 69 -129.5t217 -59.5q103 0 185 30.5t139.5 76t89.5 97t32 93.5v106q-80 12 -154 13t-128 1q-89 0 -171 -12t-143.5 -39t-98.5 -70t-37 -107z" />
<glyph unicode="b" d="M59 0v1566h164v-551q72 61 155.5 95.5t174.5 34.5q130 0 234.5 -44t178 -121.5t113 -186t39.5 -235.5q0 -128 -39.5 -236t-113 -185.5t-178 -121t-234.5 -43.5q-91 0 -174.5 32.5t-155.5 96.5v-101h-164zM223 258q72 -78 154.5 -111.5t175.5 -33.5q99 0 172.5 34.5 t124 94.5t76.5 141t26 175q0 96 -25 177t-75 141t-125 95t-174 35q-189 0 -330 -150v-598z" />
<glyph unicode="c" d="M0 558q0 127 39.5 235.5t113 186t179.5 121.5t236 44q51 0 105 -12t102 -36.5t86.5 -59t57.5 -81.5v162h148v-447h-148q0 74 -27 135.5t-73.5 105.5t-111.5 69t-139 25q-101 0 -176 -35t-125.5 -95t-76.5 -141t-26 -177t29.5 -177t85.5 -140t134.5 -93.5t176.5 -34.5 q125 0 222.5 49t148.5 131l115 -79q-70 -111 -193 -176.5t-293 -65.5q-130 0 -239.5 43.5t-187 121t-120.5 184t-43 237.5z" />
<glyph unicode="d" d="M-2 558q0 127 39 235.5t111.5 186t178 121.5t238.5 44q89 0 173.5 -32t155.5 -95v408h-223v140h389v-1566h-166v103q-71 -63 -155.5 -97t-173.5 -34q-133 0 -238.5 43.5t-178 121t-111.5 185.5t-39 236zM162 558q0 -96 26 -177t76 -141t125 -95t174 -35q189 0 331 150 v598q-71 78 -154.5 113t-176.5 35q-99 0 -174 -35t-125 -95t-76 -141t-26 -177z" />
<glyph unicode="e" d="M-5 558q0 127 39 234.5t113 186t179.5 122.5t236.5 44q143 0 249.5 -48t178 -132.5t105.5 -202.5t34 -260h-966q18 -178 130 -283.5t290 -105.5q126 0 224.5 51.5t147.5 128.5l116 -79q-84 -118 -200.5 -180t-287.5 -62q-129 0 -237 43.5t-186.5 121t-122 184 t-43.5 237.5zM167 642h789q-27 184 -132.5 274t-260.5 90q-79 0 -146.5 -26t-119 -74t-86.5 -116t-44 -148z" />
<glyph unicode="f" d="M223 0v140h253v838h-253v140h253q0 231 119.5 352.5t360.5 121.5q57 0 96 -3.5t66 -8.5v-140q-34 5 -72 8.5t-90 3.5q-157 0 -235.5 -80t-78.5 -254h476v-140h-476v-838h252v-140h-671z" />
<glyph unicode="g" d="M-2 558q0 127 39 234.5t111.5 186t177 122.5t234.5 44q92 0 177.5 -32t156.5 -95v100h166v-1106q0 -115 -40 -205t-111 -152.5t-168 -95.5t-215 -33q-167 0 -284 62.5t-202 179.5l115 89q51 -78 148.5 -130.5t222.5 -52.5q170 0 269 85.5t99 247.5v120 q-146 -129 -334 -129q-262 0 -412 150t-150 410zM162 558q0 -192 99.5 -306t298.5 -114q94 0 178.5 35.5t155.5 114.5v570q-71 78 -155.5 113t-178.5 35q-98 0 -173 -35t-124 -95t-75 -142t-26 -176z" />
<glyph unicode="h" d="M59 0v1566h164v-728q119 307 424 307q413 0 413 -455v-690h-166v690q0 150 -65 233t-210 83q-91 0 -165 -42t-125.5 -112.5t-78.5 -161t-27 -188.5v-502h-164z" />
<glyph unicode="i" d="M223 0v140h253v838h-253v140h419v-978h252v-140h-671zM448 1342v224h223v-224h-223z" />
<glyph unicode="j" d="M5 -232l126 87q43 -91 113 -140.5t174 -49.5q81 0 136.5 23.5t87 66.5t45.5 104.5t14 140.5v978h-253v140h417v-1118q0 -216 -113.5 -345t-333.5 -129q-296 0 -413 242zM671 1342v224h223v-224h-223z" />
<glyph unicode="k" d="M59 0v1566h164v-1050l637 602h236l-561 -513l581 -605h-234l-457 502l-202 -185v-317h-164z" />
<glyph unicode="l" d="M223 0v140h253v1286h-253v140h419v-1426h252v-140h-671z" />
<glyph unicode="m" d="M0 0v1118h164v-162q52 189 225 189q164 0 223 -165q82 165 230 165q143 0 209.5 -84.5t66.5 -256.5v-804h-164v804q0 96 -33.5 149t-97.5 53q-93 0 -137 -98.5t-44 -276.5v-631h-166v804q0 96 -34 149t-98 53q-58 0 -93 -35t-55 -89t-26 -120t-6 -131v-631h-164z" />
<glyph unicode="n" d="M59 0v1118h164v-280q119 307 424 307q413 0 413 -455v-690h-166v690q0 150 -65 233t-210 83q-91 0 -165 -42t-125.5 -112.5t-78.5 -161t-27 -188.5v-502h-164z" />
<glyph unicode="o" d="M-24 556q0 127 41.5 236.5t119 187t185.5 121.5t238 44q134 0 242 -44t185 -121.5t118.5 -187t41.5 -236.5q0 -131 -41.5 -238t-118.5 -183t-185 -119.5t-242 -43.5q-130 0 -238 43.5t-185.5 119.5t-119 183t-41.5 238zM140 556q0 -96 28.5 -177t82.5 -140t132.5 -92.5 t176.5 -33.5q99 0 177.5 33.5t133.5 92.5t83.5 140t28.5 177t-28.5 177t-83.5 142t-133.5 96t-177.5 35q-98 0 -176.5 -35t-132.5 -96t-82.5 -142t-28.5 -177z" />
<glyph unicode="p" d="M59 -448v1566h164v-103q153 130 328 130q129 0 233.5 -42.5t178.5 -121.5t114.5 -187.5t40.5 -235.5q0 -131 -40.5 -237.5t-114.5 -184t-178.5 -121t-233.5 -43.5q-89 0 -172.5 32.5t-155.5 96.5v-549h-164zM223 258q72 -78 153 -111.5t175 -33.5q98 0 173 34.5 t126.5 94.5t77.5 141t26 175t-26 176t-77.5 142t-126.5 95t-173 35q-94 0 -175 -35t-153 -113v-600z" />
<glyph unicode="q" d="M0 558q0 127 41 235.5t114 187.5t178 121.5t235 42.5q174 0 326 -130v103h166v-1566h-166v549q-71 -64 -154.5 -96.5t-171.5 -32.5q-130 0 -235 43.5t-178 121t-114 184t-41 237.5zM164 558q0 -94 26 -175t77.5 -141t126.5 -94.5t174 -34.5q93 0 174 33.5t152 111.5v600 q-71 78 -152 113t-174 35q-99 0 -174 -35t-126.5 -95t-77.5 -142t-26 -176z" />
<glyph unicode="r" d="M0 0v140h253v838h-253v140h418v-280q112 307 428 307q85 0 148 -11t117 -38l-54 -135q-89 45 -211 45q-101 0 -180 -43.5t-134.5 -113.5t-84.5 -160.5t-29 -186.5v-362h253v-140h-671z" />
<glyph unicode="s" d="M-12 133l73 142q124 -78 244 -120t248 -42q371 0 371 192q0 47 -30.5 76t-82 48t-118.5 29.5t-140 20.5q-93 13 -185.5 31t-169 54t-122.5 96t-46 158q0 84 42.5 145.5t114 102t167.5 60t199 19.5q148 0 264.5 -34.5t209.5 -97.5l-66 -129q-96 68 -194.5 95t-213.5 27 q-51 0 -114 -9t-117 -31.5t-91 -58t-37 -89.5q0 -46 31 -74.5t82.5 -47t118 -29.5t139.5 -20q91 -13 184 -31t169.5 -53t123 -95t46.5 -158q0 -99 -49 -163.5t-126.5 -103t-173 -55t-186.5 -16.5q-152 0 -303.5 44.5t-261.5 116.5z" />
<glyph unicode="t" d="M0 978v140h253v448h165v-448h476v-140h-476v-568q0 -61 19.5 -115t55 -94.5t86 -64t115.5 -23.5q122 0 204 76t94 197l138 -30q-19 -176 -138.5 -280t-297.5 -104q-99 0 -180.5 32.5t-139 90t-89.5 138.5t-32 177v568h-253z" />
<glyph unicode="u" d="M59 427v691h164v-691q0 -150 65.5 -232t210.5 -82q91 0 164.5 42t125 112t78.5 160.5t27 189.5v501h166v-1118h-166v280q-118 -308 -422 -308q-413 0 -413 455z" />
<glyph unicode="v" d="M-37 1118h197l400 -980l399 980h197l-485 -1118h-221z" />
<glyph unicode="w" d="M-32 1118h175l162 -895l174 895h163l179 -895l162 895h173l-227 -1118h-192l-179 821l-169 -821h-192z" />
<glyph unicode="x" d="M-24 0v145h174l307 423l-295 403h-162v147h460v-147h-104l204 -305l207 305h-113v147h464v-147h-157l-295 -403l307 -423h172v-145h-462v145h98l-221 324l-218 -324h90v-145h-456z" />
<glyph unicode="y" d="M-37 1118h194l403 -978l396 978h197l-605 -1401q-46 -118 -131.5 -154.5t-188.5 -36.5q-115 0 -230 42l32 142q56 -24 110 -34.5t88 -10.5q82 0 112.5 39.5t53.5 93.5l68 170z" />
<glyph unicode="z" d="M56 0v140l762 838h-619v-307h-140v447h978v-140l-762 -838h649v308h140v-448h-1008z" />
<glyph unicode="{" d="M223 602v135q225 0 225 201v516q0 75 24.5 136t68 105.5t105.5 69t135 24.5h111v-133h-111q-204 0 -204 -202v-516q0 -40 -15.5 -84.5t-42.5 -83t-65.5 -66.5t-82.5 -36q44 -7 81.5 -34t65.5 -65.5t43.5 -82t15.5 -85.5v-509q0 -204 204 -204h111v-136h-111 q-73 0 -135 26t-105.5 70.5t-68 107t-24.5 136.5v509q0 201 -225 201z" />
<glyph unicode="|" d="M476 -223v2012h166v-2012h-166z" />
<glyph unicode="}" d="M223 -312h112q200 0 200 202v511q0 42 16.5 87t44.5 83.5t66.5 64t82.5 32.5q-44 10 -83.5 37t-66.5 65.5t-43.5 83t-16.5 84.5v516q0 202 -200 202h-112v133h112q73 0 134 -25.5t107 -70t70.5 -106t24.5 -133.5v-516q0 -201 221 -201v-135q-221 0 -221 -201v-511 q0 -75 -24.5 -136t-70.5 -106.5t-107 -70.5t-134 -25h-112v136z" />
<glyph unicode="~" d="M-5 320q7 106 33 199t68 161t102 107t139 39q73 0 123.5 -28.5t86 -70t61.5 -90.5t50.5 -91t52.5 -70t70 -28q45 0 75.5 28t50 77t32.5 118t22 147l162 -16q-7 -108 -33 -200.5t-68 -160t-103 -107t-138 -39.5q-73 0 -123.5 28.5t-84.5 70.5t-60 90t-50.5 89t-54.5 69.5 t-71 28.5q-44 0 -74.5 -28.5t-50.5 -77.5t-32.5 -116t-22.5 -147z" />
<glyph unicode="&#xa0;" />
<glyph unicode="&#xa1;" d="M671 1342v224h223v-224h-223zM673 0l61 1126h99l61 -1126h-221z" />
<glyph unicode="&#xa2;" d="M10 781q0 113 33 210t94.5 172t147.5 124.5t191 68.5v210h166v-199q152 -7 264 -71.5t180 -167.5l-115 -79q-49 74 -134 122t-195 55v-891q110 9 195 56t134 123l115 -80q-68 -103 -180 -166.5t-264 -73.5v-194h-166v204q-213 40 -339.5 193.5t-126.5 383.5zM174 781 q0 -159 78.5 -275.5t223.5 -156.5v863q-145 -37 -223.5 -154t-78.5 -277z" />
<glyph unicode="&#xa3;" d="M59 0v140h74q41 0 70 20t47 49.5t25.5 63.5t7.5 62v378h-224v140h224v317q0 91 27 169.5t77.5 134t122.5 87t166 31.5q61 0 118 -21t102 -58.5t78.5 -94t47.5 -128.5l-150 -34q-26 108 -75 152t-121 44q-118 0 -173 -74t-55 -208v-317h223v-140h-223v-324q0 -96 -31 -159 t-80 -90h247q326 0 460 268l131 -71q-79 -170 -235 -253.5t-356 -83.5h-525z" />
<glyph unicode="&#xa4;" d="M-47 268l138 140q-56 73 -85.5 166.5t-29.5 204.5q0 222 118 374l-141 142l94 93l140 -142q153 123 373 123q111 0 205.5 -32.5t165.5 -88.5l141 140l96 -93l-141 -139q59 -75 91 -171t32 -206q0 -111 -32 -205.5t-88 -167.5l138 -138l-96 -94l-138 136 q-74 -57 -168.5 -86.5t-205.5 -29.5q-112 0 -207 32t-168 88l-138 -140zM140 779q0 -96 28.5 -177t82.5 -140t132.5 -92t176.5 -33q99 0 177.5 33t133.5 92t83.5 140t28.5 177t-28.5 177t-83.5 142.5t-133.5 96t-177.5 34.5q-98 0 -176.5 -34.5t-132.5 -96t-82.5 -142.5 t-28.5 -177z" />
<glyph unicode="&#xa5;" d="M0 490v144h479v42l-130 258h-349v145h275l-245 487h184l346 -715h3l347 715h183l-245 -487h270v-145h-344l-132 -258v-42h476v-144h-476v-490h-163v490h-479z" />
<glyph unicode="&#xa6;" d="M476 -223v894h166v-894h-166zM476 894v895h166v-895h-166z" />
<glyph unicode="&#xa7;" d="M24 214l152 39q35 -167 146.5 -252t291.5 -85q66 0 127 18.5t104.5 54t69.5 87t26 121.5q0 105 -63.5 170t-159.5 109.5t-206.5 81.5t-206.5 90t-159.5 134t-63.5 213q0 91 37.5 169.5t124.5 143.5q-72 48 -117 120.5t-45 183.5q0 96 37.5 169.5t103 124t152.5 77.5 t185 27q96 0 185.5 -26t163.5 -78.5t123 -132.5t64 -190l-155 -25q-27 158 -123 235.5t-258 77.5q-54 0 -110 -14t-102 -44.5t-74 -79.5t-28 -121q0 -88 63.5 -142t159.5 -96t206.5 -81.5t206.5 -97t160 -144.5t64 -225q0 -87 -33.5 -166.5t-104.5 -143.5q62 -52 100 -125.5 t38 -179.5q0 -96 -39.5 -177t-107 -137.5t-157 -88t-188.5 -31.5q-103 0 -197.5 25.5t-173.5 78.5t-136.5 135t-82.5 198zM246 997q0 -87 56.5 -142.5t142 -95t189 -73.5t199.5 -81q49 39 78.5 92t29.5 114q0 94 -50.5 155t-128 104.5t-173 77.5t-186.5 74 q-84 -42 -120.5 -98.5t-36.5 -126.5z" />
<glyph unicode="&#xa8;" d="M223 1342v224h225v-224h-225zM671 1342v224h223v-224h-223z" />
<glyph unicode="&#xa9;" d="M2 892q0 138 53 261t144 215t213.5 145t263.5 53q135 0 257 -51.5t213.5 -141.5t145.5 -214.5t54 -266.5q0 -132 -50 -254t-139.5 -214.5t-212.5 -147.5t-268 -55q-130 0 -252 48t-215.5 136.5t-150 211t-56.5 275.5zM82 892q0 -125 46 -233t126.5 -188t188.5 -125.5 t233 -45.5q121 0 229 45.5t189 125.5t127.5 188t46.5 233q0 121 -46.5 229t-126.5 189t-188 129t-231 48t-231 -47t-189.5 -126.5t-127.5 -187.5t-46 -234zM244 894q0 91 30.5 169.5t87 138t136 94t180.5 34.5q246 0 361 -177l-127 -86q-66 120 -234 120 q-122 0 -192.5 -83.5t-70.5 -209.5q0 -120 68 -206t195 -86q168 0 234 120l127 -86q-115 -176 -361 -176q-96 0 -176 31.5t-137.5 89t-89 138t-31.5 175.5z" />
<glyph unicode="&#xaa;" d="M-10 912q0 83 41.5 142.5t112 96t158 52.5t179.5 16h59.5t41 -2.5t37.5 -4.5t52 -7v90q0 44 -23.5 73.5t-56.5 47t-72.5 24.5t-70.5 7q-104 0 -183.5 -21t-156.5 -75l-66 131q73 49 170.5 77.5t235.5 28.5q73 0 143 -16.5t125.5 -52t89.5 -90.5t34 -134v-624h-169v133 q-141 -155 -342 -155q-73 0 -134.5 17t-107 51.5t-71.5 82.5t-26 112zM0 307v141h840v-141h-840zM160 912q0 -54 43 -89t126 -35q81 0 145.5 20t107 48t66 60.5t23.5 59.5v96q-64 9 -104.5 10.5t-85.5 1.5q-141 0 -231 -40.5t-90 -131.5z" />
<glyph unicode="&#xab;" d="M17 572l389 396l96 -96l-298 -300l298 -297l-96 -95zM462 572l391 396l93 -96l-294 -300l294 -297l-93 -95z" />
<glyph unicode="&#xac;" d="M0 536v135h1118v-671h-135v536h-983z" />
<glyph unicode="&#xad;" d="M0 504v140h1118v-140h-1118z" />
<glyph unicode="&#xae;" d="M0 1118q0 138 53 260.5t144 214t213.5 144t262.5 52.5q136 0 256 -50.5t212.5 -141.5t146.5 -213.5t54 -265.5q0 -133 -50.5 -254.5t-139 -213.5t-211.5 -147t-268 -55q-129 0 -251 48t-215.5 136t-150 211t-56.5 275zM79 1118q0 -126 46.5 -234t126 -187.5t188 -125 t233.5 -45.5q121 0 229 45.5t188 125t127 187.5t47 234q0 120 -46 227t-125.5 188.5t-187.5 129t-232 47.5q-122 0 -230 -45t-189.5 -125t-128 -188.5t-46.5 -233.5zM394 715v811h321q61 0 117.5 -16t100 -49t68 -81t24.5 -114q0 -96 -59 -168.5t-172 -84.5l245 -298h-223 l-209 291h-42v-291h-171zM565 1138h150q66 0 103.5 36t37.5 92q0 54 -35 92t-106 38h-150v-258z" />
<glyph unicode="&#xaf;" d="M223 1327v136h671v-136h-671z" />
<glyph unicode="&#xb0;" d="M0 1342q0 91 35.5 173t96 142.5t141.5 96t175 35.5q91 0 173 -35.5t142 -96t95.5 -142.5t35.5 -173q0 -94 -35.5 -175t-95.5 -141t-142 -96t-173 -36q-94 0 -175 36t-141.5 96t-96 141t-35.5 175zM110 1342q0 -71 26 -131.5t73 -107t107 -72t132 -25.5q68 0 129 25.5 t108 72t73 107t26 131.5q0 69 -26 130.5t-73 108t-108 72.5t-129 26q-72 0 -132 -26t-107 -72.5t-73 -108t-26 -130.5z" />
<glyph unicode="&#xb1;" d="M0 -88h1118v-135h-1118v135zM0 506v136h492v491h134v-491h492v-136h-492v-506h-134v506h-492z" />
<glyph unicode="&#xb2;" d="M32 1302q0 278 261 278q101 0 167 -49q79 -59 79 -150q0 -66 -40 -120q-20 -35 -91 -98q-30 -28 -71.5 -65.5t-95.5 -94.5h177v88h117v-197h-486v94l303 288q56 56 56 105q0 42 -33 64.5t-82 22.5q-138 0 -138 -166h-123z" />
<glyph unicode="&#xb3;" d="M-2 1123l127 17q18 -148 147 -148q50 0 84.5 30t34.5 69q0 67 -39 79q-21 12 -101 12v120q127 0 127 79q0 89 -106 89q-134 0 -134 -148h-126q0 128 77 195q75 61 183 61q111 0 174 -55t63 -142q0 -91 -79 -133q91 -64 91 -157q0 -83 -69 -147t-180 -64q-244 0 -274 243z " />
<glyph unicode="&#xb4;" d="M290 1292l484 345l79 -131l-518 -292z" />
<glyph unicode="&#xb5;" d="M59 -448v1566h164v-688q0 -150 65.5 -233.5t210.5 -83.5q91 0 164.5 42t125 112t78.5 160.5t27 189.5v501h166v-1118h-166v283q-115 -311 -422 -311q-148 0 -249 68v-488h-164z" />
<glyph unicode="&#xb6;" d="M37 1118q0 448 599 448h452v-1566h-164v671h-282v-671h-166v680q-439 47 -439 438zM204 1118q0 -241 272 -288v584q-136 -23 -204 -98t-68 -198zM642 818h282v608h-282v-608z" />
<glyph unicode="&#xb7;" d="M448 462v223h223v-223h-223z" />
<glyph unicode="&#xb8;" d="M290 -305q243 0 243 256v49h138v-49q0 -177 -99 -282q-105 -114 -282 -114v140z" />
<glyph unicode="&#xb9;" d="M0 1201v119q37 0 77.5 17t74 49t55 77t21.5 103h131v-563h108v-109h-347v109h108v348q-24 -61 -81.5 -105.5t-146.5 -44.5z" />
<glyph unicode="&#xba;" d="M-22 1118q0 106 35.5 193t99 150t149 96t186.5 33q98 0 185 -33t150 -96t99.5 -150t36.5 -193q0 -103 -36.5 -190.5t-99.5 -148.5t-150 -95.5t-185 -34.5q-101 0 -186.5 33t-149 94.5t-99 147.5t-35.5 194zM0 307v141h894v-141h-894zM143 1118q0 -150 85.5 -240 t219.5 -90q66 0 121 23.5t97 67t65.5 104.5t23.5 135t-24.5 135.5t-66.5 105.5t-97.5 67.5t-118.5 23.5q-65 0 -120.5 -23.5t-96.5 -67.5t-64.5 -105.5t-23.5 -135.5z" />
<glyph unicode="&#xbb;" d="M169 272l298 300l-298 300l96 94l389 -394l-389 -392zM617 272l297 300l-297 300l93 94l394 -394l-394 -392z" />
<glyph unicode="&#xbc;" d="M0 1201v119q37 0 77.5 17t74 49t55 77t21.5 103h131v-563h108v-109h-347v109h108v348q-24 -61 -81.5 -105.5t-146.5 -44.5zM2 40l1006 1562l110 -76l-1003 -1558zM584 180v90l293 401h133v-381h108v-110h-108v-72h108v-108h-344v108h110v72h-300zM742 290h142v191z" />
<glyph unicode="&#xbd;" d="M0 1201v119q37 0 77.5 17t74 49t55 77t21.5 103h131v-563h108v-109h-347v109h108v348q-24 -61 -81.5 -105.5t-146.5 -44.5zM2 40l1006 1562l110 -76l-1003 -1558zM614 408q0 277 261 277q101 0 167 -49q79 -59 79 -149q0 -67 -40 -121q-19 -35 -91 -98q-29 -27 -71 -65.5 t-96 -94.5h178v89h117v-197h-487v94l303 286q56 58 56 107q0 41 -33 63t-82 22q-138 0 -138 -164h-123z" />
<glyph unicode="&#xbe;" d="M-2 1123l127 17q18 -148 147 -148q50 0 84.5 30t34.5 69q0 67 -39 79q-21 12 -101 12v120q127 0 127 79q0 89 -106 89q-134 0 -134 -148h-126q0 128 77 195q75 61 183 61q111 0 174 -55t63 -142q0 -91 -79 -133q91 -64 91 -157q0 -83 -69 -147t-180 -64q-244 0 -274 243z M2 40l1006 1562l110 -76l-1003 -1558zM584 180v90l293 401h133v-381h108v-110h-108v-72h108v-108h-344v108h110v72h-300zM742 290h142v191z" />
<glyph unicode="&#xbf;" d="M251 340q0 92 34 162t85.5 129t113.5 111t113.5 107.5t86 120t34.5 148.5h174q0 -93 -35.5 -167t-87 -137.5t-114 -120.5t-114 -112t-87.5 -114t-36 -127q0 -106 65 -166.5t188 -60.5q152 0 228.5 90t92.5 227l148 -22q-22 -202 -139 -319t-328 -117q-199 0 -310.5 102 t-111.5 266zM671 1342v224h223v-224h-223z" />
<glyph unicode="&#xc0;" d="M-71 0l521 1566h223l521 -1566h-176l-148 448h-619l-145 -448h-177zM275 1954l79 131l486 -345l-49 -78zM298 593h525l-263 807z" />
<glyph unicode="&#xc1;" d="M-71 0l521 1566h223l521 -1566h-176l-148 448h-619l-145 -448h-177zM290 1737l484 345l79 -131l-518 -292zM298 593h525l-263 807z" />
<glyph unicode="&#xc2;" d="M-71 0l521 1566h223l521 -1566h-176l-148 448h-619l-145 -448h-177zM204 1737l356 350l357 -345l-64 -80l-290 246l-295 -249zM298 593h525l-263 807z" />
<glyph unicode="&#xc3;" d="M-71 0l521 1566h223l521 -1566h-176l-148 448h-619l-145 -448h-177zM94 1794q110 187 295 187q68 0 111.5 -22t76.5 -48t64.5 -48t78.5 -22q122 0 199 135l96 -56q-108 -190 -295 -190q-68 0 -111.5 22.5t-76.5 48t-65.5 48t-77.5 22.5q-124 0 -199 -134zM298 593h525 l-263 807z" />
<glyph unicode="&#xc4;" d="M-71 0l521 1566h223l521 -1566h-176l-148 448h-619l-145 -448h-177zM223 1787v224h225v-224h-225zM298 593h525l-263 807zM671 1787v224h223v-224h-223z" />
<glyph unicode="&#xc5;" d="M-71 0l498 1501q-61 35 -99 97.5t-38 141.5q0 56 20.5 105.5t58 86t86.5 57.5t105 21q57 0 106 -21t85.5 -57.5t57.5 -86t21 -105.5q0 -79 -37.5 -140.5t-98.5 -95.5l500 -1504h-176l-148 448h-619l-145 -448h-177zM298 593h525l-263 807zM398 1740q0 -66 48 -114 t114 -48t114 48t48 114t-48 114t-114 48t-114 -48t-48 -114z" />
<glyph unicode="&#xc6;" d="M-76 0l474 1566h720v-145h-440v-549h332v-145h-332v-579h440v-148h-607v448h-279l-134 -448h-174zM275 593h236v791z" />
<glyph unicode="&#xc7;" d="M-24 781q0 157 32 303.5t104.5 259.5t186.5 180.5t278 67.5q145 0 248.5 -51.5t152.5 -156.5v182h140v-514h-140q0 83 -32 157t-86 128t-127.5 84.5t-155.5 30.5q-127 0 -210.5 -60t-134 -157t-71.5 -216t-21 -238q0 -117 21 -236.5t71.5 -215t134 -156t210.5 -60.5 q293 0 408 354l143 -57q-54 -178 -170 -291.5t-287 -137.5v-30q0 -177 -99 -282q-105 -114 -282 -114v140q243 0 243 256v25q-153 10 -259.5 79.5t-172.5 180.5t-95.5 252t-29.5 293z" />
<glyph unicode="&#xc8;" d="M59 0v1566h1001v-140h-837v-561h617v-140h-617v-585h837v-140h-1001zM275 1954l79 131l486 -345l-49 -78z" />
<glyph unicode="&#xc9;" d="M59 0v1566h1001v-140h-837v-561h617v-140h-617v-585h837v-140h-1001zM290 1737l484 345l79 -131l-518 -292z" />
<glyph unicode="&#xca;" d="M59 0v1566h1001v-140h-837v-561h617v-140h-617v-585h837v-140h-1001zM204 1737l356 350l357 -345l-64 -80l-290 246l-295 -249z" />
<glyph unicode="&#xcb;" d="M59 0v1566h1001v-140h-837v-561h617v-140h-617v-585h837v-140h-1001zM223 1787v224h225v-224h-225zM671 1787v224h223v-224h-223z" />
<glyph unicode="&#xcc;" d="M223 0v140h253v1286h-253v140h671v-140h-252v-1286h252v-140h-671zM275 1954l79 131l486 -345l-49 -78z" />
<glyph unicode="&#xcd;" d="M223 0v140h253v1286h-253v140h671v-140h-252v-1286h252v-140h-671zM290 1737l484 345l79 -131l-518 -292z" />
<glyph unicode="&#xce;" d="M204 1737l356 350l357 -345l-64 -80l-290 246l-295 -249zM223 0v140h253v1286h-253v140h671v-140h-252v-1286h252v-140h-671z" />
<glyph unicode="&#xcf;" d="M223 0v140h253v1286h-253v140h671v-140h-252v-1286h252v-140h-671zM223 1787v224h225v-224h-225zM671 1787v224h223v-224h-223z" />
<glyph unicode="&#xd0;" d="M-140 727v141h199v698h509q164 0 278.5 -64t187 -172t104.5 -250t32 -296q0 -162 -36 -304.5t-109 -250t-188 -168.5t-269 -61h-509v727h-199zM223 140h345q206 0 322 168t116 476q0 307 -116 474.5t-322 167.5h-345v-558h305v-141h-305v-587z" />
<glyph unicode="&#xd1;" d="M59 0v1566h231l604 -1264v1264h166v-1566h-204l-633 1325v-1325h-164zM94 1794q110 187 295 187q68 0 111.5 -22t76.5 -48t64.5 -48t78.5 -22q122 0 199 135l96 -56q-108 -190 -295 -190q-68 0 -111.5 22.5t-76.5 48t-65.5 48t-77.5 22.5q-124 0 -199 -134z" />
<glyph unicode="&#xd2;" d="M-40 781q0 157 32 303.5t104.5 259.5t187 180.5t276.5 67.5t277 -67.5t185.5 -180.5t104 -259.5t33.5 -303.5t-32 -303.5t-103 -258t-185.5 -179.5t-279.5 -68q-164 0 -278.5 68t-186 179.5t-103.5 258t-32 303.5zM125 781q0 -117 19.5 -236.5t70 -215t134 -156 t211.5 -60.5t212 60.5t134 156t69.5 215t19.5 236.5q0 155 -29.5 279t-84.5 212t-136 134t-185 46q-128 0 -211.5 -60t-134 -157t-70 -216t-19.5 -238zM275 1954l79 131l486 -345l-49 -78z" />
<glyph unicode="&#xd3;" d="M-40 781q0 157 32 303.5t104.5 259.5t187 180.5t276.5 67.5t277 -67.5t185.5 -180.5t104 -259.5t33.5 -303.5t-32 -303.5t-103 -258t-185.5 -179.5t-279.5 -68q-164 0 -278.5 68t-186 179.5t-103.5 258t-32 303.5zM125 781q0 -117 19.5 -236.5t70 -215t134 -156 t211.5 -60.5t212 60.5t134 156t69.5 215t19.5 236.5q0 155 -29.5 279t-84.5 212t-136 134t-185 46q-128 0 -211.5 -60t-134 -157t-70 -216t-19.5 -238zM290 1737l484 345l79 -131l-518 -292z" />
<glyph unicode="&#xd4;" d="M-40 781q0 157 32 303.5t104.5 259.5t187 180.5t276.5 67.5t277 -67.5t185.5 -180.5t104 -259.5t33.5 -303.5t-32 -303.5t-103 -258t-185.5 -179.5t-279.5 -68q-164 0 -278.5 68t-186 179.5t-103.5 258t-32 303.5zM125 781q0 -117 19.5 -236.5t70 -215t134 -156 t211.5 -60.5t212 60.5t134 156t69.5 215t19.5 236.5q0 155 -29.5 279t-84.5 212t-136 134t-185 46q-128 0 -211.5 -60t-134 -157t-70 -216t-19.5 -238zM204 1737l356 350l357 -345l-64 -80l-290 246l-295 -249z" />
<glyph unicode="&#xd5;" d="M-40 781q0 157 32 303.5t104.5 259.5t187 180.5t276.5 67.5t277 -67.5t185.5 -180.5t104 -259.5t33.5 -303.5t-32 -303.5t-103 -258t-185.5 -179.5t-279.5 -68q-164 0 -278.5 68t-186 179.5t-103.5 258t-32 303.5zM94 1794q110 187 295 187q68 0 111.5 -22t76.5 -48 t64.5 -48t78.5 -22q122 0 199 135l96 -56q-108 -190 -295 -190q-68 0 -111.5 22.5t-76.5 48t-65.5 48t-77.5 22.5q-124 0 -199 -134zM125 781q0 -117 19.5 -236.5t70 -215t134 -156t211.5 -60.5t212 60.5t134 156t69.5 215t19.5 236.5q0 155 -29.5 279t-84.5 212t-136 134 t-185 46q-128 0 -211.5 -60t-134 -157t-70 -216t-19.5 -238z" />
<glyph unicode="&#xd6;" d="M-40 781q0 157 32 303.5t104.5 259.5t187 180.5t276.5 67.5t277 -67.5t185.5 -180.5t104 -259.5t33.5 -303.5t-32 -303.5t-103 -258t-185.5 -179.5t-279.5 -68q-164 0 -278.5 68t-186 179.5t-103.5 258t-32 303.5zM125 781q0 -117 19.5 -236.5t70 -215t134 -156 t211.5 -60.5t212 60.5t134 156t69.5 215t19.5 236.5q0 155 -29.5 279t-84.5 212t-136 134t-185 46q-128 0 -211.5 -60t-134 -157t-70 -216t-19.5 -238zM223 1787v224h225v-224h-225zM671 1787v224h223v-224h-223z" />
<glyph unicode="&#xd7;" d="M118 224l346 350l-346 348l93 93l349 -349l347 349l96 -93l-349 -348l349 -350l-96 -93l-347 349l-349 -349z" />
<glyph unicode="&#xd8;" d="M-54 35v191l94 100q-42 101 -61 215.5t-19 239.5q0 157 32 303.5t104.5 259.5t187 180.5t276.5 67.5q158 0 269.5 -63.5t183.5 -172.5l162 175v-192l-99 -103q42 -101 63 -215t21 -240q0 -157 -32 -303.5t-103 -258t-185.5 -179.5t-279.5 -68q-162 0 -273 62t-181 170z M125 781q0 -83 9 -165.5t30 -158.5l736 781q-58 104 -142.5 159t-197.5 55q-128 0 -211.5 -60t-134 -157t-70 -216t-19.5 -238zM216 322q49 -94 132.5 -151.5t211.5 -57.5t212 60.5t134 156t69.5 215t19.5 236.5q0 180 -41 325z" />
<glyph unicode="&#xd9;" d="M59 560v1006h164v-1008q0 -71 12.5 -150t49.5 -144t102 -108t171 -43t172.5 43t103 108t48.5 144t12 150v1008h166v-1008q0 -133 -29.5 -241t-91.5 -184.5t-156.5 -118.5t-224.5 -42q-131 0 -225 42t-154.5 118.5t-90 185.5t-29.5 242zM275 1954l79 131l486 -345l-49 -78 z" />
<glyph unicode="&#xda;" d="M59 560v1006h164v-1008q0 -71 12.5 -150t49.5 -144t102 -108t171 -43t172.5 43t103 108t48.5 144t12 150v1008h166v-1008q0 -133 -29.5 -241t-91.5 -184.5t-156.5 -118.5t-224.5 -42q-131 0 -225 42t-154.5 118.5t-90 185.5t-29.5 242zM290 1737l484 345l79 -131 l-518 -292z" />
<glyph unicode="&#xdb;" d="M59 560v1006h164v-1008q0 -71 12.5 -150t49.5 -144t102 -108t171 -43t172.5 43t103 108t48.5 144t12 150v1008h166v-1008q0 -133 -29.5 -241t-91.5 -184.5t-156.5 -118.5t-224.5 -42q-131 0 -225 42t-154.5 118.5t-90 185.5t-29.5 242zM204 1737l356 350l357 -345 l-64 -80l-290 246l-295 -249z" />
<glyph unicode="&#xdc;" d="M59 560v1006h164v-1008q0 -71 12.5 -150t49.5 -144t102 -108t171 -43t172.5 43t103 108t48.5 144t12 150v1008h166v-1008q0 -133 -29.5 -241t-91.5 -184.5t-156.5 -118.5t-224.5 -42q-131 0 -225 42t-154.5 118.5t-90 185.5t-29.5 242zM223 1787v224h225v-224h-225z M671 1787v224h223v-224h-223z" />
<glyph unicode="&#xdd;" d="M-24 1426v140h442v-140h-130l272 -591l270 591h-129v140h441v-140h-127l-373 -750v-536h252v-140h-671v140h253v536l-373 750h-127zM290 1737l484 345l79 -131l-518 -292z" />
<glyph unicode="&#xde;" d="M59 0v1566h164v-323h293q600 0 600 -446q0 -448 -600 -448h-293v-349h-164zM223 487h293q216 0 324.5 78.5t108.5 231.5q0 305 -433 305h-293v-615z" />
<glyph unicode="&#xdf;" d="M59 0v1013q0 91 15 193t63 188t137.5 142t236.5 56q91 0 162.5 -27t120 -72.5t74.5 -108t26 -136.5q0 -98 -39 -157t-87 -98t-87 -70t-39 -72q0 -33 35.5 -58.5t88 -54t114 -62.5t114 -82t88.5 -114.5t36 -157.5q0 -74 -31.5 -138t-88.5 -110t-134.5 -74t-167.5 -28 q-119 0 -204.5 34t-165.5 97l94 125q64 -59 129 -87t147 -28q110 0 183 51.5t73 159.5q0 67 -36 112t-88 78.5t-114 63t-114 64t-88 81t-36 115.5q0 81 40 126.5t88 83.5t87 82.5t39 117.5q0 84 -49.5 144t-169.5 60q-89 0 -145 -35.5t-88 -96.5t-43.5 -139.5t-11.5 -165.5 v-1015h-164z" />
<glyph unicode="&#xe0;" d="M0 302q0 106 52.5 177.5t138.5 113t197 60t226 18.5q44 0 79.5 -1.5t67.5 -3.5t64.5 -6t70.5 -8v80q0 82 -35.5 134.5t-87 83t-108 43.5t-95.5 13q-125 0 -230.5 -34t-197.5 -90l-74 124q101 61 226.5 100t275.5 39q91 0 179 -23.5t158.5 -72t112.5 -128t42 -189.5v-732 h-166v187q-43 -54 -97.5 -94.5t-114.5 -66.5t-120 -40t-114 -14q-222 0 -336 85.5t-114 244.5zM164 302q0 -70 69 -129.5t217 -59.5q103 0 185 30.5t139.5 76t89.5 97t32 93.5v106q-80 12 -154 13t-128 1q-89 0 -171 -12t-143.5 -39t-98.5 -70t-37 -107zM275 1506l79 131 l486 -345l-49 -78z" />
<glyph unicode="&#xe1;" d="M0 302q0 106 52.5 177.5t138.5 113t197 60t226 18.5q44 0 79.5 -1.5t67.5 -3.5t64.5 -6t70.5 -8v80q0 82 -35.5 134.5t-87 83t-108 43.5t-95.5 13q-125 0 -230.5 -34t-197.5 -90l-74 124q101 61 226.5 100t275.5 39q91 0 179 -23.5t158.5 -72t112.5 -128t42 -189.5v-732 h-166v187q-43 -54 -97.5 -94.5t-114.5 -66.5t-120 -40t-114 -14q-222 0 -336 85.5t-114 244.5zM164 302q0 -70 69 -129.5t217 -59.5q103 0 185 30.5t139.5 76t89.5 97t32 93.5v106q-80 12 -154 13t-128 1q-89 0 -171 -12t-143.5 -39t-98.5 -70t-37 -107zM290 1291l484 345 l79 -131l-518 -292z" />
<glyph unicode="&#xe2;" d="M0 302q0 106 52.5 177.5t138.5 113t197 60t226 18.5q44 0 79.5 -1.5t67.5 -3.5t64.5 -6t70.5 -8v80q0 82 -35.5 134.5t-87 83t-108 43.5t-95.5 13q-125 0 -230.5 -34t-197.5 -90l-74 124q101 61 226.5 100t275.5 39q91 0 179 -23.5t158.5 -72t112.5 -128t42 -189.5v-732 h-166v187q-43 -54 -97.5 -94.5t-114.5 -66.5t-120 -40t-114 -14q-222 0 -336 85.5t-114 244.5zM164 302q0 -70 69 -129.5t217 -59.5q103 0 185 30.5t139.5 76t89.5 97t32 93.5v106q-80 12 -154 13t-128 1q-89 0 -171 -12t-143.5 -39t-98.5 -70t-37 -107zM204 1291l356 350 l357 -345l-64 -80l-290 246l-295 -249z" />
<glyph unicode="&#xe3;" d="M0 302q0 106 52.5 177.5t138.5 113t197 60t226 18.5q44 0 79.5 -1.5t67.5 -3.5t64.5 -6t70.5 -8v80q0 82 -35.5 134.5t-87 83t-108 43.5t-95.5 13q-125 0 -230.5 -34t-197.5 -90l-74 124q101 61 226.5 100t275.5 39q91 0 179 -23.5t158.5 -72t112.5 -128t42 -189.5v-732 h-166v187q-43 -54 -97.5 -94.5t-114.5 -66.5t-120 -40t-114 -14q-222 0 -336 85.5t-114 244.5zM94 1348q110 187 295 187q68 0 111.5 -22t76.5 -48t64.5 -48t78.5 -22q122 0 199 135l96 -56q-108 -190 -295 -190q-68 0 -111.5 22.5t-76.5 48t-65.5 48t-77.5 22.5 q-124 0 -199 -134zM164 302q0 -70 69 -129.5t217 -59.5q103 0 185 30.5t139.5 76t89.5 97t32 93.5v106q-80 12 -154 13t-128 1q-89 0 -171 -12t-143.5 -39t-98.5 -70t-37 -107z" />
<glyph unicode="&#xe4;" d="M0 302q0 106 52.5 177.5t138.5 113t197 60t226 18.5q44 0 79.5 -1.5t67.5 -3.5t64.5 -6t70.5 -8v80q0 82 -35.5 134.5t-87 83t-108 43.5t-95.5 13q-125 0 -230.5 -34t-197.5 -90l-74 124q101 61 226.5 100t275.5 39q91 0 179 -23.5t158.5 -72t112.5 -128t42 -189.5v-732 h-166v187q-43 -54 -97.5 -94.5t-114.5 -66.5t-120 -40t-114 -14q-222 0 -336 85.5t-114 244.5zM164 302q0 -70 69 -129.5t217 -59.5q103 0 185 30.5t139.5 76t89.5 97t32 93.5v106q-80 12 -154 13t-128 1q-89 0 -171 -12t-143.5 -39t-98.5 -70t-37 -107zM223 1342v224h225 v-224h-225zM671 1342v224h223v-224h-223z" />
<glyph unicode="&#xe5;" d="M0 302q0 106 52.5 177.5t138.5 113t197 60t226 18.5q44 0 79.5 -1.5t67.5 -3.5t64.5 -6t70.5 -8v80q0 82 -35.5 134.5t-87 83t-108 43.5t-95.5 13q-125 0 -230.5 -34t-197.5 -90l-74 124q101 61 226.5 100t275.5 39q91 0 179 -23.5t158.5 -72t112.5 -128t42 -189.5v-732 h-166v187q-43 -54 -97.5 -94.5t-114.5 -66.5t-120 -40t-114 -14q-222 0 -336 85.5t-114 244.5zM164 302q0 -70 69 -129.5t217 -59.5q103 0 185 30.5t139.5 76t89.5 97t32 93.5v106q-80 12 -154 13t-128 1q-89 0 -171 -12t-143.5 -39t-98.5 -70t-37 -107zM290 1507 q0 58 20.5 106.5t58 86t86.5 58.5t105 21q57 0 106 -21t85.5 -58.5t57.5 -86t21 -106.5q0 -56 -21 -105t-57.5 -86t-85.5 -58t-106 -21q-56 0 -105 21t-86.5 58t-58 86t-20.5 105zM398 1507q0 -66 48 -114t114 -48t114 48t48 114q0 68 -48 116t-114 48t-114 -48t-48 -116z " />
<glyph unicode="&#xe6;" d="M-44 305q0 96 34 166t90 114t128 65t148 21q27 0 55.5 -1.5t55.5 -5.5v115q0 91 -42 160t-127 69q-50 0 -106 -43t-98 -114l-104 101q32 51 74 87.5t84 60t81 34.5t69 11q93 0 160.5 -41.5t94.5 -135.5q34 94 113 135.5t162 41.5q110 0 174.5 -67.5t95 -165.5t39 -210 t8.5 -200h-514q0 -200 47 -288.5t140 -88.5q57 0 100 34.5t65 112.5l140 -44q-42 -130 -117 -193t-197 -63q-91 0 -167.5 61t-102.5 171q-16 -42 -41.5 -82t-62.5 -74t-83.5 -55t-105.5 -21q-140 0 -215 95t-75 238zM120 293q0 -65 36 -116.5t107 -51.5q39 0 76 18.5 t65 50.5t45.5 75t17.5 92v165q-15 2 -42 3t-54 1q-103 0 -177 -57.5t-74 -179.5zM631 647h337q0 195 -38 278t-124 83q-79 0 -127 -80t-48 -281z" />
<glyph unicode="&#xe7;" d="M0 558q0 127 39.5 235.5t113 186t179.5 121.5t236 44q51 0 105 -12t102 -36.5t86.5 -59t57.5 -81.5v162h148v-447h-148q0 74 -27 135.5t-73.5 105.5t-111.5 69t-139 25q-101 0 -176 -35t-125.5 -95t-76.5 -141t-26 -177t29.5 -177t85.5 -140t134.5 -93.5t176.5 -34.5 q125 0 222.5 49t148.5 131l115 -79q-63 -99 -165 -160t-240 -76v-27q0 -177 -99 -282q-105 -114 -282 -114v140q243 0 243 256v25q-120 10 -218.5 55t-168.5 121t-108 179t-38 227z" />
<glyph unicode="&#xe8;" d="M-5 558q0 127 39 234.5t113 186t179.5 122.5t236.5 44q143 0 249.5 -48t178 -132.5t105.5 -202.5t34 -260h-966q18 -178 130 -283.5t290 -105.5q126 0 224.5 51.5t147.5 128.5l116 -79q-84 -118 -200.5 -180t-287.5 -62q-129 0 -237 43.5t-186.5 121t-122 184 t-43.5 237.5zM167 642h789q-27 184 -132.5 274t-260.5 90q-79 0 -146.5 -26t-119 -74t-86.5 -116t-44 -148zM275 1506l79 131l486 -345l-49 -78z" />
<glyph unicode="&#xe9;" d="M-5 558q0 127 39 234.5t113 186t179.5 122.5t236.5 44q143 0 249.5 -48t178 -132.5t105.5 -202.5t34 -260h-966q18 -178 130 -283.5t290 -105.5q126 0 224.5 51.5t147.5 128.5l116 -79q-84 -118 -200.5 -180t-287.5 -62q-129 0 -237 43.5t-186.5 121t-122 184 t-43.5 237.5zM167 642h789q-27 184 -132.5 274t-260.5 90q-79 0 -146.5 -26t-119 -74t-86.5 -116t-44 -148zM290 1291l484 345l79 -131l-518 -292z" />
<glyph unicode="&#xea;" d="M-5 558q0 127 39 234.5t113 186t179.5 122.5t236.5 44q143 0 249.5 -48t178 -132.5t105.5 -202.5t34 -260h-966q18 -178 130 -283.5t290 -105.5q126 0 224.5 51.5t147.5 128.5l116 -79q-84 -118 -200.5 -180t-287.5 -62q-129 0 -237 43.5t-186.5 121t-122 184 t-43.5 237.5zM167 642h789q-27 184 -132.5 274t-260.5 90q-79 0 -146.5 -26t-119 -74t-86.5 -116t-44 -148zM204 1291l356 350l357 -345l-64 -80l-290 246l-295 -249z" />
<glyph unicode="&#xeb;" d="M-5 558q0 127 39 234.5t113 186t179.5 122.5t236.5 44q143 0 249.5 -48t178 -132.5t105.5 -202.5t34 -260h-966q18 -178 130 -283.5t290 -105.5q126 0 224.5 51.5t147.5 128.5l116 -79q-84 -118 -200.5 -180t-287.5 -62q-129 0 -237 43.5t-186.5 121t-122 184 t-43.5 237.5zM167 642h789q-27 184 -132.5 274t-260.5 90q-79 0 -146.5 -26t-119 -74t-86.5 -116t-44 -148zM223 1342v224h225v-224h-225zM671 1342v224h223v-224h-223z" />
<glyph unicode="&#xec;" d="M223 0v140h253v833h-253v145h419v-978h252v-140h-671zM275 1506l79 131l486 -345l-49 -78z" />
<glyph unicode="&#xed;" d="M223 0v140h253v833h-253v145h419v-978h252v-140h-671zM290 1291l484 345l79 -131l-518 -292z" />
<glyph unicode="&#xee;" d="M204 1291l356 350l357 -345l-64 -80l-290 246l-295 -249zM223 0v140h253v833h-253v145h419v-978h252v-140h-671z" />
<glyph unicode="&#xef;" d="M223 0v140h253v833h-253v145h419v-978h252v-140h-671zM223 1342v224h225v-224h-225zM671 1342v224h223v-224h-223z" />
<glyph unicode="&#xf0;" d="M-24 425q0 126 69.5 223t191.5 170.5t285 123.5t350 80q-49 84 -121.5 150t-157.5 123l-220 -219l-93 96l192 192q-50 27 -101.5 48t-107.5 40l54 140q140 -54 263 -117l172 171l94 -96l-145 -147q96 -61 177 -137.5t138.5 -169.5t90.5 -205t33 -247q0 -154 -42.5 -278.5 t-124 -212t-197 -134.5t-260.5 -47q-246 0 -393 116t-147 337zM140 425q0 -139 101 -225.5t275 -86.5q110 0 195.5 38.5t144 108t89.5 168t31 216.5q0 66 -10 126t-30 117q-174 -19 -320.5 -61t-252 -101t-164.5 -134t-59 -166z" />
<glyph unicode="&#xf1;" d="M59 0v1118h164v-280q119 307 424 307q413 0 413 -455v-690h-166v690q0 150 -65 233t-210 83q-91 0 -165 -42t-125.5 -112.5t-78.5 -161t-27 -188.5v-502h-164zM94 1348q110 187 295 187q68 0 111.5 -22t76.5 -48t64.5 -48t78.5 -22q122 0 199 135l96 -56 q-108 -190 -295 -190q-68 0 -111.5 22.5t-76.5 48t-65.5 48t-77.5 22.5q-124 0 -199 -134z" />
<glyph unicode="&#xf2;" d="M-24 556q0 127 41.5 236.5t119 187t185.5 121.5t238 44q134 0 242 -44t185 -121.5t118.5 -187t41.5 -236.5q0 -131 -41.5 -238t-118.5 -183t-185 -119.5t-242 -43.5q-130 0 -238 43.5t-185.5 119.5t-119 183t-41.5 238zM140 556q0 -96 28.5 -177t82.5 -140t132.5 -92.5 t176.5 -33.5q99 0 177.5 33.5t133.5 92.5t83.5 140t28.5 177t-28.5 177t-83.5 142t-133.5 96t-177.5 35q-98 0 -176.5 -35t-132.5 -96t-82.5 -142t-28.5 -177zM275 1506l79 131l486 -345l-49 -78z" />
<glyph unicode="&#xf3;" d="M-24 556q0 127 41.5 236.5t119 187t185.5 121.5t238 44q134 0 242 -44t185 -121.5t118.5 -187t41.5 -236.5q0 -131 -41.5 -238t-118.5 -183t-185 -119.5t-242 -43.5q-130 0 -238 43.5t-185.5 119.5t-119 183t-41.5 238zM140 556q0 -96 28.5 -177t82.5 -140t132.5 -92.5 t176.5 -33.5q99 0 177.5 33.5t133.5 92.5t83.5 140t28.5 177t-28.5 177t-83.5 142t-133.5 96t-177.5 35q-98 0 -176.5 -35t-132.5 -96t-82.5 -142t-28.5 -177zM290 1291l484 345l79 -131l-518 -292z" />
<glyph unicode="&#xf4;" d="M-24 556q0 127 41.5 236.5t119 187t185.5 121.5t238 44q134 0 242 -44t185 -121.5t118.5 -187t41.5 -236.5q0 -131 -41.5 -238t-118.5 -183t-185 -119.5t-242 -43.5q-130 0 -238 43.5t-185.5 119.5t-119 183t-41.5 238zM140 556q0 -96 28.5 -177t82.5 -140t132.5 -92.5 t176.5 -33.5q99 0 177.5 33.5t133.5 92.5t83.5 140t28.5 177t-28.5 177t-83.5 142t-133.5 96t-177.5 35q-98 0 -176.5 -35t-132.5 -96t-82.5 -142t-28.5 -177zM204 1291l356 350l357 -345l-64 -80l-290 246l-295 -249z" />
<glyph unicode="&#xf5;" d="M-24 556q0 127 41.5 236.5t119 187t185.5 121.5t238 44q134 0 242 -44t185 -121.5t118.5 -187t41.5 -236.5q0 -131 -41.5 -238t-118.5 -183t-185 -119.5t-242 -43.5q-130 0 -238 43.5t-185.5 119.5t-119 183t-41.5 238zM94 1348q110 187 295 187q68 0 111.5 -22t76.5 -48 t64.5 -48t78.5 -22q122 0 199 135l96 -56q-108 -190 -295 -190q-68 0 -111.5 22.5t-76.5 48t-65.5 48t-77.5 22.5q-124 0 -199 -134zM140 556q0 -96 28.5 -177t82.5 -140t132.5 -92.5t176.5 -33.5q99 0 177.5 33.5t133.5 92.5t83.5 140t28.5 177t-28.5 177t-83.5 142 t-133.5 96t-177.5 35q-98 0 -176.5 -35t-132.5 -96t-82.5 -142t-28.5 -177z" />
<glyph unicode="&#xf6;" d="M-24 556q0 127 41.5 236.5t119 187t185.5 121.5t238 44q134 0 242 -44t185 -121.5t118.5 -187t41.5 -236.5q0 -131 -41.5 -238t-118.5 -183t-185 -119.5t-242 -43.5q-130 0 -238 43.5t-185.5 119.5t-119 183t-41.5 238zM140 556q0 -96 28.5 -177t82.5 -140t132.5 -92.5 t176.5 -33.5q99 0 177.5 33.5t133.5 92.5t83.5 140t28.5 177t-28.5 177t-83.5 142t-133.5 96t-177.5 35q-98 0 -176.5 -35t-132.5 -96t-82.5 -142t-28.5 -177zM223 1342v224h225v-224h-225zM671 1342v224h223v-224h-223z" />
<glyph unicode="&#xf7;" d="M0 504v140h1118v-140h-1118zM448 16v223h223v-223h-223zM448 910v223h223v-223h-223z" />
<glyph unicode="&#xf8;" d="M-52 0v143l111 89q-83 139 -83 324q0 127 41.5 236.5t119 187t185.5 121.5t238 44q136 0 244 -45t186 -127l182 145v-142l-112 -92q87 -145 87 -328q0 -131 -41.5 -238t-118.5 -183t-185 -119.5t-242 -43.5q-135 0 -244.5 44.5t-188.5 126.5zM140 556q0 -129 47 -221 l683 542q-56 59 -133.5 94t-176.5 35q-98 0 -176.5 -35t-132.5 -96t-82.5 -142t-28.5 -177zM251 241q56 -59 132.5 -93.5t176.5 -34.5q99 0 177.5 33.5t133.5 92.5t83.5 140t28.5 177q0 127 -52 228z" />
<glyph unicode="&#xf9;" d="M59 427v691h164v-691q0 -150 65.5 -232t210.5 -82q91 0 164.5 42t125 112t78.5 160.5t27 189.5v501h166v-1118h-166v280q-118 -308 -422 -308q-413 0 -413 455zM275 1508l79 131l486 -345l-49 -78z" />
<glyph unicode="&#xfa;" d="M59 427v691h164v-691q0 -150 65.5 -232t210.5 -82q91 0 164.5 42t125 112t78.5 160.5t27 189.5v501h166v-1118h-166v280q-118 -308 -422 -308q-413 0 -413 455zM290 1292l484 345l79 -131l-518 -292z" />
<glyph unicode="&#xfb;" d="M59 427v691h164v-691q0 -150 65.5 -232t210.5 -82q91 0 164.5 42t125 112t78.5 160.5t27 189.5v501h166v-1118h-166v280q-118 -308 -422 -308q-413 0 -413 455zM204 1292l356 350l357 -345l-64 -80l-290 246l-295 -249z" />
<glyph unicode="&#xfc;" d="M59 427v691h164v-691q0 -150 65.5 -232t210.5 -82q91 0 164.5 42t125 112t78.5 160.5t27 189.5v501h166v-1118h-166v280q-118 -308 -422 -308q-413 0 -413 455zM223 1342v224h225v-224h-225zM671 1342v224h223v-224h-223z" />
<glyph unicode="&#xfd;" d="M-37 1118h194l403 -978l396 978h197l-605 -1401q-46 -118 -131.5 -154.5t-188.5 -36.5q-115 0 -230 42l32 142q56 -24 110 -34.5t88 -10.5q82 0 112.5 39.5t53.5 93.5l68 170zM290 1292l484 345l79 -131l-518 -292z" />
<glyph unicode="&#xfe;" d="M59 -448v2014h164v-539q150 118 330 118q127 0 233 -41.5t179.5 -117.5t114.5 -184t41 -244q0 -131 -39.5 -237.5t-111.5 -185.5t-178.5 -122t-238.5 -43q-180 0 -330 119v-537h-164zM223 258q143 -155 330 -155q99 0 175 34.5t125 96t75 145t26 179.5q0 98 -26 180.5 t-75 142.5t-125 94.5t-175 34.5q-187 0 -330 -152v-600z" />
<glyph unicode="&#xff;" d="M-37 1118h194l403 -978l396 978h197l-605 -1401q-46 -118 -131.5 -154.5t-188.5 -36.5q-115 0 -230 42l32 142q56 -24 110 -34.5t88 -10.5q82 0 112.5 39.5t53.5 93.5l68 170zM223 1342v224h225v-224h-225zM671 1342v224h223v-224h-223z" />
<glyph unicode="&#x100;" d="M-71 0l521 1566h223l521 -1566h-176l-148 448h-619l-145 -448h-177zM223 1772v136h671v-136h-671zM298 593h525l-263 807z" />
<glyph unicode="&#x101;" d="M0 302q0 106 52.5 177.5t138.5 113t197 60t226 18.5q44 0 79.5 -1.5t67.5 -3.5t64.5 -6t70.5 -8v80q0 82 -35.5 134.5t-87 83t-108 43.5t-95.5 13q-125 0 -230.5 -34t-197.5 -90l-74 124q101 61 226.5 100t275.5 39q91 0 179 -23.5t158.5 -72t112.5 -128t42 -189.5v-732 h-166v187q-43 -54 -97.5 -94.5t-114.5 -66.5t-120 -40t-114 -14q-222 0 -336 85.5t-114 244.5zM164 302q0 -70 69 -129.5t217 -59.5q103 0 185 30.5t139.5 76t89.5 97t32 93.5v106q-80 12 -154 13t-128 1q-89 0 -171 -12t-143.5 -39t-98.5 -70t-37 -107zM223 1326v136h671 v-136h-671z" />
<glyph unicode="&#x102;" d="M-71 0l521 1566h223l521 -1566h-176l-148 448h-619l-145 -448h-177zM218 1897l94 91q113 -113 248 -113q136 0 249 113l93 -91q-140 -139 -342 -139q-201 0 -342 139zM298 593h525l-263 807z" />
<glyph unicode="&#x103;" d="M0 302q0 106 52.5 177.5t138.5 113t197 60t226 18.5q44 0 79.5 -1.5t67.5 -3.5t64.5 -6t70.5 -8v80q0 82 -35.5 134.5t-87 83t-108 43.5t-95.5 13q-125 0 -230.5 -34t-197.5 -90l-74 124q101 61 226.5 100t275.5 39q91 0 179 -23.5t158.5 -72t112.5 -128t42 -189.5v-732 h-166v187q-43 -54 -97.5 -94.5t-114.5 -66.5t-120 -40t-114 -14q-222 0 -336 85.5t-114 244.5zM164 302q0 -70 69 -129.5t217 -59.5q103 0 185 30.5t139.5 76t89.5 97t32 93.5v106q-80 12 -154 13t-128 1q-89 0 -171 -12t-143.5 -39t-98.5 -70t-37 -107zM218 1451l94 91 q113 -113 248 -113q136 0 249 113l93 -91q-140 -139 -342 -139q-201 0 -342 139z" />
<glyph unicode="&#x104;" d="M-71 0l521 1566h223l521 -1566q-59 -54 -59 -145q0 -87 65.5 -144.5t161.5 -57.5v-108q-150 0 -236.5 75t-86.5 198q0 57 18.5 102t46.5 80h-86l-148 448h-619l-145 -448h-177zM298 593h525l-263 807z" />
<glyph unicode="&#x105;" d="M-2 302q0 106 52.5 177.5t138.5 113t197 60t226 18.5q44 0 79.5 -1.5t67.5 -3.5t64.5 -6t70.5 -8v80q0 82 -35.5 134.5t-87 83t-108 43.5t-95.5 13q-125 0 -230.5 -34t-197.5 -90l-74 124q101 61 226.5 100t275.5 39q91 0 179 -23.5t158.5 -72t112.5 -128t42 -189.5v-732 q-28 -28 -45.5 -65.5t-17.5 -79.5q0 -87 65.5 -144.5t161.5 -57.5v-108q-150 0 -236 75t-86 198q0 57 18 102t46 80h-72v187q-43 -54 -97.5 -94.5t-114.5 -66.5t-120 -40t-114 -14q-222 0 -336 85.5t-114 244.5zM162 302q0 -70 69 -129.5t217 -59.5q103 0 185 30.5t139.5 76 t89.5 97t32 93.5v106q-80 12 -154 13t-128 1q-89 0 -171 -12t-143.5 -39t-98.5 -70t-37 -107z" />
<glyph unicode="&#x106;" d="M-24 781q0 157 32 303.5t104.5 259.5t186.5 180.5t278 67.5q145 0 248.5 -51.5t152.5 -156.5v182h140v-514h-140q0 83 -32 157t-86 128t-127.5 84.5t-155.5 30.5q-127 0 -210.5 -60t-134 -157t-71.5 -216t-21 -238q0 -117 21 -236.5t71.5 -215t134 -156t210.5 -60.5 q293 0 408 354l143 -57q-61 -201 -200.5 -319.5t-350.5 -118.5q-164 0 -278 68t-186.5 179.5t-104.5 258t-32 303.5zM290 1737l484 345l79 -131l-518 -292z" />
<glyph unicode="&#x107;" d="M0 558q0 127 39.5 235.5t113 186t179.5 121.5t236 44q51 0 105 -12t102 -36.5t86.5 -59t57.5 -81.5v162h148v-447h-148q0 74 -27 135.5t-73.5 105.5t-111.5 69t-139 25q-101 0 -176 -35t-125.5 -95t-76.5 -141t-26 -177t29.5 -177t85.5 -140t134.5 -93.5t176.5 -34.5 q125 0 222.5 49t148.5 131l115 -79q-70 -111 -193 -176.5t-293 -65.5q-130 0 -239.5 43.5t-187 121t-120.5 184t-43 237.5zM290 1291l484 345l79 -131l-518 -292z" />
<glyph unicode="&#x108;" d="M-24 781q0 157 32 303.5t104.5 259.5t186.5 180.5t278 67.5q145 0 248.5 -51.5t152.5 -156.5v182h140v-514h-140q0 83 -32 157t-86 128t-127.5 84.5t-155.5 30.5q-127 0 -210.5 -60t-134 -157t-71.5 -216t-21 -238q0 -117 21 -236.5t71.5 -215t134 -156t210.5 -60.5 q293 0 408 354l143 -57q-61 -201 -200.5 -319.5t-350.5 -118.5q-164 0 -278 68t-186.5 179.5t-104.5 258t-32 303.5zM204 1737l356 350l357 -345l-64 -80l-290 246l-295 -249z" />
<glyph unicode="&#x109;" d="M0 558q0 127 39.5 235.5t113 186t179.5 121.5t236 44q51 0 105 -12t102 -36.5t86.5 -59t57.5 -81.5v162h148v-447h-148q0 74 -27 135.5t-73.5 105.5t-111.5 69t-139 25q-101 0 -176 -35t-125.5 -95t-76.5 -141t-26 -177t29.5 -177t85.5 -140t134.5 -93.5t176.5 -34.5 q125 0 222.5 49t148.5 131l115 -79q-70 -111 -193 -176.5t-293 -65.5q-130 0 -239.5 43.5t-187 121t-120.5 184t-43 237.5zM204 1291l356 350l357 -345l-64 -80l-290 246l-295 -249z" />
<glyph unicode="&#x10a;" d="M-24 781q0 157 32 303.5t104.5 259.5t186.5 180.5t278 67.5q145 0 248.5 -51.5t152.5 -156.5v182h140v-514h-140q0 83 -32 157t-86 128t-127.5 84.5t-155.5 30.5q-127 0 -210.5 -60t-134 -157t-71.5 -216t-21 -238q0 -117 21 -236.5t71.5 -215t134 -156t210.5 -60.5 q293 0 408 354l143 -57q-61 -201 -200.5 -319.5t-350.5 -118.5q-164 0 -278 68t-186.5 179.5t-104.5 258t-32 303.5zM448 1787v224h223v-224h-223z" />
<glyph unicode="&#x10b;" d="M0 558q0 127 39.5 235.5t113 186t179.5 121.5t236 44q51 0 105 -12t102 -36.5t86.5 -59t57.5 -81.5v162h148v-447h-148q0 74 -27 135.5t-73.5 105.5t-111.5 69t-139 25q-101 0 -176 -35t-125.5 -95t-76.5 -141t-26 -177t29.5 -177t85.5 -140t134.5 -93.5t176.5 -34.5 q125 0 222.5 49t148.5 131l115 -79q-70 -111 -193 -176.5t-293 -65.5q-130 0 -239.5 43.5t-187 121t-120.5 184t-43 237.5zM448 1342v224h223v-224h-223z" />
<glyph unicode="&#x10c;" d="M-24 781q0 157 32 303.5t104.5 259.5t186.5 180.5t278 67.5q145 0 248.5 -51.5t152.5 -156.5v182h140v-514h-140q0 83 -32 157t-86 128t-127.5 84.5t-155.5 30.5q-127 0 -210.5 -60t-134 -157t-71.5 -216t-21 -238q0 -117 21 -236.5t71.5 -215t134 -156t210.5 -60.5 q293 0 408 354l143 -57q-61 -201 -200.5 -319.5t-350.5 -118.5q-164 0 -278 68t-186.5 179.5t-104.5 258t-32 303.5zM204 2005l64 82l295 -249l290 244l64 -82l-357 -341z" />
<glyph unicode="&#x10d;" d="M0 558q0 127 39.5 235.5t113 186t179.5 121.5t236 44q51 0 105 -12t102 -36.5t86.5 -59t57.5 -81.5v162h148v-447h-148q0 74 -27 135.5t-73.5 105.5t-111.5 69t-139 25q-101 0 -176 -35t-125.5 -95t-76.5 -141t-26 -177t29.5 -177t85.5 -140t134.5 -93.5t176.5 -34.5 q125 0 222.5 49t148.5 131l115 -79q-70 -111 -193 -176.5t-293 -65.5q-130 0 -239.5 43.5t-187 121t-120.5 184t-43 237.5zM204 1559l64 82l295 -249l290 244l64 -82l-357 -341z" />
<glyph unicode="&#x10e;" d="M59 0v1566h509q159 0 273.5 -64t187.5 -172t107 -250t34 -299t-33 -299t-105.5 -249.5t-187 -170t-276.5 -62.5h-509zM204 2010l64 82l295 -249l290 244l64 -82l-357 -341zM223 140h345q206 0 322 167t116 474t-116 476t-322 169h-345v-1286z" />
<glyph unicode="&#x10f;" d="M0 558q0 127 32 235.5t91 186t145 121.5t194 44q71 0 141 -32t127 -95v408h-224v140h388v-1566h-164v103q-57 -63 -127 -97t-141 -34q-108 0 -194 43.5t-145 121t-91 185.5t-32 236zM162 558q0 -96 21 -177t60.5 -141t97 -95t131.5 -35q147 0 258 150v598 q-57 78 -121.5 113t-136.5 35q-74 0 -131.5 -35t-97 -95t-60.5 -141t-21 -177zM1056 1007v558h222l-101 -558h-121z" />
<glyph unicode="&#x110;" d="M-140 727v141h199v698h509q164 0 278.5 -64t187 -172t104.5 -250t32 -296q0 -162 -36 -304.5t-109 -250t-188 -168.5t-269 -61h-509v727h-199zM223 140h345q206 0 322 168t116 476q0 307 -116 474.5t-322 167.5h-345v-558h305v-141h-305v-587z" />
<glyph unicode="&#x111;" d="M-2 558q0 127 39 235.5t111.5 186t178 121.5t238.5 44q89 0 173.5 -32t155.5 -95v183h-223v141h223v224h166v-224h223v-141h-223v-1201h-166v103q-71 -63 -155.5 -97t-173.5 -34q-133 0 -238.5 43.5t-178 121t-111.5 185.5t-39 236zM162 558q0 -96 26 -177t76 -141 t125 -95t174 -35q189 0 331 150v598q-71 78 -154.5 113t-176.5 35q-99 0 -174 -35t-125 -95t-76 -141t-26 -177z" />
<glyph unicode="&#x112;" d="M59 0v1566h1001v-140h-837v-561h617v-140h-617v-585h837v-140h-1001zM223 1772v136h671v-136h-671z" />
<glyph unicode="&#x113;" d="M-5 558q0 127 39 234.5t113 186t179.5 122.5t236.5 44q143 0 249.5 -48t178 -132.5t105.5 -202.5t34 -260h-966q18 -178 130 -283.5t290 -105.5q126 0 224.5 51.5t147.5 128.5l116 -79q-84 -118 -200.5 -180t-287.5 -62q-129 0 -237 43.5t-186.5 121t-122 184 t-43.5 237.5zM167 642h789q-27 184 -132.5 274t-260.5 90q-79 0 -146.5 -26t-119 -74t-86.5 -116t-44 -148zM223 1326v136h671v-136h-671z" />
<glyph unicode="&#x114;" d="M59 0v1566h1001v-140h-837v-561h617v-140h-617v-585h837v-140h-1001zM218 1897l94 91q113 -113 248 -113q136 0 249 113l93 -91q-140 -139 -342 -139q-201 0 -342 139z" />
<glyph unicode="&#x115;" d="M-5 558q0 127 39 234.5t113 186t179.5 122.5t236.5 44q143 0 249.5 -48t178 -132.5t105.5 -202.5t34 -260h-966q18 -178 130 -283.5t290 -105.5q126 0 224.5 51.5t147.5 128.5l116 -79q-84 -118 -200.5 -180t-287.5 -62q-129 0 -237 43.5t-186.5 121t-122 184 t-43.5 237.5zM167 642h789q-27 184 -132.5 274t-260.5 90q-79 0 -146.5 -26t-119 -74t-86.5 -116t-44 -148zM218 1451l94 91q113 -113 248 -113q136 0 249 113l93 -91q-140 -139 -342 -139q-201 0 -342 139z" />
<glyph unicode="&#x116;" d="M59 0v1566h1001v-140h-837v-561h617v-140h-617v-585h837v-140h-1001zM448 1787v224h223v-224h-223z" />
<glyph unicode="&#x117;" d="M-5 558q0 127 39 234.5t113 186t179.5 122.5t236.5 44q143 0 249.5 -48t178 -132.5t105.5 -202.5t34 -260h-966q18 -178 130 -283.5t290 -105.5q126 0 224.5 51.5t147.5 128.5l116 -79q-84 -118 -200.5 -180t-287.5 -62q-129 0 -237 43.5t-186.5 121t-122 184 t-43.5 237.5zM167 642h789q-27 184 -132.5 274t-260.5 90q-79 0 -146.5 -26t-119 -74t-86.5 -116t-44 -148zM448 1342v224h223v-224h-223z" />
<glyph unicode="&#x118;" d="M59 0v1566h1001v-140h-837v-561h617v-140h-617v-585h837v-138l2 -2q-59 -54 -59 -145q0 -87 65 -144.5t161 -57.5v-108q-150 0 -236 75t-86 198q0 57 18 102t46 80h-912z" />
<glyph unicode="&#x119;" d="M-5 558q0 127 39 234.5t113 186t179.5 122.5t236.5 44q143 0 249.5 -48t178 -132.5t105.5 -202.5t34 -260h-966q18 -178 130 -283.5t290 -105.5q126 0 224.5 51.5t147.5 128.5l116 -79q-113 -158 -281 -212q-27 -26 -42 -65.5t-15 -81.5q0 -87 65.5 -144.5t161.5 -57.5 v-108q-150 0 -236.5 75t-86.5 198q0 49 14 88.5t36 74.5q-52 -9 -104 -9q-129 0 -237 43.5t-186.5 121t-122 184t-43.5 237.5zM167 642h789q-27 184 -132.5 274t-260.5 90q-79 0 -146.5 -26t-119 -74t-86.5 -116t-44 -148z" />
<glyph unicode="&#x11a;" d="M59 0v1566h1001v-140h-837v-561h617v-140h-617v-585h837v-140h-1001zM204 2005l64 82l295 -249l290 244l64 -82l-357 -341z" />
<glyph unicode="&#x11b;" d="M-5 558q0 127 39 234.5t113 186t179.5 122.5t236.5 44q143 0 249.5 -48t178 -132.5t105.5 -202.5t34 -260h-966q18 -178 130 -283.5t290 -105.5q126 0 224.5 51.5t147.5 128.5l116 -79q-84 -118 -200.5 -180t-287.5 -62q-129 0 -237 43.5t-186.5 121t-122 184 t-43.5 237.5zM167 642h789q-27 184 -132.5 274t-260.5 90q-79 0 -146.5 -26t-119 -74t-86.5 -116t-44 -148zM204 1559l64 82l295 -249l290 244l64 -82l-357 -341z" />
<glyph unicode="&#x11c;" d="M-24 781q0 157 32 303.5t104.5 259.5t186.5 180.5t278 67.5q145 0 248.5 -51.5t152.5 -156.5v182h140v-514h-140q0 86 -32 159.5t-86 126.5t-127.5 83.5t-155.5 30.5q-127 0 -210.5 -60t-134 -157t-71.5 -216t-21 -238q0 -117 21 -236.5t71.5 -215t134 -156t210.5 -60.5 q190 0 299 146.5t130 411.5h-347v140h521v-32q0 -160 -33 -305t-106 -256.5t-187.5 -178.5t-276.5 -67q-164 0 -278 68t-186.5 179.5t-104.5 258t-32 303.5zM204 1737l356 350l357 -345l-64 -80l-290 246l-295 -249z" />
<glyph unicode="&#x11d;" d="M-2 558q0 127 39 234.5t111.5 186t177 122.5t234.5 44q92 0 177.5 -32t156.5 -95v100h166v-1106q0 -115 -40 -205t-111 -152.5t-168 -95.5t-215 -33q-167 0 -284 62.5t-202 179.5l115 89q51 -78 148.5 -130.5t222.5 -52.5q170 0 269 85.5t99 247.5v120 q-146 -129 -334 -129q-262 0 -412 150t-150 410zM162 558q0 -192 99.5 -306t298.5 -114q94 0 178.5 35.5t155.5 114.5v570q-71 78 -155.5 113t-178.5 35q-98 0 -173 -35t-124 -95t-75 -142t-26 -176zM204 1291l356 350l357 -345l-64 -80l-290 246l-295 -249z" />
<glyph unicode="&#x11e;" d="M-24 781q0 157 32 303.5t104.5 259.5t186.5 180.5t278 67.5q145 0 248.5 -51.5t152.5 -156.5v182h140v-514h-140q0 86 -32 159.5t-86 126.5t-127.5 83.5t-155.5 30.5q-127 0 -210.5 -60t-134 -157t-71.5 -216t-21 -238q0 -117 21 -236.5t71.5 -215t134 -156t210.5 -60.5 q190 0 299 146.5t130 411.5h-347v140h521v-32q0 -160 -33 -305t-106 -256.5t-187.5 -178.5t-276.5 -67q-164 0 -278 68t-186.5 179.5t-104.5 258t-32 303.5zM218 1897l94 91q113 -113 248 -113q136 0 249 113l93 -91q-140 -139 -342 -139q-201 0 -342 139z" />
<glyph unicode="&#x11f;" d="M-2 558q0 127 39 234.5t111.5 186t177 122.5t234.5 44q92 0 177.5 -32t156.5 -95v100h166v-1106q0 -115 -40 -205t-111 -152.5t-168 -95.5t-215 -33q-167 0 -284 62.5t-202 179.5l115 89q51 -78 148.5 -130.5t222.5 -52.5q170 0 269 85.5t99 247.5v120 q-146 -129 -334 -129q-262 0 -412 150t-150 410zM162 558q0 -192 99.5 -306t298.5 -114q94 0 178.5 35.5t155.5 114.5v570q-71 78 -155.5 113t-178.5 35q-98 0 -173 -35t-124 -95t-75 -142t-26 -176zM218 1451l94 91q113 -113 248 -113q136 0 249 113l93 -91 q-140 -139 -342 -139q-201 0 -342 139z" />
<glyph unicode="&#x120;" d="M-24 781q0 157 32 303.5t104.5 259.5t186.5 180.5t278 67.5q145 0 248.5 -51.5t152.5 -156.5v182h140v-514h-140q0 86 -32 159.5t-86 126.5t-127.5 83.5t-155.5 30.5q-127 0 -210.5 -60t-134 -157t-71.5 -216t-21 -238q0 -117 21 -236.5t71.5 -215t134 -156t210.5 -60.5 q190 0 299 146.5t130 411.5h-347v140h521v-32q0 -160 -33 -305t-106 -256.5t-187.5 -178.5t-276.5 -67q-164 0 -278 68t-186.5 179.5t-104.5 258t-32 303.5zM448 1787v224h223v-224h-223z" />
<glyph unicode="&#x121;" d="M-2 558q0 127 39 234.5t111.5 186t177 122.5t234.5 44q92 0 177.5 -32t156.5 -95v100h166v-1106q0 -115 -40 -205t-111 -152.5t-168 -95.5t-215 -33q-167 0 -284 62.5t-202 179.5l115 89q51 -78 148.5 -130.5t222.5 -52.5q170 0 269 85.5t99 247.5v120 q-146 -129 -334 -129q-262 0 -412 150t-150 410zM162 558q0 -192 99.5 -306t298.5 -114q94 0 178.5 35.5t155.5 114.5v570q-71 78 -155.5 113t-178.5 35q-98 0 -173 -35t-124 -95t-75 -142t-26 -176zM448 1342v224h223v-224h-223z" />
<glyph unicode="&#x122;" d="M-24 781q0 157 32 303.5t104.5 259.5t186.5 180.5t278 67.5q145 0 248.5 -51.5t152.5 -156.5v182h140v-514h-140q0 86 -32 159.5t-86 126.5t-127.5 83.5t-155.5 30.5q-127 0 -210.5 -60t-134 -157t-71.5 -216t-21 -238q0 -117 21 -236.5t71.5 -215t134 -156t210.5 -60.5 q190 0 299 146.5t130 411.5h-347v140h521v-32q0 -160 -33 -305t-106 -256.5t-187.5 -178.5t-276.5 -67q-164 0 -278 68t-186.5 179.5t-104.5 258t-32 303.5zM373 -448l101 323h258l-206 -323h-153z" />
<glyph unicode="&#x123;" d="M-2 558q0 127 39 234.5t111.5 186t177 122.5t234.5 44q92 0 177.5 -32t156.5 -95v100h166v-1106q0 -115 -40 -205t-111 -152.5t-168 -95.5t-215 -33q-167 0 -284 62.5t-202 179.5l115 89q51 -78 148.5 -130.5t222.5 -52.5q170 0 269 85.5t99 247.5v120 q-146 -129 -334 -129q-262 0 -412 150t-150 410zM162 558q0 -192 99.5 -306t298.5 -114q94 0 178.5 35.5t155.5 114.5v570q-71 78 -155.5 113t-178.5 35q-98 0 -173 -35t-124 -95t-75 -142t-26 -176zM340 1342l328 447h116l-224 -447h-220z" />
<glyph unicode="&#x124;" d="M59 0v1566h164v-701h671v701h166v-1566h-166v725h-671v-725h-164zM204 1737l356 350l357 -345l-64 -80l-290 246l-295 -249z" />
<glyph unicode="&#x125;" d="M59 0v1566h164v-728q119 307 424 307q413 0 413 -455v-690h-166v690q0 150 -65 233t-210 83q-91 0 -165 -42t-125.5 -112.5t-78.5 -161t-27 -188.5v-502h-164zM204 1740l356 350l357 -345l-64 -80l-290 246l-295 -249z" />
<glyph unicode="&#x126;" d="M-164 1180v135h223v251h164v-251h671v251h166v-251h225v-135h-225v-1180h-166v725h-671v-725h-164v1180h-223zM223 865h671v315h-671v-315z" />
<glyph unicode="&#x127;" d="M-164 1207v135h223v224h164v-224h225v-135h-225v-369q119 307 424 307q413 0 413 -455v-690h-166v690q0 150 -65 233t-210 83q-91 0 -165 -42t-125.5 -112.5t-78.5 -161t-27 -188.5v-502h-164v1207h-223z" />
<glyph unicode="&#x128;" d="M94 1794q110 187 295 187q68 0 111.5 -22t76.5 -48t64.5 -48t78.5 -22q122 0 199 135l96 -56q-108 -190 -295 -190q-68 0 -111.5 22.5t-76.5 48t-65.5 48t-77.5 22.5q-124 0 -199 -134zM223 0v140h253v1286h-253v140h671v-140h-252v-1286h252v-140h-671z" />
<glyph unicode="&#x129;" d="M94 1348q110 187 295 187q68 0 111.5 -22t76.5 -48t64.5 -48t78.5 -22q122 0 199 135l96 -56q-108 -190 -295 -190q-68 0 -111.5 22.5t-76.5 48t-65.5 48t-77.5 22.5q-124 0 -199 -134zM223 0v140h253v833h-253v145h419v-978h252v-140h-671z" />
<glyph unicode="&#x12a;" d="M223 0v140h253v1286h-253v140h671v-140h-252v-1286h252v-140h-671zM223 1772v136h671v-136h-671z" />
<glyph unicode="&#x12b;" d="M223 0v140h253v833h-253v145h419v-978h252v-140h-671zM223 1326v136h671v-136h-671z" />
<glyph unicode="&#x12c;" d="M218 1897l94 91q113 -113 248 -113q136 0 249 113l93 -91q-140 -139 -342 -139q-201 0 -342 139zM223 0v140h253v1286h-253v140h671v-140h-252v-1286h252v-140h-671z" />
<glyph unicode="&#x12d;" d="M218 1451l94 91q113 -113 248 -113q136 0 249 113l93 -91q-140 -139 -342 -139q-201 0 -342 139zM223 0v140h253v833h-253v145h419v-978h252v-140h-671z" />
<glyph unicode="&#x12e;" d="M223 0v140h253v1286h-253v140h671v-140h-252v-1286h252v-140q-59 -54 -59 -145q0 -87 65.5 -144.5t161.5 -57.5v-108q-150 0 -236.5 75t-86.5 198q0 57 18.5 102t46.5 80h-581z" />
<glyph unicode="&#x12f;" d="M223 0v140h253v838h-253v140h419v-978h252v-140q-59 -54 -59 -145q0 -87 65.5 -144.5t161.5 -57.5v-108q-150 0 -236.5 75t-86.5 198q0 57 18.5 102t46.5 80h-581zM448 1342v224h223v-224h-223z" />
<glyph unicode="&#x130;" d="M223 0v140h253v1286h-253v140h671v-140h-252v-1286h252v-140h-671zM448 1787v224h223v-224h-223z" />
<glyph unicode="&#x131;" d="M223 0v140h253v833h-253v145h419v-978h252v-140h-671z" />
<glyph unicode="&#x132;" d="M0 0v140h253v1286h-253v140h671v-140h-252v-1286h252v-140h-671zM204 -319l103 115q59 -68 135 -99.5t163 -31.5q110 0 179 44.5t105.5 113.5t50.5 155t14 172v1416h164v-1416q0 -298 -126.5 -461t-386.5 -163q-253 0 -401 155z" />
<glyph unicode="&#x133;" d="M0 0v140h253v838h-253v140h418v-978h253v-140h-671zM223 1342v224h225v-224h-225zM228 -232l126 87q44 -91 114.5 -140.5t173.5 -49.5q80 0 135.5 23.5t88 66.5t45.5 104.5t13 140.5v978h-253v140h417v-1118q0 -216 -112.5 -345t-333.5 -129q-295 0 -414 242zM894 1342 v224h224v-224h-224z" />
<glyph unicode="&#x134;" d="M-2 410l142 54q52 -194 154 -272.5t252 -78.5q110 0 179 44.5t106 113.5t50 154.5t13 172.5v968h166v-968q0 -298 -127 -462t-387 -164q-209 0 -350.5 110t-197.5 328zM204 1737l356 350l357 -345l-64 -80l-290 246l-295 -249z" />
<glyph unicode="&#x135;" d="M5 -232l126 87q43 -91 113 -140.5t174 -49.5q81 0 136.5 23.5t87 66.5t45.5 104.5t14 140.5v978h-253v140h417v-1118q0 -216 -113.5 -345t-333.5 -129q-296 0 -413 242zM314 1292l357 350l356 -345l-63 -80l-291 246l-295 -249z" />
<glyph unicode="&#x136;" d="M59 0v1566h164v-762l671 762h217l-614 -684l614 -882h-201l-521 767l-166 -185v-582h-164zM373 -448l101 323h258l-206 -323h-153z" />
<glyph unicode="&#x137;" d="M59 0v1566h164v-1050l637 602h236l-561 -513l581 -605h-234l-457 502l-202 -185v-317h-164zM373 -448l101 323h258l-206 -323h-153z" />
<glyph unicode="&#x138;" d="M59 0v1118h164v-602l637 602h236l-561 -513l581 -605h-234l-457 502l-202 -185v-317h-164z" />
<glyph unicode="&#x139;" d="M59 0v1566h164v-1426h837v-140h-1001zM290 1737l484 345l79 -131l-518 -292z" />
<glyph unicode="&#x13a;" d="M223 0v140h253v1286h-253v140h419v-1426h252v-140h-671zM290 1740l484 345l79 -131l-518 -292z" />
<glyph unicode="&#x13b;" d="M59 0v1566h164v-1426h837v-140h-1001zM373 -448l101 323h258l-206 -323h-153z" />
<glyph unicode="&#x13c;" d="M223 0v140h253v1286h-253v140h419v-1426h252v-140h-671zM373 -448l101 323h258l-206 -323h-153z" />
<glyph unicode="&#x13d;" d="M59 0v1566h164v-1426h837v-140h-1001zM732 1008v558h222l-100 -558h-122z" />
<glyph unicode="&#x13e;" d="M223 0v140h253v1286h-253v140h419v-1426h252v-140h-671zM894 1008v558h222l-100 -558h-122z" />
<glyph unicode="&#x13f;" d="M59 0v1566h164v-1426h837v-140h-1001zM671 685v223h223v-223h-223z" />
<glyph unicode="&#x140;" d="M223 0v140h253v1286h-253v140h419v-1426h252v-140h-671zM1119 462v223h223v-223h-223z" />
<glyph unicode="&#x141;" d="M-194 593v152l253 83v738h164v-682l253 84v-152l-253 -84v-589h837v-143h-1001v676z" />
<glyph unicode="&#x142;" d="M223 0v143h253v533l-253 -83v152l253 83v595h-253v143h419v-682l252 84v-152l-252 -84v-589h252v-143h-671z" />
<glyph unicode="&#x143;" d="M59 0v1566h231l604 -1264v1264h166v-1566h-204l-633 1325v-1325h-164zM290 1737l484 345l79 -131l-518 -292z" />
<glyph unicode="&#x144;" d="M59 0v1118h164v-280q119 307 424 307q413 0 413 -455v-690h-166v690q0 150 -65 233t-210 83q-91 0 -165 -42t-125.5 -112.5t-78.5 -161t-27 -188.5v-502h-164zM290 1291l484 345l79 -131l-518 -292z" />
<glyph unicode="&#x145;" d="M59 0v1566h231l604 -1264v1264h166v-1566h-204l-633 1325v-1325h-164zM373 -448l101 323h258l-206 -323h-153z" />
<glyph unicode="&#x146;" d="M59 0v1118h164v-280q119 307 424 307q413 0 413 -455v-690h-166v690q0 150 -65 233t-210 83q-91 0 -165 -42t-125.5 -112.5t-78.5 -161t-27 -188.5v-502h-164zM373 -448l101 323h258l-206 -323h-153z" />
<glyph unicode="&#x147;" d="M59 0v1566h231l604 -1264v1264h166v-1566h-204l-633 1325v-1325h-164zM204 2005l64 82l295 -249l290 244l64 -82l-357 -341z" />
<glyph unicode="&#x148;" d="M59 0v1118h164v-280q119 307 424 307q413 0 413 -455v-690h-166v690q0 150 -65 233t-210 83q-91 0 -165 -42t-125.5 -112.5t-78.5 -161t-27 -188.5v-502h-164zM204 1559l64 82l295 -249l290 244l64 -82l-357 -341z" />
<glyph unicode="&#x149;" d="M1 1342v558h222l-100 -558h-122zM59 0v1118h164v-280q119 307 424 307q413 0 413 -455v-690h-166v690q0 150 -65 233t-210 83q-91 0 -165 -42t-125.5 -112.5t-78.5 -161t-27 -188.5v-502h-164z" />
<glyph unicode="&#x14a;" d="M59 0v1566h231l604 -1264v1264h166v-1416q0 -298 -127 -461t-387 -163q-253 0 -401 155l103 115q59 -68 135.5 -99.5t162.5 -31.5q78 0 134.5 23.5t96 63t64 92.5t36.5 112l-654 1369v-1325h-164z" />
<glyph unicode="&#x14b;" d="M59 0v1118h164v-280q119 307 424 307q413 0 413 -455v-690q0 -216 -113.5 -345t-334.5 -129q-108 0 -190 31l42 143q30 -17 70.5 -26t77.5 -9q82 0 137 23.5t87 66.5t45 104.5t13 140.5v690q0 150 -65 233t-210 83q-91 0 -165 -42t-125.5 -112.5t-78.5 -161t-27 -188.5 v-502h-164z" />
<glyph unicode="&#x14c;" d="M-40 781q0 157 32 303.5t104.5 259.5t187 180.5t276.5 67.5t277 -67.5t185.5 -180.5t104 -259.5t33.5 -303.5t-32 -303.5t-103 -258t-185.5 -179.5t-279.5 -68q-164 0 -278.5 68t-186 179.5t-103.5 258t-32 303.5zM125 781q0 -117 19.5 -236.5t70 -215t134 -156 t211.5 -60.5t212 60.5t134 156t69.5 215t19.5 236.5q0 155 -29.5 279t-84.5 212t-136 134t-185 46q-128 0 -211.5 -60t-134 -157t-70 -216t-19.5 -238zM223 1772v136h671v-136h-671z" />
<glyph unicode="&#x14d;" d="M-24 556q0 127 41.5 236.5t119 187t185.5 121.5t238 44q134 0 242 -44t185 -121.5t118.5 -187t41.5 -236.5q0 -131 -41.5 -238t-118.5 -183t-185 -119.5t-242 -43.5q-130 0 -238 43.5t-185.5 119.5t-119 183t-41.5 238zM140 556q0 -96 28.5 -177t82.5 -140t132.5 -92.5 t176.5 -33.5q99 0 177.5 33.5t133.5 92.5t83.5 140t28.5 177t-28.5 177t-83.5 142t-133.5 96t-177.5 35q-98 0 -176.5 -35t-132.5 -96t-82.5 -142t-28.5 -177zM223 1326v136h671v-136h-671z" />
<glyph unicode="&#x14e;" d="M-40 781q0 157 32 303.5t104.5 259.5t187 180.5t276.5 67.5t277 -67.5t185.5 -180.5t104 -259.5t33.5 -303.5t-32 -303.5t-103 -258t-185.5 -179.5t-279.5 -68q-164 0 -278.5 68t-186 179.5t-103.5 258t-32 303.5zM125 781q0 -117 19.5 -236.5t70 -215t134 -156 t211.5 -60.5t212 60.5t134 156t69.5 215t19.5 236.5q0 155 -29.5 279t-84.5 212t-136 134t-185 46q-128 0 -211.5 -60t-134 -157t-70 -216t-19.5 -238zM218 1897l94 91q113 -113 248 -113q136 0 249 113l93 -91q-140 -139 -342 -139q-201 0 -342 139z" />
<glyph unicode="&#x14f;" d="M-24 556q0 127 41.5 236.5t119 187t185.5 121.5t238 44q134 0 242 -44t185 -121.5t118.5 -187t41.5 -236.5q0 -131 -41.5 -238t-118.5 -183t-185 -119.5t-242 -43.5q-130 0 -238 43.5t-185.5 119.5t-119 183t-41.5 238zM140 556q0 -96 28.5 -177t82.5 -140t132.5 -92.5 t176.5 -33.5q99 0 177.5 33.5t133.5 92.5t83.5 140t28.5 177t-28.5 177t-83.5 142t-133.5 96t-177.5 35q-98 0 -176.5 -35t-132.5 -96t-82.5 -142t-28.5 -177zM218 1451l94 91q113 -113 248 -113q136 0 249 113l93 -91q-140 -139 -342 -139q-201 0 -342 139z" />
<glyph unicode="&#x150;" d="M-40 781q0 157 32 303.5t104.5 259.5t187 180.5t276.5 67.5t277 -67.5t185.5 -180.5t104 -259.5t33.5 -303.5t-32 -303.5t-103 -258t-185.5 -179.5t-279.5 -68q-164 0 -278.5 68t-186 179.5t-103.5 258t-32 303.5zM125 781q0 -117 19.5 -236.5t70 -215t134 -156 t211.5 -60.5t212 60.5t134 156t69.5 215t19.5 236.5q0 155 -29.5 279t-84.5 212t-136 134t-185 46q-128 0 -211.5 -60t-134 -157t-70 -216t-19.5 -238zM204 1674l167 450h224l-224 -450h-167zM649 1674l169 450h224l-224 -450h-169z" />
<glyph unicode="&#x151;" d="M-24 556q0 127 41.5 236.5t119 187t185.5 121.5t238 44q134 0 242 -44t185 -121.5t118.5 -187t41.5 -236.5q0 -131 -41.5 -238t-118.5 -183t-185 -119.5t-242 -43.5q-130 0 -238 43.5t-185.5 119.5t-119 183t-41.5 238zM140 556q0 -96 28.5 -177t82.5 -140t132.5 -92.5 t176.5 -33.5q99 0 177.5 33.5t133.5 92.5t83.5 140t28.5 177t-28.5 177t-83.5 142t-133.5 96t-177.5 35q-98 0 -176.5 -35t-132.5 -96t-82.5 -142t-28.5 -177zM204 1228l167 450h224l-224 -450h-167zM649 1228l169 450h224l-224 -450h-169z" />
<glyph unicode="&#x152;" d="M-17 781q0 811 346 811q89 0 132 -45.5t78 -141.5v161h579v-140h-447v-561h339v-140h-339v-585h447v-140h-579v160q-35 -96 -78 -142t-132 -46q-346 0 -346 809zM148 781q0 -147 7 -269.5t27 -211.5t55 -138t92 -49t91.5 49t54 138t25.5 211.5t6 269.5q0 148 -6 272 t-25.5 212.5t-54 137.5t-91.5 49t-92 -49t-55 -137.5t-27 -212.5t-7 -272z" />
<glyph unicode="&#x153;" d="M-44 558q0 587 334 587q197 0 254 -233q26 118 92.5 175.5t167.5 57.5q120 0 188 -62.5t102 -158.5t42.5 -209t8.5 -213h-514q0 -200 47 -288.5t140 -88.5q57 0 96.5 33.5t56.5 118.5l152 -49q-81 -256 -305 -256q-213 0 -272 242q-52 -242 -256 -242q-334 0 -334 586z M120 558q0 -452 170 -452t170 452q0 450 -170 450t-170 -450zM631 647h337q0 181 -33 271t-131 90t-133 -95t-40 -266z" />
<glyph unicode="&#x154;" d="M59 0v1566h516q258 0 399.5 -112t141.5 -336q0 -98 -35 -176.5t-95 -134t-143 -89t-182 -40.5l472 -678h-209l-457 671h-244v-671h-164zM223 811h352q173 0 272 72.5t99 234.5q0 160 -99 234t-272 74h-352v-615zM290 1737l484 345l79 -131l-518 -292z" />
<glyph unicode="&#x155;" d="M0 0v140h253v838h-253v140h418v-280q112 307 428 307q85 0 148 -11t117 -38l-54 -135q-89 45 -211 45q-101 0 -180 -43.5t-134.5 -113.5t-84.5 -160.5t-29 -186.5v-362h253v-140h-671zM290 1292l484 345l79 -131l-518 -292z" />
<glyph unicode="&#x156;" d="M59 0v1566h516q258 0 399.5 -112t141.5 -336q0 -98 -35 -176.5t-95 -134t-143 -89t-182 -40.5l472 -678h-209l-457 671h-244v-671h-164zM223 811h352q173 0 272 72.5t99 234.5q0 160 -99 234t-272 74h-352v-615zM373 -448l101 323h258l-206 -323h-153z" />
<glyph unicode="&#x157;" d="M0 0v140h253v838h-253v140h418v-280q112 307 428 307q85 0 148 -11t117 -38l-54 -135q-89 45 -211 45q-101 0 -180 -43.5t-134.5 -113.5t-84.5 -160.5t-29 -186.5v-362h253v-140h-671zM373 -448l101 323h258l-206 -323h-153z" />
<glyph unicode="&#x158;" d="M59 0v1566h516q258 0 399.5 -112t141.5 -336q0 -98 -35 -176.5t-95 -134t-143 -89t-182 -40.5l472 -678h-209l-457 671h-244v-671h-164zM204 2005l64 82l295 -249l290 244l64 -82l-357 -341zM223 811h352q173 0 272 72.5t99 234.5q0 160 -99 234t-272 74h-352v-615z" />
<glyph unicode="&#x159;" d="M0 0v140h253v838h-253v140h418v-280q112 307 428 307q85 0 148 -11t117 -38l-54 -135q-89 45 -211 45q-101 0 -180 -43.5t-134.5 -113.5t-84.5 -160.5t-29 -186.5v-362h253v-140h-671zM204 1560l64 82l295 -249l290 244l64 -82l-357 -341z" />
<glyph unicode="&#x15a;" d="M30 0v476h139q0 -80 37.5 -146.5t95 -114.5t132.5 -75t153 -27q69 0 128 19.5t103.5 56.5t70 89.5t25.5 119.5q0 76 -33 130t-88.5 92.5t-125 65.5t-141.5 53q-86 30 -171 63t-152 83.5t-109 123t-42 180.5q0 96 40.5 171t106.5 126.5t153.5 78.5t180.5 27 q114 0 210.5 -46.5t150.5 -142.5v163h145v-448h-145q0 71 -29.5 133t-80 105.5t-115 69.5t-136.5 26q-64 0 -121.5 -14.5t-100.5 -46t-69 -82t-26 -120.5q0 -61 30.5 -104t82 -76t119.5 -60t139 -55q89 -31 176.5 -69.5t157 -92.5t114 -132.5t44.5 -191.5q0 -98 -41 -178 t-109.5 -137.5t-157 -89t-184.5 -31.5q-132 0 -242.5 49.5t-175.5 145.5v-167h-139zM290 1737l484 345l79 -131l-518 -292z" />
<glyph unicode="&#x15b;" d="M-12 133l73 142q124 -78 244 -120t248 -42q371 0 371 192q0 47 -30.5 76t-82 48t-118.5 29.5t-140 20.5q-93 13 -185.5 31t-169 54t-122.5 96t-46 158q0 84 42.5 145.5t114 102t167.5 60t199 19.5q148 0 264.5 -34.5t209.5 -97.5l-66 -129q-96 68 -194.5 95t-213.5 27 q-51 0 -114 -9t-117 -31.5t-91 -58t-37 -89.5q0 -46 31 -74.5t82.5 -47t118 -29.5t139.5 -20q91 -13 184 -31t169.5 -53t123 -95t46.5 -158q0 -99 -49 -163.5t-126.5 -103t-173 -55t-186.5 -16.5q-152 0 -303.5 44.5t-261.5 116.5zM290 1292l484 345l79 -131l-518 -292z" />
<glyph unicode="&#x15c;" d="M30 0v476h139q0 -80 37.5 -146.5t95 -114.5t132.5 -75t153 -27q69 0 128 19.5t103.5 56.5t70 89.5t25.5 119.5q0 76 -33 130t-88.5 92.5t-125 65.5t-141.5 53q-86 30 -171 63t-152 83.5t-109 123t-42 180.5q0 96 40.5 171t106.5 126.5t153.5 78.5t180.5 27 q114 0 210.5 -46.5t150.5 -142.5v163h145v-448h-145q0 71 -29.5 133t-80 105.5t-115 69.5t-136.5 26q-64 0 -121.5 -14.5t-100.5 -46t-69 -82t-26 -120.5q0 -61 30.5 -104t82 -76t119.5 -60t139 -55q89 -31 176.5 -69.5t157 -92.5t114 -132.5t44.5 -191.5q0 -98 -41 -178 t-109.5 -137.5t-157 -89t-184.5 -31.5q-132 0 -242.5 49.5t-175.5 145.5v-167h-139zM204 1737l356 350l357 -345l-64 -80l-290 246l-295 -249z" />
<glyph unicode="&#x15d;" d="M-12 133l73 142q124 -78 244 -120t248 -42q371 0 371 192q0 47 -30.5 76t-82 48t-118.5 29.5t-140 20.5q-93 13 -185.5 31t-169 54t-122.5 96t-46 158q0 84 42.5 145.5t114 102t167.5 60t199 19.5q148 0 264.5 -34.5t209.5 -97.5l-66 -129q-96 68 -194.5 95t-213.5 27 q-51 0 -114 -9t-117 -31.5t-91 -58t-37 -89.5q0 -46 31 -74.5t82.5 -47t118 -29.5t139.5 -20q91 -13 184 -31t169.5 -53t123 -95t46.5 -158q0 -99 -49 -163.5t-126.5 -103t-173 -55t-186.5 -16.5q-152 0 -303.5 44.5t-261.5 116.5zM204 1292l356 350l357 -345l-64 -80 l-290 246l-295 -249z" />
<glyph unicode="&#x15e;" d="M30 0v476h139q0 -80 37.5 -146.5t95 -114.5t132.5 -75t153 -27q69 0 128 19.5t103.5 56.5t70 89.5t25.5 119.5q0 76 -33 130t-88.5 92.5t-125 65.5t-141.5 53q-86 30 -171 63t-152 83.5t-109 123t-42 180.5q0 96 40.5 171t106.5 126.5t153.5 78.5t180.5 27 q114 0 210.5 -46.5t150.5 -142.5v163h145v-448h-145q0 71 -29.5 133t-80 105.5t-115 69.5t-136.5 26q-64 0 -121.5 -14.5t-100.5 -46t-69 -82t-26 -120.5q0 -61 30.5 -104t82 -76t119.5 -60t139 -55q89 -31 176.5 -69.5t157 -92.5t114 -132.5t44.5 -191.5q0 -89 -33 -161.5 t-88.5 -127.5t-129 -90.5t-157.5 -47.5v-30q0 -177 -99 -282q-105 -114 -282 -114v140q243 0 243 256v25q-115 10 -211 58t-153 133v-167h-139z" />
<glyph unicode="&#x15f;" d="M-12 133l73 142q124 -78 244 -120t248 -42q371 0 371 192q0 47 -30.5 76t-82 48t-118.5 29.5t-140 20.5q-93 13 -185.5 31t-169 54t-122.5 96t-46 158q0 84 42.5 145.5t114 102t167.5 60t199 19.5q148 0 264.5 -34.5t209.5 -97.5l-66 -129q-96 68 -194.5 95t-213.5 27 q-51 0 -114 -9t-117 -31.5t-91 -58t-37 -89.5q0 -46 31 -74.5t82.5 -47t118 -29.5t139.5 -20q91 -13 184 -31t169.5 -53t123 -95t46.5 -158q0 -82 -35 -141t-94 -98t-134 -61t-154 -29v-30q0 -177 -99 -282q-105 -114 -282 -114v140q243 0 243 256v21q-147 6 -292 47.5 t-253 113.5z" />
<glyph unicode="&#x160;" d="M30 0v476h139q0 -80 37.5 -146.5t95 -114.5t132.5 -75t153 -27q69 0 128 19.5t103.5 56.5t70 89.5t25.5 119.5q0 76 -33 130t-88.5 92.5t-125 65.5t-141.5 53q-86 30 -171 63t-152 83.5t-109 123t-42 180.5q0 96 40.5 171t106.5 126.5t153.5 78.5t180.5 27 q114 0 210.5 -46.5t150.5 -142.5v163h145v-448h-145q0 71 -29.5 133t-80 105.5t-115 69.5t-136.5 26q-64 0 -121.5 -14.5t-100.5 -46t-69 -82t-26 -120.5q0 -61 30.5 -104t82 -76t119.5 -60t139 -55q89 -31 176.5 -69.5t157 -92.5t114 -132.5t44.5 -191.5q0 -98 -41 -178 t-109.5 -137.5t-157 -89t-184.5 -31.5q-132 0 -242.5 49.5t-175.5 145.5v-167h-139zM204 2005l64 82l295 -249l290 244l64 -82l-357 -341z" />
<glyph unicode="&#x161;" d="M-12 133l73 142q124 -78 244 -120t248 -42q371 0 371 192q0 47 -30.5 76t-82 48t-118.5 29.5t-140 20.5q-93 13 -185.5 31t-169 54t-122.5 96t-46 158q0 84 42.5 145.5t114 102t167.5 60t199 19.5q148 0 264.5 -34.5t209.5 -97.5l-66 -129q-96 68 -194.5 95t-213.5 27 q-51 0 -114 -9t-117 -31.5t-91 -58t-37 -89.5q0 -46 31 -74.5t82.5 -47t118 -29.5t139.5 -20q91 -13 184 -31t169.5 -53t123 -95t46.5 -158q0 -99 -49 -163.5t-126.5 -103t-173 -55t-186.5 -16.5q-152 0 -303.5 44.5t-261.5 116.5zM204 1560l64 82l295 -249l290 244l64 -82 l-357 -341z" />
<glyph unicode="&#x162;" d="M0 1037v529h1118v-529h-140v389h-336v-1286h252v-140h-671v140h253v1286h-336v-389h-140zM373 -448l101 323h258l-206 -323h-153z" />
<glyph unicode="&#x163;" d="M0 978v140h253v448h165v-448h476v-140h-476v-568q0 -61 19.5 -115t55 -94.5t86 -64t115.5 -23.5q122 0 204 76t94 197l138 -30q-19 -176 -138.5 -280t-297.5 -104q-99 0 -180.5 32.5t-139 90t-89.5 138.5t-32 177v568h-253zM373 -448l101 323h258l-206 -323h-153z" />
<glyph unicode="&#x164;" d="M0 1037v529h1118v-529h-140v389h-336v-1286h252v-140h-671v140h253v1286h-336v-389h-140zM204 2005l64 82l295 -249l290 244l64 -82l-357 -341z" />
<glyph unicode="&#x165;" d="M0 978v140h253v448h165v-448h476v-140h-476v-568q0 -61 19.5 -115t55 -94.5t86 -64t115.5 -23.5q122 0 204 76t94 197l138 -30q-19 -176 -138.5 -280t-297.5 -104q-99 0 -180.5 32.5t-139 90t-89.5 138.5t-32 177v568h-253zM894 1233v558h222l-100 -558h-122z" />
<glyph unicode="&#x166;" d="M0 1037v529h1118v-529h-140v389h-336v-561h252v-135h-252v-590h252v-140h-671v140h253v590h-253v135h253v561h-336v-389h-140z" />
<glyph unicode="&#x167;" d="M0 535v136h253v307h-253v140h253v448h165v-448h476v-140h-476v-307h253v-136h-253v-125q0 -61 19.5 -115t55 -94.5t86 -64t115.5 -23.5q122 0 204 76t94 197l138 -30q-19 -176 -138.5 -280t-297.5 -104q-99 0 -180.5 32.5t-139 90t-89.5 138.5t-32 177v125h-253z" />
<glyph unicode="&#x168;" d="M59 560v1006h164v-1008q0 -71 12.5 -150t49.5 -144t102 -108t171 -43t172.5 43t103 108t48.5 144t12 150v1008h166v-1008q0 -133 -29.5 -241t-91.5 -184.5t-156.5 -118.5t-224.5 -42q-131 0 -225 42t-154.5 118.5t-90 185.5t-29.5 242zM94 1794q110 187 295 187 q68 0 111.5 -22t76.5 -48t64.5 -48t78.5 -22q122 0 199 135l96 -56q-108 -190 -295 -190q-68 0 -111.5 22.5t-76.5 48t-65.5 48t-77.5 22.5q-124 0 -199 -134z" />
<glyph unicode="&#x169;" d="M59 427v691h164v-691q0 -150 65.5 -232t210.5 -82q91 0 164.5 42t125 112t78.5 160.5t27 189.5v501h166v-1118h-166v280q-118 -308 -422 -308q-413 0 -413 455zM94 1349q110 187 295 187q68 0 111.5 -22t76.5 -48t64.5 -48t78.5 -22q122 0 199 135l96 -56 q-108 -190 -295 -190q-68 0 -111.5 22.5t-76.5 48t-65.5 48t-77.5 22.5q-124 0 -199 -134z" />
<glyph unicode="&#x16a;" d="M59 560v1006h164v-1008q0 -71 12.5 -150t49.5 -144t102 -108t171 -43t172.5 43t103 108t48.5 144t12 150v1008h166v-1008q0 -133 -29.5 -241t-91.5 -184.5t-156.5 -118.5t-224.5 -42q-131 0 -225 42t-154.5 118.5t-90 185.5t-29.5 242zM223 1772v136h671v-136h-671z" />
<glyph unicode="&#x16b;" d="M59 427v691h164v-691q0 -150 65.5 -232t210.5 -82q91 0 164.5 42t125 112t78.5 160.5t27 189.5v501h166v-1118h-166v280q-118 -308 -422 -308q-413 0 -413 455zM223 1327v136h671v-136h-671z" />
<glyph unicode="&#x16c;" d="M59 560v1006h164v-1008q0 -71 12.5 -150t49.5 -144t102 -108t171 -43t172.5 43t103 108t48.5 144t12 150v1008h166v-1008q0 -133 -29.5 -241t-91.5 -184.5t-156.5 -118.5t-224.5 -42q-131 0 -225 42t-154.5 118.5t-90 185.5t-29.5 242zM218 1897l94 91q113 -113 248 -113 q136 0 249 113l93 -91q-140 -139 -342 -139q-201 0 -342 139z" />
<glyph unicode="&#x16d;" d="M59 427v691h164v-691q0 -150 65.5 -232t210.5 -82q91 0 164.5 42t125 112t78.5 160.5t27 189.5v501h166v-1118h-166v280q-118 -308 -422 -308q-413 0 -413 455zM218 1452l94 91q113 -113 248 -113q136 0 249 113l93 -91q-140 -139 -342 -139q-201 0 -342 139z" />
<glyph unicode="&#x16e;" d="M59 560v1006h164v-1008q0 -71 12.5 -150t49.5 -144t102 -108t171 -43t172.5 43t103 108t48.5 144t12 150v1008h166v-1008q0 -133 -29.5 -241t-91.5 -184.5t-156.5 -118.5t-224.5 -42q-131 0 -225 42t-154.5 118.5t-90 185.5t-29.5 242zM290 1953q0 58 20.5 106.5t58 86 t86.5 58.5t105 21q57 0 106 -21t85.5 -58.5t57.5 -86t21 -106.5q0 -56 -21 -105t-57.5 -86t-85.5 -58t-106 -21q-56 0 -105 21t-86.5 58t-58 86t-20.5 105zM398 1953q0 -66 48 -114t114 -48t114 48t48 114q0 68 -48 116t-114 48t-114 -48t-48 -116z" />
<glyph unicode="&#x16f;" d="M59 427v691h164v-691q0 -150 65.5 -232t210.5 -82q91 0 164.5 42t125 112t78.5 160.5t27 189.5v501h166v-1118h-166v280q-118 -308 -422 -308q-413 0 -413 455zM290 1508q0 58 20.5 106.5t58 86t86.5 58.5t105 21q57 0 106 -21t85.5 -58.5t57.5 -86t21 -106.5 q0 -56 -21 -105t-57.5 -86t-85.5 -58t-106 -21q-56 0 -105 21t-86.5 58t-58 86t-20.5 105zM398 1508q0 -66 48 -114t114 -48t114 48t48 114q0 68 -48 116t-114 48t-114 -48t-48 -116z" />
<glyph unicode="&#x170;" d="M59 560v1006h164v-1008q0 -71 12.5 -150t49.5 -144t102 -108t171 -43t172.5 43t103 108t48.5 144t12 150v1008h166v-1008q0 -133 -29.5 -241t-91.5 -184.5t-156.5 -118.5t-224.5 -42q-131 0 -225 42t-154.5 118.5t-90 185.5t-29.5 242zM204 1674l167 450h224l-224 -450 h-167zM649 1674l169 450h224l-224 -450h-169z" />
<glyph unicode="&#x171;" d="M59 427v691h164v-691q0 -150 65.5 -232t210.5 -82q91 0 164.5 42t125 112t78.5 160.5t27 189.5v501h166v-1118h-166v280q-118 -308 -422 -308q-413 0 -413 455zM204 1229l167 450h224l-224 -450h-167zM649 1229l169 450h224l-224 -450h-169z" />
<glyph unicode="&#x172;" d="M59 560v1006h164v-1008q0 -71 12.5 -150t49.5 -144t102 -108t171 -43t172.5 43t103 108t48.5 144t12 150v1008h166v-1008q0 -216 -76.5 -361t-238.5 -197q-60 -54 -60 -145q0 -87 65.5 -144.5t161.5 -57.5v-108q-150 0 -236 75t-86 198q0 49 12 87.5t34 72.5 q-19 -2 -39 -4t-39 -2q-131 0 -225 42t-154.5 118.5t-90 185.5t-29.5 242z" />
<glyph unicode="&#x173;" d="M59 427v691h164v-691q0 -150 65.5 -232t210.5 -82q91 0 164.5 42t125 112t78.5 160.5t27 189.5v501h166v-1118q-59 -54 -59 -145q0 -87 64.5 -144.5t160.5 -57.5v-108q-150 0 -235.5 75t-85.5 198q0 57 18 102t45 80h-74v280q-118 -308 -422 -308q-413 0 -413 455z" />
<glyph unicode="&#x174;" d="M-76 1566h174l221 -1289l157 841h162l159 -841l221 1289h176l-282 -1566h-194l-160 764l-162 -764h-192zM204 1737l356 350l357 -345l-64 -80l-290 246l-295 -249z" />
<glyph unicode="&#x175;" d="M-32 1118h175l162 -895l174 895h163l179 -895l162 895h173l-227 -1118h-192l-179 821l-169 -821h-192zM204 1292l356 350l357 -345l-64 -80l-290 246l-295 -249z" />
<glyph unicode="&#x176;" d="M-24 1426v140h442v-140h-130l272 -591l270 591h-129v140h441v-140h-127l-373 -750v-536h252v-140h-671v140h253v536l-373 750h-127zM204 1737l356 350l357 -345l-64 -80l-290 246l-295 -249z" />
<glyph unicode="&#x177;" d="M-37 1118h194l403 -978l396 978h197l-605 -1401q-46 -118 -131.5 -154.5t-188.5 -36.5q-115 0 -230 42l32 142q56 -24 110 -34.5t88 -10.5q82 0 112.5 39.5t53.5 93.5l68 170zM204 1292l356 350l357 -345l-64 -80l-290 246l-295 -249z" />
<glyph unicode="&#x178;" d="M-24 1426v140h442v-140h-130l272 -591l270 591h-129v140h441v-140h-127l-373 -750v-536h252v-140h-671v140h253v536l-373 750h-127zM223 1787v224h225v-224h-225zM671 1787v224h223v-224h-223z" />
<glyph unicode="&#x179;" d="M59 0v140l787 1286h-647v-384h-140v524h980v-140l-779 -1286h664v390h140v-530h-1005zM290 1740l484 345l79 -131l-518 -292z" />
<glyph unicode="&#x17a;" d="M56 0v140l762 838h-619v-307h-140v447h978v-140l-762 -838h649v308h140v-448h-1008zM290 1291l484 345l79 -131l-518 -292z" />
<glyph unicode="&#x17b;" d="M59 0v140l787 1286h-647v-384h-140v524h980v-140l-779 -1286h664v390h140v-530h-1005zM448 1790v224h223v-224h-223z" />
<glyph unicode="&#x17c;" d="M56 0v140l762 838h-619v-307h-140v447h978v-140l-762 -838h649v308h140v-448h-1008zM448 1342v224h223v-224h-223z" />
<glyph unicode="&#x17d;" d="M59 0v140l787 1286h-647v-384h-140v524h980v-140l-779 -1286h664v390h140v-530h-1005zM204 2008l64 82l295 -249l290 244l64 -82l-357 -341z" />
<glyph unicode="&#x17e;" d="M56 0v140l762 838h-619v-307h-140v447h978v-140l-762 -838h649v308h140v-448h-1008zM204 1559l64 82l295 -249l290 244l64 -82l-357 -341z" />
<glyph unicode="&#x17f;" d="M223 0v140h253v838h-253v140h253q0 231 119.5 352.5t360.5 121.5q57 0 96 -3.5t66 -8.5v-140q-34 5 -72 8.5t-90 3.5q-157 0 -235.5 -80t-78.5 -254v-978h252v-140h-671z" />
<glyph unicode="&#x192;" d="M5 -326q35 -5 70 -7t89 -2q153 0 232.5 72.5t79.5 243.5v997h-253v140h253q0 231 119.5 350.5t360.5 119.5q57 0 96 -4t66 -8v-141q-34 5 -72 8.5t-90 3.5q-157 0 -235.5 -77.5t-78.5 -251.5h476v-140h-476v-997q0 -455 -478 -455q-37 0 -77 2.5t-82 7.5v138z" />
<glyph unicode="&#x1fc;" d="M-76 0l474 1566h720v-145h-440v-549h332v-145h-332v-579h440v-148h-607v448h-279l-134 -448h-174zM275 593h236v791zM290 1742l484 345l79 -131l-518 -292z" />
<glyph unicode="&#x1fd;" d="M-44 305q0 96 34 166t90 114t128 65t148 21q27 0 55.5 -1.5t55.5 -5.5v115q0 91 -42 160t-127 69q-50 0 -106 -43t-98 -114l-104 101q32 51 74 87.5t84 60t81 34.5t69 11q93 0 160.5 -41.5t94.5 -135.5q34 94 113 135.5t162 41.5q110 0 174.5 -67.5t95 -165.5t39 -210 t8.5 -200h-514q0 -200 47 -288.5t140 -88.5q57 0 100 34.5t65 112.5l140 -44q-42 -130 -117 -193t-197 -63q-91 0 -167.5 61t-102.5 171q-16 -42 -41.5 -82t-62.5 -74t-83.5 -55t-105.5 -21q-140 0 -215 95t-75 238zM120 293q0 -65 36 -116.5t107 -51.5q39 0 76 18.5 t65 50.5t45.5 75t17.5 92v165q-15 2 -42 3t-54 1q-103 0 -177 -57.5t-74 -179.5zM290 1294l484 345l79 -131l-518 -292zM631 647h337q0 195 -38 278t-124 83q-79 0 -127 -80t-48 -281z" />
<glyph unicode="&#x1fe;" d="M-54 35v191l94 100q-42 101 -61 215.5t-19 239.5q0 157 32 303.5t104.5 259.5t187 180.5t276.5 67.5q158 0 269.5 -63.5t183.5 -172.5l162 175v-192l-99 -103q42 -101 63 -215t21 -240q0 -157 -32 -303.5t-103 -258t-185.5 -179.5t-279.5 -68q-162 0 -273 62t-181 170z M125 781q0 -83 9 -165.5t30 -158.5l736 781q-58 104 -142.5 159t-197.5 55q-128 0 -211.5 -60t-134 -157t-70 -216t-19.5 -238zM216 322q49 -94 132.5 -151.5t211.5 -57.5t212 60.5t134 156t69.5 215t19.5 236.5q0 180 -41 325zM290 1742l484 345l79 -131l-518 -292z" />
<glyph unicode="&#x1ff;" d="M-52 0v143l111 89q-83 139 -83 324q0 127 41.5 236.5t119 187t185.5 121.5t238 44q136 0 244 -45t186 -127l182 145v-142l-112 -92q87 -145 87 -328q0 -131 -41.5 -238t-118.5 -183t-185 -119.5t-242 -43.5q-135 0 -244.5 44.5t-188.5 126.5zM140 556q0 -129 47 -221 l683 542q-56 59 -133.5 94t-176.5 35q-98 0 -176.5 -35t-132.5 -96t-82.5 -142t-28.5 -177zM251 241q56 -59 132.5 -93.5t176.5 -34.5q99 0 177.5 33.5t133.5 92.5t83.5 140t28.5 177q0 127 -52 228zM290 1294l484 345l79 -131l-518 -292z" />
<glyph unicode="&#x218;" d="M30 0v476h139q0 -80 37.5 -146.5t95 -114.5t132.5 -75t153 -27q69 0 128 19.5t103.5 56.5t70 89.5t25.5 119.5q0 76 -33 130t-88.5 92.5t-125 65.5t-141.5 53q-86 30 -171 63t-152 83.5t-109 123t-42 180.5q0 96 40.5 171t106.5 126.5t153.5 78.5t180.5 27 q114 0 210.5 -46.5t150.5 -142.5v163h145v-448h-145q0 71 -29.5 133t-80 105.5t-115 69.5t-136.5 26q-64 0 -121.5 -14.5t-100.5 -46t-69 -82t-26 -120.5q0 -61 30.5 -104t82 -76t119.5 -60t139 -55q89 -31 176.5 -69.5t157 -92.5t114 -132.5t44.5 -191.5q0 -98 -41 -178 t-109.5 -137.5t-157 -89t-184.5 -31.5q-132 0 -242.5 49.5t-175.5 145.5v-167h-139zM373 -448l101 323h258l-206 -323h-153z" />
<glyph unicode="&#x219;" d="M-12 133l73 142q124 -78 244 -120t248 -42q371 0 371 192q0 47 -30.5 76t-82 48t-118.5 29.5t-140 20.5q-93 13 -185.5 31t-169 54t-122.5 96t-46 158q0 84 42.5 145.5t114 102t167.5 60t199 19.5q148 0 264.5 -34.5t209.5 -97.5l-66 -129q-96 68 -194.5 95t-213.5 27 q-51 0 -114 -9t-117 -31.5t-91 -58t-37 -89.5q0 -46 31 -74.5t82.5 -47t118 -29.5t139.5 -20q91 -13 184 -31t169.5 -53t123 -95t46.5 -158q0 -99 -49 -163.5t-126.5 -103t-173 -55t-186.5 -16.5q-152 0 -303.5 44.5t-261.5 116.5zM373 -448l101 323h258l-206 -323h-153z " />
<glyph unicode="&#x21a;" d="M0 1037v529h1118v-529h-140v389h-336v-1286h252v-140h-671v140h253v1286h-336v-389h-140zM373 -448l101 323h258l-206 -323h-153z" />
<glyph unicode="&#x21b;" d="M0 978v140h253v448h165v-448h476v-140h-476v-568q0 -61 19.5 -115t55 -94.5t86 -64t115.5 -23.5q122 0 204 76t94 197l138 -30q-19 -176 -138.5 -280t-297.5 -104q-99 0 -180.5 32.5t-139 90t-89.5 138.5t-32 177v568h-253zM373 -448l101 323h258l-206 -323h-153z" />
<glyph unicode="&#x2c6;" d="M204 1292l356 350l357 -345l-64 -80l-290 246l-295 -249z" />
<glyph unicode="&#x2c7;" d="M204 1560l64 82l295 -249l290 244l64 -82l-357 -341z" />
<glyph unicode="&#x2d8;" d="M218 1452l94 91q113 -113 248 -113q136 0 249 113l93 -91q-140 -139 -342 -139q-201 0 -342 139z" />
<glyph unicode="&#x2d9;" d="M448 1342v224h223v-224h-223z" />
<glyph unicode="&#x2da;" d="M290 1508q0 58 20.5 106.5t58 86t86.5 58.5t105 21q57 0 106 -21t85.5 -58.5t57.5 -86t21 -106.5q0 -56 -21 -105t-57.5 -86t-85.5 -58t-106 -21q-56 0 -105 21t-86.5 58t-58 86t-20.5 105zM398 1508q0 -66 48 -114t114 -48t114 48t48 114q0 68 -48 116t-114 48t-114 -48 t-48 -116z" />
<glyph unicode="&#x2db;" d="M902 -182q0 76 32 131.5t79 97.5l44 -47q-60 -54 -60 -145q0 -87 65.5 -144.5t161.5 -57.5v-108q-150 0 -236 75t-86 198z" />
<glyph unicode="&#x2dc;" d="M94 1349q110 187 295 187q68 0 111.5 -22t76.5 -48t64.5 -48t78.5 -22q122 0 199 135l96 -56q-108 -190 -295 -190q-68 0 -111.5 22.5t-76.5 48t-65.5 48t-77.5 22.5q-124 0 -199 -134z" />
<glyph unicode="&#x2dd;" d="M204 1229l167 450h224l-224 -450h-167zM649 1229l169 450h224l-224 -450h-169z" />
<glyph unicode="&#x3a9;" d="M-24 889q0 136 38 263.5t111.5 225t183 156t251.5 58.5q143 0 252.5 -58.5t184.5 -156t112.5 -225t37.5 -263.5q0 -174 -66 -337t-216 -275v-137h253v-140h-417v349q80 31 134 93t87.5 136t47 155t13.5 156q0 99 -23.5 199.5t-75 183t-131.5 134t-193 51.5 q-108 0 -187.5 -51.5t-131 -134t-76.5 -183t-25 -199.5q0 -75 13.5 -156t46 -155t85 -136t133.5 -93v-349h-418v140h253v137q-145 103 -211 268t-66 344z" />
<glyph unicode="&#x3c0;" d="M0 971v147h1118v-147h-253v-723q0 -63 42 -96.5t103 -33.5q34 0 55 4.5t39 15.5l31 -136q-49 -30 -147 -30q-54 0 -106 19t-92 53.5t-64.5 86t-24.5 117.5v723h-283q0 -477 -52 -971h-167q27 241 40.5 483t13.5 488h-253z" />
<glyph unicode="&#x401;" d="M59 0v1566h1001v-140h-837v-561h617v-140h-617v-585h837v-140h-1001zM223 1790v224h225v-224h-225zM671 1790v224h223v-224h-223z" />
<glyph unicode="&#x402;" d="M-164 1426v140h612v-140h-225v-588q119 307 424 307q413 0 413 -455v-442q0 -66 -22.5 -117.5t-59.5 -86t-86.5 -53.5t-103.5 -19q-100 0 -146 30l31 131q17 -11 38 -15.5t56 -4.5q127 0 127 135v442q0 150 -65 233t-210 83q-91 0 -165 -42t-125.5 -112.5t-78.5 -161 t-27 -188.5v-502h-164v1426h-223z" />
<glyph unicode="&#x403;" d="M59 0v1566h1059v-140h-895v-1426h-164zM290 1740l484 345l79 -131l-518 -292z" />
<glyph unicode="&#x404;" d="M-24 781q0 157 32.5 303.5t104 259.5t186 180.5t278.5 67.5q145 0 248 -51.5t153 -156.5v182h140v-514h-140q0 84 -32 157.5t-86 127.5t-127 84.5t-156 30.5q-115 0 -195.5 -50.5t-131.5 -133t-76.5 -188.5t-31.5 -215h698v-140h-698q3 -106 24 -208.5t67 -187.5 q25 -47 58 -86.5t75.5 -68.5t95 -45t115.5 -16q293 0 408 354l143 -57q-61 -200 -200 -320q-140 -118 -351 -118q-109 0 -196 31.5t-154 86t-114.5 130t-78 165.5t-44.5 190.5t-14 205.5z" />
<glyph unicode="&#x405;" d="M30 0v476h139q0 -80 37.5 -146.5t95 -114.5t132.5 -75t153 -27q69 0 128 19.5t103.5 56.5t70 89.5t25.5 119.5q0 76 -33 130t-88.5 92.5t-125 65.5t-141.5 53q-86 30 -171 63t-152 83.5t-109 123t-42 180.5q0 96 40.5 171t106.5 126.5t153.5 78.5t180.5 27 q114 0 210.5 -46.5t150.5 -142.5v163h145v-448h-145q0 71 -29.5 133t-80 105.5t-115 69.5t-136.5 26q-64 0 -121.5 -14.5t-100.5 -46t-69 -82t-26 -120.5q0 -61 30.5 -104t82 -76t119.5 -60t139 -55q89 -31 176.5 -69.5t157 -92.5t114 -132.5t44.5 -191.5q0 -98 -41 -178 t-109.5 -137.5t-157 -89t-184.5 -31.5q-132 0 -242.5 49.5t-175.5 145.5v-167h-139z" />
<glyph unicode="&#x406;" d="M223 0v140h253v1286h-253v140h671v-140h-252v-1286h252v-140h-671z" />
<glyph unicode="&#x407;" d="M223 0v140h253v1286h-253v140h671v-140h-252v-1286h252v-140h-671zM223 1787v224h225v-224h-225zM671 1787v224h223v-224h-223z" />
<glyph unicode="&#x408;" d="M-2 410l142 54q52 -194 154 -272.5t252 -78.5q110 0 179 44.5t106 113.5t50 154.5t13 172.5v968h166v-968q0 -298 -127 -462t-387 -164q-209 0 -350.5 110t-197.5 328z" />
<glyph unicode="&#x409;" d="M-167 -5l29 138q16 -11 35 -15.5t49 -4.5q113 0 113 135v1318h553v-672h89q193 0 300.5 -113t107.5 -338t-107.5 -334t-303.5 -109h-250v1426h-225v-1178q0 -66 -19 -117.5t-54 -86t-80.5 -53.5t-97.5 -19q-48 0 -80 5.5t-59 17.5zM612 140h91q111 0 175.5 76.5 t64.5 226.5q0 152 -64.5 232t-175.5 80h-91v-615z" />
<glyph unicode="&#x40a;" d="M59 0v1566h164v-672h225v672h164v-672h89q193 0 300.5 -113t107.5 -338t-107.5 -334t-303.5 -109h-250v755h-225v-755h-164zM612 140h91q111 0 175.5 76.5t64.5 226.5q0 152 -64.5 232t-175.5 80h-91v-615z" />
<glyph unicode="&#x40b;" d="M-164 1426v140h612v-140h-225v-588q119 307 424 307q413 0 413 -455v-690h-166v690q0 150 -65 233t-210 83q-91 0 -165 -42t-125.5 -112.5t-78.5 -161t-27 -188.5v-502h-164v1426h-223z" />
<glyph unicode="&#x40c;" d="M59 0v1566h164v-762l671 762h217l-614 -684l614 -882h-201l-521 767l-166 -185v-582h-164zM290 1740l484 345l79 -131l-518 -292z" />
<glyph unicode="&#x40e;" d="M-37 1566h194l403 -979l396 979h197l-605 -1402q-46 -117 -131.5 -154.5t-188.5 -37.5q-115 0 -230 42l32 143q56 -24 110 -34t88 -10q82 0 112.5 39.5t53.5 93.5l68 169zM218 1900l94 91q113 -113 248 -113q136 0 249 113l93 -91q-140 -139 -342 -139q-201 0 -342 139z " />
<glyph unicode="&#x40f;" d="M59 0v1566h164v-1426h671v1426h166v-1566h-418v-383h-166v383h-417z" />
<glyph unicode="&#x410;" d="M-71 0l521 1566h223l521 -1566h-176l-148 448h-619l-145 -448h-177zM298 593h525l-263 807z" />
<glyph unicode="&#x411;" d="M59 0v1566h1001v-140h-837v-532h354q256 0 397.5 -113t141.5 -338t-141.5 -334t-399.5 -109h-516zM223 140h354q171 0 273 76.5t102 226.5q0 152 -102 232t-273 80h-354v-615z" />
<glyph unicode="&#x412;" d="M59 0v1566h471q99 0 193.5 -16t169.5 -60.5t122 -123t47 -206.5q0 -243 -244 -332q298 -91 298 -380q0 -225 -145 -336.5t-413 -111.5h-499zM223 140h335q184 0 289 77.5t105 230.5q0 162 -105 235.5t-289 73.5h-335v-617zM223 894h307q68 0 132.5 10t116 39.5t85.5 81 t34 135.5q0 83 -35 136t-89 81t-119 38.5t-125 10.5h-307v-532z" />
<glyph unicode="&#x413;" d="M59 0v1566h1059v-140h-895v-1426h-164z" />
<glyph unicode="&#x414;" d="M0 140q68 59 121 127t89 180.5t54.5 287.5t18.5 445v386h611v-1426h224v-523h-147v383h-823v-383h-148v523zM197 140h533v1286h-282v-246q0 -212 -14 -374t-43.5 -287t-77.5 -217.5t-116 -161.5z" />
<glyph unicode="&#x415;" d="M59 0v1566h1001v-140h-837v-561h617v-140h-617v-585h837v-140h-1001z" />
<glyph unicode="&#x416;" d="M-76 0l383 884l-383 682h179l373 -696v696h166v-696l373 696h179l-383 -682l383 -884h-172l-314 742l-66 -120v-622h-166v622l-66 120l-314 -742h-172z" />
<glyph unicode="&#x417;" d="M32 455l160 21q14 -180 126 -272q110 -91 277 -91q71 0 133.5 24t109 66t73.5 100.5t27 128.5q0 96 -30 156.5t-88 95t-143 46.5t-196 12v140q81 0 157.5 13t136.5 45.5t97.5 86t37.5 133.5q0 132 -88 212t-227 80q-78 0 -150.5 -30t-122.5 -79q-48 -46 -80.5 -113 t-32.5 -158h-150v494h140v-182q29 58 73.5 98t97 64.5t110.5 35t115 10.5q101 0 188.5 -29t152 -84.5t101.5 -136t37 -182.5q0 -134 -79 -221.5t-228 -110.5q83 -12 146 -48t105.5 -89.5t64 -120t21.5 -138.5q0 -103 -42 -187.5t-112 -144.5t-162 -94t-193 -34 q-113 0 -211 31t-173 92t-122 151t-57 209z" />
<glyph unicode="&#x418;" d="M59 0v1566h164v-1264l605 1264h232v-1566h-166v1325l-631 -1325h-204z" />
<glyph unicode="&#x419;" d="M59 0v1566h164v-1264l605 1264h232v-1566h-166v1325l-631 -1325h-204zM218 1897l94 91q113 -113 248 -113q136 0 249 113l93 -91q-140 -139 -342 -139q-201 0 -342 139z" />
<glyph unicode="&#x41a;" d="M59 0v1566h164v-762l671 762h217l-614 -684l614 -882h-201l-521 767l-166 -185v-582h-164z" />
<glyph unicode="&#x41b;" d="M-30 2l32 131q17 -11 38 -15.5t56 -4.5q127 0 127 135v1318h837v-1566h-166v1426h-505v-1178q0 -66 -22.5 -117.5t-59.5 -86t-86 -53.5t-103 -19q-101 0 -148 30z" />
<glyph unicode="&#x41c;" d="M59 0v1566h213l286 -818l288 818h214v-1566h-166v1304l-277 -807h-118l-276 807v-1304h-164z" />
<glyph unicode="&#x41d;" d="M59 0v1566h164v-701h671v701h166v-1566h-166v725h-671v-725h-164z" />
<glyph unicode="&#x41e;" d="M-40 781q0 157 32 303.5t104.5 259.5t187 180.5t276.5 67.5t277 -67.5t185.5 -180.5t104 -259.5t33.5 -303.5t-32 -303.5t-103 -258t-185.5 -179.5t-279.5 -68q-164 0 -278.5 68t-186 179.5t-103.5 258t-32 303.5zM125 781q0 -117 19.5 -236.5t70 -215t134 -156 t211.5 -60.5t212 60.5t134 156t69.5 215t19.5 236.5q0 155 -29.5 279t-84.5 212t-136 134t-185 46q-128 0 -211.5 -60t-134 -157t-70 -216t-19.5 -238z" />
<glyph unicode="&#x41f;" d="M59 0v1566h1001v-1566h-166v1426h-671v-1426h-164z" />
<glyph unicode="&#x420;" d="M59 0v1566h516q258 0 399.5 -112t141.5 -336q0 -226 -141.5 -336.5t-397.5 -110.5h-354v-671h-164zM223 811h354q171 0 273 72.5t102 234.5t-102 235t-273 73h-354v-615z" />
<glyph unicode="&#x421;" d="M-24 781q0 157 32 303.5t104.5 259.5t186.5 180.5t278 67.5q145 0 248.5 -51.5t152.5 -156.5v182h140v-514h-140q0 83 -32 157t-86 128t-127.5 84.5t-155.5 30.5q-127 0 -210.5 -60t-134 -157t-71.5 -216t-21 -238q0 -117 21 -236.5t71.5 -214t134 -155t210.5 -60.5 q293 0 408 352l143 -57q-61 -201 -200.5 -317.5t-350.5 -116.5q-164 0 -278 66t-186.5 177.5t-104.5 258t-32 303.5z" />
<glyph unicode="&#x422;" d="M0 1037v529h1118v-529h-140v389h-336v-1286h252v-140h-671v140h253v1286h-336v-389h-140z" />
<glyph unicode="&#x423;" d="M-37 1566h194l403 -979l396 979h197l-605 -1402q-46 -117 -131.5 -154.5t-188.5 -37.5q-115 0 -230 42l32 143q56 -24 110 -34t88 -10q82 0 112.5 39.5t53.5 93.5l68 169z" />
<glyph unicode="&#x424;" d="M-24 786q0 119 35.5 219.5t102 178t158.5 125t204 63.5v194h166v-194q113 -12 206 -61.5t159.5 -125.5t103 -178t36.5 -221q0 -118 -36.5 -218.5t-103 -177t-159.5 -124.5t-206 -60v-206h-166v209q-112 12 -204 60t-158.5 123t-102 175.5t-35.5 218.5zM140 786 q0 -169 87 -288.5t249 -145.5v877q-80 -15 -143 -54.5t-105.5 -97t-65 -132.5t-22.5 -159zM642 352q162 26 251.5 145.5t89.5 288.5q0 84 -23.5 159t-66 134t-107 97t-144.5 53v-877z" />
<glyph unicode="&#x425;" d="M-28 0v140h153l339 648l-333 638h-131v140h448v-140h-131l243 -502l237 502h-126v140h447v-140h-135l-327 -638l336 -648h153v-140h-444v140h105l-246 514l-248 -514h106v-140h-446z" />
<glyph unicode="&#x426;" d="M59 0v1566h164v-1426h671v1426h166v-1426h206v-523h-148v383h-1059z" />
<glyph unicode="&#x427;" d="M59 875v691h164v-691q0 -150 65.5 -232.5t210.5 -82.5q91 0 164.5 42t125 112t78.5 161t27 189v502h166v-1566h-166v727q-118 -307 -422 -307q-413 0 -413 455z" />
<glyph unicode="&#x428;" d="M0 0v1566h164v-1426h312v1426h166v-1426h312v1426h164v-1566h-1118z" />
<glyph unicode="&#x429;" d="M0 0v1566h164v-1426h312v1426h166v-1426h312v1426h164v-1426h148v-523h-148v383h-1118z" />
<glyph unicode="&#x42a;" d="M0 1426v140h448v-672h213q216 0 335.5 -113t119.5 -338t-119.5 -334t-337.5 -109h-376v1426h-283zM448 140h216q133 0 210.5 76.5t77.5 226.5q0 152 -77.5 232t-210.5 80h-216v-615z" />
<glyph unicode="&#x42b;" d="M0 0v1566h164v-672h162q195 0 301.5 -113t106.5 -338t-106.5 -334t-303.5 -109h-324zM164 140h165q111 0 176 76.5t65 226.5q0 152 -65 232t-176 80h-165v-615zM954 0v1566h164v-1566h-164z" />
<glyph unicode="&#x42c;" d="M59 0v1566h164v-672h354q256 0 397.5 -113t141.5 -338t-141.5 -334t-399.5 -109h-516zM223 140h354q171 0 273 76.5t102 226.5q0 152 -102 232t-273 80h-354v-615z" />
<glyph unicode="&#x42d;" d="M-10 410l143 57q115 -354 408 -354q64 0 116 16t94.5 45t75.5 68.5t59 86.5q45 85 66 187.5t25 208.5h-699v140h699q-6 109 -32 215t-77 188.5t-131.5 133t-195.5 50.5q-83 0 -156 -30.5t-127 -84.5t-86 -127.5t-32 -157.5h-140v514h140v-182q51 105 153.5 156.5 t247.5 51.5q165 0 279.5 -67.5t186 -180.5t103.5 -259.5t32 -303.5q0 -105 -13.5 -205.5t-44 -190.5t-78 -165.5t-115 -130t-154.5 -86t-196 -31.5q-211 0 -350 118q-139 120 -201 320z" />
<glyph unicode="&#x42e;" d="M59 0v1566h164v-713h207q15 739 346 739q347 0 347 -811q0 -809 -347 -809q-331 0 -346 741h-207v-713h-164zM595 781q0 -147 7.5 -269.5t27 -211.5t55 -138t91.5 -49q57 0 93 49t55 138t27 211.5t8 269.5q0 148 -8 272t-27 212.5t-55 137.5t-93 49q-56 0 -91.5 -49 t-55 -137.5t-27 -212.5t-7.5 -272z" />
<glyph unicode="&#x42f;" d="M-14 0l471 678q-98 7 -181.5 40.5t-144 89t-95 134t-34.5 176.5q0 224 142 336t400 112h516v-1566h-166v671h-242l-458 -671h-208zM172 1118q0 -162 99.5 -234.5t272.5 -72.5h350v615h-350q-173 0 -272.5 -74t-99.5 -234z" />
<glyph unicode="&#x430;" d="M-2 302q0 106 52.5 177.5t138.5 113t197 60t226 18.5q44 0 79.5 -1.5t67.5 -3.5t64.5 -6t70.5 -8v80q0 82 -35.5 134.5t-87 83t-108 43.5t-95.5 13q-125 0 -230.5 -34t-197.5 -90l-74 124q101 61 226.5 100t275.5 39q91 0 179 -23.5t158.5 -72t112.5 -128t42 -189.5v-732 h-166v187q-43 -54 -97.5 -94.5t-114.5 -66.5t-120 -40t-114 -14q-222 0 -336 85.5t-114 244.5zM162 302q0 -70 69 -129.5t217 -59.5q103 0 185 30.5t139.5 76t89.5 97t32 93.5v106q-80 12 -154 13t-128 1q-89 0 -171 -12t-143.5 -39t-98.5 -70t-37 -107z" />
<glyph unicode="&#x431;" d="M0 781q0 180 38 329t107 255.5t163.5 166.5t209.5 60q54 0 91.5 -10.5t67 -25.5t56.5 -26t64 -11q49 0 83 17t84 56l85 -98q-52 -49 -121.5 -82t-130.5 -33q-47 0 -82 10.5t-64 25.5t-60 26t-73 11q-73 0 -137 -40t-112 -116.5t-75 -184.5t-27 -243q30 54 73 96t96 71 t113 43.5t119 14.5q117 0 218 -35.5t174.5 -105.5t115.5 -174.5t42 -244.5q0 -118 -42 -221t-115.5 -178t-174.5 -118.5t-218 -43.5q-282 0 -425 197t-143 612zM180 533q0 -191 103 -305.5t285 -114.5q84 0 155 29.5t123 85t80 133t28 172.5q0 192 -101 306.5t-285 114.5 q-200 0 -294 -114.5t-94 -306.5z" />
<glyph unicode="&#x432;" d="M59 0v1118h558q81 0 161 -12.5t142.5 -44t102 -88t39.5 -147.5q0 -87 -42 -145.5t-164 -90.5q150 -34 205 -102t55 -169q0 -162 -119.5 -240.5t-342.5 -78.5h-595zM223 140h429q139 0 219.5 47t80.5 139q0 99 -80.5 144.5t-219.5 45.5h-429v-376zM223 656h394 q49 0 99.5 6t91 25t65.5 49.5t25 79.5q0 52 -28 83.5t-68 49t-89 23.5t-96 6h-394v-322z" />
<glyph unicode="&#x433;" d="M59 0v1118h1059v-140h-895v-978h-164z" />
<glyph unicode="&#x434;" d="M0 140q56 12 108 65t90 146.5t61.5 227.5t23.5 308v231h611v-978h224v-523h-147v383h-823v-383h-148v523zM223 140h507v838h-282v-91q0 -139 -20 -261t-52 -218t-72.5 -165t-80.5 -103z" />
<glyph unicode="&#x435;" d="M-5 558q0 127 39 234.5t113 186t179.5 122.5t236.5 44q143 0 249.5 -48t178 -132.5t105.5 -202.5t34 -260h-966q18 -178 130 -283.5t290 -105.5q126 0 224.5 51.5t147.5 128.5l116 -79q-84 -118 -200.5 -180t-287.5 -62q-129 0 -237 43.5t-186.5 121t-122 184 t-43.5 237.5zM167 642h789q-27 184 -132.5 274t-260.5 90q-79 0 -146.5 -26t-119 -74t-86.5 -116t-44 -148z" />
<glyph unicode="&#x436;" d="M-19 0l343 629l-343 489h183l312 -471v471h166v-471l312 471h184l-344 -489l344 -629h-177l-260 502l-59 -87v-415h-166v415l-58 87l-261 -502h-176z" />
<glyph unicode="&#x437;" d="M-2 211l115 79q56 -86 154.5 -131.5t246.5 -45.5q176 0 286 54t110 150q0 32 -21 65t-62 59t-101 42t-142 16h-187v139h187q158 0 234 56t76 117q0 89 -98 142t-268 53q-142 0 -234 -50.5t-142 -134.5l-122 84q73 120 193.5 180t304.5 60q116 0 213 -23.5t168 -66 t111 -105.5t40 -139q0 -81 -57 -152.5t-175 -90.5q110 -22 178 -93.5t68 -157.5q0 -81 -43 -145t-118 -108.5t-177 -68t-222 -23.5q-192 0 -316.5 59.5t-199.5 179.5z" />
<glyph unicode="&#x438;" d="M59 0v1118h164v-902l605 902h232v-1118h-166v943l-631 -943h-204z" />
<glyph unicode="&#x439;" d="M59 0v1118h164v-902l605 902h232v-1118h-166v943l-631 -943h-204zM218 1452l94 91q113 -113 248 -113q136 0 249 113l93 -91q-140 -139 -342 -139q-201 0 -342 139z" />
<glyph unicode="&#x43a;" d="M59 0v1118h164v-602l637 602h236l-561 -513l581 -605h-234l-457 502l-202 -185v-317h-164z" />
<glyph unicode="&#x43b;" d="M-30 2l32 131q17 -11 38 -15.5t56 -4.5q127 0 127 135v870h837v-1118h-166v978h-505v-730q0 -66 -22.5 -117.5t-59.5 -86t-86 -53.5t-103 -19q-101 0 -148 30z" />
<glyph unicode="&#x43c;" d="M59 0v1118h213l288 -583l286 583h214v-1118h-166v887l-275 -580h-117l-279 580v-887h-164z" />
<glyph unicode="&#x43d;" d="M59 0v1118h164v-476h671v476h166v-1118h-166v502h-671v-502h-164z" />
<glyph unicode="&#x43e;" d="M-24 556q0 127 41.5 236.5t119 187t185.5 121.5t238 44q134 0 242 -44t185 -121.5t118.5 -187t41.5 -236.5q0 -131 -41.5 -238t-118.5 -183t-185 -119.5t-242 -43.5q-130 0 -238 43.5t-185.5 119.5t-119 183t-41.5 238zM140 556q0 -96 28.5 -177t82.5 -140t132.5 -92.5 t176.5 -33.5q99 0 177.5 33.5t133.5 92.5t83.5 140t28.5 177t-28.5 177t-83.5 142t-133.5 96t-177.5 35q-98 0 -176.5 -35t-132.5 -96t-82.5 -142t-28.5 -177z" />
<glyph unicode="&#x43f;" d="M59 0v1118h1001v-1118h-166v978h-671v-978h-164z" />
<glyph unicode="&#x440;" d="M59 -448v1566h164v-103q153 130 328 130q129 0 233.5 -42.5t178.5 -121.5t114.5 -187.5t40.5 -235.5q0 -131 -40.5 -237.5t-114.5 -184t-178.5 -121t-233.5 -43.5q-89 0 -172.5 32.5t-155.5 96.5v-549h-164zM223 258q72 -78 153 -111.5t175 -33.5q98 0 173 34.5 t126.5 94.5t77.5 141t26 175t-26 176t-77.5 142t-126.5 95t-173 35q-94 0 -175 -35t-153 -113v-600z" />
<glyph unicode="&#x441;" d="M0 558q0 127 39.5 235.5t113 186t179.5 121.5t236 44q51 0 105 -12t102 -36.5t86.5 -59t57.5 -81.5v162h148v-447h-148q0 74 -27 135.5t-73.5 105.5t-111.5 69t-139 25q-101 0 -176 -35t-125.5 -95t-76.5 -141t-26 -177t29.5 -177t85.5 -140t134.5 -93.5t176.5 -34.5 q125 0 222.5 48t148.5 129l115 -79q-70 -110 -193 -174.5t-293 -64.5q-130 0 -239.5 43.5t-187 121t-120.5 184t-43 237.5z" />
<glyph unicode="&#x442;" d="M0 590v528h1118v-528h-140v388h-336v-838h252v-140h-671v140h253v838h-336v-388h-140z" />
<glyph unicode="&#x443;" d="M-37 1118h194l403 -978l396 978h197l-605 -1401q-46 -118 -131.5 -154.5t-188.5 -36.5q-115 0 -230 42l32 142q56 -24 110 -34.5t88 -10.5q82 0 112.5 39.5t53.5 93.5l68 170z" />
<glyph unicode="&#x444;" d="M-35 558q0 282 85.5 434.5t256.5 152.5q106 0 169 -103v524h166v-524q64 103 169 103q172 0 257 -152.5t85 -434.5q0 -283 -85 -434.5t-257 -151.5q-105 0 -169 104v-524h-166v524q-63 -104 -169 -104q-171 0 -256.5 151.5t-85.5 434.5zM131 558q0 -241 43.5 -343 t132.5 -102q101 0 169 113v666q-68 114 -169 114q-89 0 -132.5 -103.5t-43.5 -344.5zM642 226q68 -113 169 -113q89 0 133 102t44 343t-44 344.5t-133 103.5q-101 0 -169 -114v-666z" />
<glyph unicode="&#x445;" d="M-24 0v145h174l307 423l-295 403h-162v147h460v-147h-104l204 -305l207 305h-113v147h464v-147h-157l-295 -403l307 -423h172v-145h-462v145h98l-221 324l-218 -324h90v-145h-456z" />
<glyph unicode="&#x446;" d="M59 0v1118h164v-978h671v978h166v-973h206v-528h-148v383h-1059z" />
<glyph unicode="&#x447;" d="M59 762v356h164v-356q0 -150 65.5 -232t210.5 -82q91 0 164.5 41t125 111.5t78.5 161.5t27 190v166h166v-1118h-166v614q-118 -307 -422 -307q-413 0 -413 455z" />
<glyph unicode="&#x448;" d="M0 0v1118h164v-978h312v978h166v-978h312v978h164v-1118h-1118z" />
<glyph unicode="&#x449;" d="M0 0v1118h164v-978h312v978h166v-978h312v978h164v-973h148v-528h-148v383h-1118z" />
<glyph unicode="&#x44a;" d="M0 978v140h448v-447h265q194 0 298.5 -80t104.5 -254q0 -175 -104.5 -256t-296.5 -81h-432v978h-283zM448 140h267q111 0 174 52t63 145t-63 143t-174 50h-267v-390z" />
<glyph unicode="&#x44b;" d="M0 0v1118h164v-447h192q185 0 281.5 -80t96.5 -254q0 -175 -96.5 -256t-278.5 -81h-359zM164 140h195q101 0 156 52t55 145t-55 143t-156 50h-195v-390zM954 0v1118h164v-1118h-164z" />
<glyph unicode="&#x44c;" d="M59 0v1118h164v-447h429q223 0 343.5 -80t120.5 -254q0 -175 -119.5 -256t-342.5 -81h-595zM223 140h429q139 0 219.5 52t80.5 145t-80.5 143t-219.5 50h-429v-390z" />
<glyph unicode="&#x44d;" d="M42 211l115 79q52 -81 149 -129t222 -48q185 0 295.5 109t128.5 280h-617v140h611q-24 160 -132 262t-286 102q-125 0 -222 -49.5t-149 -130.5l-115 79q71 110 194 175t292 65q131 0 240 -42.5t186.5 -120t120.5 -186t43 -238.5q0 -131 -43 -237.5t-120.5 -184 t-186.5 -121t-240 -43.5q-169 0 -292 64.5t-194 174.5z" />
<glyph unicode="&#x44e;" d="M59 0v1118h164v-489h227q22 516 334 516q334 0 334 -587q0 -586 -334 -586q-317 0 -334 518h-227v-490h-164zM614 558q0 -452 170 -452t170 452q0 450 -170 450t-170 -450z" />
<glyph unicode="&#x44f;" d="M-14 0l429 448q-199 9 -306 89t-107 244q0 175 119.5 256t342.5 81h596v-1118h-166v448h-268l-408 -448h-232zM167 781q0 -93 79.5 -143.5t220.5 -50.5h427v391h-427q-141 0 -220.5 -51.5t-79.5 -145.5z" />
<glyph unicode="&#x451;" d="M-5 558q0 127 39 234.5t113 186t179.5 122.5t236.5 44q143 0 249.5 -48t178 -132.5t105.5 -202.5t34 -260h-966q18 -178 130 -283.5t290 -105.5q126 0 224.5 51.5t147.5 128.5l116 -79q-84 -118 -200.5 -180t-287.5 -62q-129 0 -237 43.5t-186.5 121t-122 184 t-43.5 237.5zM167 642h789q-27 184 -132.5 274t-260.5 90q-79 0 -146.5 -26t-119 -74t-86.5 -116t-44 -148zM223 1342v224h225v-224h-225zM671 1342v224h223v-224h-223z" />
<glyph unicode="&#x452;" d="M-136 1201v141h195v224h164v-224h225v-141h-225v-363q119 307 424 307q413 0 413 -455v-889q0 -66 -22.5 -117.5t-59.5 -86.5t-86.5 -53t-103.5 -18q-100 0 -146 29l31 131q17 -10 38 -15.5t56 -5.5q127 0 127 136v889q0 150 -65 233t-210 83q-91 0 -165 -42 t-125.5 -112.5t-78.5 -161t-27 -188.5v-502h-164v1201h-195z" />
<glyph unicode="&#x453;" d="M59 0v1118h1059v-140h-895v-978h-164zM290 1292l484 345l79 -131l-518 -292z" />
<glyph unicode="&#x454;" d="M0 558q0 130 43 238.5t120.5 186t187 120t239.5 42.5q170 0 293 -65t193 -175l-115 -79q-51 81 -148.5 130.5t-222.5 49.5q-177 0 -286.5 -102t-134.5 -262h622v-140h-624q18 -171 128.5 -280t294.5 -109q125 0 222.5 48t148.5 129l115 -79q-70 -110 -193 -174.5 t-293 -64.5q-130 0 -239.5 43.5t-187 121t-120.5 184t-43 237.5z" />
<glyph unicode="&#x455;" d="M-12 133l73 142q124 -78 244 -120t248 -42q371 0 371 192q0 47 -30.5 76t-82 48t-118.5 29.5t-140 20.5q-93 13 -185.5 31t-169 54t-122.5 96t-46 158q0 84 42.5 145.5t114 102t167.5 60t199 19.5q148 0 264.5 -34.5t209.5 -97.5l-66 -129q-96 68 -194.5 95t-213.5 27 q-51 0 -114 -9t-117 -31.5t-91 -58t-37 -89.5q0 -46 31 -74.5t82.5 -47t118 -29.5t139.5 -20q91 -13 184 -31t169.5 -53t123 -95t46.5 -158q0 -99 -49 -163.5t-126.5 -103t-173 -55t-186.5 -16.5q-152 0 -303.5 44.5t-261.5 116.5z" />
<glyph unicode="&#x456;" d="M223 0v140h253v838h-253v140h419v-978h252v-140h-671zM448 1342v224h223v-224h-223z" />
<glyph unicode="&#x457;" d="M223 0v140h253v833h-253v145h419v-978h252v-140h-671zM223 1342v224h225v-224h-225zM671 1342v224h223v-224h-223z" />
<glyph unicode="&#x458;" d="M5 -232l126 87q43 -91 113 -140.5t174 -49.5q81 0 136.5 23.5t87 66.5t45.5 104.5t14 140.5v978h-253v140h417v-1118q0 -216 -113.5 -345t-333.5 -129q-296 0 -413 242zM671 1342v224h223v-224h-223z" />
<glyph unicode="&#x459;" d="M-167 -5l29 138q16 -11 35 -15.5t49 -4.5q113 0 113 135v870h553v-447h143q183 0 280.5 -80t97.5 -254q0 -175 -97.5 -256t-278.5 -81h-309v978h-225v-730q0 -66 -19 -117.5t-54 -86t-80.5 -53.5t-97.5 -19q-48 0 -80 5.5t-59 17.5zM612 140h145q101 0 156 52t55 145 t-55 143t-156 50h-145v-390z" />
<glyph unicode="&#x45a;" d="M59 0v1118h164v-447h225v447h164v-447h143q183 0 280.5 -80t97.5 -254q0 -175 -97.5 -256t-278.5 -81h-309v530h-225v-530h-164zM612 140h145q101 0 156 52t55 145t-55 143t-156 50h-145v-390z" />
<glyph unicode="&#x45b;" d="M-136 1201v141h195v224h164v-224h225v-141h-225v-363q119 307 424 307q413 0 413 -455v-690h-166v690q0 150 -65 233t-210 83q-91 0 -165 -42t-125.5 -112.5t-78.5 -161t-27 -188.5v-502h-164v1201h-195z" />
<glyph unicode="&#x45c;" d="M59 0v1118h164v-602l637 602h236l-561 -513l581 -605h-234l-457 502l-202 -185v-317h-164zM290 1292l484 345l79 -131l-518 -292z" />
<glyph unicode="&#x45e;" d="M-37 1118h194l403 -978l396 978h197l-605 -1401q-46 -118 -131.5 -154.5t-188.5 -36.5q-115 0 -230 42l32 142q56 -24 110 -34.5t88 -10.5q82 0 112.5 39.5t53.5 93.5l68 170zM218 1452l94 91q113 -113 248 -113q136 0 249 113l93 -91q-140 -139 -342 -139 q-201 0 -342 139z" />
<glyph unicode="&#x45f;" d="M59 0v1118h164v-978h671v978h166v-1118h-418v-383h-166v383h-417z" />
<glyph unicode="&#x490;" d="M59 0v1566h919v223h140v-363h-895v-1426h-164z" />
<glyph unicode="&#x491;" d="M59 0v1118h919v224h140v-364h-895v-978h-164z" />
<glyph unicode="&#x1e02;" d="M59 0v1566h471q99 0 193.5 -16t169.5 -60.5t122 -123t47 -206.5q0 -243 -244 -332q298 -91 298 -380q0 -225 -145 -336.5t-413 -111.5h-499zM223 140h335q184 0 289 77.5t105 230.5q0 162 -105 235.5t-289 73.5h-335v-617zM223 894h307q68 0 132.5 10t116 39.5t85.5 81 t34 135.5q0 83 -35 136t-89 81t-119 38.5t-125 10.5h-307v-532zM448 1790v224h223v-224h-223z" />
<glyph unicode="&#x1e03;" d="M59 0v1566h164v-551q72 61 155.5 95.5t174.5 34.5q130 0 234.5 -44t178 -121.5t113 -186t39.5 -235.5q0 -128 -39.5 -236t-113 -185.5t-178 -121t-234.5 -43.5q-91 0 -174.5 32.5t-155.5 96.5v-101h-164zM223 258q72 -78 154.5 -111.5t175.5 -33.5q99 0 172.5 34.5 t124 94.5t76.5 141t26 175q0 96 -25 177t-75 141t-125 95t-174 35q-189 0 -330 -150v-598zM448 1790v224h223v-224h-223z" />
<glyph unicode="&#x1e0a;" d="M59 0v1566h509q159 0 273.5 -64t187.5 -172t107 -250t34 -299t-33 -299t-105.5 -249.5t-187 -170t-276.5 -62.5h-509zM223 140h345q206 0 322 167t116 474t-116 476t-322 169h-345v-1286zM448 1790v224h223v-224h-223z" />
<glyph unicode="&#x1e0b;" d="M-2 558q0 127 39 235.5t111.5 186t178 121.5t238.5 44q89 0 173.5 -32t155.5 -95v408h-223v140h389v-1566h-166v103q-71 -63 -155.5 -97t-173.5 -34q-133 0 -238.5 43.5t-178 121t-111.5 185.5t-39 236zM162 558q0 -96 26 -177t76 -141t125 -95t174 -35q189 0 331 150 v598q-71 78 -154.5 113t-176.5 35q-99 0 -174 -35t-125 -95t-76 -141t-26 -177zM448 1790v224h223v-224h-223z" />
<glyph unicode="&#x1e1e;" d="M59 0v1566h1001v-140h-837v-561h617v-140h-617v-725h-164zM448 1790v224h223v-224h-223z" />
<glyph unicode="&#x1e1f;" d="M223 0v140h253v838h-253v140h253q0 231 119.5 352.5t360.5 121.5q57 0 96 -3.5t66 -8.5v-140q-34 5 -72 8.5t-90 3.5q-157 0 -235.5 -80t-78.5 -254h476v-140h-476v-838h252v-140h-671zM448 1790v224h223v-224h-223z" />
<glyph unicode="&#x1e40;" d="M59 0v1566h213l286 -818l288 818h214v-1566h-166v1304l-277 -807h-118l-276 807v-1304h-164zM448 1790v224h223v-224h-223z" />
<glyph unicode="&#x1e41;" d="M0 0v1118h164v-162q52 189 225 189q164 0 223 -165q82 165 230 165q143 0 209.5 -84.5t66.5 -256.5v-804h-164v804q0 96 -33.5 149t-97.5 53q-93 0 -137 -98.5t-44 -276.5v-631h-166v804q0 96 -34 149t-98 53q-58 0 -93 -35t-55 -89t-26 -120t-6 -131v-631h-164z M448 1342v224h223v-224h-223z" />
<glyph unicode="&#x1e56;" d="M59 0v1566h516q258 0 399.5 -112t141.5 -336q0 -226 -141.5 -336.5t-397.5 -110.5h-354v-671h-164zM223 811h354q171 0 273 72.5t102 234.5t-102 235t-273 73h-354v-615zM448 1790v224h223v-224h-223z" />
<glyph unicode="&#x1e57;" d="M59 -448v1566h164v-103q153 130 328 130q129 0 233.5 -42.5t178.5 -121.5t114.5 -187.5t40.5 -235.5q0 -131 -40.5 -237.5t-114.5 -184t-178.5 -121t-233.5 -43.5q-89 0 -172.5 32.5t-155.5 96.5v-549h-164zM223 258q72 -78 153 -111.5t175 -33.5q98 0 173 34.5 t126.5 94.5t77.5 141t26 175t-26 176t-77.5 142t-126.5 95t-173 35q-94 0 -175 -35t-153 -113v-600zM448 1342v224h223v-224h-223z" />
<glyph unicode="&#x1e60;" d="M30 0v476h139q0 -80 37.5 -146.5t95 -114.5t132.5 -75t153 -27q69 0 128 19.5t103.5 56.5t70 89.5t25.5 119.5q0 76 -33 130t-88.5 92.5t-125 65.5t-141.5 53q-86 30 -171 63t-152 83.5t-109 123t-42 180.5q0 96 40.5 171t106.5 126.5t153.5 78.5t180.5 27 q114 0 210.5 -46.5t150.5 -142.5v163h145v-448h-145q0 71 -29.5 133t-80 105.5t-115 69.5t-136.5 26q-64 0 -121.5 -14.5t-100.5 -46t-69 -82t-26 -120.5q0 -61 30.5 -104t82 -76t119.5 -60t139 -55q89 -31 176.5 -69.5t157 -92.5t114 -132.5t44.5 -191.5q0 -98 -41 -178 t-109.5 -137.5t-157 -89t-184.5 -31.5q-132 0 -242.5 49.5t-175.5 145.5v-167h-139zM448 1790v224h223v-224h-223z" />
<glyph unicode="&#x1e61;" d="M-12 133l73 142q124 -78 244 -120t248 -42q371 0 371 192q0 47 -30.5 76t-82 48t-118.5 29.5t-140 20.5q-93 13 -185.5 31t-169 54t-122.5 96t-46 158q0 84 42.5 145.5t114 102t167.5 60t199 19.5q148 0 264.5 -34.5t209.5 -97.5l-66 -129q-96 68 -194.5 95t-213.5 27 q-51 0 -114 -9t-117 -31.5t-91 -58t-37 -89.5q0 -46 31 -74.5t82.5 -47t118 -29.5t139.5 -20q91 -13 184 -31t169.5 -53t123 -95t46.5 -158q0 -99 -49 -163.5t-126.5 -103t-173 -55t-186.5 -16.5q-152 0 -303.5 44.5t-261.5 116.5zM448 1342v224h223v-224h-223z" />
<glyph unicode="&#x1e6a;" d="M0 1037v529h1118v-529h-140v389h-336v-1286h252v-140h-671v140h253v1286h-336v-389h-140zM448 1790v224h223v-224h-223z" />
<glyph unicode="&#x1e6b;" d="M0 978v140h253v448h165v-448h476v-140h-476v-568q0 -61 19.5 -115t55 -94.5t86 -64t115.5 -23.5q122 0 204 76t94 197l138 -30q-19 -176 -138.5 -280t-297.5 -104q-99 0 -180.5 32.5t-139 90t-89.5 138.5t-32 177v568h-253zM448 1790v224h223v-224h-223z" />
<glyph unicode="&#x1e80;" d="M-76 1566h174l221 -1289l157 841h162l159 -841l221 1289h176l-282 -1566h-194l-160 764l-162 -764h-192zM275 1958l79 131l486 -345l-49 -78z" />
<glyph unicode="&#x1e81;" d="M-32 1118h175l162 -895l174 895h163l179 -895l162 895h173l-227 -1118h-192l-179 821l-169 -821h-192zM275 1511l79 131l486 -345l-49 -78z" />
<glyph unicode="&#x1e82;" d="M-76 1566h174l221 -1289l157 841h162l159 -841l221 1289h176l-282 -1566h-194l-160 764l-162 -764h-192zM290 1740l484 345l79 -131l-518 -292z" />
<glyph unicode="&#x1e83;" d="M-32 1118h175l162 -895l174 895h163l179 -895l162 895h173l-227 -1118h-192l-179 821l-169 -821h-192zM290 1292l484 345l79 -131l-518 -292z" />
<glyph unicode="&#x1e84;" d="M-76 1566h174l221 -1289l157 841h162l159 -841l221 1289h176l-282 -1566h-194l-160 764l-162 -764h-192zM223 1790v224h225v-224h-225zM671 1790v224h223v-224h-223z" />
<glyph unicode="&#x1e85;" d="M-32 1118h175l162 -895l174 895h163l179 -895l162 895h173l-227 -1118h-192l-179 821l-169 -821h-192zM223 1342v224h225v-224h-225zM671 1342v224h223v-224h-223z" />
<glyph unicode="&#x1ef2;" d="M-24 1426v140h442v-140h-130l272 -591l270 591h-129v140h441v-140h-127l-373 -750v-536h252v-140h-671v140h253v536l-373 750h-127zM275 1958l79 131l486 -345l-49 -78z" />
<glyph unicode="&#x1ef3;" d="M-37 1118h194l403 -978l396 978h197l-605 -1401q-46 -118 -131.5 -154.5t-188.5 -36.5q-115 0 -230 42l32 142q56 -24 110 -34.5t88 -10.5q82 0 112.5 39.5t53.5 93.5l68 170zM275 1511l79 131l486 -345l-49 -78z" />
<glyph unicode="&#x2000;" horiz-adv-x="1112" />
<glyph unicode="&#x2001;" horiz-adv-x="2225" />
<glyph unicode="&#x2002;" horiz-adv-x="1112" />
<glyph unicode="&#x2003;" horiz-adv-x="2225" />
<glyph unicode="&#x2004;" horiz-adv-x="741" />
<glyph unicode="&#x2005;" horiz-adv-x="556" />
<glyph unicode="&#x2006;" horiz-adv-x="370" />
<glyph unicode="&#x2007;" horiz-adv-x="370" />
<glyph unicode="&#x2008;" horiz-adv-x="278" />
<glyph unicode="&#x2009;" horiz-adv-x="445" />
<glyph unicode="&#x200a;" horiz-adv-x="123" />
<glyph unicode="&#x2010;" d="M0 504v140h1118v-140h-1118z" />
<glyph unicode="&#x2011;" d="M0 504v140h1118v-140h-1118z" />
<glyph unicode="&#x2012;" d="M0 504v140h1118v-140h-1118z" />
<glyph unicode="&#x2013;" d="M0 509v129h1118v-129h-1118z" />
<glyph unicode="&#x2014;" d="M-110 509v129h1341v-129h-1341z" />
<glyph unicode="&#x2015;" d="M0 504v140h1118v-140h-1118z" />
<glyph unicode="&#x2018;" d="M511 894v262q0 82 24.5 156t72.5 129t119.5 89t166.5 34v-141q-242 0 -242 -267v-38h242v-224h-383z" />
<glyph unicode="&#x2019;" d="M223 898v139q244 0 244 267v38h-244v224h384v-262q0 -82 -24.5 -156t-72.5 -129t-119.5 -88t-167.5 -33z" />
<glyph unicode="&#x201a;" d="M670 0v224h384v-261q0 -83 -25 -157t-73 -129t-119 -88t-167 -33v139q243 0 243 268v37h-243z" />
<glyph unicode="&#x201c;" d="M66 894v262q0 82 23.5 156t71.5 129t119.5 89t167.5 34v-141q-242 0 -242 -267v-38h242v-224h-382zM734 894v262q0 82 25 156t73 129t119 89t167 34v-141q-243 0 -243 -267v-38h243v-224h-384z" />
<glyph unicode="&#x201d;" d="M0 898v139q244 0 244 267v38h-244v224h383v-262q0 -82 -24 -156t-72 -129t-119.5 -88t-167.5 -33zM671 898v139q241 0 241 267v38h-241v224h381v-262q0 -82 -23 -156t-71 -129t-119.5 -88t-167.5 -33z" />
<glyph unicode="&#x201e;" d="M0 0v224h383v-261q0 -83 -24 -157t-72 -129t-119.5 -88t-167.5 -33v139q244 0 244 268v37h-244zM671 0v224h381v-261q0 -83 -23 -157t-71 -129t-119.5 -88t-167.5 -33v139q241 0 241 268v37h-241z" />
<glyph unicode="&#x2020;" d="M223 1163v134l286 -17l-17 286h132l-14 -286l284 17v-134l-284 17l14 -732h-132l17 732z" />
<glyph unicode="&#x2021;" d="M223 494v132l286 -14v568l-286 -17v134l286 -17l-17 286h132l-14 -286l284 17v-134l-284 17v-568l284 14v-132l-284 17l14 -288h-132l17 288z" />
<glyph unicode="&#x2022;" d="M223 671q0 91 36 173t96 142t141 96t175 36q91 0 173 -36t142 -96t96 -142t36 -173q0 -94 -36 -175t-96 -141t-142 -96t-173 -36q-94 0 -175 36t-141 96t-96 141t-36 175z" />
<glyph unicode="&#x2026;" d="M0 0v223h223v-223h-223zM448 0v223h223v-223h-223zM894 0v223h224v-223h-224z" />
<glyph unicode="&#x202f;" horiz-adv-x="445" />
<glyph unicode="&#x2030;" d="M-24 1290q0 126 59 214t181 88q124 0 182.5 -88t58.5 -214q0 -125 -58.5 -213.5t-182.5 -88.5q-122 0 -181 88.5t-59 213.5zM-7 5l687 1578l117 -52l-682 -1575zM96 1290q0 -76 29.5 -127.5t88.5 -51.5q61 0 89 51.5t28 127.5q0 77 -28 128.5t-89 51.5q-59 0 -88.5 -51.5 t-29.5 -128.5zM352 275q0 126 58.5 214t182.5 88q122 0 181 -88t59 -214q0 -125 -59 -214t-181 -89q-124 0 -182.5 89t-58.5 214zM472 275q0 -76 29 -127.5t89 -51.5q62 0 90 51.5t28 127.5q0 77 -28 128.5t-90 51.5q-60 0 -89 -51.5t-29 -128.5zM858 275q0 126 59 214 t181 88q124 0 182.5 -88t58.5 -214q0 -125 -58.5 -214t-182.5 -89q-122 0 -181 89t-59 214zM978 275q0 -76 29.5 -127.5t88.5 -51.5q62 0 90 51.5t28 127.5q0 77 -28 128.5t-90 51.5q-59 0 -88.5 -51.5t-29.5 -128.5z" />
<glyph unicode="&#x2039;" d="M239 572l392 396l94 -96l-298 -300l298 -297l-94 -95z" />
<glyph unicode="&#x203a;" d="M394 272l296 300l-296 300l96 94l390 -394l-390 -392z" />
<glyph unicode="&#x2044;" d="M2 40l1006 1562l110 -76l-1003 -1558z" />
<glyph unicode="&#x205f;" horiz-adv-x="556" />
<glyph unicode="&#x20ac;" d="M0 535v136h185q-3 27 -3 55.5v54.5v57.5t3 55.5h-185v136h199q17 117 53 219t93.5 178.5t140 120.5t190.5 44q166 0 278.5 -105.5t173.5 -330.5l-145 -38q-34 148 -113 241t-190 93q-120 0 -202 -105.5t-114 -316.5h307v-136h-322q-2 -26 -2 -54.5v-58.5v-56t2 -54h322 v-136h-307q30 -213 113 -317.5t203 -104.5q111 0 190 94.5t113 242.5l145 -40q-61 -225 -173.5 -331.5t-278.5 -106.5q-108 0 -190.5 44.5t-140 119.5t-94.5 178.5t-54 220.5h-197z" />
<glyph unicode="&#x2122;" d="M0 1430v136h558v-136h-211v-536h-136v536h-211zM673 894v672h190l145 -394l145 394h189v-672h-132v473l-155 -401h-94l-155 401v-473h-133z" />
<glyph unicode="&#x2202;" d="M-24 425q0 126 69.5 223t191.5 170.5t285 123.5t350 80q-93 150 -251.5 254.5t-357.5 175.5l54 140q162 -63 312 -145.5t263.5 -195.5t180.5 -262t67 -345q0 -154 -42.5 -278.5t-124 -212t-197 -134.5t-260.5 -47q-246 0 -393 116t-147 337zM140 425q0 -139 101 -225.5 t275 -86.5q110 0 195.5 38.5t144 108t89.5 168t31 216.5q0 66 -10 126t-30 117q-174 -19 -320.5 -61t-252 -101t-164.5 -134t-59 -166z" />
<glyph unicode="&#x2206;" d="M-71 0l521 1566h223l521 -1566h-1265zM150 140h821l-411 1258z" />
<glyph unicode="&#x220f;" d="M0 1426v140h1118v-140h-224v-1426h-164v1426h-341v-1426h-166v1426h-223z" />
<glyph unicode="&#x2211;" d="M52 0v140l393 644l-393 642v140h1008v-529h-146v389h-666l390 -642l-390 -644h666v390h146v-530h-1008z" />
<glyph unicode="&#x221a;" d="M28 870l127 40l199 -713l324 1145h440v-132h-342l-361 -1210h-125z" />
<glyph unicode="&#x221e;" d="M-10 558q0 61 22.5 115.5t60 93.5t89.5 61.5t113 22.5q93 0 160 -42t130 -150q64 108 134 150t157 42q58 0 110 -22.5t91 -61.5t61 -93.5t22 -115.5t-21 -115t-59 -93.5t-90.5 -62.5t-113.5 -23q-87 0 -157 40t-134 148q-63 -105 -130 -146.5t-160 -41.5q-59 0 -110.5 23 t-90.5 62.5t-61.5 93.5t-22.5 115zM98 558q0 -78 49.5 -134.5t124.5 -56.5q155 0 242 191q-84 187 -242 187q-70 0 -122 -52.5t-52 -134.5zM617 558q89 -191 241 -191q71 0 121.5 56.5t52.5 134.5q0 86 -51.5 136.5t-122.5 50.5q-152 0 -241 -187z" />
<glyph unicode="&#x222b;" d="M5 -326q35 -5 70 -7t89 -2q153 0 232.5 72.5t79.5 243.5v1599q0 458 483 458q36 0 76.5 -4t82.5 -8v-136q-34 5 -72 6t-87 1q-155 0 -236 -72.5t-81 -244.5v-1599q0 -455 -478 -455q-37 0 -77 2.5t-82 7.5v138z" />
<glyph unicode="&#x2248;" d="M-24 253q137 237 373 237q89 0 143 -28.5t95.5 -61.5t82 -60.5t99.5 -27.5q155 0 253 173l120 -72q-136 -240 -373 -240q-89 0 -141.5 27t-94 60t-82.5 60t-102 27q-155 0 -253 -165zM-24 703q137 237 373 237q89 0 143 -28.5t95.5 -62t82 -60.5t99.5 -27q155 0 253 173 l120 -72q-136 -240 -373 -240q-89 0 -141.5 27t-94 60t-82.5 60t-102 27q-155 0 -253 -165z" />
<glyph unicode="&#x2260;" d="M0 224v135h396l194 403h-590v133h654l108 223h132l-108 -223h332v-133h-396l-194 -403h590v-135h-654l-108 -224h-133l108 224h-331z" />
<glyph unicode="&#x2264;" d="M223 -88h895v-135h-895v135zM239 574l614 614l93 -94l-519 -520l519 -520l-93 -92z" />
<glyph unicode="&#x2265;" d="M223 -88h895v-135h-895v135zM396 54l518 520l-518 520l94 94l614 -614l-614 -612z" />
<glyph unicode="&#x25ca;" d="M-22 560l580 582l582 -582l-582 -579zM133 560l425 -424l425 424l-425 425z" />
<glyph unicode="&#x25fc;" horiz-adv-x="1116" d="M0 0v1116h1116v-1116h-1116z" />
<glyph unicode="&#xf8ff;" d="M2 739q0 89 23.5 179t70.5 161t119.5 116.5t173.5 45.5q43 0 85 -8.5t79 -20t71.5 -20t69.5 -8.5q38 0 75 10.5t75 22.5t76.5 21.5t80.5 9.5q176 0 307 -160q-175 -147 -175 -314q0 -52 15 -104.5t43 -99.5t69.5 -82.5t93.5 -53.5q-17 -51 -51.5 -124.5t-82.5 -141 t-108 -117t-127 -49.5q-36 0 -70.5 10t-69 22.5t-70.5 22t-72 9.5q-37 0 -71 -9.5t-66.5 -23.5t-64.5 -23.5t-63 -9.5q-82 0 -160.5 74t-140 185.5t-98.5 240.5t-37 239zM666 1222q2 319 317 390q0 -179 -88.5 -278.5t-228.5 -111.5z" />
<glyph unicode="&#xfb01;" d="M0 0v140h253v838h-253v140h253q0 231 119.5 350.5t359.5 119.5q56 0 96 -4t66 -8v-141q-34 5 -72 8.5t-90 3.5q-157 0 -235.5 -77.5t-78.5 -251.5h670v-978h254v-140h-1342zM418 140h506v838h-506v-838z" />
<glyph unicode="&#xfb02;" d="M0 0v140h253v838h-253v140h253q0 231 119.5 350.5t359.5 119.5q124 0 205 -11t151 -31v-1406h254v-140h-1342zM418 140h506v1290q-26 5 -72 11t-120 6q-157 0 -235.5 -77.5t-78.5 -251.5h253v-140h-253v-838z" />
</font>
</defs>
</svg>
