<?xml version="1.0" standalone="no"?>
<!DOCTYPE svg PUBLIC "-//W3C//DTD SVG 1.1//EN" "http://www.w3.org/Graphics/SVG/1.1/DTD/svg11.dtd" >
<svg xmlns="http://www.w3.org/2000/svg">
<metadata></metadata>
<defs>
<font id="ds_sofachromeitalic" horiz-adv-x="2715" >
<font-face units-per-em="2048" ascent="1638" descent="-410" />
<missing-glyph horiz-adv-x="917" />
<glyph horiz-adv-x="0" />
<glyph unicode="&#xd;" horiz-adv-x="1024" />
<glyph unicode=" "  horiz-adv-x="917" />
<glyph unicode="&#x09;" horiz-adv-x="917" />
<glyph unicode="&#xa0;" horiz-adv-x="917" />
<glyph unicode="!" horiz-adv-x="1521" d="M72 72q0 -35 39 -56q37 -16 71 -16h512q27 0 57.5 7t58.5 21.5t49.5 33t31.5 42.5l121 273q8 16 8 33q0 37 -41 55q-33 16 -72 16h-510q-59 0 -112 -26q-61 -29 -84 -78l-121 -273q-8 -14 -8 -32zM315 633q0 -18 27 -19h739q35 0 47 27l328 737q2 2 2 8q0 18 -24 19h-740 q-37 0 -49 -27l-328 -737q-2 -2 -2 -8z" />
<glyph unicode="&#x22;" horiz-adv-x="1138" d="M160 1102q0 -20 28 -21h129q27 0 45.5 20.5t32 37t21.5 26.5q168 195 168 221q0 18 -25 19h-323q-55 0 -68 -98v-142q-4 -8 -6 -29.5t-2 -33.5zM610 1102q0 -20 29 -21h129q27 0 45 20.5t31.5 37t21.5 26.5q168 195 168 221q0 18 -26 19h-322q-55 0 -68 -98v-142 q-4 -8 -6 -29.5t-2 -33.5z" />
<glyph unicode="#" horiz-adv-x="1716" d="M80 365q0 -18 26 -19h222l-72 -162q0 -18 27 -18h174q35 0 47 24l67 156h357q-70 -158 -70 -162q0 -18 25 -18h174q35 0 47 24l70 156h167q37 0 50 25q55 125 55 127q0 20 -29 20h-168l111 248h168q41 0 49 27q55 123 55 127q0 18 -26 18h-168q53 125 53 127q0 18 -25 18 h-174q-39 0 -47 -26l-53 -119h-356q55 123 55 127q0 18 -25 18h-174q-37 0 -49 -26l-51 -119h-221q-37 0 -49 -27q-55 -123 -56 -127q0 -18 29 -18h219l-111 -248h-219q-41 0 -49 -26zM649 518l111 248h356l-112 -248h-355z" />
<glyph unicode="$" horiz-adv-x="1718" d="M63 283q0 -18 27 -19h471q-45 -96 -45 -102q0 -18 29 -19h207q37 0 49 27l41 94q152 0 276 47q156 59 207 174q16 37 16 70q0 78 -75 135l-383 297h641q37 0 49 27l84 188q2 2 2 8q0 18 -27 19h-393q47 111 47 110q0 18 -26 19h-207q-37 0 -49 -27l-46 -102h-153 q-147 0 -277 -64q-147 -72 -202 -192q-20 -39 -21 -86q0 -109 123 -178l352 -203h-581q-37 0 -49 -27l-84 -190q-2 -2 -3 -6z" />
<glyph unicode="%" horiz-adv-x="1759" d="M102 16q0 -16 29 -16h111q31 2 51 16q20 20 35.5 35t25.5 25q287 287 494 492.5t349 349t230.5 231.5t137.5 137t67.5 68.5t22.5 23.5l6 11q0 16 -31 16h-112q-41 -6 -54 -16q-334 -332 -563 -562.5t-380.5 -382l-235.5 -235.5t-124 -125t-49.5 -50t-9.5 -11v-7zM221 -2 q10 0 15 1l6 1q-4 0 -10.5 -1t-10.5 -1zM248 877q0 -66 78 -66h407q47 0 95.5 30.5t68.5 76.5l172 387q10 25 10 38q0 66 -80 66h-405q-49 0 -97 -30.5t-67 -73.5l-174 -387q-8 -18 -8 -41zM520 1024q0 14 10 39l31 74q18 43 66.5 73.5t97.5 30.5q76 1 76 -65q0 -20 -8 -39 l-33 -74q-18 -43 -66.5 -74t-95.5 -31q-78 0 -78 66zM668 66q0 -66 80 -66h405q49 0 97 30.5t67 73.5l172 390q10 25 10 38q0 66 -80 66h-405q-49 0 -97.5 -30.5t-66.5 -73.5l-174 -390q-8 -18 -8 -38zM940 213q0 14 10 39l33 74q18 43 65.5 73.5t96.5 30.5q78 1 78 -65 q0 -14 -11 -39l-32 -74q-18 -43 -65.5 -74t-96.5 -31q-78 0 -78 66zM1518 1405q4 0 9 1t11 1q-10 0 -14 -1t-6 -1z" />
<glyph unicode="&#x26;" horiz-adv-x="2879" d="M90 272q0 -27 6 -47q35 -162 264 -207q100 -18 369 -18h223q72 0 125 8t88 23l17 6q94 37 147 55q76 -92 96 -92h1049q53 0 53 31q0 2 -4 14l-360 420l581 256q33 14 33 31q0 16 -35 16h-336q-14 0 -354 -154l-108 125q184 66 317 160q193 131 193 272q0 135 -175 193 q-123 41 -282 41h-457q-229 0 -444 -70q-274 -86 -346 -243q-16 -39 -17 -74q0 -92 101 -178q-225 -43 -412 -146q-223 -125 -303 -299q-29 -63 -29 -123zM866 260q0 90 232 168l135 -188q-131 -53 -229 -54q-47 0 -84 15q-53 23 -54 59zM1665 1145q0 39 59 61q49 16 93 17 q25 0 61 -11q45 -12 45 -32q0 -47 -217 -99q-41 35 -41 64z" />
<glyph unicode="'" horiz-adv-x="632" d="M154 1102q0 -20 28 -21h129q27 0 45.5 20.5t31.5 37t22 26.5q168 195 168 221q0 18 -25 19h-324q-55 0 -67 -98v-142q-4 -8 -6 -29.5t-2 -33.5z" />
<glyph unicode="(" horiz-adv-x="1372" d="M72 145q-1 -286 368 -286h135q37 0 50 26l47 111q0 20 -62 20q-14 0 -24 -2h-23q-211 0 -211 185q0 84 49 192l301 678q143 322 474 322h71q49 4 60 26q47 111 47 109q0 18 -29 18h-135q-541 0 -799 -555q-51 -111 -110.5 -244t-128.5 -288q-80 -182 -80 -312z" />
<glyph unicode=")" horiz-adv-x="1374" d="M18 -123q0 -18 29 -18h135q279 0 498 170q197 154 319 428q80 178 138.5 310t97.5 222q70 160 70 277q0 279 -373 278h-135q-37 0 -49 -24q-47 -111 -48 -111q0 -20 62 -20q14 0 24 2h25q225 0 225 -162q0 -66 -41 -160l-301 -678q-70 -160 -196 -262 q-139 -115 -301 -115h-72q-49 -4 -59 -26q-47 -111 -48 -111z" />
<glyph unicode="*" horiz-adv-x="1832" d="M49 430q0 -16 33 -16h424l-43 -291q0 -16 22 -17q18 0 39 15l361 233q326 -137 338 -137q33 0 43 23q10 78 17 152.5t11 146.5l437 123q41 10 41 28q0 12 -19 19l-330 122q240 297 240 308q0 14 -23 14q-6 0 -12 -1t-14 -3l-434 -135l-152 235q-8 14 -27 15 q-27 0 -45 -25l-215 -291h-417q-8 2 -23 2q-31 0 -31 -24q0 -6 172 -242l-370 -227q-23 -16 -23 -27z" />
<glyph unicode="+" horiz-adv-x="937" d="M86 539q0 -18 27 -19h131q-45 -96 -45 -102q0 -18 26 -19h275q35 0 47 27l43 94h131q41 0 49 27q86 193 86 196q0 20 -27 21h-133q41 94 41 96q0 18 -24 19h-275q-35 0 -47 -27l-39 -88h-131q-37 0 -49 -27q-86 -195 -86 -198z" />
<glyph unicode="," horiz-adv-x="792" d="M111 57q0 -57 55 -57h96l-80 -90q-61 -72 -61 -90q0 -16 26 -17h109q23 0 76 43q16 16 33.5 32t33.5 32q57 49 95 83t55 54q68 74 110 172l72 158q10 27 10 49q0 55 -53 55h-307q-41 0 -80 -31.5t-57 -72.5l-121 -273q-12 -25 -12 -47z" />
<glyph unicode="-" horiz-adv-x="937" d="M135 539q0 -18 25 -19h512q37 0 49 27q86 193 86 196q0 20 -27 21h-512q-35 0 -47 -27q-86 -195 -86 -198z" />
<glyph unicode="." horiz-adv-x="835" d="M102 57q0 -57 56 -57h307q37 0 82 35q37 31 55 69l121 273q10 27 10 49q0 55 -53 55h-307q-41 0 -80 -31.5t-57 -72.5l-121 -273q-12 -25 -13 -47z" />
<glyph unicode="/" horiz-adv-x="1851" d="M12 16q0 -16 31 -16h174q25 0 39 14l1571 1352q14 12 14 23q0 16 -31 16h-180q-25 0 -39 -14l-1564 -1352q-14 -12 -15 -23z" />
<glyph unicode="0" horiz-adv-x="2746" d="M123 375q0 -180 115 -283q106 -92 294 -92h1053q297 0 574 215q258 203 383 487q82 182 81 334q0 182 -116 279q-109 90 -295 90h-1053q-301 0 -575 -213q-252 -197 -381 -490q-80 -182 -80 -327zM932 354q0 86 82 264l98 224q70 156 129 221q88 100 227 100h181 q153 0 153 -106q0 -66 -67 -215l-99 -224q-39 -86 -74.5 -148t-70.5 -103q-106 -125 -252 -125h-180q-127 0 -127 112z" />
<glyph unicode="1" horiz-adv-x="1513" d="M90 18q0 -18 27 -18h737q37 0 49 27l506 1136q25 55 25 101q0 141 -224 141h-669q-37 0 -49 -27q-86 -195 -86 -196q0 -18 28 -19h164q-508 -1143 -508 -1145z" />
<glyph unicode="2" horiz-adv-x="2965" d="M109 18q0 -18 26 -18h2132q37 0 49 27l84 188q2 2 2 8q0 18 -26 19h-1358l84 190q59 133 219 180q104 31 295 31h516q344 0 567 223q147 143 148 303q0 123 -107 187q-84 49 -219 49h-1759q-41 0 -49 -27l-84 -190q-2 -2 -2 -6q0 -18 26 -19h1194q154 0 154 -92 q0 -14 -10 -45q-27 -63 -113 -104q-76 -35 -154 -35h-419q-377 0 -588 -72q-301 -104 -426 -383q-182 -412 -182 -414z" />
<glyph unicode="3" horiz-adv-x="2830" d="M106 20q0 -18 27 -18h1636q190 0 371 115q178 115 262 295q37 80 37 157q0 102 -63 172q135 61 229 162q111 119 111 248q0 135 -125 203q-100 53 -248 53h-1583q-41 0 -49 -27l-86 -190v-8q0 -18 26 -19h1069q57 0 97 -20q53 -25 53 -76q0 -23 -12 -49 q-31 -68 -113 -107q-74 -35 -154 -34h-1067q-41 0 -49 -27l-86 -191q0 -4 -2 -6q0 -18 29 -18h1067q127 0 127 -111q0 -104 -97 -194q-96 -86 -204 -86h-1067q-37 0 -49 -27l-84 -190q-2 -2 -3 -7z" />
<glyph unicode="4" horiz-adv-x="2641" d="M31 324q0 -18 28 -19h1182q-125 -281 -125 -287q0 -18 25 -18h739q37 0 49 27l123 278h158q37 0 49 27l78 178q0 18 -29 18h-156q381 854 381 858q0 18 -28 19h-858q-16 0 -33 -10l-1491 -885q-18 -10 -55 -98q-37 -80 -37 -88zM598 528l1018 619l-275 -619h-743z" />
<glyph unicode="5" horiz-adv-x="3024" d="M109 20q0 -18 26 -18h1761q201 0 383.5 121t268.5 309q43 94 43 180q0 133 -115 205q-96 59 -242 60h-936l129 286h1358q37 0 49 27l84 190q2 2 2 6q0 20 -28 21h-2130q-41 0 -49 -27l-324 -727q0 -18 29 -18h1192q127 0 127 -111q0 -104 -97 -194q-96 -86 -202 -86 h-1194q-37 0 -49 -27l-84 -190q-2 -2 -2 -7z" />
<glyph unicode="6" horiz-adv-x="2887" d="M123 258q0 -129 92 -197q84 -59 217 -59h1370q209 0 391 117q184 117 271 303q41 94 41 178q0 145 -115 217q-96 59 -248 60h-1001q29 66 44 99l15 32q70 156 277 155h1167q37 0 49 27l84 190q2 2 2 6q0 20 -29 21h-1642q-201 0 -389 -96q-209 -104 -285 -273l-276 -620 q-35 -78 -35 -160zM932 354q0 39 22 95l84 186h480q135 0 135 -115q0 -41 -21 -84q-37 -86 -116.5 -139t-172.5 -53h-276q-135 0 -135 110z" />
<glyph unicode="7" horiz-adv-x="2680" d="M100 16q0 -16 31 -16h977q25 0 39 14l1415 1213q47 94 60.5 124.5t13.5 34.5q0 18 -27 19h-1876q-37 0 -49 -27q-86 -195 -86 -196q0 -18 29 -19h786l-1298 -1124q-14 -12 -15 -23z" />
<glyph unicode="8" horiz-adv-x="2859" d="M119 248q0 -121 94 -189q82 -57 213 -57h1370q190 0 373 117q184 119 260 293q37 82 37 157q-1 102 -64 172q135 61 230 162q113 119 112 248q0 135 -125 203q-102 53 -247 53h-1272q-203 0 -395 -98q-207 -106 -285 -281q-29 -68 -29 -117q0 -106 86 -170 q-143 -80 -241 -204q-117 -145 -117 -289zM932 350q0 104 98 195q100 90 203 90h278q125 0 125 -111q0 -104 -96 -194q-96 -86 -203 -86h-278q-127 0 -127 106zM1190 969q0 20 12 49q29 68 113 108q74 37 153 37h279q57 0 96 -20q53 -25 53 -76q0 -23 -12 -49 q-27 -66 -110 -107q-76 -35 -156 -34h-277q-152 0 -151 92z" />
<glyph unicode="9" horiz-adv-x="2887" d="M109 18q0 -18 26 -18h1645q201 0 389 94q209 109 282 273l277 622q37 80 37 160q0 129 -94 197q-84 59 -215 59h-1373q-207 0 -391 -117t-268 -305q-41 -92 -41 -176q0 -147 113 -217q96 -59 247 -60h1002q-29 -66 -43 -100l-14 -33q-70 -156 -277 -155h-1167 q-37 0 -49 -27l-84 -188q-2 -2 -2 -9zM1233 885q0 43 20 86q39 86 118 139t171 53h279q133 0 133 -110q0 -39 -23 -95l-82 -186h-481q-135 0 -135 113z" />
<glyph unicode=":" horiz-adv-x="1019" d="M57 57q0 -57 56 -57h307q39 0 79 33t56 71l121 273q12 25 12 49q0 55 -55 55h-305q-41 0 -80 -31.5t-58 -72.5l-120 -273q-12 -25 -13 -47zM332 672q0 -57 53 -58h307q41 0 80 33t57 74l121 270q12 25 13 49q0 57 -56 58h-307q-39 0 -79 -33t-58 -74l-121 -270 q-10 -31 -10 -49z" />
<glyph unicode=";" horiz-adv-x="999" d="M61 57q0 -57 56 -57h96l-80 -90q-61 -72 -61 -90q0 -16 26 -17h109q25 0 74 43q16 16 34.5 32t34.5 32q113 98 150 137q68 74 110 172l70 158q12 25 12 49q0 55 -55 55h-305q-41 0 -80 -31.5t-57 -72.5l-121 -273q-12 -25 -13 -47zM336 672q0 -57 53 -58h307q41 0 80 33 t58 74l120 270q12 25 13 49q0 57 -56 58h-307q-39 0 -79 -33t-58 -74l-121 -270q-10 -31 -10 -49z" />
<glyph unicode="&#x3c;" horiz-adv-x="1366" d="M18 690q0 -27 109 -57q119 -35 209 -58.5t149 -39.5q158 -41 275 -73t194 -54q6 -2 19 -2q43 0 43 28q-1 22 -58 260q299 268 299 281q0 14 -24 14q-12 0 -21 -2q-197 -43 -342 -74.5t-243 -54.5q-362 -80 -443 -98q-166 -41 -166 -70z" />
<glyph unicode="=" horiz-adv-x="1267" d="M109 365q0 -18 24 -19h737q37 0 48 25q86 193 86 198q0 18 -25 19h-737q-35 0 -47 -27q-86 -195 -86 -196zM264 715q0 -18 27 -19h735q37 0 49 27q86 193 86 197q0 18 -26 18h-736q-37 0 -49 -27q-86 -195 -86 -196z" />
<glyph unicode="&#x3e;" horiz-adv-x="1363" d="M109 420q-1 -14 24 -14q12 0 21 2q389 86 583 129q184 39 294 61.5t149 32.5q166 39 166 69q0 27 -109 58l-614 172q-109 31 -165.5 45t-64.5 14q-43 0 -43 -28q0 -18 56 -267q-297 -260 -297 -274z" />
<glyph unicode="?" horiz-adv-x="2521" d="M143 72q0 -35 39 -56q37 -16 72 -16h512q59 0 113 27q61 29 84 77l120 273q8 16 9 33q0 37 -36 54t-75 17h-512q-59 0 -113 -26q-61 -29 -84 -78l-120 -273q-8 -14 -9 -32zM256 1182q0 -18 29 -19h1192q156 0 155 -92q0 -18 -12 -45q-29 -66 -113 -104q-76 -35 -153 -35 h-195q-498 0 -710 -189q-70 -61 -70 -92q0 -16 27 -16h741q6 0 20.5 5t27.5 12t25.5 13.5t16.5 6.5q53 16 135 16h391q344 0 568 223q145 145 145 301q0 125 -104 187q-84 51 -220 51h-1761q-37 0 -49 -27l-84 -190q-2 -2 -2 -6z" />
<glyph unicode="@" horiz-adv-x="3055" d="M104 436q0 -16 29 -16h279q37 0 49 26l176 396q70 160 135 225q90 96 238 96h944q154 0 153 -106q0 -66 -67 -215l-98 -224q-78 -170 -148 -251q-106 -125 -250 -125h-882q-37 0 -50 -27l-84 -188q-2 -2 -2 -9q0 -18 27 -18h1337q299 0 574 215q252 197 383 487 q82 178 82 334q0 182 -117 279q-109 90 -297 90h-1352q-297 0 -520 -137q-238 -143 -346 -408q-33 -82 -66.5 -158.5t-61.5 -136t-45.5 -94.5t-19.5 -35zM737 532q0 -96 127 -96h537q76 0 148.5 46t103.5 116l108 244q12 25 13 47q0 49 -52 76q-39 20 -96 20h-620 q-35 0 -50 -27q-18 -35 -18 -51t27 -16h434q59 0 59 -37q0 -8 -28 -76h-394q-43 0 -86 -13t-81 -35.5t-67.5 -56.5t-47.5 -73q-16 -39 -17 -68zM1075 573q0 20 11.5 41t29 36.5t39 24.5t41.5 9h188q-39 -88 -51 -102q-37 -51 -96 -52h-109q-53 0 -53 43z" />
<glyph unicode="A" horiz-adv-x="3346" d="M33 16q0 -16 33 -16h1572q39 0 48 27q86 193 86 196q0 18 -27 19h-1086l1012 669l584 -901q6 -10 24 -10h918q49 0 49 31q0 8 -844 1364q-10 10 -26 10h-217q-18 0 -35 -10l-2069 -1352q-23 -16 -22 -27z" />
<glyph unicode="B" horiz-adv-x="2961" d="M109 18q0 -18 26 -18h1761q193 0 381 123q186 123 267 301q37 80 36 151q0 109 -79 181q137 63 231 162q113 119 113 249q0 121 -105 187q-88 51 -219 51h-1759q-41 0 -49 -27q-604 -1352 -604 -1360zM1018 242l409 921h420q154 0 154 -92q0 -18 -10 -45 q-31 -66 -113 -104q-76 -35 -154 -35h-264q-39 0 -51 -27l-84 -190q0 -4 -2 -8q0 -18 29 -19h264q123 0 123 -111q0 -109 -97 -200q-96 -90 -204 -90h-420z" />
<glyph unicode="C" horiz-adv-x="2676" d="M125 375q0 -180 115 -283q106 -92 295 -92h1386q37 0 49 27l84 188q2 2 2 8q0 18 -26 19h-934q-139 0 -140 118q0 80 78 258l101 224q70 160 135 225q90 96 235 96h934q37 0 49 25l84 190q2 2 2 8q0 18 -26 19h-1389q-301 0 -573 -213q-246 -193 -383 -490 q-78 -178 -78 -327z" />
<glyph unicode="D" horiz-adv-x="2926" d="M111 18q0 -18 26 -18h1622q299 0 574 215q252 197 383 487q82 178 82 334q0 182 -117 279q-109 90 -295 90h-1622q-37 0 -49 -27q-604 -1352 -604 -1360zM1020 242l410 921h393q153 0 153 -106q0 -66 -67 -215l-99 -224q-39 -86 -74.5 -148t-70.5 -103 q-106 -125 -252 -125h-393z" />
<glyph unicode="E" horiz-adv-x="2678" d="M125 375q0 -180 115 -283q106 -92 295 -92h1386q39 0 51 27l84 188q0 6 2 8q0 18 -28 19h-932q-141 0 -142 118q0 82 80 258l99 224q70 160 135 225q92 96 237 96h932q39 0 49 25l84 190q2 2 2 8q0 18 -26 19h-1387q-303 0 -575 -213q-248 -193 -381 -490 q-80 -176 -80 -327zM1198 662q0 -18 25 -19h987q39 0 47 27q88 190 88 196q0 20 -27 21h-987q-35 0 -47 -27q-86 -195 -86 -198z" />
<glyph unicode="F" horiz-adv-x="2795" d="M100 18q0 -18 27 -18h780q37 0 49 27l363 815q70 160 135 225q92 96 238 96h931q37 0 50 25l84 190q2 2 2 8q0 18 -27 19h-1386q-287 0 -553 -201q-250 -188 -373 -465q-319 -717 -320 -721zM1382 662q0 -18 25 -19h987q39 0 47 27q86 193 86 196q0 20 -24 21h-987 q-35 0 -48 -27q-86 -195 -86 -198z" />
<glyph unicode="G" horiz-adv-x="2627" d="M127 375q0 -180 115 -283q106 -92 295 -92h1458q37 0 49 27q391 881 391 882q0 18 -29 19h-735q-37 0 -49 -27l-293 -659h-229q-141 0 -142 118q0 82 80 258l99 224q70 160 135 225q92 96 237 96h858q37 0 50 25l84 190q2 2 2 8q0 18 -29 19h-1311q-303 0 -575 -213 q-246 -193 -381 -490q-80 -176 -80 -327z" />
<glyph unicode="H" horiz-adv-x="3084" d="M117 18q0 -18 26 -18h740q39 0 47 27l274 616h625q-276 -621 -277 -625q0 -18 25 -18h739q37 0 49 27q602 1354 603 1359q0 18 -25 19h-739q-37 0 -50 -27l-219 -491h-622q221 494 221 499q0 18 -25 19h-741q-35 0 -47 -27q-604 -1352 -604 -1360z" />
<glyph unicode="I" horiz-adv-x="1556" d="M70 18q0 -18 26 -18h740q35 0 47 27q604 1352 604 1359q0 18 -25 19h-741q-35 0 -47 -27q-604 -1352 -604 -1360z" />
<glyph unicode="J" horiz-adv-x="2689" d="M31 18q0 -18 26 -18h1289q285 0 552 201q246 184 371 463q319 715 320 722q0 18 -27 19h-780q-37 0 -49 -27l-363 -815q-70 -160 -135 -225q-90 -96 -236 -96h-833q-37 0 -49 -27l-84 -188q-2 -2 -2 -9z" />
<glyph unicode="K" horiz-adv-x="3237" d="M123 18q0 -18 27 -18h739q39 0 47 27q604 1352 604 1359q0 18 -24 19h-742q-35 0 -47 -27q-604 -1352 -604 -1360zM1356 705l2 -15l442 -680q6 -10 25 -10h782q49 0 49 31q0 6 -581 864l1020 463q30 14 30 30q-1 17 -33 17h-495q-12 0 -25 -6l-1118 -506q-16 -6 -22 -21z " />
<glyph unicode="L" horiz-adv-x="2048" d="M133 362q0 -178 117 -272q109 -90 291 -90h1286q37 0 49 27l84 188q2 2 2 8q0 18 -27 19h-833q-154 0 -154 104q0 66 68 217l362 815q2 2 2 8q0 18 -26 19h-781q-37 0 -49 -27l-317 -714q-74 -164 -74 -302z" />
<glyph unicode="M" horiz-adv-x="3563" d="M127 18q0 -18 29 -18h282q37 0 49 27l244 548l459 -567q10 -10 98 -10q72 0 90 12l887 565q-246 -553 -246 -557q0 -18 29 -18h735q37 0 49 27q604 1352 605 1359q0 18 -29 19h-268q-16 0 -33 -10l-1440 -906l-559 906q-10 10 -27 10h-301q-37 0 -49 -27 q-604 -1352 -604 -1360z" />
<glyph unicode="N" horiz-adv-x="3368" d="M125 18q0 -18 29 -18h282q37 0 49 27l252 567l1403 -563q76 -31 123 -31h328q41 0 49 27l602 1351q2 2 2 8q0 18 -27 19h-282q-41 0 -49 -27l-258 -577l-1430 577q-61 27 -104 27h-316q-37 0 -49 -27l-602 -1351q-2 -2 -2 -9z" />
<glyph unicode="O" horiz-adv-x="2777" d="M137 375q0 -182 117 -283q106 -92 295 -92h1053q297 0 573 215q258 203 383 487q82 182 82 334q0 182 -117 279q-109 90 -297 90h-1052q-301 0 -576 -213q-252 -197 -381 -490q-80 -182 -80 -327zM946 354q0 86 82 264l100 224q35 78 67 133t60 88q88 100 230 100h180 q152 0 152 -106q0 -61 -66 -215l-100 -224q-39 -86 -75 -148t-71 -103q-106 -125 -250 -125h-180q-129 0 -129 112z" />
<glyph unicode="P" horiz-adv-x="2906" d="M121 18q0 -18 29 -18h735q37 0 49 27l506 1136h420q153 0 153 -91q0 -15 -10 -46q-27 -63 -113 -104q-76 -35 -153 -35h-264q-41 0 -50 -27l-84 -190q-2 -2 -2 -8q0 -18 27 -19h780q344 0 568 223q147 143 147 303q0 123 -106 187q-84 49 -220 49h-1759q-37 0 -49 -27 q-604 -1352 -604 -1360z" />
<glyph unicode="Q" horiz-adv-x="2729" d="M125 375q0 -180 115 -283q106 -92 297 -92h229q-98 -219 -98 -223q0 -18 26 -19h496q37 0 49 27l96 215h254q297 0 572 215q252 199 385 487q80 180 80 334q0 182 -117 279q-109 90 -295 90h-1053q-301 0 -575 -213q-248 -197 -381 -490q-80 -178 -80 -327zM934 354 q0 86 82 264l98 224q70 156 129 221q88 100 227 100h181q153 0 153 -106q0 -66 -67 -215l-99 -224q-39 -86 -74.5 -148t-70.5 -103q-106 -125 -252 -125h-180q-127 0 -127 112z" />
<glyph unicode="R" horiz-adv-x="3010" d="M123 18q0 -18 29 -18h735q41 0 49 27l506 1136h420q153 0 153 -91q0 -19 -10 -46q-27 -63 -113 -104q-76 -35 -153 -35h-264q-37 0 -50 -27l-69 -155l2 -15l442 -680q6 -10 25 -10h778q53 0 53 31q0 6 -422 618q190 31 344 123q174 109 244 264q31 63 31 133 q0 123 -103 185q-82 51 -215 51h-1759q-37 0 -49 -27q-604 -1352 -604 -1360z" />
<glyph unicode="S" horiz-adv-x="2615" d="M109 18q0 -18 28 -18h1180q283 0 500 63q327 94 327 301q0 152 -188 326l-506 473h915q37 0 50 25l84 190q2 2 2 8q0 18 -27 19h-1251q-117 0 -234 -25q-92 -20 -171 -53t-148 -78q-176 -117 -176 -272q0 -137 147 -268l512 -467h-909q-37 0 -49 -27l-84 -188q0 -6 -2 -9 z" />
<glyph unicode="T" horiz-adv-x="2347" d="M164 1182q0 -18 29 -19h571q-508 -1143 -508 -1145q0 -18 25 -18h741q35 0 47 27l506 1136h592q37 0 49 25q86 193 86 198q0 18 -27 19h-1976q-37 0 -49 -27q-86 -195 -86 -196z" />
<glyph unicode="U" horiz-adv-x="2961" d="M158 369q0 -180 105.5 -274.5t289.5 -94.5h1053q297 0 571 221q248 203 377 494q297 664 297 671q0 18 -27 19h-266q-37 0 -49 -27l-283 -637q-223 -499 -501 -499h-1h-645q-127 0 -127 112q0 82 82 264l338 760q0 6 2 8q0 18 -28 19h-760q-37 0 -49 -27l-295 -663 q-84 -190 -84 -346z" />
<glyph unicode="V" horiz-adv-x="3364" d="M115 1376q0 -4 846 -1364q6 -10 24 -10h219q18 0 35 10l2066 1352q23 16 23 27q0 16 -33 16h-192q-18 0 -35 -10l-1378 -901l-582 901q-10 10 -25 10h-919q-49 0 -49 -31z" />
<glyph unicode="W" horiz-adv-x="5617" d="M143 1376q0 -4 846 -1364q6 -10 25 -10h219q18 0 35 10l1358 889l540 -889q7 -10 25 -10h219q18 0 35 10l2066 1352q23 16 23 27q0 16 -33 16h-193q-18 0 -34 -10l-1379 -901l-581 901q-10 10 -27 10h-156q-18 0 -34 -10l-1377 -901l-583 901q-10 10 -25 10h-917 q-51 0 -52 -31z" />
<glyph unicode="X" horiz-adv-x="3289" d="M115 16q0 -16 32 -16h263q18 0 34 10l797 527l330 -527q6 -10 24 -10h918q49 0 49 31q0 7 -414 669l1004 662q23 16 22 27q0 16 -32 16h-269q-18 0 -34 -10l-795 -527l-328 527q-6 10 -22 10h-924q-51 0 -51 -31q0 -4 416 -669l-1000 -662q-20 -14 -20 -27z" />
<glyph unicode="Y" horiz-adv-x="2648" d="M154 1374q0 -6 477 -772q-258 -582 -258 -584q0 -18 26 -18h740q35 0 47 27l262 585l1139 750q23 16 22 27q0 16 -31 16h-270q-18 0 -35 -10l-794 -527l-326 527q-10 10 -25 10h-923q-51 0 -51 -31z" />
<glyph unicode="Z" horiz-adv-x="2797" d="M123 18q0 -18 24 -18h1878q35 0 48 27q86 193 86 196q0 18 -27 19h-801l1239 913l13 14q94 209 94 217q0 18 -27 19h-1876q-37 0 -49 -27q-86 -195 -86 -196q0 -18 29 -19h786l-1225 -915l-12 -12q-94 -209 -94 -218z" />
<glyph unicode="_" horiz-adv-x="985" d="M158 -184q0 -18 24 -19h512q37 0 49 27q86 193 86 196q0 20 -26 21h-512q-35 0 -47 -27q-86 -195 -86 -198z" />
<glyph unicode="a" horiz-adv-x="3371" d="M39 16q0 -16 33 -16h1573q39 0 47 27q86 193 86 196q0 18 -27 19h-1085l1011 669l584 -901q6 -10 25 -10h917q49 0 49 31q0 8 -844 1364q-10 10 -26 10h-217q-18 0 -35 -10l-2069 -1352q-23 -16 -22 -27z" />
<glyph unicode="b" horiz-adv-x="3004" d="M129 18q0 -18 27 -18h1761q193 0 381 123q186 123 266 301q37 80 37 151q0 109 -80 181q137 63 232 162q112 118 112 247q0 124 -104 189q-88 51 -219 51h-1760q-41 0 -49 -27q-604 -1352 -604 -1360zM1038 242l410 921h420q153 0 153 -92q0 -18 -10 -45 q-31 -66 -113 -104q-76 -35 -153 -35h-264q-39 0 -51 -27l-84 -190q0 -4 -3 -8q0 -18 29 -19h264q123 0 123 -111q0 -109 -96 -200q-96 -90 -205 -90h-420z" />
<glyph unicode="c" d="M145 375q0 -180 115 -283q106 -92 295 -92h1387q37 0 49 27l84 188q2 2 2 8q0 18 -27 19h-934q-139 0 -139 118q0 80 78 258l100 224q70 160 135 225q90 96 236 96h934q37 0 49 25l84 190q2 2 2 8q0 18 -27 19h-1388q-301 0 -574 -213q-246 -193 -383 -490 q-78 -178 -78 -327z" />
<glyph unicode="d" horiz-adv-x="2963" d="M127 18q0 -18 27 -18h1622q299 0 573 215q252 197 383 487q82 178 82 334q0 182 -117 279q-109 90 -295 90h-1622q-37 0 -49 -27q-604 -1352 -604 -1360zM1036 242l410 921h393q154 0 154 -106q0 -66 -68 -215l-98 -224q-39 -86 -75 -148t-71 -103q-106 -125 -251 -125 h-394z" />
<glyph unicode="e" d="M145 375q0 -180 115 -283q106 -92 295 -92h1387q39 0 51 27l84 188q0 6 2 8q0 18 -29 19h-932q-141 0 -141 118q0 82 80 258l98 224q70 160 135 225q92 96 238 96h932q39 0 49 25l84 190q2 2 2 8q0 18 -27 19h-1386q-303 0 -576 -213q-248 -193 -381 -490 q-80 -176 -80 -327zM1219 662q0 -18 24 -19h987q39 0 47 27q88 190 88 196q0 20 -26 21h-987q-35 0 -47 -27q-86 -195 -86 -198z" />
<glyph unicode="f" horiz-adv-x="2816" d="M115 18q0 -18 26 -18h781q37 0 49 27l362 815q70 160 135 225q92 96 238 96h932q37 0 49 25l84 190q2 2 2 8q0 18 -27 19h-1386q-287 0 -553 -201q-250 -188 -373 -465q-319 -717 -319 -721zM1397 662q0 -18 24 -19h987q39 0 48 27q86 193 86 196q0 20 -25 21h-987 q-35 0 -47 -27q-86 -195 -86 -198z" />
<glyph unicode="g" horiz-adv-x="2660" d="M143 375q0 -180 115 -283q106 -92 295 -92h1458q37 0 49 27q391 881 391 882q0 18 -28 19h-735q-37 0 -50 -27l-292 -659h-230q-141 0 -141 118q0 82 80 258l98 224q70 160 135 225q92 96 238 96h858q37 0 49 25l84 190q2 2 2 8q0 18 -29 19h-1310q-303 0 -576 -213 q-246 -193 -381 -490q-80 -176 -80 -327z" />
<glyph unicode="h" horiz-adv-x="3112" d="M131 18q0 -18 27 -18h739q39 0 47 27l275 616h624q-276 -621 -276 -625q0 -18 24 -18h740q37 0 49 27q602 1354 602 1359q0 18 -25 19h-739q-37 0 -49 -27l-219 -491h-623q221 494 221 499q0 18 -24 19h-742q-35 0 -47 -27q-604 -1352 -604 -1360z" />
<glyph unicode="i" horiz-adv-x="1572" d="M78 18q0 -18 26 -18h740q35 0 47 27q604 1352 604 1359q0 18 -25 19h-741q-35 0 -47 -27q-604 -1352 -604 -1360z" />
<glyph unicode="j" horiz-adv-x="2703" d="M35 18q0 -18 26 -18h1289q285 0 553 201q246 184 370 463q319 715 320 722q0 18 -27 19h-780q-37 0 -49 -27l-363 -815q-70 -160 -135 -225q-90 -96 -235 -96h-834q-37 0 -49 -27l-84 -188q-2 -2 -2 -9z" />
<glyph unicode="k" horiz-adv-x="3260" d="M135 18q0 -18 27 -18h739q39 0 47 27q604 1352 604 1359q0 18 -24 19h-742q-35 0 -47 -27q-604 -1352 -604 -1360zM1368 705l2 -15l442 -680q6 -10 25 -10h782q49 0 50 31q0 6 -582 864l1020 463q31 14 31 31q0 16 -33 16h-496q-12 0 -24 -6l-1119 -506q-16 -6 -22 -21z " />
<glyph unicode="l" horiz-adv-x="2066" d="M145 362q0 -178 117 -272q109 -90 291 -90h1286q37 0 49 27l84 188q2 2 2 8q0 18 -26 19h-834q-153 0 -153 103q0 68 67 218l363 815q2 2 2 8q0 18 -27 19h-780q-37 0 -49 -27l-318 -714q-74 -164 -74 -302z" />
<glyph unicode="m" horiz-adv-x="3586" d="M139 18q0 -18 29 -18h283q37 0 49 27l243 548l459 -567q10 -10 98 -10q72 0 91 12l886 565q-246 -553 -245 -557q0 -18 28 -18h736q37 0 49 27q604 1352 604 1359q0 18 -29 19h-268q-16 0 -33 -10l-1440 -906l-559 906q-10 10 -26 10h-301q-37 0 -50 -27 q-604 -1352 -604 -1360z" />
<glyph unicode="n" horiz-adv-x="3389" d="M135 18q0 -18 29 -18h282q37 0 50 27l252 567l1402 -563q76 -31 123 -31h328q41 0 49 27l602 1351q2 2 2 8q0 18 -26 19h-283q-41 0 -49 -27l-258 -577l-1430 577q-61 27 -104 27h-316q-37 0 -49 -27l-602 -1351q-2 -2 -2 -9z" />
<glyph unicode="o" horiz-adv-x="2795" d="M145 375q0 -182 117 -283q106 -92 295 -92h1053q297 0 573 215q258 203 383 487q82 182 82 334q0 182 -117 279q-109 90 -297 90h-1052q-301 0 -576 -213q-252 -197 -381 -490q-80 -182 -80 -327zM954 354q0 86 82 264l101 224q35 78 66.5 133t60.5 88q88 100 229 100 h180q152 0 152 -106q0 -61 -66 -215l-100 -224q-39 -86 -75 -148t-71 -103q-106 -125 -249 -125h-181q-129 0 -129 112z" />
<glyph unicode="p" horiz-adv-x="2918" d="M129 18q0 -18 29 -18h735q37 0 49 27l506 1136h420q153 0 153 -91q0 -15 -10 -46q-27 -63 -113 -104q-76 -35 -153 -35h-264q-41 0 -49 -27l-84 -190q-2 -2 -2 -8q0 -18 26 -19h780q344 0 568 223q147 143 147 303q0 123 -106 187q-84 49 -219 49h-1760q-37 0 -49 -27 q-604 -1352 -604 -1360z" />
<glyph unicode="q" horiz-adv-x="2742" d="M133 375q0 -180 115 -283q106 -92 297 -92h229q-98 -219 -98 -223q0 -18 26 -19h496q37 0 49 27l96 215h254q297 0 572 215q252 199 385 487q80 180 80 334q0 182 -117 279q-109 90 -295 90h-1053q-301 0 -575 -213q-248 -197 -381 -490q-80 -178 -80 -327zM942 354 q0 86 82 264l98 224q70 156 129 221q88 100 228 100h180q153 0 153 -106q0 -66 -67 -215l-98 -224q-39 -86 -75 -148t-71 -103q-106 -125 -252 -125h-180q-127 0 -127 112z" />
<glyph unicode="r" horiz-adv-x="3022" d="M129 18q0 -18 29 -18h735q41 0 49 27l506 1136h420q153 0 153 -91q0 -19 -10 -46q-27 -63 -113 -104q-76 -35 -153 -35h-264q-37 0 -49 -27l-70 -155l2 -15l442 -680q6 -10 25 -10h778q53 0 53 31q0 6 -421 618q190 31 344 123q174 109 243 264q31 63 31 133 q0 123 -102 185q-82 51 -215 51h-1760q-37 0 -49 -27q-604 -1352 -604 -1360z" />
<glyph unicode="s" horiz-adv-x="2625" d="M113 18q0 -18 28 -18h1180q283 0 500 63q327 94 327 301q0 152 -188 326l-506 473h916q37 0 49 25l84 190q2 2 2 8q0 18 -27 19h-1251q-117 0 -234 -25q-92 -20 -171 -53t-148 -78q-176 -117 -176 -272q0 -137 147 -268l512 -467h-909q-37 0 -49 -27l-84 -188q0 -6 -2 -9 z" />
<glyph unicode="t" horiz-adv-x="2355" d="M170 1182q0 -18 29 -19h571q-508 -1143 -508 -1145q0 -18 25 -18h741q35 0 47 27l506 1136h592q37 0 49 25q86 193 86 198q0 18 -27 19h-1976q-37 0 -49 -27q-86 -195 -86 -196z" />
<glyph unicode="u" horiz-adv-x="2969" d="M162 369q0 -180 105.5 -274.5t289.5 -94.5h1053q297 0 571 221q248 203 377 494q297 664 297 671q0 18 -27 19h-266q-37 0 -49 -27l-283 -637q-223 -499 -500 -499h-1h-646q-127 0 -127 112q0 82 82 264l338 760q0 6 2 8q0 18 -28 19h-760q-37 0 -49 -27l-295 -663 q-84 -190 -84 -346z" />
<glyph unicode="v" horiz-adv-x="3366" d="M117 1376q0 -4 846 -1364q6 -10 24 -10h219q18 0 35 10l2067 1352q23 16 22 27q0 16 -33 16h-192q-18 0 -35 -10l-1378 -901l-582 901q-10 10 -25 10h-919q-49 0 -49 -31z" />
<glyph unicode="w" horiz-adv-x="5623" d="M147 1376q0 -4 846 -1364q6 -10 25 -10h219q18 0 35 10l1358 889l540 -889q7 -10 25 -10h219q18 0 35 10l2066 1352q23 16 23 27q0 16 -33 16h-192q-18 0 -35 -10l-1379 -901l-581 901q-10 10 -27 10h-156q-18 0 -34 -10l-1377 -901l-583 901q-10 10 -25 10h-917 q-51 0 -52 -31z" />
<glyph unicode="x" horiz-adv-x="3295" d="M119 16q0 -16 33 -16h262q18 0 35 10l796 527l330 -527q6 -10 24 -10h918q49 0 49 31q0 7 -414 669l1004 662q23 16 22 27q0 16 -32 16h-269q-18 0 -34 -10l-795 -527l-328 527q-6 10 -22 10h-924q-51 0 -51 -31q0 -4 416 -669l-1000 -662q-20 -14 -20 -27z" />
<glyph unicode="y" horiz-adv-x="2652" d="M156 1374q0 -6 477 -772q-258 -582 -258 -584q0 -18 26 -18h740q35 0 47 27l262 585l1139 750q23 16 22 27q0 16 -31 16h-270q-18 0 -35 -10l-794 -527l-326 527q-10 10 -25 10h-923q-51 0 -51 -31z" />
<glyph unicode="z" horiz-adv-x="2801" d="M125 18q0 -18 25 -18h1878q35 0 47 27q86 193 86 196q0 18 -27 19h-801l1239 913l13 14q94 209 94 217q0 18 -27 19h-1876q-37 0 -49 -27q-86 -195 -86 -196q0 -18 29 -19h786l-1225 -915l-12 -12q-94 -209 -94 -218z" />
<glyph unicode="~" horiz-adv-x="942" d="M133 1446h29q72 109 133 108q33 0 111 -55q76 -55 141 -55q88 0 164 63q67 56 104 142h-29q-72 -109 -137 -109q-35 0 -112 53q-78 55 -140 56q-170 0 -264 -203z" />
<glyph unicode="&#xa4;" d="M145 375q0 -180 115 -283q106 -92 295 -92h1387q37 0 49 27l84 188q2 2 2 8q0 18 -27 19h-934q-139 0 -139 118v27h434q37 0 49 25q86 193 86 198q0 18 -26 19h-461l49 108h461q35 0 47 27q86 193 86 197q0 18 -25 18h-452q35 57 65 88q90 96 236 96h934q37 0 49 25 l84 190q2 2 2 8q0 18 -29 19h-1386q-301 0 -574 -213q-246 -193 -383 -490q-78 -178 -78 -327z" />
<glyph unicode="&#xa8;" horiz-adv-x="2631" d="M104 375q0 -180 115 -283q106 -92 295 -92h1387q39 0 51 27l84 188q0 6 2 8q0 18 -29 19h-932q-141 0 -141 118q0 82 80 258l98 224q70 160 135 225q92 96 238 96h932q39 0 49 25l84 190q2 2 2 8q0 18 -27 19h-1386q-303 0 -576 -213q-248 -193 -381 -490 q-80 -176 -80 -327zM1178 662q0 -18 24 -19h987q39 0 47 27q88 190 88 196q0 20 -26 21h-987q-35 0 -47 -27q-86 -195 -86 -198zM1479 1509q-1 -55 69 -55q51 0 101 37q49 39 49 86q0 57 -70 57q-49 0 -100 -39q-49 -37 -49 -86zM1808 1509q0 -55 72 -55q49 0 98 37 q51 39 52 86q0 57 -70 57q-53 0 -98 -37q-53 -41 -54 -88z" />
<glyph unicode="&#xad;" horiz-adv-x="937" d="M135 539q0 -18 25 -19h512q37 0 49 27q86 193 86 196q0 20 -27 21h-512q-35 0 -47 -27q-86 -195 -86 -198z" />
<glyph unicode="&#xb8;" horiz-adv-x="2631" d="M104 375q0 -180 115 -283q106 -92 295 -92h1387q39 0 51 27l84 188q0 6 2 8q0 18 -29 19h-932q-141 0 -141 118q0 82 80 258l98 224q70 160 135 225q92 96 238 96h932q39 0 49 25l84 190q2 2 2 8q0 18 -27 19h-1386q-303 0 -576 -213q-248 -193 -381 -490 q-80 -176 -80 -327zM1178 662q0 -18 24 -19h987q39 0 47 27q88 190 88 196q0 20 -26 21h-987q-35 0 -47 -27q-86 -195 -86 -198zM1479 1509q-1 -55 69 -55q51 0 101 37q49 39 49 86q0 57 -70 57q-49 0 -100 -39q-49 -37 -49 -86zM1808 1509q0 -55 72 -55q49 0 98 37 q51 39 52 86q0 57 -70 57q-53 0 -98 -37q-53 -41 -54 -88z" />
<glyph unicode="&#xc0;" horiz-adv-x="3371" d="M39 16q0 -16 33 -16h1573q39 0 47 27q86 193 86 196q0 18 -27 19h-1085l1011 669l584 -901q6 -10 25 -10h917q49 0 49 31q0 8 -844 1364q-10 10 -26 10h-217q-18 0 -35 -10l-2069 -1352q-23 -16 -22 -27z" />
<glyph unicode="&#xc1;" horiz-adv-x="3094" d="M131 18q0 -18 27 -18h1761q193 0 381 123q186 123 266 301q37 80 37 151q0 106 -68.5 168t-185.5 93.5t-272.5 41t-329.5 9.5h-264q-39 0 -51 -27l-84 -190q0 -4 -2 -8q0 -18 28 -19h264q123 0 123 -111q0 -109 -96 -200q-96 -90 -205 -90h-420l410 921h1417l107 242 h-2190q-41 0 -49 -27q-604 -1352 -604 -1360z" />
<glyph unicode="&#xc2;" horiz-adv-x="3004" d="M129 18q0 -18 27 -18h1761q193 0 381 123q186 123 266 301q37 80 37 151q0 109 -80 181q137 63 232 162q113 119 112 249q0 121 -104 187q-88 51 -219 51h-1760q-41 0 -49 -27q-604 -1352 -604 -1360zM1038 242l410 921h420q153 0 153 -92q0 -18 -10 -45 q-31 -66 -113 -104q-76 -35 -153 -35h-264q-39 0 -51 -27l-84 -190q0 -4 -3 -8q0 -18 29 -19h264q123 0 123 -111q0 -109 -96 -200q-96 -90 -205 -90h-420z" />
<glyph unicode="&#xc3;" horiz-adv-x="2803" d="M115 18q0 -18 26 -18h781q37 0 49 27l362 815q70 160 135 225q92 96 238 96h932q37 0 49 25l84 190q2 2 2 8q0 18 -27 19h-1386q-287 0 -553 -201q-250 -188 -373 -465q-319 -717 -319 -721z" />
<glyph unicode="&#xc4;" horiz-adv-x="3575" d="M45 16q0 -16 33 -16h3256q39 0 47 27q86 193 86 196q0 18 -26 19h-312q-100 162 -276 446.5t-438 706.5q-10 10 -27 10h-217q-18 0 -35 -10l-2068 -1352q-23 -16 -23 -27zM672 242l1011 669l435 -669h-1446z" />
<glyph unicode="&#xc5;" d="M145 375q0 -180 115 -283q106 -92 295 -92h1387q39 0 51 27l84 188q0 6 2 8q0 18 -29 19h-932q-141 0 -141 118q0 82 80 258l98 224q70 160 135 225q92 96 238 96h932q39 0 49 25l84 190q2 2 2 8q0 18 -27 19h-1386q-303 0 -576 -213q-248 -193 -381 -490 q-80 -176 -80 -327zM1219 662q0 -18 24 -19h987q39 0 47 27q88 190 88 196q0 20 -26 21h-987q-35 0 -47 -27q-86 -195 -86 -198z" />
<glyph unicode="&#xc6;" horiz-adv-x="4855" d="M147 16q0 -16 33 -16h496q12 0 24 6l1192 752q16 6 23 20l76 168l-2 15l-516 434q-6 10 -25 10h-782q-49 0 -50 -31l633 -618l-1071 -709q-31 -16 -31 -31zM1706 18q0 -18 27 -18h739q39 0 47 27q604 1352 604 1359q0 18 -24 19h-742q-35 0 -47 -27 q-604 -1352 -604 -1360zM2939 705l2 -15l442 -680q6 -10 25 -10h782q49 0 49 31q0 6 -581 864l1020 463q31 14 30 31q0 16 -32 16h-496q-12 0 -25 -6l-1118 -506q-16 -6 -22 -21z" />
<glyph unicode="&#xc7;" horiz-adv-x="2871" d="M125 18q0 -18 27 -18h1636q190 0 371 115q178 115 262 295q37 80 37 157q-1 102 -64 172q135 61 229 162q111 119 111 248q0 135 -125 203q-100 53 -248 53h-1583q-41 0 -49 -27l-86 -190v-8q0 -18 27 -19h1069q57 0 96 -20q53 -25 53 -76q0 -23 -12 -49 q-16 -35 -44 -54.5t-69 -39.5q-74 -35 -153 -35h-518q-41 0 -50 -27l-86 -192q0 -4 -2 -6q0 -18 29 -19h518q63 0 95 -32.5t32 -88.5q0 -104 -96 -194q-96 -86 -205 -86h-1067q-37 0 -49 -27l-84 -190q-2 -2 -2 -7z" />
<glyph unicode="&#xc8;" horiz-adv-x="3112" d="M131 18q0 -18 27 -18h739q39 0 47 27l1081 1036q-47 -104 -98 -221t-102 -232.5t-98.5 -222t-82 -188.5t-56.5 -131l-21 -50q0 -18 24 -18h740q37 0 49 27q602 1354 602 1359q0 18 -25 19h-739q-16 0 -26.5 -6t-20.5 -17v-2l-2 -2l-1041 -938q37 82 82 184.5t92.5 207 t91.5 205t78.5 177t55.5 124.5l20 48q0 18 -24 19h-742q-35 0 -47 -27q-604 -1352 -604 -1360z" />
<glyph unicode="&#xc9;" horiz-adv-x="3028" d="M76 18q0 -18 26 -18h740q39 0 47 27l1081 1036q-47 -104 -98 -221t-102.5 -232.5t-98.5 -222t-82 -188.5t-57 -131l-21 -50q0 -18 25 -18h739q37 0 49 27q602 1354 603 1359q0 18 -25 19h-739q-16 0 -26.5 -6t-20.5 -17v-2l-2 -2l-1041 -938q37 82 82 184.5t92 207 t91 205t79 177t55 124.5l21 48q0 18 -25 19h-741q-35 0 -47 -27q-604 -1352 -604 -1360zM1604 1589h28q72 109 133 109q33 0 111 -56q76 -55 141 -55q88 0 164 64q68 55 105 141h-29q-72 -109 -137 -109q-35 0 -113 54q-78 55 -139 55q-170 0 -264 -203z" />
<glyph unicode="&#xca;" horiz-adv-x="3260" d="M135 18q0 -18 27 -18h739q39 0 47 27q604 1352 604 1359q0 18 -24 19h-742q-35 0 -47 -27q-604 -1352 -604 -1360zM1368 705l2 -15l442 -680q6 -10 25 -10h782q49 0 50 31q0 6 -582 864l1020 463q31 14 31 31q0 16 -33 16h-496q-12 0 -24 -6l-1119 -506q-16 -6 -22 -21z " />
<glyph unicode="&#xcb;" horiz-adv-x="3371" d="M39 0q0 -4 24.5 -5t61.5 -1q63 0 101 1t58.5 2t26.5 2t8 1l1358 911l584 -901q6 -10 25 -10h917q49 0 49 31q0 8 -844 1364q-10 10 -26 10h-217q-18 0 -35 -10l-2069 -1368q-23 -16 -22 -27z" />
<glyph unicode="&#xcc;" horiz-adv-x="3586" d="M139 18q0 -18 29 -18h283q37 0 49 27l243 548l459 -567q10 -10 98 -10q72 0 91 12l886 565q-246 -553 -245 -557q0 -18 28 -18h736q37 0 49 27q604 1352 604 1359q0 18 -29 19h-268q-16 0 -33 -10l-1440 -906l-559 906q-10 10 -26 10h-301q-37 0 -50 -27 q-604 -1352 -604 -1360z" />
<glyph unicode="&#xcd;" horiz-adv-x="3112" d="M131 18q0 -18 27 -18h739q39 0 47 27l275 616h624q-276 -621 -276 -625q0 -18 24 -18h740q37 0 49 27q602 1354 602 1359q0 18 -25 19h-739q-37 0 -49 -27l-219 -491h-623q221 494 221 499q0 18 -24 19h-742q-35 0 -47 -27q-604 -1352 -604 -1360z" />
<glyph unicode="&#xce;" horiz-adv-x="2795" d="M145 375q0 -182 117 -283q106 -92 295 -92h1053q297 0 573 215q258 203 383 487q82 182 82 334q0 182 -117 279q-109 90 -297 90h-1052q-301 0 -576 -213q-252 -197 -381 -490q-80 -182 -80 -327zM954 354q0 86 82 264l101 224q35 78 66.5 133t60.5 88q88 100 229 100 h180q152 0 152 -106q0 -61 -66 -215l-100 -224q-39 -86 -75 -148t-71 -103q-106 -125 -249 -125h-181q-129 0 -129 112z" />
<glyph unicode="&#xcf;" horiz-adv-x="3112" d="M131 18q0 -18 27 -18h739q39 0 47 27l508 1132h625q-47 -104 -102.5 -228t-112 -251t-109.5 -246t-95 -211t-66 -149l-25 -56q0 -18 24 -18h740q37 0 49 27q602 1354 602 1359q0 18 -25 19h-2175q-35 0 -47 -27q-604 -1352 -604 -1360z" />
<glyph unicode="&#xd0;" horiz-adv-x="2918" d="M129 18q0 -18 29 -18h735q37 0 49 27l506 1136h420q154 0 153 -92q0 -14 -10 -45q-27 -63 -113 -104q-76 -35 -153 -35h-264q-41 0 -49 -27l-84 -190q-2 -2 -2 -8q0 -18 26 -19h780q344 0 568 223q147 143 147 303q0 123 -106 187q-84 49 -219 49h-1760q-37 0 -49 -27 q-604 -1352 -604 -1360z" />
<glyph unicode="&#xd1;" d="M145 375q0 -180 115 -283q106 -92 295 -92h1387q37 0 49 27l84 188q2 2 2 8q0 18 -27 19h-934q-139 0 -139 118q0 80 78 258l100 224q70 160 135 225q90 96 236 96h934q37 0 49 25l84 190q2 2 2 8q0 18 -27 19h-1388q-301 0 -574 -213q-246 -193 -383 -490 q-78 -178 -78 -327z" />
<glyph unicode="&#xd2;" horiz-adv-x="2355" d="M170 1182q0 -18 29 -19h571q-508 -1143 -508 -1145q0 -18 25 -18h741q35 0 47 27l506 1136h592q37 0 49 25q86 193 86 198q0 18 -27 19h-1976q-37 0 -49 -27q-86 -195 -86 -196z" />
<glyph unicode="&#xd3;" horiz-adv-x="2795" d="M119 1389q0 -6 5 -11.5t15 -15.5l803 -920l-332 -411q0 -31 52 -31h899q16 0 22 10l1135 1364q0 31 -49 31h-918q-18 0 -25 -10l-602 -752l-675 752q-6 6 -15.5 8t-19.5 2h-262q-33 0 -33 -16z" />
<glyph unicode="&#xd4;" horiz-adv-x="3670" d="M119 879q0 -123 106 -187q82 -49 219 -49h832q-139 -311 -208 -468l-69 -157q0 -18 29 -18h735q37 0 49 27l506 1136h273q154 0 153 -92q0 -14 -10 -45q-27 -63 -113 -104q-76 -35 -153 -35h-117q-41 0 -49 -27l-84 -190q-2 -2 -2 -8q0 -18 27 -19h632q344 0 568 223 q147 143 147 303q0 123 -106 187q-84 49 -219 49h-1612q-37 0 -49 -27l-220 -491l-14 -2h-252q-154 0 -153 92q0 14 10 45q27 63 112 104q76 35 154 35h96q41 0 49 27l84 190q2 2 3 8q0 18 -27 19h-612q-344 0 -568 -223q-147 -145 -147 -303z" />
<glyph unicode="&#xd5;" horiz-adv-x="3295" d="M119 16q0 -16 33 -16h262q18 0 35 10l796 527l330 -527q6 -10 24 -10h918q49 0 49 31q0 7 -414 669l1004 662q23 16 22 27q0 16 -32 16h-269q-18 0 -34 -10l-795 -527l-328 527q-6 10 -22 10h-924q-51 0 -51 -31q0 -4 416 -669l-1000 -662q-20 -14 -20 -27z" />
<glyph unicode="&#xd6;" horiz-adv-x="3082" d="M92 18q0 -18 25 -18h1911q-98 -219 -99 -223q0 -18 27 -19h457q37 0 49 27l78 215h-213l12 27q301 672 452.5 1005.5t151.5 353.5q0 18 -27 19h-739q-39 0 -47 -27l-508 -1132h-625q45 102 101.5 227t113 252t109.5 246t95 211t66 148l25 56q0 18 -24 19h-740 q-37 0 -49 -27q-602 -1356 -602 -1360z" />
<glyph unicode="&#xd7;" horiz-adv-x="2744" d="M94 809q0 -145 115 -217q96 -59 248 -60h997l-235 -530h778l626 1405h-780l-282 -633h-254q-35 0 -95.5 7t-119 21.5t-102.5 36t-44 50.5q0 41 21 84l194 434h-837l-189 -420q-8 -49 -24.5 -92t-16.5 -86z" />
<glyph unicode="&#xd8;" horiz-adv-x="3964" d="M145 18q0 -18 27 -18h2996q37 0 49 27q602 1354 603 1359q0 18 -25 19h-739q-37 0 -50 -27l-505 -1134h-303q10 23 19 44t19 44q41 92 91.5 205.5t102.5 230.5t102.5 228.5t88 197.5t61.5 139l23 53q0 18 -24 19h-742q-37 0 -49 -27l-506 -1134h-329q37 82 89 198.5 t108.5 243.5t111.5 252t99 224.5t72 161.5l28 62q0 18 -25 19h-741q-35 0 -47 -27q-604 -1352 -605 -1360z" />
<glyph unicode="&#xd9;" horiz-adv-x="3921" d="M98 18q0 -18 27 -18h2697q-98 -219 -98 -223q0 -18 26 -19h465q37 0 50 27l96 215h-193l2 27q602 1354 602 1359q0 18 -24 19h-739q-37 0 -50 -27l-505 -1134h-304q10 23 19.5 44t19.5 44q41 92 91.5 205.5t102.5 230.5t102 228.5t88 197.5t61 139l24 53q0 18 -24 19 h-742q-37 0 -49 -27l-506 -1134h-329q37 82 89 198.5t108.5 243.5t111.5 252t99 224.5t72 161.5l28 62q0 18 -25 19h-741q-35 0 -48 -27q-604 -1352 -604 -1360z" />
<glyph unicode="&#xda;" horiz-adv-x="2650" d="M184 258q0 -129 92 -197q84 -59 218 -59h1370q209 0 391 117q184 117 270 303q41 94 41 178q0 145 -115 217q-96 59 -247 60h-787l-108 -242h270q135 0 135 -115q0 -41 -20 -84q-37 -86 -117 -139t-172 -53h-277q-135 0 -135 110q0 39 23 95l426 958h-1112q-41 0 -49 -27 l-84 -192q-2 -2 -2 -6q0 -18 26 -19h332l-334 -745q-35 -78 -35 -160z" />
<glyph unicode="&#xdb;" horiz-adv-x="3010" d="M152 258q0 -129 92 -197q84 -59 217 -59h1370q209 0 391 117q184 117 270 303q41 94 41 178q0 145 -114 217q-96 59 -248 60h-787l-108 -242h270q135 0 135 -115q0 -41 -20 -84q-37 -86 -117 -139t-172 -53h-276q-135 0 -135 110q0 39 22 95l426 958h-778l-445 -989 q-35 -78 -34 -160zM1911 1020q0 -12 28 -12h740q33 0 47 26q16 31 25.5 49.5t24.5 50t41 89t73 168.5v4q0 14 -25 14h-741q-33 0 -47 -27z" />
<glyph unicode="&#xdc;" horiz-adv-x="2611" d="M145 258q0 -129 93 -197q84 -59 217 -59h1370q209 0 391 117q184 117 270 303q41 94 41 178q0 145 -114 217q-96 59 -248 60h-787l-108 -242h270q135 0 135 -115q0 -41 -20 -84q-37 -86 -117 -139t-172 -53h-276q-135 0 -136 110q0 39 23 95l426 958h-778l-445 -989 q-35 -78 -35 -160z" />
<glyph unicode="&#xdd;" d="M121 18q0 -18 26 -18h1387q303 0 575 213q248 193 381 489q80 174 80 328q0 180 -114 283q-109 92 -295 92h-1387q-39 0 -51 -27l-84 -188q0 -6 -2 -8q0 -18 29 -19h931q141 0 142 -119q0 -84 -80 -258l-98 -223q-70 -160 -136 -225q-92 -96 -237 -96h-932q-41 0 -49 -25 l-84 -190q-2 -2 -2 -9zM408 662q0 -20 26 -21h987q35 0 47 27q86 193 86 198q0 18 -24 19h-987q-39 0 -47 -27q-88 -190 -88 -196z" />
<glyph unicode="&#xde;" horiz-adv-x="4038" d="M145 18q0 -18 27 -18h739q35 0 47 27q82 180 151 334.5t128 289.5h199q-31 -78 -46.5 -144.5t-15.5 -131.5q0 -182 117 -283q106 -92 295 -92h1053q297 0 573 215q258 203 383 487q82 182 82 334q0 182 -117 279q-109 90 -297 90h-1053q-301 0 -575 -213 q-164 -127 -276 -303h-218q221 494 222 497q0 18 -25 19h-741q-35 0 -47 -27q-604 -1352 -605 -1360zM2183 354q0 86 82 264l100 224q35 78 67 133t60 88q88 100 230 100h180q152 0 152 -106q0 -61 -66 -215l-100 -224q-39 -86 -75 -148t-71 -103q-106 -125 -250 -125h-180 q-129 0 -129 112z" />
<glyph unicode="&#xdf;" horiz-adv-x="3100" d="M115 12q-1 -12 32 -12h779q10 0 20 2t17 8l626 695h160l63 155l5 10q0 16 -33 17h-264q-27 0 -53.5 5t-48 16.5t-36 29.5t-14.5 47q0 45 26.5 79t67.5 55.5t89 32.5t91 11h420l-487 -1136q-6 -10 -6 -15q0 -12 28 -12h736q31 0 49 18q0 2 147.5 342t433.5 1018q2 4 3.5 6 t1.5 7q0 14 -27 14h-1759q-45 0 -108.5 -14.5t-134.5 -43t-140.5 -68.5t-123.5 -90t-89 -111.5t-35 -129.5q0 -104 77 -169.5t201 -86.5q-182 -158 -310 -274.5t-212 -197.5t-128 -127t-56 -62q-8 -8 -8 -19z" />
<glyph unicode="&#xe0;" horiz-adv-x="3371" d="M39 16q0 -16 33 -16h1573q39 0 47 27q86 193 86 196q0 18 -27 19h-1085l1011 669l584 -901q6 -10 25 -10h917q49 0 49 31q0 8 -844 1364q-10 10 -26 10h-217q-18 0 -35 -10l-2069 -1352q-23 -16 -22 -27z" />
<glyph unicode="&#xe1;" horiz-adv-x="3094" d="M131 18q0 -18 27 -18h1761q193 0 381 123q186 123 266 301q37 80 37 151q0 106 -68.5 168t-185.5 93.5t-272.5 41t-329.5 9.5h-264q-39 0 -51 -27l-84 -190q0 -4 -2 -8q0 -18 28 -19h264q123 0 123 -111q0 -109 -96 -200q-96 -90 -205 -90h-420l410 921h1417l107 242 h-2190q-41 0 -49 -27q-604 -1352 -604 -1360z" />
<glyph unicode="&#xe2;" horiz-adv-x="3004" d="M129 18q0 -18 27 -18h1761q193 0 381 123q186 123 266 301q37 80 37 151q0 109 -80 181q137 63 232 162q113 119 112 249q0 121 -104 187q-88 51 -219 51h-1760q-41 0 -49 -27q-604 -1352 -604 -1360zM1038 242l410 921h420q153 0 153 -92q0 -18 -10 -45 q-31 -66 -113 -104q-76 -35 -153 -35h-264q-39 0 -51 -27l-84 -190q0 -4 -3 -8q0 -18 29 -19h264q123 0 123 -111q0 -109 -96 -200q-96 -90 -205 -90h-420z" />
<glyph unicode="&#xe3;" horiz-adv-x="2803" d="M115 18q0 -18 26 -18h781q37 0 49 27l362 815q70 160 135 225q92 96 238 96h932q37 0 49 25l84 190q2 2 2 8q0 18 -27 19h-1386q-287 0 -553 -201q-250 -188 -373 -465q-319 -717 -319 -721z" />
<glyph unicode="&#xe4;" horiz-adv-x="3575" d="M45 16q0 -16 33 -16h3256q39 0 47 27q86 193 86 196q0 18 -26 19h-312q-100 162 -276 446.5t-438 706.5q-10 10 -27 10h-217q-18 0 -35 -10l-2068 -1352q-23 -16 -23 -27zM672 242l1011 669l435 -669h-1446z" />
<glyph unicode="&#xe5;" d="M145 375q0 -180 115 -283q106 -92 295 -92h1387q39 0 51 27l84 188q0 6 2 8q0 18 -29 19h-932q-141 0 -141 118q0 82 80 258l98 224q70 160 135 225q92 96 238 96h932q39 0 49 25l84 190q2 2 2 8q0 18 -27 19h-1386q-303 0 -576 -213q-248 -193 -381 -490 q-80 -176 -80 -327zM1219 662q0 -18 24 -19h987q39 0 47 27q88 190 88 196q0 20 -26 21h-987q-35 0 -47 -27q-86 -195 -86 -198z" />
<glyph unicode="&#xe6;" horiz-adv-x="4855" d="M147 16q0 -16 33 -16h496q12 0 24 6l1192 752q16 6 23 20l76 168l-2 15l-516 434q-6 10 -25 10h-782q-49 0 -50 -31l633 -618l-1071 -709q-31 -16 -31 -31zM1706 18q0 -18 27 -18h739q39 0 47 27q604 1352 604 1359q0 18 -24 19h-742q-35 0 -47 -27 q-604 -1352 -604 -1360zM2939 705l2 -15l442 -680q6 -10 25 -10h782q49 0 49 31q0 6 -581 864l1020 463q31 14 30 31q0 16 -32 16h-496q-12 0 -25 -6l-1118 -506q-16 -6 -22 -21z" />
<glyph unicode="&#xe7;" horiz-adv-x="2871" d="M125 18q0 -18 27 -18h1636q190 0 371 115q178 115 262 295q37 80 37 157q-1 102 -64 172q135 61 229 162q111 119 111 248q0 135 -125 203q-100 53 -248 53h-1583q-41 0 -49 -27l-86 -190v-8q0 -18 27 -19h1069q57 0 96 -20q53 -25 53 -76q0 -23 -12 -49 q-16 -35 -44 -54.5t-69 -39.5q-74 -35 -153 -35h-518q-41 0 -50 -27l-86 -192q0 -4 -2 -6q0 -18 29 -19h518q63 0 95 -32.5t32 -88.5q0 -104 -96 -194q-96 -86 -205 -86h-1067q-37 0 -49 -27l-84 -190q-2 -2 -2 -7z" />
<glyph unicode="&#xe8;" horiz-adv-x="3112" d="M131 18q0 -18 27 -18h739q39 0 47 27l1081 1036q-47 -104 -98 -221t-102 -232.5t-98.5 -222t-82 -188.5t-56.5 -131l-21 -50q0 -18 24 -18h740q37 0 49 27q602 1354 602 1359q0 18 -25 19h-739q-16 0 -26.5 -6t-20.5 -17v-2l-2 -2l-1041 -938q37 82 82 184.5t92.5 207 t91.5 205t78.5 177t55.5 124.5l20 48q0 18 -24 19h-742q-35 0 -47 -27q-604 -1352 -604 -1360z" />
<glyph unicode="&#xe9;" horiz-adv-x="3028" d="M76 18q0 -18 26 -18h740q39 0 47 27l1081 1036q-47 -104 -98 -221t-102.5 -232.5t-98.5 -222t-82 -188.5t-57 -131l-21 -50q0 -18 25 -18h739q37 0 49 27q602 1354 603 1359q0 18 -25 19h-739q-16 0 -26.5 -6t-20.5 -17v-2l-2 -2l-1041 -938q37 82 82 184.5t92 207 t91 205t79 177t55 124.5l21 48q0 18 -25 19h-741q-35 0 -47 -27q-604 -1352 -604 -1360zM1604 1589h28q72 109 133 109q33 0 111 -56q76 -55 141 -55q88 0 164 64q68 55 105 141h-29q-72 -109 -137 -109q-35 0 -113 54q-78 55 -139 55q-170 0 -264 -203z" />
<glyph unicode="&#xea;" horiz-adv-x="3260" d="M135 18q0 -18 27 -18h739q39 0 47 27q604 1352 604 1359q0 18 -24 19h-742q-35 0 -47 -27q-604 -1352 -604 -1360zM1368 705l2 -15l442 -680q6 -10 25 -10h782q49 0 50 31q0 6 -582 864l1020 463q31 14 31 31q0 16 -33 16h-496q-12 0 -24 -6l-1119 -506q-16 -6 -22 -21z " />
<glyph unicode="&#xeb;" horiz-adv-x="3371" d="M39 0q0 -4 24.5 -5t61.5 -1q63 0 101 1t58.5 2t26.5 2t8 1l1358 911l584 -901q6 -10 25 -10h917q49 0 49 31q0 8 -844 1364q-10 10 -26 10h-217q-18 0 -35 -10l-2069 -1368q-23 -16 -22 -27z" />
<glyph unicode="&#xec;" horiz-adv-x="3586" d="M139 18q0 -18 29 -18h283q37 0 49 27l243 548l459 -567q10 -10 98 -10q72 0 91 12l886 565q-246 -553 -245 -557q0 -18 28 -18h736q37 0 49 27q604 1352 604 1359q0 18 -29 19h-268q-16 0 -33 -10l-1440 -906l-559 906q-10 10 -26 10h-301q-37 0 -50 -27 q-604 -1352 -604 -1360z" />
<glyph unicode="&#xed;" horiz-adv-x="3112" d="M131 18q0 -18 27 -18h739q39 0 47 27l275 616h624q-276 -621 -276 -625q0 -18 24 -18h740q37 0 49 27q602 1354 602 1359q0 18 -25 19h-739q-37 0 -49 -27l-219 -491h-623q221 494 221 499q0 18 -24 19h-742q-35 0 -47 -27q-604 -1352 -604 -1360z" />
<glyph unicode="&#xee;" horiz-adv-x="2795" d="M145 375q0 -182 117 -283q106 -92 295 -92h1053q297 0 573 215q258 203 383 487q82 182 82 334q0 182 -117 279q-109 90 -297 90h-1052q-301 0 -576 -213q-252 -197 -381 -490q-80 -182 -80 -327zM954 354q0 86 82 264l101 224q35 78 66.5 133t60.5 88q88 100 229 100 h180q152 0 152 -106q0 -61 -66 -215l-100 -224q-39 -86 -75 -148t-71 -103q-106 -125 -249 -125h-181q-129 0 -129 112z" />
<glyph unicode="&#xef;" horiz-adv-x="3112" d="M131 18q0 -18 27 -18h739q39 0 47 27l508 1132h625q-47 -104 -102.5 -228t-112 -251t-109.5 -246t-95 -211t-66 -149l-25 -56q0 -18 24 -18h740q37 0 49 27q602 1354 602 1359q0 18 -25 19h-2175q-35 0 -47 -27q-604 -1352 -604 -1360z" />
<glyph unicode="&#xf0;" horiz-adv-x="2918" d="M129 18q0 -18 29 -18h735q37 0 49 27l506 1136h420q154 0 153 -92q0 -14 -10 -45q-27 -63 -113 -104q-76 -35 -153 -35h-264q-41 0 -49 -27l-84 -190q-2 -2 -2 -8q0 -18 26 -19h780q344 0 568 223q147 143 147 303q0 123 -106 187q-84 49 -219 49h-1760q-37 0 -49 -27 q-604 -1352 -604 -1360z" />
<glyph unicode="&#xf1;" d="M145 375q0 -180 115 -283q106 -92 295 -92h1387q37 0 49 27l84 188q2 2 2 8q0 18 -27 19h-934q-139 0 -139 118q0 80 78 258l100 224q70 160 135 225q90 96 236 96h934q37 0 49 25l84 190q2 2 2 8q0 18 -27 19h-1388q-301 0 -574 -213q-246 -193 -383 -490 q-78 -178 -78 -327z" />
<glyph unicode="&#xf2;" horiz-adv-x="2355" d="M170 1182q0 -18 29 -19h571q-508 -1143 -508 -1145q0 -18 25 -18h741q35 0 47 27l506 1136h592q37 0 49 25q86 193 86 198q0 18 -27 19h-1976q-37 0 -49 -27q-86 -195 -86 -196z" />
<glyph unicode="&#xf3;" horiz-adv-x="2795" d="M119 1389q0 -6 5 -11.5t15 -15.5l803 -920l-332 -411q0 -31 52 -31h899q16 0 22 10l1135 1364q0 31 -49 31h-918q-18 0 -25 -10l-602 -752l-675 752q-6 6 -15.5 8t-19.5 2h-262q-33 0 -33 -16z" />
<glyph unicode="&#xf4;" horiz-adv-x="3670" d="M119 879q0 -123 106 -187q82 -49 219 -49h832q-139 -311 -208 -468l-69 -157q0 -18 29 -18h735q37 0 49 27l506 1136h273q154 0 153 -92q0 -14 -10 -45q-27 -63 -113 -104q-76 -35 -153 -35h-117q-41 0 -49 -27l-84 -190q-2 -2 -2 -8q0 -18 27 -19h632q344 0 568 223 q147 143 147 303q0 123 -106 187q-84 49 -219 49h-1612q-37 0 -49 -27l-220 -491l-14 -2h-252q-154 0 -153 92q0 14 10 45q27 63 112 104q76 35 154 35h96q41 0 49 27l84 190q2 2 3 8q0 18 -27 19h-612q-344 0 -568 -223q-147 -145 -147 -303z" />
<glyph unicode="&#xf5;" horiz-adv-x="3295" d="M119 16q0 -16 33 -16h262q18 0 35 10l796 527l330 -527q6 -10 24 -10h918q49 0 49 31q0 7 -414 669l1004 662q23 16 22 27q0 16 -32 16h-269q-18 0 -34 -10l-795 -527l-328 527q-6 10 -22 10h-924q-51 0 -51 -31q0 -4 416 -669l-1000 -662q-20 -14 -20 -27z" />
<glyph unicode="&#xf6;" horiz-adv-x="3082" d="M92 18q0 -18 25 -18h1911q-98 -219 -99 -223q0 -18 27 -19h457q37 0 49 27l78 215h-213l12 27q301 672 452.5 1005.5t151.5 353.5q0 18 -27 19h-739q-39 0 -47 -27l-508 -1132h-625q45 102 101.5 227t113 252t109.5 246t95 211t66 148l25 56q0 18 -24 19h-740 q-37 0 -49 -27q-602 -1356 -602 -1360z" />
<glyph unicode="&#xf7;" horiz-adv-x="2744" d="M94 809q0 -145 115 -217q96 -59 248 -60h997l-235 -530h778l626 1405h-780l-282 -633h-254q-35 0 -95.5 7t-119 21.5t-102.5 36t-44 50.5q0 41 21 84l194 434h-837l-189 -420q-8 -49 -24.5 -92t-16.5 -86z" />
<glyph unicode="&#xf8;" horiz-adv-x="3964" d="M145 18q0 -18 27 -18h2996q37 0 49 27q602 1354 603 1359q0 18 -25 19h-739q-37 0 -50 -27l-505 -1134h-303q10 23 19 44t19 44q41 92 91.5 205.5t102.5 230.5t102.5 228.5t88 197.5t61.5 139l23 53q0 18 -24 19h-742q-37 0 -49 -27l-506 -1134h-329q37 82 89 198.5 t108.5 243.5t111.5 252t99 224.5t72 161.5l28 62q0 18 -25 19h-741q-35 0 -47 -27q-604 -1352 -605 -1360z" />
<glyph unicode="&#xf9;" horiz-adv-x="3921" d="M98 18q0 -18 27 -18h2697q-98 -219 -98 -223q0 -18 26 -19h465q37 0 50 27l96 215h-193l2 27q602 1354 602 1359q0 18 -24 19h-739q-37 0 -50 -27l-505 -1134h-304q10 23 19.5 44t19.5 44q41 92 91.5 205.5t102.5 230.5t102 228.5t88 197.5t61 139l24 53q0 18 -24 19 h-742q-37 0 -49 -27l-506 -1134h-329q37 82 89 198.5t108.5 243.5t111.5 252t99 224.5t72 161.5l28 62q0 18 -25 19h-741q-35 0 -48 -27q-604 -1352 -604 -1360z" />
<glyph unicode="&#xfa;" horiz-adv-x="2650" d="M184 258q0 -129 92 -197q84 -59 218 -59h1370q209 0 391 117q184 117 270 303q41 94 41 178q0 145 -115 217q-96 59 -247 60h-787l-108 -242h270q135 0 135 -115q0 -41 -20 -84q-37 -86 -117 -139t-172 -53h-277q-135 0 -135 110q0 39 23 95l426 958h-1112q-41 0 -49 -27 l-84 -192q-2 -2 -2 -6q0 -18 26 -19h332l-334 -745q-35 -78 -35 -160z" />
<glyph unicode="&#xfb;" horiz-adv-x="3010" d="M152 258q0 -129 92 -197q84 -59 217 -59h1370q209 0 391 117q184 117 270 303q41 94 41 178q0 145 -114 217q-96 59 -248 60h-787l-108 -242h270q135 0 135 -115q0 -41 -20 -84q-37 -86 -117 -139t-172 -53h-276q-135 0 -135 110q0 39 22 95l426 958h-778l-445 -989 q-35 -78 -34 -160zM1911 1020q0 -12 28 -12h740q33 0 47 26q16 31 25.5 49.5t24.5 50t41 89t73 168.5v4q0 14 -25 14h-741q-33 0 -47 -27z" />
<glyph unicode="&#xfc;" horiz-adv-x="2611" d="M145 258q0 -129 93 -197q84 -59 217 -59h1370q209 0 391 117q184 117 270 303q41 94 41 178q0 145 -114 217q-96 59 -248 60h-787l-108 -242h270q135 0 135 -115q0 -41 -20 -84q-37 -86 -117 -139t-172 -53h-276q-135 0 -136 110q0 39 23 95l426 958h-778l-445 -989 q-35 -78 -35 -160z" />
<glyph unicode="&#xfd;" d="M121 18q0 -18 26 -18h1387q303 0 575 213q248 193 381 489q80 174 80 328q0 180 -114 283q-109 92 -295 92h-1387q-39 0 -51 -27l-84 -188q0 -6 -2 -8q0 -18 29 -19h931q141 0 142 -119q0 -84 -80 -258l-98 -223q-70 -160 -136 -225q-92 -96 -237 -96h-932q-41 0 -49 -25 l-84 -190q-2 -2 -2 -9zM408 662q0 -20 26 -21h987q35 0 47 27q86 193 86 198q0 18 -24 19h-987q-39 0 -47 -27q-88 -190 -88 -196z" />
<glyph unicode="&#xfe;" horiz-adv-x="4038" d="M145 18q0 -18 27 -18h739q35 0 47 27q82 180 151 334.5t128 289.5h199q-31 -78 -46.5 -144.5t-15.5 -131.5q0 -182 117 -283q106 -92 295 -92h1053q297 0 573 215q258 203 383 487q82 182 82 334q0 182 -117 279q-109 90 -297 90h-1053q-301 0 -575 -213 q-164 -127 -276 -303h-218q221 494 222 497q0 18 -25 19h-741q-35 0 -47 -27q-604 -1352 -605 -1360zM2183 354q0 86 82 264l100 224q35 78 67 133t60 88q88 100 230 100h180q152 0 152 -106q0 -61 -66 -215l-100 -224q-39 -86 -75 -148t-71 -103q-106 -125 -250 -125h-180 q-129 0 -129 112z" />
<glyph unicode="&#xff;" horiz-adv-x="3100" d="M115 12q-1 -12 32 -12h779q10 0 20 2t17 8l626 695h160l63 155l5 10q0 16 -33 17h-264q-27 0 -53.5 5t-48 16.5t-36 29.5t-14.5 47q0 45 26.5 79t67.5 55.5t89 32.5t91 11h420l-487 -1136q-6 -10 -6 -15q0 -12 28 -12h736q31 0 49 18q0 2 147.5 342t433.5 1018q2 4 3.5 6 t1.5 7q0 14 -27 14h-1759q-45 0 -108.5 -14.5t-134.5 -43t-140.5 -68.5t-123.5 -90t-89 -111.5t-35 -129.5q0 -104 77 -169.5t201 -86.5q-182 -158 -310 -274.5t-212 -197.5t-128 -127t-56 -62q-8 -8 -8 -19z" />
<glyph unicode="&#x401;" horiz-adv-x="2631" d="M104 375q0 -180 115 -283q106 -92 295 -92h1387q39 0 51 27l84 188q0 6 2 8q0 18 -29 19h-932q-141 0 -141 118q0 82 80 258l98 224q70 160 135 225q92 96 238 96h932q39 0 49 25l84 190q2 2 2 8q0 18 -27 19h-1386q-303 0 -576 -213q-248 -193 -381 -490 q-80 -176 -80 -327zM1178 662q0 -18 24 -19h987q39 0 47 27q88 190 88 196q0 20 -26 21h-987q-35 0 -47 -27q-86 -195 -86 -198zM1479 1509q-1 -55 69 -55q51 0 101 37q49 39 49 86q0 57 -70 57q-49 0 -100 -39q-49 -37 -49 -86zM1808 1509q0 -55 72 -55q49 0 98 37 q51 39 52 86q0 57 -70 57q-53 0 -98 -37q-53 -41 -54 -88z" />
<glyph unicode="&#x404;" d="M145 375q0 -180 115 -283q106 -92 295 -92h1387q39 0 51 27l84 188q0 6 2 8q0 18 -29 19h-932q-141 0 -141 118q0 82 80 258l98 224q70 160 135 225q92 96 238 96h932q39 0 49 25l84 190q2 2 2 8q0 18 -27 19h-1386q-303 0 -576 -213q-248 -193 -381 -490 q-80 -176 -80 -327zM1219 662q0 -18 24 -19h987q39 0 47 27q88 190 88 196q0 20 -26 21h-987q-35 0 -47 -27q-86 -195 -86 -198z" />
<glyph unicode="&#x405;" horiz-adv-x="2615" d="M109 18q0 -18 28 -18h1180q283 0 500 63q328 94 327 302q0 150 -188 325l-506 473h915q37 0 50 25l84 190q2 2 2 8q0 18 -27 19h-1251q-117 0 -234 -25q-92 -20 -171 -53t-148 -78q-176 -117 -176 -272q0 -137 147 -268l512 -467h-909q-37 0 -49 -27l-84 -188q0 -6 -2 -9 z" />
<glyph unicode="&#x406;" horiz-adv-x="1556" d="M70 18q0 -18 26 -18h740q35 0 47 27q604 1352 604 1359q0 18 -25 19h-741q-35 0 -47 -27q-604 -1352 -604 -1360z" />
<glyph unicode="&#x408;" horiz-adv-x="2689" d="M31 18q0 -18 26 -18h1289q285 0 552 201q246 184 371 463q319 715 320 722q0 18 -27 19h-780q-37 0 -49 -27l-363 -815q-70 -160 -135 -225q-90 -96 -236 -96h-833q-37 0 -49 -27l-84 -188q-2 -2 -2 -9z" />
<glyph unicode="&#x410;" horiz-adv-x="3371" d="M39 16q0 -16 33 -16h1573q39 0 47 27q86 193 86 196q0 18 -27 19h-1085l1011 669l584 -901q6 -10 25 -10h917q49 0 49 31q0 8 -844 1364q-10 10 -26 10h-217q-18 0 -35 -10l-2069 -1352q-23 -16 -22 -27z" />
<glyph unicode="&#x411;" horiz-adv-x="3094" d="M131 18q0 -18 27 -18h1761q193 0 381 123q186 123 266 301q37 80 37 151q0 106 -68.5 168t-185.5 93.5t-272.5 41t-329.5 9.5h-264q-39 0 -51 -27l-84 -190q0 -4 -2 -8q0 -18 28 -19h264q123 0 123 -111q0 -109 -96 -200q-96 -90 -205 -90h-420l410 921h1417l107 242 h-2190q-41 0 -49 -27q-604 -1352 -604 -1360z" />
<glyph unicode="&#x412;" horiz-adv-x="3004" d="M129 18q0 -18 27 -18h1761q193 0 381 123q186 123 266 301q37 80 37 151q0 109 -80 181q137 63 232 162q113 119 112 249q0 121 -104 187q-88 51 -219 51h-1760q-41 0 -49 -27q-604 -1352 -604 -1360zM1038 242l410 921h420q153 0 153 -92q0 -18 -10 -45 q-31 -66 -113 -104q-76 -35 -153 -35h-264q-39 0 -51 -27l-84 -190q0 -4 -3 -8q0 -18 29 -19h264q123 0 123 -111q0 -109 -96 -200q-96 -90 -205 -90h-420z" />
<glyph unicode="&#x413;" horiz-adv-x="2803" d="M115 18q0 -18 26 -18h781q37 0 49 27l362 815q70 160 135 225q92 96 238 96h932q37 0 49 25l84 190q2 2 2 8q0 18 -27 19h-1386q-287 0 -553 -201q-250 -188 -373 -465q-319 -717 -319 -721z" />
<glyph unicode="&#x414;" horiz-adv-x="3575" d="M45 16q0 -16 33 -16h3256q39 0 47 27q86 193 86 196q0 18 -26 19h-312q-100 162 -276 446.5t-438 706.5q-10 10 -27 10h-217q-18 0 -35 -10l-2068 -1352q-23 -16 -23 -27zM672 242l1011 669l435 -669h-1446z" />
<glyph unicode="&#x415;" d="M145 375q0 -180 115 -283q106 -92 295 -92h1387q39 0 51 27l84 188q0 6 2 8q0 18 -29 19h-932q-141 0 -141 118q0 82 80 258l98 224q70 160 135 225q92 96 238 96h932q39 0 49 25l84 190q2 2 2 8q0 18 -27 19h-1386q-303 0 -576 -213q-248 -193 -381 -490 q-80 -176 -80 -327zM1219 662q0 -18 24 -19h987q39 0 47 27q88 190 88 196q0 20 -26 21h-987q-35 0 -47 -27q-86 -195 -86 -198z" />
<glyph unicode="&#x416;" horiz-adv-x="4855" d="M147 16q0 -16 33 -16h496q12 0 24 6l1192 752q16 6 23 20l76 168l-2 15l-516 434q-6 10 -25 10h-782q-49 0 -50 -31l633 -618l-1071 -709q-31 -16 -31 -31zM1706 18q0 -18 27 -18h739q39 0 47 27q604 1352 604 1359q0 18 -24 19h-742q-35 0 -47 -27 q-604 -1352 -604 -1360zM2939 705l2 -15l442 -680q6 -10 25 -10h782q49 0 49 31q0 6 -581 864l1020 463q31 14 30 31q0 16 -32 16h-496q-12 0 -25 -6l-1118 -506q-16 -6 -22 -21z" />
<glyph unicode="&#x417;" horiz-adv-x="2871" d="M125 18q0 -18 27 -18h1636q190 0 371 115q178 115 262 295q37 80 37 157q-1 102 -64 172q135 61 229 162q111 119 111 248q0 135 -125 203q-100 53 -248 53h-1583q-41 0 -49 -27l-86 -190v-8q0 -18 27 -19h1069q57 0 96 -20q53 -25 53 -76q0 -23 -12 -49 q-16 -35 -44 -54.5t-69 -39.5q-74 -35 -153 -35h-518q-41 0 -50 -27l-86 -192q0 -4 -2 -6q0 -18 29 -19h518q63 0 95 -32.5t32 -88.5q0 -104 -96 -194q-96 -86 -205 -86h-1067q-37 0 -49 -27l-84 -190q-2 -2 -2 -7z" />
<glyph unicode="&#x418;" horiz-adv-x="3112" d="M131 18q0 -18 27 -18h739q39 0 47 27l1081 1036q-47 -104 -98 -221t-102 -232.5t-98.5 -222t-82 -188.5t-56.5 -131l-21 -50q0 -18 24 -18h740q37 0 49 27q602 1354 602 1359q0 18 -25 19h-739q-16 0 -26.5 -6t-20.5 -17v-2l-2 -2l-1041 -938q37 82 82 184.5t92.5 207 t91.5 205t78.5 177t55.5 124.5l20 48q0 18 -24 19h-742q-35 0 -47 -27q-604 -1352 -604 -1360z" />
<glyph unicode="&#x419;" horiz-adv-x="3028" d="M76 18q0 -18 26 -18h740q39 0 47 27l1081 1036q-47 -104 -98 -221t-102.5 -232.5t-98.5 -222t-82 -188.5t-57 -131l-21 -50q0 -18 25 -18h739q37 0 49 27q602 1354 603 1359q0 18 -25 19h-739q-16 0 -26.5 -6t-20.5 -17v-2l-2 -2l-1041 -938q37 82 82 184.5t92 207 t91 205t79 177t55 124.5l21 48q0 18 -25 19h-741q-35 0 -47 -27q-604 -1352 -604 -1360zM1604 1589h28q72 109 133 109q33 0 111 -56q76 -55 141 -55q88 0 164 64q68 55 105 141h-29q-72 -109 -137 -109q-35 0 -113 54q-78 55 -139 55q-170 0 -264 -203z" />
<glyph unicode="&#x41a;" horiz-adv-x="3260" d="M135 18q0 -18 27 -18h739q39 0 47 27q604 1352 604 1359q0 18 -24 19h-742q-35 0 -47 -27q-604 -1352 -604 -1360zM1368 705l2 -15l442 -680q6 -10 25 -10h782q49 0 50 31q0 6 -582 864l1020 463q31 14 31 31q0 16 -33 16h-496q-12 0 -24 -6l-1119 -506q-16 -6 -22 -21z " />
<glyph unicode="&#x41b;" horiz-adv-x="3371" d="M39 0q0 -4 24.5 -5t61.5 -1q63 0 101 1t58.5 2t26.5 2t8 1l1358 911l584 -901q6 -10 25 -10h917q49 0 49 31q0 8 -844 1364q-10 10 -26 10h-217q-18 0 -35 -10l-2069 -1368q-23 -16 -22 -27z" />
<glyph unicode="&#x41c;" horiz-adv-x="3586" d="M139 18q0 -18 29 -18h283q37 0 49 27l243 548l459 -567q10 -10 98 -10q72 0 91 12l886 565q-246 -553 -245 -557q0 -18 28 -18h736q37 0 49 27q604 1352 604 1359q0 18 -29 19h-268q-16 0 -33 -10l-1440 -906l-559 906q-10 10 -26 10h-301q-37 0 -50 -27 q-604 -1352 -604 -1360z" />
<glyph unicode="&#x41d;" horiz-adv-x="3112" d="M131 18q0 -18 27 -18h739q39 0 47 27l275 616h624q-276 -621 -276 -625q0 -18 24 -18h740q37 0 49 27q602 1354 602 1359q0 18 -25 19h-739q-37 0 -49 -27l-219 -491h-623q221 494 221 499q0 18 -24 19h-742q-35 0 -47 -27q-604 -1352 -604 -1360z" />
<glyph unicode="&#x41e;" horiz-adv-x="2795" d="M145 375q0 -182 117 -283q106 -92 295 -92h1053q297 0 573 215q258 203 383 487q82 182 82 334q0 182 -117 279q-109 90 -297 90h-1052q-301 0 -576 -213q-252 -197 -381 -490q-80 -182 -80 -327zM954 354q0 86 82 264l101 224q35 78 66.5 133t60.5 88q88 100 229 100 h180q152 0 152 -106q0 -61 -66 -215l-100 -224q-39 -86 -75 -148t-71 -103q-106 -125 -249 -125h-181q-129 0 -129 112z" />
<glyph unicode="&#x41f;" horiz-adv-x="3112" d="M131 18q0 -18 27 -18h739q39 0 47 27l508 1132h625q-47 -104 -102.5 -228t-112 -251t-109.5 -246t-95 -211t-66 -149l-25 -56q0 -18 24 -18h740q37 0 49 27q602 1354 602 1359q0 18 -25 19h-2175q-35 0 -47 -27q-604 -1352 -604 -1360z" />
<glyph unicode="&#x420;" horiz-adv-x="2918" d="M129 18q0 -18 29 -18h735q37 0 49 27l506 1136h420q154 0 153 -92q0 -14 -10 -45q-27 -63 -113 -104q-76 -35 -153 -35h-264q-41 0 -49 -27l-84 -190q-2 -2 -2 -8q0 -18 26 -19h780q344 0 568 223q147 143 147 303q0 123 -106 187q-84 49 -219 49h-1760q-37 0 -49 -27 q-604 -1352 -604 -1360z" />
<glyph unicode="&#x421;" d="M145 375q0 -180 115 -283q106 -92 295 -92h1387q37 0 49 27l84 188q2 2 2 8q0 18 -27 19h-934q-139 0 -139 118q0 80 78 258l100 224q70 160 135 225q90 96 236 96h934q37 0 49 25l84 190q2 2 2 8q0 18 -27 19h-1388q-301 0 -574 -213q-246 -193 -383 -490 q-78 -178 -78 -327z" />
<glyph unicode="&#x422;" horiz-adv-x="2355" d="M170 1182q0 -18 29 -19h571q-508 -1143 -508 -1145q0 -18 25 -18h741q35 0 47 27l506 1136h592q37 0 49 25q86 193 86 198q0 18 -27 19h-1976q-37 0 -49 -27q-86 -195 -86 -196z" />
<glyph unicode="&#x423;" horiz-adv-x="2795" d="M119 1389q0 -6 5 -11.5t15 -15.5l803 -920l-332 -411q0 -31 52 -31h899q16 0 22 10l1135 1364q0 31 -49 31h-918q-18 0 -25 -10l-602 -752l-675 752q-6 6 -15.5 8t-19.5 2h-262q-33 0 -33 -16z" />
<glyph unicode="&#x424;" horiz-adv-x="3670" d="M119 879q0 -123 106 -187q82 -49 219 -49h832q-139 -311 -208 -468l-69 -157q0 -18 29 -18h735q37 0 49 27l506 1136h273q154 0 153 -92q0 -14 -10 -45q-27 -63 -113 -104q-76 -35 -153 -35h-117q-41 0 -49 -27l-84 -190q-2 -2 -2 -8q0 -18 27 -19h632q344 0 568 223 q147 143 147 303q0 123 -106 187q-84 49 -219 49h-1612q-37 0 -49 -27l-220 -491l-14 -2h-252q-154 0 -153 92q0 14 10 45q27 63 112 104q76 35 154 35h96q41 0 49 27l84 190q2 2 3 8q0 18 -27 19h-612q-344 0 -568 -223q-147 -145 -147 -303z" />
<glyph unicode="&#x425;" horiz-adv-x="3295" d="M119 16q0 -16 33 -16h262q18 0 35 10l796 527l330 -527q6 -10 24 -10h918q49 0 49 31q0 7 -414 669l1004 662q23 16 22 27q0 16 -32 16h-269q-18 0 -34 -10l-795 -527l-328 527q-6 10 -22 10h-924q-51 0 -51 -31q0 -4 416 -669l-1000 -662q-20 -14 -20 -27z" />
<glyph unicode="&#x426;" horiz-adv-x="3082" d="M92 18q0 -18 25 -18h1911q-98 -219 -99 -223q0 -18 27 -19h457q37 0 49 27l78 215h-213l12 27q301 672 452.5 1005.5t151.5 353.5q0 18 -27 19h-739q-39 0 -47 -27l-508 -1132h-625q45 102 101.5 227t113 252t109.5 246t95 211t66 148l25 56q0 18 -24 19h-740 q-37 0 -49 -27q-602 -1356 -602 -1360z" />
<glyph unicode="&#x427;" horiz-adv-x="2744" d="M94 809q0 -145 115 -217q96 -59 248 -60h997l-235 -530h778l626 1405h-780l-282 -633h-254q-35 0 -95.5 7t-119 21.5t-102.5 36t-44 50.5q0 41 21 84l194 434h-837l-189 -420q-8 -49 -24.5 -92t-16.5 -86z" />
<glyph unicode="&#x428;" horiz-adv-x="3964" d="M145 18q0 -18 27 -18h2996q37 0 49 27q602 1354 603 1359q0 18 -25 19h-739q-37 0 -50 -27l-505 -1134h-303q10 23 19 44t19 44q41 92 91.5 205.5t102.5 230.5t102.5 228.5t88 197.5t61.5 139l23 53q0 18 -24 19h-742q-37 0 -49 -27l-506 -1134h-329q37 82 89 198.5 t108.5 243.5t111.5 252t99 224.5t72 161.5l28 62q0 18 -25 19h-741q-35 0 -47 -27q-604 -1352 -605 -1360z" />
<glyph unicode="&#x429;" horiz-adv-x="3921" d="M98 18q0 -18 27 -18h2697q-98 -219 -98 -223q0 -18 26 -19h465q37 0 50 27l96 215h-193l2 27q602 1354 602 1359q0 18 -24 19h-739q-37 0 -50 -27l-505 -1134h-304q10 23 19.5 44t19.5 44q41 92 91.5 205.5t102.5 230.5t102 228.5t88 197.5t61 139l24 53q0 18 -24 19 h-742q-37 0 -49 -27l-506 -1134h-329q37 82 89 198.5t108.5 243.5t111.5 252t99 224.5t72 161.5l28 62q0 18 -25 19h-741q-35 0 -48 -27q-604 -1352 -604 -1360z" />
<glyph unicode="&#x42a;" horiz-adv-x="2650" d="M184 258q0 -129 92 -197q84 -59 218 -59h1370q209 0 391 117q184 117 270 303q41 94 41 178q0 145 -115 217q-96 59 -247 60h-787l-108 -242h270q135 0 135 -115q0 -41 -20 -84q-37 -86 -117 -139t-172 -53h-277q-135 0 -135 110q0 39 23 95l426 958h-1112q-41 0 -49 -27 l-84 -192q-2 -2 -2 -6q0 -18 26 -19h332l-334 -745q-35 -78 -35 -160z" />
<glyph unicode="&#x42b;" horiz-adv-x="3010" d="M152 258q0 -129 92 -197q84 -59 217 -59h1370q209 0 391 117q184 117 270 303q41 94 41 178q0 145 -114 217q-96 59 -248 60h-787l-108 -242h270q135 0 135 -115q0 -41 -20 -84q-37 -86 -117 -139t-172 -53h-276q-135 0 -135 110q0 39 22 95l426 958h-778l-445 -989 q-35 -78 -34 -160zM1911 1020q0 -12 28 -12h740q33 0 47 26q16 31 25.5 49.5t24.5 50t41 89t73 168.5v4q0 14 -25 14h-741q-33 0 -47 -27z" />
<glyph unicode="&#x42c;" horiz-adv-x="2611" d="M145 258q0 -129 93 -197q84 -59 217 -59h1370q209 0 391 117q184 117 270 303q41 94 41 178q0 145 -114 217q-96 59 -248 60h-787l-108 -242h270q135 0 135 -115q0 -41 -20 -84q-37 -86 -117 -139t-172 -53h-276q-135 0 -136 110q0 39 23 95l426 958h-778l-445 -989 q-35 -78 -35 -160z" />
<glyph unicode="&#x42d;" d="M121 18q0 -18 26 -18h1387q303 0 575 213q248 193 381 489q80 174 80 328q0 180 -114 283q-109 92 -295 92h-1387q-39 0 -51 -27l-84 -188q0 -6 -2 -8q0 -18 29 -19h931q141 0 142 -119q0 -84 -80 -258l-98 -223q-70 -160 -136 -225q-92 -96 -237 -96h-932q-41 0 -49 -25 l-84 -190q-2 -2 -2 -9zM408 662q0 -20 26 -21h987q35 0 47 27q86 193 86 198q0 18 -24 19h-987q-39 0 -47 -27q-88 -190 -88 -196z" />
<glyph unicode="&#x42e;" horiz-adv-x="4038" d="M145 18q0 -18 27 -18h739q35 0 47 27q82 180 151 334.5t128 289.5h199q-31 -78 -46.5 -144.5t-15.5 -131.5q0 -182 117 -283q106 -92 295 -92h1053q297 0 573 215q258 203 383 487q82 182 82 334q0 182 -117 279q-109 90 -297 90h-1053q-301 0 -575 -213 q-164 -127 -276 -303h-218q221 494 222 497q0 18 -25 19h-741q-35 0 -47 -27q-604 -1352 -605 -1360zM2183 354q0 86 82 264l100 224q35 78 67 133t60 88q88 100 230 100h180q152 0 152 -106q0 -61 -66 -215l-100 -224q-39 -86 -75 -148t-71 -103q-106 -125 -250 -125h-180 q-129 0 -129 112z" />
<glyph unicode="&#x42f;" horiz-adv-x="3100" d="M115 12q-1 -12 32 -12h779q10 0 20 2t17 8l626 695h160l63 155l5 10q0 16 -33 17h-264q-27 0 -53.5 5t-48 16.5t-36 29.5t-14.5 47q0 45 26.5 79t67.5 55.5t89 32.5t91 11h420l-487 -1136q-6 -10 -6 -15q0 -12 28 -12h736q31 0 49 18q0 2 147.5 342t433.5 1018q2 4 3.5 6 t1.5 7q0 14 -27 14h-1759q-45 0 -108.5 -14.5t-134.5 -43t-140.5 -68.5t-123.5 -90t-89 -111.5t-35 -129.5q0 -104 77 -169.5t201 -86.5q-182 -158 -310 -274.5t-212 -197.5t-128 -127t-56 -62q-8 -8 -8 -19z" />
<glyph unicode="&#x430;" horiz-adv-x="3371" d="M39 16q0 -16 33 -16h1573q39 0 47 27q86 193 86 196q0 18 -27 19h-1085l1011 669l584 -901q6 -10 25 -10h917q49 0 49 31q0 8 -844 1364q-10 10 -26 10h-217q-18 0 -35 -10l-2069 -1352q-23 -16 -22 -27z" />
<glyph unicode="&#x431;" horiz-adv-x="3094" d="M131 18q0 -18 27 -18h1761q193 0 381 123q186 123 266 301q37 80 37 151q0 106 -68.5 168t-185.5 93.5t-272.5 41t-329.5 9.5h-264q-39 0 -51 -27l-84 -190q0 -4 -2 -8q0 -18 28 -19h264q123 0 123 -111q0 -109 -96 -200q-96 -90 -205 -90h-420l410 921h1417l107 242 h-2190q-41 0 -49 -27q-604 -1352 -604 -1360z" />
<glyph unicode="&#x432;" horiz-adv-x="3004" d="M129 18q0 -18 27 -18h1761q193 0 381 123q186 123 266 301q37 80 37 151q0 109 -80 181q137 63 232 162q113 119 112 249q0 121 -104 187q-88 51 -219 51h-1760q-41 0 -49 -27q-604 -1352 -604 -1360zM1038 242l410 921h420q153 0 153 -92q0 -18 -10 -45 q-31 -66 -113 -104q-76 -35 -153 -35h-264q-39 0 -51 -27l-84 -190q0 -4 -3 -8q0 -18 29 -19h264q123 0 123 -111q0 -109 -96 -200q-96 -90 -205 -90h-420z" />
<glyph unicode="&#x433;" horiz-adv-x="2803" d="M115 18q0 -18 26 -18h781q37 0 49 27l362 815q70 160 135 225q92 96 238 96h932q37 0 49 25l84 190q2 2 2 8q0 18 -27 19h-1386q-287 0 -553 -201q-250 -188 -373 -465q-319 -717 -319 -721z" />
<glyph unicode="&#x434;" horiz-adv-x="3575" d="M45 16q0 -16 33 -16h3256q39 0 47 27q86 193 86 196q0 18 -26 19h-312q-100 162 -276 446.5t-438 706.5q-10 10 -27 10h-217q-18 0 -35 -10l-2068 -1352q-23 -16 -23 -27zM672 242l1011 669l435 -669h-1446z" />
<glyph unicode="&#x435;" d="M145 375q0 -180 115 -283q106 -92 295 -92h1387q39 0 51 27l84 188q0 6 2 8q0 18 -29 19h-932q-141 0 -141 118q0 82 80 258l98 224q70 160 135 225q92 96 238 96h932q39 0 49 25l84 190q2 2 2 8q0 18 -27 19h-1386q-303 0 -576 -213q-248 -193 -381 -490 q-80 -176 -80 -327zM1219 662q0 -18 24 -19h987q39 0 47 27q88 190 88 196q0 20 -26 21h-987q-35 0 -47 -27q-86 -195 -86 -198z" />
<glyph unicode="&#x436;" horiz-adv-x="4855" d="M147 16q0 -16 33 -16h496q12 0 24 6l1192 752q16 6 23 20l76 168l-2 15l-516 434q-6 10 -25 10h-782q-49 0 -50 -31l633 -618l-1071 -709q-31 -16 -31 -31zM1706 18q0 -18 27 -18h739q39 0 47 27q604 1352 604 1359q0 18 -24 19h-742q-35 0 -47 -27 q-604 -1352 -604 -1360zM2939 705l2 -15l442 -680q6 -10 25 -10h782q49 0 49 31q0 6 -581 864l1020 463q31 14 30 31q0 16 -32 16h-496q-12 0 -25 -6l-1118 -506q-16 -6 -22 -21z" />
<glyph unicode="&#x437;" horiz-adv-x="2871" d="M125 18q0 -18 27 -18h1636q190 0 371 115q178 115 262 295q37 80 37 157q-1 102 -64 172q135 61 229 162q111 119 111 248q0 135 -125 203q-100 53 -248 53h-1583q-41 0 -49 -27l-86 -190v-8q0 -18 27 -19h1069q57 0 96 -20q53 -25 53 -76q0 -23 -12 -49 q-16 -35 -44 -54.5t-69 -39.5q-74 -35 -153 -35h-518q-41 0 -50 -27l-86 -192q0 -4 -2 -6q0 -18 29 -19h518q63 0 95 -32.5t32 -88.5q0 -104 -96 -194q-96 -86 -205 -86h-1067q-37 0 -49 -27l-84 -190q-2 -2 -2 -7z" />
<glyph unicode="&#x438;" horiz-adv-x="3112" d="M131 18q0 -18 27 -18h739q39 0 47 27l1081 1036q-47 -104 -98 -221t-102 -232.5t-98.5 -222t-82 -188.5t-56.5 -131l-21 -50q0 -18 24 -18h740q37 0 49 27q602 1354 602 1359q0 18 -25 19h-739q-16 0 -26.5 -6t-20.5 -17v-2l-2 -2l-1041 -938q37 82 82 184.5t92.5 207 t91.5 205t78.5 177t55.5 124.5l20 48q0 18 -24 19h-742q-35 0 -47 -27q-604 -1352 -604 -1360z" />
<glyph unicode="&#x439;" horiz-adv-x="3028" d="M76 18q0 -18 26 -18h740q39 0 47 27l1081 1036q-47 -104 -98 -221t-102.5 -232.5t-98.5 -222t-82 -188.5t-57 -131l-21 -50q0 -18 25 -18h739q37 0 49 27q602 1354 603 1359q0 18 -25 19h-739q-16 0 -26.5 -6t-20.5 -17v-2l-2 -2l-1041 -938q37 82 82 184.5t92 207 t91 205t79 177t55 124.5l21 48q0 18 -25 19h-741q-35 0 -47 -27q-604 -1352 -604 -1360zM1604 1589h28q72 109 133 109q33 0 111 -56q76 -55 141 -55q88 0 164 64q68 55 105 141h-29q-72 -109 -137 -109q-35 0 -113 54q-78 55 -139 55q-170 0 -264 -203z" />
<glyph unicode="&#x43a;" horiz-adv-x="3260" d="M135 18q0 -18 27 -18h739q39 0 47 27q604 1352 604 1359q0 18 -24 19h-742q-35 0 -47 -27q-604 -1352 -604 -1360zM1368 705l2 -15l442 -680q6 -10 25 -10h782q49 0 50 31q0 6 -582 864l1020 463q31 14 31 31q0 16 -33 16h-496q-12 0 -24 -6l-1119 -506q-16 -6 -22 -21z " />
<glyph unicode="&#x43b;" horiz-adv-x="3371" d="M39 0q0 -4 24.5 -5t61.5 -1q63 0 101 1t58.5 2t26.5 2t8 1l1358 911l584 -901q6 -10 25 -10h917q49 0 49 31q0 8 -844 1364q-10 10 -26 10h-217q-18 0 -35 -10l-2069 -1368q-23 -16 -22 -27z" />
<glyph unicode="&#x43c;" horiz-adv-x="3586" d="M139 18q0 -18 29 -18h283q37 0 49 27l243 548l459 -567q10 -10 98 -10q72 0 91 12l886 565q-246 -553 -245 -557q0 -18 28 -18h736q37 0 49 27q604 1352 604 1359q0 18 -29 19h-268q-16 0 -33 -10l-1440 -906l-559 906q-10 10 -26 10h-301q-37 0 -50 -27 q-604 -1352 -604 -1360z" />
<glyph unicode="&#x43d;" horiz-adv-x="3112" d="M131 18q0 -18 27 -18h739q39 0 47 27l275 616h624q-276 -621 -276 -625q0 -18 24 -18h740q37 0 49 27q602 1354 602 1359q0 18 -25 19h-739q-37 0 -49 -27l-219 -491h-623q221 494 221 499q0 18 -24 19h-742q-35 0 -47 -27q-604 -1352 -604 -1360z" />
<glyph unicode="&#x43e;" horiz-adv-x="2795" d="M145 375q0 -182 117 -283q106 -92 295 -92h1053q297 0 573 215q258 203 383 487q82 182 82 334q0 182 -117 279q-109 90 -297 90h-1052q-301 0 -576 -213q-252 -197 -381 -490q-80 -182 -80 -327zM954 354q0 86 82 264l101 224q35 78 66.5 133t60.5 88q88 100 229 100 h180q152 0 152 -106q0 -61 -66 -215l-100 -224q-39 -86 -75 -148t-71 -103q-106 -125 -249 -125h-181q-129 0 -129 112z" />
<glyph unicode="&#x43f;" horiz-adv-x="3112" d="M131 18q0 -18 27 -18h739q39 0 47 27l508 1132h625q-47 -104 -102.5 -228t-112 -251t-109.5 -246t-95 -211t-66 -149l-25 -56q0 -18 24 -18h740q37 0 49 27q602 1354 602 1359q0 18 -25 19h-2175q-35 0 -47 -27q-604 -1352 -604 -1360z" />
<glyph unicode="&#x440;" horiz-adv-x="2918" d="M129 18q0 -18 29 -18h735q37 0 49 27l506 1136h420q154 0 153 -92q0 -14 -10 -45q-27 -63 -113 -104q-76 -35 -153 -35h-264q-41 0 -49 -27l-84 -190q-2 -2 -2 -8q0 -18 26 -19h780q344 0 568 223q147 143 147 303q0 123 -106 187q-84 49 -219 49h-1760q-37 0 -49 -27 q-604 -1352 -604 -1360z" />
<glyph unicode="&#x441;" d="M145 375q0 -180 115 -283q106 -92 295 -92h1387q37 0 49 27l84 188q2 2 2 8q0 18 -27 19h-934q-139 0 -139 118q0 80 78 258l100 224q70 160 135 225q90 96 236 96h934q37 0 49 25l84 190q2 2 2 8q0 18 -27 19h-1388q-301 0 -574 -213q-246 -193 -383 -490 q-78 -178 -78 -327z" />
<glyph unicode="&#x442;" horiz-adv-x="2355" d="M170 1182q0 -18 29 -19h571q-508 -1143 -508 -1145q0 -18 25 -18h741q35 0 47 27l506 1136h592q37 0 49 25q86 193 86 198q0 18 -27 19h-1976q-37 0 -49 -27q-86 -195 -86 -196z" />
<glyph unicode="&#x443;" horiz-adv-x="2795" d="M119 1389q0 -6 5 -11.5t15 -15.5l803 -920l-332 -411q0 -31 52 -31h899q16 0 22 10l1135 1364q0 31 -49 31h-918q-18 0 -25 -10l-602 -752l-675 752q-6 6 -15.5 8t-19.5 2h-262q-33 0 -33 -16z" />
<glyph unicode="&#x444;" horiz-adv-x="3670" d="M119 879q0 -123 106 -187q82 -49 219 -49h832q-139 -311 -208 -468l-69 -157q0 -18 29 -18h735q37 0 49 27l506 1136h273q154 0 153 -92q0 -14 -10 -45q-27 -63 -113 -104q-76 -35 -153 -35h-117q-41 0 -49 -27l-84 -190q-2 -2 -2 -8q0 -18 27 -19h632q344 0 568 223 q147 143 147 303q0 123 -106 187q-84 49 -219 49h-1612q-37 0 -49 -27l-220 -491l-14 -2h-252q-154 0 -153 92q0 14 10 45q27 63 112 104q76 35 154 35h96q41 0 49 27l84 190q2 2 3 8q0 18 -27 19h-612q-344 0 -568 -223q-147 -145 -147 -303z" />
<glyph unicode="&#x445;" horiz-adv-x="3295" d="M119 16q0 -16 33 -16h262q18 0 35 10l796 527l330 -527q6 -10 24 -10h918q49 0 49 31q0 7 -414 669l1004 662q23 16 22 27q0 16 -32 16h-269q-18 0 -34 -10l-795 -527l-328 527q-6 10 -22 10h-924q-51 0 -51 -31q0 -4 416 -669l-1000 -662q-20 -14 -20 -27z" />
<glyph unicode="&#x446;" horiz-adv-x="3082" d="M92 18q0 -18 25 -18h1911q-98 -219 -99 -223q0 -18 27 -19h457q37 0 49 27l78 215h-213l12 27q301 672 452.5 1005.5t151.5 353.5q0 18 -27 19h-739q-39 0 -47 -27l-508 -1132h-625q45 102 101.5 227t113 252t109.5 246t95 211t66 148l25 56q0 18 -24 19h-740 q-37 0 -49 -27q-602 -1356 -602 -1360z" />
<glyph unicode="&#x447;" horiz-adv-x="2744" d="M94 809q0 -145 115 -217q96 -59 248 -60h997l-235 -530h778l626 1405h-780l-282 -633h-254q-35 0 -95.5 7t-119 21.5t-102.5 36t-44 50.5q0 41 21 84l194 434h-837l-189 -420q-8 -49 -24.5 -92t-16.5 -86z" />
<glyph unicode="&#x448;" horiz-adv-x="3964" d="M145 18q0 -18 27 -18h2996q37 0 49 27q602 1354 603 1359q0 18 -25 19h-739q-37 0 -50 -27l-505 -1134h-303q10 23 19 44t19 44q41 92 91.5 205.5t102.5 230.5t102.5 228.5t88 197.5t61.5 139l23 53q0 18 -24 19h-742q-37 0 -49 -27l-506 -1134h-329q37 82 89 198.5 t108.5 243.5t111.5 252t99 224.5t72 161.5l28 62q0 18 -25 19h-741q-35 0 -47 -27q-604 -1352 -605 -1360z" />
<glyph unicode="&#x449;" horiz-adv-x="3921" d="M98 18q0 -18 27 -18h2697q-98 -219 -98 -223q0 -18 26 -19h465q37 0 50 27l96 215h-193l2 27q602 1354 602 1359q0 18 -24 19h-739q-37 0 -50 -27l-505 -1134h-304q10 23 19.5 44t19.5 44q41 92 91.5 205.5t102.5 230.5t102 228.5t88 197.5t61 139l24 53q0 18 -24 19 h-742q-37 0 -49 -27l-506 -1134h-329q37 82 89 198.5t108.5 243.5t111.5 252t99 224.5t72 161.5l28 62q0 18 -25 19h-741q-35 0 -48 -27q-604 -1352 -604 -1360z" />
<glyph unicode="&#x44a;" horiz-adv-x="2650" d="M184 258q0 -129 92 -197q84 -59 218 -59h1370q209 0 391 117q184 117 270 303q41 94 41 178q0 145 -115 217q-96 59 -247 60h-787l-108 -242h270q135 0 135 -115q0 -41 -20 -84q-37 -86 -117 -139t-172 -53h-277q-135 0 -135 110q0 39 23 95l426 958h-1112q-41 0 -49 -27 l-84 -192q-2 -2 -2 -6q0 -18 26 -19h332l-334 -745q-35 -78 -35 -160z" />
<glyph unicode="&#x44b;" horiz-adv-x="3010" d="M152 258q0 -129 92 -197q84 -59 217 -59h1370q209 0 391 117q184 117 270 303q41 94 41 178q0 145 -114 217q-96 59 -248 60h-787l-108 -242h270q135 0 135 -115q0 -41 -20 -84q-37 -86 -117 -139t-172 -53h-276q-135 0 -135 110q0 39 22 95l426 958h-778l-445 -989 q-35 -78 -34 -160zM1911 1020q0 -12 28 -12h740q33 0 47 26q16 31 25.5 49.5t24.5 50t41 89t73 168.5v4q0 14 -25 14h-741q-33 0 -47 -27z" />
<glyph unicode="&#x44c;" horiz-adv-x="2611" d="M145 258q0 -129 93 -197q84 -59 217 -59h1370q209 0 391 117q184 117 270 303q41 94 41 178q0 145 -114 217q-96 59 -248 60h-787l-108 -242h270q135 0 135 -115q0 -41 -20 -84q-37 -86 -117 -139t-172 -53h-276q-135 0 -136 110q0 39 23 95l426 958h-778l-445 -989 q-35 -78 -35 -160z" />
<glyph unicode="&#x44d;" d="M121 18q0 -18 26 -18h1387q303 0 575 213q248 193 381 489q80 174 80 328q0 180 -114 283q-109 92 -295 92h-1387q-39 0 -51 -27l-84 -188q0 -6 -2 -8q0 -18 29 -19h931q141 0 142 -119q0 -84 -80 -258l-98 -223q-70 -160 -136 -225q-92 -96 -237 -96h-932q-41 0 -49 -25 l-84 -190q-2 -2 -2 -9zM408 662q0 -20 26 -21h987q35 0 47 27q86 193 86 198q0 18 -24 19h-987q-39 0 -47 -27q-88 -190 -88 -196z" />
<glyph unicode="&#x44e;" horiz-adv-x="4038" d="M145 18q0 -18 27 -18h739q35 0 47 27q82 180 151 334.5t128 289.5h199q-31 -78 -46.5 -144.5t-15.5 -131.5q0 -182 117 -283q106 -92 295 -92h1053q297 0 573 215q258 203 383 487q82 182 82 334q0 182 -117 279q-109 90 -297 90h-1053q-301 0 -575 -213 q-164 -127 -276 -303h-218q221 494 222 497q0 18 -25 19h-741q-35 0 -47 -27q-604 -1352 -605 -1360zM2183 354q0 86 82 264l100 224q35 78 67 133t60 88q88 100 230 100h180q152 0 152 -106q0 -61 -66 -215l-100 -224q-39 -86 -75 -148t-71 -103q-106 -125 -250 -125h-180 q-129 0 -129 112z" />
<glyph unicode="&#x44f;" horiz-adv-x="3100" d="M115 12q-1 -12 32 -12h779q10 0 20 2t17 8l626 695h160l63 155l5 10q0 16 -33 17h-264q-27 0 -53.5 5t-48 16.5t-36 29.5t-14.5 47q0 45 26.5 79t67.5 55.5t89 32.5t91 11h420l-487 -1136q-6 -10 -6 -15q0 -12 28 -12h736q31 0 49 18q0 2 147.5 342t433.5 1018q2 4 3.5 6 t1.5 7q0 14 -27 14h-1759q-45 0 -108.5 -14.5t-134.5 -43t-140.5 -68.5t-123.5 -90t-89 -111.5t-35 -129.5q0 -104 77 -169.5t201 -86.5q-182 -158 -310 -274.5t-212 -197.5t-128 -127t-56 -62q-8 -8 -8 -19z" />
<glyph unicode="&#x451;" horiz-adv-x="2631" d="M104 375q0 -180 115 -283q106 -92 295 -92h1387q39 0 51 27l84 188q0 6 2 8q0 18 -29 19h-932q-141 0 -141 118q0 82 80 258l98 224q70 160 135 225q92 96 238 96h932q39 0 49 25l84 190q2 2 2 8q0 18 -27 19h-1386q-303 0 -576 -213q-248 -193 -381 -490 q-80 -176 -80 -327zM1178 662q0 -18 24 -19h987q39 0 47 27q88 190 88 196q0 20 -26 21h-987q-35 0 -47 -27q-86 -195 -86 -198zM1479 1509q-1 -55 69 -55q51 0 101 37q49 39 49 86q0 57 -70 57q-49 0 -100 -39q-49 -37 -49 -86zM1808 1509q0 -55 72 -55q49 0 98 37 q51 39 52 86q0 57 -70 57q-53 0 -98 -37q-53 -41 -54 -88z" />
<glyph unicode="&#x454;" d="M145 375q0 -180 115 -283q106 -92 295 -92h1387q39 0 51 27l84 188q0 6 2 8q0 18 -29 19h-932q-141 0 -141 118q0 82 80 258l98 224q70 160 135 225q92 96 238 96h932q39 0 49 25l84 190q2 2 2 8q0 18 -27 19h-1386q-303 0 -576 -213q-248 -193 -381 -490 q-80 -176 -80 -327zM1219 662q0 -18 24 -19h987q39 0 47 27q88 190 88 196q0 20 -26 21h-987q-35 0 -47 -27q-86 -195 -86 -198z" />
<glyph unicode="&#x455;" horiz-adv-x="2615" d="M109 18q0 -18 28 -18h1180q283 0 500 63q328 94 327 302q0 150 -188 325l-506 473h915q37 0 50 25l84 190q2 2 2 8q0 18 -27 19h-1251q-117 0 -234 -25q-92 -20 -171 -53t-148 -78q-176 -117 -176 -272q0 -137 147 -268l512 -467h-909q-37 0 -49 -27l-84 -188q0 -6 -2 -9 z" />
<glyph unicode="&#x456;" horiz-adv-x="1556" d="M70 18q0 -18 26 -18h740q35 0 47 27q604 1352 604 1359q0 18 -25 19h-741q-35 0 -47 -27q-604 -1352 -604 -1360z" />
<glyph unicode="&#x458;" horiz-adv-x="2689" d="M31 18q0 -18 26 -18h1289q285 0 552 201q246 184 371 463q319 715 320 722q0 18 -27 19h-780q-37 0 -49 -27l-363 -815q-70 -160 -135 -225q-90 -96 -236 -96h-833q-37 0 -49 -27l-84 -188q-2 -2 -2 -9z" />
<glyph unicode="&#x2000;" horiz-adv-x="896" />
<glyph unicode="&#x2001;" horiz-adv-x="1792" />
<glyph unicode="&#x2002;" horiz-adv-x="896" />
<glyph unicode="&#x2003;" horiz-adv-x="1792" />
<glyph unicode="&#x2004;" horiz-adv-x="597" />
<glyph unicode="&#x2005;" horiz-adv-x="448" />
<glyph unicode="&#x2006;" horiz-adv-x="298" />
<glyph unicode="&#x2007;" horiz-adv-x="298" />
<glyph unicode="&#x2008;" horiz-adv-x="224" />
<glyph unicode="&#x2009;" horiz-adv-x="358" />
<glyph unicode="&#x200a;" horiz-adv-x="99" />
<glyph unicode="&#x2010;" horiz-adv-x="937" d="M135 539q0 -18 25 -19h512q37 0 49 27q86 193 86 196q0 20 -27 21h-512q-35 0 -47 -27q-86 -195 -86 -198z" />
<glyph unicode="&#x2011;" horiz-adv-x="937" d="M135 539q0 -18 25 -19h512q37 0 49 27q86 193 86 196q0 20 -27 21h-512q-35 0 -47 -27q-86 -195 -86 -198z" />
<glyph unicode="&#x2012;" horiz-adv-x="937" d="M135 539q0 -18 25 -19h512q37 0 49 27q86 193 86 196q0 20 -27 21h-512q-35 0 -47 -27q-86 -195 -86 -198z" />
<glyph unicode="&#x2013;" horiz-adv-x="722" d="M141 535q0 -12 13 -13h315q20 0 33 27q82 188 86 192v7q0 12 -13 12h-315q-25 0 -33 -25q-86 -190 -86 -194v-6z" />
<glyph unicode="&#x2014;" horiz-adv-x="987" d="M160 539q0 -18 24 -19h512q37 0 49 27q86 193 86 196q0 20 -26 21h-512q-35 0 -47 -27q-86 -195 -86 -198z" />
<glyph unicode="&#x2018;" horiz-adv-x="815" d="M143 1282q0 -45 27 -143q4 -16 6 -31.5t6 -32.5q12 -43 37 -43h109q27 0 43 17.5t18 89.5v90h96q39 0 79 32.5t57 71.5l120 273q12 25 13 49q0 55 -56 55h-305q-41 0 -80 -31.5t-57 -72.5l-72 -158q-16 -53 -28.5 -92t-12.5 -74z" />
<glyph unicode="&#x2019;" horiz-adv-x="821" d="M131 1286q0 -57 53 -57h97l-80 -90q-61 -72 -62 -90q0 -16 29 -17h106q23 0 76 43q16 16 33.5 31.5t34.5 32.5q57 49 95 82.5t54 54.5q68 74 111 172l72 158q10 27 10 49q0 55 -53 55h-308q-41 0 -79.5 -31.5t-57.5 -72.5l-121 -273q-10 -27 -10 -47z" />
<glyph unicode="&#x201c;" horiz-adv-x="1480" d="M168 1282q0 -45 27 -143q4 -16 6 -31.5t6 -32.5q12 -43 37 -43h108q27 0 43.5 17.5t18.5 89.5v90h96q39 0 79 32.5t56 71.5l121 273q12 25 12 49q0 55 -55 55h-305q-41 0 -80 -31.5t-57 -72.5l-72 -158q-6 -49 -23.5 -90t-17.5 -76zM752 1282q0 -45 26 -143 q4 -16 6 -31.5t7 -32.5q11 -43 36 -43h109q27 0 43 17.5t18 89.5v90h97q39 0 78.5 32.5t56.5 71.5l121 273q12 25 12 49q0 55 -55 55h-306q-41 0 -79.5 -31.5t-57.5 -72.5l-71 -158q-10 -47 -25.5 -89t-15.5 -77z" />
<glyph unicode="&#x201d;" horiz-adv-x="1490" d="M162 1286q0 -57 53 -57h96l-80 -90q-61 -72 -61 -90q0 -16 29 -17h106q23 0 76 43q16 16 33.5 31.5t34.5 32.5q57 49 95 82.5t54 54.5q68 74 111 172l71 158q10 27 11 49q0 55 -54 55h-307q-41 0 -80 -31.5t-57 -72.5l-121 -273q-10 -27 -10 -47zM745 1286q0 -57 54 -57 h96l-80 -90q-61 -72 -61 -90q0 -16 28 -17h107q23 0 76 43q16 16 33.5 31.5t33.5 32.5q57 49 95 82.5t55 54.5q68 74 110 172l72 158q10 27 10 49q0 55 -53 55h-307q-41 0 -80 -31.5t-57 -72.5l-121 -273q-10 -27 -11 -47z" />
<glyph unicode="&#x2022;" horiz-adv-x="987" d="M53 391l328 168l188 -160l62 306l317 208l-291 21v289l-231 -293l-313 -31l143 -201z" />
<glyph unicode="&#x2026;" horiz-adv-x="2039" d="M166 57q0 -57 55 -57h307q37 0 82 35q37 31 56 69l120 273q10 27 11 49q0 55 -54 55h-307q-41 0 -80 -31.5t-57 -72.5l-121 -273q-12 -25 -12 -47zM705 57q0 -57 53 -57h307q41 0 81 34t56 70l121 273q10 27 10 49q0 55 -53 55h-307q-41 0 -80 -31.5t-57 -72.5l-121 -273 q-10 -27 -10 -47zM1241 57q0 -57 53 -57h308q41 0 80.5 28.5t56.5 75.5l121 273q12 25 12 49q0 55 -55 55h-308q-39 0 -78.5 -31.5t-58.5 -72.5l-121 -273q-10 -27 -10 -47z" />
<glyph unicode="&#x202f;" horiz-adv-x="358" />
<glyph unicode="&#x205f;" horiz-adv-x="448" />
<glyph unicode="&#x25fc;" horiz-adv-x="1402" d="M0 0v1403h1403v-1403h-1403z" />
</font>
</defs>
</svg>
