<?xml version="1.0" standalone="no"?>
<!DOCTYPE svg PUBLIC "-//W3C//DTD SVG 1.1//EN" "http://www.w3.org/Graphics/SVG/1.1/DTD/svg11.dtd" >
<svg xmlns="http://www.w3.org/2000/svg">
<metadata></metadata>
<defs>
<font id="heinrich_textregular" horiz-adv-x="1085" >
<font-face units-per-em="2048" ascent="1638" descent="-410" />
<missing-glyph horiz-adv-x="772" />
<glyph horiz-adv-x="0" />
<glyph unicode="&#xd;" horiz-adv-x="755" />
<glyph unicode=" "  horiz-adv-x="772" />
<glyph unicode="&#x09;" horiz-adv-x="772" />
<glyph unicode="&#xa0;" horiz-adv-x="772" />
<glyph unicode="!" horiz-adv-x="558" d="M141 180q0 43 61 109q39 38 64 38q26 0 34 -15q2 -5 6 -14t10 -25q5 -11 70 -89q11 -13 14 -11q56 -2 57 -39q0 -50 -73 -108q-39 -33 -72 -33q-59 0 -123 85q-48 63 -48 102zM171 872q0 310 40 501q9 50 55 82q20 14 96 39q54 20 70 20q48 0 48 -39q0 -4 -25 -50 q-11 -22 -17 -36t-8 -23q-46 -202 -46 -514q0 -232 26 -306q13 -39 13 -45q0 -37 -43 -74q-39 -36 -76 -36q-54 0 -88 125q-45 171 -45 356z" />
<glyph unicode="&#x22;" horiz-adv-x="697" d="M95 1507h194l-46 -620h-104zM405 1507h196l-46 -620h-104z" />
<glyph unicode="#" d="M20 505l28 143h241l36 200h-238l24 143h241l93 495h119l-93 -495h249l91 495h119l-93 -495h239l-28 -143h-239l-36 -200h236l-27 -143h-236l-96 -505h-116l93 505h-247l-96 -505h-118l96 505h-242zM405 648h250l37 200h-249z" />
<glyph unicode="$" horiz-adv-x="1037" d="M89 1130q0 50 36 93l77 72q39 50 63 77t28 31q41 34 141 43q22 3 84 7q3 63 7 83q7 22 37 74q22 41 47 41q39 0 39 -39q0 -11 -5 -30.5t-10.5 -41.5t-10 -45.5t-4.5 -39.5h37q341 0 341 -116q0 -36 -28 -66l-36 -43q-13 -13 -57 -107q-18 -34 -55 -34q-43 0 -43 39 q0 18 23 47q23 30 23 39q0 37 -207 46q-4 -98 -6.5 -198.5t-4.5 -204.5q245 -126 289 -157q86 -73 86 -177q0 -123 -130 -293q-123 -161 -241 -226v-63l3 -48q-23 -27 -55 -77q-18 -35 -36 -35q-37 0 -37 48q0 16 2 28v147q-115 46 -234 185q-132 145 -131 256q0 46 74 98 q9 9 33 33.5t67 61.5q22 22 55 24q43 0 43 -42q0 -22 -24 -43l-28 -22q-18 -18 -18 -30q0 -34 74 -152q23 -37 48.5 -65t52.5 -54q3 109 4 214t1 207q-282 161 -373 330q-41 75 -41 125zM280 1207q0 -137 234 -296q2 55 2 97v74v75.5t-2 104.5q-22 -2 -50 -2t-62 -2 q-123 -11 -122 -51zM596 286q2 -102 40 -102q89 0 151 139q22 48 22 104q0 74 -84 130q-35 22 -122 68q-2 -70 -3.5 -122t-1.5 -89v-129t-2 1z" />
<glyph unicode="%" horiz-adv-x="1377" d="M100 1282q0 46 52 84q34 23 91 89q43 55 280 55q221 0 221 -169q0 -91 -50 -218q-44 -118 -98 -203q-100 -154 -191 -154q-111 0 -203 173q-16 30 -32 72.5t-33 99.5q-37 111 -37 171zM118 -9q0 20 25 59q61 98 191 303.5t330 524.5l258 413q50 80 79 123t34 50 q11 13 56 39q46 25 66 24q36 0 36 -36q0 -5 -89 -116q-86 -116 -95 -134q-18 -28 -49.5 -79t-81.5 -127q-50 -78 -157 -253t-276 -452q-50 -76 -161 -269q-28 -50 -45 -57q-48 -17 -55 -24q-20 -13 -36 -14q-30 0 -30 25zM254 1298q0 -128 87 -282q50 -91 104 -90 q70 0 119 141q39 115 39 200q0 54 -27.5 72.5t-113.5 18.5q-155 0 -189 -17q-18 -11 -19 -43zM642 514q0 45 76 106q16 18 37.5 41t53.5 53q50 30 254 30q219 0 219 -167q0 -80 -30 -175q-37 -128 -113 -248q-100 -154 -198 -154q-102 0 -202 182q-36 66 -66 165 q-33 109 -31 167zM796 529q0 -143 93 -295q43 -75 100 -75q68 0 115 143q39 121 39 203q0 46 -17 63q-30 26 -148 26q-126 0 -167 -21q-15 -7 -15 -44z" />
<glyph unicode="&#x26;" horiz-adv-x="2729" d="M178 -221v2228h2354v-2228q-34 -375 -261 -480.5t-497.5 -144.5t-415.5 -154h-5q-145 115 -416 154t-498.5 144.5t-260.5 480.5zM236 521l14 -37q13 7 17 23t21.5 22.5t28 14t9.5 23t-16 26t-36.5 3t-28 -20.5t-9.5 -54zM290.5 619q4.5 -10 28.5 -22.5t22 -43t8.5 -48 t36.5 -14t41.5 23t50 34.5t47.5 3.5t-26 -29.5t-45.5 -36.5t4 -35.5t33.5 11.5t54.5 18.5t28.5 -51.5t23 -38t45.5 25t16 50t41.5 60.5t127 52q-32 -43 -24 -82.5t25.5 -9t51.5 51t44.5 18.5t10.5 -21.5t2 -37.5t45.5 21.5t112.5 53t112 -32t117.5 -55.5t125.5 -53.5 t65.5 -34t26 -59.5t-34 -139.5t-31 -173.5t-9.5 -129t-64.5 -20t-36 30t18.5 40.5t-16 13.5t-47 -31.5t-8 -65t40.5 -47.5t-10 -41.5t-28 -90t60 -88t51 -59t-32.5 -42t-23 -24t46.5 0t39 44t-26 77t-20.5 79t83.5 89t74 106.5t8 47.5t21.5 -54.5t70.5 -61t103 9t70.5 -26.5 t4 -120.5t-50 -87t-72.5 -72.5t-108 -56.5t-86.5 -26.5t22 -43.5t35 -67t58.5 -41t89.5 67t55.5 80.5t49 7t-13 -34t-31.5 -35t10 -19.5t27 19.5t40 11t17.5 -35.5t30.5 -27t53 29t4.5 71.5t27.5 62t44 74t16 84t49 2.5t87.5 -12.5t81 49t30.5 67t-39 -5t-90 -7.5t-41 76.5 t-4.5 64t49.5 30.5t95.5 89t77 80.5t60 -9t23 0t-10 53.5t-74 45.5t-93 -25t-63.5 -76t-64 -38t-68.5 60.5t-95.5 25t-102 13.5t-15 128.5q70 -82 149 -88.5t141.5 36.5t142 31.5t116 24t42 72.5t-16 60t-31 17.5t1 -41.5t-28.5 -50t-94.5 -7.5t-51 29.5t-3 45.5t28.5 47.5 t12 124t15 136.5t68.5 22.5t24 -68t25 -37t36.5 70.5t-37.5 104.5t-110.5 27t-84.5 -77.5t-27.5 -46.5t-7.5 57t97 108t107.5 117t-12 94.5t-65.5 32t-70.5 -36.5q61 -13 55.5 -57.5t-78 -87t-93 -98t-33 -5.5t24 142.5t108 169.5t135 78t100 39t23 76t-14.5 84.5t-20.5 23 t-14 -64.5t-26 -58t-49 -7t18 77.5t30.5 158.5t-36.5 162.5t-6.5 97.5t71.5 45.5t58.5 57.5t-5.5 51t-47 -17.5t-75 -28.5t-79.5 -95q-91 54 -184.5 39t-146.5 -110.5t-3 -228t57.5 -213.5t-28.5 -100.5t-64.5 -8t-37.5 -16.5t22.5 -57t93 -9.5t82 64t9 73.5t46.5 17t81 39 t22 80.5t-33.5 0t-70.5 2t-52 78.5t-8.5 59.5t43.5 -3.5t70.5 19.5t23.5 78t-30.5 9t-70.5 -8.5t-36 82.5t86.5 63.5t122.5 -85t32 -209t-127.5 -254.5t-144.5 -209.5t-44 -132.5t-24 -30.5t-37.5 48.5t-62.5 -3t-23 -30t45.5 -24t41 -130.5t59.5 -199.5t143 -89.5 q18 -73 -5 -109t-76 -44t-105 29t-55.5 101t-28.5 118.5t-83.5 106.5t-77.5 94.5t-27 34.5t-19.5 -34t-35.5 -43.5t-39.5 -10.5t-3.5 40t-9.5 62.5t-25 17.5t-14.5 -62.5t-61 -69.5t-59.5 -11t4.5 25t10.5 69t-57.5 91q-34 -80 -61.5 -103.5t-70.5 -30.5t-57 -24 t-33.5 -22.5t-38.5 30.5t-20 80.5t12 83.5q-56 -18 -88.5 -12.5t-68.5 -5t-55.5 -33.5t-35.5 4t-6 96q-166 -145 -218.5 -165.5t-79.5 11t-23.5 52t-10.5 42.5t-33.5 18.5t-27 -1.5t-30.5 20.5t-47 20.5t-41 -8t-11 -13.5t11.5 -2.5t19 -14.5t28.5 -22t34.5 1t21.5 1 t-16.5 -15t-47.5 -1t-34.5 -19.5t16 -41.5t37 -10t20 -10.5t19.5 -28t-9 -20.5t-39 4.5t-41 10.5t-34 -16.5t-3.5 -25zM293 1783q13 -11 35 -17.5t32.5 -24.5t25 -20.5t-1 -15.5t-22 -28.5t21.5 -41.5q59 16 76 -46t-7 -79q-61 22 -77 8.5t-15 -21.5t27 -17t31.5 -44 t-24.5 -52l2 -15q28 -28 52 -31.5t30.5 14t24 32.5t42.5 16t37.5 -13t13.5 -39t8 -31.5t28.5 -42t68 -38t107.5 29.5t89 28.5t54 -26.5t37 -16.5t-44.5 66.5t-64 103t9 91t4 66t-27.5 17t-6 -27t-19 -42t-29.5 -41t-13.5 -28l-75 87q-14 41 -4 57.5t34 30.5t20.5 35.5 t-14.5 34t-33.5 17t-37.5 17t-32.5 10.5t-34 -17t0 -41t-18.5 -70q-44 41 -59 63t-8 37t7 27t-11 29.5t-29.5 24t-38 0t-26 -29.5t-17.5 -30q0 26 -5.5 42.5t-20.5 23.5t-29 2.5t-29.5 -2.5t-43.5 -22zM307 1373q5 -7 10.5 -7t16 16.5t30.5 20.5q22 4 34 8.5t10.5 16 t-14 26.5t-22.5 18t-34 -16.5t-30 -47.5t-1 -35zM314.5 136.5q4.5 -38.5 30.5 -79.5t67 -62t102 -16t110 67.5t97.5 59t73.5 7t83 50.5q-22 -34 -34 -77t37 -102t50 -88.5t-19.5 -70.5t-62.5 -65t-91 -42t-62.5 6t-2 52.5t6 46.5t-21.5 19t-60.5 -15t-54.5 -8t-28.5 3.5 t-23 -21.5t1 -31.5t32 -32t26.5 -35.5t-14 -20.5t-29.5 10.5t-36 16t-41 -9.5t0 -30.5t29 -36t-14 -40t-26 -37t25 -23.5t53.5 17.5t51.5 28t46.5 -6.5t13.5 -28t-28.5 -25t-30.5 -18.5t-10 -29t10.5 -29q25 38 54.5 46t45 -15t-2.5 -51t-5.5 -39t45.5 5.5t49 89.5 q121 41 239 93q-5 -36 -26.5 -69t-18 -70.5t28.5 -67t69 -43.5t76 -10t53.5 -9t21.5 -56q22 -2 42 25t-5 66t-76.5 43.5t-84.5 28.5t-26 65t38 81.5t48.5 60t38 2.5t45.5 -23t34.5 -22.5t18.5 -10t8 40.5t-36 48t-33 55t30.5 61t26.5 54.5t-32 97t-8.5 120t64.5 88.5 t100.5 55t111.5 44q-32 0 -61.5 -9.5t-81.5 -26.5q48 34 67.5 43t-4.5 8t-57.5 -17.5t-44.5 -6.5q93 44 126 51.5t34 17.5t-45.5 2.5t-121.5 -28.5q7 13 47 25.5t78.5 22t30.5 17.5t-119 -14l-55 -15q27 20 72.5 30.5t62 18.5t15 13t-75.5 -8t-75.5 -5t60.5 17.5t63 19.5 t-20.5 11t-106.5 -19q-45 -7 -22 7q93 20 112.5 30.5t12.5 13.5t-98 -17q-28 0 -10.5 7t47 14.5t33 17t-18 4.5t-118.5 -20.5t-165 -12t-119 -35.5t-79.5 -73t-73 -38.5t-62.5 24t-4.5 43t34.5 24t-5 15t-49.5 0t-36 -33t-3.5 -61.5t52.5 -62.5t60.5 -28.5t17 -8t-24 -12.5 t-50 1.5t-67 -1.5t-60.5 -26.5t-55.5 -60t-76 -34t-77.5 49t-32.5 76t20.5 50t42.5 20q-25 11 -48 1t-41.5 -40.5t-14 -69zM361 1003q-14 -51 16 -87t97 -61t155.5 -12.5t153.5 57t110.5 70.5t88.5 19q-100 -45 -121.5 -97.5t-10.5 -118.5q30 20 68.5 31.5t76 10.5t77 9.5 t80.5 53.5l23 -3q-36 -35 -59 -70t-26 -74t16.5 -75t25 -28t23.5 22t52 23t73 35.5t46.5 95t26.5 74.5q0 -52 21 -76.5t41.5 -60.5t15 -62t-7.5 -40t15 -10.5t42 34.5t24 77.5t-20.5 69t-12.5 62.5q22 -43 55.5 -73.5t50.5 -67.5t7.5 -56.5t13.5 -15t38 44.5t0 66t-38 43 t-36.5 41t-6.5 66q18 -43 47.5 -80t61.5 -41.5t51.5 -21t34 -27.5t17.5 2.5t0 39.5t-36 89t-31.5 114t18.5 66q32 -45 65 -54t42.5 0t-5.5 15t-33.5 41t-36.5 76q-166 -16 -269 -1.5t-160 42t-93.5 59.5t-69 21.5t-70.5 13.5t-31.5 57t54.5 64q-32 16 -62 13t-49.5 -35 t-13 -70.5t35 -51t47.5 -28.5q-70 0 -103.5 22t-70 28.5t-83 -24t-105.5 -25t-104.5 20.5t-81 -2.5t-50 -41t19.5 -16t79.5 -17.5t71.5 -29.5t61 1.5t111 10q-126 -39 -173 -88t-106.5 -63t-90 9.5t-17.5 71.5q-52 -26 -66 -77zM362 -455q25 34 46.5 38.5t37.5 13t16 24 t-19.5 27t-40 -2.5t-36 -36.5t-4.5 -63.5zM473 393q11 -39 20.5 -48t14 -4.5t6.5 16.5t13 20.5t21.5 21.5t9.5 38t-13.5 30.5t-26 0t-26 -23t-19.5 -51.5zM503 -80q59 -41 63.5 -62t28 -16.5t33.5 16.5t-8.5 36t-46 38t-70.5 -12zM582 -623q13 -27 17 -18t19.5 28t32.5 32 t14 31t-16 21.5t-27.5 -3t-27 -26t-12.5 -65.5zM678 1822q8 -22 1.5 -35.5t10.5 -28t54 -21.5q22 52 2.5 80.5t-40 34t-28.5 -1t0 -28.5zM807 1846q20 -7 27 -13.5t14 -5.5t9 -17t19.5 -32t25 -23t6.5 -31.5t14 -43.5t24 -25t6.5 -23.5t15 -35.5t30.5 -6l4 -15 q0 -18 12 -31.5t22 -13.5t13 -4.5t5.5 -13.5t12 -15t26.5 4q3 -16 14.5 -25.5t26.5 -9.5q23 -20 32 -21.5t12.5 8t14.5 11.5q-4 -18 -1 -24t25 -2.5t26.5 -5.5t18 -10t21.5 1t14 -2.5t17 -2t13.5 7t8 2t11.5 -10t16 -9t21 1.5q20 -11 34 -9t18.5 -5t14 -11.5t18 -11.5 t15.5 -5.5t4.5 18.5t-19 28t-27 6.5t-15 -4.5t-5.5 12.5t-15 15t-16 -8t-7.5 -5.5t-8.5 21q-27 6 -33 -2t-10 -8t-14 14t-18.5 14t-13.5 -9q-13 11 -24.5 14t-24 -5.5t-12.5 1.5t-10.5 19t-20.5 3t-15.5 8t-19 14t-22.5 3.5t-17.5 17t-22 11.5t-15.5 3.5t0 15.5t-9.5 26 t-16 19.5t-7.5 -1t-8.5 -2t-3.5 28.5t-8 57.5t-16 37.5t-10.5 5t-11.5 6q2 43 -13 59.5t-21.5 16.5t-13 4t-9 16t-23.5 19l-9 -9q-11 9 -15.5 12.5t-17 -1t-28.5 -3.5t-34 -10zM1156 -58.5q8 36.5 8 0t17 -48t23.5 -43.5t-47.5 -80q0 20 23.5 49t-4.5 57.5t-20 65z M1236.5 1688.5q4.5 -14.5 43.5 -5.5q0 -11 -14 -25t-3.5 -46t42 -46.5t54.5 -10t43.5 3t47.5 -27.5t46.5 -76t15 -93t-52 -45.5t-84 4.5t-40 32t-5.5 32.5t-25 -7.5q-11 -53 -20.5 -33.5t-15.5 56.5l-11 -10q-16 -28 -12 -44.5t-6 -34t5 -26t26 -1t17.5 -2.5t49 -11t77 -5.5 t79 1t53 36t7.5 76t2.5 84.5t26 55.5t21.5 3.5t-15 -33.5t-13 -59.5t0 -89t-28 -89q94 2 246 34q4 33 11 71t19.5 25t20.5 -16.5t21.5 0t15 13.5t-11.5 17t-27.5 40t-15.5 70.5t5.5 61.5t19 30.5t4.5 12t-17 19.5t-23 68q-11 3 -12 -30t-5.5 -57t-29.5 -50.5t-41 -24.5 t-8.5 8.5t26 15t31 46.5t9.5 67.5t-25 37t-40 2t-50 -35.5l-14 8q26 34 20 41t-42.5 19t-101 27t-94 25t-43.5 -8.5t-34.5 -27t-50 -14t-54.5 -25t-20.5 -34zM1239 1637q-26 -23 2 -53h19q-7 22 -21 53zM1250.5 1532.5q2.5 -18.5 13.5 -29.5q16 7 22.5 21t-2.5 22.5 t-22.5 6.5t-11 -20.5zM1258 1241q30 -34 46 -40t44 -1q-68 30 -90 41zM1271 1252q4 -11 16.5 -17.5t83 -25t122 -27.5t121 -11t106.5 3.5t50 9t18.5 19.5t3 21.5t-28.5 2t-75 -13t-113.5 -9.5h-93t-57.5 7.5t-40 20.5t-18.5 13t-30.5 8t-64 -1zM1310 1510q4 -3 5 -9.5t7 -9 t9 1t11.5 9t5.5 32.5q-12 -7 -20.5 -5.5t-17.5 -18.5zM1360 1191q-11 -4 18 -13t32.5 0t-17 14.5t-33.5 -1.5zM1366 1718q59 32 103.5 29t68.5 -16t17 -17.5t-25 -8.5t-38.5 -13t-42.5 -13t-36 2t-16 13t18.5 2.5t13 5.5t-3 20.5t-8 5.5t-24 -13t-27.5 3zM1398 1948 q5 -7 10.5 -13.5t4.5 -17t8 -15t1 -23t-1.5 -40t29.5 -24.5t54.5 -11t82 -23t76.5 -26t59 -19.5t38.5 -7t9 9.5t11.5 10t7 -6.5t1.5 -17t11 -6.5t13 21.5t23 34.5t20.5 26.5t15 14.5t20.5 9t3 16t-34.5 1q-17 7 -38 0q-26 16 -38 5t-8.5 -19.5t-1.5 -15t-1 -12t14 -6.5 t12.5 -7t-4.5 -12t-26.5 6t-17 20.5t-10.5 19.5q20 16 17.5 27.5t-13.5 15t-18.5 1t-9.5 5t1.5 22t-25.5 18.5q20 20 6.5 24t-18.5 19t-19.5 5.5t-28 -7.5t-9.5 -12t-3.5 -8.5t-18.5 8.5t-19 -27h-4q-26 28 -40.5 18t-9 -26t-4.5 -27.5t-28 -13t-33.5 6t-13.5 13t6.5 5.5 t14.5 -3.5t16 3.5t17 14.5t-6 30.5t-28 15t-18 -3.5t-13 10t-18 6.5t-20.5 -2t-3.5 -10zM1416 1521q-6 -9 4 -20t19 -44q11 -4 14.5 6t3.5 19t-13.5 22.5t-27.5 16.5zM1430 1237q4 -14 32.5 -15t36.5 7t-9 9t-60 -1zM1432 1164q28 -8 57 -14.5t29 -2t-3 9.5t-18 10.5 t-39 5.5t-26 -9zM1449.5 -699q-3.5 -24 5.5 -62q26 15 39 33.5t36 14t34 7.5t5.5 41t-39.5 31t-55.5 -19.5t-25 -45.5zM1469 1696q25 11 37 16.5t-29 24.5q3 -25 -8 -41zM1470 -386.5q1 -6.5 17 -6.5t36.5 -21.5t29.5 -17t24 9t17 -7t-15 -13.5t-42 -12.5t-14 -36.5 t29.5 -19.5t33.5 -2.5t37 -41q52 16 68 35t15 39.5t-11 34.5t-3.5 23t3.5 23t-29.5 22t-60.5 -22q-48 37 -70.5 36.5t-44 -8.5t-20.5 -14.5zM1516 1836.5q11 13.5 26 7t5.5 -21.5t-26.5 -8q-16 9 -5 22.5zM1538 1232q9 -13 34.5 -12t32.5 7.5t-7 8t-60 -3.5zM1542 1154 q-9 -8 7.5 -9.5t40.5 -2.5t33 3.5t3.5 6.5t-27 3.5t-57.5 -1.5zM1558.5 1889q3.5 11 10 11t9 -12t13 -13t20.5 -4t10 -7.5t-12 -10t-29 -3.5q-16 3 -20.5 15.5t-1 23.5zM1603 1814q11 14 26 7t5.5 -21.5t-27.5 -7.5q-15 8 -4 22zM1625 1228q23 -7 69 4q-9 13 -29.5 13 t-39.5 -17zM1635 1899.5q3 19.5 33 37.5q5 -32 -2 -47.5t-20.5 -12.5t-10.5 22.5zM1644 1844.5q-2 10.5 4.5 10.5t14.5 -2.5t24 1t20.5 -2t8.5 -10t-2 -16t-31 -7.5q-37 16 -39 26.5zM1653 1150q0 -9 13 -9t26 4.5t20.5 2.5t26 -1t26.5 6.5t3.5 10.5t-12.5 -1t-24 -3.5 t-29.5 1t-49.5 -10.5zM1691 1642q10 20 27 30.5t26 -1.5t1 -18.5t-24 -8.5t-23 -52q-17 30 -7 50zM1704 1779q10 15 25 8t5.5 -22t-25.5 -8q-15 7 -5 22zM1714 1230q13 2 41 6.5t39 9.5t6 25q-17 -7 -38 -28q-12 7 -18.5 11t-22.5 -3.5t-7 -20.5zM1808 -735.5 q10 -21.5 47 -23.5q-7 45 9 70t5.5 35t-30 -2t-30.5 -35t-1 -44.5zM1905 28q41 4 69 19.5t46.5 -1t15 -36t17 -41t-2.5 -80.5q-9 61 -28.5 75t-15 36t-3 28t-36 -7t-62.5 7zM1988 577.5q-3 36.5 4.5 30t7.5 -51t22 -69.5t65 -32q11 -18 -13 -13t-46.5 23.5t-29.5 47t-10 65z M2035.5 573q3.5 25 8 -10.5t49.5 -76.5q-34 7 -47.5 34.5t-10 52.5zM2210 432q-20 9 1 25t3 86q14 -11 20.5 -36t-24.5 -75z" />
<glyph unicode="'" horiz-adv-x="401" d="M100 1507h200l-46 -620h-109z" />
<glyph unicode="(" horiz-adv-x="672" d="M54 477q0 278 89 536q46 137 112 254t152 219q50 61 75 62q34 0 34 -36q0 -7 -71 -111l-81 -126q-180 -316 -180 -696q0 -191 66 -381q75 -209 207 -321q20 -18 38 -22l53 27q41 0 40 -36q1 -26 -37 -71q-91 -105 -117 -105q-70 0 -195 171q-185 246 -185 636z" />
<glyph unicode=")" horiz-adv-x="672" d="M84 1373q0 26 41 70q91 104 114 105q36 0 106 -71q30 -27 51.5 -51.5t39.5 -47.5q182 -244 182 -639q0 -337 -130 -644q-91 -216 -219 -366q-53 -59 -76 -59q-34 0 -34 35q0 15 41 67q288 373 288 860q0 343 -176 600q-91 132 -137 132q-6 0 -25.5 -15t-31.5 -15 q-35 0 -34 39z" />
<glyph unicode="*" horiz-adv-x="835" d="M100 1061q0 13 21 32q13 28 61 66q111 30 111 36l-7 9q-77 100 -77 165q0 43 64 80q43 34 57 33q30 0 54 -68q13 -41 39 -73q4 -9 7 -11q8 0 27 65q16 76 31 94q16 8 33 18.5t36 24.5q16 15 34 16q32 0 29 -34q0 -18 -15 -34q-66 -85 -98 -191q126 34 163 69q23 20 42 20 q27 0 27 -27q0 -57 -62 -108q-15 -13 -120 -45q-4 -3 -9 -3t-10 -2q0 -15 60 -70q59 -52 75 -52q52 5 52 -34q0 -28 -52 -67q-50 -36 -82 -35l-177 117q0 -2 -1 -5.5t-3 -11.5q-14 -70 -63 -115q-56 -52 -67 -52q-26 0 -26 26q0 17 10 34l31.5 63t45.5 102q9 18 9 33 q-28 -5 -55 -17q-34 -9 -134 -59q-16 -15 -33 -15q-28 0 -28 26z" />
<glyph unicode="+" d="M34 675v125h446v417h127v-417h447v-125h-447v-419h-127v419h-446z" />
<glyph unicode="," horiz-adv-x="479" d="M80 209q0 30 59 88q43 44 82 44q54 0 120 -82q43 -53 43 -107q1 -93 -120 -202q-91 -84 -136 -84q-41 0 -41 39q0 8 56 65q57 57 57 108q0 61 -61 85q-59 26 -59 46z" />
<glyph unicode="-" horiz-adv-x="477" d="M-20 488q0 14 31 71q35 57 49.5 67t34.5 10q33 0 94 -13q63 -14 95 -14q98 0 154 44q18 11 28 11q32 0 32 -32q-1 -12 -12 -27q-15 -22 -48 -93q-20 -44 -81 -39l-246 15q-30 3 -62.5 -12.5t-39.5 -15.5q-30 0 -29 28z" />
<glyph unicode="." horiz-adv-x="479" d="M95 186q0 48 57 105q48 50 71 50q26 -5 48 -57q11 -28 39 -63q30 -41 50 -41h17q14 0 16 -2q20 -7 21 -33q-1 -34 -62 -102q-41 -45 -86 -45q-50 0 -112 67q-59 74 -59 121z" />
<glyph unicode="/" horiz-adv-x="947" d="M28 -291l790 1948l98 -41l-795 -1955z" />
<glyph unicode="0" horiz-adv-x="1022" d="M46 605v161l19 93q44 204 160 373q139 204 323 204q139 0 259 -169q91 -128 143 -299q2 -5 6.5 -34t9.5 -84q4 -54 8 -88.5t4 -45.5q0 -18 -5 -68t-14 -132l-4 -7q-7 -88 -73 -234q-63 -141 -132 -202q-20 -17 -48.5 -37t-65.5 -43q-87 -52 -120 -52q-186 0 -336 245 q-134 221 -134 419zM239 809q0 -325 218 -559q89 -44 127 -44q212 0 212 360q0 187 -84 384q-107 250 -257 250q-115 0 -173 -146q-43 -106 -43 -245z" />
<glyph unicode="1" horiz-adv-x="599" d="M7 1132l4 27q50 36 132 125q41 46 73 76.5t55 49.5q80 63 150 63q30 0 59 -24t29 -50v-260q0 -123 -6 -364q-2 -123 -3.5 -212.5t-1.5 -148.5l-5 -12l-2 -113q-3 -57 16 -91l34 -20l10 -9q-23 -55 -104 -128q-84 -78 -137 -78q-64 0 -65 107q0 41 7 149q7 95 0 147v-2 q0 46 1 112.5t3 159.5q3 93 4.5 160.5t1.5 110.5v293l-19 2q-15 -15 -39 -40t-56 -58h-137z" />
<glyph unicode="2" horiz-adv-x="1076" d="M39 46q0 36 147 179q33 33 79.5 75.5t107.5 99.5l4 12q105 106 214 261q143 199 144 286q0 161 -30 230q-46 109 -182 109q-78 0 -137 -52.5t-59 -128.5t61 -137q-4 -34 -86 -100l-113 -86q-41 13 -66 81q-15 45 -16 112q0 191 175 338q169 141 362 141q184 0 297 -123 q74 -177 72 -252q0 -204 -215 -462q-32 -36 -125.5 -129t-251.5 -246q4 -39 186 -38q26 0 62 1.5t86 3.5q97 7 147 7q124 0 124 -39q0 -23 -74 -96q-73 -73 -104 -89q-45 0 -113.5 -1t-161.5 -3q-91 -2 -159.5 -2h-113.5q-262 0 -261 48zM402 230l10 6l-2 3h-8v-9z" />
<glyph unicode="3" horiz-adv-x="1033" d="M41 43q0 50 89 116q61 45 136 77l14 -8l30 -37l15 -9h341l32 7q63 130 63 286q0 195 -147 295q-9 5 -126 44q-91 30 -91 61l162 175q96 104 141 193q-32 14 -93 15h-175q-98 0 -126 -15l-104 -72q-45 -4 -45 41q0 18 134 245l23 9h459q184 0 205 -23q0 -59 -139 -204 q-150 -157 -166 -213q6 -14 104 -69q95 -52 134 -105q69 -93 69 -247q0 -125 -69 -271q-15 -37 -163 -291q-13 -25 -32 -32q-4 -4 -102 -7q-32 5 -69.5 7t-80.5 2q-30 0 -72 -1t-101 -3q-57 -2 -99 -3.5t-71 -1.5q-80 0 -80 39z" />
<glyph unicode="4" horiz-adv-x="1008" d="M13 457q0 167 146 428q63 113 128 206t136 169q184 197 327 197q94 0 94 -143q0 -20 -3.5 -60t-3.5 -61q0 -614 18 -631h108l19 -24q-4 -13 -68 -63q-68 -54 -77 -68l-2 -84q0 -39 9 -69q-3 -11 -4 -20t-1 -18q0 -47 27 -57l2 -7q-9 -45 -100 -124q-89 -76 -134 -76 q-61 0 -61 223q0 48 2 93.5t7 91.5l-9 9h-49t-69 -3q-39 -2 -70 -2h-49q-47 0 -83.5 -1t-22.5 -1q-217 0 -217 95zM239 664q0 -48 45 -93l26 -9q13 0 37 -1.5t49 -1.5t48.5 -1t37.5 -1h89l23 27q2 39 3 75.5t1 75.5l-2 328q0 53 -2 65q-5 36 -21 61l-30 9q-87 0 -198 -225 q-106 -214 -106 -309z" />
<glyph unicode="5" horiz-adv-x="1040" d="M37 46l2 29q78 91 230 146q77 -43 158 -43q180 0 205 20q97 77 97 288q0 196 -176 319q-161 109 -364 109q-18 0 -56 -6t-55 -6q-32 0 -32 26q115 173 354 497q27 37 91 37l505 -2q36 -1 36 -24q-47 -86 -104.5 -119t-154.5 -33q-300 0 -311 9l-26 -9q-54 -61 -84 -125 l160 -50q405 -126 404 -495q0 -146 -81 -325q-82 -180 -191 -271q-18 -14 -93 -14h-421q-66 0 -91 18z" />
<glyph unicode="6" horiz-adv-x="940" d="M39 564q0 273 145 514q146 241 389 375q52 4 52 -28l-7 -24q-247 -254 -295 -392l9 -11l48 32q8 2 27.5 11t52.5 26q49 25 81 24q113 0 223 -163q104 -148 104 -271v-166q-11 -57 -23.5 -109t-26.5 -98q-28 -91 -159 -216q-127 -126 -223 -125q-177 0 -297 230 q-100 193 -100 391zM250 629q0 -143 75 -288q91 -178 216 -178q151 1 151 253q0 146 -78 293q-93 176 -221 176q-20 0 -81 -19l-43 -43q-18 -55 -19 -194z" />
<glyph unicode="7" horiz-adv-x="863" d="M46 1202q0 20 41 117q45 102 58 117l21 10h79t109 3q63 2 110.5 2h78.5q200 0 298 -19l14 -13q-3 -12 -22 -50.5t-58 -104.5q-18 -30 -42 -72t-56 -94q0 -18 -65 -146l-85 -158q-125 -273 -125 -585l30 -77q-35 -39 -80.5 -95.5t-103.5 -134.5l-12 -4l-11 4 q-67 102 -68 257q0 232 129 475q7 70 130 268q126 196 125 273q0 92 -136 92h-146q-46 0 -90 -33l-87 -61q-36 -2 -36 29z" />
<glyph unicode="8" horiz-adv-x="1097" d="M48 80q0 73 20 118q13 25 62 99v15l76 90v12l117 139q68 82 100 147l-2 14q-171 171 -178 180q-104 125 -104 217q0 59 97 192q100 134 152 133h415h77h15t21 -2h23q52 -22 63 -33q26 -20 26 -67q0 -70 -153 -271l-209 -267v-2q22 -57 209 -232q164 -155 164 -248 q0 -54 -76 -193q-69 -139 -117 -139h-123t-172 -2q-98 -2 -171.5 -4t-123.5 -2q-145 0 -208 106zM293 259q0 -64 78 -100l452 -2q18 0 18 36q0 35 -141 209q-141 177 -177 192q-59 -52 -137 -158q-93 -127 -93 -177zM325 1200q0 -37 111 -168q113 -134 143 -134 q26 26 54.5 59.5t60.5 79.5q72 106 72 156q0 87 -180 87h-106h-16t-30 -2h-41q-68 -28 -68 -78z" />
<glyph unicode="9" horiz-adv-x="952" d="M37 798q0 68 33 232l-2 7q43 125 155 254q126 145 245 145q180 0 302 -213q108 -188 108 -379q0 -243 -89 -430q-80 -173 -266 -353q-139 -139 -196 -139q-34 0 -34 32q0 18 145 180q146 163 150 230l-9 13h-2q-141 -102 -195 -102q-146 0 -252 196q-93 173 -93 327z M228 970q0 -152 69 -295q85 -178 221 -177q144 -1 144 218q0 143 -74 300q-88 186 -211 186q-75 0 -115 -81q-34 -65 -34 -151z" />
<glyph unicode=":" horiz-adv-x="479" d="M95 186q0 48 57 105q48 50 71 50q26 -5 48 -57q11 -28 39 -63q30 -41 50 -41h17q14 0 16 -2q20 -7 21 -33q-1 -34 -62 -102q-41 -45 -86 -45q-50 0 -112 67q-59 74 -59 121zM95 646q0 46 57 104q48 50 71 48q28 -4 48 -57q7 -17 39 -62q34 -41 50 -41q26 0 33 -2h-2 q22 -2 23 -33q0 -37 -62 -100q-41 -43 -86 -43q-47 0 -109 67q-62 70 -62 119z" />
<glyph unicode=";" horiz-adv-x="479" d="M73 646q0 46 57 104q45 53 70 48q25 -4 45 -57q9 -19 41 -62q35 -41 50 -41q28 0 35 -2h-2q22 -2 22 -33q0 -37 -61 -100q-41 -43 -87 -43q-50 0 -111 67q-59 70 -59 119zM80 209q0 34 57 88q43 44 84 44q54 0 120 -82q43 -53 43 -107q1 -91 -122 -202q-91 -84 -134 -84 q-41 0 -41 39q0 8 56 65q57 57 57 108q0 61 -61 85q-59 26 -59 46z" />
<glyph unicode="&#x3c;" horiz-adv-x="1616" d="M50 575q0 9 2 28.5t4.5 40t3.5 40t1 32.5q4 13 12.5 42t17.5 72q13 68 75 172q64 118 116 139l259 5q166 0 166 -57q0 -37 -75 -93q-61 -48 -109 -59q-35 50 -76 50q-25 0 -73.5 -2.5t-73.5 -2.5q-5 -11 -12.5 -26t-18.5 -38l-17 -239q0 -171 78 -297q91 -152 247 -152 q46 0 167 54h9v76l-7 13l7 13v145.5t2 205.5q2 118 3 204.5t1 145.5q0 113 -18 161l-36 25l-7 13q5 46 105 117q106 73 154 72q28 -25 32 -193q-4 221 -7 -219l16 -11q32 5 104 67h28q16 2 27.5 2h22.5h78q163 0 215 -28q73 -39 73 -184v-163v-42.5t-2 -55.5v-69v-265 q-11 -161 -67 -253q0 -61 -165 -163q-163 -102 -234 -102q-30 0 -28 43q11 18 37.5 44t69.5 65q75 63 103 122q54 111 54 425q0 32 -1 77.5t-3 104.5t-3.5 104.5t-1.5 77.5q0 100 -155 100q11 0 -4.5 0t-61.5 -2h-65l-23 -9q-16 -34 -18 -165q-5 -74 0 -265l2 -214 q0 -106 63 -122v-23q-158 -159 -227 -159q-35 0 -63 61l2 84q0 30 -7 69q-48 -54 -150 -127q-121 -87 -166 -87q-176 0 -287 211q-95 177 -95 364z" />
<glyph unicode="=" d="M34 523v123h1020v-123h-1020zM34 827v123h1020v-123h-1020z" />
<glyph unicode="&#x3e;" horiz-adv-x="1638" d="M50 575q0 9 2 28.5t4.5 40t3.5 40t1 32.5q4 13 12.5 42t17.5 72q13 68 75 172q64 118 116 139l259 5q166 0 166 -57q0 -37 -75 -93q-61 -48 -109 -59q-35 50 -76 50q-25 0 -73.5 -2.5t-73.5 -2.5q-5 -11 -12.5 -26t-18.5 -38l-17 -239q0 -171 78 -297q91 -152 247 -152 q46 0 167 54h11v395q0 44 1 110t3 152q7 173 7 261q0 52 -46 91q7 41 189 176q11 2 21.5 2h21.5q33 -14 37 -52l-2 6q-2 -63 -3.5 -130t-1.5 -141q0 -104 23 -104q6 0 102 69h332q179 0 179 -123q0 -66 -156 -205q-157 -136 -157 -147q44 -109 72 -175.5t39 -91.5 q80 -156 182 -208l12 -17q-16 -48 -85 -100q-65 -52 -113 -52q-66 0 -178 241q-111 241 -130 241q-22 0 -69 -41q-48 -39 -48 -61v-169q9 -7 20.5 -19t24.5 -31q-11 -34 -93 -98q-80 -63 -119 -63l-29 9q-34 43 -36 100v112q-43 -55 -152 -132q-123 -89 -171 -89 q-176 0 -287 211q-95 177 -95 364zM982 557l18 -6q41 8 198 156q157 145 157 175q0 66 -95 66h-255q-20 0 -20 -43z" />
<glyph unicode="?" horiz-adv-x="738" d="M84 1245q0 39 87 133q57 95 77 113q36 30 129 30q152 0 219 -23q121 -38 120 -155q0 -79 -66 -179q-4 -8 -190 -216q-133 -145 -133 -228q0 -34 20 -70q26 -45 53 -47l101 50q47 0 47 -44q0 -32 -23 -47l-82 -69l-61 -68q-26 -20 -55 -20q-49 0 -108 66q-74 86 -74 184 q0 91 137 239q243 262 243 358q0 80 -175 80q-135 0 -164 -70q-27 -59 -58 -60q-44 0 -44 43zM145 178q0 43 44 100q43 61 80 61q34 0 47 -66q3 -20 38 -64q9 -9 16 -17t14 -17q2 -2 50 3q34 2 34 -37q0 -43 -56 -93q-52 -50 -98 -50q-54 0 -112 61q-57 63 -57 119z" />
<glyph unicode="@" horiz-adv-x="1367" d="M52 1123q0 124 57 166q2 2 5.5 4t10.5 7l34 23q45 52 157 132q82 32 413 31q371 0 469 -72q117 -91 118 -305q0 -107 -36 -274q-39 -185 -82 -260q-28 -48 -77 -98q-20 -20 -42 -42.5t-47 -48.5q-20 -25 -50 -24q-123 0 -125 193l2 -4l-9 4l-136 -69q-87 -43 -143 -43 q-109 0 -109 164q0 159 45 211q32 37 200 100q157 61 157 101q0 37 -94 35q-106 0 -136 -6q-46 -9 -118 -61l-7 -2q-27 0 -27 24q0 34 75 93q76 61 113 62l217 3q132 2 132 -89v-380q0 -139 11 -166q2 -5 13 -7q16 0 41 41q12 20 39 150q41 193 41 357q0 126 -38 175 q-66 80 -467 80q-297 0 -384 -25q-43 -13 -43 -75q0 -74 1 -126t3 -83q18 -252 103 -460q97 -238 270 -377q78 -61 141 -61q64 0 118 57q59 58 71 58q43 0 43 -43q0 -18 -64 -89q-134 -147 -226 -147q-167 0 -371 279q-157 217 -221 501q-48 207 -48 386zM620 646 q0 -70 57 -71q39 0 98 23q67 22 84 50v142.5t2 94.5l-11 11q-27 0 -111 -48q-86 -48 -103 -78q-16 -25 -16 -124z" />
<glyph unicode="A" horiz-adv-x="1181" d="M46 1364q15 43 82 98q61 56 113 70q18 -11 56 -25q57 -11 126 -11q50 0 145 7q98 7 148 7q184 0 232 -16q113 -39 113 -171q0 -59 -1 -147.5t-3 -207.5q-3 -118 -3 -205.5v-146.5q0 7 -6 -136q-2 -27 -2 -51q0 -52 8 -86q18 -73 65 -109l9 -15q-5 -33 -107 -124 q-100 -91 -136 -91q-82 0 -82 148q0 518 11 537l-3 3q-4 13 -4 199l-24 18h-310q-26 0 -26 -182q0 -28 2 -68.5t4 -94.5q2 -55 3 -96t1 -68q0 -307 -157 -370q-26 -11 -53.5 -19.5t-57.5 -17.5l-18 18q0 9 5.5 23t12 27.5t12 27t5.5 20.5q5 86 9 321.5t4 628.5q0 65 -21 78 q-28 15 -29 25q11 32 50 75q43 49 52 73l-9 9q-20 6 -160 6l5 -2q-61 2 -61 41zM453 1310q4 -18 4 -208q0 -29 244 -29h17h55q43 0 43 68v52q0 96 -37 117q-25 15 -133 15h-160l-29 -4z" />
<glyph unicode="B" horiz-adv-x="1202" d="M46 1351q0 45 79 111q85 65 129 65l39 -24q50 0 122.5 -1t172.5 -4q100 -2 173.5 -2h123.5l-26 2q241 -7 241 -266q0 -141 -130 -291q-52 -45 -50 -52q16 -20 76 -71q45 -39 77 -102q3 -32 7 -59.5t11 -51.5v-164v-42t-2 -56v-68q-9 -20 -9 -45q0 -232 -307 -232h-614 q-30 0 -29 28q0 6 61 99q63 91 63 146v645q0 13 -1 37.5t-1 50.5t-1 50t-1 37l-7 20q-18 11 -43 39q25 68 121 143v17l-9 4q-26 0 -74.5 -4.5t-74.5 -4.5q-117 0 -117 46zM402 198l8 -16l11 -4q22 -5 61 -5h125l7 5q11 -3 30.5 -4t44.5 -1q96 0 125 57q25 45 25 143 q0 232 -16 280q-42 130 -216 130h-84q-39 0 -39 -130q0 -14 1 -39.5t3.5 -52.5t3.5 -52t1 -38q0 -102 -13 -146q-16 -52 -78 -127zM491 1020.5q0 -92.5 2 -109.5q2 -20 19 -20q138 0 238 72q111 78 111 215q0 54 -35 96t-89 42h-201q-45 0 -45 -27v-268.5z" />
<glyph unicode="C" horiz-adv-x="990" d="M48 741q0 33 13 125q10 70 10 101q0 10 -1 15q18 64 43.5 135.5t57.5 151.5q93 232 133 234q22 2 55.5 3t78.5 1h230h51t72 -2t72 -2h51q34 -18 34 -41q-4 -13 -28 -59q-50 -50 -83 -78q-59 -47 -96 -47l-29 36q-39 20 -78 20h-125t-138 -2q-37 -37 -69 -145 q-7 -23 -11.5 -43.5t-6.5 -41.5v2q-9 -61 -12 -112t-3 -90q0 -290 113 -425q4 -50 95 -113t146 -64q67 0 168 43q103 43 131 43q33 0 33 -39q0 -38 -27 -45q-302 -302 -412 -302q-43 0 -123 50q-345 209 -345 691z" />
<glyph unicode="D" horiz-adv-x="1247" d="M52 1355q0 41 78 102q65 53 115 70q5 -2 17.5 -5.5t30.5 -9.5q30 -11 48 -11h384q186 0 245 -30q91 -44 147 -217q42 -135 42 -269q0 -46 -4.5 -111t-13.5 -149q-13 -118 -120 -378q-109 -264 -184 -343q-13 0 -38.5 -1t-52 -1t-51.5 -1t-38 -1q-82 0 -269 7 q-86 3 -153 3t-114 -3l13 -3q-59 5 -59 37q68 68 141 237l9 752q0 61 -21 79q-36 30 -47 53q22 52 157 146l-2 8l-10 7q-41 -4 -75 -6.5t-64 -2.5q-111 0 -111 41zM347 198l15 -20q48 2 153 3t272 1q34 22 68 139q30 97 34 156q20 32 29 146q4 45 7 83.5t3 70.5v2 q0 230 -69 371q-84 173 -306 173h-76l-15 -11q0 -68 -7 -201q-2 -65 -3 -115t-1 -82q0 -228 15 -285q-8 -14 -8 -49q0 -16 2 -37q5 -91 6 -91v1q0 -63 -39 -137q-4 -4 -23.5 -34t-56.5 -84z" />
<glyph unicode="E" horiz-adv-x="1067" d="M57 725q0 332 162 644q65 127 104 127q32 0 77 1t109 4q64 2 109.5 3t77.5 1h193q91 0 91 -59q0 -45 -91 -116q-91 -70 -143 -80l-17 12q-25 68 -113 68q-15 0 -44 -2.5t-45 -2.5q-52 0 -94 -3t-73 -8q-9 -11 -21 -38.5t-23 -71.5q-25 -86 -25 -113q0 -30 95 -30 q28 0 68.5 3t96.5 7q54 5 94.5 7t68.5 2q134 0 134 -50q0 -41 -75 -95q-53 -39 -114 -67l-11 2l-14 26l-9 6q-26 7 -61 7q15 0 -21 2.5t-107 4.5q-14 1 -27 1q-23 -1 -43 -3l-56 -7l-19 -9l-9 -26q0 -168 54 -319q64 -189 185 -253q15 -7 40 -19t64 -31h100q34 0 134 54 q98 55 104 56q46 0 46 -33v-6q-37 -52 -209 -198q-180 -152 -223 -153q-236 0 -388 273q-132 230 -132 482z" />
<glyph unicode="F" horiz-adv-x="1058" d="M39 1355q0 35 91 98q91 68 124 68q57 -44 193 -44q33 0 80.5 3.5t114.5 8.5q65 4 113 8t80 4q165 -1 208 -71q0 -50 -70 -120q-73 -73 -121 -89q-11 0 -17 33q-7 39 -37 49q-30 11 -236 11q-107 0 -107 -32v-184q0 -16 13 -31q28 -5 58.5 -7.5t64.5 -2.5h136h24t38 2 q18 2 29.5 2h16.5q77 0 76 -35q0 -44 -74 -100q-66 -52 -117 -62q-11 15 -36 34h-202q-29 0 -29 -228v-15q0 -11 -1 -44.5t-5 -87.5q-1 -32 -1 -60q0 -151 27 -209l50 -35h54v-33l-81.5 -81.5t-38.5 -36.5q-84 -72 -142 -72h-3q-39 0 -69 77q-25 68 -24 109v493 q11 39 11 184q0 280 -50 282l-17 18v5q50 44 123 129q0 18 -138 19q-109 0 -109 43z" />
<glyph unicode="G" horiz-adv-x="1102" d="M52 584v195l5 8q15 204 93 370q59 127 204 325l19 7h78.5t107.5 2q64 2 110.5 3.5t78.5 1.5q261 -1 261 -71q0 -15 -29 -59q-54 -45 -177 -123l-14 7l-16 39l-14 11q-236 13 -323 14q-48 0 -102 -123q-48 -109 -48 -170l18 -21h2l89 54q52 30 98 37l39 -28q25 -4 54.5 -5 t68.5 -4q35 -2 65.5 -2t56.5 2q43 3 74 3h49q50 0 76 -52l31 -96q0 -32 -1 -96.5t-4 -162.5q-2 -79 -3 -144v-41q0 -40 1 -72q-2 -2 -15 -87q-39 -54 -66.5 -91t-46.5 -58q-79 -94 -143 -111q-22 -23 -79 -46q-56 -26 -86 -26q-176 0 -319 156q-130 143 -165 323zM271 770 q0 -75 39 -243q25 -104 133 -213q113 -113 212 -114q104 0 104 180v28t-2 39q-1 22 -1 38.5t1 28.5h-2q-2 7 -2 39v42.5t2 57.5q2 32 3 57t1 43l-4 13v80q-24 65 -192 65h-25l-238 -2q-29 0 -29 -130v-9z" />
<glyph unicode="H" horiz-adv-x="1024" d="M37 1241q32 34 71.5 69t89.5 74q125 96 177 96h337q197 0 197 -50q0 -44 -86 -109q-44 -32 -76.5 -52.5t-57.5 -25.5l-16 9q-18 52 -82 53h-250l-16 -12q-6 -25 -6 -59v-234l13 -15q9 2 24 11t37 25q36 29 59 29h1h209q13 0 35.5 -1t46.5 -2t47 -2.5t36 -1.5 q30 -13 41 -20q20 -11 30 -34q34 -73 34 -355q0 -143 -6 -343q-5 -123 -8.5 -194t-8.5 -90q-30 -146 -150 -235q-18 -15 -74 -44.5t-151 -74.5l-22 4l-5 33q9 11 26.5 29.5t43.5 44.5q55 43 76 86q43 87 43 903q0 106 -52 134h-46q-22 2 -41 2h-34h-123q-68 0 -81 -21 q0 -52 -1.5 -129t-3.5 -182q-2 -104 -2 -182v-130q0 -22 9 -43l18 -13l15 -7l10 -7v-2q-132 -193 -227 -193q-66 0 -67 152q0 16 2.5 47.5t2.5 48.5l5 13q-5 39 -8.5 81t-3.5 92q0 63 7 198q5 65 7 116t2 83q0 362 -14 382q-11 14 -33 48z" />
<glyph unicode="I" horiz-adv-x="581" d="M22 1325q18 44 80 96q63 56 107 70q52 -30 127 -30q16 0 33 1q38 2 58 3t26 1q90 0 90 -43q0 -7 -7 -19.5t-17 -27t-20.5 -30.5t-16.5 -25q-7 -16 -17 -39.5t-22 -56.5v-395v-94t-2 -57v-70v-381q9 -12 21.5 -27t28.5 -35q-3 -43 -84 -112q-75 -58 -123 -80q-63 0 -80 35 q-11 22 -11 89l5 9l11 943q0 39 -52 87q17 32 62 73q15 13 32.5 30.5t37.5 34.5q0 16 -46 20h-57l-140 -2q-23 9 -24 32z" />
<glyph unicode="J" horiz-adv-x="711" d="M57 1360q0 52 75 97q18 12 47.5 28t68.5 38q44 -29 185 -29h10q70 0 171 7q39 -5 39 -44q0 -30 -102 -154q-9 -150 -14 -412t-5 -639q0 -225 -50 -332q-61 -139 -246 -222q-59 -28 -81 -28h-3q-15 16 -15 41q29 33 51.5 58t39.5 42q6 11 14 29.5t20 44.5q30 111 33 354 v368q0 5 1 47t4 121q1 45 1 89t-1 88q-3 50 -6 92.5t-10 76.5q-11 11 -20.5 21t-15.5 17v3q158 143 157 157q-11 4 -28 6.5t-41 4.5q-14 2 -32 2t-40 -2q-28 -2 -46 -3.5t-27 -1.5q-111 0 -134 35z" />
<glyph unicode="K" horiz-adv-x="1131" d="M59 1295q2 26 69 98q61 68 97 84q16 9 31 16.5t26 11.5q75 0 75 -180q0 -20 -2.5 -58.5t-2.5 -59.5v-55.5t-2 -51.5l-5 -95q-4 -39 15 -55l13 9q30 46 74 116.5t106 167.5q152 237 170 251q129 -2 218 -3.5t141 -1.5l18 -14q0 -25 -46 -102q-36 -61 -67 -98l-14 -6 q-36 4 -67 6.5t-56 2.5q-211 0 -212 -150q0 -41 121 -389q141 -397 150 -446q2 -9 4.5 -16.5t6.5 -20.5q11 -22 93 -52l13 -13l-13 -30q-15 -18 -38 -42t-55 -56q-61 -63 -115 -63q-39 0 -52 16q-35 38 -155 418q-115 377 -141 403l-12 -2q-104 -166 -104 -301v-5l2 -149 q2 -80 7 -109q25 -22 62 -71v-2q-161 -198 -239 -198q-73 0 -73 132v209q0 125 13 377q14 252 15 378q0 50 -1.5 77t-3.5 37q-4 4 -64 85z" />
<glyph unicode="L" horiz-adv-x="1040" d="M59 37q0 22 28 61q17 25 26.5 39.5t11.5 19.5q20 43 27 177q4 59 4 105t-4 79l-2 -2q18 85 19 200q0 37 -3 90t-7 124q-5 73 -7 126t-2 90q0 63 64 134q35 39 105 111q30 13 67 48q26 22 41.5 36t23.5 19h460q98 -1 98 -55q0 -44 -87 -111q-86 -66 -131 -66l-21 9l-6 20 q-28 32 -96 32h-258l-5 -4q-18 -61 -19 -314q0 -64 1 -147t4 -192l4 -250q0 -65 -43 -136q-41 -68 -40 -66q0 -20 50 -21q28 11 382 11q100 0 108 -2q70 -9 70 -59q-20 -70 -199 -169q-20 16 -55 33q-25 6 -154 6h-108.5t-141.5 -2l-182 -4q-22 0 -23 30z" />
<glyph unicode="M" horiz-adv-x="1581" d="M57 1362q52 89 121 104q73 59 106 59q2 0 26 -18t31 -21q11 -1 32 -1t52 1l91 8h200.5t281.5 -3l482 -5q50 -29 50 -65q0 -11 -57 -91q-57 -78 -57 -123q0 -137 -6 -411q-3 -137 -4 -239t-1 -171q0 -13 1 -32.5t1 -42t1.5 -42t1.5 -33.5q6 -4 16 -14.5t25 -21.5l6 -14v-8 q-34 -37 -106 -115q-72 -74 -122 -74h-1l-46 11q-22 30 -23 75v405q0 67 8 202q6 136 6 205q0 78 -6 143l4 9q0 80 91 234v16q-13 11 -310 16l-15 -12q-20 -161 -21 -438q0 -519 6 -616l46 -25l10 -16q-13 -55 -98 -125q-84 -73 -132 -73q-70 0 -71 141q0 13 2.5 41.5 t2.5 42.5l-5 7v145q0 33 3.5 144t8.5 304q7 232 7 448q0 22 -19 35q-13 0 -33.5 1t-42.5 1t-42.5 1t-33.5 1q-63 0 -63 -19q0 -80 -1 -195.5t-4 -272.5q-2 -157 -3 -272t-1 -193q0 -167 -58 -239q-52 -65 -211 -128q-30 -2 -30 27q59 111 60 523v280v69t-3 93v117l-13 32 l-41 25q47 78 123 136q-5 16 -32 19q-16 2 -57 0l-41 -2q-93 0 -93 50z" />
<glyph unicode="N" horiz-adv-x="1204" d="M52 1358q0 45 89 106q80 57 132 57q82 -37 241 -37q25 0 65.5 1t93.5 4q104 6 159 7h127.5t59.5 -2q135 -12 135 -78q0 -17 -54 -106q-50 -85 -61 -121q-13 -46 -13 -519q0 -384 13 -427q41 -28 41 -43q0 -46 -95 -122q-94 -78 -144 -78q-75 0 -75 141v375q0 512 13 560 q9 36 71 108q61 70 76 109l-17 19h-475l-13 -19l13 -657q0 -310 -37 -461q-161 -175 -240 -175q-20 0 -20 20q0 9 20 41q11 18 16 29.5t7 16.5q10 48 10 148q0 31 -1 66l-5 217q9 16 9 171v87q-1 8 -1 56.5t1 138.5v25q0 119 -45 132l-5 14q0 22 116 138l-3 12 q-15 0 -45.5 -2t-47.5 -2q-111 0 -111 50z" />
<glyph unicode="O" horiz-adv-x="1136" d="M57 612q0 202 47 351q37 121 150 323q-9 12 -33 17q-16 2 -43 0q-16 -2 -25.5 -2.5t-13.5 -0.5q-82 0 -82 41q0 37 84 100q87 70 123 73q89 -33 231 -33q26 0 53 1l144 4q290 0 354 -384q4 -30 13.5 -102.5t24.5 -188.5v3q-30 -608 -375 -796q-20 -7 -51 -17t-74 -23h-38 q-227 0 -366 211q-123 186 -123 423zM289 830q0 -227 71 -396q95 -230 284 -230q125 0 183 141q45 110 45 249q0 211 -37 358q-11 28 -30 94q-26 41 -51 82t-49 84q-68 93 -154 93h-126q-54 -25 -98 -218q-17 -85 -27.5 -148.5t-10.5 -108.5z" />
<glyph unicode="P" horiz-adv-x="1111" d="M46 1343l2 19q32 32 54.5 55.5t38.5 35.5q59 45 111 61q20 -16 54 -32q33 -5 77 -8t99 -3q32 0 79.5 1t111.5 3q125 7 191 7q175 0 175 -168v-375v-51t-2 -74q-2 -41 -2 -71.5v-50.5q0 -85 -124 -183q-125 -99 -206 -99q-26 0 -74.5 3t-73.5 3q-77 0 -93 -14 q-22 -16 -23 -88q0 -63 21 -98l33 -21l8 -9q0 -41 -96 -116q-93 -74 -136 -74h-2q-68 0 -69 149q0 80 1 200.5t3 279.5q2 161 3.5 282t1.5 200q-11 4 -27 15.5t-34 27.5q13 20 132 145l-21 15q-18 0 -53 -2.5t-54 -2.5q-106 0 -106 38zM443 1243l2 -720l12 -14l34.5 34.5 t49.5 44.5q13 0 35 -1t46 -2t45.5 -2t35.5 -1q106 0 106 47v592q0 93 -84 93h-163q-70 0 -115 -14q-2 -11 -3 -24.5t-1 -32.5z" />
<glyph unicode="Q" horiz-adv-x="1206" d="M57 648q0 296 197 643l-15 14q-16 0 -48 -3.5t-48 -3.5q-82 0 -78 41q12 34 89 100q78 63 115 64l41 -26h144t69 3l28 -7q61 13 117 13q202 0 314 -200q91 -160 91 -386v-197q0 -126 -50 -248q-15 -39 -40.5 -97t-56.5 -137l20 -17q77 64 104 65q26 0 119 -117l43 -13 l7 -16q0 -25 -44 -55q-69 -105 -154 -105q-36 0 -93 63t-73 63q-9 0 -130 -67q-118 -63 -191 -63q-221 0 -359 241q-117 206 -118 448zM284 739q0 -13 2.5 -33t5.5 -40t5.5 -39.5t2.5 -30.5l25 -98q22 -97 111 -196q98 -104 191 -104q107 0 180 95q61 84 61 200v223 q-16 34 -22 89q-5 41 -14 91q-49 202 -120 291q-96 117 -280 118q-73 0 -116 -248q-15 -96 -23.5 -174t-8.5 -144z" />
<glyph unicode="R" horiz-adv-x="1143" d="M46 1334q25 39 95 91q73 55 113 64q55 -25 164 -25h9q26 0 62 1t86 4q50 2 86.5 3t61.5 1q366 0 366 -250q0 -180 -184 -329q-74 -59 -75 -74q7 -17 17 -50t25 -84q16 -48 56 -231q30 -141 68 -227q17 -39 63 -55l12 -14q-25 -61 -75 -109q-18 -18 -107 -84h-11l-26 4 q-25 16 -54 103q-15 39 -22.5 68.5t-9.5 47.5q-11 22 -32.5 93.5t-51.5 194.5q-55 223 -81 248l-89 -20l-74 -5q-32 -11 -31 -64v-388l9 -34l37 -28l9 -11q-5 -52 -87 -125q-85 -72 -135 -72h-1q-26 0 -64 65q0 14 -1 39t-1 50t-1 49.5t-1 39.5v367q0 57 7 171q6 111 6 171 q0 41 -2 76t-7 67q-22 11 -47 36q22 45 138 169l-4 11q-57 -3 -81 -4t-12 -1q-123 0 -123 50zM400 1269q0 -11 7 -33t7 -34v-50.5t-2 -71.5t-2 -71.5v-51.5q0 -134 24 -134q125 0 258 93q143 97 143 221q0 154 -230 154q-204 0 -205 -22z" />
<glyph unicode="S" horiz-adv-x="972" d="M48 46q0 41 93 99q73 46 132 66q16 -16 57 -36q25 -9 271 -9q25 0 46 1.5t39 3.5l23 15q9 18 9 42q0 52 -323 464q-321 411 -320 451v100q33 43 79 135q3 4 25.5 26.5t65.5 68.5l19 7h108.5t152.5 2l262 2q118 0 118 -52q0 -48 -102 -116q-91 -58 -148 -73 q-2 5 -10.5 14.5t-19.5 24.5q-18 20 -43 21h-282l-20 -19q4 -41 323 -445q319 -406 319 -479q0 -70 -81 -215q-86 -149 -147 -149h-480q-166 0 -166 50z" />
<glyph unicode="T" horiz-adv-x="1028" d="M30 1355q16 41 81 96q63 52 114 71q11 0 38.5 -16.5t38.5 -16.5l618 2h3q100 0 100 -75v-15.5t-2 -20.5l-86 -82q-66 -59 -89 -59l-30 21q-13 45 -68 45h-195q-22 0 -24 -75v-43t3 -59q2 -35 3 -60t1 -42q0 -78 -7 -235q-2 -77 -3 -135t-1 -97q0 -329 161 -329 q18 0 103 39l22 -10l12 -20v-3q-23 -36 -53.5 -72t-69.5 -73q-97 -91 -157 -91l-88 30q-159 125 -160 291l2 664q0 77 -8 122l-9 10l-28 11l-7 13q23 52 107 143v5l-16 16q-13 0 -35.5 -1t-46.5 -1t-47 -1.5t-36 -1.5q-104 0 -123 10q-20 32 -18 45z" />
<glyph unicode="U" horiz-adv-x="1143" d="M59 1275v7q159 219 230 219q84 0 84 -146q0 -163 -7 -491q-2 -164 -3 -285.5t-1 -203.5q0 -141 89 -171q104 0 208 52q120 65 120 160q0 94 -6 239q-3 80 -4 140t-1 99q0 11 2.5 47.5t6.5 99.5q4 50 5 84t-3 57l-11 52q-11 5 -27 16.5t-34 27.5q37 47 109 136 q75 91 141 91q78 0 78 -145q0 -87 -1.5 -217t-3.5 -304l-4 -520q0 -46 8.5 -63t47.5 -45q0 -68 -95 -138q-93 -73 -162 -73q-37 16 -50 84q-2 5 -9 105q-37 -7 -109 -66q-86 -65 -114 -82q-91 -45 -198 -45q-234 0 -234 388v45.5t2 63.5t2 63.5v46.5q0 34 1.5 84t4.5 116 q2 65 3 116t1 86q0 173 -16 229l-41 26z" />
<glyph unicode="V" horiz-adv-x="1204" d="M46 1382q0 32 99 98q98 67 139 68l52 -41q78 3 168 4t194 1h139q202 0 270 -121q47 -86 47 -304q0 -326 -161 -673q-195 -414 -488 -414q-173 0 -246 113q-55 89 -55 275q0 44 1 107.5t4 148.5q6 171 7 256q0 169 -23 221l-39 16l-6 15q17 41 71 87q54 50 70 77l-27 18 q-32 -4 -60.5 -6.5t-53.5 -2.5q-102 0 -102 57zM457 1314q9 -77 13.5 -164t4.5 -189q0 -43 -1 -107.5t-3 -150.5q-3 -87 -4 -151t-1 -107q0 -256 137 -256l54 34q28 2 61 48q163 216 182 697v-2q-11 111 -25 177.5t-25 90.5q-54 100 -241 100q-115 0 -152 -20z" />
<glyph unicode="W" horiz-adv-x="1729" d="M57 1366q0 48 88 103q23 11 55 29t78 44l26 -17q19 -24 97 -24h6q74 0 178 1t247 3q144 2 249.5 3.5t178.5 1.5q238 0 324 -87q89 -87 89 -323q0 -48 -20 -159q-15 -83 -15 -139q0 -12 1 -23q-27 -48 -55 -174q-22 -113 -70 -169q-7 -56 -223 -299q-28 -16 -68.5 -39 t-92.5 -52q-87 -46 -180 -46q-141 0 -171 132q-13 54 -26 66h-5q-73 -70 -175 -130q-121 -68 -202 -68q-173 0 -173 236q0 57 1 141.5t3 199.5q2 116 3 201.5t1 141.5q0 178 -11 212l-38 22l-3 28q22 18 53.5 52.5t70.5 79.5l-16 11q-9 3 -44.5 3h-96.5q-63 0 -64 38z M434 1303q11 -18 13 -244q2 -84 1.5 -191.5t-1.5 -238.5l-2 -288q0 -125 81 -125h1q30 0 121 57q93 59 111 87q0 123 7 406q4 131 4 232.5t-4 174.5v-2q4 32 6 61t3 54q0 20 -18 33q-65 6 -156 6h-148zM1007 300q0 -114 82 -114q52 0 118 80q203 250 203 643q0 137 -32 250 q-48 163 -148 164h-198q-25 -37 -25 -600v-423z" />
<glyph unicode="X" horiz-adv-x="1172" d="M50 104q0 107 132 226q102 0 202 163q68 115 109 260q-32 102 -60 174.5t-53 120.5q-91 186 -191 234v9q63 139 191 205q65 0 145 -188q100 -237 111 -256l19 7q30 43 95 164q59 113 98 157q66 77 163 106h12q88 0 88 -85q0 -46 -52 -132q-50 -82 -98 -87l-47 20 q-44 -22 -120 -145q-80 -128 -80 -168q0 -37 141 -343q143 -300 158 -307q9 -3 24 -7t34 -9l9 -7q0 -58 -69 -136q-67 -80 -124 -80q-66 0 -175 269q-116 282 -141 299q-18 -11 -94 -166q-89 -184 -143 -265q-90 -139 -160 -139h-5l-65 2q-54 43 -54 104z" />
<glyph unicode="Y" horiz-adv-x="1122" d="M65 1300v8q50 52 79 81.5t38 37.5q84 74 143 74q22 0 37 -29t15 -56v-147t-2 -210l-2 -359q0 -218 180 -218q143 0 200 84q24 38 24 503v38v100q-7 43 -59 71l-11 15q18 39 107 121q91 80 130 80q75 0 75 -146l2 -443v-73q0 -144 -6 -266q-8 -152 -24 -275 q-134 -196 -236 -252q-89 -48 -273 -48h-117.5t-125.5 2q-167 0 -164 64q9 17 35.5 40.5t69.5 52.5q78 50 130 69q9 -5 21 -15.5t31 -21.5h354q54 0 54 159q0 77 -22 77q-154 -93 -277 -93q-121 0 -226 66q-120 72 -120 186q0 32 7 59l-4 14q2 9 3 85t1 224v269l-9 22 l-45 34z" />
<glyph unicode="Z" horiz-adv-x="1100" d="M16 41q0 28 47 61l15 28q15 9 35.5 22.5t49.5 31.5q57 37 96 37l12 -19l18 -13q38 -11 95 -11h345q32 38 56 119q25 89 24 137q0 169 -97 286q-103 128 -267 128q-78 0 -118 -18q-32 11 -38 55q15 43 188 219q161 167 167 191l-8 13q-66 6 -148 6h-43l-191 -6 q-30 -1 -56 -1q-178 0 -178 53q16 43 95 102q78 56 133 70q4 -2 24.5 -20t29.5 -18q345 0 555 -8h54q37 -9 37 -52q-46 -82 -139 -184l-154 -170q173 -100 239 -164q108 -109 108 -261q0 -30 -5.5 -83.5t-16.5 -133.5q-9 -73 -100 -249q-100 -196 -145 -196l-662 3 q-56 2 -57 45z" />
<glyph unicode="[" d="M418 -254v1850h423v-80h-112q-95 0 -115 -27q-18 -26 -18 -127v-1382q0 -80 5 -103q11 -52 128 -52h112v-79h-423z" />
<glyph unicode="\" horiz-adv-x="588" d="M68 -37l5 3v1238q0 61 57 149q56 91 109 124q54 35 154 35q204 0 243 -26q0 -52 -61 -115q-59 -59 -115 -78q-23 41 -48 50q-18 7 -71 8q-41 0 -46 -325v-269t2 -269q-4 -214 -6 -372.5t-2 -265.5q-16 -39 -85 -114q-70 -78 -106 -77q-30 0 -30 27v277z" />
<glyph unicode="]" d="M248 -175h109q98 0 116 25q20 22 20 130v1382q0 91 -9 111q-16 43 -127 43h-109v80h422v-1850h-422v79z" />
<glyph unicode="^" horiz-adv-x="1322" d="M34 605l625 937h35l601 -937h-120l-440 675l-453 -675h-248z" />
<glyph unicode="_" d="M-20 -169h1127v-124h-1127v124z" />
<glyph unicode="`" horiz-adv-x="976" d="M228 1471q0 32 23.5 53.5t54.5 21.5q46 0 126 -100q145 -182 145 -212q0 -32 -34 -32q-43 0 -96 43q-39 33 -87 75t-112 96q-20 23 -20 55z" />
<glyph unicode="a" horiz-adv-x="976" d="M70 254v162q11 105 45 150q53 68 306 175q223 96 223 155t-132 59q-167 0 -196 -9q-65 -18 -168 -98l-9 -2q-39 0 -39 36q0 55 106 148q109 96 165 96h304q189 0 189 -137v-133t-3 -190l-2 -325q0 -35 1 -65.5t4 -59.5l41 -30v-29l-5 -9q-152 -152 -206 -152 q-60 0 -60 148v19l-9 8q-32 -18 -81 -44.5t-114 -63.5q-118 -63 -202 -63q-157 0 -158 254zM300 314q0 -109 77 -110q55 0 141 37q96 37 118 78v221.5t2 148.5l-13 16q-46 0 -157 -71q-121 -78 -145 -122q-22 -44 -23 -198z" />
<glyph unicode="b" horiz-adv-x="1000" d="M128 171l11 1252q0 137 193 137h304q54 0 164 -96q107 -93 107 -148q0 -36 -39 -36l-9 2q-102 80 -167 98q-30 9 -197 9q-132 0 -133 -70v-41.5t-2 -47.5l-6 -50q-7 -11 -7 -39q0 -43 15 -59q18 11 43 26t59 33h282q80 0 129 -98q41 -80 41 -168v-166q0 -30 -34 -141 q-73 -232 -212 -382q-166 -179 -384 -179q-86 1 -124 37q-35 34 -34 114v13zM347 259q0 -70 74 -70q95 0 165 132q66 115 69 213q0 34 9 71v180q0 65 -32 122q-39 65 -103 66h-158l-17 -18q-7 -39 -7 -73v-623z" />
<glyph unicode="c" horiz-adv-x="799" d="M50 575q0 9 2 28.5t4.5 40t3.5 40t1 32.5q4 13 12.5 42t17.5 72q13 68 75 172q64 118 116 139q22 2 67.5 3.5t114.5 1.5h122q159 0 160 -57q0 -37 -73 -91q-74 -52 -114 -61q-34 50 -108 50q-14 0 -34 -1t-42.5 -1t-41.5 -1.5t-33 -1.5q-5 -11 -12.5 -26t-18.5 -38 l-15 -200q-1 -16 -1 -32q0 -143 72 -286q88 -170 250 -170h2q37 0 146 50q34 2 34 -24q0 -47 -139 -152q-134 -104 -186 -104q-176 0 -287 211q-95 177 -95 364z" />
<glyph unicode="d" horiz-adv-x="1026" d="M52 1332q130 159 164 159q12 -16 25 -34t25 -41q30 -25 73 -53.5t102 -59.5q65 -36 109 -61t68 -44q321 -222 321 -604q0 -211 -152 -399q-161 -195 -366 -195q-124 0 -195.5 68.5t-71.5 190.5v621l-41 36l-6 12q8 32 152 172l-11 21q-196 93 -196 211zM377 491 q0 -316 125 -316h1q134 0 200 144q52 111 52 258q0 11 -4.5 30.5t-4.5 30.5t4 21q-52 141 -112 213q-15 18 -58.5 59.5t-113.5 105.5l-52 13q-32 0 -37 -45v-73q0 -147 9 -168q0 -23 -1 -57t-3 -80q-2 -45 -3.5 -79t-1.5 -57z" />
<glyph unicode="e" horiz-adv-x="888" d="M52 543q0 159 55 329q63 202 177 269l462 -2q41 0 70.5 -33t29.5 -74q0 -84 -234 -394q-232 -312 -232 -322q0 -43 82 -66q63 -20 117 -20q66 0 204 82q34 2 33 -32q0 -48 -168 -165q-168 -115 -223 -115q-154 0 -271 200q-102 173 -102 343zM239 768q0 -32 20 -143 q13 -79 13 -115q0 -11 -1 -17q28 -52 50 -77q32 32 76 100q26 37 45.5 62t34.5 40q5 11 23 39.5t51 73.5q52 74 52 121q0 124 -156 124q-121 0 -156 -8q-52 -39 -52 -200z" />
<glyph unicode="f" horiz-adv-x="558" d="M68 -304v1358q0 141 25 206q22 56 121 172q18 18 36.5 36t40.5 35q5 -1 12 -1q20 0 57 5q32 -5 70 -5q12 0 25 1l98 4q54 0 54 -41q0 -43 -54 -100q-50 -56 -93 -56q-25 31 -130 31h-7l-13 -16q-7 -80 -8 -156q0 -70 55 -71q16 0 50 5.5t53 5.5q97 0 97 -36 q0 -113 -200 -114q-41 0 -55 -65q-8 -35 -8 -91q0 -21 1 -44q6 -110 7 -110v6l-2 -742q0 -56 -75 -154q-73 -100 -125 -100q-32 0 -32 37z" />
<glyph unicode="g" horiz-adv-x="1052" d="M46 -321l97 96q59 45 126 45h90.5t126.5 -2q73 -2 127.5 -2h91.5q52 0 52 89q0 2 -54 125q-26 61 -40.5 94t-18.5 37q-18 -18 -45.5 -43t-66.5 -57q-70 -63 -130 -63q-82 0 -213 113v17q-124 145 -124 375q0 314 269 608q9 30 82 30l9 -7h534l21 -27q-11 -23 -28 -55.5 t-38 -78.5q-18 -61 -18 -634q0 -66 30 -170q32 -109 31 -158q0 -89 -100 -227q-102 -146 -189 -146h-165h-89q-41 2 -72.5 2h-55.5h-213q-28 17 -28 34q0 2 1 5zM280 644q0 -317 186 -408h66q20 0 66 33q48 34 61 54q5 30 7 57t4 56q0 20 -1 50t-3 69t-2 67v46l4 7 q0 182 80 257q-41 16 -132 16h-264q-72 -90 -72 -298v-6z" />
<glyph unicode="h" horiz-adv-x="990" d="M52 1286q0 46 105 117q105 72 152 72h1q31 -27 31 -183v-10v74l-1 -18q-1 -54 -4 -275l14 -11q34 2 107 67h27q13 2 26 2h24h78q163 0 215 -28q73 -39 73 -184v-68q-2 -32 -2 -54.5v-40.5v-167v-265q-9 -150 -66 -253q0 -61 -166 -163q-163 -102 -234 -102q-30 0 -30 43 q11 18 40 45t72 66q75 66 100 120q52 115 52 425v97t-2 117l-5 150q0 100 -154 100q11 0 -5 0t-62 -2h-67l-21 -9q-16 -34 -18 -163q-2 -38 -2 -104.5t2 -162.5l2 -214q0 -106 63 -122v-23q-158 -159 -226 -159q-34 0 -64 61q0 137 -7 162q7 9 7 137l-7 13l7 13v145.5 t2 205.5q2 118 3 204.5t1 145.5q0 115 -20 161l-34 25z" />
<glyph unicode="i" horiz-adv-x="449" d="M46 957q13 43 91 106q79 66 122 67q73 0 73 -91q0 -104 -7 -312q-2 -104 -3 -181.5t-1 -129.5v-173q0 -25 22 -45q16 -16 25 -24.5t12 -12.5q0 -39 -50 -54q-107 -107 -193 -107q-62 0 -62 109q0 39 1.5 100.5t3.5 140.5q7 158 7 241v329q-18 11 -41 37zM65 1150 q0 102 78 214q81 122 178 122h2h2q87 0 87 -81q0 -73 -82 -123q-74 -45 -150 -48q-22 -11 -52 -54t-41 -50q-3 -1 -5 -1q-15 0 -17 21z" />
<glyph unicode="j" horiz-adv-x="510" d="M26 -300q15 16 36.5 41t50.5 57q41 63 41 336v595q-11 182 -59 212l-8 14q22 50 104 121q85 70 129 70h3l31 -3l21 -13q13 -39 13 -952q0 -207 -74 -326q-73 -117 -264 -193q-24 4 -24 32v9zM82 1167q0 82 63 193q73 126 143 126h1h54q57 -29 57 -81q0 -65 -66 -112 q-65 -41 -136 -41q-28 -11 -85 -95l-6 -5z" />
<glyph unicode="k" horiz-adv-x="981" d="M63 1284q2 39 187 178q11 2 22.5 2h22.5q35 -18 35 -52v4q-3 -63 -4 -129t-1 -139q0 -105 22 -105q16 9 104 68h332h3q175 0 175 -122q0 -65 -156 -204q-155 -135 -159 -151q46 -116 74 -182t39 -83q80 -155 182 -208l9 -16q-18 -50 -82 -99q-65 -53 -113 -53 q-66 0 -178 241q-111 241 -130 241q-22 0 -70 -41q-47 -41 -47 -63v-167q9 -6 20.5 -18.5t24.5 -31.5q-11 -34 -93 -97q-80 -64 -119 -64l-31 7q-37 46 -37 87v549q0 91 7 280q7 186 7 279q0 50 -46 89zM325 551l16 -8q39 9 197 155q158 144 158 177q0 65 -93 66h-256 q-20 0 -20 -43z" />
<glyph unicode="l" horiz-adv-x="442" d="M48 1293q15 41 95 106q82 67 119 67q63 0 63 -86q0 -182 -6 -545q-7 -367 -7 -546v-47t2 -38q11 -18 46 -35l2 -30q-18 -22 -44.5 -45.5t-58.5 -47.5q-80 -62 -120 -62q-61 0 -61 81q0 255 1 404t3 195q-4 8 -4 98q0 64 2 170l7 305q0 8 -18.5 28.5t-20.5 27.5z" />
<glyph unicode="m" horiz-adv-x="1516" d="M65 959q3 41 96 110q91 65 139 70l27 -13q9 -12 16 -27t17 -32l11 -15q6 2 76 48q53 32 76 32h145.5t203.5 -2l349 -2q89 0 120 -19q32 -18 71 -98l-9 -779q0 -9 20 -30q13 -16 20.5 -22.5t9.5 -8.5q0 -46 -87 -112q-86 -66 -134 -66q-28 0 -43.5 26.5t-15.5 53.5v127 t2 177q3 103 4 177.5t1 127.5q0 22 2 70t2 71q0 77 -41 109q-30 23 -117 23q2 0 -15.5 0t-49.5 2h-20q-105 0 -104 -20v-616q0 -39 3.5 -67.5t7.5 -51.5l41 -24q-4 -48 -91 -117q-91 -65 -141 -65q-52 0 -52 173q0 17 1 44.5t3 66.5q7 75 7 111q0 43 -2 82t-7 70q5 13 5 321 q0 93 -128 93q-104 0 -124 -9q-9 -28 -10 -360v-340l4 -34l32 -23l5 -9q0 -39 -87 -112q-84 -70 -126 -70q-59 0 -60 80l-5 673q0 15 4 48.5t4 48.5q0 70 -46 91z" />
<glyph unicode="n" horiz-adv-x="1022" d="M61 959q26 54 100 123q77 75 127 75h1l32 -11q22 -28 31 -50l17 -12q8 3 24.5 10.5t38.5 19.5q36 20 73 20h45t66 3q39 2 68.5 3t46.5 1q130 0 167 -84q20 -48 20 -209q0 -123 -2 -270.5t-7 -325.5v2q7 -65 46 -65l13 -18q-2 -37 -93 -108q-91 -70 -129 -70q-61 0 -62 77 v828q0 65 -193 65q-9 0 -38.5 -1t-81.5 -3q-22 -43 -24 -445q0 -295 17 -321l41 -15l7 -12q-2 -38 -89 -105q-87 -61 -128 -61q-77 0 -77 98q0 34 1.5 85t3.5 117q7 132 7 203v338q0 55 -12 73q-3 6 -57 45z" />
<glyph unicode="o" horiz-adv-x="944" d="M57 441v164q0 28 80 280q47 54 47 67q0 23 -54 24q-30 -5 -51.5 -5.5t-21.5 29.5q0 26 64 87q63 63 90 63h323q100 0 164 -52q30 -32 57.5 -65t55.5 -65q61 -183 61 -374q-6 -11 -6 -56q0 -156 -129 -343q-141 -202 -284 -202q-137 0 -267 155q-129 152 -129 293z M250 673q0 -144 60 -276q75 -163 202 -163q184 0 184 284q0 89 -48 223q-59 161 -121 177l-52 45q-22 3 -56.5 6.5t-79.5 10.5q-39 -25 -66 -141q-22 -93 -23 -166z" />
<glyph unicode="p" horiz-adv-x="1024" d="M57 959q13 16 34 62q131 131 179 131h1q30 0 48 -26q25 -42 31 -46q63 22 105 57h38.5t54.5 2q33 2 56 2h40h93q174 0 174 -326q0 -35 -13 -244v2q9 -28 9 -182q0 -182 -50 -273q-68 -118 -237 -118q-38 0 -122 32q-76 33 -116 33h-5q-36 0 -36 -106q0 -89 19 -111 q43 -22 42 -34q0 -44 -90 -107q-93 -66 -134 -67l-30 10q-30 39 -30 566q-5 14 -5 36q0 41 1 102.5t4 143.5q2 85 3.5 146t1.5 102q0 13 -2.5 33.5t-4 43.5t-3.5 43.5t-2 33.5l-9 14q-9 4 -18 11t-19 16zM339 594v2q13 -54 13 -153q0 -73 -7 -163q14 -41 69 -71 q54 -31 93 -31h5q52 0 117 38q48 64 48 350v68.5t-2 83.5l-2 114q0 141 -130 141h-179l-23 -14l-2 -95q-3 -84 -3 -152t3 -118z" />
<glyph unicode="q" horiz-adv-x="970" d="M32 323v400q0 163 129 286q128 125 296 125h291q43 0 67 -38.5t24 -84.5v-490v-144q-2 -63 -2 -113v-86v-341l-10 -19q0 -46 -79 -111q-80 -66 -128 -67l-17 13l-9 20v195l-6 7q0 22 4 67t4 67q0 98 -28 98q3 0 -93 -55q-98 -52 -165 -52q-87 0 -137 30q-18 11 -45.5 35 t-59.5 60q-5 28 -25 64q-4 52 -7.5 84.5t-3.5 49.5zM256 832q3 -49 3 -97.5t3 -98.5q-2 -80 -2.5 -140t-0.5 -99q0 -111 16 -152q28 -74 118 -74h2q46 0 119 33q80 39 80 80l2 548q0 125 -66 125h-1h-175q-89 0 -98 -125z" />
<glyph unicode="r" horiz-adv-x="777" d="M63 946q0 52 89 121q76 61 139 72l19 -9q9 -18 40 -50h10q45 52 83 52h175q150 0 150 -89q-15 -32 -82 -111q-63 -73 -95 -91h-5l-15 9q0 41 -7 72q-39 37 -139 37q-68 0 -89 -24q0 -337 -6 -707l9 -19l45 -27l9 -13q0 -35 -93 -104q-94 -65 -131 -65q-80 0 -80 145 q0 57 9 91q-3 16 -4 43t-1 66q0 85 7 226q4 95 6.5 150.5t2.5 74.5l-5 11q1 14 1 27q0 88 -42 112z" />
<glyph unicode="s" horiz-adv-x="838" d="M46 766q0 65 91 191q93 127 152 139q25 4 60 6t78 2h174q128 -11 128 -55q0 -33 -72 -92q-73 -59 -104 -59h-17q-20 34 -98 34h-174q-20 0 -34 -23.5t-14 -47.5q0 -58 148 -138q130 -70 197.5 -108t80.5 -44q149 -103 149 -211q0 -87 -68 -199q-66 -109 -144 -161 l-408 -2q-93 0 -93 41q0 36 74 102q80 65 119 68q13 -7 74 -40q16 -9 96 -10h132q13 0 30 16t17 29q0 78 -8 93q-35 59 -189 141q-107 57 -169.5 91.5t-82.5 49.5q-125 85 -125 187z" />
<glyph unicode="t" horiz-adv-x="612" d="M16 970q0 28 25 49q13 9 41 33q87 87 142.5 166.5t85.5 150.5q9 27 37 65l26 9q41 -11 41 -81q0 -18 -3.5 -53.5t-3.5 -54.5q0 -104 18 -128q20 -26 118 -26q45 1 45 -27q0 -41 -83 -134q-37 -2 -91 -21q-4 -30 -6.5 -78.5t-2.5 -116.5v-50.5t-3 -74.5q-2 -41 -2 -72v-51 q0 -241 47 -277q20 -3 67 -20l11 -24l-11 -20q-11 -9 -28.5 -24t-40.5 -35q-4 -4 -19.5 -15.5t-41.5 -29.5q-37 -30 -63 -30q-91 43 -123 139q-20 61 -20 186v289v71.5t2 97.5v117q0 26 -91 26q-73 0 -73 44z" />
<glyph unicode="u" horiz-adv-x="1024" d="M57 950q8 55 143 161q6 0 19 7.5t26.5 14t28.5 12t23 5.5q23 0 39 -24t16 -48q0 -59 -1 -150t-4 -214q-2 -123 -2 -212.5v-149.5q0 -133 115 -133h2q91 0 202 76q11 39 11 451q0 171 -68 202v15q161 183 245 183q64 0 64 -125v-153.5t-2 -214.5l-3 -371q0 -59 52 -104 q0 -41 -88 -113q-85 -69 -127 -69q-76 0 -76 102q0 11 1 23l-7 20l2 16l-13 6h-11q-250 -163 -375 -163q-96 0 -130 78q-22 47 -24 161l3 602q-3 18 -14 66q-9 7 -20 17.5t-27 25.5z" />
<glyph unicode="v" horiz-adv-x="961" d="M59 948q2 39 95 111q78 59 135 78q20 -3 43 -26l37 -42q2 2 16.5 11t41.5 27q39 25 61 25h126q82 0 139.5 -15t94.5 -48.5t52.5 -89t15.5 -138.5q0 -436 -291 -716q-59 -54 -137 -91q-88 -41 -158 -41h-89q-104 0 -130 135q-7 36 -7 217q0 37 9 52v78.5t2 103.5 q3 59 3 104.5v77.5q0 121 -14 148q-36 18 -45 39zM336 289q0 -50 25 -91t73 -41q32 0 73 18q175 188 175 500q0 186 -55 239q-52 52 -241 52l-29 -11q-20 -48 -21 -666z" />
<glyph unicode="w" horiz-adv-x="1545" d="M65 952q0 57 149 159q73 30 81 30l24 -9l28 -52l15 -9q98 68 126 68h249h62t81 2h102q241 0 382 -30q125 -91 125 -297v-47t-3 -44l-9 -16q-11 -219 -184 -457q-191 -259 -397 -259q-123 0 -157 16q-17 6 -43 58q-32 57 -50 78h-10q-182 -152 -354 -152q-111 0 -145 107 q-18 61 -19 199v510q0 61 -11 107q-42 22 -42 38zM345 778.5q0 -82.5 2 -194.5l3 -336q0 -75 73 -75h2q57 0 137 41q82 40 102 88q0 198 -1 350.5t-4 265.5l-9 17q-31 26 -65 26h-3h-187q-50 0 -50 -43v-139.5zM891 245q0 -97 57 -97q111 0 204 175q80 154 80 280v211 q0 145 -219 145h-99l-18 -13q0 -22 -2.5 -64.5t-2.5 -65.5v-571z" />
<glyph unicode="x" horiz-adv-x="947" d="M59 914q0 45 62 125q61 78 109 78q43 0 117 -132q83 -141 94 -148q11 2 84 81q73 80 134 128q91 70 161 71q71 0 71 -76q0 -65 -56 -136q-55 -68 -119 -82l-52 25q-20 -7 -44 -19.5t-46.5 -29t-40 -36t-24.5 -38.5q64 -111 135.5 -232.5t151.5 -253.5q2 -3 20.5 -13 t51.5 -33l4 -15q0 -48 -56 -121q-58 -75 -99 -75h-1l-24 2q-28 16 -146 227q-128 223 -166 269q-41 -3 -74 -116q-34 -134 -44 -145q-4 -39 -8 -68.5t-4 -55.5q0 -54 21 -82q4 -6 59 -61v-6q0 -74 -37 -162q-45 -109 -104 -109q-52 0 -86.5 38.5t-34.5 91.5v179 q0 133 116 382l113 243q0 20 -179 289h-50l-7 9z" />
<glyph unicode="y" horiz-adv-x="1040" d="M57 -330q0 50 86 116q76 54 137 66l20 -9q9 -29 77 -29h219q80 0 98 45q4 18 4 115l7 10q-2 18 -3 48q-1 11 -1 22q0 24 2 53l-17 11q-161 -118 -324 -118q-46 0 -78 5.5t-57 21.5t-45.5 42t-40.5 68q-7 133 -7 310v80l9 391l-11 17q-22 11 -52 41q18 47 91 104 q78 59 122 59q73 0 73 -161q0 -32 -6 -96q-3 -32 -4.5 -54.5t-1.5 -38.5q0 -86 17 -121q-14 -61 -14 -145v-146v-44t3 -36v-11v3q6 -118 126 -118q48 0 130 31q89 34 89 78v67.5t2 95.5q2 57 2 98v68v257q0 43 -11 73l-43 20l-7 11q137 163 232 164q61 0 61 -136 q0 -161 -6 -477q-3 -159 -4 -277.5t-1 -197.5q-4 -39 -21 -114q-22 -67 -111 -164q-86 -93 -160 -132h-523q-58 0 -58 34z" />
<glyph unicode="z" horiz-adv-x="926" d="M50 37q4 54 228 404q227 349 227 457q-28 43 -199 43q-65 0 -154 -6q-20 9 -20 43q20 22 52 53.5t78 70.5q40 -1 70 -1q83 0 93 8q22 -2 94 -2h195q150 0 150 -70l-259 -408q-195 -309 -195 -395l8 -32l23 -13q36 -7 268 -7q159 0 159 -30q0 -34 -131 -150 q-30 -2 -51.5 -2h-39.5h-468q-111 0 -128 37z" />
<glyph unicode="{" d="M206 668v67q78 2 117 13q68 16 91 63q13 30 13 96v60t-2 81q-2 48 -2 83.5v59.5q0 152 24 234q41 128 160 157q18 4 58 7t99 5h25t41 2h61v-84q-141 -5 -197 -28q-85 -37 -98 -154q-2 -11 -2 -48v-100v-134q0 -171 -15 -213q-26 -98 -111 -135q89 -38 114 -154 q4 -28 8 -79t4 -124v-211q-2 -186 52 -245q57 -57 245 -58v-83h-50q-58 0 -107.5 2t-87.5 7q-223 25 -223 329q0 124 7 414q2 103 -64 140q-47 28 -160 30z" />
<glyph unicode="|" horiz-adv-x="3102" d="M429.5 592q-8.5 139 63 251t195 147.5t249.5 -9t198 -143.5t110.5 -200.5t67 -226.5t38.5 -372h48q-3 93 -20 257t-57 303.5t-110.5 236t-129.5 146.5t-109.5 75t-120.5 25q26 32 62 40t114 -11q-35 37 -72.5 71.5t-108 44.5t-110 16.5t-84.5 49.5q77 9 134 2.5 t122 -26.5q-63 80 -106.5 100t-75 14.5t-62.5 31t-57 31.5t-26 -31t32 -40q-59 -43 -111 -24.5t-60.5 65t22 77t86.5 21.5q-64 37 -74.5 72t-5 69t-9.5 70q41 -22 73.5 -21t64.5 -9t55 -68q0 61 20.5 80.5t56.5 27t75 -31.5t41 -150q-65 59 -91 37t-12 -44.5t48 -41 t12 -77.5q67 -34 139 -132q-9 76 -1.5 111t-40.5 138q48 -37 74 -79t24 -96.5t10.5 -89t12.5 -77.5q55 -73 79 -115q-20 84 -10 129.5t47 97.5q0 -41 -4.5 -99t19.5 -120.5t72.5 -148t94 -173t69.5 -197.5t56 -537h36q0 123 -16.5 351t-70.5 411.5t-135.5 313.5t-100 189.5 t-22 116t26 137.5t177.5 166t210 163l2 7l2 -7q61 -78 208.5 -163t177.5 -166t26.5 -137.5t-22.5 -116t-100 -189.5t-133.5 -313.5t-70.5 -412t-18 -350.5h36q30 427 56.5 537t70.5 197.5t94 173t73 148t18.5 120.5t-4.5 99q37 -52 47 -97.5t-12 -129.5q26 43 78 115 q0 43 12.5 77.5t11 89t23.5 96.5t76 79q-47 -102 -40.5 -137.5t-0.5 -111.5q70 98 137 132q-20 59 12 77.5t46 41t-10 44.5t-89 -37q2 111 39 150t74 31.5t58.5 -26.5t21.5 -81q22 57 54 67.5t65 9.5t72 21q-14 -37 -7 -70.5t-6 -68.5t-74 -72q52 9 82.5 -21.5t25 -77 t-58.5 -65t-112 24.5q32 14 31.5 40t-27.5 31t-55.5 -31.5t-63 -31t-76 -15t-105.5 -99.5q63 20 121 27t134 -3q-46 -43 -86 -49.5t-109 -16.5t-105 -44.5t-73 -71.5q75 18 112.5 10.5t60.5 -39.5q-68 0 -117 -25t-109.5 -75t-131 -146.5t-111 -236t-57 -303.5t-20.5 -257 h48q9 247 38 372t67 226.5t110.5 200.5t199.5 143.5t250.5 9t196 -147.5t63 -251t-84 -217t-214.5 -126.5t-175 -125.5t10.5 -115t80.5 -37t19.5 16t-17.5 46.5t21 59.5t49 68q19 -39 56 -60t28 -79q37 41 63 33.5t37 -37t56 -44.5q-38 -27 -50.5 -52.5t-40.5 -39.5t-65 11 q9 -45 -16 -61t-60 -60q-27 53 -57.5 70t-0.5 76q-111 -20 -171.5 37.5t-53 140t103 200.5t84.5 197.5t-92 99t-158.5 -39t-128.5 -193.5t-66 -321q150 0 150 -98q0 -106 -276 -107q0 -64 99 -95.5t216 -42t183 -68.5t73 -105.5t-20 -84.5q-20 80 -67 87t-77.5 22t-57 45.5 t-91.5 45.5l31 -15l37 -28q36 -100 1.5 -79.5t-87.5 43.5t-80.5 60.5t-72.5 48.5q41 -37 70 -100q-98 18 -148 59t-102 102q7 -56 50 -104t159 -84t150 -95.5t-25 -148.5q-65 61 -68.5 106.5t-74.5 73.5l34 -65q-129 32 -154 82.5t-71 64.5q13 -63 42 -95t33.5 -89 t20.5 -150l-55 61q0 -73 -35 -113.5t-67 -92.5l-2 -8l-2 8q-33 52 -67.5 92.5t-34.5 113.5l-56 -61q16 93 21 150t33 88.5t39 95.5q-43 -13 -68 -64.5t-154 -82.5l34 65q-68 -28 -71.5 -73.5t-74.5 -106.5q-56 89 -22 148.5t149.5 95.5t159 84t47.5 104q-50 -61 -98.5 -102 t-146.5 -59q28 63 69 100q-46 -11 -74.5 -48.5t-81 -60.5t-87.5 -43.5t4 79.5l36 28l32 15q-66 -15 -91 -45.5t-57 -45.5t-78.5 -22t-66.5 -87q-28 37 -21 84.5t74 105.5t181.5 68.5t214.5 42t100 95.5q-273 0 -272 107q0 98 146 98q-16 186 -67.5 321t-128.5 193.5 t-157.5 39t-91 -99t85 -197.5t104.5 -200.5t-53.5 -140t-171.5 -37.5q28 -59 -2 -76t-58 -70q-34 44 -58.5 60t-15.5 61q-39 -25 -66 -11t-40 40t-54 52q46 14 58.5 44t38.5 37.5t63 -33.5q-9 57 27 79t57 60q22 -41 46 -68.5t22 -59t-17 -46.5t20.5 -16t81 37t10 115 t-175.5 125.5t-214 126.5t-82.5 217zM477.5 1454q-15.5 -40 11.5 -61.5t79 -12.5q-27 47 -6.5 73.5t54.5 25t62.5 -33t59 -33.5t40 28.5t-22.5 48.5t-41 56.5t21.5 66t82.5 -6.5q-28 84 -63 95.5t-54 -12.5t-19 -62.5t-20 -65.5q-28 52 -54 82.5t-101 25.5 q-15 -65 18.5 -100.5t112.5 -49.5l-18 -15q-127 -9 -142.5 -49zM2287 1605q52 34 82 6.5t21.5 -66t-41 -56.5t-22.5 -48.5t39.5 -28.5t59 33.5t63.5 33t53.5 -25t-2.5 -73.5q50 -9 76 12.5t11 61.5t-143 49l-18 15q83 14 115.5 49.5t14.5 100.5q-73 5 -100 -25.5t-54 -82.5 q-18 27 -18.5 65.5t-19 62.5t-54.5 12.5t-63 -95.5z" />
<glyph unicode="}" d="M195 -171q148 0 205 30q88 46 91 175q2 30 2 105v197q0 157 8 202q15 119 117 165q-102 45 -120 182v56t-3 107l-2 134q0 39 -1 81t-4 88q-17 106 -108 140q-53 15 -185 21v84q252 0 321 -25q98 -39 130 -164q16 -61 16 -218v-143t-3 -144q0 -77 25 -108q39 -48 196 -59 v-67q-115 -6 -157 -30q-68 -39 -66 -135q7 -298 7 -419q0 -236 -132 -305q-66 -34 -287 -33h-50v83z" />
<glyph unicode="~" horiz-adv-x="1050" d="M46 935q145 234 329 234q57 0 187 -46q123 -43 184 -43q111 0 213 130l60 -41q-134 -230 -323 -230q-43 0 -143 31q-184 61 -251 62q-63 0 -113 -43q-18 -13 -82 -93z" />
<glyph unicode="&#xa1;" horiz-adv-x="558" d="M141 32q0 5 25 50q25 46 27 59q43 186 43 514q0 227 -25 306q-11 39 -11 46q0 15 11.5 34.5t29.5 37t37 28t38 10.5q55 0 89 -126q46 -171 46 -357q0 -314 -41 -500q-12 -52 -56 -82q-11 -6 -34 -16t-58 -23q-54 -20 -73 -20q-48 0 -48 39zM163 1373q0 50 73 109 q39 32 74 32q61 0 122 -84q48 -66 48 -102q0 -46 -59 -109q-39 -39 -67 -39q-25 0 -33 15q-2 5 -5.5 13.5t-11.5 23.5q-4 20 -70 91q-11 11 -13 11q-57 2 -58 39z" />
<glyph unicode="&#xa2;" horiz-adv-x="940" d="M59 989q0 41 80 113q30 28 59.5 55t57.5 53q30 34 94 42q27 2 54.5 5t55.5 5q4 63 6 72q2 39 25 69q45 66 62 66q39 0 38 -44q0 -15 -9 -34q-11 -28 -17 -59.5t-8 -69.5q32 0 77 -2t105 -8q130 -11 129 -85q0 -28 -29 -94q-13 -32 -22.5 -57t-13.5 -43q-23 -91 -76 -91 q-39 0 -38 29q0 5 5.5 19t11.5 31t11.5 34.5t5.5 32.5q0 43 -166 45l-14 -570q-5 -59 12 -60q34 0 91 64q28 28 44.5 52.5t28.5 44t23 31t24 11.5q41 0 41 -41q0 -54 -123 -205q-26 -33 -59.5 -64.5t-76.5 -62.5q3 -37 4 -68.5t5 -61.5v-6q0 -30 -18 -53t-34 -43 q-20 -43 -41 -43q-32 0 -32 39l2 91v126q-134 39 -239 244q-86 167 -117 339q-9 52 -14 89t-5 63zM254 1013q0 -163 89 -360q43 -96 104 -162q5 145 9 290t4 295q-59 -3 -93.5 -3t-43.5 -2q-68 -11 -69 -58z" />
<glyph unicode="&#xa3;" horiz-adv-x="1072" d="M13 659q0 20 30 59q11 13 20.5 27t20.5 30q50 77 64 91q30 28 97 28h39q-102 170 -102 288q0 63 150 207q18 22 30.5 37t21.5 20q59 39 230 38q291 0 291 -109q0 -32 -53 -132q-45 -141 -102 -141q-38 0 -38 41q0 7 6.5 18.5t13.5 25t14 25t7 18.5q0 68 -232 68 q-66 0 -89 -5q-48 -11 -48 -56q0 -116 114 -298q30 -50 66 -61q61 -22 156 -23q78 0 117 27q13 14 36 41t41 27q36 0 36 -43q0 -16 -18 -57q-8 -11 -15.5 -25t-16.5 -27q-30 -65 -52 -89q-34 -34 -93 -34q-14 0 -35.5 2t-53.5 7q18 -48 18 -81q0 -87 -68 -165 q-15 -17 -45 -46.5t-73 -68.5q-50 -45 -82 -74.5t-43 -42.5q54 23 100 24q43 0 102 -14q169 -38 221 -38q65 0 132 45q63 48 72 48q41 0 41 -43q0 -28 -20 -48q-32 -30 -61.5 -59.5l-59.5 -59.5q-82 -98 -169 -98q-69 0 -206 28t-204 27q-52 0 -117 -27q-63 -28 -83.5 -28 t-20.5 46q0 63 262 305q134 128 133 213q0 57 -88 178q-47 7 -97 7q-118 0 -160 -18q-9 -2 -43 -41q-35 -35 -55 -35q-39 0 -39 41z" />
<glyph unicode="&#xa4;" horiz-adv-x="1447" d="M113 1262l87 86l200 -198q147 111 325 112q152 0 321 -114l202 203l86 -87l-202 -205q105 -161 105 -315q0 -152 -107 -314l204 -207l-86 -84l-205 202q-161 -109 -320 -109q-152 0 -318 107l-199 -202l-85 88l198 198q-111 159 -113 314q0 150 108 324zM360 746 q0 -152 104 -258q104 -104 259 -104q152 0 257 104q107 107 107 256q0 152 -107 258q-108 107 -262 107q-147 0 -254 -107q-104 -104 -104 -256z" />
<glyph unicode="&#xa5;" horiz-adv-x="1247" d="M70 809q0 16 25 46q14 17 32 39t44 47q9 7 139 7h42q-57 163 -57 198q0 38 41 79l41 39q0 7 -91 7q-65 0 -106 -57q-37 -56 -69 -57q-41 0 -41 38q0 26 71 124q11 17 29.5 43.5t40.5 62.5q34 55 84 52q11 0 121 -13q11 -2 55.5 -1t122.5 3q50 3 50 -41q0 -20 -71 -84 q-68 -66 -68 -127q0 -80 70 -277q63 -191 82 -191q2 2 9 15q39 68 80 140t81 145q30 54 59.5 96t59.5 75q36 36 36 52q-2 2 -36 2q-126 0 -155 -41q-52 -73 -86 -73q-41 0 -41 38q0 23 22 48q48 55 123 178q32 52 96 52q17 0 47 -2t71 -7q39 -4 67.5 -6.5t48.5 -2.5 q25 2 42 1t23 -3q37 -9 37 -48q0 -25 -37 -60q-93 -86 -165 -193q-18 -30 -52.5 -83t-81.5 -132h138q33 0 63.5 10t39.5 10q41 0 41 -35q0 -20 -80 -85q-33 -26 -68 -26q-16 0 -41 1.5t-61 3.5l-102 7q-5 -7 -41 -68q-18 -30 -35.5 -58.5t-33.5 -52.5q-2 -5 -6.5 -15.5 t-11.5 -27.5l50 -3h70l164 -2q30 0 57.5 10t35.5 10q39 0 39 -34q0 -14 -73 -87q-25 -25 -61 -24q-54 0 -139 6q-54 5 -89.5 6t-51.5 3q3 -43 4 -71.5t1 -45.5q0 -89 -48 -185l-4 -9q34 14 75 14q9 0 23.5 -2.5t24.5 -2.5q6 0 15 7t19.5 15t20.5 15t17 7q39 0 39 -42 q0 -25 -96 -154q-41 -56 -80 -58q-22 0 -61 10q-11 3 -26 4t-32 1q-23 0 -60.5 -9.5t-56.5 -9.5q-43 0 -43 43q0 18 14 39q66 107 66 271v168q-91 2 -156 -2.5t-106 -13.5q-14 -2 -44.5 -20.5t-45.5 -18.5q-32 0 -32 32q0 18 20 44q11 17 28 40t38 49q20 11 124 8l160 -4 q-41 73 -114 227q-68 -2 -114.5 -7t-72.5 -9q-13 -2 -47 -20.5t-55 -18.5q-34 0 -34 32z" />
<glyph unicode="&#xa6;" d="M471 352h145v-734h-145v734zM471 707v762h145v-762h-145z" />
<glyph unicode="&#xa7;" horiz-adv-x="896" d="M61 57q0 25 48 112q48 86 45 93q30 75 71 74q41 0 41 -39q0 -6 -7 -17t-16 -24t-15.5 -26.5t-6.5 -23.5q0 -45 184 -45t239 21q9 2 9 9q0 136 -326 352q-256 169 -257 273q0 84 158 221q-167 104 -167 191q0 39 37 75l59 55q36 38 71 83q50 50 88 57q26 5 77.5 7t131.5 2 q73 0 117 -1t61 -3q136 -13 136 -73q0 -18 -43 -102q-52 -107 -55 -109q-27 -66 -68 -67q-41 0 -41 37q0 6 8 18t16 25t15.5 27t7.5 23q0 43 -186 43q-245 0 -245 -27q0 -30 66 -81q126 -100 382 -165q125 -30 124 -104q0 -128 -195 -362q70 -61 117 -118.5t72 -110.5 q25 -54 25 -91q0 -41 -28 -68q-2 -5 -70 -66q-34 -45 -71 -84q-43 -46 -88 -57q-30 -4 -80.5 -7.5t-128.5 -3.5q-73 0 -116 1t-62 3q-134 14 -134 73zM236 905q0 -55 114 -141q113 -85 177 -85q46 0 93 52q50 50 50 99q0 18 -32 36l-156 52q-18 7 -56 22t-92 38 q-98 -37 -98 -73z" />
<glyph unicode="&#xa8;" horiz-adv-x="976" d="M291 1267q0 210 164 210q88 2 88 -78q0 -76 -70 -126t-148 -50q-25 0 -29.5 8t-4.5 36zM582 1267q0 210 164 210q91 2 91 -78q0 -78 -76 -128q-65 -48 -145 -48q-25 0 -29.5 8t-4.5 36z" />
<glyph unicode="&#xa9;" horiz-adv-x="1510" d="M52 1121q0 130 71 172l11 7q78 43 150 116q30 30 61 39q91 32 460 31q416 0 523 -72q129 -89 129 -300q0 -259 -152 -585q-179 -390 -430 -540q-52 -32 -111 -32q-185 0 -412 279q-171 211 -245 501q-55 211 -55 384zM236 1217q0 -291 111 -583q130 -339 349 -459 q75 -41 131 -41q145 0 287 239q180 302 179 694q0 124 -43 167q-76 80 -523 80q-339 0 -443 -25q-48 -11 -48 -72zM464 731q0 9 2 28.5t7 49.5q11 59 7 78q95 330 149 332q14 2 34.5 2h50.5h147h33q15 -2 25.5 -2h19.5h80q20 -11 20 -28l-16 -37q-79 -80 -116 -78l-18 22 q-25 13 -50 13h-81t-88 -2q-41 -39 -54 -146q-4 -38 -7.5 -71t-3.5 -57q0 -187 72 -273q2 -28 64 -74q57 -41 91 -41q44 0 109 28q61 30 85 30q17 0 17 -25q0 -28 -15 -29q-193 -193 -264 -195q-26 0 -78 33q-223 134 -222 442z" />
<glyph unicode="&#xaa;" horiz-adv-x="677" d="M28 1028q0 39 24 63q2 7 57 43q28 35 89 70q56 11 145 13q141 0 214 -17q52 -11 52 -52q0 -46 -13 -137q-4 -45 -8 -79t-4 -57q0 -100 19 -140v-6l17 24q16 20 39 20q37 0 37 -36q-1 -25 -17 -41l-47 -46q-44 -56 -50 -59q-18 -12 -34 -12q-100 0 -112 196 q-84 -193 -163 -193q-98 0 -180 173q-65 143 -65 273zM175 1052q0 -115 73 -249q41 -76 58 -76q33 0 115 264q15 48 15 66q0 2 -6 6q-42 11 -141 13q-114 0 -114 -24z" />
<glyph unicode="&#xab;" horiz-adv-x="715" d="M70 516q0 76 91 137q25 15 61.5 38t87.5 55q25 18 40 18q34 0 34 -29q0 -22 -74 -99q-76 -73 -76 -107q0 -52 37 -102q20 -32 33 -34q2 -5 48 0q32 0 32 -33q0 -30 -65 -48q-5 0 -48 -26q-39 -25 -62 -24q-44 0 -125 181q-13 30 -14 73zM330 514q0 54 50 104 q20 20 106 87q89 68 100 68q37 0 37 -29q0 -28 -118 -160q-20 -26 -21 -52q0 -37 37 -87q36 -48 73 -43q56 2 56 -36q0 -13 -9 -22.5t-23.5 -16t-34.5 -17t-40 -26.5q-30 -22 -52 -22q-50 0 -107 102q-54 91 -54 150z" />
<glyph unicode="&#xac;" horiz-adv-x="1692" d="M18 694q0 206 84 465q104 327 250 327h1084q64 3 98 -29l14 -32q-8 -52 -82 -111q-67 -54 -123 -62q-37 9 -56.5 26t-49.5 22q-39 9 -170 10h-76q-15 -2 -15 -264q0 -64 13 -66q18 5 61 39q43 32 61 31h189q163 0 205 -15q91 -35 91 -167v-413v-108q2 -36 2 -62v-44 q0 -180 -38 -289q-50 -145 -187 -221q-136 -75 -173 -74q-34 -1 -41 31q18 18 36.5 39t36.5 39q80 82 96 139q32 93 34 236v245v250q4 169 -23 228q-20 27 -289 27h-65q-5 -4 -5 -327q0 -7 -1 -27.5t-3 -54.5q-3 -32 -4.5 -59.5t-1.5 -47.5q0 -159 46 -184l5 -9 q-6 -52 -91 -123q-84 -70 -132 -77l-43 18q-22 39 -18 152q-11 13 -19 14q-9 0 -102 -93q-91 -91 -161 -91q-202 0 -332 268q-104 216 -105 444zM230 870q0 -202 86 -382q105 -220 289 -219q113 0 134 65v116t2 151q3 99 3 165v98v418q0 28 -32 28q-14 -2 -28 -2t-25 -3 q-15 3 -74.5 4t-163.5 1q-9 0 -24 2t-24 2q-46 0 -57 -25q-61 -161 -62 -202q0 -33 -13 -107q-5 -36 -8 -64t-3 -46z" />
<glyph unicode="&#xad;" horiz-adv-x="477" d="M-20 488q0 14 31 71q35 57 49.5 67t34.5 10q33 0 94 -13q63 -14 95 -14q98 0 154 44q18 11 28 11q32 0 32 -32q-1 -12 -12 -27q-15 -22 -48 -93q-20 -44 -81 -39l-246 15q-30 3 -62.5 -12.5t-39.5 -15.5q-30 0 -29 28z" />
<glyph unicode="&#xae;" horiz-adv-x="1510" d="M52 1121q0 130 71 172l11 7q78 43 150 116q30 30 61 39q91 32 460 31q416 0 523 -72q129 -89 129 -300q0 -259 -152 -585q-179 -390 -430 -540q-52 -32 -111 -32q-185 0 -412 279q-171 211 -245 501q-55 211 -55 384zM236 1217q0 -291 111 -583q130 -339 349 -459 q75 -41 131 -41q145 0 287 239q180 302 179 694q0 124 -43 167q-76 80 -523 80q-339 0 -443 -25q-48 -11 -48 -72zM473 1139q52 78 134 100q32 -16 109 -16h152q234 -1 234 -160q0 -102 -76 -176q-28 -22 -87 -80q5 -16 11.5 -36.5t15.5 -50.5q9 -52 28 -124.5t49 -168.5 q9 -25 41 -34l7 -9q-20 -50 -115 -125h-8l-16 3q-13 9 -36 63q-18 59 -18 77q-18 30 -54 184q-35 141 -53 160q9 -2 6 -4.5t-22 -4.5q-16 -2 -28 -2h-22q-20 -7 -20 -41v-251l4 -20l26 -18l4 -8q0 -32 -55 -78q-55 -48 -88 -48q-18 0 -41 43q0 57 -1 94t-1 19v235q0 17 1 45 t3 63q2 39 3.5 66.5t1.5 45.5q0 50 -7 91q-11 3 -30 23q16 30 89 106l-2 9q-37 -2 -51.5 -3t-7.5 -1q-80 0 -80 32zM700 1098q0 -7 4.5 -22t4.5 -22q0 -27 -2 -77.5t-2 -78.5q0 -87 18 -87q77 0 147 59q71 57 71 139q0 98 -147 98q-94 0 -94 -9z" />
<glyph unicode="&#xaf;" d="M225 1123q0 18 41 87q20 34 34 53t24 27t19 10.5t21 2.5q20 0 49.5 -5t68.5 -14t68 -13t51 -4q117 0 195 56q18 11 31 11q34 0 34 -34q0 -14 -31 -72l-43 -76q-26 -52 -95 -48l-306 22q-20 0 -41.5 -6t-40 -13t-32 -12.5t-16.5 -5.5q-32 0 -31 34z" />
<glyph unicode="&#xb0;" horiz-adv-x="772" d="M59 1167q0 136 95 228q100 94 237 94q134 0 227 -96q96 -95 96 -229q0 -138 -96 -229q-97 -94 -232 -94q-134 0 -232 94q-95 95 -95 232zM163 1164q0 -95 64 -160t159 -65q96 0 159.5 66t63.5 162q0 95 -66 159.5t-161 64.5q-46 0 -86 -18t-69 -50t-46.5 -72.5 t-17.5 -86.5z" />
<glyph unicode="&#xb1;" d="M34 107v125h1020v-125h-1020zM34 703v122h446v418h127v-418h447v-122h-447v-412h-127v412h-446z" />
<glyph unicode="&#xb2;" horiz-adv-x="658" d="M-7 638q0 105 311 444q182 200 182 246q0 32 -163 32q-123 0 -171 -24q-4 -4 -27 -33q-15 -22 -41 -23q-45 0 -43 43q0 32 109 166q43 22 195 23q121 0 182 -18q102 -34 102 -130q0 -75 -70 -160q-15 -17 -49.5 -53.5t-91.5 -91.5q-184 -182 -257 -309q28 9 69 9 q18 0 44 -2t62 -7q70 -6 109 -6q55 0 80 20q2 2 7.5 10.5t18.5 19.5q11 17 33 17q43 0 43 -43q0 -15 -24 -52t-39 -57q-41 -73 -119 -73q-18 0 -70 4t-136 13q-11 2 -35 2h-56q-18 0 -54.5 -8.5t-54.5 -8.5q-46 0 -46 50z" />
<glyph unicode="&#xb3;" horiz-adv-x="649" d="M2 798q0 30 48 63q13 9 50 46q30 30 54 30q41 0 41 -39q0 -26 -29 -48h-5q0 -27 53 -73q55 -41 86 -40q67 0 134 122q41 78 41 134q0 33 -65 33q-14 0 -37 -3.5t-47 -7.5t-45.5 -6t-35.5 -2q-45 0 -45 43q0 26 127 148q130 123 130 147q0 9 -32 14t-113 5q-78 0 -132 -21 q-2 0 -28 -31q-22 -30 -48 -30q-41 0 -41 41q0 16 30 52q30 37 37 52q22 53 54 64q61 22 218 23q211 0 212 -100q0 -70 -105 -166q-34 -33 -79 -79h21q171 0 169 -130q2 -117 -169 -316q-116 -139 -180 -139q-93 0 -198 102q-70 63 -71 112z" />
<glyph unicode="&#xb4;" horiz-adv-x="976" d="M464 1230q0 32 145 213q78 98 126 99q30 0 53 -22t23 -51q0 -48 -91 -126q-32 -25 -63.5 -49.5t-62.5 -50.5q-58 -45 -99 -45q-32 0 -31 32z" />
<glyph unicode="&#xb6;" horiz-adv-x="1013" d="M46 1204q0 48 15 71q63 55 158 144q50 50 143 61q9 2 49 2h110q32 0 78.5 -3.5t107.5 -7.5q63 -5 110 -7t79 -2q9 0 28.5 5.5t27.5 5.5q53 0 53 -48q0 -22 -27 -45q-61 -50 -91 -141q-28 -80 -28 -319q0 -56 3.5 -140t7.5 -198q5 -111 8.5 -195.5t3.5 -141.5 q0 -86 -25 -136q-32 -61 -141 -198q-111 -141 -173 -170q-32 -15 -63 -16q-87 0 -180 93q-52 52 -52 98q0 36 30 56q17 11 65 35q48 22 68.5 39t41.5 17q48 0 48 -43q0 -20 -37 -36q-37 -15 -37 -30q0 -22 39 -41q30 -13 59 -13q163 0 164 410q0 39 -1.5 96.5t-3.5 134.5 t-3.5 135t-1.5 97q-125 -167 -238 -166q-68 0 -141 63q-139 118 -207 308q-47 132 -47 226zM534 1159q0 -118 64 -272q20 -50 25 -55q4 0 30 53q25 54 24 63l-7 82l-2 77q-2 30 -1 48t3 27q7 28 46 55q25 17 46 32t36 26q0 21 -134 21q-66 0 -82 -13q-48 -34 -48 -144z" />
<glyph unicode="&#xb7;" horiz-adv-x="417" d="M32 553q0 36 79 89q80 52 119 52l150 -130q2 -63 -33 -71q-99 -89 -145 -88q-32 0 -59 33l-54 65q-57 30 -57 50z" />
<glyph unicode="&#xb8;" horiz-adv-x="799" d="M286 -266q0 30 30 30q18 0 59 -50q9 -14 35 -14q45 0 93 86q20 36 20 55q0 22 -70 22h-53q-37 0 -40 3q-26 6 -26 39q0 17 28 141h111l-18 -78q0 -2 2 -2q50 0 64 -5q11 -2 54 -39q73 -45 73 -83q-1 -61 -64 -145q-78 -105 -150 -106q-43 0 -95 52q-53 53 -53 94z" />
<glyph unicode="&#xb9;" horiz-adv-x="467" d="M4 616q0 4 42 70q36 57 79 58h18t30 -3l5 -2q6 35 6 75q0 75 -6 229q-3 78 -4 134.5t-1 95.5q0 43 9 63l-13 -6q-44 -22 -67 -22q-43 0 -43 37q0 39 78 62q45 14 119 68q44 35 69 35q44 0 44 -39q0 -20 -24 -89q-20 -73 -20 -132q0 -87 2.5 -173t6.5 -172q2 -23 2 -38 v-26q0 -70 -43 -116h13q14 0 31 7t32 16t26.5 15.5t18.5 6.5q39 0 39 -35q0 -9 -39 -69q-50 -78 -114 -78q-14 0 -39 3t-52 5t-52 4.5t-39 2.5q-18 0 -45 -10.5t-34 -10.5q-35 0 -35 34z" />
<glyph unicode="&#xba;" horiz-adv-x="633" d="M28 1011q0 39 40 85q39 32 78.5 69t96.5 47q11 2 40 3.5t74 1.5q111 0 164 -22q86 -34 86 -122q0 -173 -145 -368q-91 -126 -176 -126q-102 0 -188 169q-70 143 -70 263zM184 1037q0 -89 64 -219q43 -89 86 -89q57 0 98 112q34 89 34 159q0 48 -28 61q-27 15 -138 15 q-66 0 -107 -13q-9 -2 -9 -26z" />
<glyph unicode="&#xbb;" horiz-adv-x="715" d="M80 646q-7 13 0 25.5t20 22t31.5 18t34.5 15.5q53 39 66 39q52 0 109 -104q52 -98 52 -153q0 -52 -48 -102q-11 -13 -41.5 -37.5t-75.5 -59.5q-74 -57 -94 -58q-36 0 -32 32q5 28 71 104q68 78 68 105q0 39 -37 84q-39 48 -74 46q-39 -5 -50 23zM341 291q0 22 73 95 q76 70 74 109q0 54 -33 103q-18 28 -37 31q-4 3 -47 3q-30 2 -30 36q0 28 66 46q7 0 19 7.5t28.5 17t32.5 17.5t29 8q41 0 128 -182q11 -28 11 -73q0 -88 -171 -186q-109 -61 -113 -61q-30 0 -30 29z" />
<glyph unicode="&#xbc;" horiz-adv-x="2102" d="M68 -37l5 3v1238q0 61 57 149q56 91 109 124q50 35 195 35q225 0 264 -26q0 -52 -62 -115q-59 -59 -115 -78q-30 57 -180 58q-41 0 -46 -325v-269t2 -269q-4 -214 -6 -372.5t-2 -265.5q-16 -39 -85 -114q-70 -78 -106 -77q-30 0 -30 27v277zM529 575q0 9 2.5 28.5t4.5 40 t3.5 40t1.5 32.5q6 15 13.5 44t16.5 70q13 68 75 172q63 118 115 139l260 5q167 0 166 -57q0 -37 -73 -91q-73 -52 -114 -61q-30 50 -74 50q-26 0 -73.5 -2.5t-73.5 -2.5q-4 -11 -12 -26t-19 -38l-17 -239q0 -171 78 -297q91 -152 248 -152q45 0 166 54h9v76l-7 13l7 13 v145.5t2 205.5q3 118 4 204.5t1 145.5q0 115 -20 161l-35 25l-6 13q4 46 104 117q107 73 154 72q30 -28 30 -193q0 111 -1 56.5t-3 -275.5l15 -11q33 5 105 67h28q13 2 25.5 2h23.5h78q163 0 215 -28q74 -39 74 -184v-163.5t-2 -166.5v-265q-9 -150 -67 -253 q0 -61 -165 -163q-164 -102 -235 -102q-30 0 -30 43q11 16 39 44t73 67q74 66 100 120q55 111 55 425q0 32 -1 77.5t-4 104.5q-2 59 -3 104.5t-1 77.5q0 100 -156 100q12 0 -3.5 0t-61.5 -2h-68l-21 -9q-15 -34 -18 -165q-4 -74 0 -265l3 -214q0 -106 63 -122v-23 q-159 -159 -228 -159q-34 0 -63 61v84q0 26 -1 41.5t-3 27.5q-48 -54 -150 -127q-121 -87 -169 -87q-173 0 -284 211q-96 177 -96 364z" />
<glyph unicode="&#xbd;" horiz-adv-x="1054" d="M68 -37l5 3v1238q0 57 57 149q59 93 106 122q50 35 180 35q246 0 284 -28l-6 -36q61 66 191 66q204 0 243 -26q0 -52 -65 -115q-58 -59 -115 -78q-22 41 -48 50q-18 7 -68 8q-41 0 -45 -325v-538q-4 -214 -7 -372.5t-3 -265.5q-9 -18 -29.5 -46.5t-53.5 -65.5 q-74 -80 -106 -79q-30 0 -29 27v277l5 3v1238q0 53 54 147q-52 -48 -95 -62q-35 61 -182 62q-41 0 -46 -325v-269t2 -269q-4 -214 -6 -372.5t-2 -265.5q-20 -43 -85 -114q-70 -78 -106 -77q-30 0 -30 27v277z" />
<glyph unicode="&#xbe;" horiz-adv-x="1133" d="M68 -37l5 3v1238q0 57 57 149q59 93 106 122q50 35 171 35q236 0 277 -28q-5 -55 -64 -113q-63 -64 -115 -80q-32 61 -164 62q-41 0 -46 -325v-269t2 -269q-4 -214 -6 -372.5t-2 -265.5q-16 -39 -85 -114q-70 -78 -106 -77q-30 0 -30 27v277zM536 963q0 23 23 44t44 39 q168 175 224 316q9 20 41 63l26 11q41 -11 41 -81q0 -17 -4.5 -54t-4.5 -56q0 -102 20 -128t117 -26q46 1 46 -24q0 -41 -83 -135q-18 -2 -42.5 -8t-48.5 -15q-5 -30 -7 -78t-2 -115v-51t-4 -74q-2 -42 -2 -72.5v-50.5q0 -243 48 -279q11 -3 27 -6t40 -12l11 -23l-11 -20 q-26 -18 -69 -63q-5 -2 -20.5 -13t-40.5 -30q-37 -30 -66 -29q-91 46 -121 137q-22 61 -22 189v118.5t2 169.5l2 287q0 25 -91 24q-73 0 -73 45z" />
<glyph unicode="&#xbf;" horiz-adv-x="738" d="M84 175q0 79 66 179q4 9 191 217q130 145 130 227q0 34 -20.5 75t-50.5 43l-100 -50q-48 0 -48 45q0 30 23 46l82 69l61 67q23 20 55 21q50 0 109 -66q73 -87 73 -182q0 -96 -137 -241q-243 -262 -243 -359q0 -80 172 -80q137 0 167 70q28 59 59 60q43 0 43 -43 q0 -39 -87 -132q-56 -95 -76 -113q-37 -30 -130 -30q-152 0 -219 22q-121 39 -120 155zM332 1378q0 45 54 93q52 50 100 50q52 0 110 -64q59 -63 59 -116q0 -41 -43 -100q-46 -61 -80 -61q-35 0 -48 65q-4 28 -68 98q-2 2 -50 -2q-34 -5 -34 37z" />
<glyph unicode="&#xc0;" horiz-adv-x="1181" d="M46 1364q15 43 82 98q61 56 113 70q18 -11 56 -25q57 -11 126 -11q50 0 145 7q98 7 148 7q184 0 232 -16q113 -39 113 -171q0 -59 -1 -147.5t-3 -207.5q-3 -118 -3 -205.5v-146.5q0 7 -6 -136q-5 -87 6 -137q18 -73 65 -109l9 -15q-5 -33 -107 -124q-100 -91 -136 -91 q-82 0 -82 148q0 518 11 537l-3 3q-4 13 -4 199l-24 18h-310q-26 0 -26 -182q0 -28 2 -68.5t4 -94.5q2 -55 3 -96t1 -68q0 -307 -157 -370q-26 -11 -53.5 -19.5t-57.5 -17.5l-18 18q0 9 5.5 23t12 27.5t12 27t5.5 20.5q5 86 9 321.5t4 628.5q0 65 -21 78q-28 15 -29 25 q11 32 50 75q43 49 52 73l-9 9q-20 6 -160 6l5 -2q-61 2 -61 41zM289 1816q0 32 23.5 53.5t56.5 21.5q45 0 124 -99q145 -182 145 -212q1 -32 -33 -32q-43 0 -96 44q-38 32 -87 73.5t-112 96.5q-20 22 -21 54zM453 1310q4 -18 4 -208q0 -30 261 -29h55q43 0 43 68v52 q0 96 -37 117q-25 15 -133 15h-160l-29 -4z" />
<glyph unicode="&#xc1;" horiz-adv-x="1181" d="M46 1364q15 43 82 98q61 56 113 70q18 -11 56 -25q57 -11 126 -11q50 0 145 7q98 7 148 7q184 0 232 -16q113 -39 113 -171q0 -59 -1 -147.5t-3 -207.5q-3 -118 -3 -205.5v-146.5q0 7 -6 -136q-5 -87 6 -137q18 -73 65 -109l9 -15q-5 -33 -107 -124q-100 -91 -136 -91 q-82 0 -82 148q0 518 11 537l-3 3q-4 13 -4 199l-24 18h-310q-26 0 -26 -182q0 -28 2 -68.5t4 -94.5q2 -55 3 -96t1 -68q0 -307 -157 -370q-26 -11 -53.5 -19.5t-57.5 -17.5l-18 18q0 9 5.5 23t12 27.5t12 27t5.5 20.5q5 86 9 321.5t4 628.5q0 65 -21 78q-28 15 -29 25 q11 32 50 75q43 49 52 73l-9 9q-20 6 -160 6l5 -2q-61 2 -61 41zM453 1310q4 -18 4 -208q0 -30 261 -29h55q43 0 43 68v52q0 96 -37 117q-25 15 -133 15h-160l-29 -4zM555 1580q0 30 145 212q80 99 125 99q32 0 54.5 -21.5t22.5 -53.5q0 -30 -17 -54q-14 -14 -64.5 -56 t-136.5 -114q-50 -44 -98 -44q-32 0 -31 32z" />
<glyph unicode="&#xc2;" horiz-adv-x="1181" d="M46 1364q15 43 82 98q61 56 113 70q18 -11 56 -25q57 -11 126 -11q50 0 145 7q98 7 148 7q184 0 232 -16q113 -39 113 -171q0 -59 -1 -147.5t-3 -207.5q-3 -118 -3 -205.5v-146.5q0 7 -6 -136q-5 -87 6 -137q18 -73 65 -109l9 -15q-5 -33 -107 -124q-100 -91 -136 -91 q-82 0 -82 148q0 518 11 537l-3 3q-4 13 -4 199l-24 18h-310q-26 0 -26 -182q0 -28 2 -68.5t4 -94.5q2 -55 3 -96t1 -68q0 -307 -157 -370q-26 -11 -53.5 -19.5t-57.5 -17.5l-18 18q0 9 5.5 23t12 27.5t12 27t5.5 20.5q5 86 9 321.5t4 628.5q0 65 -21 78q-28 15 -29 25 q11 32 50 75q43 49 52 73l-9 9q-20 6 -160 6l5 -2q-61 2 -61 41zM357 1587q0 28 68 116q111 143 200 143q75 0 205 -109q44 -36 42 -62q2 -18 -33 -79q-25 -45 -48 -45q-6 0 -79 59q-74 61 -109 61q-32 0 -110 -61q-80 -62 -96 -62q-41 0 -40 39zM453 1310q4 -18 4 -208 q0 -30 261 -29h55q43 0 43 68v52q0 96 -37 117q-25 15 -133 15h-160l-29 -4z" />
<glyph unicode="&#xc3;" horiz-adv-x="1181" d="M46 1364q15 43 82 98q61 56 113 70q18 -11 56 -25q57 -11 126 -11q50 0 145 7q98 7 148 7q184 0 232 -16q113 -39 113 -171q0 -59 -1 -147.5t-3 -207.5q-3 -118 -3 -205.5v-146.5q0 7 -6 -136q-5 -87 6 -137q18 -73 65 -109l9 -15q-5 -33 -107 -124q-100 -91 -136 -91 q-82 0 -82 148q0 518 11 537l-3 3q-4 13 -4 199l-24 18h-310q-26 0 -26 -182q0 -28 2 -68.5t4 -94.5q2 -55 3 -96t1 -68q0 -307 -157 -370q-26 -11 -53.5 -19.5t-57.5 -17.5l-18 18q0 9 5.5 23t12 27.5t12 27t5.5 20.5q5 86 9 321.5t4 628.5q0 65 -21 78q-28 15 -29 25 q11 32 50 75q43 49 52 73l-9 9q-20 6 -160 6l5 -2q-61 2 -61 41zM321 1584q0 18 24 58q14 17 38 57t62 99q43 50 106 50q41 0 135 -68q98 -67 112 -68q39 0 77 68q36 70 60 70q38 0 38 -38q-1 -16 -12 -44q-63 -130 -72 -139q-52 -82 -119 -81q-47 0 -152 73 q-100 73 -111 73q-39 0 -102 -104q-28 -42 -51 -42q-34 0 -33 36zM453 1310q4 -18 4 -208q0 -30 261 -29h55q43 0 43 68v52q0 96 -37 117q-25 15 -133 15h-160l-29 -4z" />
<glyph unicode="&#xc4;" horiz-adv-x="1181" d="M46 1364q15 43 82 98q61 56 113 70q18 -11 56 -25q57 -11 126 -11q50 0 145 7q98 7 148 7q184 0 232 -16q113 -39 113 -171q0 -59 -1 -147.5t-3 -207.5q-3 -118 -3 -205.5v-146.5q0 7 -6 -136q-5 -87 6 -137q18 -73 65 -109l9 -15q-5 -33 -107 -124q-100 -91 -136 -91 q-82 0 -82 148q0 518 11 537l-3 3q-4 13 -4 199l-24 18h-310q-26 0 -26 -182q0 -28 2 -68.5t4 -94.5q2 -55 3 -96t1 -68q0 -307 -157 -370q-26 -11 -53.5 -19.5t-57.5 -17.5l-18 18q0 9 5.5 23t12 27.5t12 27t5.5 20.5q5 86 9 321.5t4 628.5q0 65 -21 78q-28 15 -29 25 q11 32 50 75q43 49 52 73l-9 9q-20 6 -160 6l5 -2q-61 2 -61 41zM382 1639q0 215 164 214q88 0 88 -83q0 -75 -70 -124q-68 -48 -148 -48q-25 0 -29.5 7t-4.5 34zM453 1310q4 -18 4 -208q0 -30 261 -29h55q43 0 43 68v52q0 96 -37 117q-25 15 -133 15h-160l-29 -4zM673 1639 q0 215 164 214q91 0 91 -83q0 -77 -76 -126q-65 -46 -145 -46q-25 0 -29.5 7t-4.5 34z" />
<glyph unicode="&#xc5;" horiz-adv-x="1181" d="M46 1364q15 43 82 98q61 56 113 70q18 -11 56 -25q57 -11 126 -11q50 0 145 7q98 7 148 7q184 0 232 -16q113 -39 113 -171q0 -59 -1 -147.5t-3 -207.5q-3 -118 -3 -205.5v-146.5q0 7 -6 -136q-5 -87 6 -137q18 -73 65 -109l9 -15q-5 -33 -107 -124q-100 -91 -136 -91 q-82 0 -82 148q0 518 11 537l-3 3q-4 13 -4 199l-24 18h-310q-26 0 -26 -182q0 -28 2 -68.5t4 -94.5q2 -55 3 -96t1 -68q0 -307 -157 -370q-26 -11 -53.5 -19.5t-57.5 -17.5l-18 18q0 9 5.5 23t12 27.5t12 27t5.5 20.5q5 86 9 321.5t4 628.5q0 65 -21 78q-28 15 -29 25 q11 32 50 75q43 49 52 73l-9 9q-20 6 -160 6l5 -2q-61 2 -61 41zM453 1310q4 -18 4 -208q0 -30 261 -29h55q43 0 43 68v52q0 96 -37 117q-25 15 -133 15h-160l-29 -4zM491 1783q0 30 66 74q46 32 105 32q134 0 134 -63q0 -73 -65 -184q-49 -91 -104 -91q-68 0 -115 152 q-20 63 -21 80zM584 1762q15 -133 64 -133q28 0 50 58q28 57 27 86q1 45 -77 45q-70 0 -64 -56z" />
<glyph unicode="&#xc6;" horiz-adv-x="1736" d="M46 1364q15 43 82 98q61 56 113 70q18 -11 56 -25q68 -13 160 -9q137 7 159 7q241 0 293 -43l21 -21q35 54 68 55q32 0 77.5 1t108.5 4q64 2 109.5 3t77.5 1h191q91 0 91 -59q0 -45 -91 -116q-91 -70 -143 -80l-14 12q-25 68 -116 68q-16 0 -44 -2.5t-45 -2.5 q-52 0 -92.5 -3t-72.5 -8q-9 -11 -21 -37.5t-23 -69.5q-25 -87 -25 -116q0 -30 93 -30q28 0 69 3t95 7q57 5 98 7t68 2q134 0 134 -50q0 -39 -77 -95q-27 -20 -54.5 -37.5t-57.5 -29.5l-13 2l-11 26l-10 6q-26 7 -63 7q8 0 4 0t-20 2q-18 3 -46.5 3t-65.5 2 q-39 2 -69.5 -1.5t-54.5 -7.5l-22 -9l-6 -20v-28q0 -161 54 -307q66 -180 182 -243q41 -18 107 -50h99q36 0 135 54q98 55 105 56q48 0 44 -39q-18 -26 -70.5 -76t-139.5 -122q-180 -152 -221 -153q-134 0 -295 155q-132 -125 -172 -125q-82 0 -82 148q0 518 11 536l-2 2 q-5 13 -5 203l-25 18l-209 2q-26 0 -26 -182q0 -28 2 -68.5t4 -94.5q2 -55 3 -96t1 -68q0 -307 -157 -370q-26 -11 -53.5 -19.5t-57.5 -17.5l-18 18q0 9 5.5 23t12 27.5t12 27t5.5 20.5q5 86 9 321.5t4 628.5q0 65 -21 78q-28 15 -29 25q11 32 50 75q43 49 52 73l-9 9 q-20 6 -160 6l5 -2q-61 2 -61 41zM453 1310q4 -18 4 -208q0 -6 18 -11q70 -20 143 -20h55q43 0 43 68v50q0 95 -39 114q-11 7 -131 18l-60 4l-29 -4z" />
<glyph unicode="&#xc7;" horiz-adv-x="990" d="M48 741q0 33 13 125q13 91 9 116q18 64 43.5 135.5t57.5 151.5q93 232 133 234q22 2 55.5 3t78.5 1h230h51t72 -2t72 -2h51q34 -18 34 -41q-4 -13 -28 -59q-50 -50 -83 -78q-59 -47 -96 -47l-29 36q-39 20 -78 20h-125t-138 -2q-37 -37 -69 -145q-7 -23 -11.5 -43.5 t-6.5 -41.5v2q-9 -61 -12 -112t-3 -90q0 -290 113 -425q4 -50 95 -113t146 -64q67 0 168 43q103 43 131 43q33 0 33 -39q0 -38 -27 -45q-43 -46 -85.5 -84t-81.5 -73q-129 -113 -199 -136q-9 -28 -9 -41q0 -2 2 -2q52 0 65 -5q14 -2 53 -39q73 -45 73 -83q-1 -61 -62 -145 q-78 -105 -152 -106q-44 0 -96 52q-50 50 -50 94q0 30 28 30q18 0 59 -50q9 -14 34 -14q46 0 94 86q19 36 19 55q0 22 -69 22h-50q-39 0 -44 3q-25 6 -25 39q0 25 21 111q-7 4 -22 12.5t-38 21.5q-345 209 -345 691z" />
<glyph unicode="&#xc8;" horiz-adv-x="1067" d="M57 725q0 332 162 644q65 127 104 127q32 0 77 1t109 4q64 2 109.5 3t77.5 1h193q91 0 91 -59q0 -45 -91 -116q-91 -70 -143 -80l-17 12q-25 68 -113 68q-15 0 -44 -2.5t-45 -2.5q-52 0 -94 -3t-73 -8q-9 -11 -21 -38.5t-23 -71.5q-25 -86 -25 -113q0 -30 95 -30 q28 0 68.5 3t96.5 7q54 5 94.5 7t68.5 2q134 0 134 -50q0 -41 -75 -95q-53 -39 -114 -67l-11 2l-14 26l-9 6q-26 7 -61 7q15 0 -21 2.5t-107 4.5q-39 2 -70.5 -1.5t-55.5 -7.5l-19 -9l-9 -26q0 -168 54 -319q64 -189 185 -253q15 -7 40 -19t64 -31h100q34 0 134 54 q98 55 104 56q50 0 46 -39q-37 -52 -209 -198q-180 -152 -223 -153q-236 0 -388 273q-132 230 -132 482zM289 1816q0 32 23.5 53.5t56.5 21.5q45 0 124 -99q145 -182 145 -212q1 -32 -33 -32q-43 0 -96 44q-38 32 -87 73.5t-112 96.5q-20 22 -21 54z" />
<glyph unicode="&#xc9;" horiz-adv-x="1067" d="M57 725q0 332 162 644q65 127 104 127q32 0 77 1t109 4q64 2 109.5 3t77.5 1h193q91 0 91 -59q0 -45 -91 -116q-91 -70 -143 -80l-17 12q-25 68 -113 68q-15 0 -44 -2.5t-45 -2.5q-52 0 -94 -3t-73 -8q-9 -11 -21 -38.5t-23 -71.5q-25 -86 -25 -113q0 -30 95 -30 q28 0 68.5 3t96.5 7q54 5 94.5 7t68.5 2q134 0 134 -50q0 -41 -75 -95q-53 -39 -114 -67l-11 2l-14 26l-9 6q-26 7 -61 7q15 0 -21 2.5t-107 4.5q-39 2 -70.5 -1.5t-55.5 -7.5l-19 -9l-9 -26q0 -168 54 -319q64 -189 185 -253q15 -7 40 -19t64 -31h100q34 0 134 54 q98 55 104 56q50 0 46 -39q-37 -52 -209 -198q-180 -152 -223 -153q-236 0 -388 273q-132 230 -132 482zM475 1580q0 30 145 212q80 99 124 99q32 0 55.5 -21.5t23.5 -53.5q0 -30 -18 -54q-14 -14 -63.5 -56t-136.5 -114q-50 -44 -98 -44q-32 0 -32 32z" />
<glyph unicode="&#xca;" horiz-adv-x="1067" d="M57 725q0 332 162 644q65 127 104 127q32 0 77 1t109 4q64 2 109.5 3t77.5 1h193q91 0 91 -59q0 -45 -91 -116q-91 -70 -143 -80l-17 12q-25 68 -113 68q-15 0 -44 -2.5t-45 -2.5q-52 0 -94 -3t-73 -8q-9 -11 -21 -38.5t-23 -71.5q-25 -86 -25 -113q0 -30 95 -30 q28 0 68.5 3t96.5 7q54 5 94.5 7t68.5 2q134 0 134 -50q0 -41 -75 -95q-53 -39 -114 -67l-11 2l-14 26l-9 6q-26 7 -61 7q15 0 -21 2.5t-107 4.5q-39 2 -70.5 -1.5t-55.5 -7.5l-19 -9l-9 -26q0 -168 54 -319q64 -189 185 -253q15 -7 40 -19t64 -31h100q34 0 134 54 q98 55 104 56q50 0 46 -39q-37 -52 -209 -198q-180 -152 -223 -153q-236 0 -388 273q-132 230 -132 482zM357 1587q0 28 68 116q111 143 200 143q75 0 205 -109q44 -36 42 -62q2 -18 -33 -79q-25 -45 -48 -45q-6 0 -79 59q-74 61 -109 61q-32 0 -110 -61q-80 -62 -96 -62 q-41 0 -40 39z" />
<glyph unicode="&#xcb;" horiz-adv-x="1067" d="M57 725q0 332 162 644q65 127 104 127q32 0 77 1t109 4q64 2 109.5 3t77.5 1h193q91 0 91 -59q0 -45 -91 -116q-91 -70 -143 -80l-17 12q-25 68 -113 68q-15 0 -44 -2.5t-45 -2.5q-52 0 -94 -3t-73 -8q-9 -11 -21 -38.5t-23 -71.5q-25 -86 -25 -113q0 -30 95 -30 q28 0 68.5 3t96.5 7q54 5 94.5 7t68.5 2q134 0 134 -50q0 -41 -75 -95q-53 -39 -114 -67l-11 2l-14 26l-9 6q-26 7 -61 7q15 0 -21 2.5t-107 4.5q-39 2 -70.5 -1.5t-55.5 -7.5l-19 -9l-9 -26q0 -168 54 -319q64 -189 185 -253q15 -7 40 -19t64 -31h100q34 0 134 54 q98 55 104 56q50 0 46 -39q-37 -52 -209 -198q-180 -152 -223 -153q-236 0 -388 273q-132 230 -132 482zM382 1639q0 215 164 214q88 0 88 -83q0 -75 -70 -124q-68 -48 -148 -48q-25 0 -29.5 7t-4.5 34zM673 1639q0 215 164 214q91 0 91 -83q0 -77 -76 -126 q-65 -46 -145 -46q-25 0 -29.5 7t-4.5 34z" />
<glyph unicode="&#xcc;" horiz-adv-x="581" d="M-7 1816q0 32 24 53.5t56 21.5q46 0 125 -99q145 -182 145 -212q1 -32 -33 -32q-44 0 -96 44q-39 32 -87.5 73.5t-113.5 96.5q-20 22 -20 54zM22 1325q18 44 80 96q63 56 107 70q63 -37 160 -29q38 2 58 3t26 1q90 0 90 -43q0 -7 -7 -19.5t-17 -27t-20.5 -30.5t-16.5 -25 q-7 -16 -17 -39.5t-22 -56.5v-395v-92t-2 -56v-73v-381q9 -12 21.5 -27t28.5 -35q-3 -43 -84 -112q-75 -58 -123 -80q-63 0 -80 35q-11 22 -11 89l5 9l11 943q0 39 -52 87q17 32 62 73q15 13 32.5 30.5t37.5 34.5q0 16 -46 20h-57l-140 -2q-23 9 -24 32z" />
<glyph unicode="&#xcd;" horiz-adv-x="581" d="M22 1325q18 44 80 96q63 56 107 70q63 -37 160 -29q38 2 58 3t26 1q90 0 90 -43q0 -7 -7 -19.5t-17 -27t-20.5 -30.5t-16.5 -25q-7 -16 -17 -39.5t-22 -56.5v-395v-92t-2 -56v-73v-381q9 -12 21.5 -27t28.5 -35q-3 -43 -84 -112q-75 -58 -123 -80q-63 0 -80 35 q-11 22 -11 89l5 9l11 943q0 39 -52 87q17 32 62 73q15 13 32.5 30.5t37.5 34.5q0 16 -46 20h-57l-140 -2q-23 9 -24 32zM232 1580q0 30 145 212q80 99 124 99q32 0 55 -21.5t23 -53.5q0 -30 -17 -54q-14 -14 -64.5 -56t-135.5 -114q-50 -44 -98 -44q-32 0 -32 32z" />
<glyph unicode="&#xce;" horiz-adv-x="581" d="M22 1325q18 44 80 96q63 56 107 70q63 -37 160 -29q38 2 58 3t26 1q90 0 90 -43q0 -7 -7 -19.5t-17 -27t-20.5 -30.5t-16.5 -25q-7 -16 -17 -39.5t-22 -56.5v-395v-92t-2 -56v-73v-381q9 -12 21.5 -27t28.5 -35q-3 -43 -84 -112q-75 -58 -123 -80q-63 0 -80 35 q-11 22 -11 89l5 9l11 943q0 39 -52 87q17 32 62 73q15 13 32.5 30.5t37.5 34.5q0 16 -46 20h-57l-140 -2q-23 9 -24 32zM63 1587q0 28 69 116q111 143 200 143q70 0 204 -109q43 -36 43 -62q2 -18 -33 -79q-25 -45 -51 -45q-4 0 -77 59q-73 61 -108 61q-32 0 -110 -61 q-80 -62 -96 -62q-41 0 -41 39z" />
<glyph unicode="&#xcf;" horiz-adv-x="581" d="M22 1325q18 44 80 96q63 56 107 70q63 -37 160 -29q38 2 58 3t26 1q90 0 90 -43q0 -7 -7 -19.5t-17 -27t-20.5 -30.5t-16.5 -25q-7 -16 -17 -39.5t-22 -56.5v-395v-92t-2 -56v-73v-381q9 -12 21.5 -27t28.5 -35q-3 -43 -84 -112q-75 -58 -123 -80q-63 0 -80 35 q-11 22 -11 89l5 9l11 943q0 39 -52 87q17 32 62 73q15 13 32.5 30.5t37.5 34.5q0 16 -46 20h-57l-140 -2q-23 9 -24 32zM63 1639q0 215 165 214q91 0 91 -83q0 -77 -76 -126q-65 -46 -145 -46q-26 0 -30.5 7t-4.5 34zM357 1639q0 215 164 214q36 0 62 -23t26 -60 q0 -75 -71 -124q-67 -48 -147 -48q-26 0 -30 7t-4 34z" />
<glyph unicode="&#xd0;" horiz-adv-x="1247" d="M52 1355q0 41 78 102q65 53 115 70q5 -2 17.5 -5.5t30.5 -9.5q30 -11 48 -11h384q186 0 245 -30q91 -44 147 -217q42 -135 42 -269q0 -46 -4.5 -111t-13.5 -149q-13 -118 -120 -378q-109 -264 -184 -343q-13 0 -38.5 -1t-52 -1t-51.5 -1t-38 -1q-82 0 -269 7 q-173 6 -267 0h2q-48 2 -48 34q68 68 141 237l7 429h-148v104h148l2 219q0 61 -21 79q-36 30 -47 53q22 52 157 146l-2 8l-10 7q-22 0 -69 -4.5t-70 -4.5q-111 0 -111 41zM347 198l15 -20q48 2 153 3t272 1q34 22 68 139q30 97 34 156q20 32 29 146q4 45 7 83.5t3 70.5v2 q0 230 -69 371q-84 173 -306 173h-76l-15 -11q0 -41 -7 -201q-4 -70 -6 -118.5t2 -78.5l2 -103h347v-104h-340l6 -78q-11 -20 -6 -86q6 -102 6 -90q0 -63 -39 -137q-4 -4 -23.5 -34t-56.5 -84z" />
<glyph unicode="&#xd1;" horiz-adv-x="1204" d="M52 1358q0 45 89 106q80 57 132 57q82 -37 241 -37q25 0 65.5 1t93.5 4q104 6 159 7h127.5t59.5 -2q135 -12 135 -78q0 -17 -54 -106q-50 -85 -61 -121q-13 -46 -13 -519q0 -384 13 -427q41 -28 41 -43q0 -46 -95 -122q-94 -78 -144 -78q-75 0 -75 141v375q0 512 13 560 q9 36 71 108q61 70 76 109l-17 19h-475l-13 -19l13 -657q0 -310 -37 -461q-161 -175 -240 -175q-20 0 -20 20q0 9 20 41q11 18 16 29.5t7 16.5q13 63 9 214l-5 217q9 16 9 171v87q-2 15 0 195q5 143 -45 157l-5 14q0 22 116 138l-3 12q-15 0 -45.5 -2t-47.5 -2 q-111 0 -111 50zM321 1584q0 18 24 58q14 17 38 57t62 99q43 50 106 50q41 0 135 -68q98 -67 112 -68q39 0 77 68q36 70 60 70q38 0 38 -38q-1 -16 -12 -44q-63 -130 -72 -139q-52 -82 -119 -81q-47 0 -152 73q-100 73 -111 73q-39 0 -102 -104q-28 -42 -51 -42 q-34 0 -33 36z" />
<glyph unicode="&#xd2;" horiz-adv-x="1136" d="M57 612q0 202 47 351q37 121 150 323q-9 12 -33 17q-16 2 -43 0q-16 -2 -25.5 -2.5t-13.5 -0.5q-82 0 -82 41q0 37 84 100q87 70 123 73q105 -39 284 -32l144 4q290 0 354 -384q4 -30 13.5 -102.5t24.5 -188.5v3q-30 -608 -375 -796q-20 -7 -51 -17t-74 -23h-38 q-227 0 -366 211q-123 186 -123 423zM230 1816q0 32 24 53.5t56 21.5q45 0 124 -99q143 -182 143 -212q1 -32 -31 -32q-43 0 -95 44q-46 36 -95.5 78t-105.5 92q-20 22 -20 54zM289 830q0 -227 71 -396q95 -230 284 -230q125 0 183 141q45 110 45 249q0 211 -37 358 q-11 28 -30 94q-26 41 -51 82t-49 84q-68 93 -154 93h-126q-54 -25 -98 -218q-17 -85 -27.5 -148.5t-10.5 -108.5z" />
<glyph unicode="&#xd3;" horiz-adv-x="1136" d="M57 612q0 202 47 351q37 121 150 323q-9 12 -33 17q-16 2 -43 0q-16 -2 -25.5 -2.5t-13.5 -0.5q-82 0 -82 41q0 37 84 100q87 70 123 73q105 -39 284 -32l144 4q290 0 354 -384q4 -30 13.5 -102.5t24.5 -188.5v3q-30 -608 -375 -796q-20 -7 -51 -17t-74 -23h-38 q-227 0 -366 211q-123 186 -123 423zM289 830q0 -227 71 -396q95 -230 284 -230q125 0 183 141q45 110 45 249q0 211 -37 358q-11 28 -30 94q-26 41 -51 82t-49 84q-68 93 -154 93h-126q-54 -25 -98 -218q-17 -85 -27.5 -148.5t-10.5 -108.5zM518 1580q0 30 146 212 q80 99 125 99q32 0 55.5 -21.5t23.5 -53.5q0 -28 -18 -52q-9 -11 -59 -54.5t-143 -117.5q-50 -44 -95 -44q-35 0 -35 32z" />
<glyph unicode="&#xd4;" horiz-adv-x="1136" d="M57 612q0 202 47 351q37 121 150 323q-9 12 -33 17q-16 2 -43 0q-16 -2 -25.5 -2.5t-13.5 -0.5q-82 0 -82 41q0 37 84 100q87 70 123 73q105 -39 284 -32l144 4q290 0 354 -384q4 -30 13.5 -102.5t24.5 -188.5v3q-30 -608 -375 -796q-20 -7 -51 -17t-74 -23h-38 q-227 0 -366 211q-123 186 -123 423zM289 830q0 -227 71 -396q95 -230 284 -230q125 0 183 141q45 110 45 249q0 211 -37 358q-11 28 -30 94q-26 41 -51 82t-49 84q-68 93 -154 93h-126q-54 -25 -98 -218q-17 -85 -27.5 -148.5t-10.5 -108.5zM325 1587q0 28 68 116 q111 143 201 143q75 0 204 -109q43 -36 43 -62q0 -16 -34 -79q-26 -45 -48 -45q-6 0 -80 59q-73 61 -108 61q-33 0 -109 -61q-80 -62 -96 -62q-41 0 -41 39z" />
<glyph unicode="&#xd5;" horiz-adv-x="1136" d="M57 612q0 202 47 351q37 121 150 323q-9 12 -33 17q-16 2 -43 0q-16 -2 -25.5 -2.5t-13.5 -0.5q-82 0 -82 41q0 37 84 100q87 70 123 73q105 -39 284 -32l144 4q290 0 354 -384q4 -30 13.5 -102.5t24.5 -188.5v3q-30 -608 -375 -796q-20 -7 -51 -17t-74 -23h-38 q-227 0 -366 211q-123 186 -123 423zM289 830q0 -227 71 -396q95 -230 284 -230q125 0 183 141q45 110 45 249q0 211 -37 358q-11 28 -30 94q-26 41 -51 82t-49 84q-68 93 -154 93h-126q-54 -25 -98 -218q-17 -85 -27.5 -148.5t-10.5 -108.5zM289 1584q0 18 25 58 q13 17 37 57t63 99q43 50 104 50q41 0 137 -68q98 -67 111 -68q39 0 78 68q36 70 61 70q39 0 39 -38q0 -16 -14 -44q-18 -34 -36.5 -68t-36.5 -71q-52 -82 -118 -81q-47 0 -153 73q-100 73 -111 73q-34 0 -102 -104q-28 -42 -50 -42q-34 0 -34 36z" />
<glyph unicode="&#xd6;" horiz-adv-x="1136" d="M57 612q0 202 47 351q37 121 150 323q-9 12 -33 17q-16 2 -43 0q-16 -2 -25.5 -2.5t-13.5 -0.5q-82 0 -82 41q0 37 84 100q87 70 123 73q105 -39 284 -32l144 4q290 0 354 -384q4 -30 13.5 -102.5t24.5 -188.5v3q-30 -608 -375 -796q-20 -7 -51 -17t-74 -23h-38 q-227 0 -366 211q-123 186 -123 423zM289 830q0 -227 71 -396q95 -230 284 -230q125 0 183 141q45 110 45 249q0 211 -37 358q-11 28 -30 94q-26 41 -51 82t-49 84q-68 93 -154 93h-126q-54 -25 -98 -218q-17 -85 -27.5 -148.5t-10.5 -108.5zM382 1639q0 215 164 214 q88 0 88 -83q0 -75 -70 -124q-68 -48 -148 -48q-25 0 -29.5 7t-4.5 34zM673 1639q0 215 164 214q91 0 91 -83q0 -77 -76 -126q-65 -46 -145 -46q-25 0 -29.5 7t-4.5 34z" />
<glyph unicode="&#xd7;" d="M109 391l348 346l-348 345l89 89l345 -346l346 348l91 -89l-348 -347l346 -346l-87 -89l-348 348l-345 -350z" />
<glyph unicode="&#xd8;" horiz-adv-x="1136" d="M57 612q0 202 47 351q37 121 150 323q-9 12 -33 17q-16 2 -43 0q-16 -2 -25.5 -2.5t-13.5 -0.5q-82 0 -82 41q0 37 84 100q87 70 123 73q105 -39 284 -32l144 4q93 0 163 -37l50 99l93 -43l-61 -125q80 -94 106 -271q3 -11 41 -298q-30 -605 -375 -793q-20 -7 -51 -17 t-74 -23h-38q-143 0 -255 87l-57 -115l-91 46l71 145q-156 191 -157 471zM289 830q1 -225 71 -394l365 746q-80 123 -174 123h-126q-54 -25 -98 -218q-17 -85 -27.5 -148.5t-10.5 -108.5zM418 325q89 -121 226 -121q125 0 183 141q45 109 45 249q0 211 -37 358 q-11 28 -30 94q-5 4 -9.5 12.5t-8.5 17.5z" />
<glyph unicode="&#xd9;" horiz-adv-x="1143" d="M59 1275v7q159 219 230 219q84 0 84 -146q0 -163 -7 -491q-2 -164 -3 -285.5t-1 -203.5q0 -141 89 -171q104 0 208 52q121 66 120 162q0 80 -6 237q-3 80 -4 140t-1 99q0 11 2.5 47.5t6.5 99.5q4 50 5 84t-3 57l-11 52q-11 5 -27 16.5t-34 27.5q37 47 109 136 q75 91 141 91q78 0 78 -145q0 -87 -1.5 -217t-3.5 -304l-4 -520q0 -46 8.5 -63t47.5 -45q0 -68 -95 -138q-93 -73 -162 -73q-37 16 -50 84q-2 5 -9 105q-37 -7 -109 -66q-86 -65 -114 -82q-91 -45 -198 -45q-234 0 -234 388v45.5t2 63.5t2 63.5v46.5q0 34 1.5 84t4.5 116 q2 65 3 116t1 86q0 173 -16 229l-41 26zM266 1816q0 32 23 53.5t54 21.5q45 0 125 -99q146 -182 146 -212q0 -32 -32 -32q-46 0 -98 44q-39 32 -88 73.5t-112 96.5q-18 25 -18 54z" />
<glyph unicode="&#xda;" horiz-adv-x="1143" d="M59 1275v7q159 219 230 219q84 0 84 -146q0 -163 -7 -491q-2 -164 -3 -285.5t-1 -203.5q0 -141 89 -171q104 0 208 52q121 66 120 162q0 80 -6 237q-3 80 -4 140t-1 99q0 11 2.5 47.5t6.5 99.5q4 50 5 84t-3 57l-11 52q-11 5 -27 16.5t-34 27.5q37 47 109 136 q75 91 141 91q78 0 78 -145q0 -87 -1.5 -217t-3.5 -304l-4 -520q0 -46 8.5 -63t47.5 -45q0 -68 -95 -138q-93 -73 -162 -73q-37 16 -50 84q-2 5 -9 105q-37 -7 -109 -66q-86 -65 -114 -82q-91 -45 -198 -45q-234 0 -234 388v45.5t2 63.5t2 63.5v46.5q0 34 1.5 84t4.5 116 q2 65 3 116t1 86q0 173 -16 229l-41 26zM514 1580q0 30 145 212q80 99 126 99q32 0 54 -21.5t22 -53.5q0 -30 -17 -54q-14 -14 -64.5 -56t-135.5 -114q-50 -44 -98 -44q-32 0 -32 32z" />
<glyph unicode="&#xdb;" horiz-adv-x="1143" d="M59 1275v7q159 219 230 219q84 0 84 -146q0 -163 -7 -491q-2 -164 -3 -285.5t-1 -203.5q0 -141 89 -171q104 0 208 52q121 66 120 162q0 80 -6 237q-3 80 -4 140t-1 99q0 11 2.5 47.5t6.5 99.5q4 50 5 84t-3 57l-11 52q-11 5 -27 16.5t-34 27.5q37 47 109 136 q75 91 141 91q78 0 78 -145q0 -87 -1.5 -217t-3.5 -304l-4 -520q0 -46 8.5 -63t47.5 -45q0 -68 -95 -138q-93 -73 -162 -73q-37 16 -50 84q-2 5 -9 105q-37 -7 -109 -66q-86 -65 -114 -82q-91 -45 -198 -45q-234 0 -234 388v45.5t2 63.5t2 63.5v46.5q0 34 1.5 84t4.5 116 q2 65 3 116t1 86q0 173 -16 229l-41 26zM357 1587q0 28 68 116q111 143 200 143q75 0 205 -109q44 -36 42 -62q2 -18 -33 -79q-25 -45 -48 -45q-6 0 -79 59q-74 61 -109 61q-32 0 -110 -61q-80 -62 -96 -62q-41 0 -40 39z" />
<glyph unicode="&#xdc;" horiz-adv-x="1143" d="M59 1275v7q159 219 230 219q84 0 84 -146q0 -163 -7 -491q-2 -164 -3 -285.5t-1 -203.5q0 -141 89 -171q104 0 208 52q121 66 120 162q0 80 -6 237q-3 80 -4 140t-1 99q0 11 2.5 47.5t6.5 99.5q4 50 5 84t-3 57l-11 52q-11 5 -27 16.5t-34 27.5q37 47 109 136 q75 91 141 91q78 0 78 -145q0 -87 -1.5 -217t-3.5 -304l-4 -520q0 -46 8.5 -63t47.5 -45q0 -68 -95 -138q-93 -73 -162 -73q-37 16 -50 84q-2 5 -9 105q-37 -7 -109 -66q-86 -65 -114 -82q-91 -45 -198 -45q-234 0 -234 388v45.5t2 63.5t2 63.5v46.5q0 34 1.5 84t4.5 116 q2 65 3 116t1 86q0 173 -16 229l-41 26zM382 1639q0 215 164 214q88 0 88 -83q0 -75 -70 -124q-68 -48 -148 -48q-25 0 -29.5 7t-4.5 34zM673 1639q0 215 164 214q91 0 91 -83q0 -77 -76 -126q-65 -46 -145 -46q-25 0 -29.5 7t-4.5 34z" />
<glyph unicode="&#xdd;" horiz-adv-x="1122" d="M65 1300v8q50 52 79 81.5t38 37.5q84 74 143 74q22 0 37 -29t15 -56v-147t-2 -210l-2 -359q0 -218 180 -218q143 0 200 84q25 39 24 541v100q-7 43 -59 71l-11 15q18 39 107 121q91 80 130 80q75 0 75 -146l2 -443q2 -187 -6 -339t-24 -275q-134 -196 -236 -252 q-89 -48 -273 -48h-117.5t-125.5 2q-167 0 -164 64q9 17 35.5 40.5t69.5 52.5q78 50 130 69q9 -5 21 -15.5t31 -21.5h354q54 0 54 159q0 77 -22 77q-154 -93 -277 -93q-121 0 -226 66q-121 73 -120 188q0 30 7 57l-4 14q2 9 3 85t1 224v269l-9 22l-45 34zM514 1580 q0 30 145 212q80 99 126 99q32 0 54 -21.5t22 -53.5q0 -30 -17 -54q-14 -14 -64.5 -56t-135.5 -114q-50 -44 -98 -44q-32 0 -32 32z" />
<glyph unicode="&#xde;" horiz-adv-x="1178" d="M46 1059l2 19q32 32 54.5 55.5t38.5 35.5q59 45 111 61q20 -16 54 -32q64 -14 192 -14q74 0 216 7q145 7 218 7q126 0 157 -72q18 -44 18 -187v-51t-3 -74q-2 -41 -2 -71.5v-50.5q0 -85 -122 -183q-125 -99 -207 -99q-14 0 -39 1t-52 2t-52 2t-39 1q-100 0 -116 -6 q-34 -18 -34 -96q0 -63 21 -98l33 -21l8 -9q0 -41 -96 -116q-95 -76 -138 -74q-68 0 -69 149q0 57 1 141.5t3 197.5t3.5 197.5t1.5 141.5q-11 4 -27 15.5t-34 27.5q13 20 132 145l-21 15q-18 0 -53 -2.5t-54 -2.5q-106 0 -106 38zM443 959l2 -436l12 -14l34.5 34.5 t49.5 44.5q15 0 39.5 -1t55.5 -3q32 -2 56 -2h39q147 0 147 47v308q0 93 -82 93h-237q-67 0 -112 -14q-2 -11 -3 -24.5t-1 -32.5z" />
<glyph unicode="&#xdf;" horiz-adv-x="931" d="M68 -37l5 3v1238q0 61 57 149q56 91 109 124q50 35 154 35q204 0 243 -26q0 -52 -61 -115q-59 -59 -115 -78q-23 41 -48 50q-18 7 -71 8q-37 0 -37 -153v-89h471q43 -16 43 -66q-18 -32 -76 -102.5t-156 -179.5q113 -36 191 -125q84 -93 84 -211q0 -25 -4.5 -69 t-12.5 -106q-7 -48 -80 -146q-76 -102 -118 -104q-93 -4 -357 0v-150q-18 -45 -87 -116q-73 -76 -104 -75q-30 0 -30 27v277zM295 189l24 -9h229l88 4q39 57 39 91q0 304 -343 284l-37 -2q2 -191 0 -368zM300 675q41 43 99.5 107t136.5 150q-11 3 -28 3h-37q-100 0 -169 -7z " />
<glyph unicode="&#xe0;" horiz-adv-x="976" d="M70 254v162q11 105 45 150q53 68 306 175q223 96 223 155t-132 59q-167 0 -196 -9q-65 -18 -168 -98l-9 -2q-39 0 -39 36q0 55 106 148q109 96 165 96h304q189 0 189 -137v-133t-3 -190l-2 -325q0 -35 1 -65.5t4 -59.5l41 -30v-29l-5 -9q-152 -152 -206 -152 q-64 0 -60 167l-9 8q-32 -18 -81 -44.5t-114 -63.5q-118 -63 -202 -63q-157 0 -158 254zM228 1471q0 32 23.5 53.5t54.5 21.5q46 0 126 -100q145 -182 145 -212q0 -32 -34 -32q-43 0 -96 43q-39 33 -87 75t-112 96q-20 23 -20 55zM300 314q0 -109 77 -110q55 0 141 37 q96 37 118 78v221.5t2 148.5l-13 16q-46 0 -157 -71q-121 -78 -145 -122q-22 -44 -23 -198z" />
<glyph unicode="&#xe1;" horiz-adv-x="976" d="M70 254v162q11 105 45 150q53 68 306 175q223 96 223 155t-132 59q-167 0 -196 -9q-65 -18 -168 -98l-9 -2q-39 0 -39 36q0 55 106 148q109 96 165 96h304q189 0 189 -137v-133t-3 -190l-2 -325q0 -35 1 -65.5t4 -59.5l41 -30v-29l-5 -9q-152 -152 -206 -152 q-64 0 -60 167l-9 8q-32 -18 -81 -44.5t-114 -63.5q-118 -63 -202 -63q-157 0 -158 254zM300 314q0 -109 77 -110q55 0 141 37q96 37 118 78v221.5t2 148.5l-13 16q-46 0 -157 -71q-121 -78 -145 -122q-22 -44 -23 -198zM464 1230q0 32 145 213q78 98 126 99q30 0 53 -22 t23 -51q0 -48 -91 -126q-32 -25 -63.5 -49.5t-62.5 -50.5q-58 -45 -99 -45q-32 0 -31 32z" />
<glyph unicode="&#xe2;" horiz-adv-x="976" d="M70 254v162q11 105 45 150q53 68 306 175q223 96 223 155t-132 59q-167 0 -196 -9q-65 -18 -168 -98l-9 -2q-39 0 -39 36q0 55 106 148q109 96 165 96h304q189 0 189 -137v-133t-3 -190l-2 -325q0 -35 1 -65.5t4 -59.5l41 -30v-29l-5 -9q-152 -152 -206 -152 q-64 0 -60 167l-9 8q-32 -18 -81 -44.5t-114 -63.5q-118 -63 -202 -63q-157 0 -158 254zM297 1264q0 28 67 114q111 145 200 145q75 0 204 -109q43 -36 43 -61q0 -17 -34 -80q-26 -45 -48 -45q-6 0 -79 58q-73 62 -107 62q-35 0 -111 -64q-80 -61 -96 -61q-39 0 -39 41z M300 314q0 -109 77 -110q55 0 141 37q96 37 118 78v221.5t2 148.5l-13 16q-46 0 -157 -71q-121 -78 -145 -122q-22 -44 -23 -198z" />
<glyph unicode="&#xe3;" horiz-adv-x="976" d="M70 254v162q11 105 45 150q53 68 306 175q223 96 223 155t-132 59q-167 0 -196 -9q-65 -18 -168 -98l-9 -2q-39 0 -39 36q0 55 106 148q109 96 165 96h304q189 0 189 -137v-133t-3 -190l-2 -325q0 -35 1 -65.5t4 -59.5l41 -30v-29l-5 -9q-152 -152 -206 -152 q-64 0 -60 167l-9 8q-32 -18 -81 -44.5t-114 -63.5q-118 -63 -202 -63q-157 0 -158 254zM191 1260q0 18 25 56l18 28t18 27q11 22 28 47t36 55q44 50 105 50q41 0 136 -68q100 -65 111 -66q39 0 78 68q37 68 61 68q39 0 39 -36q0 -18 -14 -46q-69 -137 -73 -138 q-52 -82 -117 -82q-48 0 -154 72q-100 76 -111 76q-30 0 -102 -107q-25 -39 -50 -39q-34 0 -34 35zM300 314q0 -109 77 -110q55 0 141 37q96 37 118 78v221.5t2 148.5l-13 16q-46 0 -157 -71q-121 -78 -145 -122q-22 -44 -23 -198z" />
<glyph unicode="&#xe4;" horiz-adv-x="976" d="M70 254v162q11 105 45 150q53 68 306 175q223 96 223 155t-132 59q-167 0 -196 -9q-65 -18 -168 -98l-9 -2q-39 0 -39 36q0 55 106 148q109 96 165 96h304q189 0 189 -137v-133t-3 -190l-2 -325q0 -35 1 -65.5t4 -59.5l41 -30v-29l-5 -9q-152 -152 -206 -152 q-64 0 -60 167l-9 8q-32 -18 -81 -44.5t-114 -63.5q-118 -63 -202 -63q-157 0 -158 254zM291 1267q0 210 164 210q88 2 88 -78q0 -76 -70 -126t-148 -50q-25 0 -29.5 8t-4.5 36zM300 314q0 -109 77 -110q55 0 141 37q96 37 118 78v221.5t2 148.5l-13 16q-46 0 -157 -71 q-121 -78 -145 -122q-22 -44 -23 -198zM582 1267q0 210 164 210q91 2 91 -78q0 -78 -76 -128q-65 -48 -145 -48q-25 0 -29.5 8t-4.5 36z" />
<glyph unicode="&#xe5;" horiz-adv-x="976" d="M70 254v162q11 105 45 150q53 68 306 175q223 96 223 155t-132 59q-167 0 -196 -9q-65 -18 -168 -98l-9 -2q-39 0 -39 36q0 55 106 148q109 96 165 96h304q189 0 189 -137v-133t-3 -190l-2 -325q0 -35 1 -65.5t4 -59.5l41 -30v-29l-5 -9q-152 -152 -206 -152 q-64 0 -60 167l-9 8q-32 -18 -81 -44.5t-114 -63.5q-118 -63 -202 -63q-157 0 -158 254zM300 314q0 -109 77 -110q55 0 141 37q96 37 118 78v221.5t2 148.5l-13 16q-46 0 -157 -71q-121 -78 -145 -122q-22 -44 -23 -198zM418 1416q0 30 66 75q45 32 104 32q135 0 135 -63 q0 -74 -64 -185q-52 -88 -102 -88q-67 0 -119 152q-20 63 -20 77zM512 1395q15 -132 63 -131q28 0 50 57q28 57 28 86q0 46 -78 46q-70 0 -63 -58z" />
<glyph unicode="&#xe6;" horiz-adv-x="1475" d="M70 254v162q11 105 45 150q53 68 306 175q223 96 223 155t-132 59q-167 0 -196 -9q-65 -18 -168 -98l-9 -2q-39 0 -39 36q0 55 106 148q109 96 165 96h304q104 0 123 -55q32 37 72 63l464 -2q41 0 69.5 -32.5t28.5 -73.5q0 -87 -234 -397q-232 -312 -232 -319 q0 -46 82 -69q61 -18 119 -18q65 0 202 81q34 2 34 -31q0 -48 -169 -164q-168 -116 -223 -116q-106 0 -181 85q-59 -82 -136 -82q-64 0 -60 167l-9 8q-32 -18 -81 -44.5t-114 -63.5q-118 -63 -202 -63q-157 0 -158 254zM300 314q0 -109 77 -110q55 0 141 37q96 37 118 78 v221.5t2 148.5l-13 16q-46 0 -157 -71q-121 -78 -145 -122q-22 -44 -23 -198zM825 761q0 -32 21 -143q18 -102 11 -132q13 -25 26 -45t24 -31q34 34 80 102q25 36 44 60t32 40q5 13 23 41.5t51 71.5q52 73 52 121q0 121 -152 120q-123 0 -159 -7q-52 -34 -53 -198z" />
<glyph unicode="&#xe7;" horiz-adv-x="799" d="M50 575q0 9 2 28.5t4.5 40t3.5 40t1 32.5q4 13 12.5 42t17.5 72q13 68 75 172q64 118 116 139q22 2 67.5 3.5t114.5 1.5h122q159 0 160 -57q0 -37 -73 -91q-74 -52 -114 -61q-34 50 -108 50q-14 0 -34 -1t-42.5 -1t-41.5 -1.5t-33 -1.5q-5 -11 -12.5 -26t-18.5 -38 l-15 -202q-11 -180 67 -319q93 -168 256 -167q37 0 146 50q34 2 34 -24q0 -45 -125 -141q-111 -84 -170 -106q-7 -32 -7 -41q0 -2 2 -2q52 0 66 -5q13 -2 52 -39q73 -45 73 -83q-1 -61 -64 -145q-78 -105 -150 -106q-43 0 -95 52q-53 53 -53 94q0 30 30 30q18 0 59 -50 q9 -14 35 -14q45 0 93 86q20 36 20 55q0 22 -70 22h-53q-37 0 -40 3q-26 6 -26 39q0 27 20 106q-134 43 -226 239q-78 163 -78 325z" />
<glyph unicode="&#xe8;" horiz-adv-x="888" d="M52 543q0 159 55 329q63 202 177 269l462 -2q41 0 70.5 -33t29.5 -74q0 -84 -234 -394q-232 -312 -232 -322q0 -43 82 -66q63 -20 117 -20q66 0 204 82q34 2 33 -32q0 -48 -168 -165q-168 -115 -223 -115q-154 0 -271 200q-102 173 -102 343zM198 1473q0 32 23.5 53.5 t56.5 21.5q45 0 124 -99q143 -182 144 -215q0 -32 -32 -32q-39 0 -98 46q-80 63 -197 171q-20 22 -21 54zM239 768q0 -32 20 -143q17 -102 12 -132q28 -52 50 -77q32 32 76 100q26 37 45.5 62t34.5 40q5 11 23 39.5t51 73.5q52 74 52 121q0 124 -156 124q-121 0 -156 -8 q-52 -39 -52 -200z" />
<glyph unicode="&#xe9;" horiz-adv-x="888" d="M52 543q0 159 55 329q63 202 177 269l462 -2q41 0 70.5 -33t29.5 -74q0 -84 -234 -394q-232 -312 -232 -322q0 -43 82 -66q63 -20 117 -20q66 0 204 82q34 2 33 -32q0 -48 -168 -165q-168 -115 -223 -115q-154 0 -271 200q-102 173 -102 343zM239 768q0 -32 20 -143 q17 -102 12 -132q28 -52 50 -77q32 32 76 100q26 37 45.5 62t34.5 40q5 11 23 39.5t51 73.5q52 74 52 121q0 124 -156 124q-121 0 -156 -8q-52 -39 -52 -200zM416 1234q0 28 146 215q80 99 122 99q32 0 56 -21.5t24 -53.5q0 -48 -91 -125q-33 -26 -64.5 -50.5t-62.5 -49.5 q-58 -46 -99 -46q-32 0 -31 32z" />
<glyph unicode="&#xea;" horiz-adv-x="888" d="M52 543q0 159 55 329q63 202 177 269l462 -2q41 0 70.5 -33t29.5 -74q0 -84 -234 -394q-232 -312 -232 -322q0 -43 82 -66q63 -20 117 -20q66 0 204 82q34 2 33 -32q0 -48 -168 -165q-168 -115 -223 -115q-154 0 -271 200q-102 173 -102 343zM239 768q0 -32 20 -143 q17 -102 12 -132q28 -52 50 -77q32 32 76 100q26 37 45.5 62t34.5 40q5 11 23 39.5t51 73.5q52 74 52 121q0 124 -156 124q-121 0 -156 -8q-52 -39 -52 -200zM264 1264q0 28 66 114q111 145 202 145q67 0 203 -109q45 -39 44 -61q1 -19 -33 -80q-26 -45 -50 -45q-7 0 -80 58 q-73 62 -107 62q-32 0 -109 -64q-80 -61 -98 -61q-39 0 -38 41z" />
<glyph unicode="&#xeb;" horiz-adv-x="888" d="M52 543q0 159 55 329q63 202 177 269l462 -2q41 0 70.5 -33t29.5 -74q0 -84 -234 -394q-232 -312 -232 -322q0 -43 82 -66q63 -20 117 -20q66 0 204 82q34 2 33 -32q0 -48 -168 -165q-168 -115 -223 -115q-154 0 -271 200q-102 173 -102 343zM239 768q0 -32 20 -143 q17 -102 12 -132q28 -52 50 -77q32 32 76 100q26 37 45.5 62t34.5 40q5 11 23 39.5t51 73.5q52 74 52 121q0 124 -156 124q-121 0 -156 -8q-52 -39 -52 -200zM254 1267q0 210 164 210q89 2 89 -78q0 -76 -71 -126q-70 -50 -147 -50q-26 0 -30.5 8t-4.5 36zM546 1267 q0 210 163 210q89 2 89 -78q0 -76 -71 -126q-70 -50 -148 -50q-25 0 -29 8t-4 36z" />
<glyph unicode="&#xec;" horiz-adv-x="449" d="M-98 1473q0 30 25 52.5t55 22.5q46 0 125 -99q143 -182 143 -215q1 -32 -31 -32q-37 0 -96 46q-52 43 -101.5 85t-99.5 86q-20 22 -20 54zM46 957q13 43 91 106q79 66 122 67q73 0 73 -91q0 -104 -7 -312q-2 -104 -3 -181.5t-1 -129.5v-173q0 -25 22 -45q16 -16 25 -24.5 t12 -12.5q0 -39 -50 -54q-107 -107 -193 -107q-62 0 -62 109q0 39 1.5 100.5t3.5 140.5q7 158 7 241v329q-18 11 -41 37z" />
<glyph unicode="&#xed;" horiz-adv-x="449" d="M46 957q13 43 91 106q79 66 122 67q73 0 73 -91q0 -104 -7 -312q-2 -104 -3 -181.5t-1 -129.5v-173q0 -25 22 -45q16 -16 25 -24.5t12 -12.5q0 -39 -50 -54q-107 -107 -193 -107q-62 0 -62 109q0 39 1.5 100.5t3.5 140.5q7 158 7 241v329q-18 11 -41 37zM125 1234 q0 28 146 215q80 99 124 99q30 0 55 -22.5t25 -52.5q0 -46 -93 -125q-32 -26 -64 -50.5t-64 -49.5q-56 -46 -95 -46q-35 0 -34 32z" />
<glyph unicode="&#xee;" horiz-adv-x="449" d="M-39 1264q0 28 67 114q111 145 200 145q75 0 204 -109q43 -36 43 -61q0 -17 -34 -80q-26 -45 -48 -45q-7 0 -79 58q-73 62 -108 62q-34 0 -111 -64q-79 -61 -95 -61q-39 0 -39 41zM46 957q13 43 91 106q79 66 122 67q73 0 73 -91q0 -104 -7 -312q-2 -104 -3 -181.5 t-1 -129.5v-173q0 -25 22 -45q16 -16 25 -24.5t12 -12.5q0 -39 -50 -54q-107 -107 -193 -107q-62 0 -62 109q0 39 1.5 100.5t3.5 140.5q7 158 7 241v329q-18 11 -41 37z" />
<glyph unicode="&#xef;" horiz-adv-x="449" d="M-30 1267q0 210 164 210q89 2 89 -78q0 -76 -71 -126q-70 -50 -148 -50q-25 0 -29.5 8t-4.5 36zM46 957q13 43 91 106q79 66 122 67q73 0 73 -91q0 -104 -7 -312q-2 -104 -3 -181.5t-1 -129.5v-173q0 -25 22 -45q16 -16 25 -24.5t12 -12.5q0 -39 -50 -54 q-107 -107 -193 -107q-62 0 -62 109q0 39 1.5 100.5t3.5 140.5q7 158 7 241v329q-18 11 -41 37zM262 1267q0 210 163 210q89 2 89 -78q0 -76 -71 -126q-70 -50 -148 -50q-25 0 -29 8t-4 36z" />
<glyph unicode="&#xf0;" horiz-adv-x="1026" d="M-22 1121l97 98q-75 56 -75 113q132 159 163 159q11 -16 29.5 -37.5t41.5 -52.5l14 -12l116 116l59 -59l-102 -103q104 -41 297 -145q321 -222 321 -604q0 -211 -152 -399q-161 -195 -366 -195q-124 0 -195.5 68.5t-71.5 190.5v621l-41 36l-6 12q8 30 152 172l-11 21 q-26 11 -50.5 23.5t-47.5 26.5l-111 -112zM377 491q0 -317 126 -316q134 0 200 144q52 111 52 258q0 11 -4.5 30.5t-4.5 30.5t4 21q-52 141 -112 213q-15 18 -58.5 59.5t-113.5 105.5l-52 13q-32 0 -37 -45v-73q0 -147 9 -168q0 -23 -1 -57t-3 -80q-2 -45 -3.5 -79t-1.5 -57 z" />
<glyph unicode="&#xf1;" horiz-adv-x="1022" d="M61 959q26 54 100 123q78 76 128 75l32 -11q22 -28 31 -50l17 -12q8 3 24.5 10.5t38.5 19.5q36 20 73 20h45t66 3q39 2 68.5 3t46.5 1q130 0 167 -84q20 -48 20 -209q0 -123 -2 -270.5t-7 -325.5v2q7 -65 46 -65l13 -18q-2 -37 -93 -108q-91 -70 -129 -70q-61 0 -62 77 v828q0 65 -193 65q-9 0 -38.5 -1t-81.5 -3q-22 -43 -24 -445q0 -295 17 -321l41 -15l7 -12q-2 -38 -89 -105q-87 -61 -128 -61q-77 0 -77 98q0 34 1.5 85t3.5 117q7 132 7 203v338q0 55 -12 73q-3 6 -57 45zM191 1260q0 18 25 56l18 28t18 27q11 22 28 47t36 55 q44 50 105 50q41 0 136 -68q100 -65 111 -66q39 0 78 68q37 68 61 68q39 0 39 -36q0 -18 -14 -46q-69 -137 -73 -138q-52 -82 -117 -82q-48 0 -154 72q-100 76 -111 76q-30 0 -102 -107q-25 -39 -50 -39q-34 0 -34 35z" />
<glyph unicode="&#xf2;" horiz-adv-x="944" d="M57 441v164q0 28 80 280q47 54 47 67q0 23 -54 24q-30 -5 -51.5 -5.5t-21.5 29.5q0 26 64 87q63 63 90 63h323q100 0 164 -52q30 -32 57.5 -65t55.5 -65q61 -183 61 -374q-6 -11 -6 -56q0 -156 -129 -343q-141 -202 -284 -202q-137 0 -267 155q-129 152 -129 293z M198 1473q0 32 23.5 53.5t56.5 21.5q45 0 124 -99q143 -182 144 -215q0 -32 -32 -32q-39 0 -98 46q-80 63 -197 171q-20 22 -21 54zM250 673q0 -144 60 -276q75 -163 202 -163q184 0 184 284q0 89 -48 223q-59 161 -121 177l-52 45q-22 3 -56.5 6.5t-79.5 10.5 q-39 -25 -66 -141q-22 -93 -23 -166z" />
<glyph unicode="&#xf3;" horiz-adv-x="944" d="M57 441v164q0 28 80 280q47 54 47 67q0 23 -54 24q-30 -5 -51.5 -5.5t-21.5 29.5q0 26 64 87q63 63 90 63h323q100 0 164 -52q30 -32 57.5 -65t55.5 -65q61 -183 61 -374q-6 -11 -6 -56q0 -156 -129 -343q-141 -202 -284 -202q-137 0 -267 155q-129 152 -129 293z M250 673q0 -144 60 -276q75 -163 202 -163q184 0 184 284q0 89 -48 223q-59 161 -121 177l-52 45q-22 3 -56.5 6.5t-79.5 10.5q-39 -25 -66 -141q-22 -93 -23 -166zM395 1234q0 28 146 215q79 99 123 99q32 0 56 -21.5t24 -53.5q0 -48 -91 -125q-33 -26 -64.5 -50.5 t-63.5 -49.5q-57 -46 -98 -46q-32 0 -32 32z" />
<glyph unicode="&#xf4;" horiz-adv-x="944" d="M57 441v164q0 28 80 280q47 54 47 67q0 23 -54 24q-30 -5 -51.5 -5.5t-21.5 29.5q0 26 64 87q63 63 90 63h323q100 0 164 -52q30 -32 57.5 -65t55.5 -65q61 -183 61 -374q-6 -11 -6 -56q0 -156 -129 -343q-141 -202 -284 -202q-137 0 -267 155q-129 152 -129 293z M223 1264q0 28 66 114q111 145 202 145q67 0 203 -109q45 -39 45 -61q0 -19 -34 -80q-26 -45 -50 -45q-7 0 -80 58q-73 62 -107 62q-32 0 -108 -64q-80 -61 -98 -61q-39 0 -39 41zM250 673q0 -144 60 -276q75 -163 202 -163q184 0 184 284q0 89 -48 223q-59 161 -121 177 l-52 45q-22 3 -56.5 6.5t-79.5 10.5q-39 -25 -66 -141q-22 -93 -23 -166z" />
<glyph unicode="&#xf5;" horiz-adv-x="944" d="M57 441v164q0 28 80 280q47 54 47 67q0 23 -54 24q-30 -5 -51.5 -5.5t-21.5 29.5q0 26 64 87q63 63 90 63h323q100 0 164 -52q30 -32 57.5 -65t55.5 -65q61 -183 61 -374q-6 -11 -6 -56q0 -156 -129 -343q-141 -202 -284 -202q-137 0 -267 155q-129 152 -129 293z M154 1260q0 4 60 111q22 39 38.5 65t27.5 37q43 50 102 50q43 0 139 -68q99 -65 111 -66q38 0 77 68q37 68 59 68q39 0 39 -36q0 -16 -11 -46l-73 -138q-55 -82 -118 -82q-52 0 -152 72q-100 76 -112 76q-35 0 -102 -107q-26 -39 -50 -39q-35 0 -35 35zM250 673 q0 -144 60 -276q75 -163 202 -163q184 0 184 284q0 89 -48 223q-59 161 -121 177l-52 45q-22 3 -56.5 6.5t-79.5 10.5q-39 -25 -66 -141q-22 -93 -23 -166z" />
<glyph unicode="&#xf6;" horiz-adv-x="944" d="M57 441v164q0 28 80 280q47 54 47 67q0 23 -54 24q-30 -5 -51.5 -5.5t-21.5 29.5q0 26 64 87q63 63 90 63h323q100 0 164 -52q30 -32 57.5 -65t55.5 -65q61 -183 61 -374q-6 -11 -6 -56q0 -156 -129 -343q-141 -202 -284 -202q-137 0 -267 155q-129 152 -129 293z M214 1267q0 210 166 210q88 2 88 -78q0 -78 -75 -128q-66 -48 -145 -48q-26 0 -30 8t-4 36zM250 673q0 -144 60 -276q75 -163 202 -163q184 0 184 284q0 89 -48 223q-59 161 -121 177l-52 45q-22 3 -56.5 6.5t-79.5 10.5q-39 -25 -66 -141q-22 -93 -23 -166zM507 1267 q0 210 163 210q89 2 89 -78q0 -76 -70 -126t-148 -50q-26 0 -30 8t-4 36z" />
<glyph unicode="&#xf7;" d="M34 675v125h1020v-125h-1020zM441 334q0 41 31 70.5t71 29.5q43 0 73 -28.5t30 -71.5t-30 -72.5t-73 -29.5t-72.5 29.5t-29.5 72.5zM443 1139q0 43 30 72.5t73 29.5t71.5 -29.5t28.5 -72.5t-30 -71.5t-73 -28.5q-41 0 -70.5 29.5t-29.5 70.5z" />
<glyph unicode="&#xf8;" horiz-adv-x="944" d="M57 441v164q0 28 80 280q47 54 47 67q0 23 -54 24q-30 -5 -51.5 -5.5t-21.5 29.5q0 26 64 87q63 63 90 63h323q86 0 139 -33l50 97l80 -41l-62 -123q12 -11 29 -31.5t41 -50.5q61 -184 61 -374q-6 -11 -6 -56q0 -156 -129 -343q-141 -202 -284 -202q-89 0 -189 80 l-60 -119l-79 39l73 144q-141 160 -141 304zM250 673q1 -155 66 -291l250 512q-22 17 -39 24l-52 45q-22 3 -56.5 6.5t-79.5 10.5q-39 -25 -66 -141q-22 -93 -23 -166zM373 295q61 -61 139 -61q184 0 184 284q0 124 -73 287z" />
<glyph unicode="&#xf9;" horiz-adv-x="1024" d="M57 950q8 55 143 161q6 0 19 7.5t26.5 14t28.5 12t23 5.5q23 0 39 -24t16 -48q0 -59 -1 -150t-4 -214q-2 -123 -2 -212.5v-149.5q0 -134 117 -133q91 0 202 76q11 39 11 451q0 171 -68 202v15q161 183 245 183q64 0 64 -125v-153.5t-2 -214.5l-3 -371q0 -59 52 -104 q0 -41 -88 -113q-85 -69 -127 -69q-84 0 -75 125l-7 20l2 16l-13 6h-11q-250 -163 -375 -163q-96 0 -130 78q-22 47 -24 161l3 602q-3 18 -14 66q-9 7 -20 17.5t-27 25.5zM228 1471q0 32 23.5 53.5t54.5 21.5q46 0 126 -100q145 -182 145 -212q0 -32 -34 -32q-43 0 -96 43 q-39 33 -87 75t-112 96q-20 23 -20 55z" />
<glyph unicode="&#xfa;" horiz-adv-x="1024" d="M57 950q8 55 143 161q6 0 19 7.5t26.5 14t28.5 12t23 5.5q23 0 39 -24t16 -48q0 -59 -1 -150t-4 -214q-2 -123 -2 -212.5v-149.5q0 -134 117 -133q91 0 202 76q11 39 11 451q0 171 -68 202v15q161 183 245 183q64 0 64 -125v-153.5t-2 -214.5l-3 -371q0 -59 52 -104 q0 -41 -88 -113q-85 -69 -127 -69q-84 0 -75 125l-7 20l2 16l-13 6h-11q-250 -163 -375 -163q-96 0 -130 78q-22 47 -24 161l3 602q-3 18 -14 66q-9 7 -20 17.5t-27 25.5zM464 1230q0 32 145 213q78 98 126 99q30 0 53 -22t23 -51q0 -48 -91 -126q-32 -25 -63.5 -49.5 t-62.5 -50.5q-58 -45 -99 -45q-32 0 -31 32z" />
<glyph unicode="&#xfb;" horiz-adv-x="1024" d="M57 950q8 55 143 161q6 0 19 7.5t26.5 14t28.5 12t23 5.5q23 0 39 -24t16 -48q0 -59 -1 -150t-4 -214q-2 -123 -2 -212.5v-149.5q0 -134 117 -133q91 0 202 76q11 39 11 451q0 171 -68 202v15q161 183 245 183q64 0 64 -125v-153.5t-2 -214.5l-3 -371q0 -59 52 -104 q0 -41 -88 -113q-85 -69 -127 -69q-84 0 -75 125l-7 20l2 16l-13 6h-11q-250 -163 -375 -163q-96 0 -130 78q-22 47 -24 161l3 602q-3 18 -14 66q-9 7 -20 17.5t-27 25.5zM259 1264q0 26 68 114q111 145 200 145q70 0 204 -109q44 -36 44 -61q1 -19 -34 -80q-25 -45 -49 -45 q-5 0 -78 58q-73 62 -109 62q-32 0 -110 -64q-80 -61 -95 -61q-41 0 -41 41z" />
<glyph unicode="&#xfc;" horiz-adv-x="1024" d="M57 950q8 55 143 161q6 0 19 7.5t26.5 14t28.5 12t23 5.5q23 0 39 -24t16 -48q0 -59 -1 -150t-4 -214q-2 -123 -2 -212.5v-149.5q0 -134 117 -133q91 0 202 76q11 39 11 451q0 171 -68 202v15q161 183 245 183q64 0 64 -125v-153.5t-2 -214.5l-3 -371q0 -59 52 -104 q0 -41 -88 -113q-85 -69 -127 -69q-84 0 -75 125l-7 20l2 16l-13 6h-11q-250 -163 -375 -163q-96 0 -130 78q-22 47 -24 161l3 602q-3 18 -14 66q-9 7 -20 17.5t-27 25.5zM262 1267q0 210 163 210q89 2 89 -78q0 -76 -71 -126q-70 -50 -148 -50q-25 0 -29 8t-4 36zM553 1267 q0 210 163 210q91 2 91 -78q0 -78 -76 -128q-65 -48 -145 -48q-25 0 -29 8t-4 36z" />
<glyph unicode="&#xfd;" horiz-adv-x="1040" d="M57 -330q0 50 86 116q76 54 137 66l20 -9q9 -29 77 -29h219q80 0 98 45q4 18 4 115l7 10q-2 18 -3.5 48.5t1.5 74.5l-17 11q-161 -118 -324 -118q-46 0 -78 5.5t-57 21.5t-45.5 42t-40.5 68q-9 163 -7 390l9 391l-11 17q-22 11 -52 41q18 47 91 104q78 59 122 59 q73 0 73 -161q0 -32 -6 -96q-3 -32 -4.5 -54.5t-1.5 -38.5q0 -86 17 -121q-14 -61 -14 -145v-146v-44t3 -36v-11v3q6 -118 126 -118q48 0 130 31q89 34 89 78v67.5t2 95.5q2 57 2 98v68v257q0 43 -11 73l-43 20l-7 11q137 163 232 164q61 0 61 -136q0 -161 -6 -477 q-3 -159 -4 -277.5t-1 -197.5q-4 -39 -21 -114q-22 -67 -111 -164q-86 -93 -160 -132h-523q-58 0 -58 34zM464 1230q0 32 145 213q78 98 126 99q30 0 53 -22t23 -51q0 -48 -91 -126q-32 -25 -63.5 -49.5t-62.5 -50.5q-58 -45 -99 -45q-32 0 -31 32z" />
<glyph unicode="&#xfe;" horiz-adv-x="1015" d="M57 1286q4 12 12.5 27t19.5 35q134 134 180 134q41 0 78 -148q7 -32 7 -100q2 -32 4 -57t6 -40q2 -20 11 -20l5 2q25 0 60 2t83 7q48 4 83.5 6.5t59.5 2.5h95q176 0 176 -328q0 -30 -15 -243v2q10 -27 10 -182q0 -390 -288 -390q-46 0 -135 34q-82 37 -132 35 q-36 0 -36 -106q0 -89 19 -111q43 -22 42 -34q0 -44 -90 -107q-93 -66 -134 -67l-30 10q-30 39 -30 566q-5 18 -5 211q0 66 1 160.5t4 217.5l3 262q0 13 -3 34.5t-4 45.5t-3 47t-2 36l-7 11l-39 28zM339 594v2q13 -54 13 -153q0 -73 -7 -163q14 -37 80 -71q63 -35 109 -34 q54 0 119 39q47 64 47 348v68t-2 84l-2 113q0 150 -178 151q-13 0 -33.5 -1t-43.5 -1t-43.5 -1.5t-33.5 -1.5l-23 -14l-2 -95q-5 -169 0 -270z" />
<glyph unicode="&#xff;" horiz-adv-x="1040" d="M57 -330q0 50 86 116q76 54 137 66l20 -9q9 -29 77 -29h219q80 0 98 45q4 18 4 115l7 10q-2 18 -3.5 48.5t1.5 74.5l-17 11q-161 -118 -324 -118q-46 0 -78 5.5t-57 21.5t-45.5 42t-40.5 68q-9 163 -7 390l9 391l-11 17q-22 11 -52 41q18 47 91 104q78 59 122 59 q73 0 73 -161q0 -32 -6 -96q-3 -32 -4.5 -54.5t-1.5 -38.5q0 -86 17 -121q-14 -61 -14 -145v-146v-44t3 -36v-11v3q6 -118 126 -118q48 0 130 31q89 34 89 78v67.5t2 95.5q2 57 2 98v68v257q0 43 -11 73l-43 20l-7 11q137 163 232 164q61 0 61 -136q0 -161 -6 -477 q-3 -159 -4 -277.5t-1 -197.5q-4 -39 -21 -114q-22 -67 -111 -164q-86 -93 -160 -132h-523q-58 0 -58 34zM284 1267q0 210 167 210q87 2 87 -78q0 -76 -70 -126t-147 -50q-37 0 -37 44zM577 1267q0 210 164 210q89 2 89 -78q0 -76 -71 -126q-70 -50 -147 -50q-26 0 -30.5 8 t-4.5 36z" />
<glyph unicode="&#x131;" horiz-adv-x="449" d="M46 957q13 43 91 106q79 66 122 67q73 0 73 -91q0 -104 -7 -312q-2 -104 -3 -181.5t-1 -129.5v-173q0 -25 22 -45q16 -16 25 -24.5t12 -12.5q0 -39 -50 -54q-107 -107 -193 -107q-62 0 -62 109q0 39 1.5 100.5t3.5 140.5q7 158 7 241v329q-18 11 -41 37z" />
<glyph unicode="&#x141;" horiz-adv-x="1040" d="M0 546l163 81q2 20 4 42.5t2 46.5q0 37 -3 90t-7 124q-5 73 -7 126t-2 90q0 63 64 134q35 39 105 111q30 13 67 48q26 22 41.5 36t23.5 19h460q98 0 98 -55q0 -44 -87 -111q-86 -66 -131 -66l-21 9l-6 20q-28 32 -96 32h-258l-5 -4q-18 -61 -19 -346v-111t2 -125l128 61 l57 -116l-180 -88l2 -178q0 -65 -43 -136q-41 -68 -40 -66q0 -20 50 -21q28 11 382 11q100 0 108 -2q70 -9 70 -59q-20 -70 -199 -169q-20 16 -55 33q-25 6 -154 6h-108.5t-141.5 -2l-182 -4q-22 0 -23 30q0 22 28 61q17 25 26.5 39.5t11.5 19.5q39 91 29 320l-97 -47z" />
<glyph unicode="&#x142;" horiz-adv-x="564" d="M4 582l144 71v11q-7 13 -3 268l7 305q0 8 -17 28.5t-20 27.5q14 39 94 106q82 67 121 67q61 0 61 -86q0 -176 -7 -612l107 52l52 -106l-161 -82q-2 -100 -2 -185v-158v-85q17 -20 45 -35l5 -30q-18 -20 -44 -44.5t-61 -48.5q-80 -62 -119 -62q-61 0 -61 81v451l-88 -43z " />
<glyph unicode="&#x152;" horiz-adv-x="1759" d="M57 612q0 199 50 351q20 66 57.5 146t89.5 177q-15 16 -33 19q-13 3 -41 0q-16 -2 -26.5 -3.5t-14.5 -1.5q-82 0 -82 41q0 34 84 102q84 70 123 71q63 0 187 -13q63 -5 109.5 -8.5t77.5 -3.5q209 0 299 -191q52 115 93 155q59 59 161 59h43.5t58.5 -2q37 -3 62 -3h44h191 q91 0 89 -61q0 -47 -89 -116q-94 -68 -144 -78l-14 12q-26 66 -113 66q-66 0 -116.5 -3.5t-85.5 -7.5q-23 -35 -46 -109q-22 -70 -23 -114q0 -30 114 -29q30 0 69.5 2t89.5 7l104 6q126 0 126 -50q0 -41 -76 -95q-48 -37 -113 -69l-11 4q-11 28 -23 33q-100 13 -191 13 q-68 0 -91 -18l-7 -22q0 -291 57 -421q84 -204 329 -205q59 0 241 110l43 -41q-45 -61 -206 -198q-178 -150 -223 -151q-89 0 -200 106q-84 77 -150 181q-132 -282 -384 -281q-227 0 -366 211q-123 184 -123 423zM289 830q0 -227 71 -396q95 -230 284 -230q115 0 154 128 q22 70 22 221q0 18 -1 44t-3 60q-2 37 -2 63v44q0 127 -73 318q-86 223 -190 223h-126q-48 0 -95 -212q-41 -182 -41 -263z" />
<glyph unicode="&#x153;" horiz-adv-x="1477" d="M57 441v164q0 28 80 280q47 54 47 67q0 23 -54 24q-30 -5 -51.5 -5.5t-21.5 29.5q0 26 64 87q63 63 90 63h323q93 0 134 -46l78 -113q57 105 129 150l461 -2q42 0 71 -33t29 -74q0 -84 -234 -394q-234 -309 -234 -322q0 -43 84 -66q64 -20 119 -20q66 0 202 82 q32 4 32 -32q0 -48 -168 -165q-169 -115 -221 -115q-155 0 -272 204q-141 -211 -291 -211q-139 0 -269 157q-127 152 -127 291zM250 673q0 -144 60 -276q75 -163 202 -163q95 0 122 72q21 54 14 162l-3 58.5t-1 16.5v25t2 28q-26 298 -119 322l-52 45q-22 3 -56.5 6.5 t-79.5 10.5q-39 -25 -66 -141q-22 -93 -23 -166zM827 768q0 -37 23 -141q20 -95 11 -134q26 -48 48 -77q16 16 35 40t45 60q46 68 80 102q4 11 22 39.5t50 73.5q52 74 52 121q0 124 -154 124q-121 0 -157 -8q-54 -39 -55 -200z" />
<glyph unicode="&#x160;" horiz-adv-x="972" d="M48 46q0 41 93 99q73 46 132 66q16 -16 57 -36q25 -9 271 -9q25 0 46 1.5t39 3.5l23 15q9 18 9 42q0 52 -323 464q-321 411 -320 451v100q33 43 79 135q3 4 25.5 26.5t65.5 68.5l19 7h108.5t152.5 2l262 2q118 0 118 -52q0 -48 -102 -116q-91 -58 -148 -73 q-2 5 -10.5 14.5t-19.5 24.5q-18 20 -43 21h-282l-20 -19q4 -41 323 -445q319 -406 319 -479q0 -70 -81 -215q-86 -149 -147 -149h-480q-166 0 -166 50zM269 1716q-1 21 33 82q22 43 50 43q4 0 78 -61q73 -58 108 -60q30 0 110 63q78 63 96 63q41 0 41 -39q0 -30 -67 -115 q-113 -144 -202 -144q-70 0 -202 107q-45 39 -45 61z" />
<glyph unicode="&#x161;" horiz-adv-x="838" d="M46 766q0 65 91 191q93 127 152 139q25 4 60 6t78 2h174q129 -11 128 -56q0 -32 -72 -91q-73 -59 -104 -59h-17q-20 34 -98 34h-174q-20 0 -34 -23.5t-14 -47.5q0 -58 148 -138q130 -70 197.5 -108t80.5 -44q149 -103 149 -211q0 -87 -68 -199q-66 -109 -144 -161 l-408 -2q-93 0 -93 41q0 36 74 102q80 65 119 68q13 -7 74 -40q16 -9 96 -10h132q13 0 30 16t17 29q0 78 -8 93q-35 59 -189 141q-107 57 -169.5 91.5t-82.5 49.5q-125 85 -125 187zM214 1391q-1 19 36 82q22 43 47 43q7 0 80 -59q74 -58 107 -58q30 0 110 61q78 61 98 61 q38 0 37 -39q0 -30 -65 -116q-113 -143 -202 -143q-70 0 -203 107q-46 39 -45 61z" />
<glyph unicode="&#x178;" horiz-adv-x="1122" d="M65 1300v8q50 52 79 81.5t38 37.5q84 74 143 74q22 0 37 -29t15 -56v-147t-2 -210l-2 -359q0 -218 180 -218q143 0 200 84q25 39 24 541v100q-7 43 -59 71l-11 15q18 39 107 121q91 80 130 80q75 0 75 -146l2 -443q2 -187 -6 -339t-24 -275q-134 -196 -236 -252 q-89 -48 -273 -48h-117.5t-125.5 2q-167 0 -164 64q9 17 35.5 40.5t69.5 52.5q78 50 130 69q9 -5 21 -15.5t31 -21.5h354q54 0 54 159q0 77 -22 77q-154 -93 -277 -93q-121 0 -226 66q-121 73 -120 188q0 30 7 57l-4 14q2 9 3 85t1 224v269l-9 22l-45 34zM382 1639 q0 215 164 214q88 0 88 -83q0 -75 -70 -124q-68 -48 -148 -48q-25 0 -29.5 7t-4.5 34zM673 1639q0 215 164 214q91 0 91 -83q0 -77 -76 -126q-65 -46 -145 -46q-25 0 -29.5 7t-4.5 34z" />
<glyph unicode="&#x17d;" horiz-adv-x="1100" d="M16 41q0 28 47 61l15 28q15 9 35.5 22.5t49.5 31.5q57 37 96 37l12 -19l18 -13q38 -11 95 -11h345q32 38 56 119q25 89 24 137q0 169 -97 286q-103 128 -267 128q-78 0 -118 -18q-32 11 -38 55q15 43 188 219q161 167 167 191l-8 13q-82 8 -191 6l-191 -6 q-234 -9 -234 52q16 43 95 102q78 56 133 70q4 -2 24.5 -20t29.5 -18q345 0 555 -8h54q37 -9 37 -52q-46 -82 -139 -184l-154 -170q173 -100 239 -164q108 -109 108 -261q0 -30 -5.5 -83.5t-16.5 -133.5q-9 -73 -100 -249q-100 -196 -145 -196l-662 3q-56 2 -57 45z M269 1716q-1 21 33 82q22 43 50 43q4 0 78 -61q73 -58 108 -60q30 0 110 63q78 63 96 63q41 0 41 -39q0 -30 -67 -115q-113 -144 -202 -144q-70 0 -202 107q-45 39 -45 61z" />
<glyph unicode="&#x17e;" horiz-adv-x="926" d="M50 37q4 54 228 404q227 349 227 457q-28 43 -199 43q-65 0 -154 -6q-20 9 -20 43q20 22 52 53.5t78 70.5q150 -4 163 7q22 -2 94 -2h195q150 0 150 -70l-259 -408q-195 -309 -195 -395l8 -32l23 -13q36 -7 268 -7q159 0 159 -30q0 -34 -131 -150q-30 -2 -51.5 -2h-39.5 h-468q-111 0 -128 37zM295 1393q0 17 35 82q22 43 47 43q7 0 80 -61q74 -58 107 -58q30 0 109 61q77 63 97 63q39 0 39 -41q0 -28 -65 -113q-111 -146 -201 -146q-76 0 -204 109q-44 37 -44 61z" />
<glyph unicode="&#x17f;" horiz-adv-x="588" d="M68 -37l5 3v1238q0 61 57 149q56 91 109 124q54 35 154 35q204 0 243 -26q0 -52 -61 -115q-59 -59 -115 -78q-23 41 -48 50q-18 7 -71 8q-41 0 -46 -325v-269t2 -269q-4 -214 -6 -372.5t-2 -265.5q-16 -39 -85 -114q-70 -78 -106 -77q-30 0 -30 27v277z" />
<glyph unicode="&#x192;" horiz-adv-x="796" d="M-39 -239q0 26 21 53q76 99 139 409q7 30 23.5 106t46.5 200q52 228 52 258q0 20 -48 20q-43 0 -47 -2q-26 -7 -35 -7q-41 0 -40 39q0 18 36 48q4 4 43 50q28 34 50 33q7 0 19.5 -2.5t19.5 -2.5q50 0 65 65q5 28 9 54.5t8 51.5q16 107 24 124q18 38 162 137 q23 16 45.5 32t46.5 35q58 41 99 50q14 2 31 3t37 1q163 0 164 -61q0 -32 -80 -91q-49 -36 -93 -36l-125 20q-66 -5 -88 -70q-7 -33 -14 -63.5t-14 -62.5q-36 -145 -36 -176q0 -11 11 -13q18 0 43.5 2.5t57.5 7.5t56.5 8.5t41.5 3.5q30 0 28 -28q0 -26 -31 -61 q-25 -26 -36 -39t-15 -16q-32 -45 -67 -45q-16 0 -46 2t-45 2q-28 0 -35 -11q-4 -11 -74 -342l-100 -463q-26 -84 -67 -125q-11 -11 -122 -95q-52 -39 -84 -39q-37 0 -37 36z" />
<glyph unicode="&#x2c6;" horiz-adv-x="976" d="M297 1264q0 28 67 114q111 145 200 145q75 0 204 -109q43 -36 43 -61q0 -17 -34 -80q-26 -45 -48 -45q-6 0 -79 58q-73 62 -107 62q-35 0 -111 -64q-80 -61 -96 -61q-39 0 -39 41z" />
<glyph unicode="&#x2c7;" d="M286 1223q0 30 30 75q30 50 55 50q6 0 74 -62q73 -58 112 -58q28 0 107 61q77 63 100 64q39 0 39 -41q0 -26 -68 -114q-111 -146 -201 -146q-76 0 -204 110q-44 37 -44 61z" />
<glyph unicode="&#x2d8;" d="M289 1316q0 39 41 39q9 0 95 -69q87 -65 126 -65q43 0 117 68q76 67 91 69q39 0 39 -39q0 -35 -50 -105q-113 -161 -207 -162q-68 0 -170 126q-82 97 -82 138z" />
<glyph unicode="&#x2d9;" d="M427 1214q0 68 71 139q39 39 64 38q45 0 45 -68q0 -30 25 -75q27 -41 27 -57q0 -22 -43 -59q-2 -2 -37 -43q-25 -28 -50 -28q-47 0 -76 56q-26 50 -26 97z" />
<glyph unicode="&#x2da;" d="M345 1305q0 46 87 105q59 39 132 39q177 0 177 -94q0 -32 -25 -107q-78 -235 -189 -235q-93 0 -156 194q-26 82 -26 98zM493 1282q2 -30 19 -75q20 -61 39 -61q17 0 43 61q25 63 24 86q0 35 -70 35q-58 0 -55 -46z" />
<glyph unicode="&#x2db;" d="M673 -95q0 82 123 115h256q-221 -70 -211 -138q9 -80 55 -144q25 -32 45 -31q28 0 64 37q36 36 54 35q34 0 34 -33q0 -41 -63 -103q-62 -61 -114 -61q-82 0 -166 123q-77 111 -77 200z" />
<glyph unicode="&#x2dc;" horiz-adv-x="976" d="M191 1260q0 18 25 56l18 28t18 27q11 22 28 47t36 55q44 50 105 50q41 0 136 -68q100 -65 111 -66q39 0 78 68q37 68 61 68q39 0 39 -36q0 -18 -14 -46q-69 -137 -73 -138q-52 -82 -117 -82q-48 0 -154 72q-100 76 -111 76q-30 0 -102 -107q-25 -39 -50 -39q-34 0 -34 35 z" />
<glyph unicode="&#x2dd;" d="M339 1050q0 26 71 137l93 145q65 100 113 100q32 0 59.5 -26t27.5 -58q0 -39 -78 -116q-26 -25 -52.5 -48.5t-51.5 -49.5q-128 -121 -148 -121q-34 0 -34 37zM627 1050q0 30 71 137q16 25 39.5 60t56.5 85q65 100 113 100q32 0 58 -26t26 -58q0 -44 -77 -118 q-18 -16 -43 -39.5t-62 -56.5l-102 -97q-22 -22 -45 -24q-35 0 -35 37z" />
<glyph unicode="&#x3a9;" horiz-adv-x="1447" d="M-68 273h79q30 -91 100 -130q50 -30 145 -34h178q-282 130 -393 384q-61 139 -61 284q0 150 70.5 296t185.5 248q194 171 489 170q354 0 566 -246q178 -208 178 -462q0 -224 -126 -403q-121 -178 -330 -271q57 0 129 3t158 13q89 16 136 148h82l-95 -293h-632v120 q200 98 289 206q163 198 163 467q0 254 -132 427q-143 193 -388 193q-271 0 -409 -224q-109 -176 -110 -392q0 -312 208 -518q73 -78 245 -159v-120h-631z" />
<glyph unicode="&#x3c0;" d="M-65 744l160 206q64 82 211 82h915v-145h-341q-70 -169 -71 -260v-349q0 -112 2 -119q14 -57 80 -57q5 0 114 28v-76l-232 -93q-20 -9 -32 -9q-45 0 -91 87q-27 54 -27 141v343q0 91 23 152q4 11 66 132l41 80h-323l-5 -251q-2 -95 -11 -213.5t-28 -263.5 q-25 -217 -108 -216q-37 0 -64.5 33t-27.5 72t25 106q80 211 105 731q-123 -5 -193 -53q-61 -41 -139 -150z" />
<glyph unicode="&#x401;" horiz-adv-x="1067" d="M57 725q0 332 162 644q65 127 104 127q32 0 77 1t109 4q64 2 109.5 3t77.5 1h193q91 0 91 -59q0 -45 -91 -116q-91 -70 -143 -80l-17 12q-25 68 -113 68q-15 0 -44 -2.5t-45 -2.5q-52 0 -94 -3t-73 -8q-9 -11 -21 -38.5t-23 -71.5q-25 -86 -25 -113q0 -30 95 -30 q28 0 68.5 3t96.5 7q54 5 94.5 7t68.5 2q134 0 134 -50q0 -41 -75 -95q-53 -39 -114 -67l-11 2l-14 26l-9 6q-26 7 -61 7q15 0 -21 2.5t-107 4.5q-39 2 -70.5 -1.5t-55.5 -7.5l-19 -9l-9 -26q0 -168 54 -319q64 -189 185 -253q15 -7 40 -19t64 -31h100q34 0 134 54 q98 55 104 56q50 0 46 -39q-37 -52 -209 -198q-180 -152 -223 -153q-236 0 -388 273q-132 230 -132 482zM382 1639q0 215 164 214q88 0 88 -83q0 -75 -70 -124q-68 -48 -148 -48q-25 0 -29.5 7t-4.5 34zM673 1639q0 215 164 214q91 0 91 -83q0 -77 -76 -126 q-65 -46 -145 -46q-25 0 -29.5 7t-4.5 34z" />
<glyph unicode="&#x404;" horiz-adv-x="1304" d="M68 612q2 93 9 178t30 162.5t63.5 146t109.5 129.5q59 52 94.5 81.5t43.5 35.5l319 239q28 -7 138 -54q82 -37 148 -36q33 0 107 29q82 32 41 32q-2 0 29 -19q-52 -56 -91.5 -98.5t-67.5 -68.5q-121 -121 -204 -139l-210 82q-11 2 -48 2q-47 0 -108 -14q-59 -46 -99 -81 t-60 -60q-80 -100 -112 -243q-7 0 -6 -46.5t4.5 -103.5t9.5 -105.5t13 -48.5q61 -171 215 -269q155 -93 341 -87q121 5 225.5 21t195.5 46l-137 -336q-104 -16 -179 -23t-125 -7q-295 0 -482 180q-187 179 -207 475zM189 646l9 218q0 -30 95 -29q28 0 68.5 2t95.5 7 q55 4 96 6t67 2q135 0 135 -49q0 -42 -76 -96q-52 -39 -113 -65l-11 2l-14 24l-9 7q-26 7 -61 7q15 0 -21 2t-107 5q-39 3 -70.5 -1t-56.5 -9l-18 -9z" />
<glyph unicode="&#x406;" horiz-adv-x="581" d="M22 1325q18 44 80 96q63 56 107 70q63 -37 160 -29q38 2 58 3t26 1q90 0 90 -43q0 -7 -7 -19.5t-17 -27t-20.5 -30.5t-16.5 -25q-7 -16 -17 -39.5t-22 -56.5v-395v-94t-2 -57v-70v-381q9 -12 21.5 -27t28.5 -35q-3 -43 -84 -112q-75 -58 -123 -80q-63 0 -80 35 q-11 22 -11 89l5 9l11 943q0 39 -52 87q17 32 62 73q15 13 32.5 30.5t37.5 34.5q0 16 -46 20h-57l-140 -2q-23 9 -24 32z" />
<glyph unicode="&#x407;" horiz-adv-x="581" d="M22 1325q18 44 80 96q63 56 107 70q63 -37 160 -29q38 2 58 3t26 1q90 0 90 -43q0 -7 -7 -19.5t-17 -27t-20.5 -30.5t-16.5 -25q-7 -16 -17 -39.5t-22 -56.5v-395v-92t-2 -56v-73v-381q9 -12 21.5 -27t28.5 -35q-3 -43 -84 -112q-75 -58 -123 -80q-63 0 -80 35 q-11 22 -11 89l5 9l11 943q0 39 -52 87q17 32 62 73q15 13 32.5 30.5t37.5 34.5q0 16 -46 20h-57l-140 -2q-23 9 -24 32zM63 1639q0 215 165 214q91 0 91 -83q0 -77 -76 -126q-65 -46 -145 -46q-26 0 -30.5 7t-4.5 34zM357 1639q0 215 164 214q36 0 62 -23t26 -60 q0 -75 -71 -124q-67 -48 -147 -48q-26 0 -30 7t-4 34z" />
<glyph unicode="&#x40e;" horiz-adv-x="1122" d="M65 1300v8q50 52 79 81.5t38 37.5q84 74 143 74q22 0 37 -29t15 -56v-147t-2 -210l-2 -359q0 -218 180 -218q143 0 200 84q25 39 24 541v100q-7 43 -59 71l-11 15q18 39 107 121q91 80 130 80q75 0 75 -146l2 -443q2 -187 -6 -339t-24 -275q-134 -196 -236 -252 q-89 -48 -273 -48h-117.5t-125.5 2q-167 0 -164 64q9 17 35.5 40.5t69.5 52.5q78 50 130 69q9 -5 21 -15.5t31 -21.5h354q54 0 54 159q0 77 -22 77q-154 -93 -277 -93q-121 0 -226 66q-121 73 -120 188q0 30 7 57l-4 14q2 9 3 85t1 224v269l-9 22l-45 34zM380 1735 q0 15 34 81q22 43 48 43q6 0 79 -61q73 -59 107 -59q30 0 109 61q78 64 98 64q39 0 39 -41q0 -28 -67 -114q-111 -145 -200 -145q-75 0 -204 109q-43 36 -43 62z" />
<glyph unicode="&#x410;" horiz-adv-x="1181" d="M46 1364q15 43 82 98q61 56 113 70q18 -11 56 -25q57 -11 126 -11q50 0 145 7q98 7 148 7q184 0 232 -16q113 -39 113 -171q0 -59 -1 -147.5t-3 -207.5q-3 -118 -3 -205.5v-146.5q0 7 -6 -136q-5 -87 6 -137q18 -73 65 -109l9 -15q-5 -33 -107 -124q-100 -91 -136 -91 q-82 0 -82 148q0 518 11 537l-3 3q-4 13 -4 199l-24 18h-310q-26 0 -26 -182q0 -28 2 -68.5t4 -94.5q2 -55 3 -96t1 -68q0 -307 -157 -370q-26 -11 -53.5 -19.5t-57.5 -17.5l-18 18q0 9 5.5 23t12 27.5t12 27t5.5 20.5q5 86 9 321.5t4 628.5q0 65 -21 78q-28 15 -29 25 q11 32 50 75q43 49 52 73l-9 9q-20 6 -160 6l5 -2q-61 2 -61 41zM453 1310q4 -18 4 -208q0 -30 261 -29h55q43 0 43 68v52q0 96 -37 117q-25 15 -133 15h-160l-29 -4z" />
<glyph unicode="&#x411;" horiz-adv-x="1202" d="M46 1351q0 45 79 111q85 65 129 65l39 -24q50 0 122.5 -1t172.5 -4q50 0 113 -1t122 -1h109h75q52 0 95.5 -20.5t43.5 -59.5v-15.5t-3 -20.5l-86 -82q-66 -59 -89 -59l-29 21q-7 22 -29.5 39t-50.5 17h-323q-45 0 -45 -27v-268.5t2 -109.5q2 -20 19 -20q34 0 83 7 t103.5 11.5t112 1t109.5 -21.5q16 -20 76 -71q45 -39 77 -102q3 -32 7 -59.5t11 -51.5v-164v-42t-2 -56v-68q-9 -20 -9 -45q0 -232 -307 -232h-614q-30 0 -29 28q0 6 61 99q63 91 63 146v645q0 13 -1 37.5t-1 50.5t-1 50t-1 37l-7 20q-18 11 -43 39q25 68 121 143v17l-9 4 q-26 0 -74.5 -4.5t-74.5 -4.5q-117 0 -117 46zM402 198l8 -16l11 -4q22 -5 61 -5h125l7 5q11 -3 30.5 -4t44.5 -1q96 0 125 57q25 45 25 143q0 232 -16 280q-42 130 -216 130h-84q-39 0 -39 -130q0 -14 1 -39.5t3.5 -52.5t3.5 -52t1 -38q0 -102 -13 -146q-16 -52 -78 -127z " />
<glyph unicode="&#x412;" horiz-adv-x="1202" d="M46 1351q0 45 79 111q85 65 129 65l39 -24q50 0 122.5 -1t172.5 -4q100 -2 173.5 -2h123.5l-26 2q241 -7 241 -266q0 -141 -130 -291q-52 -45 -50 -52q16 -20 76 -71q45 -39 77 -102q3 -32 7 -59.5t11 -51.5v-164v-42t-2 -56v-68q-9 -20 -9 -45q0 -232 -307 -232h-614 q-30 0 -29 28q0 6 61 99q63 91 63 146v645q0 13 -1 37.5t-1 50.5t-1 50t-1 37l-7 20q-18 11 -43 39q25 68 121 143v17l-9 4q-26 0 -74.5 -4.5t-74.5 -4.5q-117 0 -117 46zM402 198l8 -16l11 -4q22 -5 61 -5h125l7 5q11 -3 30.5 -4t44.5 -1q96 0 125 57q25 45 25 143 q0 232 -16 280q-42 130 -216 130h-84q-39 0 -39 -130q0 -14 1 -39.5t3.5 -52.5t3.5 -52t1 -38q0 -102 -13 -146q-16 -52 -78 -127zM491 1020.5q0 -92.5 2 -109.5q2 -20 19 -20q138 0 238 72q111 78 111 215q0 54 -35 96t-89 42h-201q-45 0 -45 -27v-268.5z" />
<glyph unicode="&#x413;" horiz-adv-x="1028" d="M30 1355q16 41 81 96q63 52 114 70q11 0 38.5 -16t38.5 -16l618 2q103 1 103 -75v-15.5t-2 -20.5l-86 -82q-66 -59 -89 -59l-30 21q-13 45 -68 45h-195q-22 0 -24 -75v-43t3 -59q2 -35 3 -60t1 -42q0 -78 -7 -235q-2 -77 -3 -135t-1 -97q0 -329 161 -329q18 0 103 39 l22 -10l12 -20v-3q-23 -36 -53.5 -72t-69.5 -73q-97 -91 -157 -91l-88 30q-159 125 -160 291l2 664q0 77 -8 122l-9 10l-28 11l-7 13q23 52 107 143v5l-16 16q-13 0 -35.5 -1t-46.5 -1t-47 -1.5t-36 -1.5q-104 0 -123 10q-20 32 -18 45z" />
<glyph unicode="&#x414;" horiz-adv-x="1661" d="M73 66v18q0 23 10 48t28.5 45.5t45.5 34t62 13.5h258q3 44 5 112t3 169t2 241t1 329q0 65 -20 76q-27 16 -30 26q12 32 50 74q39 46 48 69q-68 -7 -115 -7q-111 0 -111 41t76 102q66 53 117 70q4 -2 16.5 -5.5t31.5 -9.5q30 -11 47 -11h384q187 0 246 -30 q91 -44 145 -217q43 -136 43 -269q0 -46 -4.5 -111t-12.5 -149q-5 -30 -10 -70.5t-17 -89.5t-35 -103.5t-59 -114.5q-30 -45 -53 -73.5t-43 -45.5l282 2q68 0 102.5 -36.5t34.5 -82.5v-18t-5 -25l-116 -96q-46 -32 -74 -49.5t-46 -17.5l-39 25q-9 26 -30.5 53.5t-60.5 27.5 h-555q-18 0 -47.5 -1t-62.5 -1t-63.5 -1t-48.5 -1t-35.5 -11.5t-30 -28.5t-21.5 -34t-14 -31l-38 -25q-18 0 -46.5 18t-74.5 51l-115 95q-5 16 -5 25zM670 228h408q18 41 33 93q30 97 35 156q20 32 29 146q5 45 7 84t2 70v2q0 230 -67 371q-85 173 -308 173h-86q2 -15 3 -67 t1 -137q-7 0 -9 -53t-2 -124.5t1 -146.5t1 -120q0 -28 1 -68.5t4 -94.5v-25t1 -2t2 10.5t1 11.5v-2q0 -178 -57 -277zM1043 182l7 7z" />
<glyph unicode="&#x415;" horiz-adv-x="1067" d="M57 725q0 332 162 644q65 127 104 127q32 0 77 1t109 4q64 2 109.5 3t77.5 1h193q91 0 91 -59q0 -45 -91 -116q-91 -70 -143 -80l-17 12q-25 68 -113 68q-15 0 -44 -2.5t-45 -2.5q-52 0 -94 -3t-73 -8q-9 -11 -21 -38.5t-23 -71.5q-25 -86 -25 -113q0 -30 95 -30 q28 0 68.5 3t96.5 7q54 5 94.5 7t68.5 2q134 0 134 -50q0 -41 -75 -95q-53 -39 -114 -67l-11 2l-14 26l-9 6q-26 7 -61 7q15 0 -21 2.5t-107 4.5q-39 2 -70.5 -1.5t-55.5 -7.5l-19 -9l-9 -26q0 -168 54 -319q64 -189 185 -253q15 -7 40 -19t64 -31h100q34 0 134 54 q98 55 104 56q50 0 46 -39q-37 -52 -209 -198q-180 -152 -223 -153q-236 0 -388 273q-132 230 -132 482z" />
<glyph unicode="&#x416;" horiz-adv-x="1854" d="M63 1460l19 13q52 0 141 1t218 3q17 -13 171 -249q61 -98 105 -168.5t74 -115.5l14 -9q2 2 8.5 22.5t12.5 45.5t10.5 47.5t4.5 29.5q0 48 2.5 67.5t-1 31.5t-18.5 31.5t-51 69.5q2 13 22.5 40.5t47.5 57t55 53.5t41 31q16 9 31 15.5t26 11.5q75 0 75 -179 q0 -61 -2 -120.5t-6 -105.5l-4 -95v-11q0 -30 14 -43l14 9q30 45 73.5 115.5t106.5 168.5q152 236 169 249q130 -2 219 -3t141 -1l18 -13q0 -11 -12.5 -38t-29.5 -57.5t-36.5 -60t-34.5 -44.5l-14 -8q-36 5 -66.5 7.5t-56.5 2.5q-211 0 -211 -151q0 -41 120 -388 q54 -155 85.5 -247t47 -143t21 -69.5t8.5 -22.5q11 -22 92 -52l12 -14l-12 -30q-13 -13 -37 -40t-53.5 -55t-60 -47t-58.5 -19q-27 0 -46 16t-39.5 61.5t-49 131t-71.5 225.5q-121 382 -141 402l-12 -2q-107 -171 -105 -304l3 -150q2 -48 4 -69.5t9.5 -35.5t19.5 -28.5 t36 -46.5v-2q-161 -198 -239 -198q-73 0 -73 131v210q0 28 1 69.5t3 93.5q2 70 -23 158.5t-77 171.5l-11 2q-20 -20 -141 -402q-43 -140 -71.5 -225.5t-49 -131t-40 -61.5t-45.5 -16q-28 0 -58.5 19t-60.5 47t-54 55t-37 40l-11 30l11 14q82 30 93 52q2 4 7.5 22.5t22 69.5 t47 143t85.5 247q121 347 120 388q0 150 -211 151q-25 0 -55.5 -2t-67.5 -8l-13 8q-16 15 -35.5 44.5t-36.5 60t-30 57.5t-13 38z" />
<glyph unicode="&#x417;" horiz-adv-x="1100" d="M16 41q0 28 47 61l15 28q15 9 35.5 22.5t49.5 31.5q57 37 96 37l12 -19l18 -13q38 -11 95 -11h345q32 38 56 119q25 89 24 137q0 169 -97 286q-103 128 -267 128q-78 0 -118 -18q-32 11 -38 55q15 43 188 219q161 167 167 191l-8 13q-82 8 -191 6l-191 -6 q-234 -9 -234 52q16 43 95 102q78 56 133 70q4 -2 24.5 -20t29.5 -18q345 0 555 -8h54q37 -9 37 -52q-46 -82 -139 -184l-154 -170q173 -100 239 -164q108 -109 108 -261q0 -30 -5.5 -83.5t-16.5 -133.5q-9 -73 -100 -249q-100 -196 -145 -196l-662 3q-56 2 -57 45z" />
<glyph unicode="&#x418;" horiz-adv-x="1143" d="M59 1275v7q159 219 230 219q84 0 84 -146q0 -163 -7 -491q-2 -164 -3 -285.5t-1 -203.5q0 -141 89 -171q104 0 208 52q121 66 120 162q0 80 -6 237q-3 80 -4 140t-1 99q0 11 2.5 47.5t6.5 99.5q4 50 5 84t-3 57l-11 52q-11 5 -27 16.5t-34 27.5q37 47 109 136 q75 91 141 91q78 0 78 -145q0 -87 -1.5 -217t-3.5 -304l-4 -520q0 -46 8.5 -63t47.5 -45q0 -68 -95 -138q-93 -73 -162 -73q-37 16 -50 84q-2 5 -9 105q-37 -7 -109 -66q-86 -65 -114 -82q-91 -45 -198 -45q-234 0 -234 388v45.5t2 63.5t2 63.5v46.5q0 34 1.5 84t4.5 116 q2 65 3 116t1 86q0 173 -16 229l-41 26z" />
<glyph unicode="&#x419;" horiz-adv-x="1143" d="M59 1275v7q159 219 230 219q84 0 84 -146q0 -163 -7 -491q-2 -164 -3 -285.5t-1 -203.5q0 -141 89 -171q104 0 208 52q121 66 120 162q0 80 -6 237q-3 80 -4 140t-1 99q0 11 2.5 47.5t6.5 99.5q4 50 5 84t-3 57l-11 52q-11 5 -27 16.5t-34 27.5q37 47 109 136 q75 91 141 91q78 0 78 -145q0 -87 -1.5 -217t-3.5 -304l-4 -520q0 -46 8.5 -63t47.5 -45q0 -68 -95 -138q-93 -73 -162 -73q-37 16 -50 84q-2 5 -9 105q-37 -7 -109 -66q-86 -65 -114 -82q-91 -45 -198 -45q-234 0 -234 388v45.5t2 63.5t2 63.5v46.5q0 34 1.5 84t4.5 116 q2 65 3 116t1 86q0 173 -16 229l-41 26zM380 1735q0 15 34 81q22 43 48 43q6 0 79 -61q73 -59 107 -59q30 0 109 61q78 64 98 64q39 0 39 -41q0 -28 -67 -114q-111 -145 -200 -145q-75 0 -204 109q-43 36 -43 62z" />
<glyph unicode="&#x41a;" horiz-adv-x="1131" d="M59 1295q2 26 69 98q61 68 97 84q16 9 31 16.5t26 11.5q75 0 75 -180q0 -20 -2.5 -58.5t-2.5 -59.5v-55.5t-2 -51.5l-5 -95q-4 -39 15 -55l13 9q30 46 74 116.5t106 167.5q152 237 170 251q129 -2 218 -3.5t141 -1.5l18 -14q0 -25 -46 -102q-36 -61 -67 -98l-14 -6 q-36 4 -67 6.5t-56 2.5q-211 0 -212 -150q0 -41 121 -389q141 -397 150 -446q2 -9 4.5 -16.5t6.5 -20.5q11 -22 93 -52l13 -13l-13 -30q-15 -18 -38 -42t-55 -56q-61 -63 -115 -63q-39 0 -52 16q-35 38 -155 418q-115 377 -141 403l-12 -2q-106 -169 -104 -306l2 -149 q2 -80 7 -109q25 -22 62 -71v-2q-161 -198 -239 -198q-73 0 -73 132v209q0 125 13 377q14 252 15 378q0 50 -1.5 77t-3.5 37q-4 4 -64 85z" />
<glyph unicode="&#x41b;" horiz-adv-x="1141" d="M61 393q0 91 27 210.5t77.5 246t121 249t158 219t189 156.5t212.5 62q173 0 173 -236q0 -46 -1.5 -141.5t-4 -201t-3.5 -200.5t-1 -141q0 -45 1 -118t2 -143.5t4 -125t5 -60.5l38 -24l2 -27q-22 -18 -32 -44t-49 -72l-197 -4q-5 4 -7.5 71.5t-5 166t-3.5 214.5t-1 218 q0 52 1 112.5t1 126.5l2 284q0 28 -5.5 57.5t-15.5 53t-25 38.5t-35 15q-13 0 -34 -10.5t-44 -27.5t-44 -36t-38 -40q-102 -125 -150.5 -270.5t-48.5 -343.5q0 -91 13.5 -171.5t37.5 -142t57 -98.5t71 -44q35 -11 46 -41t4.5 -60.5t-28.5 -55.5t-56 -30q-121 0 -200.5 19 t-127 67t-67 126.5t-19.5 196.5z" />
<glyph unicode="&#x41c;" horiz-adv-x="1677" d="M50 397q0 354 164 707q7 57 222 301q22 14 59 36.5t82.5 44t96.5 39t103 17.5q141 0 171 -132q13 -55 28 -67h4q41 39 91 75.5t101 64t99 43.5t87 16q173 0 172 -237q0 -45 -1.5 -140.5t-3.5 -201.5t-3 -201.5t-1 -141.5q0 -45 1 -117.5t2 -143t3.5 -125t4.5 -61.5 l39 -23l2 -27q-22 -18 -32.5 -44.5t-49.5 -71.5l-198 -5q-4 5 -6.5 72t-4.5 166t-3 215t-1 218q0 52 1 112.5t1 125.5l2 289q0 125 -82 125q-13 0 -47 -18t-73 -42t-70.5 -48t-41.5 -35q0 -36 -2.5 -106.5t-3.5 -159.5t-3 -186.5t-2 -186.5q0 -137 2 -277.5t0 -254.5h-267 q6 9 10.5 83.5t9 187.5t6.5 254t2 282v423q0 113 -82 114q-52 0 -117 -80q-202 -249 -202 -643q0 -91 13 -171.5t37 -142.5t57.5 -99t71.5 -44q35 -11 46 -41t4 -60.5t-28.5 -55.5t-55.5 -29q-121 0 -200.5 19.5t-127 67t-67 126t-19.5 195.5z" />
<glyph unicode="&#x41d;" horiz-adv-x="1213" d="M22 1325q7 18 30 44t51.5 51.5t57 44.5t48.5 26q56 -32 127 -31q52 0 80.5 3t36.5 3q91 0 90 -43q0 -7 -7 -19.5t-17 -27t-20.5 -30.5t-16.5 -25q-7 -16 -17 -39.5t-22 -56.5v-386l19 -9q6 0 22.5 11t34 22.5t36 22t27.5 10.5h209q14 0 36.5 -1t47.5 -4v85l-3 150 q-2 47 -4 69t-9 35t-19.5 28t-34.5 47v3q158 197 238 197q74 0 74 -132v-209q0 -34 -3 -94.5t-5 -132t-6.5 -151t-7 -151t-4.5 -132t-2 -93.5q0 -50 -2.5 -68.5t1 -32.5t18.5 -32t51 -68q-3 -14 -23 -41t-47.5 -56.5t-54.5 -53.5t-41 -30q-15 -9 -30 -16.5t-26 -11.5 q-76 0 -76 180q-2 61 1.5 120.5t5.5 104.5l4 96q0 11 1 24t1 26q0 17 -2 22q2 39 3.5 80t1.5 78q-59 0 -152.5 3t-193.5 1q-54 0 -86 -17q0 -11 -1 -21.5t-1 -17.5v-451q9 -12 21.5 -27t28.5 -35q-3 -19 -24.5 -47t-53 -56.5t-66.5 -52t-63 -36.5q-52 0 -71.5 22t-19.5 102 l5 9l11 943q0 39 -52 87q17 32 51.5 63.5t80.5 74.5q0 16 -46 20l-197 -2q-23 9 -24 32zM432 709q0 -6 1 -4t1 7z" />
<glyph unicode="&#x41e;" horiz-adv-x="1136" d="M57 612q0 202 47 351q37 121 150 323q-9 12 -33 17q-16 2 -43 0q-16 -2 -25.5 -2.5t-13.5 -0.5q-82 0 -82 41q0 37 84 100q87 70 123 73q105 -39 284 -32l144 4q290 0 354 -384q4 -30 13.5 -102.5t24.5 -188.5v3q-30 -608 -375 -796q-20 -7 -51 -17t-74 -23h-38 q-227 0 -366 211q-123 186 -123 423zM289 830q0 -227 71 -396q95 -230 284 -230q125 0 183 141q45 110 45 249q0 211 -37 358q-11 28 -30 94q-26 41 -51 82t-49 84q-68 93 -154 93h-126q-54 -25 -98 -218q-17 -85 -27.5 -148.5t-10.5 -108.5z" />
<glyph unicode="&#x41f;" horiz-adv-x="1204" d="M52 1358q0 45 89 106q80 57 132 57q82 -37 241 -37q25 0 65.5 1t93.5 4q104 6 159 7h127.5t59.5 -2q135 -12 135 -78q0 -17 -54 -106q-50 -85 -61 -121q-13 -46 -13 -519q0 -384 13 -427q41 -28 41 -43q0 -46 -95 -122q-94 -78 -144 -78q-75 0 -75 141v375q0 512 13 560 q9 36 71 108q61 70 76 109l-17 19h-475l-13 -19l13 -657q0 -310 -37 -461q-161 -175 -240 -175q-20 0 -20 20q0 9 20 41q11 18 16 29.5t7 16.5q13 63 9 214l-5 217q9 16 9 171v87q-2 15 0 195q5 143 -45 157l-5 14q0 22 116 138l-3 12q-15 0 -45.5 -2t-47.5 -2 q-111 0 -111 50z" />
<glyph unicode="&#x420;" horiz-adv-x="1111" d="M46 1343l2 19q32 32 54.5 55.5t38.5 35.5q59 45 111 61q20 -16 54 -32q33 -5 77 -8t99 -3q32 0 79.5 1t111.5 3q125 7 191 7q175 0 175 -168v-375v-51t-2 -74q-2 -41 -2 -71.5v-50.5q0 -85 -124 -183q-125 -99 -206 -99q-26 0 -74.5 3t-73.5 3q-77 0 -93 -14 q-22 -16 -23 -88q0 -63 21 -98l33 -21l8 -9q0 -41 -96 -116q-95 -76 -138 -74q-68 0 -69 149q0 80 1 200.5t3 279.5q2 161 3.5 282t1.5 200q-11 4 -27 15.5t-34 27.5q13 20 132 145l-21 15q-18 0 -53 -2.5t-54 -2.5q-106 0 -106 38zM443 1243l2 -720l12 -14l34.5 34.5 t49.5 44.5q13 0 35 -1t46 -2t45.5 -2t35.5 -1q106 0 106 47v592q0 93 -84 93h-163q-70 0 -115 -14q-2 -11 -3 -24.5t-1 -32.5z" />
<glyph unicode="&#x421;" horiz-adv-x="990" d="M48 741q0 33 13 125q13 91 9 116q18 64 43.5 135.5t57.5 151.5q93 232 133 234q22 2 55.5 3t78.5 1h230h51t72 -2t72 -2h51q34 -18 34 -41q-4 -13 -28 -59q-50 -50 -83 -78q-59 -47 -96 -47l-29 36q-39 20 -78 20h-125t-138 -2q-37 -37 -69 -145q-7 -23 -11.5 -43.5 t-6.5 -41.5v2q-9 -61 -12 -112t-3 -90q0 -290 113 -425q4 -50 95 -113t146 -64q67 0 168 43q103 43 131 43q33 0 33 -39q0 -38 -27 -45q-302 -302 -412 -302q-43 0 -123 50q-345 209 -345 691z" />
<glyph unicode="&#x422;" horiz-adv-x="1581" d="M57 1362q52 89 121 104q73 59 106 59q2 0 26 -18t31 -21q22 -2 84 0l91 8h200.5t281.5 -3l482 -5q50 -29 50 -65q0 -11 -57 -91q-57 -78 -57 -123q0 -137 -6 -411q-3 -137 -4 -239t-1 -171q0 -13 1 -32.5t1 -42t1.5 -42t1.5 -33.5q6 -4 16 -14.5t25 -21.5l6 -14v-8 q-34 -37 -106 -115q-73 -75 -123 -74l-46 11q-22 30 -23 75v405q0 67 8 202q6 136 6 205q0 78 -6 143l4 9q0 80 91 234v16q-13 11 -310 16l-15 -12q-20 -161 -21 -438q0 -519 6 -616l46 -25l10 -16q-13 -55 -98 -125q-84 -73 -132 -73q-70 0 -71 141q0 13 2.5 41.5t2.5 42.5 l-5 7v145q0 33 3.5 144t8.5 304q7 232 7 448q0 22 -19 35q-13 0 -33.5 1t-42.5 1t-42.5 1t-33.5 1q-63 0 -63 -19q0 -80 -1 -195.5t-4 -272.5q-2 -157 -3 -272t-1 -193q0 -167 -58 -239q-52 -65 -211 -128q-30 -2 -30 27q59 111 60 523v280v69t-3 93v117l-13 32l-41 25 q47 78 123 136q-5 16 -32 19q-16 2 -57 0l-41 -2q-93 0 -93 50z" />
<glyph unicode="&#x423;" horiz-adv-x="1122" d="M65 1300v8q50 52 79 81.5t38 37.5q84 74 143 74q22 0 37 -29t15 -56v-147t-2 -210l-2 -359q0 -218 180 -218q143 0 200 84q25 39 24 541v100q-7 43 -59 71l-11 15q18 39 107 121q91 80 130 80q75 0 75 -146l2 -443q2 -187 -6 -339t-24 -275q-134 -196 -236 -252 q-89 -48 -273 -48h-117.5t-125.5 2q-167 0 -164 64q9 17 35.5 40.5t69.5 52.5q78 50 130 69q9 -5 21 -15.5t31 -21.5h354q54 0 54 159q0 77 -22 77q-154 -93 -277 -93q-121 0 -226 66q-121 73 -120 188q0 30 7 57l-4 14q2 9 3 85t1 224v269l-9 22l-45 34z" />
<glyph unicode="&#x424;" horiz-adv-x="1465" d="M61 686v327q0 146 169 146q28 0 82 -3.5t115 -8t119.5 -7.5t91.5 -3l-9 -137q-41 13 -108 13h-157q-82 0 -82 -81v-516q0 -41 102 -41q28 0 79 2.5t78 2.5q27 -23 47.5 -40t31.5 -28l-6 -93q-16 11 -89 11q-11 0 -30.5 -1t-40 -1t-40 -1.5t-32.5 -1.5q-39 0 -92.5 25 t-103 61t-85.5 79.5t-36 80.5q0 13 -1 44t-1 64t-1 63.5t-1 43.5zM430 1369q6 17 29 43.5t51 51.5t57 44t49 26q57 -32 128 -31q52 0 80 3.5t35 3.5q91 0 91 -44q0 -6 -6.5 -19t-17 -27.5t-20.5 -30.5t-17 -25q-7 -15 -17.5 -39.5t-21.5 -55.5v-464v-94.5t-2 -55.5v-453 q9 -11 21.5 -26t28.5 -35q-2 -20 -24 -48t-53.5 -56t-67 -52t-61.5 -35q-53 0 -72 21.5t-19 101.5l4 9l11 944q0 9 -3.5 29.5t-10 44t-16 46.5t-22.5 34q18 32 52 63.5t80 75.5q0 15 -46 20l-197 -3q-22 9 -23 33zM825 1157q34 0 92.5 3.5t119.5 8t115.5 8t81.5 3.5 q169 0 169 -145v-328q0 -13 -1 -44t-1 -64t-1 -63.5t-1 -44.5q0 -37 -35.5 -79.5t-85.5 -79.5t-104.5 -62t-91.5 -25q-13 0 -32.5 1.5t-40 1.5t-40 1t-30.5 1q-73 0 -89 -11l-6 93q11 11 31.5 28t46.5 40q28 0 79 -2.5t79 -2.5q102 0 102 41v516q0 83 -82 83h-156 q-68 0 -109 -14z" />
<glyph unicode="&#x425;" horiz-adv-x="1172" d="M50 104q0 107 132 226q102 0 202 163q68 115 109 260q-32 102 -60 174.5t-53 120.5q-91 186 -191 234v9q63 139 191 205q65 0 145 -188q100 -237 111 -256l19 7q30 43 95 164q59 113 98 157q66 77 163 106q100 6 100 -85q0 -46 -52 -132q-50 -82 -98 -87l-47 20 q-44 -22 -120 -145q-80 -128 -80 -168q0 -37 141 -343q143 -300 158 -307q9 -3 24 -7t34 -9l9 -7q0 -58 -69 -136q-67 -80 -124 -80q-66 0 -175 269q-116 282 -141 299q-18 -11 -94 -166q-89 -184 -143 -265q-93 -144 -165 -139l-65 2q-54 43 -54 104z" />
<glyph unicode="&#x426;" horiz-adv-x="1172" d="M46 1275v7q158 219 229 219q85 0 85 -146q0 -163 -8 -491q-2 -164 -3.5 -285.5t-1.5 -203.5q0 -141 89 -171q105 0 210 52q121 66 120 162q0 80 -7 237q-2 80 -3 140t-1 99q0 11 2 47.5t7 99.5q4 50 4 84t-2 57l-11 52q-11 5 -27 16.5t-34 27.5q36 47 109 136 q75 91 141 91q77 0 77 -145q0 -87 -1 -217t-4 -304l-5 -520q0 -46 6 -81.5t24 -53.5q13 0 29.5 -2t36 -11.5t43 -27.5t50.5 -52l28.5 -28.5t14.5 -16.5q14 -28 22 -78t6 -125q-7 -254 -98 -250q-11 0 -37.5 12.5t-66.5 34.5q-109 44 -110 94q4 34 32 34q11 -2 35 -20.5 t33 -18.5q54 -2 62 201q2 32 -13 50t-17 24l-280 -4q-15 7 -25.5 16.5t-16 28t-10 53t-6.5 91.5q-37 -7 -109 -66q-87 -65 -115 -82q-91 -45 -197 -45q-234 0 -234 388v45.5t2 63.5t2 63.5v46.5q0 34 1 84t4 116q2 65 3 116t1 86q0 173 -16 229l-41 26z" />
<glyph unicode="&#x427;" horiz-adv-x="1172" d="M46 1275v7q158 219 229 219q85 0 85 -146q0 -163 -8 -491q-2 -164 -3.5 -285.5t-1.5 -203.5q0 -141 89 -171q105 0 210 52q121 66 120 162q0 80 -7 237q-2 80 -3 140t-1 99q0 11 2 47.5t7 99.5q4 50 4 84t-2 57l-11 52q-11 5 -27 16.5t-34 27.5q36 47 109 136 q75 91 141 91q77 0 77 -145q0 -87 -1 -217t-4 -304l-5 -520q0 -46 9.5 -63t48.5 -45q0 -68 -96 -138q-93 -73 -162 -73q-36 16 -50 84q-2 5 -8 105q-37 -7 -109 -66q-87 -65 -115 -82q-91 -45 -197 -45q-234 0 -234 388v45.5t2 63.5t2 63.5v46.5q0 34 1 84t4 116q2 65 3 116 t1 86q0 173 -16 229l-41 26z" />
<glyph unicode="&#x428;" horiz-adv-x="1811" d="M52 1275v7q159 219 230 219q84 0 84 -146q0 -163 -6 -491q-3 -164 -4.5 -285.5t-1.5 -203.5q0 -141 89 -171q104 0 210 52q121 66 120 162l6 -16v40t4 51q2 36 2 63.5v46.5q0 34 1 84t3 116q2 65 3.5 116t1.5 86q0 173 -17 229l-40 26l-10 15v7q159 219 230 219 q84 0 84 -146q0 -163 -6 -491q-3 -164 -4 -285.5t-1 -203.5q0 -141 89 -171q104 0 209 52q121 66 121 162q0 80 -8 237l-3.5 140t-1.5 99q0 11 2.5 47.5t7.5 99.5q5 50 5 84t-2 57l-13 52q-11 5 -27 16.5t-34 27.5q37 47 109 136q76 91 141 91q78 0 78 -145q0 -87 -1 -217 t-4 -304l-4 -520q0 -46 9 -63t47 -45q0 -68 -95 -138q-93 -73 -161 -73q-37 16 -51 84q-2 5 -9 105q-37 -7 -109 -66q-86 -65 -113 -82q-91 -45 -199 -45q-197 0 -228 277q-28 -43 -69 -86.5t-66 -63.5q-86 -65 -114 -82q-91 -45 -197 -45q-235 0 -235 388v45.5t3 63.5 q2 36 2 63.5v46.5q0 34 1 84t3 116q2 65 3.5 116t1.5 86q0 173 -16 229l-41 26z" />
<glyph unicode="&#x429;" horiz-adv-x="1979" d="M52 1282q159 219 230 219q84 0 84 -146q0 -45 -1 -123t-2 -172t-2 -195t-2.5 -195.5t-3 -171.5t-1.5 -123q0 -141 89 -171q57 0 116 16t107 45.5t77.5 68.5t29.5 84l6 -16q0 115 7.5 262t7.5 341q0 173 -17 229l-40 26l-10 22q159 219 230 219q84 0 84 -146 q0 -45 -1 -123t-2 -172t-2 -195t-2.5 -195.5t-2.5 -171.5t-1 -123q0 -141 89 -171q56 0 115 16t107 45.5t78 68.5t30 84q0 33 -3 99.5t-4 139t-3.5 138.5t-2.5 99q0 2 2.5 26t5 60t5 77t2.5 80q0 13 -1 23.5t-1 21.5l-13 52q-11 5 -27 16.5t-34 27.5q16 20 46 58.5 t63.5 76.5t71.5 65t69 27q78 0 78 -145q0 -87 -1 -217t-4 -304l-4 -520q0 -46 5.5 -81.5t23.5 -53.5q13 0 29 -2t35.5 -11.5t43.5 -27.5t52 -52q17 -18 27.5 -28.5t15.5 -16.5q13 -28 21 -78t5 -125q-6 -254 -97 -250q-11 0 -37 12.5t-68 34.5q-108 44 -108 94q4 34 31 34 q11 -2 35.5 -20.5t33.5 -18.5q54 -2 61 201q2 32 -13 50t-17 24l-279 -4q-15 7 -26 16.5t-16.5 28t-10.5 53t-7 91.5q-15 -3 -49 -25.5t-72 -48.5t-67 -49t-34 -25q-91 -45 -199 -45q-197 0 -228 277q-28 -43 -69 -87.5t-66 -62.5q-56 -45 -95 -70t-71.5 -38t-66 -16 t-78.5 -3q-235 0 -235 388q0 116 7 268.5t7 352.5q0 173 -16 229l-41 26z" />
<glyph unicode="&#x42a;" horiz-adv-x="1360" d="M54 1409.5v15.5q0 78 103 76l574 -12q9 0 27.5 16t28.5 16q32 -20 77 -68q45 -54 54 -93q2 -11 -11 -44q-11 -8 -84 -8q-18 0 -34 4t-34 4q-46 0 -46 -27v-268.5t3 -109.5q2 -20 17 -20q35 0 83.5 7t103 11.5t113 1t110.5 -21.5q15 -20 75 -71q46 -39 77 -102 q2 -32 7 -59.5t12 -51.5v-164v-42t-2 -56v-68q-9 -20 -10 -45q0 -232 -307 -232h-614q-30 0 -30 28q0 6 63 99q63 91 63 146v645q0 13 -1 37.5t-1 50.5t-1.5 50t-1.5 37l-6 20q-18 11 -44 39q26 68 120 143v17l13 4h-197q-34 0 -58.5 1t-33 -5.5t2 -29t45.5 -70.5l-30 -21 q-7 0 -23 12.5t-35.5 31.5t-41 39.5t-37.5 35.5l-86 81q-3 11 -3 20.5zM620 198l7 -16l11 -4q22 -5 62 -5h125l7 5q12 -3 31 -4t44 -1q95 0 125 57q25 45 25 143q0 232 -16 280q-41 130 -216 130h-84q-38 0 -38 -130q0 -14 1 -39.5t3 -52.5t3.5 -52t1.5 -38q0 -102 -14 -146 q-15 -52 -78 -127z" />
<glyph unicode="&#x42b;" horiz-adv-x="1545" d="M68 1341q17 43 80 95q63 57 106 71q63 -36 160 -30q39 3 59 4t25 1q91 0 90 -43q0 -7 -6.5 -19.5t-16.5 -27t-20.5 -31t-17.5 -25.5q-6 -15 -16 -39t-23 -56l5 -330q2 -20 19 -20q34 0 83 7t103.5 11.5t112 1t109.5 -21.5q16 -20 76 -71q45 -39 77 -102q3 -32 7 -59.5 t11 -51.5v-164v-42t-2 -56v-68q-9 -20 -9 -45q0 -232 -307 -232h-614q-30 0 -29 28q0 6 61 99q63 91 63 146v783q0 18 -13 46t-39 52q18 32 62 73q16 14 33 31t37 35q0 15 -45 21h-57l-141 -2q-22 9 -23 31zM402 198l8 -16l11 -4q22 -5 61 -5h125l7 5q11 -3 30.5 -4t44.5 -1 q96 0 125 57q25 45 25 143q0 232 -16 280q-42 130 -216 130h-84q-39 0 -39 -130q0 -14 1 -39.5t3.5 -52.5t3.5 -52t1 -38q0 -102 -13 -146q-16 -52 -78 -127zM1009 1325q18 44 80 96q63 56 106 70q64 -37 160 -29q39 2 59 3t25 1q91 0 91 -43q0 -7 -7 -19.5t-17 -27 t-20.5 -30.5t-16.5 -25q-7 -16 -17.5 -39.5t-21.5 -56.5v-395v-94t-3 -57v-70v-381q9 -12 22 -27t28 -35q-2 -43 -84 -112q-75 -58 -122 -80q-63 0 -80 35q-11 22 -11 89l4 9l11 943q0 39 -52 87q18 32 61 73q16 13 33 30.5t38 34.5q0 16 -45 20h-57l-141 -2q-22 9 -23 32z " />
<glyph unicode="&#x42c;" horiz-adv-x="1133" d="M68 1341q17 43 80 95q63 57 106 71q63 -36 160 -30q39 3 59 4t25 1q91 0 90 -43q0 -7 -6.5 -19.5t-16.5 -27t-20.5 -31t-17.5 -25.5q-6 -15 -16 -39t-23 -56l5 -330q2 -20 19 -20q34 0 83 7t103.5 11.5t112 1t109.5 -21.5q16 -20 76 -71q45 -39 77 -102q3 -32 7 -59.5 t11 -51.5v-164v-42t-2 -56v-68q-9 -20 -9 -45q0 -232 -307 -232h-614q-30 0 -29 28q0 6 61 99q63 91 63 146v783q0 18 -13 46t-39 52q18 32 62 73q16 14 33 31t37 35q0 15 -45 21h-57l-141 -2q-22 9 -23 31zM402 198l8 -16l11 -4q22 -5 61 -5h125l7 5q11 -3 30.5 -4t44.5 -1 q96 0 125 57q25 45 25 143q0 232 -16 280q-42 130 -216 130h-84q-39 0 -39 -130q0 -14 1 -39.5t3.5 -52.5t3.5 -52t1 -38q0 -102 -13 -146q-16 -52 -78 -127z" />
<glyph unicode="&#x42d;" horiz-adv-x="1067" d="M59 321q-5 39 45 39q5 0 105 -56q97 -54 134 -54h100q39 18 64 30.5t41 19.5q118 63 183 253q55 152 56 319l-10 26l-18 9q-25 4 -57 7.5t-70 1.5q-70 -2 -107 -4.5t-20 -2.5q-39 0 -62 -7l-9 -6l-13 -26l-11 -2q-61 28 -115 67q-75 54 -74 95q0 50 133 50q28 0 69 -2 t95 -7q55 -4 96 -7t68 -3q95 0 95 30q0 28 -24 113q-12 44 -23.5 71.5t-20.5 38.5q-32 5 -73.5 8t-94.5 3q-16 0 -44.5 2.5t-43.5 2.5q-91 0 -114 -68l-16 -12q-52 9 -143 80q-91 70 -91 116q0 59 91 59h193q32 0 77 -1t109 -3q64 -3 109.5 -4t77.5 -1q39 0 104 -127 q161 -312 161 -644q0 -252 -131 -482q-154 -273 -389 -273q-44 0 -222 153q-174 146 -210 198z" />
<glyph unicode="&#x42e;" horiz-adv-x="1848" d="M22 1325q7 18 30 44t51.5 51.5t57 44.5t48.5 26q56 -32 127 -31q52 0 80.5 3t36.5 3q90 0 90 -43q0 -7 -7 -19.5t-17 -27t-20.5 -30.5t-16.5 -25q-7 -16 -17 -39.5t-22 -56.5v-386l19 -9q6 0 22.5 11t34 22.5t36 22t27.5 10.5h209h7l20 67q37 121 150 323q-9 12 -33 17 q-16 2 -44 0q-15 -2 -24.5 -2.5t-14.5 -0.5q-82 0 -82 41q0 37 85 100q86 70 123 73q104 -39 284 -32l143 4q291 0 354 -384q5 -30 14.5 -102t24.5 -189q-30 -605 -375 -793q-20 -7 -51 -17t-74 -23h-38q-228 0 -366 211q-124 186 -124 423v61.5t5 57.5q-55 3 -117 3.5 t-129 0.5q-54 0 -86 -17q0 -11 -1 -21.5t-1 -17.5v-451q9 -12 21.5 -27t28.5 -35q-3 -19 -24.5 -47t-53 -56.5t-66.5 -52t-63 -36.5q-52 0 -71.5 22t-19.5 102l5 9l11 943q0 39 -52 87q17 32 51.5 63.5t80.5 74.5q0 16 -46 20l-197 -2q-23 9 -24 32zM432 709q0 -6 1 -4t1 7z M1002 830q0 -227 71 -396q96 -230 285 -230q125 0 184 141q45 110 45 249q0 211 -39 358q-11 28 -30 94l-50 82t-49 84q-68 93 -155 93h-125q-55 -25 -98 -218q-18 -85 -28.5 -148.5t-10.5 -108.5z" />
<glyph unicode="&#x42f;" horiz-adv-x="1143" d="M43 1223q0 250 367 250q25 0 61 -1t86 -3q50 -3 86 -4t62 -1q115 0 173 25q41 -9 113 -64q70 -52 96 -91q0 -50 -124 -50q12 0 -11.5 1t-81.5 4l-4 -11q115 -124 139 -169q-26 -26 -48 -36q-5 -32 -7 -67.5t-2 -75.5q0 -59 7 -171q6 -113 6 -171v-367q0 -13 -1 -38.5 t-1 -50.5t-1 -50t-1 -39q-39 -65 -63 -65q-50 0 -137 72q-82 73 -87 125l9 11l37 28l9 34v388q0 52 -31 64l-74 5l-88 20q-28 -26 -81 -248q-30 -123 -52 -194.5t-33 -93.5q-2 -18 -9 -48t-23 -68q-32 -86 -54 -103l-26 -4h-11q-89 65 -106 84q-53 48 -76 109l12 14 q46 16 64 55q38 86 67 227q37 184 55 231q15 50 25.5 83.5t17.5 50.5q-2 14 -74 74q-185 149 -185 329zM297 1137q0 -124 144 -221q132 -93 257 -93q26 0 25 134v51t-3 72q-2 41 -2 71.5v50.5q0 11 6.5 33.5t6.5 33.5q0 22 -204 22q-230 0 -230 -154z" />
<glyph unicode="&#x430;" horiz-adv-x="976" d="M70 254v162q11 105 45 150q53 68 306 175q223 96 223 155t-132 59q-167 0 -196 -9q-65 -18 -168 -98l-9 -2q-39 0 -39 36q0 55 106 148q109 96 165 96h304q189 0 189 -137v-133t-3 -190l-2 -325q0 -35 1 -65.5t4 -59.5l41 -30v-29l-5 -9q-152 -152 -206 -152 q-64 0 -60 167l-9 8q-32 -18 -81 -44.5t-114 -63.5q-118 -63 -202 -63q-157 0 -158 254zM300 314q0 -109 77 -110q55 0 141 37q96 37 118 78v221.5t2 148.5l-13 16q-46 0 -157 -71q-121 -78 -145 -122q-22 -44 -23 -198z" />
<glyph unicode="&#x431;" horiz-adv-x="1000" d="M128 171l11 1252q0 137 193 137h304q54 0 164 -96q107 -93 107 -148q0 -36 -39 -36l-9 2q-102 80 -167 98q-30 9 -197 9q-132 0 -133 -70v-41.5t-2 -47.5l-6 -50q-7 -11 -7 -39q0 -43 15 -59q18 11 43 26t59 33h282q80 0 129 -98q41 -80 41 -168v-166q0 -30 -34 -141 q-73 -232 -212 -382q-166 -179 -384 -179q-86 0 -123.5 36.5t-34.5 127.5zM347 259q0 -70 74 -70q95 0 165 132q66 115 69 213q0 34 9 71v180q0 65 -32 122q-39 65 -103 66h-158l-17 -18q-7 -39 -7 -73v-623z" />
<glyph unicode="&#x432;" horiz-adv-x="1000" d="M109 1275q6 28 17 68.5t41.5 79.5t88.5 67t165 31h293q161 0 161 -89q0 -43 -140 -148q-28 -20 -69 -47t-83 -55t-79.5 -54t-60.5 -46l327 5q82 0 135 -94q43 -73 43 -161v-157q0 -32 -37 -134q-70 -217 -217 -363q-176 -171 -401 -171q-180 0 -180 171v898v45t-2 22z M306 1391l4 -287q9 3 37 20t64 41t76 53.5t74.5 57t55.5 47.5t21 28q0 22 -21 36t-62 12zM357 248q0 -68 75 -68q97 0 173 124q68 111 70 205q0 25 11 66v171q0 32 -9 62.5t-24 55.5q-39 61 -107 62h-164l-18 -17q-7 -39 -7 -70v-591z" />
<glyph unicode="&#x433;" horiz-adv-x="777" d="M63 946q0 52 89 121q76 61 139 72l19 -9q9 -18 40 -50h10q45 52 83 52h175q150 0 150 -89q-15 -32 -82 -111q-63 -73 -95 -91h-5l-15 9q0 41 -7 72q-39 37 -139 37q-68 0 -89 -24q0 -337 -6 -707l9 -19l45 -27l9 -13q0 -35 -93 -104q-94 -65 -131 -65q-80 0 -80 145 q0 57 9 91q-3 16 -4 43t-1 66q0 85 7 226q4 95 6.5 150.5t2.5 74.5l-5 11q7 111 -41 139z" />
<glyph unicode="&#x434;" horiz-adv-x="1052" d="M46 -321l97 96q59 45 126 45h90.5t126.5 -2q73 -2 127.5 -2h91.5q52 0 52 89q0 2 -54 125q-26 61 -40.5 94t-18.5 37q-18 -18 -45.5 -43t-66.5 -57q-70 -63 -130 -63q-82 0 -213 113v17q-124 145 -124 375q0 314 269 608q9 30 82 30l9 -7h534l21 -27q-11 -23 -28 -55.5 t-38 -78.5q-18 -61 -18 -634q0 -66 30 -170q32 -109 31 -158q0 -89 -100 -227q-102 -146 -189 -146h-165h-89q-41 2 -72.5 2h-55.5h-213q-32 20 -27 39zM280 644q0 -317 186 -408h66q20 0 66 33q48 34 61 54q5 30 7 57t4 56q0 20 -1 50t-3 69t-2 67v46l4 7q0 182 80 257 q-41 16 -132 16h-264q-73 -91 -72 -304z" />
<glyph unicode="&#x435;" horiz-adv-x="888" d="M52 543q0 159 55 329q63 202 177 269l462 -2q41 0 70.5 -33t29.5 -74q0 -84 -234 -394q-232 -312 -232 -322q0 -43 82 -66q63 -20 117 -20q66 0 204 82q34 2 33 -32q0 -48 -168 -165q-168 -115 -223 -115q-154 0 -271 200q-102 173 -102 343zM239 768q0 -32 20 -143 q17 -102 12 -132q28 -52 50 -77q32 32 76 100q26 37 45.5 62t34.5 40q5 11 23 39.5t51 73.5q52 74 52 121q0 124 -156 124q-121 0 -156 -8q-52 -39 -52 -200z" />
<glyph unicode="&#x436;" horiz-adv-x="1520" d="M22 987q0 123 180 122h332q43 -30 75.5 -54.5t40.5 -28.5q3 47 3 70t-1.5 36.5t-2.5 25t-1 33.5q0 50 -45 89q2 39 186 177q11 3 22.5 3h23.5q34 -18 33 -53v5q-2 -63 -3 -129t-1 -140q0 -104 23 -104q15 9 102 68h332q180 0 180 -122q0 -66 -158 -206 q-154 -134 -159 -150q46 -115 74 -181t40 -84q80 -154 182 -207l9 -16q-18 -50 -82 -100q-65 -52 -114 -52q-65 0 -176 241t-130 241q-22 0 -71 -41q-48 -42 -48 -64v-166q9 -7 20.5 -19t25.5 -31q-12 -35 -94 -98q-80 -63 -117 -63l-33 7q-36 45 -36 86v295q0 11 -1 23 t-26 32q-48 41 -71 41q-18 0 -129 -241t-177 -241q-48 0 -115 52q-63 50 -81 100l9 16q102 52 182 207q11 18 39.5 84t74.5 182q-5 15 -159 151q-157 138 -158 204zM289 872q0 -32 156 -176q159 -145 199 -155l15 7l-2 348q0 43 -21 43h-254q-93 -1 -93 -67zM864 546l16 -8 q39 9 198 156q156 144 156 176q0 66 -93 67h-254q-20 0 -21 -43z" />
<glyph unicode="&#x437;" horiz-adv-x="954" d="M32 1102q0 14 31.5 22t79.5 13.5t104.5 7t106.5 1.5h36.5h31t41.5 1t71 1q45 0 77.5 1t56.5 2t42.5 1h42.5q65 0 86 -6q46 -18 46 -64q-33 -59 -232 -271q113 -34 191 -117q84 -91 84 -203q0 -33 -5 -72t-14 -94q-4 -18 -29 -68.5t-58 -103.5t-65 -95t-48 -45 q-15 -2 -59.5 -3t-101.5 -2t-117 -1h-110q-200 0 -200 56q0 28 36 57.5t79.5 53.5t77 36.5t29.5 5.5l11 -21l10 -6q22 -7 61 -7h32.5t73 1t88 2t79.5 1q14 20 21.5 34t12.5 29t6 31.5t1 42.5q0 121 -75 209q-78 91 -198 91q-61 0 -95 -14q-41 14 -48 59q18 44 128 152 l152 156q-22 2 -41 4t-37 3.5t-39.5 1.5h-53.5h-96q-39 0 -61 -7l-9 -8l-12 -22q-48 0 -165 75l-16 23q-41 30 -41 56z" />
<glyph unicode="&#x438;" horiz-adv-x="1024" d="M57 950q8 55 143 161q6 0 19 7.5t26.5 14t28.5 12t23 5.5q23 0 39 -24t16 -48q0 -59 -1 -150t-4 -214q-2 -123 -2 -212.5v-149.5q0 -134 117 -133q91 0 202 76q11 39 11 451q0 171 -68 202v15q161 183 245 183q64 0 64 -125v-153.5t-2 -214.5l-3 -371q0 -59 52 -104 q0 -41 -88 -113q-85 -69 -127 -69q-84 0 -75 125l-7 20l2 16l-13 6h-11q-250 -163 -375 -163q-96 0 -130 78q-22 47 -24 161l3 602q-3 18 -14 66q-9 7 -20 17.5t-27 25.5z" />
<glyph unicode="&#x439;" horiz-adv-x="1024" d="M57 950q8 55 143 161q6 0 19 7.5t26.5 14t28.5 12t23 5.5q23 0 39 -24t16 -48q0 -59 -1 -150t-4 -214q-2 -123 -2 -212.5v-149.5q0 -134 117 -133q91 0 202 76q11 39 11 451q0 171 -68 202v15q161 183 245 183q64 0 64 -125v-153.5t-2 -214.5l-3 -371q0 -59 52 -104 q0 -41 -88 -113q-85 -69 -127 -69q-84 0 -75 125l-7 20l2 16l-13 6h-11q-250 -163 -375 -163q-96 0 -130 78q-22 47 -24 161l3 602q-3 18 -14 66q-9 7 -20 17.5t-27 25.5zM256 1393q0 19 35 80q25 45 50 45q4 0 77 -58q70 -61 109 -61q32 0 109 63q78 61 95 61q42 0 42 -41 q0 -26 -68 -113q-111 -146 -200 -146q-73 0 -205 109q-44 37 -44 61z" />
<glyph unicode="&#x43a;" horiz-adv-x="981" d="M63 1284q2 39 187 178q11 2 22.5 2h22.5q35 -18 35 -52v4q-3 -63 -4 -129t-1 -139q0 -105 22 -105q16 9 104 68h332q178 1 178 -122q0 -65 -156 -204q-155 -135 -159 -151q46 -116 74 -182t39 -83q80 -155 182 -208l9 -16q-18 -50 -82 -99q-65 -53 -113 -53 q-66 0 -178 241q-111 241 -130 241q-22 0 -70 -41q-47 -41 -47 -63v-167q9 -6 20.5 -18.5t24.5 -31.5q-11 -34 -93 -97q-80 -64 -119 -64l-31 7q-37 46 -37 87v549q0 91 7 280q7 186 7 279q0 50 -46 89zM325 551l16 -8q39 9 197 155q158 144 158 177q0 65 -93 66h-256 q-20 0 -20 -43z" />
<glyph unicode="&#x43b;" horiz-adv-x="992" d="M46 286q0 437 290 716q59 55 137 91q45 20 105 30.5t97 10.5h89q104 0 130 -134q6 -39 6 -217q0 -37 -9 -54v-77t-2 -104q-2 -58 -2 -104.5v-77.5q0 -121 13 -147q37 -18 46 -39q-2 -39 -96 -112q-77 -59 -134 -77q-28 5 -43 25l-31 41q-3 2 -1.5 21.5t2.5 41t3 38.5 t2 15q20 48 20 666q0 50 -25 90.5t-72 40.5q-9 0 -25.5 -1t-33.5 -3.5t-32.5 -5.5t-24.5 -8q-175 -188 -175 -499q0 -189 54 -239q13 -13 21.5 -19t23 -9.5t39.5 -3.5h73q27 7 30.5 -20.5t-8.5 -63t-36 -66t-54 -32.5q-111 -7 -184 5.5t-116 48t-60 93t-17 139.5z" />
<glyph unicode="&#x43c;" horiz-adv-x="1545" d="M37 293q0 436 290 716q59 54 137 91q45 20 102 30.5t93 10.5h82t53.5 -6.5t36.5 -22.5t28 -45q13 -30 27 -49.5t23 -28.5h9q182 152 355 152q46 0 77.5 -15t51 -50t27 -94.5t7.5 -146.5v-510q0 -61 13 -106q41 -26 40 -39q0 -57 -148 -160q-73 -30 -74 -29l-24 9l-29 52 l-4 162q0 57 -1.5 139.5t-1.5 194.5l-3 337q0 75 -74 74q-28 0 -65 -12t-72.5 -30.5t-64 -41.5t-37.5 -45v-111.5v-115v-102v-74.5v-179q0 -28 20 -48q14 -16 23.5 -23.5t11.5 -13.5q0 -41 -48 -56q-100 -111 -182 -111q-57 0 -57 113q0 41 1.5 103.5t3.5 147.5q2 41 2 117 v153v141v84q0 50 -28.5 86.5t-75.5 36.5q-9 0 -25 -1t-33.5 -4t-33 -6.5t-25.5 -7.5q-175 -189 -174 -499q0 -189 54 -239q14 -13 21.5 -19.5t22.5 -9.5t40 -3h73q27 6 30.5 -21t-9 -62.5t-36.5 -66t-53 -32.5q-111 -7 -184 6t-116.5 47.5t-60 92.5t-16.5 140z" />
<glyph unicode="&#x43d;" horiz-adv-x="1022" d="M61 959q26 54 100 123q78 76 128 75l32 -11q22 -28 31 -50l19 -137q-18 -37 -24 -311q23 9 49.5 21.5t39.5 12.5h198h27t35 -3v260q-18 11 -41 37q13 43 91 106q80 66 122 66q73 0 73 -91q0 -105 -6 -311q-3 -104 -4 -182t-1 -130v-172q0 -26 22 -46q16 -15 25.5 -23.5 t11.5 -12.5q0 -39 -50 -55q-107 -106 -193 -107q-61 0 -62 110q0 38 1 99.5t4 141.5q3 125 7 204q-59 0 -141 1t-169 1q-11 0 -20 -1t-19 -1v-59q0 -295 17 -321l41 -15l7 -12q-2 -38 -89 -105q-87 -61 -128 -61q-77 0 -77 98q0 34 1.5 85t3.5 117q7 132 7 203v338 q0 55 -12 73q-3 6 -57 45zM293 557q0 -4 1 -3t1 5z" />
<glyph unicode="&#x43e;" horiz-adv-x="944" d="M57 441v164q0 28 80 280q47 54 47 67q0 23 -54 24q-30 -5 -51.5 -5.5t-21.5 29.5q0 26 64 87q63 63 90 63h323q100 0 164 -52q30 -32 57.5 -65t55.5 -65q61 -183 61 -374q-6 -11 -6 -56q0 -156 -129 -343q-141 -202 -284 -202q-137 0 -267 155q-129 152 -129 293z M250 673q0 -144 60 -276q75 -163 202 -163q184 0 184 284q0 89 -48 223q-59 161 -121 177l-52 45q-22 3 -56.5 6.5t-79.5 10.5q-39 -25 -66 -141q-22 -93 -23 -166z" />
<glyph unicode="&#x43f;" horiz-adv-x="1022" d="M61 959q26 54 100 123q78 76 128 75l32 -11q22 -28 31 -50l17 -12q8 3 24.5 10.5t38.5 19.5q36 20 73 20h45t66 3q39 2 68.5 3t46.5 1q130 0 167 -84q20 -48 20 -209q0 -123 -2 -270.5t-7 -325.5v2q7 -65 46 -65l13 -18q-2 -37 -93 -108q-91 -70 -129 -70q-61 0 -62 77 v828q0 65 -193 65q-9 0 -38.5 -1t-81.5 -3q-22 -43 -24 -445q0 -295 17 -321l41 -15l7 -12q-2 -38 -89 -105q-87 -61 -128 -61q-77 0 -77 98q0 34 1.5 85t3.5 117q7 132 7 203v338q0 55 -12 73q-3 6 -57 45z" />
<glyph unicode="&#x440;" horiz-adv-x="1024" d="M57 959q13 16 34 62q132 132 180 131q30 0 48 -26q25 -42 31 -46q63 22 105 57h38.5t54.5 2q33 2 56 2h40h93q175 0 174 -330q0 -30 -13 -240v2q9 -28 9 -182q0 -182 -50 -273q-68 -118 -237 -118q-38 0 -122 32q-80 35 -121 33q-36 0 -36 -106q0 -89 19 -111 q43 -22 42 -34q0 -44 -90 -107q-93 -66 -134 -67l-30 10q-30 39 -30 566q-5 14 -5 36q0 41 1 102.5t4 143.5q2 85 3.5 146t1.5 102q0 13 -2.5 33.5t-4 43.5t-3.5 43.5t-2 33.5l-9 14q-9 4 -18 11t-19 16zM339 594v2q13 -54 13 -153q0 -73 -7 -163q14 -41 69 -71 q57 -33 98 -31q52 0 117 38q48 64 48 350v68.5t-2 83.5l-2 114q0 141 -130 141h-179l-23 -14l-2 -95q-5 -169 0 -270z" />
<glyph unicode="&#x441;" horiz-adv-x="799" d="M50 575q0 9 2 28.5t4.5 40t3.5 40t1 32.5q4 13 12.5 42t17.5 72q13 68 75 172q64 118 116 139q22 2 67.5 3.5t114.5 1.5h122q159 0 160 -57q0 -37 -73 -91q-74 -52 -114 -61q-34 50 -108 50q-14 0 -34 -1t-42.5 -1t-41.5 -1.5t-33 -1.5q-5 -11 -12.5 -26t-18.5 -38 l-15 -200q-9 -159 71 -318q89 -171 252 -170q37 0 146 50q34 2 34 -24q0 -47 -139 -152q-134 -104 -186 -104q-176 0 -287 211q-95 177 -95 364z" />
<glyph unicode="&#x442;" horiz-adv-x="1516" d="M65 959q3 41 96 110q91 65 139 70l27 -13q9 -12 16 -27t17 -32l11 -15q6 2 76 48q53 32 76 32h145.5t203.5 -2l349 -2q89 0 120 -19q32 -18 71 -98l-9 -779q0 -9 20 -30q13 -16 20.5 -22.5t9.5 -8.5q0 -46 -87 -112q-86 -66 -134 -66q-28 0 -43.5 26.5t-15.5 53.5v127 t2 177q3 103 4 177.5t1 127.5q0 22 2 70t2 71q0 77 -41 109q-30 23 -117 23q2 0 -15.5 0t-49.5 2q-125 2 -124 -20v-616q0 -39 3.5 -67.5t7.5 -51.5l41 -24q-4 -48 -91 -117q-91 -65 -141 -65q-52 0 -52 173q0 17 1 44.5t3 66.5q7 75 7 111q0 43 -2 82t-7 70q5 13 5 321 q0 93 -128 93q-104 0 -124 -9q-9 -28 -10 -360v-340l4 -34l32 -23l5 -9q0 -39 -87 -112q-84 -70 -126 -70q-59 0 -60 80l-5 673q0 15 4 48.5t4 48.5q0 70 -46 91z" />
<glyph unicode="&#x443;" horiz-adv-x="1040" d="M57 -330q0 50 86 116q76 54 137 66l20 -9q9 -29 77 -29h219q80 0 98 45q4 18 4 115l7 10q-2 18 -3.5 48.5t1.5 74.5l-17 11q-161 -118 -324 -118q-46 0 -78 5.5t-57 21.5t-45.5 42t-40.5 68q-9 163 -7 390l9 391l-11 17q-22 11 -52 41q18 47 91 104q78 59 122 59 q73 0 73 -161q0 -32 -6 -96q-3 -32 -4.5 -54.5t-1.5 -38.5q0 -86 17 -121q-14 -61 -14 -145v-146v-44t3 -36v-11v3q6 -118 126 -118q48 0 130 31q89 34 89 78v67.5t2 95.5q2 57 2 98v68v257q0 43 -11 73l-43 20l-7 11q137 163 232 164q61 0 61 -136q0 -161 -6 -477 q-3 -159 -4 -277.5t-1 -197.5q-4 -39 -21 -114q-22 -67 -111 -164q-86 -93 -160 -132h-523q-58 0 -58 34z" />
<glyph unicode="&#x444;" horiz-adv-x="1583" d="M28 507q0 314 267 610q9 30 82 29l9 -7l298 -5v55.5t1 32.5t4 22t9 27q26 61 120 172q18 18 36 36.5t42 34.5q15 -2 67 4q50 -6 96 -4l98 4q54 0 55 -41q0 -43 -55 -99q-50 -57 -94 -57q-25 32 -135 32l-14 -17q-3 -20 -3 -46t1.5 -54.5t2.5 -55t1 -46.5q125 7 198 9.5 t110.5 0t48.5 -8t13 -12.5q269 -295 269 -609q0 -230 -123 -375v-16q-134 -113 -213 -114q-59 0 -130 64q-20 16 -48 42t-55 52t-49.5 49t-31.5 32v-323q0 -57 -75 -155q-73 -100 -125 -100q-32 0 -32 37l4 534q-9 -9 -31.5 -32t-50 -49t-54.5 -52t-48 -43q-70 -63 -129 -63 q-80 0 -214 113v17q-123 146 -122 375zM241 648q0 -316 186 -407h66q20 0 66 32q26 18 54.5 30.5t34.5 23.5q5 30 7 57.5t4 56.5q0 20 -1 50t-3 68q-2 39 -2 67.5v46.5l4 6q0 91 -2 155t37 103q-20 9 -44.5 12t-70.5 3h-263q-73 -93 -73 -304zM891 944q39 -39 37 -103 t-2 -155l4 -7v-45.5t-2 -67.5t-4 -68.5t-2 -50.5q3 -30 5.5 -56.5t7.5 -56.5q6 -11 34.5 -24t53.5 -30q46 -32 66 -32h65q187 91 187 407q0 211 -72 304h-264q-46 0 -70 -3.5t-44 -11.5z" />
<glyph unicode="&#x445;" horiz-adv-x="947" d="M59 914q0 45 62 125q61 78 109 78q43 0 117 -132q83 -141 94 -148q11 2 84 81q73 80 134 128q91 70 161 71q71 0 71 -76q0 -65 -56 -136q-55 -68 -119 -82l-52 25q-20 -7 -44 -19.5t-46.5 -29t-40 -36t-24.5 -38.5q64 -111 135.5 -232.5t151.5 -253.5q2 -3 20.5 -13 t51.5 -33l4 -15q0 -48 -56 -121q-59 -76 -100 -75l-24 2q-28 16 -146 227q-128 223 -166 269q-41 -3 -74 -116q-34 -134 -44 -145q-4 -39 -8 -68.5t-4 -55.5q0 -54 21 -82q4 -6 59 -61v-6q0 -74 -37 -162q-45 -109 -104 -109q-52 0 -86.5 38.5t-34.5 91.5v179q0 133 116 382 l113 243q0 20 -179 289h-50l-7 9z" />
<glyph unicode="&#x446;" horiz-adv-x="1211" d="M57 950q8 55 143 161q6 0 19 7.5t26.5 14t28.5 12t23 5.5q23 0 39 -24t16 -48q0 -59 -1 -150t-4 -214q-2 -123 -2 -212.5v-149.5q0 -134 117 -133q91 0 202 76q11 39 11 451q0 171 -68 202v15q161 183 245 183q64 0 64 -125q0 -61 1 -153.5t-3 -214.5l-14 -369v-4 q0 -41 4.5 -71.5t23.5 -49.5q45 -26 99.5 -51.5t100.5 -70.5q20 -20 24.5 -58t1.5 -104q-6 -228 -95 -222q-18 0 -104 43q-107 36 -107 81q4 32 32 32q11 -2 34 -19.5t32 -17.5q27 0 41.5 34.5t19.5 125.5q2 30 -12.5 45.5t-16.5 22.5l-275 -4q-16 6 -26.5 14t-16 25 t-10 47.5t-6.5 80.5q-250 -163 -375 -163q-96 0 -130 78q-22 47 -24 161l3 602q-3 18 -14 66q-9 7 -20 17.5t-27 25.5z" />
<glyph unicode="&#x447;" horiz-adv-x="1024" d="M57 950q8 55 143 161q6 0 19 7.5t26.5 14t28.5 12t23 5.5q23 0 39 -24t16 -48q0 -59 -1 -150t-4 -214q-2 -123 -2 -212.5v-149.5q0 -134 117 -133q91 0 202 76q11 39 11 451q0 171 -68 202v15q161 183 245 183q64 0 64 -125v-153.5t-2 -214.5l-3 -371q0 -59 52 -104 q0 -41 -88 -113q-85 -69 -127 -69q-84 0 -75 125l-7 20l2 16l-13 6h-11q-250 -163 -375 -163q-96 0 -130 78q-22 47 -24 161l3 602q-3 18 -14 66q-9 7 -20 17.5t-27 25.5z" />
<glyph unicode="&#x448;" horiz-adv-x="1545" d="M57 950q8 55 143 161q6 0 19 7.5t26.5 14t28.5 12t23 5.5q23 0 39 -24t16 -48q0 -59 -1 -150t-4 -214q-2 -123 -2 -212.5v-149.5q0 -134 117 -133q45 0 87 18.5t99 57.5l5 412q0 87 -16.5 156t-50.5 85v15q161 183 246 183q64 0 64 -125q0 -32 -1 -60.5t-2.5 -62.5 t-2.5 -78.5t-1 -105.5q-2 -123 -2 -212.5v-149.5q0 -134 115 -133q87 0 198 76q11 39 12 451q0 171 -69 202v15q161 183 246 183q63 0 64 -125v-153.5t-2 -214.5l-2 -371q0 -59 52 -104q0 -41 -89 -113q-84 -69 -128 -69q-84 0 -74 125l-8 20l-2 25q-126 -82 -227 -124 t-164 -42q-84 0 -118 41t-47 122q-250 -163 -375 -163q-96 0 -130 78q-22 47 -24 161l3 468v134q-3 18 -14 66q-9 7 -20 17.5t-27 25.5z" />
<glyph unicode="&#x449;" horiz-adv-x="1770" d="M57 950q8 55 143 161q6 0 19 7.5t26.5 14t28.5 12t23 5.5q23 0 39 -24t16 -48q0 -59 -1 -150t-4 -214q-2 -123 -2 -212.5v-149.5q0 -134 117 -133q45 0 87 18.5t99 57.5l5 412q0 87 -16.5 156t-50.5 85v15q161 183 246 183q64 0 64 -125q0 -32 -1 -60.5t-2.5 -62.5 t-2.5 -78.5t-1 -105.5q-2 -123 -2 -212.5v-149.5q0 -134 115 -133q87 0 198 76q11 39 12 451q0 171 -69 202v15q161 183 246 183q63 0 64 -125q0 -61 -1 -153.5t-1 -214.5l-2 -380q0 -59 8.5 -77t26.5 -35q46 -26 100.5 -51.5t100.5 -70.5q20 -20 24.5 -58t2.5 -104 q-7 -228 -96 -222q-18 0 -104 43q-107 37 -107 81q5 32 31 32q11 -2 34.5 -19t32.5 -17q28 0 42.5 34t18.5 126q2 29 -13 45t-17 22l-274 -4q-16 6 -26.5 14t-16 25t-10.5 47.5t-7 81.5q-126 -82 -227 -124t-164 -42q-84 0 -118 41t-47 122q-250 -163 -375 -163 q-96 0 -130 78q-22 47 -24 161l3 468v134q-3 18 -14 66q-9 7 -20 17.5t-27 25.5z" />
<glyph unicode="&#x44a;" horiz-adv-x="1141" d="M22 1078q0 59 85 54l484 -6q8 0 23 11t22 11q26 -14 67 -50q34 -37 47 -68q0 -15 -11 -32q-6 -7 -71 -7q-18 0 -28.5 3.5t-27.5 3.5q-39 0 -39 -20v-201.5t2 -80.5q4 -16 13 -17q30 0 71 5t88 8.5t94.5 2.5t90.5 -16q9 -11 23.5 -23t40.5 -31q41 -32 65 -74 q2 -26 5 -46.5t12 -38.5v-121v-29.5t-2 -42.5v-50q-7 -9 -8 -17t-1 -20q0 -166 -260 -166h-512q-27 0 -26 21q0 2 52 68q54 73 54 112v479q0 20 -2 63.5t-2 63.5l-5 17q-9 4 -17 10.5t-22 17.5q26 48 103 108v11l11 5h-168q-28 0 -48.5 1t-27 -5.5t1 -24t37.5 -53.5l-25 -12 q-5 0 -17 10t-29 24t-35.5 29t-31.5 26l-72 61q-3 11 -4 26zM498 163l7 -11l9 -4q9 -3 50 -3h106l5 3q11 -3 26 -3h38q39 0 67.5 10.5t39.5 30.5q6 18 13 45.5t7 63.5q0 169 -14 208q-34 95 -182 95h-72q-32 0 -32 -95q0 -22 4.5 -67t4.5 -67q0 -70 -11 -110q-7 -18 -24 -43 t-42 -53z" />
<glyph unicode="&#x44b;" horiz-adv-x="1420" d="M46 1021q0 -18 19 -25l128 2h50q41 -5 41 -16q-18 -15 -33 -28t-30 -24q-37 -30 -55 -58q26 -17 37 -37.5t11 -36.5l-5 -607q0 -43 -55 -113q-27 -35 -40.5 -39.5t-13.5 -8.5q0 -20 25 -21h530q132 0 197.5 30.5t65.5 119.5q0 15 8 34v52q2 26 2 43.5v32.5v122 q-4 20 -9 41t-8 45q-25 48 -65 80q-52 35 -63 53q-46 13 -96.5 15t-97 -1t-88 -7.5t-71.5 -4.5q-16 0 -16 15l11 265q22 52 35 72q11 15 32.5 41.5t21.5 38.5q0 34 -82 34q-5 0 -23 -1t-52 -3q-82 -7 -143 22q-36 -9 -96 -55q-33 -20 -48.5 -38t-23.5 -34zM334 134 q50 52 68 98q6 16 9 44t3 67q0 22 -3.5 68t-3.5 71q0 100 31 100h74q147 0 186 -100q5 -20 8 -73.5t3 -142.5q0 -77 -20 -107q-27 -46 -107 -46q-23 0 -39 1t-27 4l-4 -5h-107q-20 0 -32.5 1t-20.5 4l-11 5zM1026 996q13 43 91 106q80 66 122 67q73 0 73 -91v-69t-1 -90 t-2 -102t-4 -105q-2 -105 -3.5 -182t-1.5 -130v-172q0 -26 23 -46q16 -16 25.5 -24t11.5 -13q0 -38 -50 -54q-107 -107 -193 -107q-61 0 -63 109q0 39 1.5 100t3.5 141q7 159 8 241v384q-18 11 -41 37z" />
<glyph unicode="&#x44c;" horiz-adv-x="1040" d="M46 1021q8 16 24.5 34t47.5 38q58 46 96 55q61 -30 143 -22l52.5 3t22.5 1q82 0 82 -34q0 -12 -21.5 -38t-32.5 -42q-12 -20 -35 -72l-2 -265q0 -15 15 -15q30 0 71.5 4.5t87 7.5t93 1t93.5 -15q11 -18 63 -53q41 -32 65 -80q3 -25 7 -45t10 -41v-122v-32t-2 -44v-52 q-7 -18 -8 -34q0 -89 -65.5 -120.5t-197.5 -31.5h-530q-25 0 -25 21q0 4 14 9.5t40 40.5q55 70 55 113l5 607q0 16 -11.5 36.5t-36.5 37.5q18 28 55 58q15 11 30 23.5t33 28.5q0 11 -41 16h-50l-128 -2q-19 6 -19 25zM334 134l7 -11l11 -5q7 -3 19.5 -4t33.5 -1h107l4 5 q11 -3 27 -4t39 -1q80 0 107 46q20 30 20 107q0 89 -3 142.5t-8 73.5q-39 100 -186 100h-74q-32 0 -31 -100q0 -26 3.5 -71t3.5 -68q0 -39 -2 -67t-10 -44q-18 -46 -68 -98z" />
<glyph unicode="&#x44d;" horiz-adv-x="799" d="M48 256q0 26 34 24q109 -50 146 -50q163 0 252 170q54 108 68 218q-17 2 -36 3.5t-44 -1.5q-45 0 -71 -2t-22 -2q-11 0 -19.5 1t-14.5 -3l-35 -16q-22 9 -40 15.5t-36 20.5q-52 39 -52 66q0 37 95 37q37 0 115 -8q78 -6 117 -6h24.5t21.5 2l-15 193q-11 22 -19 37t-12 27 q-13 0 -32.5 1.5t-42.5 1.5t-42 1t-34 1q-75 0 -109 -50q-41 9 -113 61q-73 54 -73 91q0 57 160 57h122q67 0 113.5 -1.5t68.5 -3.5q52 -20 115 -139q61 -104 76 -172q9 -43 17 -72t13 -42q0 -13 1 -32.5t3 -40t4.5 -40t2.5 -28.5q0 -187 -96 -364q-113 -211 -286 -211 q-52 0 -187 104q-138 105 -138 152z" />
<glyph unicode="&#x44e;" horiz-adv-x="1451" d="M61 959q26 54 100 123q78 76 128 75l32 -11q22 -28 31 -50l19 -137q-18 -37 -24 -311q23 9 49.5 21.5t39.5 12.5h196q8 32 21 72t29 90q47 54 47 67q0 23 -54 24q-30 -5 -51 -5t-21 29q0 26 63 87q63 63 91 63h323q100 0 163 -52q30 -32 57.5 -65t57.5 -64 q61 -184 61 -375q-7 -11 -7 -55q0 -156 -130 -344q-141 -202 -284 -202q-137 0 -267 155q-129 152 -128 293v164v9q-50 2 -105 2h-112q-11 0 -20 -1t-19 -1v-59q0 -295 17 -321l41 -15l7 -12q-2 -38 -89 -105q-87 -61 -128 -61q-77 0 -77 98q0 34 1.5 85t3.5 117 q7 132 7 203v338q0 55 -12 73q-3 6 -57 45zM293 557q0 -4 1 -3t1 5zM796 632q0 -144 59 -275q75 -163 202 -164q184 0 184 284q0 89 -48 223q-59 161 -120 178l-52 44q-22 3 -56.5 6.5t-79.5 10.5q-39 -25 -67 -141q-22 -93 -22 -166z" />
<glyph unicode="&#x44f;" horiz-adv-x="1040" d="M70 944q0 190 318 190q23 0 54 -1t74 -3q43 0 73.5 -1t54.5 -1q100 0 150 18q17 -5 42 -17t58 -31q58 -44 82 -70q0 -39 -108 -39q9 0 -11 1t-68 3l-4 -8q104 -98 120 -130q-26 -20 -41 -28q-9 -43 -9 -109q0 -43 6 -132q3 -43 4 -74.5t1 -54.5v-282q0 -22 -1 -68t-1 -68 q-35 -50 -57 -50q-43 0 -118 54q-73 57 -75 96l9 9l32 21l7 26v298q0 41 -28 48l-63 5l-78 16q-22 -20 -70 -191q-52 -185 -73 -221q-3 -13 -8.5 -35t-18.5 -54q-30 -68 -48 -77l-21 -4h-11q-39 26 -61.5 42.5t-29.5 20.5q-48 39 -65 85l8 11q39 13 57 41q32 68 59 174 q15 70 27 115t18 63q14 39 23.5 63.5t15.5 38.5q-2 11 -65 58q-160 111 -160 252zM291 878q0 -95 125 -171q116 -70 222 -71q20 0 21 103v38.5t-2 54.5v96q0 9 5.5 24.5t5.5 25.5q0 18 -177 18q-200 0 -200 -118z" />
<glyph unicode="&#x451;" horiz-adv-x="888" d="M52 543q0 159 55 329q63 202 177 269l462 -2q41 0 70.5 -33t29.5 -74q0 -84 -234 -394q-232 -312 -232 -322q0 -43 82 -66q63 -20 117 -20q66 0 204 82q34 2 33 -32q0 -48 -168 -165q-168 -115 -223 -115q-154 0 -271 200q-102 173 -102 343zM239 768q0 -32 20 -143 q17 -102 12 -132q28 -52 50 -77q32 32 76 100q26 37 45.5 62t34.5 40q5 11 23 39.5t51 73.5q52 74 52 121q0 124 -156 124q-121 0 -156 -8q-52 -39 -52 -200zM254 1267q0 210 164 210q89 2 89 -78q0 -76 -71 -126q-70 -50 -147 -50q-26 0 -30.5 8t-4.5 36zM546 1267 q0 210 163 210q89 2 89 -78q0 -76 -71 -126q-70 -50 -148 -50q-25 0 -29 8t-4 36z" />
<glyph unicode="&#x454;" horiz-adv-x="799" d="M46 575q0 9 2 28.5t4 40t3.5 40t1.5 32.5q4 13 12.5 42t17.5 72q13 68 74 172q63 118 117 139q22 2 67.5 3.5t114.5 1.5h122q158 0 159 -57q0 -37 -73 -91q-73 -52 -113 -61q-34 50 -110 50q-13 0 -32.5 -1t-42.5 -1t-41.5 -1.5t-33.5 -1.5q-4 -11 -12 -26t-19 -38 l-14 -193q9 -2 20.5 -2h24.5q37 0 117 6q78 7 115 8q96 0 96 -37q0 -27 -52 -66q-18 -14 -36.5 -20.5t-41.5 -15.5l-33 16q-7 4 -15.5 3t-19.5 -1q5 0 -21.5 2t-71.5 2q-26 3 -43.5 1.5t-36.5 -3.5q13 -109 69 -218q89 -171 252 -170q36 0 145 50q35 2 35 -24 q0 -47 -139 -152q-134 -104 -187 -104q-175 0 -286 211q-95 177 -95 364z" />
<glyph unicode="&#x456;" horiz-adv-x="449" d="M46 957q13 43 91 106q79 66 122 67q73 0 73 -91q0 -104 -7 -312q-2 -104 -3 -181.5t-1 -129.5v-173q0 -25 22 -45q16 -16 25 -24.5t12 -12.5q0 -39 -50 -54q-107 -107 -193 -107q-62 0 -62 109q0 39 1.5 100.5t3.5 140.5q7 158 7 241v329q-18 11 -41 37zM65 1150 q0 102 78 214q82 123 180 122q89 1 89 -81q0 -73 -82 -123q-74 -45 -150 -48q-22 -11 -52 -54t-41 -50q-20 -4 -22 20z" />
<glyph unicode="&#x457;" horiz-adv-x="449" d="M-30 1267q0 210 164 210q89 2 89 -78q0 -76 -71 -126q-70 -50 -148 -50q-25 0 -29.5 8t-4.5 36zM46 957q13 43 91 106q79 66 122 67q73 0 73 -91q0 -104 -7 -312q-2 -104 -3 -181.5t-1 -129.5v-173q0 -25 22 -45q16 -16 25 -24.5t12 -12.5q0 -39 -50 -54 q-107 -107 -193 -107q-62 0 -62 109q0 39 1.5 100.5t3.5 140.5q7 158 7 241v329q-18 11 -41 37zM262 1267q0 210 163 210q89 2 89 -78q0 -76 -71 -126q-70 -50 -148 -50q-25 0 -29 8t-4 36z" />
<glyph unicode="&#x45e;" horiz-adv-x="1040" d="M57 -330q0 50 86 116q76 54 137 66l20 -9q9 -29 77 -29h219q80 0 98 45q4 18 4 115l7 10q-2 18 -3.5 48.5t1.5 74.5l-17 11q-161 -118 -324 -118q-46 0 -78 5.5t-57 21.5t-45.5 42t-40.5 68q-9 163 -7 390l9 391l-11 17q-22 11 -52 41q18 47 91 104q78 59 122 59 q73 0 73 -161q0 -32 -6 -96q-3 -32 -4.5 -54.5t-1.5 -38.5q0 -86 17 -121q-14 -61 -14 -145v-146v-44t3 -36v-11v3q6 -118 126 -118q48 0 130 31q89 34 89 78v67.5t2 95.5q2 57 2 98v68v257q0 43 -11 73l-43 20l-7 11q137 163 232 164q61 0 61 -136q0 -161 -6 -477 q-3 -159 -4 -277.5t-1 -197.5q-4 -39 -21 -114q-22 -67 -111 -164q-86 -93 -160 -132h-523q-58 0 -58 34zM256 1393q0 19 35 80q25 45 50 45q4 0 77 -58q70 -61 109 -61q32 0 109 63q78 61 95 61q42 0 42 -41q0 -26 -68 -113q-111 -146 -200 -146q-73 0 -205 109 q-44 37 -44 61z" />
<glyph unicode="&#x2000;" horiz-adv-x="1003" />
<glyph unicode="&#x2001;" horiz-adv-x="2007" />
<glyph unicode="&#x2002;" horiz-adv-x="1003" />
<glyph unicode="&#x2003;" horiz-adv-x="2007" />
<glyph unicode="&#x2004;" horiz-adv-x="669" />
<glyph unicode="&#x2005;" horiz-adv-x="501" />
<glyph unicode="&#x2006;" horiz-adv-x="334" />
<glyph unicode="&#x2007;" horiz-adv-x="334" />
<glyph unicode="&#x2008;" horiz-adv-x="250" />
<glyph unicode="&#x2009;" horiz-adv-x="401" />
<glyph unicode="&#x200a;" horiz-adv-x="111" />
<glyph unicode="&#x2010;" horiz-adv-x="477" d="M-20 488q0 14 31 71q35 57 49.5 67t34.5 10q33 0 94 -13q63 -14 95 -14q98 0 154 44q18 11 28 11q32 0 32 -32q-1 -12 -12 -27q-15 -22 -48 -93q-20 -44 -81 -39l-246 15q-30 3 -62.5 -12.5t-39.5 -15.5q-30 0 -29 28z" />
<glyph unicode="&#x2011;" horiz-adv-x="477" d="M-20 488q0 14 31 71q35 57 49.5 67t34.5 10q33 0 94 -13q63 -14 95 -14q98 0 154 44q18 11 28 11q32 0 32 -32q-1 -12 -12 -27q-15 -22 -48 -93q-20 -44 -81 -39l-246 15q-30 3 -62.5 -12.5t-39.5 -15.5q-30 0 -29 28z" />
<glyph unicode="&#x2012;" horiz-adv-x="477" d="M-20 488q0 14 31 71q35 57 49.5 67t34.5 10q33 0 94 -13q63 -14 95 -14q98 0 154 44q18 11 28 11q32 0 32 -32q-1 -12 -12 -27q-15 -22 -48 -93q-20 -44 -81 -39l-246 15q-30 3 -62.5 -12.5t-39.5 -15.5q-30 0 -29 28z" />
<glyph unicode="&#x2013;" horiz-adv-x="879" d="M26 445v128h829v-128h-829z" />
<glyph unicode="&#x2014;" horiz-adv-x="1167" d="M-20 445v128h1207v-128h-1207z" />
<glyph unicode="&#x2018;" horiz-adv-x="525" d="M107 1223q0 132 195 259q41 28 62 28q41 0 41 -39q0 -9 -58 -66q-56 -56 -56 -107q0 -59 59 -84q61 -25 62 -45q-1 -30 -60 -89q-43 -43 -81 -43q-61 0 -121 80q-43 56 -43 106z" />
<glyph unicode="&#x2019;" horiz-adv-x="525" d="M113 1378q0 36 58 91q43 41 83 41q59 0 121 -80q43 -52 43 -107q0 -93 -123 -202q-91 -84 -136 -84q-39 0 -38 39q0 8 57 65q56 57 56 107q0 63 -61 84q-59 26 -60 46z" />
<glyph unicode="&#x201a;" horiz-adv-x="479" d="M80 173q0 30 59 89q43 43 82 42q59 0 120 -79q43 -52 43 -107q1 -98 -120 -205q-93 -82 -136 -82q-41 0 -41 39q0 9 56 67q57 56 57 106q0 59 -61 85q-59 25 -59 45z" />
<glyph unicode="&#x201c;" horiz-adv-x="892" d="M107 1223q0 132 195 259q41 28 62 28q41 0 41 -39q0 -9 -58 -66q-56 -56 -56 -107q0 -59 59 -84q61 -25 62 -45q-1 -30 -60 -89q-43 -43 -81 -43q-59 0 -121 80q-43 52 -43 106zM475 1223q0 132 195 259q42 28 61 28q42 0 42 -39q0 -9 -57 -66q-57 -56 -57 -107 q0 -64 61 -86q61 -20 63 -43q-2 -30 -60 -89q-44 -43 -81 -43q-61 0 -124 80q-43 52 -43 106z" />
<glyph unicode="&#x201d;" horiz-adv-x="892" d="M113 1378q0 36 58 91q43 41 83 41q59 0 121 -80q43 -52 43 -107q0 -93 -123 -202q-91 -84 -136 -84q-39 0 -38 39q0 8 57 65q56 57 56 107q0 63 -61 84q-59 26 -60 46zM484 1378q0 36 57 91q43 41 82 41q59 0 121 -80q45 -59 45 -107q0 -93 -123 -202q-91 -84 -137 -84 q-41 0 -41 39q0 8 58 65q59 59 59 107q0 63 -62 84q-59 26 -59 46z" />
<glyph unicode="&#x201e;" horiz-adv-x="892" d="M113 169q0 36 58 90q43 41 83 41q59 0 121 -79q43 -52 43 -108q0 -95 -123 -204q-93 -82 -136 -82q-39 0 -38 39q0 9 57 66q56 57 56 107q0 59 -61 84q-59 26 -60 46zM484 169q0 36 57 90q43 41 82 41q59 0 121 -79q45 -59 45 -108q0 -95 -123 -204q-93 -82 -137 -82 q-41 0 -41 39q0 9 58 66q59 59 59 107q0 59 -62 84q-59 26 -59 46z" />
<glyph unicode="&#x2020;" horiz-adv-x="1022" d="M57 850q0 9 8 25t18 30.5t19 29.5t11 22q16 56 50 56q7 0 32 -6q16 -7 74 -7h113q32 0 32 37q0 22 -1 53t-3 74q-3 44 -3 75.5v53.5q0 48 46 100q43 39 83.5 79t64.5 40q34 0 33 -43q0 -30 -3.5 -73t-12.5 -103q-9 -59 -12 -102t-3 -74v-65v-9.5t-2 -14.5q0 -30 35 -30 h117q41 0 73.5 3.5t58.5 7.5q34 11 41 12q39 0 37 -48q0 -17 -24 -51q-15 -20 -24.5 -31.5t-12.5 -15.5q-25 -46 -56 -45q-18 0 -52.5 2.5t-52.5 2.5h-116q-16 0 -18 -17q-2 -13 -3 -68.5t-1 -155.5v-175.5t2 -364.5q0 -54 -7 -93t-23 -71.5t-45 -61t-73 -62.5 q-54 -41 -77 -41q-44 0 -44 43q0 22 24 52q34 48 50 182q2 9 6 254l7 403q0 148 -11 166q-7 9 -39 10h-119q-13 0 -34.5 -4t-44.5 -8.5t-43.5 -8t-33.5 -3.5q-41 0 -41 39z" />
<glyph unicode="&#x2021;" horiz-adv-x="1256" d="M16 970q0 30 66 82q167 163 228 317q9 27 37 65l26 9q41 -11 41 -81q0 -18 -3.5 -53.5t-3.5 -54.5q0 -161 68 -161h112t157 3q91 2 156.5 3t110.5 1q66 0 87 -7q45 -17 45 -67q-32 -61 -232 -282q114 -37 191 -126q85 -93 85 -211q0 -32 -4.5 -75t-13.5 -100 q-11 -61 -89 -206q-84 -159 -125 -165q-66 -6 -261 -6q-200 0 -201 58q0 28 41 59l17 26q117 77 165 77l11 -23l10 -6q22 -7 61 -7q5 0 42.5 1t103.5 3q54 82 54 187q0 125 -76 217q-75 96 -197 96q-61 0 -96 -14q-41 14 -47 62q17 45 127 162l152 161q-45 4 -100.5 6 t-118.5 2h-185q-20 0 -43 -4q-13 -93 -14 -443q0 -241 47 -277q20 -3 67 -20l11 -24l-11 -20q-11 -9 -28.5 -24t-40.5 -35q-15 -11 -29 -22.5t-30 -22.5q-36 -30 -65 -30q-91 43 -123 139q-20 61 -20 186v289v71.5t2 97.5v117q0 22 -37 26h-54q-73 0 -73 44z" />
<glyph unicode="&#x2022;" horiz-adv-x="1447" d="M407 737q0 134 94 226q97 94 230 94q130 0 224 -96q93 -93 93 -224q0 -134 -93 -228q-94 -93 -228 -93t-226 93q-94 94 -94 228z" />
<glyph unicode="&#x2026;" horiz-adv-x="1440" d="M95 150q0 48 57 106q48 50 71 48q26 -4 48 -56q11 -28 39 -64q30 -41 50 -41h17q14 0 16 -2q20 -7 21 -32q-1 -35 -62 -102q-37 -44 -86 -44q-50 0 -112 69q-59 70 -59 118zM577 150q0 48 55 106q45 53 73 48q30 -4 45 -56q7 -18 41 -62q35 -43 48 -43h20q37 0 37 -34 q0 -39 -61 -102q-37 -44 -87 -44t-112 69q-59 70 -59 118zM1057 150q0 48 54 106q46 53 73 48q26 -4 46 -56q9 -20 41 -64q30 -41 50 -41h18q36 0 36 -34q0 -39 -61 -102q-36 -44 -86 -44t-111 69q-59 70 -60 118z" />
<glyph unicode="&#x202f;" horiz-adv-x="401" />
<glyph unicode="&#x2030;" horiz-adv-x="2070" d="M98 1250q0 48 52 86q30 23 89 89q43 55 282 55q220 0 220 -168q0 -191 -147 -421q-100 -154 -192 -154q-111 0 -202 172q-30 57 -63 169q-39 123 -39 172zM115 -39q0 20 26 59q61 98 191 303.5t330 524.5l258 414q18 30 35.5 58t35.5 58q48 73 98 96.5t65 23.5 q35 0 35 -36q0 -2 -85 -114q-45 -59 -70 -93t-29 -43q-12 -22 -45.5 -73.5t-87.5 -133.5q-34 -53 -140.5 -227.5t-288.5 -477.5q-50 -76 -161 -268q-28 -52 -46 -60q-45 -13 -54 -22q-18 -15 -39 -15q-28 0 -28 26zM252 1267q0 -133 84 -280q50 -91 107 -91q70 0 119 139 q39 115 39 202q0 54 -27.5 72.5t-113.5 18.5q-155 0 -189 -16q-18 -11 -19 -45zM638 482q0 47 78 109q15 17 37 40.5t54 52.5q50 30 254 30q219 0 219 -168q0 -66 -32 -173q-23 -73 -51 -135.5t-60 -114.5q-96 -152 -198 -153q-102 0 -202 182q-34 63 -64 162 q-35 104 -35 168zM791 501q0 -144 96 -297q48 -75 100 -74q67 0 115 143q39 121 39 202q0 46 -18 63q-30 26 -150 26q-123 0 -164 -21q-18 -11 -18 -42zM1330 482q0 47 80 109q25 34 91 93q50 30 254 30q216 0 216 -168q0 -202 -143 -423q-98 -152 -196 -153 q-105 0 -205 182q-34 63 -63 162q-34 104 -34 168zM1484 501q0 -144 93 -297q44 -75 100 -74q70 0 119 143q37 109 37 204q0 61 -55 80q-25 7 -112 7q-125 0 -165 -21q-16 -7 -17 -42z" />
<glyph unicode="&#x2039;" horiz-adv-x="453" d="M70 516q0 76 91 137q25 15 61.5 38t87.5 55q25 18 40 18q34 0 34 -29q0 -22 -74 -99q-76 -73 -76 -107q0 -52 37 -102q20 -32 33 -34q2 -5 48 0q32 0 32 -33q0 -30 -65 -48q-5 0 -48 -26q-39 -25 -62 -24q-44 0 -125 181q-13 30 -14 73z" />
<glyph unicode="&#x203a;" horiz-adv-x="453" d="M70 291q0 22 73 95q76 70 76 109q0 54 -35 103q-18 28 -36 31q-5 3 -48 3q-30 2 -30 36q0 28 67 46q6 0 45 25q43 26 63 25q39 0 126 -182q13 -33 13 -73q1 -88 -170 -186q-109 -61 -114 -61q-30 0 -30 29z" />
<glyph unicode="&#x2044;" horiz-adv-x="274" d="M-384 -39q0 22 24 59q5 4 26.5 39.5t64.5 101.5q118 186 257.5 408t302.5 483l130 210q17 30 34.5 59.5t35.5 58.5q47 67 97 92.5t67 25.5q37 0 37 -36q-33 -39 -78.5 -101t-106.5 -149q-17 -30 -50.5 -81t-81.5 -126q-78 -124 -185.5 -297.5t-248.5 -407.5l-123 -205 q-30 -45 -37 -63q-22 -48 -47 -60q-50 -18 -55 -22q-15 -15 -36 -15q-28 0 -27 26z" />
<glyph unicode="&#x205f;" horiz-adv-x="501" />
<glyph unicode="&#x20ac;" horiz-adv-x="1358" d="M-2 612v77h106q-4 52 0 152l-106 -2v77h132q43 186 186 312q59 52 94 81.5t45 35.5l318 239q27 -7 138 -54q82 -37 148 -36q32 0 108 29q82 32 40 32q-3 0 30 -19q-53 -56 -93 -98.5t-66 -68.5q-121 -121 -206 -139l-208 82q-11 2 -48 2q-48 0 -109 -14 q-59 -46 -98.5 -81t-61.5 -60q-79 -100 -111 -243h471v-77h-482l3 -84q0 -37 6 -66h473v-77h-451q61 -171 217 -269q154 -93 341 -87q121 5 225 21t195 46l-136 -336q-105 -16 -179.5 -23t-124.5 -7q-296 0 -482 180q-187 179 -208 475h-106z" />
<glyph unicode="&#x2122;" horiz-adv-x="1588" d="M39 1412q25 59 118 100q8 0 22 -9t23 -9h371q61 0 61 -45q0 -12 -2 -22q-18 -22 -45.5 -42.5t-59.5 -41.5l-15 12q-11 28 -41 27h-119q-13 0 -13 -46q0 -20 2 -61t2 -61q0 -25 -1 -60t-3 -81q-3 -45 -3 -79.5v-58.5q0 -198 98 -198q7 0 61 24l14 -6l5 -14 q-11 -19 -29.5 -41.5t-43.5 -44.5q-59 -54 -94 -54q7 0 -54 15q-95 78 -95 175l2 398q0 43 -7 75l-4 5l-16 6l-4 9q9 16 23 37.5t40 49.5v2l-9 9q9 0 -5 0t-45 -2h-50q-54 0 -73 4q-13 18 -11 28zM657 1414q32 55 70 63q43 35 67 35q2 0 15.5 -10.5t17.5 -12.5q-18 4 105 5 h122t169 -3l289 -2q30 -16 30 -38q0 -7 -35 -58q-34 -48 -34 -72q0 -41 -1 -102.5t-3 -142.5q-3 -83 -3 -144.5v-101.5q0 -45 1.5 -76t1.5 -15q6 -4 25 -23l4 -7v-4q-106 -113 -138 -114q-7 0 -28 7q-13 16 -13 46v241q0 17 6 165q3 50 3 92t-5 75l2 4q0 52 55 139v11 q-9 4 -187 9l-9 -7q-13 -100 -13 -264q0 -157 1 -248t3 -120l29 -16l6 -9q-11 -34 -60 -74q-46 -44 -79 -44q-41 0 -41 84v25q2 9 2 14.5v9.5l-2 6v86q0 45 1 112t4 158q6 180 6 269q0 9 -11 20q-45 0 -77.5 1t-13.5 1q-41 0 -41 -11v-114.5t-2 -165.5l-2 -279 q0 -100 -35 -144q-30 -38 -128 -76q-8 2 -15 15q37 64 37 313v71q-3 33 -3 56.5v41.5v169l-9 18l-23 13q26 43 73 84q-2 9 -79 9q-55 0 -55 30z" />
<glyph unicode="&#x2202;" d="M52 468q0 164 81 297t229 190q89 34 176 34q161 0 260 -93q-139 357 -505 547l41 71q239 -98 386 -252q146 -154 239 -396q78 -202 78 -373q-1 -211 -115 -356q-145 -187 -381 -187q-187 0 -325 128q-163 152 -164 390zM243 471q0 -159 69 -282q84 -150 226 -150 q82 0 152.5 56.5t105.5 136.5q48 111 48 250q0 156 -67 277q-81 143 -229 143q-171 0 -255 -193q-50 -108 -50 -238z" />
<glyph unicode="&#x220f;" horiz-adv-x="1447" d="M26 1389v80h1397v-80h-68q-91 0 -112 -31q-13 -20 -13 -121v-1530q0 -98 13 -121q20 -34 108 -33h70v-80h-584v80h65q87 0 111 33q14 22 15 121v1530q0 97 -17 121q-20 32 -109 31h-351q-87 0 -113 -31q-13 -26 -13 -121v-1530q0 -98 13 -121q20 -34 108 -33h72v-80h-586 v80h66q91 0 111 31q13 22 14 123v1530q0 95 -14 121q-26 32 -111 31h-72z" />
<glyph unicode="&#x2211;" horiz-adv-x="1447" d="M95 -527l534 995l-534 1001h1163v-382h-78q-20 175 -100 234q-70 52 -250 52h-468l441 -830l-503 -936h541q118 0 187 18q184 52 243 310h80l-82 -462h-1174z" />
<glyph unicode="&#x221a;" horiz-adv-x="1447" d="M16 764v97h532l155 -666l379 1614h350v-97h-265l-403 -1732h-193l-189 784h-366z" />
<glyph unicode="&#x221e;" horiz-adv-x="1447" d="M9 716q0 161 102 277q104 116 264 116q196 0 364 -252l11 15q30 46 64 96.5t80 81.5q86 59 188 59q157 0 254 -111q103 -109 103 -263q0 -161 -107 -280q-108 -114 -271 -114q-216 0 -375 255q-39 -59 -71.5 -101t-61.5 -68q-87 -73 -201 -73q-150 0 -248 106 q-95 104 -95 256zM102 725q0 -102 75 -157.5t180 -55.5q150 0 239 115q5 5 14.5 14t27.5 27q-65 103 -122 167q-100 106 -221 106q-86 0 -139.5 -63.5t-53.5 -152.5zM783 794q179 -287 360 -287q89 0 144.5 64.5t55.5 155.5q0 111 -79 171q-73 52 -186 52q-163 0 -253 -120 q-11 -15 -27 -25z" />
<glyph unicode="&#x222b;" horiz-adv-x="1087" d="M9 -352q0 57 37.5 96.5t94.5 39.5q50 0 87.5 -34t37.5 -84q0 -16 -10.5 -47t-10.5 -46q0 -44 46 -44q86 0 127 148q12 50 18.5 103.5t6.5 112.5v1003q0 202 21 304q32 148 111 232q93 100 230 100q54 0 104 -17t88 -49t60.5 -76.5t22.5 -98.5q0 -57 -36.5 -97t-93.5 -40 q-52 0 -88.5 34.5t-36.5 86.5q0 16 10.5 46t10.5 45q0 46 -46 46q-88 0 -130 -169q-25 -111 -24 -232v-972q0 -200 -21 -303q-32 -148 -109 -231q-91 -98 -230 -99q-113 0 -191 65q-86 67 -86 177z" />
<glyph unicode="&#x2248;" d="M30 785q166 234 347 234q68 0 198 -43q130 -44 195 -44q116 0 221 125l63 -36q-154 -230 -338 -230q-61 0 -150 29q-195 61 -266 62q-64 0 -116 -43q-11 -9 -33.5 -31.5t-55.5 -59.5zM32 451q167 232 345 231q66 0 196 -44q132 -41 195 -40q118 0 223 125l63 -37 q-143 -231 -338 -231q-48 0 -150 31q-191 59 -264 60q-68 0 -118 -41q-6 -4 -28 -28t-61 -63z" />
<glyph unicode="&#x2260;" d="M32 827v123h554l126 271l113 -52l-102 -219h329v-123h-386l-84 -181h472v-123h-531l-137 -293l-111 54l111 239h-352v123h409l84 181h-495z" />
<glyph unicode="&#x2264;" d="M75 -20v109h936v-109h-936zM75 727v34l936 605v-123l-675 -440l675 -453v-248z" />
<glyph unicode="&#x2265;" d="M75 -20v109h936v-109h-936zM75 102v123l675 443l-675 451v247l936 -627v-34z" />
<glyph unicode="&#x25ca;" horiz-adv-x="1447" d="M137 725l588 813l587 -813l-587 -814zM321 725l404 -554l403 554l-403 555z" />
<glyph unicode="&#x25fc;" horiz-adv-x="1113" d="M0 0v1114h1114v-1114h-1114z" />
</font>
</defs>
</svg>
