<?xml version="1.0" standalone="no"?>
<!DOCTYPE svg PUBLIC "-//W3C//DTD SVG 1.1//EN" "http://www.w3.org/Graphics/SVG/1.1/DTD/svg11.dtd" >
<svg xmlns="http://www.w3.org/2000/svg">
<metadata></metadata>
<defs>
<font id="okolaksregularitalic" horiz-adv-x="1364" >
<font-face units-per-em="2048" ascent="1622" descent="-426" />
<missing-glyph horiz-adv-x="1280" />
<glyph horiz-adv-x="1108" />
<glyph horiz-adv-x="1108" />
<glyph unicode="&#xd;" horiz-adv-x="1108" />
<glyph horiz-adv-x="1108" />
<glyph horiz-adv-x="1108" />
<glyph horiz-adv-x="1108" />
<glyph horiz-adv-x="1108" />
<glyph horiz-adv-x="1108" />
<glyph horiz-adv-x="1108" />
<glyph horiz-adv-x="1108" />
<glyph horiz-adv-x="1108" />
<glyph unicode="&#x9;" horiz-adv-x="1108" />
<glyph unicode="&#xa;" horiz-adv-x="1108" />
<glyph horiz-adv-x="1108" />
<glyph horiz-adv-x="1108" />
<glyph horiz-adv-x="1108" />
<glyph horiz-adv-x="1108" />
<glyph horiz-adv-x="1108" />
<glyph horiz-adv-x="1108" />
<glyph horiz-adv-x="1108" />
<glyph horiz-adv-x="1108" />
<glyph horiz-adv-x="1108" />
<glyph horiz-adv-x="1108" />
<glyph horiz-adv-x="1108" />
<glyph horiz-adv-x="1108" />
<glyph horiz-adv-x="1108" />
<glyph horiz-adv-x="2048" />
<glyph horiz-adv-x="1108" />
<glyph horiz-adv-x="1108" />
<glyph horiz-adv-x="1108" />
<glyph horiz-adv-x="1108" />
<glyph horiz-adv-x="1108" />
<glyph horiz-adv-x="2048" />
<glyph unicode=" "  horiz-adv-x="1280" />
<glyph unicode="&#x09;" horiz-adv-x="1280" />
<glyph unicode="&#xa0;" horiz-adv-x="1280" />
<glyph unicode="!" horiz-adv-x="426" d="M92 42q4 36 33 61t63 25q36 0 57 -25t17 -61q-4 -34 -33 -59t-65 -25q-34 0 -55 25t-17 59zM146 426l168 1196h170l-168 -1196h-170z" />
<glyph unicode="&#x22;" horiz-adv-x="768" d="M302 1536q4 34 33 60t63 26q36 0 57 -26t17 -60q-2 -18 -33 -85t-45 -171h-86q14 100 3 170t-9 86zM642 1536q4 34 34 60t64 26t56 -26t18 -60q-2 -18 -34 -85t-46 -171h-84q14 100 2 170t-10 86z" />
<glyph unicode="#" horiz-adv-x="1450" d="M86 0l288 598h-204l12 84h234l166 342h-268l12 86h298l246 512h92l-250 -512h372l246 512h92l-248 -512h262l-12 -86h-292l-166 -342h324l-12 -84h-354l-290 -598h-88l288 598h-370l-292 -598h-86zM506 682h370l166 342h-372z" />
<glyph unicode="$" d="M148 384h158q-14 -96 75 -151t241 -63l86 608q-112 34 -163 52t-115 45t-86 50t-37 55t-9 74q8 60 42 123t93 123t155 101t214 47l24 174l84 -2l-24 -170q208 -8 311 -81t125 -217h-158q14 94 -66 149t-224 65l-74 -526q292 -92 387 -156t79 -178l-2 -2 q-24 -176 -174 -291t-396 -125l-36 -258h-84l36 256q-216 6 -327 80t-135 218zM472 1006q6 -32 43 -57t61 -35t102 -34q26 -10 42 -14l70 498q-136 -12 -219 -87t-99 -189q-6 -50 0 -82zM706 172q150 12 256 92t124 206q16 118 -49 169t-249 111z" />
<glyph unicode="%" horiz-adv-x="1706" d="M112 186l1596 1224l56 -92l-1600 -1216zM402 1280l8 64q12 80 88 136t196 56q118 0 179 -58t49 -134l-8 -64q-14 -94 -87 -154t-199 -60q-128 0 -184 60t-42 154zM484 1258q-6 -54 34 -91t118 -37t130 37t58 91l16 108q6 40 -37 73t-119 33q-72 0 -125 -32t-59 -74z M892 214l10 64q10 80 86 136t196 56q118 0 179 -58t51 -134l-10 -64q-14 -94 -87 -154t-199 -60q-128 0 -184 60t-42 154zM974 192q-6 -54 34 -91t118 -37t130 37t58 91l16 106q6 42 -36 75t-118 33q-72 0 -126 -32t-60 -76z" />
<glyph unicode="&#x26;" d="M146 426l6 44q10 66 34 133t74 149t143 153t217 115q-10 12 -24 33t-32 88t-8 139q18 126 108 191t192 65q90 0 151 -76t47 -180q-28 -192 -312 -298l298 -648q38 56 60 178h166q-24 -176 -166 -320l96 -192h-106l-60 130q-172 -130 -390 -130q-256 0 -388 121t-106 305z M304 342q-14 -106 87 -181t261 -75q180 0 324 164l-324 704q-114 -44 -204 -136t-102 -178zM651 1212q3 -32 12 -59t16 -42t21 -39l14 -22q16 10 69 34t84 42t63 59t40 95q10 68 -31 119t-95 51q-66 0 -122 -40t-68 -130q-6 -36 -3 -68z" />
<glyph unicode="'" horiz-adv-x="426" d="M302 1536q4 34 33 60t63 26q36 0 57 -26t17 -60q-2 -18 -33 -85t-45 -171h-86q14 100 3 170t-9 86z" />
<glyph unicode="(" horiz-adv-x="682" d="M115 89q-7 71 7 167l138 982q28 196 130 290t350 94l-12 -86q-152 0 -211 -50t-75 -164l-162 -1152q-16 -120 29 -188t191 -68l-12 -84q-130 0 -212 32t-118 94t-43 133z" />
<glyph unicode=")" horiz-adv-x="682" d="M62 -170l12 84q146 0 211 68t81 188l162 1152q16 114 -30 164t-196 50l12 86q248 0 324 -94t48 -290l-138 -982q-14 -96 -41 -167t-79 -133t-144 -94t-222 -32z" />
<glyph unicode="*" horiz-adv-x="596" d="M194 896l68 54l-10 100l104 -26l54 70l34 -70l110 26l-36 -100l52 -54l-68 -54l8 -96l-102 22l-54 -70l-34 70l-112 -22l38 96z" />
<glyph unicode="+" horiz-adv-x="1280" d="M206 854l12 84h426l72 512h170l-72 -512h428l-12 -84h-428l-72 -512h-170l72 512h-426z" />
<glyph unicode="," horiz-adv-x="512" d="M54 -234l12 92q18 0 37 13t41 58t32 113q4 36 34 61t64 25t56 -25t18 -61q-16 -112 -129 -194t-165 -82z" />
<glyph unicode="-" d="M206 854l12 84h1108l-12 -84h-1108z" />
<glyph unicode="." horiz-adv-x="426" d="M92 42q4 36 33 61t63 25q36 0 57 -25t17 -61q-4 -34 -33 -59t-65 -25q-34 0 -55 25t-17 59z" />
<glyph unicode="/" horiz-adv-x="1280" d="M50 -256l1162 1878h126l-1168 -1878h-120z" />
<glyph unicode="0" d="M146 426l102 726q26 180 186 282t422 102q264 0 394 -103t106 -281l-102 -726q-26 -184 -192 -305t-422 -121q-260 0 -390 121t-104 305zM304 342q-14 -106 87 -181t261 -75t283 75t137 181l126 896q14 102 -87 157t-267 55t-283 -55t-131 -157z" />
<glyph unicode="1" horiz-adv-x="596" d="M256 0l198 1414l-188 -132l18 126l188 128h170l-216 -1536h-170z" />
<glyph unicode="2" horiz-adv-x="1450" d="M86 0q1102 1032 1134 1238q30 212 -290 212q-290 0 -340 -170h-208q56 134 192 195t368 61q490 0 438 -362q-30 -214 -984 -1088h896l-12 -86h-1194z" />
<glyph unicode="3" d="M146 426h170l-12 -84q-14 -106 87 -181t261 -75q166 0 283 55t131 157l60 428q14 106 -49 159t-219 53l12 86q138 0 181 40t57 140l14 110q20 136 -278 136q-146 0 -243 -43t-123 -127h-170q58 134 188 195t360 61q248 0 347 -84t81 -214q-16 -114 -62 -166t-142 -88 q240 -84 198 -386l-24 -172q-26 -184 -192 -305t-422 -121q-260 0 -390 121t-104 305z" />
<glyph unicode="4" d="M158 512l12 86l984 938h172l-132 -938h84l-12 -86h-84l-72 -512h-172l72 512h-852zM298 598h724l112 798z" />
<glyph unicode="5" d="M146 426h170l-12 -84q-14 -106 87 -181t261 -75t283 75t137 181l54 384q14 102 -87 157t-267 55t-283 -55t-131 -157h-170l114 810h1108l-12 -86h-938l-72 -512q180 86 396 86q264 0 394 -103t106 -281l-30 -214q-26 -184 -192 -305t-422 -121q-260 0 -390 121t-104 305z M316 426z" />
<glyph unicode="6" d="M146 426l102 726q26 180 186 282t422 102q452 0 500 -298h-158q14 102 -87 157t-267 55t-283 -55t-131 -157l-42 -300q180 86 396 86q264 0 394 -103t106 -281l-30 -214q-26 -184 -192 -305t-422 -121q-260 0 -390 121t-104 305zM304 342q-14 -106 87 -181t261 -75 t283 75t137 181l54 384q14 102 -87 157t-267 55t-283 -55t-131 -157z" />
<glyph unicode="7" d="M290 1450l12 86h1108l-50 -86l-868 -1450h-196l868 1450h-874z" />
<glyph unicode="8" horiz-adv-x="1536" d="M230 426l24 172q18 130 98 236t208 150q-84 52 -103 104t-5 150q42 298 490 298t406 -298q-14 -100 -47 -153t-135 -101q238 -102 198 -386l-24 -172q-26 -184 -192 -305t-422 -121q-260 0 -391 121t-105 305zM390 342q-14 -106 87 -181t261 -75q158 0 282 75t138 181 l48 340q14 106 -88 181t-260 75q-160 0 -283 -75t-137 -181zM618 1216q-14 -106 40 -149t212 -43q156 0 222 43t80 149l10 64q24 170 -252 170q-146 0 -219 -49t-83 -121z" />
<glyph unicode="9" d="M146 342h158q-14 -106 87 -181t261 -75t283 75t137 181l36 256q-180 -86 -396 -86q-260 0 -390 121t-104 305l30 214q26 180 186 282t422 102q264 0 394 -103t106 -281l-102 -726q-26 -184 -192 -305t-422 -121q-224 0 -347 93t-147 249zM376 854q-14 -106 87 -181 t261 -75t283 75t137 181l54 384q14 102 -87 157t-267 55t-283 -55t-131 -157z" />
<glyph unicode=":" horiz-adv-x="426" d="M92 42q4 36 33 61t63 25q36 0 57 -25t17 -61q-4 -34 -33 -59t-65 -25q-34 0 -55 25t-17 59zM206 854q4 34 33 59t63 25q36 0 57 -25t17 -59q-6 -36 -34 -61t-64 -25q-34 0 -56 25t-16 61z" />
<glyph unicode=";" horiz-adv-x="512" d="M54 -234l12 92q18 0 37 13t41 58t32 113q4 36 34 61t64 25t56 -25t18 -61q-16 -112 -129 -194t-165 -82zM290 854q4 34 34 59t64 25t56 -25t18 -59q-6 -36 -35 -61t-63 -25t-57 25t-17 61z" />
<glyph unicode="&#x3c;" horiz-adv-x="852" d="M188 726q298 382 381 468t165 86q36 0 57 -25t17 -61q-4 -34 -33 -59t-65 -25q-68 0 -100 -20q-36 -22 -80 -70t-192 -226q-36 -44 -58 -68q120 -222 157 -282t69 -84q28 -18 96 -18q36 0 57 -26t17 -60t-33 -60t-65 -26q-84 0 -142 87t-248 469z" />
<glyph unicode="=" d="M182 682l12 86h1108l-12 -86h-1108zM230 1024l12 86h1108l-12 -86h-1108z" />
<glyph unicode="&#x3e;" horiz-adv-x="852" d="M122 256q4 34 33 60t63 26q70 0 100 18q38 22 80 69t190 223q40 48 62 74l-45 81t-39 69t-31 55t-26 46t-22 34t-19 29t-16 21t-17 17t-13 12q-26 20 -96 20q-34 0 -55 25t-17 59q4 36 33 61t63 25q84 0 141 -85t251 -469q-302 -386 -383 -471t-165 -85q-34 0 -55 26 t-17 60z" />
<glyph unicode="?" horiz-adv-x="1280" d="M272 1322q64 150 195 225t359 75q126 0 222 -41t146 -104t73 -131t13 -130q-8 -58 -15 -90t-32 -85t-64 -92t-113 -86t-176 -91q-76 -32 -111 -80t-49 -126l-20 -140h-170v2l24 166q14 70 87 130t231 138q98 48 160 148t74 186q18 130 -62 235t-230 105q-164 0 -267 -55 t-117 -159h-158zM476 42q4 36 33 61t63 25q36 0 57 -25t17 -61q-4 -34 -33 -59t-65 -25q-34 0 -55 25t-17 59z" />
<glyph unicode="@" horiz-adv-x="2346" d="M194 768q26 180 109 333t222 271t347 184t466 66q510 0 754 -241t192 -613q-32 -228 -184 -370t-400 -142q-56 0 -85 7t-35 16t-6 19t-6 17t-28 7q-4 0 -131 -33t-263 -33q-260 0 -391 121t-105 305l30 214q26 180 187 282t423 102q264 0 394 -103t106 -281l-58 -414 q-20 -140 12 -140q170 0 278 118t134 308q48 336 -163 552t-667 216q-232 0 -415 -60t-303 -166t-192 -242t-95 -300t10 -300t123 -242t257 -166t399 -60q230 0 482 82l20 -82q-266 -86 -514 -86q-258 0 -448 66t-295 184t-146 271t-15 333zM810 598q-14 -106 87 -181 t261 -75q158 0 282 75t138 181l54 384q14 100 -87 156t-267 56t-283 -55t-131 -157z" />
<glyph unicode="A" d="M86 0l162 1152q26 180 186 282t422 102q264 0 394 -103q110 -87 110 -227q0 -26 -4 -54l-162 -1152h-170l120 854h-768l-120 -854h-170zM388 938h768l42 300q2 12 2 24q0 85 -89 133q-101 55 -267 55t-283 -55t-131 -157z" />
<glyph unicode="B" d="M86 0l216 1536h512q244 0 365 -93q101 -78 101 -203q0 -25 -4 -52v-2q-30 -214 -216 -286q142 -80 183 -170q26 -57 26 -145q0 -52 -9 -115q-26 -190 -197 -330t-423 -140h-554zM288 226q-2 -14 -2 -26q0 -18 5 -33q9 -25 37 -40t54 -24t79 -12t87 -4t104 -1 q154 0 282 94t144 204l30 214q2 13 2 25q0 90 -90 156q-102 75 -260 75h-384zM302 1536zM408 1082q-2 -13 -2 -25q0 -34 17 -57q23 -30 84 -43t112 -16t153 -3q162 0 237 51t93 185l10 64q2 15 2 30q0 182 -356 182q-54 0 -81 -1t-70 -4t-65 -12t-47 -24t-38 -40t-17 -59z " />
<glyph unicode="C" d="M146 426l102 726q26 180 186 282t422 102q238 0 381 -82q132 -76 131 -196v-20h-128q1 11 1 21q0 85 -106 135q-119 56 -291 56q-166 0 -283 -55t-131 -157l-126 -896q-2 -13 -1 -25q0 -90 88 -156q101 -75 261 -75q164 0 306 76t156 180h128q-32 -136 -204 -239 t-398 -103q-260 0 -390 121q-108 101 -108 245q0 29 4 60z" />
<glyph unicode="D" d="M86 0l216 1536h554q264 0 394 -103q110 -87 110 -227q0 -26 -4 -54l-102 -726q-26 -184 -192 -305t-422 -121h-554zM288 226q-2 -14 -2 -26q0 -18 5 -33q9 -25 37 -40t54 -24t79 -12t87 -4t104 -1q160 0 283 75t137 181l126 896q2 12 2 24q0 85 -89 133q-101 55 -267 55 q-70 0 -104 -1t-89 -4t-83 -12t-60 -24t-48 -40t-20 -59z" />
<glyph unicode="E" d="M86 0l216 1536h1108l-12 -86h-682q-68 0 -102 -3t-78 -15t-66 -42t-30 -80l-52 -372h682l-12 -84h-682l-88 -628q-3 -18 -3 -34q0 -27 9 -46q14 -30 55 -42t74 -15t101 -3h682l-12 -86h-1108z" />
<glyph unicode="F" d="M86 0l216 1536h1108l-12 -86h-682q-68 0 -102 -3t-78 -15t-66 -42t-30 -80l-52 -372h682l-12 -84h-682l-120 -854h-170z" />
<glyph unicode="G" d="M86 -86h158q-2 -13 -2 -25q0 -90 90 -156q102 -75 260 -75t282 75t138 181l24 172q-180 -86 -396 -86q-260 0 -390 121q-108 101 -108 245q0 29 4 60l102 726q26 180 186 282t422 102q264 0 394 -103q110 -87 110 -227q0 -26 -4 -54l-6 -42h-170l18 128q2 12 2 24 q0 85 -89 133q-101 55 -267 55t-283 -55t-131 -157l-126 -896q-2 -13 -2 -25q0 -90 89 -156q101 -75 261 -75t283 75t137 181l48 340h170l-96 -682q-26 -184 -192 -305t-422 -121q-224 0 -347 93t-147 247z" />
<glyph unicode="H" d="M86 0l216 1536h170l-84 -598h768l84 598h170l-216 -1536h-170l120 854h-768l-120 -854h-170z" />
<glyph unicode="I" horiz-adv-x="426" d="M86 0l216 1536h170l-216 -1536h-170z" />
<glyph unicode="J" horiz-adv-x="596" d="M28 -408l14 92q46 -26 134 -26q32 0 52 142l232 1650h-170l12 86h340l-246 -1752q-30 -210 -200 -210q-120 0 -168 18z" />
<glyph unicode="K" d="M86 0l216 1536h170l-52 -370l926 370l54 -72l-510 -216q424 -43 423 -362q0 -36 -5 -76l-82 -584q-8 -54 -7 -87q0 -53 19 -53q50 0 146 48l-12 -92q-124 -42 -178 -42q-144 0 -144 153q0 27 4 59v2l96 682q2 17 2 33q0 105 -100 172q-116 77 -354 77l-292 -110 l-150 -1068h-170z" />
<glyph unicode="L" horiz-adv-x="1108" d="M86 0l12 86l204 1450h170l-204 -1450h682l-12 -86h-682h-170z" />
<glyph unicode="M" horiz-adv-x="1962" d="M86 0l156 1110q26 188 159 307t369 119q94 0 158 -21t95 -46t87 -83q12 -14 20 -20q124 98 172 124q94 46 236 46q266 0 352 -112q65 -84 65 -220q0 -44 -7 -94l-156 -1110h-170l168 1194q3 23 3 44q0 84 -51 141q-64 71 -216 71q-150 0 -234 -71t-100 -185l-84 -596 h-170l84 596q3 23 3 44q0 84 -51 141q-64 71 -216 71q-150 0 -234 -71t-100 -185l-168 -1194h-170z" />
<glyph unicode="N" d="M86 0l216 1536h554q264 0 394 -103q110 -87 110 -227q0 -26 -4 -54l-162 -1152h-170l174 1238q2 12 2 24q0 85 -89 133q-101 55 -267 55t-283 -55t-131 -157l-174 -1238h-170z" />
<glyph unicode="O" d="M146 426l102 726q26 180 186 282t422 102q264 0 394 -103q110 -87 110 -227q0 -26 -4 -54l-102 -726q-26 -184 -192 -305t-422 -121q-260 0 -390 121q-108 101 -108 245q0 29 4 60zM304 342q-2 -13 -1 -25q0 -90 88 -156q101 -75 261 -75t283 75t137 181l126 896 q2 12 2 24q0 85 -89 133q-101 55 -267 55t-283 -55t-131 -157z" />
<glyph unicode="P" d="M86 0l216 1536h554q264 0 394 -103q110 -87 110 -227q0 -26 -4 -54l-30 -214q-26 -184 -192 -305t-422 -121q-216 0 -372 86l-84 -598h-170zM376 854q-2 -13 -2 -25q0 -90 89 -156q101 -75 261 -75t283 75t137 181l54 384q2 12 2 24q0 85 -89 133q-101 55 -267 55 t-283 -55t-131 -157z" />
<glyph unicode="Q" d="M146 426l102 726q26 180 186 282t422 102q264 0 394 -103q110 -87 110 -227q0 -26 -4 -54l-102 -726q-42 -296 -328 -384q-64 -16 -132 -41t-140 -62t-121 -88t-57 -107h512l-12 -86h-682q10 76 26 124t71 109t149 113q-220 24 -319 139q-80 93 -80 219q0 31 5 64z M304 342q-2 -13 -2 -25q0 -90 89 -156q101 -75 261 -75t283 75t137 181l126 896q2 12 2 24q0 85 -89 133q-101 55 -267 55t-283 -55t-131 -157z" />
<glyph unicode="R" d="M86 0l216 1536h512q240 0 364 -85q104 -71 104 -204q0 -26 -4 -53v-2q-28 -202 -218 -292q134 -52 182 -136q35 -61 35 -144q0 -31 -5 -66l-46 -328q-8 -54 -7 -87q0 -53 19 -53q50 0 146 48l-12 -92q-124 -42 -178 -42q-144 0 -144 155q0 27 4 59l60 426q2 12 2 24 q0 85 -89 134q-101 56 -267 56h-384l-120 -854h-170zM408 1082q-2 -13 -2 -25q0 -34 17 -57q23 -30 84 -43t112 -16t153 -3q146 0 231 64t97 148l12 88q2 12 2 24q0 85 -89 133q-101 55 -267 55q-68 0 -100 -1t-79 -7t-70 -19t-42 -38t-25 -63z" />
<glyph unicode="S" d="M136 298h158q-2 -12 -2 -24q0 -83 89 -132q101 -56 267 -56q164 0 286 86t142 222q3 24 3 47q0 103 -67 175q-82 88 -268 150q-434 140 -434 349q0 15 2 31q8 62 45 127t102 126t168 99t229 38q230 0 343 -74t135 -224h-158q2 14 2 26q0 83 -79 131q-91 55 -255 55 q-154 0 -248 -76t-112 -200q-3 -23 -3 -44q0 -88 53 -149q66 -75 222 -125q288 -94 402 -196q98 -88 98 -197q0 -17 -2 -35v-2q-26 -184 -193 -305t-425 -121q-450 0 -500 298z" />
<glyph unicode="T" d="M290 1450l12 86h1108l-12 -86h-468l-204 -1450h-172l204 1450h-468z" />
<glyph unicode="U" d="M146 426l156 1110h170l-168 -1194q-2 -13 -1 -25q0 -90 88 -156q101 -75 261 -75t283 75t137 181l168 1194h170l-184 -1310q-8 -54 -8 -87q0 -53 20 -53q50 0 146 48l-12 -92q-124 -42 -178 -42q-60 0 -91 33t-69 33q-4 0 -131 -33t-263 -33q-260 0 -390 121 q-108 101 -108 245q0 29 4 60z" />
<glyph unicode="V" d="M194 768l108 768h170l-148 -1046q-2 -15 -3 -32q0 -60 30 -133q37 -93 119 -166t182 -73t202 73t165 166t73 165l148 1046h170l-108 -768q-14 -94 -69 -221t-140 -251t-207 -210t-246 -86q-126 0 -224 86t-146 211t-69 251q-13 76 -13 140q0 42 6 80z" />
<glyph unicode="W" horiz-adv-x="2048" d="M146 426l156 1110h170l-168 -1194q-3 -23 -3 -44q0 -84 51 -141q64 -71 214 -71q156 0 259 73t119 183l84 596h170l-84 -596q-3 -18 -3 -35q0 -87 70 -148q83 -73 239 -73q150 0 234 71t100 185l168 1194h172l-156 -1110q-14 -96 -45 -168t-90 -133t-158 -93t-237 -32 q-148 0 -233 41t-169 129q-112 -88 -209 -129t-243 -41q-240 0 -337 118q-76 93 -76 231q0 37 5 77z" />
<glyph unicode="X" d="M86 0l78 554q18 136 87 220t221 126q-138 48 -182 145q-30 67 -30 153q0 39 6 82l36 256h170l-48 -342q-2 -14 -2 -28q0 -88 89 -153q103 -75 261 -75t281 75t139 181l48 342h170l-36 -256q-42 -292 -314 -380q140 -40 185 -126q32 -61 32 -147q0 -34 -5 -73l-78 -554 h-170l90 640q2 12 2 24q0 85 -89 134q-101 56 -267 56t-283 -56t-131 -158l-90 -640h-170z" />
<glyph unicode="Y" d="M72 -170h146q38 -74 144 -123t230 -49q158 0 282 75t138 181l24 172q-180 -86 -396 -86q-260 0 -390 122q-108 102 -108 246q0 29 4 60l156 1108h170l-168 -1192q-2 -13 -2 -26q0 -91 89 -157q101 -75 261 -75t283 75t137 183l168 1192h170l-216 -1536 q-28 -204 -189 -315t-425 -111q-192 0 -320 69t-188 187z" />
<glyph unicode="Z" horiz-adv-x="1450" d="M86 0l64 86l958 1230q38 56 44 88q1 4 1 8q0 38 -53 38h-726l12 86h1098l-68 -86l-1062 -1364h938l-12 -86h-1194zM150 86zM1416 1450z" />
<glyph unicode="[" horiz-adv-x="512" d="M26 -426l288 2048h340l-12 -86h-170l-264 -1878h170l-12 -84h-340z" />
<glyph unicode="\" horiz-adv-x="1280" d="M314 1620l126 2l634 -1878h-122z" />
<glyph unicode="]" horiz-adv-x="512" d="M26 -426l12 84h170l264 1878h-170l12 86h340l-288 -2048h-340z" />
<glyph unicode="^" horiz-adv-x="1280" d="M350 1280q6 50 106 114t320 180q60 32 92 48q292 -184 348 -228q80 -68 74 -114q-8 -60 -51 -94t-95 -34q-50 0 -84 34t-26 94q6 48 1 82t-35 68t-46 45t-76 51q-12 10 -20 14q-140 -78 -178 -112q-62 -56 -74 -148q-8 -60 -52 -94t-94 -34q-52 0 -85 34t-25 94z" />
<glyph unicode="_" horiz-adv-x="1536" d="M26 -426l12 84h1364l-12 -84h-1364z" />
<glyph unicode="`" horiz-adv-x="512" d="M374 1450q4 36 34 61t64 25t56 -25t18 -61q-10 -68 0 -113t25 -58t33 -13q-14 -92 -42 -92q-50 0 -127 82t-61 194z" />
<glyph unicode="a" d="M146 426l30 214q26 180 186 282t422 102q264 0 394 -103q110 -87 110 -227q0 -26 -4 -54l-56 -392q-9 -66 -9 -105q0 -57 19 -57q50 0 146 48l-12 -92q-124 -42 -178 -42q-42 0 -65 14t-30 30t-22 30t-41 14q-16 0 -69 -22t-140 -44t-187 -22q-260 0 -390 121 q-108 101 -108 245q0 29 4 60zM304 342q-2 -13 -1 -25q0 -90 88 -156q101 -75 261 -75t283 75t137 181l54 384q2 12 2 24q0 85 -89 133q-101 55 -267 55t-283 -55t-131 -157z" />
<glyph unicode="b" d="M146 426l156 1110h170l-84 -598q180 86 396 86q264 0 394 -103q110 -87 110 -227q0 -26 -4 -54l-30 -214q-26 -184 -192 -305t-422 -121q-260 0 -390 121q-108 101 -108 245q0 29 4 60zM304 342q-2 -13 -1 -25q0 -90 88 -156q101 -75 261 -75t283 75t137 181l54 384 q2 12 2 24q0 85 -89 133q-101 55 -267 55t-283 -55t-131 -157z" />
<glyph unicode="c" d="M146 426l30 214q26 180 186 282t422 102q468 0 512 -298h-170q2 12 2 24q0 85 -89 133q-101 55 -267 55t-283 -55t-131 -157l-54 -384q-2 -13 -1 -25q0 -90 88 -156q101 -75 261 -75t283 75t137 181h170q-70 -154 -224 -248t-378 -94q-260 0 -390 121q-108 101 -108 245 q0 29 4 60z" />
<glyph unicode="d" d="M146 426l30 214q26 180 186 282t422 102q216 0 372 -86l84 598h170l-182 -1288q-9 -66 -9 -105q0 -57 19 -57q50 0 146 48l-12 -92q-124 -42 -178 -42q-56 0 -88 44t-70 44q-66 0 -169 -44t-227 -44q-260 0 -390 121q-108 101 -108 245q0 29 4 60zM304 342q-2 -13 -1 -25 q0 -90 88 -156q101 -75 261 -75t283 75t137 181l54 384q2 12 2 24q0 85 -89 133q-101 55 -267 55t-283 -55t-131 -157z" />
<glyph unicode="e" d="M146 426l30 214q26 180 186 282t422 102q260 0 390 -121q108 -101 108 -245q0 -29 -4 -60l-12 -86h-938l-24 -170q-2 -13 -1 -25q0 -90 88 -156q101 -75 261 -75q126 0 255 49t187 121h116q-204 -256 -570 -256q-260 0 -390 121q-108 101 -108 245q0 29 4 60zM340 598 h768l18 128q2 12 2 24q0 85 -89 133q-101 55 -267 55t-283 -55t-131 -157z" />
<glyph unicode="f" horiz-adv-x="852" d="M-60 -426l12 84q90 0 137 53t63 161l150 1066h-84l12 86h84l18 128q26 182 193 283t459 101l-12 -86q-172 0 -307 -56t-149 -156l-30 -214h340l-12 -86h-340l-138 -980q-12 -80 -25 -133t-40 -105t-68 -81t-107 -47t-156 -18z" />
<glyph unicode="g" d="M72 -170h146q38 -74 144 -123t230 -49q158 0 282 75t138 181l24 172q-180 -86 -396 -86q-260 0 -390 121q-108 101 -108 245q0 29 4 60l30 214q26 180 186 282t422 102q264 0 394 -103q110 -87 110 -227q0 -26 -4 -54l-90 -640q-26 -184 -192 -305t-422 -121 q-192 0 -320 69t-188 187zM304 342q-2 -13 -2 -25q0 -90 89 -156q101 -75 261 -75t283 75t137 181l54 384q2 12 2 24q0 85 -89 133q-101 55 -267 55t-283 -55t-131 -157z" />
<glyph unicode="h" d="M86 0l216 1536h170l-82 -580q174 68 394 68q264 0 394 -103q110 -87 110 -227q0 -26 -4 -54l-58 -414q-8 -54 -7 -87q0 -53 19 -53q50 0 146 48l-12 -92q-124 -42 -178 -42q-144 0 -144 155q0 27 4 59l72 512q2 12 2 24q0 85 -89 133q-101 55 -267 55t-283 -55t-131 -157 l-102 -726h-170z" />
<glyph unicode="i" horiz-adv-x="596" d="M116 212l114 812h170l-112 -798q-8 -54 -7 -87q0 -53 19 -53q76 0 236 88l-12 -90q-148 -84 -268 -84q-144 0 -144 153q0 27 4 59zM290 1450q4 36 33 61t63 25q36 0 57 -25q18 -21 17 -50v-11q-4 -34 -33 -59t-65 -25q-34 0 -55 25q-18 21 -18 48q0 6 1 11z" />
<glyph unicode="j" horiz-adv-x="512" d="M-16 -408l14 92q46 -26 92 -26q32 0 52 142l172 1224h172l-174 -1240q-30 -210 -202 -210q-78 0 -126 18zM374 1450q4 36 34 61t64 25t56 -25q19 -21 19 -50q0 -5 -1 -11q-4 -34 -34 -59t-64 -25t-56 25q-19 21 -19 49q0 5 1 10z" />
<glyph unicode="k" d="M86 0l216 1536h170l-124 -882l926 370l54 -72l-472 -190q200 -30 307 -123q92 -80 92 -194q0 -19 -3 -39l-26 -180q-8 -54 -7 -87q0 -53 19 -53q50 0 146 48l-12 -92q-124 -42 -178 -42q-144 0 -144 155q0 27 4 59l32 234q2 11 2 21q0 87 -122 151q-136 72 -302 72 l-330 -136l-78 -556h-170z" />
<glyph unicode="l" horiz-adv-x="596" d="M116 212l186 1324h170l-184 -1310q-8 -54 -7 -87q0 -53 19 -53q76 0 236 88l-12 -90q-148 -84 -268 -84q-144 0 -144 153q0 27 4 59z" />
<glyph unicode="m" horiz-adv-x="1962" d="M86 0l144 1024h170l-10 -68q74 30 103 39t83 19t122 10q102 0 170 -20t98 -42t96 -80q86 60 121 81t109 41t174 20q140 0 231 -26t134 -79t54 -119q5 -29 5 -64q0 -44 -8 -96l-58 -414q-8 -54 -7 -87q0 -53 19 -53q48 0 144 48l-12 -92q-124 -42 -176 -42 q-144 0 -144 155q0 27 4 59l72 512q3 19 3 36q0 79 -53 123q-64 53 -220 53t-235 -53t-93 -159l-102 -726h-170l102 726q3 19 3 36q0 79 -53 123q-64 53 -220 53t-235 -53t-93 -159l-102 -726h-170z" />
<glyph unicode="n" d="M86 0l144 1024h170l-10 -68q174 68 394 68q264 0 394 -103q110 -87 110 -227q0 -26 -4 -54l-58 -414q-8 -54 -7 -87q0 -53 19 -53q50 0 146 48l-12 -92q-124 -42 -178 -42q-144 0 -144 155q0 27 4 59l72 512q2 12 2 24q0 85 -89 133q-101 55 -267 55t-283 -55t-131 -157 l-102 -726h-170z" />
<glyph unicode="o" d="M146 426l30 214q26 180 186 282t422 102q264 0 394 -103q110 -87 110 -227q0 -26 -4 -54l-30 -214q-26 -184 -192 -305t-422 -121q-260 0 -390 121q-108 101 -108 245q0 29 4 60zM304 342q-2 -13 -1 -25q0 -90 88 -156q101 -75 261 -75t283 75t137 181l54 384q2 12 2 24 q0 85 -89 133q-101 55 -267 55t-283 -55t-131 -157z" />
<glyph unicode="p" d="M26 -426l204 1450h170l-10 -68q174 68 394 68q264 0 394 -103q110 -87 110 -227q0 -26 -4 -54l-30 -214q-26 -184 -192 -305t-422 -121q-216 0 -372 86l-72 -512h-170zM304 342q-2 -13 -2 -25q0 -90 89 -156q101 -75 261 -75t283 75t137 181l54 384q2 12 2 24 q0 85 -89 133q-101 55 -267 55t-283 -55t-131 -157z" />
<glyph unicode="q" d="M146 426l30 214q24 178 184 281t424 103q220 0 374 -68l10 68h170l-204 -1450h-170l72 512q-180 -86 -396 -86q-256 0 -388 121q-110 101 -110 246q0 29 4 59zM304 342q-2 -13 -2 -25q0 -90 89 -156q101 -75 261 -75t283 75t137 181l54 384q2 12 2 24q0 85 -89 133 q-101 55 -267 55t-283 -55t-131 -157z" />
<glyph unicode="r" horiz-adv-x="768" d="M86 0l144 1024h170l-10 -68q174 68 352 68l-12 -86q-162 0 -260 -54t-112 -158l-102 -726h-170z" />
<glyph unicode="s" d="M136 298h162q-2 -13 -2 -25q0 -84 87 -132q99 -55 265 -55q118 0 200 15t144 65t74 134q2 15 2 30q0 182 -356 182q-218 0 -345 63q-114 57 -114 150q0 10 1 21q18 124 159 201t393 77q236 0 339 -44t151 -170h-200q-30 80 -94 104t-208 24q-168 0 -261 -44t-109 -148 q-1 -6 0 -12q0 -46 42 -77q48 -35 114 -47t144 -12q286 0 407 -92q107 -81 107 -180q0 -13 -2 -26v-2q-24 -170 -170 -234t-430 -64q-450 0 -500 298z" />
<glyph unicode="t" horiz-adv-x="682" d="M200 212l102 726h-84l12 86h84l72 512h172l-72 -512h256l-12 -86h-256l-100 -712q-8 -54 -7 -87q0 -53 19 -53q76 0 236 88l-12 -90q-148 -84 -268 -84q-146 0 -146 154q0 27 4 58z" />
<glyph unicode="u" d="M146 426l84 598h170l-96 -682q-2 -13 -1 -25q0 -90 88 -156q101 -75 261 -75t283 75t137 181l96 682h170l-110 -776q-9 -66 -9 -105q0 -57 19 -57q50 0 146 48l-12 -92q-124 -42 -178 -42q-42 0 -65 14t-30 30t-22 30t-41 14q-16 0 -69 -22t-140 -44t-187 -22 q-260 0 -390 121q-108 101 -108 245q0 29 4 60z" />
<glyph unicode="v" d="M188 726l42 298h170l-72 -512q-3 -19 -2 -39q0 -107 82 -235q98 -152 244 -152t286 152t158 274l72 512h170l-42 -298q-14 -94 -69 -215t-138 -237t-204 -195t-245 -79q-126 0 -225 79t-148 196t-71 237q-13 73 -13 137q0 40 5 77z" />
<glyph unicode="w" horiz-adv-x="1962" d="M146 426l84 598h170l-96 -682q-3 -23 -3 -44q0 -84 51 -141q64 -71 214 -71q152 0 236 71t100 185l60 426h170l-60 -426q-3 -23 -3 -44q0 -84 51 -141q64 -71 214 -71q152 0 236 71t100 185l96 682h170l-84 -598q-14 -96 -45 -168t-90 -133t-158 -93t-237 -32 q-94 0 -158 21t-96 46t-86 83q-12 14 -20 20q-124 -98 -172 -124q-94 -46 -236 -46q-240 0 -337 118q-76 93 -76 231q0 37 5 77z" />
<glyph unicode="x" d="M86 0l30 214q18 134 87 219t221 125q-138 50 -182 146q-30 66 -30 152q0 39 6 82l12 86h170l-32 -234q-2 -13 -2 -25q0 -167 358 -167q384 0 412 192l32 234h170l-12 -86q-40 -290 -314 -380q140 -40 185 -125q32 -61 32 -146q0 -34 -5 -73l-30 -214h-170l48 342 q2 12 2 23q0 35 -19 62q-25 35 -78 53t-116 25t-149 7t-151 -7t-124 -25t-92 -53t-41 -85l-48 -342h-170z" />
<glyph unicode="y" d="M72 -170h146q38 -74 144 -123t230 -49q158 0 282 75t138 181l24 172q-180 -86 -396 -86q-260 0 -390 122q-108 102 -108 246q0 29 4 60l84 596h170l-96 -680q-2 -13 -2 -26q0 -91 89 -157q101 -75 261 -75t283 75t137 183l96 680h170l-144 -1024q-26 -184 -192 -305 t-422 -121q-192 0 -320 69t-188 187z" />
<glyph unicode="z" d="M86 0l784 798q58 60 64 96v6q0 38 -78 38h-596l12 86h1046l-926 -938h814l-12 -86h-1108z" />
<glyph unicode="{" horiz-adv-x="768" d="M162 544zM162 544l4 22q62 30 129 110t79 166l56 396q28 196 130 290t350 94l-12 -86q-150 0 -210 -50t-76 -164l-48 -340q-14 -94 -79 -216t-149 -190l-4 -42q64 -68 95 -190t17 -216l-48 -342q-16 -112 30 -162t196 -50l-12 -86q-248 0 -324 94t-48 290l56 394 q12 86 -33 167t-99 111zM166 566zM294 266zM374 842z" />
<glyph unicode="|" horiz-adv-x="340" d="M26 -426l288 2048l84 -2l-288 -2046h-84z" />
<glyph unicode="}" horiz-adv-x="768" d="M14 -512l12 86q150 0 210 50t76 162l48 342q14 94 79 216t149 190l4 42q-64 68 -95 190t-17 216l48 340q16 114 -30 164t-196 50l12 86q248 0 324 -94t48 -290l-56 -396q-12 -86 33 -166t99 -110l-4 -22q-62 -30 -129 -111t-79 -167l-56 -394q-28 -196 -130 -290 t-350 -94zM550 266zM630 842zM758 544zM762 566z" />
<glyph unicode="~" d="M290 854q8 56 35 120t86 121t131 57q86 0 146 -35t91 -86t55 -101t57 -85t81 -35q80 0 110 214h172q-8 -56 -35 -120t-86 -121t-131 -57q-96 0 -163 53t-96 117t-72 117t-99 53q-80 0 -110 -212h-172z" />
<glyph horiz-adv-x="1108" />
<glyph horiz-adv-x="1108" />
<glyph horiz-adv-x="1108" />
<glyph horiz-adv-x="1108" />
<glyph horiz-adv-x="1108" />
<glyph horiz-adv-x="1108" />
<glyph unicode="&#x85;" horiz-adv-x="1108" />
<glyph horiz-adv-x="1108" />
<glyph horiz-adv-x="1108" />
<glyph horiz-adv-x="1108" />
<glyph horiz-adv-x="1108" />
<glyph horiz-adv-x="1108" />
<glyph horiz-adv-x="1108" />
<glyph horiz-adv-x="1108" />
<glyph horiz-adv-x="1108" />
<glyph horiz-adv-x="1108" />
<glyph horiz-adv-x="1108" />
<glyph horiz-adv-x="1108" />
<glyph horiz-adv-x="1108" />
<glyph horiz-adv-x="1108" />
<glyph horiz-adv-x="1108" />
<glyph horiz-adv-x="1108" />
<glyph horiz-adv-x="1108" />
<glyph horiz-adv-x="1108" />
<glyph horiz-adv-x="1108" />
<glyph horiz-adv-x="1108" />
<glyph horiz-adv-x="1108" />
<glyph horiz-adv-x="1108" />
<glyph horiz-adv-x="1108" />
<glyph horiz-adv-x="1108" />
<glyph unicode="&#xa1;" horiz-adv-x="340" d="M26 -426l132 938h84l-132 -938h-84zM206 854l24 170h84l-24 -170h-84z" />
<glyph unicode="&#xa2;" d="M170 598l30 212q24 174 170 275t396 109l36 256h84l-36 -256q446 -16 492 -298h-150q14 94 -91 149t-263 65l-120 -852q154 10 280 84t140 170h150q-66 -146 -217 -239t-365 -103l-36 -256h-84l36 256q-242 12 -359 131t-93 297zM328 512q-14 -98 75 -172t231 -84 l120 854q-154 -10 -256 -65t-116 -149z" />
<glyph unicode="&#xa3;" horiz-adv-x="1024" d="M42 0l12 86h128l108 768h-128l12 84h128l30 214q54 384 610 384l-12 -86q-166 0 -283 -55t-131 -157l-42 -300h298l-12 -84h-298l-108 -768h512l-12 -86h-512q-86 0 -74 86q-12 -86 -98 -86h-128z" />
<glyph unicode="&#xa4;" horiz-adv-x="980" d="M170 596l210 182q-28 56 -20 118t52 118l-158 182l70 62l156 -184q62 36 124 36t112 -36l208 184l54 -62l-210 -182q28 -56 20 -118t-52 -118l158 -182l-70 -62l-158 184q-60 -36 -122 -36t-114 36l-206 -184zM446 896q-8 -52 25 -90t85 -38t95 38t51 90t-25 90t-85 38 t-95 -38t-51 -90z" />
<glyph unicode="&#xa5;" d="M254 1194l60 428h170l-72 -512q-18 -122 80 -275t244 -153t286 153t158 275l72 512h170l-60 -428q-16 -108 -86 -226t-196 -220t-268 -136l-14 -100h256l-12 -86h-256l-60 -426h-172l60 426h-256l12 86h256l14 100q-198 50 -304 231t-82 351z" />
<glyph unicode="&#xa6;" horiz-adv-x="340" d="M26 -426l96 682h84l-96 -682h-84zM218 938l96 684h84l-96 -684h-84z" />
<glyph unicode="&#xa7;" horiz-adv-x="1450" d="M76 -128h200q-14 -104 69 -159t243 -55q166 0 273 63t125 195q18 130 -61 202t-275 136q-240 78 -345 166t-91 198q16 108 137 217t325 163q-160 62 -216 136t-44 168q20 134 146 227t370 93q228 0 341 -75t137 -225h-200q30 214 -290 214q-156 0 -235 -57t-97 -177 q-14 -112 48 -167t230 -109q286 -94 401 -196t97 -230v-2q-20 -142 -129 -220t-329 -124q306 -128 274 -358v-2q-18 -124 -185 -222t-419 -98q-450 0 -500 298zM384 618q-14 -112 48 -166t230 -108l72 -24q170 4 304 77t152 203q18 128 -62 201t-274 135l-20 6 q-160 -6 -296 -106t-154 -218z" />
<glyph unicode="&#xa8;" horiz-adv-x="1536" d="M502 1450q4 36 34 61t64 25t56 -25t18 -61q-4 -34 -34 -59t-64 -25t-56 25t-18 59zM1186 1450q4 36 33 61t63 25q36 0 57 -25t17 -61q-4 -34 -33 -59t-65 -25q-34 0 -55 25t-17 59z" />
<glyph unicode="&#xa9;" horiz-adv-x="1962" d="M194 768q50 352 335 603t637 251t568 -251t166 -603t-336 -603t-638 -251t-567 251t-165 603zM278 768q-44 -312 152 -540t508 -228t572 228t304 540t-152 540t-508 228t-572 -228t-304 -540zM566 682l30 214q26 188 148 286t374 98q226 0 330 -73t128 -225h-158 q14 104 -68 158t-244 54q-156 0 -235 -53t-93 -159l-54 -384q-16 -114 48 -185t214 -71q156 0 259 73t119 183h158q-72 -162 -201 -252t-347 -90q-468 0 -408 426z" />
<glyph unicode="&#xaa;" d="M264 1262l18 128q14 108 125 170t295 62q186 0 278 -62t78 -170l-18 -128q-16 -110 -130 -183t-294 -73q-182 0 -275 73t-77 183zM386 1224q-8 -64 60 -109t178 -45q108 0 191 45t91 109l28 206q10 60 -59 94t-183 34q-116 0 -192 -33t-86 -95z" />
<glyph unicode="&#xab;" horiz-adv-x="1450" d="M188 726q298 382 381 468t165 86q36 0 57 -25t17 -61q-4 -34 -33 -59t-65 -25q-68 0 -100 -20q-36 -22 -80 -70t-192 -226q-36 -44 -58 -68q120 -222 157 -282t69 -84q28 -18 96 -18q36 0 57 -26t17 -60t-33 -60t-65 -26q-84 0 -142 87t-248 469zM786 726 q298 382 381 468t165 86q36 0 57 -25t17 -61q-4 -34 -33 -59t-65 -25q-68 0 -100 -20q-36 -22 -80 -70t-192 -226q-36 -44 -58 -68q120 -222 157 -282t69 -84q28 -18 96 -18q36 0 57 -26t17 -60t-33 -60t-65 -26q-84 0 -142 87t-248 469z" />
<glyph unicode="&#xad;" horiz-adv-x="1108" />
<glyph unicode="&#xae;" horiz-adv-x="2816" d="M194 768q50 352 335 603t637 251t568 -251t166 -603t-336 -603t-638 -251t-567 251t-165 603zM278 768q-44 -312 152 -540t508 -228t572 228t304 540t-152 540t-508 228t-572 -228t-304 -540zM574 278l146 1044h384q222 0 293 -71t49 -227v-2q-12 -88 -83 -145t-167 -83 q294 -60 252 -346l-22 -170h-128l32 234q14 96 -111 165t-241 69h-212l-64 -468h-128zM794 940q-10 -76 26 -92t170 -16q98 0 206 50t118 118l4 24q30 214 -270 214q-212 0 -236 -172z" />
<glyph unicode="&#xaf;" horiz-adv-x="1536" d="M386 1536l12 86h1110l-12 -86h-1110z" />
<glyph unicode="&#xb0;" horiz-adv-x="596" d="M272 1322q12 88 83 151t159 63t142 -63t42 -151t-84 -150t-160 -62q-86 0 -140 63t-42 149zM356 1322q-8 -52 25 -90t85 -38q54 0 96 38t50 90q8 54 -24 91t-86 37q-52 0 -95 -37t-51 -91z" />
<glyph unicode="&#xb1;" horiz-adv-x="1280" d="M86 0l12 86h1024l-12 -86h-1024zM206 854l12 84h426l72 512h170l-72 -512h428l-12 -84h-428l-72 -512h-170l72 512h-426z" />
<glyph unicode="&#xb2;" horiz-adv-x="1038" d="M172 700q756 614 776 742q18 128 -206 128q-198 0 -234 -102h-144q72 154 386 154q162 0 267 -50t89 -168q-18 -128 -674 -654h628l-8 -50h-880z" />
<glyph unicode="&#xb3;" horiz-adv-x="946" d="M220 956h162l-6 -52q-10 -66 44 -110t160 -44q226 0 244 128l36 256q10 70 -17 99t-131 29l6 52q66 0 90 25t32 81l10 70q6 44 -31 62t-125 18q-178 0 -210 -102h-162q40 80 130 117t250 37q174 0 244 -51t58 -129q-8 -68 -40 -100t-98 -52q170 -50 144 -232l-14 -102 q-16 -112 -130 -184t-294 -72q-182 0 -275 73t-77 183z" />
<glyph unicode="&#xb4;" horiz-adv-x="512" d="M306 1266q18 0 37 13t42 58t33 113q4 36 33 61t63 25q36 0 57 -25t17 -61q-16 -112 -117 -194t-151 -82q-28 0 -14 92z" />
<glyph unicode="&#xb5;" d="M38 -342l192 1366h170l-96 -682q-14 -106 87 -181t261 -75t283 75t137 181l96 682h170l-110 -776q-22 -162 10 -162q48 0 100 28l-12 -92q-58 -22 -132 -22q-56 0 -85 7t-35 16t-5 19t-6 17t-29 7q-4 0 -131 -33t-263 -33q-216 0 -372 86l-60 -428h-170z" />
<glyph unicode="&#xb6;" horiz-adv-x="1194" d="M268 1302q14 86 107 160t183 74h682l-276 -1962h-170l264 1876h-342l-264 -1876h-170l210 1492q-90 0 -163 74t-61 162z" />
<glyph unicode="&#xb7;" horiz-adv-x="512" d="M248 854q4 34 33 59t65 25q34 0 55 -25t17 -59q-6 -36 -34 -61t-62 -25q-36 0 -58 25t-16 61z" />
<glyph unicode="&#xb8;" horiz-adv-x="1620" d="M1110 0l12 90q24 0 83 -44t91 -106q30 -66 37 -99t-3 -95q-6 -48 -44 -68t-76 -20q-22 0 -42 6t-38 27t-14 55q4 32 43 76t41 70q8 48 -30 78t-60 30z" />
<glyph unicode="&#xb9;" horiz-adv-x="418" d="M248 1470l10 74l132 78h170l-130 -922h-170l120 848z" />
<glyph unicode="&#xba;" horiz-adv-x="1032" d="M264 1262l18 128q14 108 125 170t295 62q186 0 278 -62t78 -170l-18 -128q-16 -110 -130 -183t-294 -73q-182 0 -275 73t-77 183zM386 1224q-8 -64 60 -109t178 -45q108 0 191 45t91 109l28 206q10 60 -59 94t-183 34q-116 0 -192 -33t-86 -95z" />
<glyph unicode="&#xbb;" horiz-adv-x="1450" d="M122 256q4 34 33 60t63 26q70 0 100 18q38 22 80 69t190 223q40 48 62 74l-45 81t-39 69t-31 55t-26 46t-22 34t-19 29t-16 21t-17 17t-13 12q-26 20 -96 20q-34 0 -55 25t-17 59q4 36 33 61t63 25q84 0 141 -85t251 -469q-302 -386 -383 -471t-165 -85q-34 0 -55 26 t-17 60zM720 256q4 34 33 60t63 26q70 0 100 18q38 22 80 69t190 223q40 48 62 74l-45 81t-39 69t-31 55t-26 46t-22 34t-19 29t-16 21t-17 17t-13 12q-26 20 -96 20q-34 0 -55 25t-17 59q4 36 33 61t63 25q84 0 141 -85t251 -469q-302 -386 -383 -471t-165 -85 q-34 0 -55 26t-17 60z" />
<glyph unicode="&#xbc;" horiz-adv-x="1764" d="M222 264l1540 1298l60 -88l-1544 -1288zM298 1470l10 74l132 78h170l-130 -922h-170l120 848zM788 136l6 52l678 562h170l-80 -562h60l-6 -52h-60l-44 -306h-170l44 306h-598zM884 188h508l68 478z" />
<glyph unicode="&#xbd;" horiz-adv-x="1934" d="M222 264l1540 1298l60 -88l-1544 -1288zM298 1470l10 74l132 78h170l-130 -922h-170l120 848zM946 -172q756 614 776 742q18 128 -206 128q-198 0 -234 -102h-144q70 152 386 152q162 0 267 -49t87 -167q-18 -128 -674 -654h628l-6 -50h-880z" />
<glyph unicode="&#xbe;" horiz-adv-x="2104" d="M220 956h162l-6 -52q-10 -66 44 -110t160 -44q226 0 244 128l36 256q10 70 -17 99t-131 29l6 52q68 0 91 24t31 82l10 70q6 44 -31 62t-125 18q-178 0 -210 -102h-162q40 80 130 117t250 37q174 0 244 -51t58 -129q-8 -68 -40 -100t-98 -52q170 -50 144 -232l-14 -102 q-16 -112 -130 -184t-294 -72q-182 0 -275 73t-77 183zM562 264l1542 1298l60 -88l-1544 -1288zM1130 136l6 52l676 562h172l-80 -562h60l-6 -52h-60l-44 -306h-172l44 306h-596zM1224 188h508l68 478z" />
<glyph unicode="&#xbf;" horiz-adv-x="1280" d="M136 362q10 58 17 90t32 86t64 92t112 86t175 90q76 32 111 81t49 127l20 138h172v-2l-24 -164q-16 -70 -89 -131t-231 -139q-98 -48 -160 -148t-74 -186q-18 -130 63 -235t231 -105q162 0 266 56t118 158h158q-68 -150 -197 -224t-357 -74q-126 0 -222 41t-146 103 t-73 130t-15 130zM770 1536q4 34 34 60t64 26t56 -26t18 -60t-34 -60t-64 -26t-56 26t-18 60z" />
<glyph unicode="&#xc0;" d="M86 0l162 1152q26 180 186 282t422 102q264 0 394 -103t106 -281l-162 -1152h-170l120 854h-768l-120 -854h-170zM388 938h768l42 300q14 102 -87 157t-267 55t-283 -55t-131 -157zM708 2004q4 36 34 61t64 25t56 -25t18 -61q-10 -68 0 -113t25 -58t33 -13 q-14 -92 -42 -92q-50 0 -127 82t-61 194z" />
<glyph unicode="&#xc1;" d="M86 0l162 1152q26 180 186 282t422 102q264 0 394 -103t106 -281l-162 -1152h-170l120 854h-768l-120 -854h-170zM388 938h768l42 300q14 102 -87 157t-267 55t-283 -55t-131 -157zM854 1820q18 0 37 13t42 58t33 113q4 36 33 61t63 25q36 0 57 -25t17 -61 q-16 -112 -117 -194t-151 -82q-28 0 -14 92z" />
<glyph unicode="&#xc2;" d="M86 0l162 1152q26 180 186 282t422 102q264 0 394 -103t106 -281l-162 -1152h-170l120 854h-768l-120 -854h-170zM388 938h768l42 300q14 102 -87 157t-267 55t-283 -55t-131 -157zM406 1708q2 20 7 35t17 31t22 28t37 31t50 33t68 40t85 49t109 62t133 75 q50 -34 103 -71t85 -58t69 -46t55 -39t40 -31t30 -29t17 -25t11 -26t2 -27t-2 -32q-6 -36 -34 -61t-62 -25q-36 0 -58 25t-16 61q10 74 0 98q-6 8 -10 14l-8 12t-12 13t-14 12t-19 15t-23 16t-30 20t-35 25t-47 31t-54 36q-42 -22 -90 -49t-69 -39l-49 -28t-38 -23t-24 -18 t-21 -18t-17 -19q-18 -24 -28 -98q-6 -36 -35 -61t-63 -25q-36 0 -62 25t-20 61z" />
<glyph unicode="&#xc3;" d="M86 0l162 1152q26 180 186 282t422 102q264 0 394 -103t106 -281l-162 -1152h-170l120 854h-768l-120 -854h-170zM388 938h768l42 300q14 102 -87 157t-267 55t-283 -55t-131 -157zM416 1750q8 56 35 120t86 121t131 57q86 0 146 -35t90 -86t54 -101t57 -85t81 -35 q82 0 112 214h170q-8 -56 -35 -120t-85 -121t-130 -57q-80 0 -137 35t-90 85t-60 100t-62 85t-81 35q-82 0 -112 -212h-170z" />
<glyph unicode="&#xc4;" d="M86 0l162 1152q26 180 186 282t422 102q264 0 394 -103t106 -281l-162 -1152h-170l120 854h-768l-120 -854h-170zM388 938h768l42 300q14 102 -87 157t-267 55t-283 -55t-131 -157zM422 1792q4 36 34 61t64 25t56 -25t18 -61q-4 -34 -34 -59t-64 -25t-56 25t-18 59z M1106 1792q4 36 33 61t63 25q36 0 57 -25t17 -61q-4 -34 -33 -59t-65 -25q-34 0 -55 25t-17 59z" />
<glyph unicode="&#xc5;" d="M86 0l162 1152q26 180 186 282t422 102q264 0 394 -103t106 -281l-162 -1152h-170l120 854h-768l-120 -854h-170zM388 938h768l42 300q14 102 -87 157t-267 55t-283 -55t-131 -157zM680 1798q14 88 84 151t158 63t143 -63t42 -151t-85 -150t-160 -62q-86 0 -140 63 t-42 149zM764 1798q-6 -52 26 -90t84 -38q54 0 97 38t49 90q8 54 -24 91t-86 37q-52 0 -95 -37t-51 -91z" />
<glyph unicode="&#xc6;" horiz-adv-x="2304" d="M86 0l162 1152q26 180 186 282t422 102q176 0 372 -90l12 90h1110l-12 -86h-684q-68 0 -102 -3t-78 -15t-66 -42t-30 -80l-52 -372h684l-12 -84h-684l-88 -628q-8 -50 6 -80t55 -42t74 -15t101 -3h684l-12 -86h-1110l120 854h-768l-120 -854h-170zM388 938h768l42 300 q14 102 -87 157t-267 55t-283 -55t-131 -157z" />
<glyph unicode="&#xc7;" d="M146 426l102 726q26 180 186 282t422 102q238 0 381 -82t131 -216h-128q14 100 -105 156t-291 56q-166 0 -283 -55t-131 -157l-126 -896q-14 -106 87 -181t261 -75q164 0 306 76t156 180h128q-26 -114 -156 -208t-312 -124q36 -32 54 -70q30 -64 36 -97t-4 -97 q-6 -48 -43 -68t-75 -20q-22 0 -43 6t-39 27t-14 55q4 32 43 76t41 70q8 48 -29 78t-61 30q-260 0 -390 121t-104 305z" />
<glyph unicode="&#xc8;" d="M86 0l216 1536h1108l-12 -86h-682q-68 0 -102 -3t-78 -15t-66 -42t-30 -80l-52 -372h682l-12 -84h-682l-88 -628q-8 -50 6 -80t55 -42t74 -15t101 -3h682l-12 -86h-1108zM708 2004q4 36 34 61t64 25t56 -25t18 -61q-10 -68 0 -113t25 -58t33 -13q-14 -92 -42 -92 q-50 0 -127 82t-61 194z" />
<glyph unicode="&#xc9;" d="M86 0l216 1536h1108l-12 -86h-682q-68 0 -102 -3t-78 -15t-66 -42t-30 -80l-52 -372h682l-12 -84h-682l-88 -628q-8 -50 6 -80t55 -42t74 -15t101 -3h682l-12 -86h-1108zM854 1820q18 0 37 13t42 58t33 113q4 36 33 61t63 25q36 0 57 -25t17 -61q-16 -112 -117 -194 t-151 -82q-28 0 -14 92z" />
<glyph unicode="&#xca;" d="M86 0l216 1536h1108l-12 -86h-682q-68 0 -102 -3t-78 -15t-66 -42t-30 -80l-52 -372h682l-12 -84h-682l-88 -628q-8 -50 6 -80t55 -42t74 -15t101 -3h682l-12 -86h-1108zM410 1708q2 20 7 35t17 31t22 28t37 31t50 33t68 40t85 49t109 62t133 75q50 -34 103 -71t85 -58 t69 -46t55 -39t40 -31t30 -29t17 -25t11 -26t2 -27t-2 -32q-6 -36 -34 -61t-62 -25q-36 0 -58 25t-16 61q10 74 0 98q-6 8 -10 14l-8 12t-12 13t-14 12t-19 15t-23 16t-30 20t-35 25t-47 31t-54 36q-42 -22 -90 -49t-69 -39l-49 -28t-38 -23t-24 -18t-21 -18t-17 -19 q-18 -24 -28 -98q-6 -36 -35 -61t-63 -25q-36 0 -62 25t-20 61z" />
<glyph unicode="&#xcb;" d="M86 0l216 1536h1108l-12 -86h-682q-68 0 -102 -3t-78 -15t-66 -42t-30 -80l-52 -372h682l-12 -84h-682l-88 -628q-8 -50 6 -80t55 -42t74 -15t101 -3h682l-12 -86h-1108zM422 1792q4 36 34 61t64 25t56 -25t18 -61q-4 -34 -34 -59t-64 -25t-56 25t-18 59zM1106 1792 q4 36 33 61t63 25q36 0 57 -25t17 -61q-4 -34 -33 -59t-65 -25q-34 0 -55 25t-17 59z" />
<glyph unicode="&#xcc;" horiz-adv-x="426" d="M86 0l216 1536h170l-216 -1536h-170zM282 2004q4 36 34 61t64 25t56 -25t18 -61q-10 -68 0 -113t25 -58t33 -13q-14 -92 -42 -92q-50 0 -127 82t-61 194z" />
<glyph unicode="&#xcd;" horiz-adv-x="426" d="M86 0l216 1536h170l-216 -1536h-170zM426 1820q18 0 37 13t42 58t33 113q4 36 33 61t63 25q36 0 57 -25t17 -61q-16 -112 -117 -194t-151 -82q-28 0 -14 92z" />
<glyph unicode="&#xce;" horiz-adv-x="426" d="M68 1694q2 16 5 29t12 26t17 23t28 26t37 27t49 33t61 41t80 52t97 63q34 -30 72 -60t61 -48t49 -39t39 -32t28 -25t21 -24t12 -21t8 -22t1 -23t-3 -26q-4 -30 -25 -51t-45 -21q-26 0 -41 21t-11 51q10 62 2 82q-4 6 -7 11l-6 10t-8 11t-10 10t-14 12t-16 13t-21 17 t-25 21t-33 26t-38 29q-30 -18 -65 -40t-51 -32t-36 -24t-27 -19t-18 -15t-16 -15t-11 -15q-14 -20 -22 -82q-4 -30 -26 -51t-46 -21q-26 0 -44 21t-14 51zM86 0l216 1536h170l-216 -1536h-170z" />
<glyph unicode="&#xcf;" horiz-adv-x="426" d="M86 0l216 1536h170l-216 -1536h-170zM166 1792q4 36 33 61t65 25q34 0 55 -25t17 -61q-4 -34 -33 -59t-63 -25q-36 0 -57 25t-17 59zM508 1792q4 36 33 61t65 25q34 0 55 -25t17 -61q-4 -34 -33 -59t-63 -25q-36 0 -57 25t-17 59z" />
<glyph unicode="&#xd0;" d="M86 0l120 854h-86l12 84h86l84 598h554q264 0 394 -103t106 -281l-102 -726q-26 -184 -192 -305t-422 -121h-554zM288 226q-6 -34 3 -59t37 -40t54 -24t79 -12t87 -4t104 -1q160 0 283 75t137 181l126 896q14 102 -87 157t-267 55q-70 0 -104 -1t-89 -4t-83 -12t-60 -24 t-48 -40t-20 -59l-52 -372h342l-12 -84h-342z" />
<glyph unicode="&#xd1;" d="M86 0l216 1536h554q264 0 394 -103t106 -281l-162 -1152h-170l174 1238q14 102 -87 157t-267 55t-283 -55t-131 -157l-174 -1238h-170zM416 1750q8 56 35 120t86 121t131 57q86 0 146 -35t90 -86t54 -101t57 -85t81 -35q82 0 112 214h170q-8 -56 -35 -120t-85 -121 t-130 -57q-80 0 -137 35t-90 85t-60 100t-62 85t-81 35q-82 0 -112 -212h-170z" />
<glyph unicode="&#xd2;" d="M146 426l102 726q26 180 186 282t422 102q264 0 394 -103t106 -281l-102 -726q-26 -184 -192 -305t-422 -121q-260 0 -390 121t-104 305zM304 342q-14 -106 87 -181t261 -75t283 75t137 181l126 896q14 102 -87 157t-267 55t-283 -55t-131 -157zM708 2004q4 36 34 61 t64 25t56 -25t18 -61q-10 -68 0 -113t25 -58t33 -13q-14 -92 -42 -92q-50 0 -127 82t-61 194z" />
<glyph unicode="&#xd3;" d="M146 426l102 726q26 180 186 282t422 102q264 0 394 -103t106 -281l-102 -726q-26 -184 -192 -305t-422 -121q-260 0 -390 121t-104 305zM304 342q-14 -106 87 -181t261 -75t283 75t137 181l126 896q14 102 -87 157t-267 55t-283 -55t-131 -157zM854 1820q18 0 37 13 t42 58t33 113q4 36 33 61t63 25q36 0 57 -25t17 -61q-16 -112 -117 -194t-151 -82q-28 0 -14 92z" />
<glyph unicode="&#xd4;" d="M146 426l102 726q26 180 186 282t422 102q264 0 394 -103t106 -281l-102 -726q-26 -184 -192 -305t-422 -121q-260 0 -390 121t-104 305zM304 342q-14 -106 87 -181t261 -75t283 75t137 181l126 896q14 102 -87 157t-267 55t-283 -55t-131 -157zM406 1708q2 20 7 35 t17 31t22 28t37 31t50 33t68 40t85 49t109 62t133 75q50 -34 103 -71t85 -58t69 -46t55 -39t40 -31t30 -29t17 -25t11 -26t2 -27t-2 -32q-6 -36 -34 -61t-62 -25q-36 0 -58 25t-16 61q10 74 0 98q-6 8 -10 14l-8 12t-12 13t-14 12t-19 15t-23 16t-30 20t-35 25t-47 31 t-54 36q-42 -22 -90 -49t-69 -39l-49 -28t-38 -23t-24 -18t-21 -18t-17 -19q-18 -24 -28 -98q-6 -36 -35 -61t-63 -25q-36 0 -62 25t-20 61z" />
<glyph unicode="&#xd5;" d="M146 426l102 726q26 180 186 282t422 102q264 0 394 -103t106 -281l-102 -726q-26 -184 -192 -305t-422 -121q-260 0 -390 121t-104 305zM304 342q-14 -106 87 -181t261 -75t283 75t137 181l126 896q14 102 -87 157t-267 55t-283 -55t-131 -157zM438 1750q8 56 35 120 t86 121t131 57q86 0 146 -35t90 -86t54 -101t57 -85t81 -35q82 0 112 214h170q-8 -56 -35 -120t-85 -121t-130 -57q-80 0 -137 35t-90 85t-60 100t-62 85t-81 35q-82 0 -112 -212h-170z" />
<glyph unicode="&#xd6;" d="M146 426l102 726q26 180 186 282t422 102q264 0 394 -103t106 -281l-102 -726q-26 -184 -192 -305t-422 -121q-260 0 -390 121t-104 305zM304 342q-14 -106 87 -181t261 -75t283 75t137 181l126 896q14 102 -87 157t-267 55t-283 -55t-131 -157zM464 1792q4 36 34 61 t64 25t56 -25t18 -61q-4 -34 -34 -59t-64 -25t-56 25t-18 59zM1148 1792q4 36 33 61t63 25q36 0 57 -25t17 -61q-4 -34 -33 -59t-65 -25q-34 0 -55 25t-17 59z" />
<glyph unicode="&#xd7;" horiz-adv-x="980" d="M170 596l344 300l-260 300l70 62l258 -300l342 300l54 -62l-342 -300l258 -300l-70 -62l-258 302l-342 -302z" />
<glyph unicode="&#xd8;" d="M96 0l92 134q-74 70 -42 292l102 726q26 180 186 282t422 102q148 0 278 -38l88 124h116l-110 -156q90 -68 117 -137t11 -177l-102 -726q-26 -184 -192 -305t-422 -121q-218 0 -374 86l-60 -86h-110zM304 298l772 1114q-90 38 -232 38q-166 0 -283 -55t-131 -157 l-126 -896q-4 -22 0 -44zM348 200q98 -114 304 -114q160 0 283 75t137 181l126 896q10 74 -42 124z" />
<glyph unicode="&#xd9;" d="M146 426l156 1110h170l-168 -1194q-14 -106 87 -181t261 -75t283 75t137 181l168 1194h170l-184 -1310q-20 -140 12 -140q50 0 146 48l-12 -92q-124 -42 -178 -42q-60 0 -91 33t-69 33q-4 0 -131 -33t-263 -33q-260 0 -390 121t-104 305zM750 2004q4 36 34 61t64 25 t56 -25t18 -61q-10 -68 0 -113t25 -58t33 -13q-14 -92 -42 -92q-50 0 -127 82t-61 194z" />
<glyph unicode="&#xda;" d="M146 426l156 1110h170l-168 -1194q-14 -106 87 -181t261 -75t283 75t137 181l168 1194h170l-184 -1310q-20 -140 12 -140q50 0 146 48l-12 -92q-124 -42 -178 -42q-60 0 -91 33t-69 33q-4 0 -131 -33t-263 -33q-260 0 -390 121t-104 305zM854 1820q18 0 37 13t42 58 t33 113q4 36 33 61t63 25q36 0 57 -25t17 -61q-16 -112 -117 -194t-151 -82q-28 0 -14 92z" />
<glyph unicode="&#xdb;" d="M146 426l156 1110h170l-168 -1194q-14 -106 87 -181t261 -75t283 75t137 181l168 1194h170l-184 -1310q-20 -140 12 -140q50 0 146 48l-12 -92q-124 -42 -178 -42q-60 0 -91 33t-69 33q-4 0 -131 -33t-263 -33q-260 0 -390 121t-104 305zM406 1708q2 20 7 35t17 31t22 28 t37 31t50 33t68 40t85 49t109 62t133 75q50 -34 103 -71t85 -58t69 -46t55 -39t40 -31t30 -29t17 -25t11 -26t2 -27t-2 -32q-6 -36 -34 -61t-62 -25q-36 0 -58 25t-16 61q10 74 0 98q-6 8 -10 14l-8 12t-12 13t-14 12t-19 15t-23 16t-30 20t-35 25t-47 31t-54 36 q-42 -22 -90 -49t-69 -39l-49 -28t-38 -23t-24 -18t-21 -18t-17 -19q-18 -24 -28 -98q-6 -36 -35 -61t-63 -25q-36 0 -62 25t-20 61z" />
<glyph unicode="&#xdc;" d="M146 426l156 1110h170l-168 -1194q-14 -106 87 -181t261 -75t283 75t137 181l168 1194h170l-184 -1310q-20 -140 12 -140q50 0 146 48l-12 -92q-124 -42 -178 -42q-60 0 -91 33t-69 33q-4 0 -131 -33t-263 -33q-260 0 -390 121t-104 305zM464 1792q4 36 34 61t64 25 t56 -25t18 -61q-4 -34 -34 -59t-64 -25t-56 25t-18 59zM1148 1792q4 36 33 61t63 25q36 0 57 -25t17 -61q-4 -34 -33 -59t-65 -25q-34 0 -55 25t-17 59z" />
<glyph unicode="&#xdd;" d="M72 -170h146q38 -74 144 -123t230 -49q158 0 282 75t138 181l24 172q-180 -86 -396 -86q-260 0 -390 122t-104 306l156 1108h170l-168 -1192q-14 -108 87 -183t261 -75t283 75t137 183l168 1192h170l-216 -1536q-28 -204 -189 -315t-425 -111q-192 0 -320 69t-188 187z M854 1820q18 0 37 13t42 58t33 113q4 36 33 61t63 25q36 0 57 -25t17 -61q-16 -112 -117 -194t-151 -82q-28 0 -14 92z" />
<glyph unicode="&#xde;" d="M86 0l252 1792h170l-36 -256h384q264 0 394 -103t106 -281l-30 -214q-26 -184 -192 -305t-422 -121q-216 0 -372 86l-84 -598h-170zM376 854q-14 -106 87 -181t261 -75t283 75t137 181l54 384q14 102 -87 157t-267 55t-283 -55t-131 -157z" />
<glyph unicode="&#xdf;" d="M-146 -426l12 84q90 0 138 53t64 161l150 1066l24 172q26 188 159 307t369 119q76 0 149 -17t142 -56t105 -116t22 -181v-2q-18 -122 -62 -190t-136 -116q144 -42 216 -151t54 -237q-26 -190 -197 -330t-423 -140h-214l12 86h214q156 0 282 84t140 190l30 214 q16 102 -85 159t-267 57l10 84q216 14 250 244l12 98q16 108 -53 171t-213 63q-120 0 -220 -75t-114 -181l-36 -256l-138 -980q-12 -80 -25 -133t-40 -105t-68 -81t-107 -47t-156 -18z" />
<glyph unicode="&#xe0;" d="M146 426l30 214q26 180 186 282t422 102q264 0 394 -103t106 -281l-56 -392q-22 -162 10 -162q50 0 146 48l-12 -92q-124 -42 -178 -42q-42 0 -65 14t-30 30t-22 30t-41 14q-16 0 -69 -22t-140 -44t-187 -22q-260 0 -390 121t-104 305zM304 342q-14 -106 87 -181t261 -75 t283 75t137 181l54 384q14 102 -87 157t-267 55t-283 -55t-131 -157zM684 1536q4 36 34 61t64 25t56 -25t18 -61q-10 -68 0 -113t25 -58t33 -13q-12 -92 -40 -92q-50 0 -128 82t-62 194z" />
<glyph unicode="&#xe1;" d="M146 426l30 214q26 180 186 282t422 102q264 0 394 -103t106 -281l-56 -392q-22 -162 10 -162q50 0 146 48l-12 -92q-124 -42 -178 -42q-42 0 -65 14t-30 30t-22 30t-41 14q-16 0 -69 -22t-140 -44t-187 -22q-260 0 -390 121t-104 305zM304 342q-14 -106 87 -181t261 -75 t283 75t137 181l54 384q14 102 -87 157t-267 55t-283 -55t-131 -157zM788 1352q18 0 37 13t42 58t33 113q4 36 33 61t63 25q36 0 57 -25t17 -61q-16 -112 -116 -194t-150 -82q-28 0 -16 92z" />
<glyph unicode="&#xe2;" d="M146 426l30 214q26 180 186 282t422 102q264 0 394 -103t106 -281l-56 -392q-22 -162 10 -162q50 0 146 48l-12 -92q-124 -42 -178 -42q-42 0 -65 14t-30 30t-22 30t-41 14q-16 0 -69 -22t-140 -44t-187 -22q-260 0 -390 121t-104 305zM304 342q-14 -106 87 -181t261 -75 t283 75t137 181l54 384q14 102 -87 157t-267 55t-283 -55t-131 -157zM384 1238q2 20 7 35t17 31t22 28t37 31t50 33t68 40t85 49t109 62t133 75q50 -34 103 -71t85 -58t69 -46t55 -39t40 -31t30 -29t17 -25t11 -26t2 -27t-2 -32q-6 -36 -34 -61t-62 -25q-36 0 -58 25t-16 61 q10 74 0 98q-6 8 -10 14l-8 12t-12 13t-14 12t-19 15t-23 16t-30 20t-35 25t-47 31t-54 36q-42 -22 -90 -49t-70 -39t-49 -28t-37 -23t-24 -18t-21 -18t-17 -19q-18 -24 -28 -98q-6 -36 -35 -61t-63 -25q-36 0 -62 25t-20 61z" />
<glyph unicode="&#xe3;" d="M146 426l30 214q26 180 186 282t422 102q264 0 394 -103t106 -281l-56 -392q-22 -162 10 -162q50 0 146 48l-12 -92q-124 -42 -178 -42q-42 0 -65 14t-30 30t-22 30t-41 14q-16 0 -69 -22t-140 -44t-187 -22q-260 0 -390 121t-104 305zM304 342q-14 -106 87 -181t261 -75 t283 75t137 181l54 384q14 102 -87 157t-267 55t-283 -55t-131 -157zM400 1324q8 56 35 120t86 121t131 57q86 0 146 -35t90 -86t54 -101t57 -85t81 -35q82 0 112 214h170q-8 -56 -35 -120t-85 -121t-130 -57q-80 0 -137 35t-90 85t-60 100t-62 85t-81 35q-82 0 -112 -212 h-170z" />
<glyph unicode="&#xe4;" d="M146 426l30 214q26 180 186 282t422 102q264 0 394 -103t106 -281l-56 -392q-22 -162 10 -162q50 0 146 48l-12 -92q-124 -42 -178 -42q-42 0 -65 14t-30 30t-22 30t-41 14q-16 0 -69 -22t-140 -44t-187 -22q-260 0 -390 121t-104 305zM304 342q-14 -106 87 -181t261 -75 t283 75t137 181l54 384q14 102 -87 157t-267 55t-283 -55t-131 -157zM416 1450q4 36 34 61t64 25t56 -25t18 -61q-4 -34 -34 -59t-64 -25t-56 25t-18 59zM1100 1450q4 36 33 61t63 25q36 0 57 -25t17 -61q-4 -34 -33 -59t-65 -25q-34 0 -55 25t-17 59z" />
<glyph unicode="&#xe5;" d="M146 426l30 214q26 180 186 282t422 102q264 0 394 -103t106 -281l-56 -392q-22 -162 10 -162q50 0 146 48l-12 -92q-124 -42 -178 -42q-42 0 -65 14t-30 30t-22 30t-41 14q-16 0 -69 -22t-140 -44t-187 -22q-260 0 -390 121t-104 305zM304 342q-14 -106 87 -181t261 -75 t283 75t137 181l54 384q14 102 -87 157t-267 55t-283 -55t-131 -157zM604 1322q12 88 83 151t159 63t142 -63t42 -151t-84 -150t-160 -62q-86 0 -140 63t-42 149zM688 1322q-8 -52 25 -90t85 -38q54 0 96 38t50 90q8 54 -24 91t-86 37q-52 0 -95 -37t-51 -91z" />
<glyph unicode="&#xe6;" horiz-adv-x="2304" d="M144 406q16 128 158 166q98 26 422 26h384l18 128q14 102 -87 157t-267 55q-232 0 -344 -96l-80 94q182 88 436 88q278 0 448 -156q200 156 490 156q260 0 391 -121t105 -305l-12 -86h-940l-24 -170q-14 -106 88 -181t260 -75q164 0 278 56t136 156h172 q-64 -136 -218 -217t-380 -81q-212 0 -372 86l-12 -86q-34 0 -76 33t-84 33q-4 0 -131 -33t-263 -33q-256 0 -388 121t-108 285zM304 342q-14 -106 87 -181t261 -75t283 75t137 181l24 170h-384q-86 0 -151 -7t-124 -25t-92 -53t-41 -85zM1278 598h768l18 128 q14 102 -87 157t-267 55t-283 -56t-131 -156z" />
<glyph unicode="&#xe7;" d="M146 426l30 214q26 180 186 282t422 102q468 0 512 -298h-170q14 102 -87 157t-267 55t-283 -55t-131 -157l-54 -384q-14 -106 87 -181t261 -75t283 75t137 181h170q-56 -130 -177 -219t-291 -113q34 -28 52 -70q30 -64 37 -98t-3 -96q-6 -48 -43 -68t-75 -20 q-22 0 -43 6t-39 27t-14 55q4 32 43 76t41 70q8 48 -29 78t-61 30q-260 0 -390 121t-104 305z" />
<glyph unicode="&#xe8;" d="M146 426l30 214q26 180 186 282t422 102q260 0 390 -121t104 -305l-12 -86h-938l-24 -170q-14 -106 87 -181t261 -75q126 0 255 49t187 121h116q-204 -256 -570 -256q-260 0 -390 121t-104 305zM340 598h768l18 128q14 102 -87 157t-267 55t-283 -55t-131 -157zM684 1536 q4 36 34 61t64 25t56 -25t18 -61q-10 -68 0 -113t25 -58t33 -13q-12 -92 -40 -92q-50 0 -128 82t-62 194z" />
<glyph unicode="&#xe9;" d="M146 426l30 214q26 180 186 282t422 102q260 0 390 -121t104 -305l-12 -86h-938l-24 -170q-14 -106 87 -181t261 -75q126 0 255 49t187 121h116q-204 -256 -570 -256q-260 0 -390 121t-104 305zM340 598h768l18 128q14 102 -87 157t-267 55t-283 -55t-131 -157zM832 1352 q18 0 37 13t42 58t33 113q4 36 33 61t63 25q36 0 57 -25t17 -61q-16 -112 -116 -194t-150 -82q-28 0 -16 92z" />
<glyph unicode="&#xea;" d="M146 426l30 214q26 180 186 282t422 102q260 0 390 -121t104 -305l-12 -86h-938l-24 -170q-14 -106 87 -181t261 -75q126 0 255 49t187 121h116q-204 -256 -570 -256q-260 0 -390 121t-104 305zM340 598h768l18 128q14 102 -87 157t-267 55t-283 -55t-131 -157zM340 1238 q2 20 7 35t17 31t22 28t37 31t50 33t68 40t85 49t109 62t133 75q50 -34 103 -71t85 -58t69 -46t55 -39t40 -31t30 -29t17 -25t11 -26t2 -27t-2 -32q-6 -36 -34 -61t-62 -25q-36 0 -58 25t-16 61q10 74 0 98q-6 8 -10 14l-8 12t-12 13t-14 12t-19 15t-23 16t-30 20t-35 25 t-47 31t-54 36q-42 -22 -90 -49t-70 -39t-49 -28t-37 -23t-24 -18t-21 -18t-17 -19q-18 -24 -28 -98q-6 -36 -35 -61t-63 -25q-36 0 -62 25t-20 61z" />
<glyph unicode="&#xeb;" d="M146 426l30 214q26 180 186 282t422 102q260 0 390 -121t104 -305l-12 -86h-938l-24 -170q-14 -106 87 -181t261 -75q126 0 255 49t187 121h116q-204 -256 -570 -256q-260 0 -390 121t-104 305zM340 598h768l18 128q14 102 -87 157t-267 55t-283 -55t-131 -157zM416 1448 q4 36 34 61t64 25t56 -25t18 -61q-6 -34 -35 -59t-63 -25t-57 25t-17 59zM1100 1448q4 36 33 61t63 25q36 0 57 -25t17 -61q-6 -34 -34 -59t-64 -25q-34 0 -56 25t-16 59z" />
<glyph unicode="&#xec;" horiz-adv-x="560" d="M116 212l114 812h170l-112 -798q-20 -140 12 -140q76 0 236 88l-12 -90q-148 -84 -268 -84q-170 0 -140 212zM216 1534q4 36 34 61t64 25t56 -25t18 -61q-10 -68 0 -113t25 -58t33 -13q-14 -92 -42 -92q-50 0 -127 82t-61 194z" />
<glyph unicode="&#xed;" horiz-adv-x="560" d="M116 212l114 812h170l-112 -798q-20 -140 12 -140q76 0 236 88l-12 -90q-148 -84 -268 -84q-170 0 -140 212zM318 1352q18 0 37 13t42 58t33 113q4 36 33 61t63 25q36 0 57 -25t17 -61q-16 -112 -116 -194t-150 -82q-28 0 -16 92z" />
<glyph unicode="&#xee;" horiz-adv-x="560" d="M86 1232q4 20 8 35t14 31t18 28t29 31t40 33t54 40t67 49t87 62t105 75q36 -34 76 -71t65 -58t52 -46t40 -39t30 -31t23 -29t12 -25t8 -26t1 -27t-3 -32q-6 -36 -28 -61t-50 -25t-43 25t-11 61q10 74 4 98l-7 14l-6 12t-9 13t-11 12t-14 15t-17 16t-23 20t-26 25t-35 31 t-42 36q-32 -22 -70 -49t-55 -39t-39 -28t-30 -23t-19 -18t-17 -18t-14 -19q-14 -24 -24 -98q-6 -36 -29 -61t-49 -25q-28 0 -47 25t-15 61zM116 212l114 812h170l-112 -798q-20 -140 12 -140q76 0 236 88l-12 -90q-148 -84 -268 -84q-170 0 -140 212z" />
<glyph unicode="&#xef;" horiz-adv-x="560" d="M116 212l114 812h170l-112 -798q-20 -140 12 -140q76 0 236 88l-12 -90q-148 -84 -268 -84q-170 0 -140 212zM162 1450q4 36 33 61t65 25q34 0 55 -25t17 -61q-4 -34 -33 -59t-63 -25q-36 0 -57 25t-17 59zM630 1450q4 36 33 61t65 25q34 0 55 -25t17 -61q-4 -34 -33 -59 t-63 -25q-36 0 -57 25t-17 59z" />
<glyph unicode="&#xf0;" d="M146 426l30 214q26 180 186 282t422 102q96 0 150 -15t132 -51q14 -6 22 -10l-344 400l-150 -132l-52 62l150 130l-114 130l70 62l112 -130l148 130l54 -62l-148 -130l406 -476q34 -40 56 -117t8 -175l-30 -214q-26 -184 -192 -305t-422 -121q-260 0 -390 121t-104 305z M304 342q-14 -106 87 -181t261 -75t283 75t137 181l54 384q14 102 -87 157t-267 55t-283 -55t-131 -157z" />
<glyph unicode="&#xf1;" d="M86 0l144 1024h170l-10 -68q174 68 394 68q264 0 394 -103t106 -281l-58 -414q-20 -140 12 -140q50 0 146 48l-12 -92q-124 -42 -178 -42q-170 0 -140 214l72 512q14 102 -87 157t-267 55t-283 -55t-131 -157l-102 -726h-170zM356 1324q8 56 35 120t86 121t131 57 q86 0 146 -35t90 -86t54 -101t57 -85t81 -35q82 0 112 214h170q-8 -56 -35 -120t-85 -121t-130 -57q-80 0 -137 35t-90 85t-60 100t-62 85t-81 35q-82 0 -112 -212h-170z" />
<glyph unicode="&#xf2;" d="M146 426l30 214q26 180 186 282t422 102q264 0 394 -103t106 -281l-30 -214q-26 -184 -192 -305t-422 -121q-260 0 -390 121t-104 305zM304 342q-14 -106 87 -181t261 -75t283 75t137 181l54 384q14 102 -87 157t-267 55t-283 -55t-131 -157zM726 1528q6 36 35 61t63 25 t57 -25t17 -61q-8 -68 1 -113t24 -58t33 -13q-12 -92 -40 -92q-50 0 -127 82t-63 194z" />
<glyph unicode="&#xf3;" d="M146 426l30 214q26 180 186 282t422 102q264 0 394 -103t106 -281l-30 -214q-26 -184 -192 -305t-422 -121q-260 0 -390 121t-104 305zM304 342q-14 -106 87 -181t261 -75t283 75t137 181l54 384q14 102 -87 157t-267 55t-283 -55t-131 -157zM744 1352q18 0 37 13t42 58 t33 113q4 36 33 61t63 25q36 0 57 -25t17 -61q-16 -112 -116 -194t-150 -82q-28 0 -16 92z" />
<glyph unicode="&#xf4;" d="M146 426l30 214q26 180 186 282t422 102q264 0 394 -103t106 -281l-30 -214q-26 -184 -192 -305t-422 -121q-260 0 -390 121t-104 305zM304 342q-14 -106 87 -181t261 -75t283 75t137 181l54 384q14 102 -87 157t-267 55t-283 -55t-131 -157zM340 1232q2 20 6 35t16 31 t23 28t38 31t50 33t67 40t85 49t110 62t133 75q48 -34 102 -71t86 -58t69 -46t55 -39t39 -31t29 -29t18 -25t12 -26t2 -27t-2 -32q-6 -36 -34 -61t-62 -25q-36 0 -58 25t-16 61q10 74 -2 98q-4 8 -8 14l-8 12t-12 13t-15 12t-19 15t-22 16t-30 20t-36 25t-47 31t-55 36 q-40 -22 -88 -49t-70 -39t-49 -28t-37 -23t-25 -18t-22 -18t-17 -19q-16 -24 -26 -98q-6 -36 -35 -61t-63 -25q-36 0 -62 25t-20 61z" />
<glyph unicode="&#xf5;" d="M146 426l30 214q26 180 186 282t422 102q264 0 394 -103t106 -281l-30 -214q-26 -184 -192 -305t-422 -121q-260 0 -390 121t-104 305zM304 342q-14 -106 87 -181t261 -75t283 75t137 181l54 384q14 102 -87 157t-267 55t-283 -55t-131 -157zM356 1324q8 56 35 120 t86 121t131 57q86 0 146 -35t90 -86t54 -101t57 -85t81 -35q82 0 112 214h170q-8 -56 -35 -120t-85 -121t-130 -57q-80 0 -137 35t-90 85t-60 100t-62 85t-81 35q-82 0 -112 -212h-170z" />
<glyph unicode="&#xf6;" d="M146 426l30 214q26 180 186 282t422 102q264 0 394 -103t106 -281l-30 -214q-26 -184 -192 -305t-422 -121q-260 0 -390 121t-104 305zM304 342q-14 -106 87 -181t261 -75t283 75t137 181l54 384q14 102 -87 157t-267 55t-283 -55t-131 -157zM416 1450q4 36 34 61t64 25 t56 -25t18 -61q-4 -34 -34 -59t-64 -25t-56 25t-18 59zM1100 1450q4 36 33 61t63 25q36 0 57 -25t17 -61q-4 -34 -33 -59t-65 -25q-34 0 -55 25t-17 59z" />
<glyph unicode="&#xf7;" d="M206 854l12 84h1108l-12 -84h-1108zM578 470q8 52 51 90t95 38t85 -38t25 -90q-8 -54 -51 -91t-95 -37t-85 37t-25 91zM710 1408q8 52 51 90t95 38t85 -38t25 -90t-51 -90t-95 -38t-85 38t-25 90z" />
<glyph unicode="&#xf8;" horiz-adv-x="1536" d="M230 426l30 214q26 180 187 282t423 102q116 0 208 -20l72 106h116l-90 -128q116 -64 163 -144t31 -198l-30 -214q-26 -184 -192 -305t-422 -121q-114 0 -210 24l-76 -110h-110l94 140q-228 128 -194 372zM390 342q-16 -116 102 -190l530 770q-82 16 -164 16 q-166 0 -283 -55t-131 -157zM574 110q74 -24 164 -24q158 0 282 75t138 181l54 384q14 104 -98 164z" />
<glyph unicode="&#xf9;" d="M146 426l84 598h170l-96 -682q-14 -106 87 -181t261 -75t283 75t137 181l96 682h170l-110 -776q-22 -162 10 -162q50 0 146 48l-12 -92q-124 -42 -178 -42q-42 0 -65 14t-30 30t-22 30t-41 14q-16 0 -69 -22t-140 -44t-187 -22q-260 0 -390 121t-104 305zM684 1536 q4 36 34 61t64 25t56 -25t18 -61q-10 -68 0 -113t25 -58t33 -13q-12 -92 -40 -92q-50 0 -128 82t-62 194z" />
<glyph unicode="&#xfa;" d="M146 426l84 598h170l-96 -682q-14 -106 87 -181t261 -75t283 75t137 181l96 682h170l-110 -776q-22 -162 10 -162q50 0 146 48l-12 -92q-124 -42 -178 -42q-42 0 -65 14t-30 30t-22 30t-41 14q-16 0 -69 -22t-140 -44t-187 -22q-260 0 -390 121t-104 305zM744 1352 q18 0 37 13t42 58t33 113q4 36 33 61t63 25q36 0 57 -25t17 -61q-16 -112 -116 -194t-150 -82q-28 0 -16 92z" />
<glyph unicode="&#xfb;" d="M146 426l84 598h170l-96 -682q-14 -106 87 -181t261 -75t283 75t137 181l96 682h170l-110 -776q-22 -162 10 -162q50 0 146 48l-12 -92q-124 -42 -178 -42q-42 0 -65 14t-30 30t-22 30t-41 14q-16 0 -69 -22t-140 -44t-187 -22q-260 0 -390 121t-104 305zM340 1238 q2 20 7 35t17 31t22 28t37 31t50 33t68 40t85 49t109 62t133 75q50 -34 103 -71t85 -58t69 -46t55 -39t40 -31t30 -29t17 -25t11 -26t2 -27t-2 -32q-6 -36 -34 -61t-62 -25q-36 0 -58 25t-16 61q10 74 0 98q-6 8 -10 14l-8 12t-12 13t-14 12t-19 15t-23 16t-30 20t-35 25 t-47 31t-54 36q-42 -22 -90 -49t-70 -39t-49 -28t-37 -23t-24 -18t-21 -18t-17 -19q-18 -24 -28 -98q-6 -36 -35 -61t-63 -25q-36 0 -62 25t-20 61z" />
<glyph unicode="&#xfc;" d="M146 426l84 598h170l-96 -682q-14 -106 87 -181t261 -75t283 75t137 181l96 682h170l-110 -776q-22 -162 10 -162q50 0 146 48l-12 -92q-124 -42 -178 -42q-42 0 -65 14t-30 30t-22 30t-41 14q-16 0 -69 -22t-140 -44t-187 -22q-260 0 -390 121t-104 305zM416 1450 q4 36 34 61t64 25t56 -25t18 -61q-4 -34 -34 -59t-64 -25t-56 25t-18 59zM1100 1450q4 36 33 61t63 25q36 0 57 -25t17 -61q-4 -34 -33 -59t-65 -25q-34 0 -55 25t-17 59z" />
<glyph unicode="&#xfd;" d="M72 -170h146q38 -74 144 -123t230 -49q158 0 282 75t138 181l24 172q-180 -86 -396 -86q-260 0 -390 122t-104 306l84 596h170l-96 -680q-14 -108 87 -183t261 -75t283 75t137 183l96 680h170l-144 -1024q-26 -184 -192 -305t-422 -121q-192 0 -320 69t-188 187z M744 1352q18 0 37 13t42 58t33 113q4 36 33 61t63 25q36 0 57 -25t17 -61q-16 -112 -116 -194t-150 -82q-28 0 -16 92z" />
<glyph unicode="&#xfe;" d="M26 -426l276 1962h170l-82 -580q174 68 394 68q264 0 394 -103t106 -281l-30 -214q-26 -184 -192 -305t-422 -121q-216 0 -372 86l-72 -512h-170zM304 342q-14 -106 87 -181t261 -75t283 75t137 181l54 384q14 102 -87 157t-267 55t-283 -55t-131 -157z" />
<glyph unicode="&#xff;" d="M72 -170h146q38 -74 144 -123t230 -49q158 0 282 75t138 181l24 172q-180 -86 -396 -86q-260 0 -390 122t-104 306l84 596h170l-96 -680q-14 -108 87 -183t261 -75t283 75t137 183l96 680h170l-144 -1024q-26 -184 -192 -305t-422 -121q-192 0 -320 69t-188 187z M416 1450q4 36 34 61t64 25t56 -25t18 -61q-4 -34 -34 -59t-64 -25t-56 25t-18 59zM1100 1450q4 36 33 61t63 25q36 0 57 -25t17 -61q-4 -34 -33 -59t-65 -25q-34 0 -55 25t-17 59z" />
<glyph unicode="&#x100;" d="M86 0l162 1152q26 180 186 282t422 102q264 0 394 -103t106 -281l-162 -1152h-170l120 854h-768l-120 -854h-170zM324 1706l12 86h1110l-12 -86h-1110zM388 938h768l42 300q14 102 -87 157t-267 55t-283 -55t-131 -157z" />
<glyph unicode="&#x101;" d="M146 426l30 214q26 180 186 282t422 102q264 0 394 -103t106 -281l-56 -392q-22 -162 10 -162q50 0 146 48l-12 -92q-124 -42 -178 -42q-42 0 -65 14t-30 30t-22 30t-41 14q-16 0 -69 -22t-140 -44t-187 -22q-260 0 -390 121t-104 305zM304 342q-14 -106 87 -181t261 -75 t283 75t137 181l54 384q14 102 -87 157t-267 55t-283 -55t-131 -157zM414 1366l12 86h972l-12 -86h-972z" />
<glyph unicode="&#x102;" d="M86 0l162 1152q26 180 186 282t422 102q264 0 394 -103t106 -281l-162 -1152h-170l120 854h-768l-120 -854h-170zM388 938h768l42 300q14 102 -87 157t-267 55t-283 -55t-131 -157zM452 2004q4 36 37 61t69 25q34 0 56 -25t18 -61q-2 -12 -11 -48t-11 -50q-8 -58 72 -136 t200 -78q118 0 220 79t110 135q2 14 4 50t4 48q4 36 33 61t65 25q34 0 55 -25t17 -61q-16 -106 -174 -245t-344 -139q-100 0 -186 43t-137 105t-77 126t-20 110z" />
<glyph unicode="&#x103;" d="M146 426l30 214q26 180 186 282t422 102q264 0 394 -103t106 -281l-56 -392q-22 -162 10 -162q50 0 146 48l-12 -92q-124 -42 -178 -42q-42 0 -65 14t-30 30t-22 30t-41 14q-16 0 -69 -22t-140 -44t-187 -22q-260 0 -390 121t-104 305zM304 342q-14 -106 87 -181t261 -75 t283 75t137 181l54 384q14 102 -87 157t-267 55t-283 -55t-131 -157zM430 1536q4 36 37 61t69 25q34 0 56 -25t18 -61q-2 -12 -11 -48t-11 -50q-8 -58 72 -136t200 -78q118 0 220 79t110 135q2 14 4 50t4 48q4 36 33 61t65 25q34 0 55 -25t17 -61q-16 -106 -174 -245 t-344 -139q-100 0 -186 43t-137 105t-77 126t-20 110z" />
<glyph unicode="&#x104;" d="M86 0l162 1152q26 180 186 282t422 102q264 0 394 -103t106 -281l-162 -1152h-170q-24 0 -69 -30t-53 -78q-2 -26 23 -70t21 -76q-6 -48 -44 -68t-76 -20q-22 0 -43 6t-38 27t-13 55q10 62 25 96t65 98q48 62 119 104t95 42l108 768h-768l-120 -854h-170zM388 938h768 l42 300q14 102 -87 157t-267 55t-283 -55t-131 -157z" />
<glyph unicode="&#x105;" d="M146 426l30 214q26 180 186 282t422 102q264 0 394 -103t106 -281l-56 -392q-22 -162 10 -162q50 0 146 48l-12 -92q-108 -34 -156 -40q-30 -6 -72 -34t-50 -76q-2 -26 23 -70t21 -76q-6 -48 -44 -68t-76 -20q-22 0 -43 6t-38 27t-13 55q10 62 25 96t65 98q34 44 96 90 q-4 6 -13 19t-14 20t-17 13t-30 6q-16 0 -69 -22t-140 -44t-187 -22q-260 0 -390 121t-104 305zM304 342q-14 -106 87 -181t261 -75t283 75t137 181l54 384q14 102 -87 157t-267 55t-283 -55t-131 -157z" />
<glyph unicode="&#x106;" d="M146 426l102 726q26 180 186 282t422 102q238 0 381 -82t131 -216h-128q14 100 -105 156t-291 56q-166 0 -283 -55t-131 -157l-126 -896q-14 -106 87 -181t261 -75q164 0 306 76t156 180h128q-32 -136 -204 -239t-398 -103q-260 0 -390 121t-104 305zM830 1864 q18 0 37 13t42 58t33 113q4 36 33 61t63 25q36 0 57 -25t17 -61q-16 -112 -116 -194t-150 -82q-28 0 -16 92z" />
<glyph unicode="&#x107;" d="M146 426l30 214q26 180 186 282t422 102q468 0 512 -298h-170q14 102 -87 157t-267 55t-283 -55t-131 -157l-54 -384q-14 -106 87 -181t261 -75t283 75t137 181h170q-70 -154 -224 -248t-378 -94q-260 0 -390 121t-104 305zM788 1352q18 0 37 13t42 58t33 113q4 36 33 61 t63 25q36 0 57 -25t17 -61q-16 -112 -116 -194t-150 -82q-28 0 -16 92z" />
<glyph unicode="&#x108;" d="M146 426l102 726q26 180 186 282t422 102q238 0 381 -82t131 -216h-128q14 100 -105 156t-291 56q-166 0 -283 -55t-131 -157l-126 -896q-14 -106 87 -181t261 -75q164 0 306 76t156 180h128q-32 -136 -204 -239t-398 -103q-260 0 -390 121t-104 305zM406 1708q2 20 7 35 t17 31t22 28t37 31t50 33t68 40t85 49t109 62t133 75q50 -34 103 -71t85 -58t69 -46t55 -39t40 -31t30 -29t17 -25t11 -26t2 -27t-2 -32q-6 -36 -34 -61t-62 -25q-36 0 -58 25t-16 61q10 74 0 98q-6 8 -10 14l-8 12t-12 13t-14 12t-19 15t-23 16t-30 20t-35 25t-47 31 t-54 36q-42 -22 -90 -49t-69 -39l-49 -28t-38 -23t-24 -18t-21 -18t-17 -19q-18 -24 -28 -98q-6 -36 -35 -61t-63 -25q-36 0 -62 25t-20 61z" />
<glyph unicode="&#x109;" d="M146 426l30 214q26 180 186 282t422 102q468 0 512 -298h-170q14 102 -87 157t-267 55t-283 -55t-131 -157l-54 -384q-14 -106 87 -181t261 -75t283 75t137 181h170q-70 -154 -224 -248t-378 -94q-260 0 -390 121t-104 305zM332 1232q2 20 6 35t16 31t23 28t38 31t50 33 t67 40t85 49t110 62t133 75q48 -34 102 -71t86 -58t69 -46t55 -39t39 -31t29 -29t18 -25t12 -26t2 -27t-2 -32q-6 -36 -34 -61t-62 -25q-36 0 -58 25t-16 61q10 74 -2 98q-4 8 -8 14l-8 12t-12 13t-15 12t-19 15t-22 16t-30 20t-36 25t-47 31t-55 36q-40 -22 -88 -49 t-70 -39t-49 -28t-37 -23t-25 -18t-22 -18t-17 -19q-16 -24 -26 -98q-6 -36 -35 -61t-63 -25q-36 0 -62 25t-20 61z" />
<glyph unicode="&#x10a;" d="M146 426l102 726q26 180 186 282t422 102q238 0 381 -82t131 -216h-128q14 100 -105 156t-291 56q-166 0 -283 -55t-131 -157l-126 -896q-14 -106 87 -181t261 -75q164 0 306 76t156 180h128q-32 -136 -204 -239t-398 -103q-260 0 -390 121t-104 305zM810 1828 q6 36 34 61t64 25q34 0 56 -25t16 -61q-4 -34 -32 -59t-62 -25q-36 0 -58 25t-18 59z" />
<glyph unicode="&#x10b;" d="M146 426l30 214q26 180 186 282t422 102q468 0 512 -298h-170q14 102 -87 157t-267 55t-283 -55t-131 -157l-54 -384q-14 -106 87 -181t261 -75t283 75t137 181h170q-70 -154 -224 -248t-378 -94q-260 0 -390 121t-104 305zM758 1450q4 36 33 61t65 25q34 0 55 -25 t17 -61q-4 -34 -33 -59t-63 -25q-36 0 -57 25t-17 59z" />
<glyph unicode="&#x10c;" d="M146 426l102 726q26 180 186 282t422 102q238 0 381 -82t131 -216h-128q14 100 -105 156t-291 56q-166 0 -283 -55t-131 -157l-126 -896q-14 -106 87 -181t261 -75q164 0 306 76t156 180h128q-32 -136 -204 -239t-398 -103q-260 0 -390 121t-104 305zM444 1969q0 15 4 35 q4 36 37 61t69 25q34 0 56 -25t18 -61q-10 -74 0 -98q6 -12 11 -19t17 -18t20 -18t30 -23t41 -28t59 -39t74 -49q28 16 65 36t56 31t43 25t36 20t27 16t23 15t18 12t16 13t11 12t13 14q18 24 28 98q4 36 33 61t65 25q34 0 55 -25t17 -61q-2 -18 -6 -32t-10 -27t-19 -26 l-25 -25t-38 -29t-48 -31t-66 -39t-82 -46t-102 -58t-122 -71q-54 36 -112 75t-92 62t-71 49t-56 40t-41 33t-29 31t-15 28t-8 31z" />
<glyph unicode="&#x10d;" d="M146 426l30 214q26 180 186 282t422 102q468 0 512 -298h-170q14 102 -87 157t-267 55t-283 -55t-131 -157l-54 -384q-14 -106 87 -181t261 -75t283 75t137 181h170q-70 -154 -224 -248t-378 -94q-260 0 -390 121t-104 305zM371 1501q1 15 3 35q4 36 37 61t69 25 q34 0 56 -25t18 -61q-10 -74 0 -98q6 -12 11 -19t17 -18t20 -18t30 -23t41 -28t59 -39t74 -49q30 16 66 36t55 31t43 25t36 20t27 16t23 15t18 12t16 13t11 12t13 14q18 24 28 98q4 36 33 61t65 25q34 0 55 -25t17 -61q-2 -18 -6 -32t-10 -27t-19 -26l-25 -25t-38 -29 t-48 -31t-66 -39t-81 -46t-102 -58t-123 -71q-54 36 -112 75t-92 62t-71 49t-56 40t-41 33t-29 31t-15 28t-7 31z" />
<glyph unicode="&#x10e;" d="M86 0l216 1536h554q264 0 394 -103t106 -281l-102 -726q-26 -184 -192 -305t-422 -121h-554zM288 226q-6 -34 3 -59t37 -40t54 -24t79 -12t87 -4t104 -1q160 0 283 75t137 181l126 896q14 102 -87 157t-267 55q-70 0 -104 -1t-89 -4t-83 -12t-60 -24t-48 -40t-20 -59z M444 1969q0 15 4 35q4 36 37 61t69 25q34 0 56 -25t18 -61q-10 -74 0 -98q6 -12 11 -19t17 -18t20 -18t30 -23t41 -28t59 -39t74 -49q28 16 65 36t56 31t43 25t36 20t27 16t23 15t18 12t16 13t11 12t13 14q18 24 28 98q4 36 33 61t65 25q34 0 55 -25t17 -61q-2 -18 -6 -32 t-10 -27t-19 -26l-25 -25t-38 -29t-48 -31t-66 -39t-82 -46t-102 -58t-122 -71q-54 36 -112 75t-92 62t-71 49t-56 40t-41 33t-29 31t-15 28t-8 31z" />
<glyph unicode="&#x10f;" horiz-adv-x="1706" d="M146 426l30 214q26 180 186 282t422 102q216 0 372 -86l84 598h170l-182 -1288q-22 -162 10 -162q50 0 146 48l-12 -92q-124 -42 -178 -42q-56 0 -88 44t-70 44q-66 0 -169 -44t-227 -44q-260 0 -390 121t-104 305zM304 342q-14 -106 87 -181t261 -75t283 75t137 181 l54 384q14 102 -87 157t-267 55t-283 -55t-131 -157zM1488 1174l14 92q18 0 37 13t41 58t32 113q4 36 34 61t64 25t56 -25t18 -61q-16 -112 -130 -194t-166 -82z" />
<glyph unicode="&#x110;" d="M86 0l120 854h-86l12 84h86l84 598h554q264 0 394 -103t106 -281l-102 -726q-26 -184 -192 -305t-422 -121h-554zM288 226q-6 -34 3 -59t37 -40t54 -24t79 -12t87 -4t104 -1q160 0 283 75t137 181l126 896q14 102 -87 157t-267 55q-70 0 -104 -1t-89 -4t-83 -12t-60 -24 t-48 -40t-20 -59l-52 -372h342l-12 -84h-342z" />
<glyph unicode="&#x111;" horiz-adv-x="1450" d="M146 426l30 214q26 180 186 282t422 102q216 0 372 -86l36 256h-512l12 86h512l36 256h170l-36 -256h86l-12 -86h-86l-168 -1194q-54 0 -82 7t-33 16t-4 19t-7 17t-34 7q-66 0 -168 -33t-226 -33q-260 0 -390 121t-104 305zM304 342q-14 -106 87 -181t261 -75t283 75 t137 181l54 384q14 102 -87 157t-267 55t-283 -55t-131 -157z" />
<glyph unicode="&#x112;" d="M86 0l216 1536h1108l-12 -86h-682q-68 0 -102 -3t-78 -15t-66 -42t-30 -80l-52 -372h682l-12 -84h-682l-88 -628q-8 -50 6 -80t55 -42t74 -15t101 -3h682l-12 -86h-1108zM324 1706l12 86h1110l-12 -86h-1110z" />
<glyph unicode="&#x113;" d="M146 426l30 214q26 180 186 282t422 102q260 0 390 -121t104 -305l-12 -86h-938l-24 -170q-14 -106 87 -181t261 -75q126 0 255 49t187 121h116q-204 -256 -570 -256q-260 0 -390 121t-104 305zM276 1366l12 86h1110l-12 -86h-1110zM340 598h768l18 128q14 102 -87 157 t-267 55t-283 -55t-131 -157z" />
<glyph unicode="&#x114;" d="M86 0l216 1536h1108l-12 -86h-682q-68 0 -102 -3t-78 -15t-66 -42t-30 -80l-52 -372h682l-12 -84h-682l-88 -628q-8 -50 6 -80t55 -42t74 -15t101 -3h682l-12 -86h-1108zM538 2004q4 36 37 61t69 25q34 0 56 -25t18 -61q-2 -12 -11 -48t-11 -50q-8 -58 72 -136t200 -78 q118 0 220 79t110 135q2 14 4 50t4 48q4 36 33 61t65 25q34 0 55 -25t17 -61q-16 -106 -174 -245t-344 -139q-100 0 -186 43t-137 105t-77 126t-20 110z" />
<glyph unicode="&#x115;" d="M146 426l30 214q26 180 186 282t422 102q260 0 390 -121t104 -305l-12 -86h-938l-24 -170q-14 -106 87 -181t261 -75q126 0 255 49t187 121h116q-204 -256 -570 -256q-260 0 -390 121t-104 305zM340 598h768l18 128q14 102 -87 157t-267 55t-283 -55t-131 -157zM472 1536 q4 36 37 61t69 25q34 0 56 -25t18 -61q-2 -12 -11 -48t-11 -50q-8 -58 72 -136t200 -78q118 0 220 79t110 135q2 14 4 50t4 48q4 36 33 61t65 25q34 0 55 -25t17 -61q-16 -106 -174 -245t-344 -139q-100 0 -186 43t-137 105t-77 126t-20 110z" />
<glyph unicode="&#x116;" d="M86 0l216 1536h1108l-12 -86h-682q-68 0 -102 -3t-78 -15t-66 -42t-30 -80l-52 -372h682l-12 -84h-682l-88 -628q-8 -50 6 -80t55 -42t74 -15t101 -3h682l-12 -86h-1108zM896 1828q6 36 34 61t64 25q34 0 56 -25t16 -61q-4 -34 -32 -59t-62 -25q-36 0 -58 25t-18 59z" />
<glyph unicode="&#x117;" d="M146 426l30 214q26 180 186 282t422 102q260 0 390 -121t104 -305l-12 -86h-938l-24 -170q-14 -106 87 -181t261 -75q126 0 255 49t187 121h116q-204 -256 -570 -256q-260 0 -390 121t-104 305zM340 598h768l18 128q14 102 -87 157t-267 55t-283 -55t-131 -157zM758 1450 q4 36 33 61t65 25q34 0 55 -25t17 -61q-4 -34 -33 -59t-63 -25q-36 0 -57 25t-17 59z" />
<glyph unicode="&#x118;" d="M86 0l216 1536h1108l-12 -86h-682q-68 0 -102 -3t-78 -15t-66 -42t-30 -80l-52 -372h682l-12 -84h-682l-88 -628q-8 -50 6 -80t55 -42t74 -15t101 -3h682l-12 -86h-114q-30 -8 -69 -42t-45 -78q-4 -24 22 -68t20 -76q-6 -50 -44 -69t-76 -19q-106 0 -94 88q10 62 26 96 t64 98q20 26 70 70h-868z" />
<glyph unicode="&#x119;" d="M146 426l30 214q26 180 186 282t422 102q260 0 390 -121t104 -305l-12 -86h-938l-24 -170q-14 -106 87 -181t261 -75q126 0 255 49t187 121h116q-122 -152 -304 -214q-34 -26 -71 -74t-41 -88q-4 -24 22 -68t20 -76q-6 -50 -43 -69t-75 -19q-106 0 -94 88q10 58 25 91 t65 103q30 42 66 80q-72 -10 -140 -10q-260 0 -390 121t-104 305zM340 598h768l18 128q14 102 -87 157t-267 55t-283 -55t-131 -157z" />
<glyph unicode="&#x11a;" d="M86 0l216 1536h1108l-12 -86h-682q-68 0 -102 -3t-78 -15t-66 -42t-30 -80l-52 -372h682l-12 -84h-682l-88 -628q-8 -50 6 -80t55 -42t74 -15t101 -3h682l-12 -86h-1108zM444 1969q0 15 4 35q4 36 37 61t69 25q34 0 56 -25t18 -61q-10 -74 0 -98q6 -12 11 -19t17 -18 t20 -18t30 -23t41 -28t59 -39t74 -49q28 16 65 36t56 31t43 25t36 20t27 16t23 15t18 12t16 13t11 12t13 14q18 24 28 98q4 36 33 61t65 25q34 0 55 -25t17 -61q-2 -18 -6 -32t-10 -27t-19 -26l-25 -25t-38 -29t-48 -31t-66 -39t-82 -46t-102 -58t-122 -71q-54 36 -112 75 t-92 62t-71 49t-56 40t-41 33t-29 31t-15 28t-8 31z" />
<glyph unicode="&#x11b;" d="M146 426l30 214q26 180 186 282t422 102q260 0 390 -121t104 -305l-12 -86h-938l-24 -170q-14 -106 87 -181t261 -75q126 0 255 49t187 121h116q-204 -256 -570 -256q-260 0 -390 121t-104 305zM340 598h768l18 128q14 102 -87 157t-267 55t-283 -55t-131 -157zM375 1501 q1 15 3 35q4 36 37 61t69 25q34 0 56 -25t18 -61q-10 -74 0 -98q6 -12 11 -19t17 -18t20 -18t30 -23t41 -28t59 -39t74 -49q30 16 66 36t55 31t43 25t36 20t27 16t23 15t18 12t16 13t11 12t13 14q18 24 28 98q4 36 33 61t65 25q34 0 55 -25t17 -61q-2 -18 -6 -32t-10 -27 t-19 -26l-25 -25t-38 -29t-48 -31t-66 -39t-81 -46t-102 -58t-123 -71q-54 36 -112 75t-92 62t-71 49t-56 40t-41 33t-29 31t-15 28t-7 31z" />
<glyph unicode="&#x11c;" d="M86 -86h158q-14 -106 88 -181t260 -75t282 75t138 181l24 172q-180 -86 -396 -86q-260 0 -390 121t-104 305l102 726q26 180 186 282t422 102q264 0 394 -103t106 -281l-6 -42h-170l18 128q14 102 -87 157t-267 55t-283 -55t-131 -157l-126 -896q-14 -106 87 -181 t261 -75t283 75t137 181l48 340h170l-96 -682q-26 -184 -192 -305t-422 -121q-224 0 -347 93t-147 247zM406 1708q2 20 7 35t17 31t22 28t37 31t50 33t68 40t85 49t109 62t133 75q50 -34 103 -71t85 -58t69 -46t55 -39t40 -31t30 -29t17 -25t11 -26t2 -27t-2 -32 q-6 -36 -34 -61t-62 -25q-36 0 -58 25t-16 61q10 74 0 98q-6 8 -10 14l-8 12t-12 13t-14 12t-19 15t-23 16t-30 20t-35 25t-47 31t-54 36q-42 -22 -90 -49t-69 -39l-49 -28t-38 -23t-24 -18t-21 -18t-17 -19q-18 -24 -28 -98q-6 -36 -35 -61t-63 -25q-36 0 -62 25t-20 61z " />
<glyph unicode="&#x11d;" d="M72 -170h146q38 -74 144 -123t230 -49q158 0 282 75t138 181l24 172q-180 -86 -396 -86q-260 0 -390 121t-104 305l30 214q26 180 186 282t422 102q264 0 394 -103t106 -281l-90 -640q-26 -184 -192 -305t-422 -121q-192 0 -320 69t-188 187zM304 342q-14 -106 87 -181 t261 -75t283 75t137 181l54 384q14 102 -87 157t-267 55t-283 -55t-131 -157zM340 1238q2 20 7 35t17 31t22 28t37 31t50 33t68 40t85 49t109 62t133 75q50 -34 103 -71t85 -58t69 -46t55 -39t40 -31t30 -29t17 -25t11 -26t2 -27t-2 -32q-6 -36 -34 -61t-62 -25 q-36 0 -58 25t-16 61q10 74 0 98q-6 8 -10 14l-8 12t-12 13t-14 12t-19 15t-23 16t-30 20t-35 25t-47 31t-54 36q-42 -22 -90 -49t-70 -39t-49 -28t-37 -23t-24 -18t-21 -18t-17 -19q-18 -24 -28 -98q-6 -36 -35 -61t-63 -25q-36 0 -62 25t-20 61z" />
<glyph unicode="&#x11e;" d="M86 -86h158q-14 -106 88 -181t260 -75t282 75t138 181l24 172q-180 -86 -396 -86q-260 0 -390 121t-104 305l102 726q26 180 186 282t422 102q264 0 394 -103t106 -281l-6 -42h-170l18 128q14 102 -87 157t-267 55t-283 -55t-131 -157l-126 -896q-14 -106 87 -181 t261 -75t283 75t137 181l48 340h170l-96 -682q-26 -184 -192 -305t-422 -121q-224 0 -347 93t-147 247zM452 2004q4 36 37 61t69 25q34 0 56 -25t18 -61q-2 -12 -11 -48t-11 -50q-8 -58 72 -136t200 -78q118 0 220 79t110 135q2 14 4 50t4 48q4 36 33 61t65 25q34 0 55 -25 t17 -61q-16 -106 -174 -245t-344 -139q-100 0 -186 43t-137 105t-77 126t-20 110z" />
<glyph unicode="&#x11f;" d="M72 -170h146q38 -74 144 -123t230 -49q158 0 282 75t138 181l24 172q-180 -86 -396 -86q-260 0 -390 121t-104 305l30 214q26 180 186 282t422 102q264 0 394 -103t106 -281l-90 -640q-26 -184 -192 -305t-422 -121q-192 0 -320 69t-188 187zM304 342q-14 -106 87 -181 t261 -75t283 75t137 181l54 384q14 102 -87 157t-267 55t-283 -55t-131 -157zM386 1536q4 36 37 61t69 25q34 0 56 -25t18 -61q-2 -12 -11 -48t-11 -50q-8 -58 72 -136t200 -78q118 0 220 79t110 135q2 14 4 50t4 48q4 36 33 61t65 25q34 0 55 -25t17 -61 q-16 -106 -174 -245t-344 -139q-100 0 -186 43t-137 105t-77 126t-20 110z" />
<glyph unicode="&#x120;" d="M86 -86h158q-14 -106 88 -181t260 -75t282 75t138 181l24 172q-180 -86 -396 -86q-260 0 -390 121t-104 305l102 726q26 180 186 282t422 102q264 0 394 -103t106 -281l-6 -42h-170l18 128q14 102 -87 157t-267 55t-283 -55t-131 -157l-126 -896q-14 -106 87 -181 t261 -75t283 75t137 181l48 340h170l-96 -682q-26 -184 -192 -305t-422 -121q-224 0 -347 93t-147 247zM806 1792q4 36 33 61t65 25q34 0 55 -25t17 -61q-4 -34 -33 -59t-63 -25q-36 0 -57 25t-17 59z" />
<glyph unicode="&#x121;" d="M72 -170h146q38 -74 144 -123t230 -49q158 0 282 75t138 181l24 172q-180 -86 -396 -86q-260 0 -390 121t-104 305l30 214q26 180 186 282t422 102q264 0 394 -103t106 -281l-90 -640q-26 -184 -192 -305t-422 -121q-192 0 -320 69t-188 187zM304 342q-14 -106 87 -181 t261 -75t283 75t137 181l54 384q14 102 -87 157t-267 55t-283 -55t-131 -157zM758 1450q4 36 33 61t65 25q34 0 55 -25t17 -61q-4 -34 -33 -59t-63 -25q-36 0 -57 25t-17 59z" />
<glyph unicode="&#x122;" d="M86 -86h158q-14 -106 88 -181t260 -75t282 75t138 181l24 172q-180 -86 -396 -86q-260 0 -390 121t-104 305l102 726q26 180 186 282t422 102q264 0 394 -103t106 -281l-6 -42h-170l18 128q14 102 -87 157t-267 55t-283 -55t-131 -157l-126 -896q-14 -106 87 -181 t261 -75t283 75t137 181l48 340h170l-96 -682q-26 -184 -192 -305t-422 -121q-224 0 -347 93t-147 247zM778 1888l12 92q28 0 81 -31t100 -100t37 -147q-6 -34 -34 -59t-64 -25q-34 0 -56 25t-16 59q10 70 -1 115t-26 58t-33 13z" />
<glyph unicode="&#x123;" d="M72 -170h146q38 -74 144 -123t230 -49q158 0 282 75t138 181l24 172q-180 -86 -396 -86q-260 0 -390 121t-104 305l30 214q26 180 186 282t422 102q264 0 394 -103t106 -281l-90 -640q-26 -184 -192 -305t-422 -121q-192 0 -320 69t-188 187zM304 342q-14 -106 87 -181 t261 -75t283 75t137 181l54 384q14 102 -87 157t-267 55t-283 -55t-131 -157zM732 1258l14 92q18 0 37 13t41 58t32 113q4 36 34 61t64 25t56 -25t18 -61q-16 -112 -130 -194t-166 -82z" />
<glyph unicode="&#x124;" d="M86 0l216 1536h170l-84 -598h768l84 598h170l-216 -1536h-170l120 854h-768l-120 -854h-170zM406 1708q2 20 7 35t17 31t22 28t37 31t50 33t68 40t85 49t109 62t133 75q50 -34 103 -71t85 -58t69 -46t55 -39t40 -31t30 -29t17 -25t11 -26t2 -27t-2 -32q-6 -36 -34 -61 t-62 -25q-36 0 -58 25t-16 61q10 74 0 98q-6 8 -10 14l-8 12t-12 13t-14 12t-19 15t-23 16t-30 20t-35 25t-47 31t-54 36q-42 -22 -90 -49t-69 -39l-49 -28t-38 -23t-24 -18t-21 -18t-17 -19q-18 -24 -28 -98q-6 -36 -35 -61t-63 -25q-36 0 -62 25t-20 61z" />
<glyph unicode="&#x125;" d="M86 0l216 1536h170l-82 -580q174 68 394 68q264 0 394 -103t106 -281l-58 -414q-20 -140 12 -140q50 0 146 48l-12 -92q-124 -42 -178 -42q-170 0 -140 214l72 512q14 102 -87 157t-267 55t-283 -55t-131 -157l-102 -726h-170zM406 1708q2 20 7 35t17 31t22 28t37 31 t50 33t68 40t85 49t109 62t133 75q50 -34 103 -71t85 -58t69 -46t55 -39t40 -31t30 -29t17 -25t11 -26t2 -27t-2 -32q-6 -36 -34 -61t-62 -25q-36 0 -58 25t-16 61q10 74 0 98q-6 8 -10 14l-8 12t-12 13t-14 12t-19 15t-23 16t-30 20t-35 25t-47 31t-54 36q-42 -22 -90 -49 t-69 -39l-49 -28t-38 -23t-24 -18t-21 -18t-17 -19q-18 -24 -28 -98q-6 -36 -35 -61t-63 -25q-36 0 -62 25t-20 61z" />
<glyph unicode="&#x126;" horiz-adv-x="1536" d="M170 0l168 1194h-84l12 86h84l36 256h172l-36 -256h768l36 256h170l-36 -256h86l-12 -86h-86l-168 -1194h-170l120 854h-768l-120 -854h-172zM474 938h768l36 256h-768z" />
<glyph unicode="&#x127;" d="M86 0l168 1194h-86l12 86h86l36 256h170l-36 -256h598l-12 -86h-598l-34 -238q174 68 394 68q264 0 394 -103t106 -281l-90 -640h-170l102 726q14 102 -87 157t-267 55t-283 -55t-131 -157l-102 -726h-170z" />
<glyph unicode="&#x128;" horiz-adv-x="426" d="M86 0l216 1536h170l-216 -1536h-170zM246 1750q14 98 51 198t85 100t75 -53t33 -118t22 -118t42 -53q36 0 62 192l4 22h76q-14 -100 -51 -199t-85 -99q-44 0 -71 53t-35 117t-23 117t-41 53q-36 0 -60 -172l-6 -40h-78z" />
<glyph unicode="&#x129;" horiz-adv-x="640" d="M116 212l114 812h170l-112 -798q-20 -140 12 -140q76 0 236 88l-12 -90q-148 -84 -268 -84q-170 0 -140 212zM196 1322q14 96 60 198t110 102t104 -53t51 -118t34 -118t59 -53q48 0 78 214h106q-14 -96 -61 -198t-111 -102q-58 0 -97 53t-53 118t-38 118t-58 53 q-48 0 -78 -214h-106z" />
<glyph unicode="&#x12a;" horiz-adv-x="426" d="M86 0l216 1536h170l-216 -1536h-170zM172 1706l12 86h512l-12 -86h-512z" />
<glyph unicode="&#x12b;" horiz-adv-x="596" d="M116 212l114 812h170l-112 -798q-20 -140 12 -140q76 0 236 88l-12 -90q-148 -84 -268 -84q-170 0 -140 212zM234 1366l12 84h470l-12 -84h-470z" />
<glyph unicode="&#x12c;" horiz-adv-x="426" d="M86 0l216 1536h170l-216 -1536h-170zM184 1906q4 26 22 45t38 19q18 0 30 -19t8 -45q-2 -8 -8 -35t-8 -37q-6 -44 36 -101t108 -57q64 0 122 58t62 100q2 10 4 37t4 35q4 26 20 45t36 19q18 0 29 -19t7 -45q-10 -78 -100 -181t-192 -103q-54 0 -100 32t-72 78t-39 93 t-7 81z" />
<glyph unicode="&#x12d;" horiz-adv-x="596" d="M116 212l114 812h170l-112 -798q-20 -140 12 -140q76 0 236 88l-12 -90q-148 -84 -268 -84q-170 0 -140 212zM178 1560q2 24 26 43t50 19t41 -18t13 -44q-2 -10 -8 -37t-8 -37q-6 -44 51 -102t145 -58q84 0 159 59t81 101q2 10 4 37t4 37q2 26 23 44t47 18t41 -18t13 -44 q-12 -80 -126 -183t-252 -103t-227 103t-77 183z" />
<glyph unicode="&#x12e;" horiz-adv-x="426" d="M-36 -254q10 62 25 96t65 98q16 22 56 60h-24l216 1536h170l-216 -1536q-24 0 -69 -30t-53 -78q-2 -26 23 -70t21 -76q-6 -48 -44 -68t-76 -20q-22 0 -43 6t-38 27t-13 55z" />
<glyph unicode="&#x12f;" horiz-adv-x="596" d="M6 -254q10 62 25 95t65 99q28 36 80 78q-82 42 -60 194l114 812h170l-112 -798q-20 -140 12 -140q76 0 236 88l-12 -90q-128 -72 -236 -84q-34 -8 -70 -37t-42 -71q-2 -26 23 -70t21 -76q-6 -48 -43 -68t-75 -20q-22 0 -43 6t-39 27t-14 55zM290 1450q4 36 33 61t63 25 q36 0 57 -25t17 -61q-4 -34 -33 -59t-65 -25q-34 0 -55 25t-17 59z" />
<glyph unicode="&#x130;" horiz-adv-x="426" d="M86 0l216 1536h170l-216 -1536h-170zM338 1792q4 36 33 61t65 25q34 0 55 -25t17 -61q-4 -34 -33 -59t-63 -25q-36 0 -57 25t-17 59z" />
<glyph unicode="&#x131;" horiz-adv-x="596" d="M116 212l114 812h170l-112 -798q-20 -140 12 -140q76 0 236 88l-12 -90q-148 -84 -268 -84q-170 0 -140 212z" />
<glyph unicode="&#x132;" horiz-adv-x="938" d="M86 0l216 1536h170l-216 -1536h-170zM368 -408l14 92q46 -26 136 -26q32 0 52 142l232 1650h-172l12 86h342l-246 -1752q-30 -210 -200 -210q-122 0 -170 18z" />
<glyph unicode="&#x133;" horiz-adv-x="1024" d="M116 212l114 812h170l-112 -798q-20 -140 12 -140q76 0 236 88l-12 -90q-148 -84 -268 -84q-170 0 -140 212zM290 1450q4 36 33 61t63 25q36 0 57 -25t17 -61q-4 -34 -33 -59t-65 -25q-34 0 -55 25t-17 59zM496 -408l14 92q46 -26 92 -26q32 0 52 142l172 1224h172 l-174 -1240q-30 -210 -202 -210q-78 0 -126 18zM886 1450q4 36 34 61t64 25t56 -25t18 -61q-4 -34 -34 -59t-64 -25t-56 25t-18 59z" />
<glyph unicode="&#x134;" horiz-adv-x="596" d="M26 -408l14 92q46 -26 134 -26q32 0 52 142l232 1650h-170l12 86h340l-246 -1752q-30 -210 -200 -210q-120 0 -168 18zM160 1706q2 20 6 35t13 31t17 28t28 31t37 33t51 40t63 49t81 62t98 75q34 -34 72 -71t60 -58t47 -46t37 -39t27 -31t21 -29t12 -25t7 -26t0 -27 t-3 -32q-4 -36 -26 -61t-46 -25q-26 0 -40 25t-10 61q10 74 4 98q-4 8 -6 14t-5 12t-9 13t-10 12t-13 15t-16 16t-21 20t-24 25t-32 31t-38 36q-30 -22 -66 -49l-52 -39t-36 -28t-28 -23t-18 -18t-16 -18t-12 -19q-14 -24 -24 -98q-6 -36 -28 -61t-46 -25q-26 0 -44 25 t-12 61z" />
<glyph unicode="&#x135;" horiz-adv-x="512" d="M-58 -408l14 92q46 -26 92 -26q32 0 52 142l172 1224h170l-174 -1240q-30 -210 -200 -210q-76 0 -126 18zM18 1238q4 26 9 44t20 39t30 36t52 45t67 53t96 73t122 94q40 -40 87 -86t70 -68t50 -50t37 -43l22 -33t14 -33t3 -32t-3 -39q-6 -36 -27 -61t-47 -25t-41 25 t-9 61q10 74 4 98q-4 8 -7 15t-6 15t-8 13t-13 15t-14 16l-21 21t-27 26l-36 33t-40 40q-34 -26 -75 -57t-57 -43t-37 -28t-28 -24t-15 -19t-16 -23q-18 -28 -28 -98q-6 -36 -26 -61t-46 -25t-44 25t-12 61z" />
<glyph unicode="&#x136;" d="M86 0l216 1536h170l-52 -370l926 370l54 -72l-510 -216q472 -48 418 -438l-82 -584q-20 -140 12 -140q50 0 146 48l-12 -92q-124 -42 -178 -42q-170 0 -140 212v2l96 682q18 128 -98 205t-354 77l-292 -110l-150 -1068h-170zM484 -362l12 92q18 0 37 13t41 58t32 113 q4 36 34 61t64 25t56 -25t18 -61q-16 -112 -129 -194t-165 -82z" />
<glyph unicode="&#x137;" d="M86 0l216 1536h170l-124 -882l926 370l54 -72l-472 -190q200 -30 307 -123t89 -233l-26 -180q-20 -140 12 -140q50 0 146 48l-12 -92q-124 -42 -178 -42q-170 0 -140 214l32 234q16 100 -120 172t-302 72l-330 -136l-78 -556h-170zM484 -362l12 92q18 0 37 13t41 58 t32 113q4 36 34 61t64 25t56 -25t18 -61q-16 -112 -129 -194t-165 -82z" />
<glyph unicode="&#x138;" d="M86 0l144 1024h170l-52 -370l926 370l54 -72l-472 -190q200 -30 307 -123t89 -233l-26 -180q-20 -140 12 -140q50 0 146 48l-12 -92q-124 -42 -178 -42q-170 0 -140 214l32 234q16 100 -120 172t-302 72l-330 -136l-78 -556h-170z" />
<glyph unicode="&#x139;" horiz-adv-x="1108" d="M86 0l12 86l204 1450h170l-204 -1450h682l-12 -86h-682h-170zM500 1820q18 0 37 13t42 58t33 113q4 36 33 61t63 25q36 0 57 -25t17 -61q-16 -112 -117 -194t-151 -82q-28 0 -14 92z" />
<glyph unicode="&#x13a;" horiz-adv-x="596" d="M116 212l186 1324h170l-184 -1310q-20 -140 12 -140q76 0 236 88l-12 -90q-148 -84 -268 -84q-170 0 -140 212zM470 1820q18 0 37 13t42 58t33 113q4 36 33 61t63 25q36 0 57 -25t17 -61q-16 -112 -117 -194t-151 -82q-28 0 -14 92z" />
<glyph unicode="&#x13b;" horiz-adv-x="1108" d="M86 0l12 86l204 1450h170l-204 -1450h682l-12 -86h-682h-170zM282 -424l12 76q18 0 36 11t39 49t29 96q6 30 35 51t63 21t57 -21t17 -51q-12 -94 -124 -163t-164 -69z" />
<glyph unicode="&#x13c;" horiz-adv-x="596" d="M112 -424l12 76q18 0 36 11t39 49t29 96q6 30 35 51t63 21t57 -21t17 -51q-12 -94 -124 -163t-164 -69zM116 212l186 1324h170l-184 -1310q-20 -140 12 -140q76 0 236 88l-12 -90q-148 -84 -268 -84q-170 0 -140 212z" />
<glyph unicode="&#x13d;" horiz-adv-x="1108" d="M86 0l12 86l204 1450h170l-204 -1450h682l-12 -86h-682h-170zM762 1174l14 92q18 0 37 13t41 58t32 113q4 36 34 61t64 25t56 -25t18 -61q-16 -112 -130 -194t-166 -82z" />
<glyph unicode="&#x13e;" horiz-adv-x="852" d="M116 212l186 1324h170l-184 -1310q-20 -140 12 -140q76 0 236 88l-12 -90q-148 -84 -268 -84q-170 0 -140 212zM592 1174l14 92q18 0 37 13t41 58t32 113q4 36 34 61t64 25t56 -25t18 -61q-16 -112 -130 -194t-166 -82z" />
<glyph unicode="&#x13f;" horiz-adv-x="1108" d="M86 0l12 86l204 1450h170l-204 -1450h682l-12 -86h-682h-170zM668 812q4 34 33 59t65 25q34 0 55 -25t17 -59q-4 -36 -33 -61t-63 -25q-36 0 -57 25t-17 61z" />
<glyph unicode="&#x140;" horiz-adv-x="596" d="M116 212l186 1324h170l-184 -1310q-20 -140 12 -140q76 0 236 88l-12 -90q-148 -84 -268 -84q-170 0 -140 212zM590 854q4 34 33 59t65 25q34 0 55 -25t17 -59q-6 -36 -34 -61t-62 -25q-36 0 -58 25t-16 61z" />
<glyph unicode="&#x141;" horiz-adv-x="1024" d="M86 0l12 86l204 1450h170l-98 -696l426 242l36 -72l-476 -270l-92 -654h598l-12 -86h-598h-170z" />
<glyph unicode="&#x142;" horiz-adv-x="596" d="M116 212l174 1238h-86l12 86h512l-12 -86h-256l-172 -1224q-20 -140 12 -140q76 0 236 88l-12 -90q-148 -84 -268 -84q-170 0 -140 212z" />
<glyph unicode="&#x143;" d="M86 0l216 1536h554q264 0 394 -103t106 -281l-162 -1152h-170l174 1238q14 102 -87 157t-267 55t-283 -55t-131 -157l-174 -1238h-170zM854 1820q18 0 37 13t42 58t33 113q4 36 33 61t63 25q36 0 57 -25t17 -61q-16 -112 -117 -194t-151 -82q-28 0 -14 92z" />
<glyph unicode="&#x144;" d="M86 0l144 1024h170l-10 -68q174 68 394 68q264 0 394 -103t106 -281l-58 -414q-20 -140 12 -140q50 0 146 48l-12 -92q-124 -42 -178 -42q-170 0 -140 214l72 512q14 102 -87 157t-267 55t-283 -55t-131 -157l-102 -726h-170zM788 1352q18 0 37 13t42 58t33 113 q4 36 33 61t63 25q36 0 57 -25t17 -61q-16 -112 -116 -194t-150 -82q-28 0 -16 92z" />
<glyph unicode="&#x145;" d="M86 0l216 1536h554q264 0 394 -103t106 -281l-162 -1152h-170l174 1238q14 102 -87 157t-267 55t-283 -55t-131 -157l-174 -1238h-170zM484 -362l12 92q18 0 37 13t41 58t32 113q4 36 34 61t64 25t56 -25t18 -61q-16 -112 -129 -194t-165 -82z" />
<glyph unicode="&#x146;" d="M86 0l144 1024h170l-10 -68q174 68 394 68q264 0 394 -103t106 -281l-58 -414q-20 -140 12 -140q50 0 146 48l-12 -92q-124 -42 -178 -42q-170 0 -140 214l72 512q14 102 -87 157t-267 55t-283 -55t-131 -157l-102 -726h-170zM484 -362l12 92q18 0 37 13t41 58t32 113 q4 36 34 61t64 25t56 -25t18 -61q-16 -112 -129 -194t-165 -82z" />
<glyph unicode="&#x147;" d="M86 0l216 1536h554q264 0 394 -103t106 -281l-162 -1152h-170l174 1238q14 102 -87 157t-267 55t-283 -55t-131 -157l-174 -1238h-170zM440 1969q0 15 4 35q4 36 37 61t69 25q34 0 56 -25t18 -61q-10 -74 0 -98q6 -12 11 -19t17 -18t20 -18t30 -23t41 -28t59 -39t74 -49 q28 16 65 36t56 31t43 25t36 20t27 16t23 15t18 12t16 13t11 12t13 14q18 24 28 98q4 36 33 61t65 25q34 0 55 -25t17 -61q-2 -18 -6 -32t-10 -27t-19 -26l-25 -25t-38 -29t-48 -31t-66 -39t-82 -46t-102 -58t-122 -71q-54 36 -112 75t-92 62t-71 49t-56 40t-41 33t-29 31 t-15 28t-8 31z" />
<glyph unicode="&#x148;" d="M86 0l144 1024h170l-10 -68q174 68 394 68q264 0 394 -103t106 -281l-58 -414q-20 -140 12 -140q50 0 146 48l-12 -92q-124 -42 -178 -42q-170 0 -140 214l72 512q14 102 -87 157t-267 55t-283 -55t-131 -157l-102 -726h-170zM379 1501q1 15 3 35q4 36 37 61t69 25 q34 0 56 -25t18 -61q-10 -74 0 -98q6 -12 11 -19t17 -18t20 -18t30 -23t41 -28t59 -39t74 -49q30 16 66 36t55 31t43 25t36 20t27 16t23 15t18 12t16 13t11 12t13 14q18 24 28 98q4 36 33 61t65 25q34 0 55 -25t17 -61q-2 -18 -6 -32t-10 -27t-19 -26l-25 -25t-38 -29 t-48 -31t-66 -39t-81 -46t-102 -58t-123 -71q-54 36 -112 75t-92 62t-71 49t-56 40t-41 33t-29 31t-15 28t-7 31z" />
<glyph unicode="&#x14a;" d="M86 0l216 1536h170l-10 -68q174 68 394 68q264 0 394 -103t106 -281l-192 -1368q-30 -210 -200 -210q-76 0 -126 18l14 92q46 -26 92 -26q32 0 52 142l202 1438q14 102 -87 157t-267 55t-283 -55t-131 -157l-174 -1238h-170z" />
<glyph unicode="&#x14b;" d="M86 0l144 1024h170l-10 -68q174 68 394 68q264 0 394 -103t106 -281l-120 -856q-30 -210 -200 -210q-76 0 -126 18l14 92q46 -26 92 -26q32 0 52 142l130 926q14 102 -87 157t-267 55t-283 -55t-131 -157l-80 -564l-22 -162h-170z" />
<glyph unicode="&#x14c;" d="M146 426l102 726q26 180 186 282t422 102q264 0 394 -103t106 -281l-102 -726q-26 -184 -192 -305t-422 -121q-260 0 -390 121t-104 305zM304 342q-14 -106 87 -181t261 -75t283 75t137 181l126 896q14 102 -87 157t-267 55t-283 -55t-131 -157zM324 1708l12 86h1110 l-12 -86h-1110z" />
<glyph unicode="&#x14d;" d="M146 426l30 214q26 180 186 282t422 102q264 0 394 -103t106 -281l-30 -214q-26 -184 -192 -305t-422 -121q-260 0 -390 121t-104 305zM276 1366l12 86h1110l-12 -86h-1110zM304 342q-14 -106 87 -181t261 -75t283 75t137 181l54 384q14 102 -87 157t-267 55t-283 -55 t-131 -157z" />
<glyph unicode="&#x14e;" d="M146 426l102 726q26 180 186 282t422 102q264 0 394 -103t106 -281l-102 -726q-26 -184 -192 -305t-422 -121q-260 0 -390 121t-104 305zM304 342q-14 -106 87 -181t261 -75t283 75t137 181l126 896q14 102 -87 157t-267 55t-283 -55t-131 -157zM452 2004q4 36 37 61 t69 25q34 0 56 -25t18 -61q-2 -12 -11 -48t-11 -50q-8 -58 72 -136t200 -78q118 0 220 79t110 135q2 14 4 50t4 48q4 36 33 61t65 25q34 0 55 -25t17 -61q-16 -106 -174 -245t-344 -139q-100 0 -186 43t-137 105t-77 126t-20 110z" />
<glyph unicode="&#x14f;" d="M146 426l30 214q26 180 186 282t422 102q264 0 394 -103t106 -281l-30 -214q-26 -184 -192 -305t-422 -121q-260 0 -390 121t-104 305zM304 342q-14 -106 87 -181t261 -75t283 75t137 181l54 384q14 102 -87 157t-267 55t-283 -55t-131 -157zM386 1536q4 36 37 61t69 25 q34 0 56 -25t18 -61q-2 -12 -11 -48t-11 -50q-8 -58 72 -136t200 -78q118 0 220 79t110 135q2 14 4 50t4 48q4 36 33 61t65 25q34 0 55 -25t17 -61q-16 -106 -174 -245t-344 -139q-100 0 -186 43t-137 105t-77 126t-20 110z" />
<glyph unicode="&#x150;" d="M146 426l102 726q26 180 186 282t422 102q264 0 394 -103t106 -281l-102 -726q-26 -184 -192 -305t-422 -121q-260 0 -390 121t-104 305zM304 342q-14 -106 87 -181t261 -75t283 75t137 181l126 896q14 102 -87 157t-267 55t-283 -55t-131 -157zM512 1820q18 0 37 13 t42 58t33 113q4 36 33 61t65 25q34 0 55 -25t17 -61q-16 -112 -120 -194t-154 -82q-22 0 -8 92zM1110 1820q18 0 37 13t42 58t33 113q4 36 33 61t63 25q36 0 57 -25t17 -61q-16 -112 -120 -194t-154 -82q-22 0 -8 92z" />
<glyph unicode="&#x151;" d="M146 426l30 214q26 180 186 282t422 102q264 0 394 -103t106 -281l-30 -214q-26 -184 -192 -305t-422 -121q-260 0 -390 121t-104 305zM304 342q-14 -106 87 -181t261 -75t283 75t137 181l54 384q14 102 -87 157t-267 55t-283 -55t-131 -157zM416 1352q18 0 37 13t42 58 t33 113q4 36 33 61t65 25q34 0 55 -25t17 -61q-16 -112 -119 -194t-153 -82q-22 0 -10 92zM1014 1352q18 0 37 13t42 58t33 113q4 36 33 61t63 25q36 0 57 -25t17 -61q-16 -112 -119 -194t-153 -82q-22 0 -10 92z" />
<glyph unicode="&#x152;" horiz-adv-x="2388" d="M230 426l102 726q26 180 187 282t423 102q172 0 372 -90l12 90h1108l-12 -86h-682q-68 0 -102 -3t-78 -15t-66 -42t-30 -80l-52 -372h682l-12 -84h-682l-88 -628q-8 -50 6 -80t55 -42t74 -15t101 -3h682l-12 -86h-1108l14 100q-214 -100 -398 -100q-260 0 -391 121 t-105 305zM390 342q-14 -106 87 -181t261 -75q158 0 282 75t138 181l126 896q14 100 -87 156t-267 56t-283 -55t-131 -157z" />
<glyph unicode="&#x153;" horiz-adv-x="2304" d="M146 426l30 214q26 180 186 282t422 102q286 0 450 -142q204 142 488 142q260 0 391 -121t105 -305l-12 -86h-940l-12 -86l-12 -84q-14 -106 88 -181t260 -75q160 0 283 75t137 181h172q-52 -156 -213 -249t-391 -93q-282 0 -444 170q-216 -170 -494 -170 q-260 0 -390 121t-104 305zM304 342q-14 -106 87 -181t261 -75t283 75t137 181l54 384q14 102 -87 157t-267 55t-283 -55t-131 -157zM1278 598h768l18 128q14 102 -87 157t-267 55t-283 -56t-131 -156z" />
<glyph unicode="&#x154;" d="M86 0l216 1536h512q240 0 364 -85t100 -257v-2q-28 -202 -218 -292q134 -52 182 -136t30 -210l-46 -328q-20 -140 12 -140q50 0 146 48l-12 -92q-124 -42 -178 -42q-170 0 -140 214l60 426q14 102 -87 158t-267 56h-384l-120 -854h-170zM408 1082q-8 -52 15 -82t84 -43 t112 -16t153 -3q146 0 231 64t97 148l12 88q14 102 -87 157t-267 55q-68 0 -100 -1t-79 -7t-70 -19t-42 -38t-25 -63zM766 1820q18 0 37 13t42 58t33 113q4 36 33 61t63 25q36 0 57 -25t17 -61q-16 -112 -117 -194t-151 -82q-28 0 -14 92z" />
<glyph unicode="&#x155;" horiz-adv-x="768" d="M86 0l144 1024h170l-10 -68q174 68 352 68l-12 -86q-162 0 -260 -54t-112 -158l-102 -726h-170zM446 1352q18 0 37 13t42 58t33 113q4 36 33 61t63 25q36 0 57 -25t17 -61q-16 -112 -116 -194t-150 -82q-28 0 -16 92z" />
<glyph unicode="&#x156;" d="M86 0l216 1536h512q240 0 364 -85t100 -257v-2q-28 -202 -218 -292q134 -52 182 -136t30 -210l-46 -328q-20 -140 12 -140q50 0 146 48l-12 -92q-124 -42 -178 -42q-170 0 -140 214l60 426q14 102 -87 158t-267 56h-384l-120 -854h-170zM408 1082q-8 -52 15 -82t84 -43 t112 -16t153 -3q146 0 231 64t97 148l12 88q14 102 -87 157t-267 55q-68 0 -100 -1t-79 -7t-70 -19t-42 -38t-25 -63zM476 -362l12 92q18 0 37 13t41 58t32 113q4 36 34 61t64 25t56 -25t18 -61q-16 -112 -129 -194t-165 -82z" />
<glyph unicode="&#x157;" horiz-adv-x="768" d="M86 0l144 1024h170l-10 -68q174 68 352 68l-12 -86q-162 0 -260 -54t-112 -158l-102 -726h-170zM332 -364l14 92q18 0 37 13t41 58t32 113q4 36 34 61t64 25t56 -25t18 -61q-16 -112 -130 -194t-166 -82z" />
<glyph unicode="&#x158;" d="M86 0l216 1536h512q240 0 364 -85t100 -257v-2q-28 -202 -218 -292q134 -52 182 -136t30 -210l-46 -328q-20 -140 12 -140q50 0 146 48l-12 -92q-124 -42 -178 -42q-170 0 -140 214l60 426q14 102 -87 158t-267 56h-384l-120 -854h-170zM408 1082q-8 -52 15 -82t84 -43 t112 -16t153 -3q146 0 231 64t97 148l12 88q14 102 -87 157t-267 55q-68 0 -100 -1t-79 -7t-70 -19t-42 -38t-25 -63zM444 1969q0 15 4 35q4 36 37 61t69 25q34 0 56 -25t18 -61q-10 -74 0 -98q6 -12 11 -19t17 -18t20 -18t30 -23t41 -28t59 -39t74 -49q28 16 65 36t56 31 t43 25t36 20t27 16t23 15t18 12t16 13t11 12t13 14q18 24 28 98q4 36 33 61t65 25q34 0 55 -25t17 -61q-2 -18 -6 -32t-10 -27t-19 -26l-25 -25t-38 -29t-48 -31t-66 -39t-82 -46t-102 -58t-122 -71q-54 36 -112 75t-92 62t-71 49t-56 40t-41 33t-29 31t-15 28t-8 31z" />
<glyph unicode="&#x159;" horiz-adv-x="768" d="M86 0l144 1024h170l-10 -68q174 68 352 68l-12 -86q-162 0 -260 -54t-112 -158l-102 -726h-170zM214 1501q0 15 2 35q6 36 33 61t57 25q26 0 44 -25t12 -61q-10 -74 -2 -98q4 -12 8 -19t13 -18t16 -18t25 -23t32 -28t46 -39t60 -49q22 16 53 36t46 31t35 25t29 20t22 16 t20 15t15 12t13 13l10 12t11 14q14 24 24 98q6 36 29 61t53 25q28 0 44 -25t12 -61q-2 -18 -6 -32t-9 -27t-16 -26t-21 -25t-31 -29t-39 -31t-54 -39t-68 -46t-85 -58t-101 -71q-42 36 -88 75t-73 62t-56 49t-44 40t-32 33t-23 31t-11 28t-5 31z" />
<glyph unicode="&#x15a;" d="M136 298h158q-14 -100 87 -156t267 -56q164 0 286 86t142 222q18 134 -64 222t-268 150q-466 150 -432 380q8 62 45 127t102 126t168 99t229 38q230 0 343 -74t135 -224h-158q14 102 -77 157t-255 55q-154 0 -248 -76t-112 -200q-16 -118 50 -193t222 -125 q288 -94 402 -196t96 -232v-2q-26 -184 -193 -305t-425 -121q-450 0 -500 298zM806 1820q18 0 37 13t42 58t33 113q4 36 33 61t63 25q36 0 57 -25t17 -61q-16 -112 -117 -194t-151 -82q-28 0 -14 92z" />
<glyph unicode="&#x15b;" d="M136 298h162q-14 -102 85 -157t265 -55q118 0 200 15t144 65t74 134q30 212 -354 212q-218 0 -345 63t-113 171q18 124 159 201t393 77q236 0 339 -44t151 -170h-200q-30 80 -94 104t-208 24q-168 0 -261 -44t-109 -148q-6 -54 42 -89t114 -47t144 -12q286 0 407 -92 t105 -206v-2q-24 -170 -170 -234t-430 -64q-450 0 -500 298zM748 1352q18 0 37 13t42 58t33 113q4 36 33 61t63 25q36 0 57 -25t17 -61q-16 -112 -116 -194t-150 -82q-28 0 -16 92z" />
<glyph unicode="&#x15c;" d="M136 298h158q-14 -100 87 -156t267 -56q164 0 286 86t142 222q18 134 -64 222t-268 150q-466 150 -432 380q8 62 45 127t102 126t168 99t229 38q230 0 343 -74t135 -224h-158q14 102 -77 157t-255 55q-154 0 -248 -76t-112 -200q-16 -118 50 -193t222 -125 q288 -94 402 -196t96 -232v-2q-26 -184 -193 -305t-425 -121q-450 0 -500 298zM410 1708q2 20 7 35t17 31t22 28t37 31t50 33t68 40t85 49t109 62t133 75q50 -34 103 -71t85 -58t69 -46t55 -39t40 -31t30 -29t17 -25t11 -26t2 -27t-2 -32q-6 -36 -34 -61t-62 -25 q-36 0 -58 25t-16 61q10 74 0 98q-6 8 -10 14l-8 12t-12 13t-14 12t-19 15t-23 16t-30 20t-35 25t-47 31t-54 36q-42 -22 -90 -49t-69 -39l-49 -28t-38 -23t-24 -18t-21 -18t-17 -19q-18 -24 -28 -98q-6 -36 -35 -61t-63 -25q-36 0 -62 25t-20 61z" />
<glyph unicode="&#x15d;" d="M136 298h162q-14 -102 85 -157t265 -55q118 0 200 15t144 65t74 134q30 212 -354 212q-218 0 -345 63t-113 171q18 124 159 201t393 77q236 0 339 -44t151 -170h-200q-30 80 -94 104t-208 24q-168 0 -261 -44t-109 -148q-6 -54 42 -89t114 -47t144 -12q286 0 407 -92 t105 -206v-2q-24 -170 -170 -234t-430 -64q-450 0 -500 298zM344 1238q2 20 7 35t17 31t22 28t37 31t50 33t68 40t85 49t109 62t133 75q50 -34 103 -71t85 -58t69 -46t55 -39t40 -31t30 -29t17 -25t11 -26t2 -27t-2 -32q-6 -36 -34 -61t-62 -25q-36 0 -58 25t-16 61 q10 74 0 98q-6 8 -10 14l-8 12t-12 13t-14 12t-19 15t-23 16t-30 20t-35 25t-47 31t-54 36q-42 -22 -90 -49t-70 -39t-49 -28t-37 -23t-24 -18t-21 -18t-17 -19q-18 -24 -28 -98q-6 -36 -35 -61t-63 -25q-36 0 -62 25t-20 61z" />
<glyph unicode="&#x15e;" d="M136 298h158q-14 -100 87 -156t267 -56q164 0 286 86t142 222q18 134 -64 222t-268 150q-466 150 -432 380q8 62 45 127t102 126t168 99t229 38q230 0 343 -74t135 -224h-158q14 102 -77 157t-255 55q-154 0 -248 -76t-112 -200q-16 -118 50 -193t222 -125 q288 -94 402 -196t96 -232v-2q-24 -172 -172 -290t-380 -134q24 -20 44 -60q30 -62 36 -96t-4 -98q-6 -48 -43 -68t-75 -20q-22 0 -42 6t-38 27t-14 55q6 32 44 76t42 70q6 42 -22 71t-60 37q-386 18 -434 296z" />
<glyph unicode="&#x15f;" d="M136 298h162q-14 -102 85 -157t265 -55q118 0 200 15t144 65t74 134q30 212 -354 212q-218 0 -345 63t-113 171q18 124 159 201t393 77q236 0 339 -44t151 -170h-200q-30 80 -94 104t-208 24q-168 0 -261 -44t-109 -148q-6 -54 42 -89t114 -47t144 -12q286 0 407 -92 t105 -206v-2q-22 -156 -148 -223t-364 -73q28 -28 42 -60q32 -62 38 -96t-4 -98q-6 -48 -43 -68t-75 -20q-22 0 -43 6t-39 27t-14 55q6 32 44 76t42 70q6 42 -21 70t-55 36q-410 14 -460 298z" />
<glyph unicode="&#x160;" d="M136 298h158q-14 -100 87 -156t267 -56q164 0 286 86t142 222q18 134 -64 222t-268 150q-466 150 -432 380q8 62 45 127t102 126t168 99t229 38q230 0 343 -74t135 -224h-158q14 102 -77 157t-255 55q-154 0 -248 -76t-112 -200q-16 -118 50 -193t222 -125 q288 -94 402 -196t96 -232v-2q-26 -184 -193 -305t-425 -121q-450 0 -500 298zM448 1969q0 15 4 35q4 36 37 61t69 25q34 0 56 -25t18 -61q-10 -74 0 -98q6 -12 11 -19t17 -18t20 -18t30 -23t41 -28t59 -39t74 -49q28 16 65 36t56 31t43 25t36 20t27 16t23 15t18 12t16 13 t11 12t13 14q18 24 28 98q4 36 33 61t65 25q34 0 55 -25t17 -61q-2 -18 -6 -32t-10 -27t-19 -26l-25 -25t-38 -29t-48 -31t-66 -39t-82 -46t-102 -58t-122 -71q-54 36 -112 75t-92 62t-71 49t-56 40t-41 33t-29 31t-15 28t-8 31z" />
<glyph unicode="&#x161;" d="M136 298h162q-14 -102 85 -157t265 -55q118 0 200 15t144 65t74 134q30 212 -354 212q-218 0 -345 63t-113 171q18 124 159 201t393 77q236 0 339 -44t151 -170h-200q-30 80 -94 104t-208 24q-168 0 -261 -44t-109 -148q-6 -54 42 -89t114 -47t144 -12q286 0 407 -92 t105 -206v-2q-24 -170 -170 -234t-430 -64q-450 0 -500 298zM383 1501q1 15 3 35q4 36 37 61t69 25q34 0 56 -25t18 -61q-10 -74 0 -98q6 -12 11 -19t17 -18t20 -18t30 -23t41 -28t59 -39t74 -49q30 16 66 36t55 31t43 25t36 20t27 16t23 15t18 12t16 13t11 12t13 14 q18 24 28 98q4 36 33 61t65 25q34 0 55 -25t17 -61q-2 -18 -6 -32t-10 -27t-19 -26l-25 -25t-38 -29t-48 -31t-66 -39t-81 -46t-102 -58t-123 -71q-54 36 -112 75t-92 62t-71 49t-56 40t-41 33t-29 31t-15 28t-7 31z" />
<glyph unicode="&#x162;" d="M290 1450l12 86h1108l-12 -86h-468l-204 -1450h-24q32 -42 38 -58q32 -62 38 -96t-4 -98q-6 -48 -43 -68t-75 -20q-22 0 -42 6t-38 27t-14 55q6 32 44 76t42 70q6 44 -28 75t-66 31v2l12 90l192 1358h-468z" />
<glyph unicode="&#x163;" horiz-adv-x="682" d="M200 212l102 726h-84l12 86h84l72 512h172l-72 -512h256l-12 -86h-256l-100 -712q-20 -140 12 -140q76 0 236 88l-12 -90q-88 -50 -186 -74q14 -12 40 -60q32 -64 38 -98t-2 -96q-12 -86 -120 -86q-22 0 -42 5t-39 26t-13 55q4 32 42 76t42 70q10 68 -70 102 q-126 24 -100 208z" />
<glyph unicode="&#x164;" d="M290 1450l12 86h1108l-12 -86h-468l-204 -1450h-172l204 1450h-468zM444 1969q0 15 4 35q4 36 37 61t69 25q34 0 56 -25t18 -61q-10 -74 0 -98q6 -12 11 -19t17 -18t20 -18t30 -23t41 -28t59 -39t74 -49q28 16 65 36t56 31t43 25t36 20t27 16t23 15t18 12t16 13t11 12 t13 14q18 24 28 98q4 36 33 61t65 25q34 0 55 -25t17 -61q-2 -18 -6 -32t-10 -27t-19 -26l-25 -25t-38 -29t-48 -31t-66 -39t-82 -46t-102 -58t-122 -71q-54 36 -112 75t-92 62t-71 49t-56 40t-41 33t-29 31t-15 28t-8 31z" />
<glyph unicode="&#x165;" horiz-adv-x="1024" d="M200 212l102 726h-84l12 86h84l72 512h172l-72 -512h256l-12 -86h-256l-100 -712q-20 -140 12 -140q76 0 236 88l-12 -90q-148 -84 -268 -84q-172 0 -142 212zM762 1174l14 92q18 0 37 13t41 58t32 113q4 36 34 61t64 25t56 -25t18 -61q-16 -112 -130 -194t-166 -82z" />
<glyph unicode="&#x166;" horiz-adv-x="1450" d="M290 1450l12 86h1194l-12 -86h-512l-24 -170h256l-12 -86h-256l-168 -1194h-170l168 1194h-256l12 86h256l24 170h-512z" />
<glyph unicode="&#x167;" horiz-adv-x="682" d="M168 1194l12 86h170l36 256h172l-36 -256h256l-12 -86h-256l-36 -256h170l-12 -84h-170l-88 -628q-20 -140 12 -140q76 0 236 88l-12 -90q-148 -84 -268 -84q-172 0 -142 212l90 642h-84l12 84h84l36 256h-170z" />
<glyph unicode="&#x168;" d="M146 426l156 1110h170l-168 -1194q-14 -106 87 -181t261 -75t283 75t137 181l168 1194h170l-184 -1310q-20 -140 12 -140q50 0 146 48l-12 -92q-124 -42 -178 -42q-60 0 -91 33t-69 33q-4 0 -131 -33t-263 -33q-260 0 -390 121t-104 305zM416 1750q8 56 35 120t86 121 t131 57q86 0 146 -35t90 -86t54 -101t57 -85t81 -35q82 0 112 214h170q-8 -56 -35 -120t-85 -121t-130 -57q-80 0 -137 35t-90 85t-60 100t-62 85t-81 35q-82 0 -112 -212h-170z" />
<glyph unicode="&#x169;" d="M146 426l84 598h170l-96 -682q-14 -106 87 -181t261 -75t283 75t137 181l96 682h170l-110 -776q-22 -162 10 -162q50 0 146 48l-12 -92q-124 -42 -178 -42q-42 0 -65 14t-30 30t-22 30t-41 14q-16 0 -69 -22t-140 -44t-187 -22q-260 0 -390 121t-104 305zM356 1324 q8 56 35 120t86 121t131 57q86 0 146 -35t90 -86t54 -101t57 -85t81 -35q82 0 112 214h170q-8 -56 -35 -120t-85 -121t-130 -57q-80 0 -137 35t-90 85t-60 100t-62 85t-81 35q-82 0 -112 -212h-170z" />
<glyph unicode="&#x16a;" d="M146 426l156 1110h170l-168 -1194q-14 -106 87 -181t261 -75t283 75t137 181l168 1194h170l-184 -1310q-20 -140 12 -140q50 0 146 48l-12 -92q-124 -42 -178 -42q-60 0 -91 33t-69 33q-4 0 -131 -33t-263 -33q-260 0 -390 121t-104 305zM324 1706l12 86h1110l-12 -86 h-1110z" />
<glyph unicode="&#x16b;" d="M146 426l84 598h170l-96 -682q-14 -106 87 -181t261 -75t283 75t137 181l96 682h170l-110 -776q-22 -162 10 -162q50 0 146 48l-12 -92q-124 -42 -178 -42q-42 0 -65 14t-30 30t-22 30t-41 14q-16 0 -69 -22t-140 -44t-187 -22q-260 0 -390 121t-104 305zM276 1366l12 86 h1110l-12 -86h-1110z" />
<glyph unicode="&#x16c;" d="M146 426l156 1110h170l-168 -1194q-14 -106 87 -181t261 -75t283 75t137 181l168 1194h170l-184 -1310q-20 -140 12 -140q50 0 146 48l-12 -92q-124 -42 -178 -42q-60 0 -91 33t-69 33q-4 0 -131 -33t-263 -33q-260 0 -390 121t-104 305zM452 2004q4 36 37 61t69 25 q34 0 56 -25t18 -61q-2 -12 -11 -48t-11 -50q-8 -58 72 -136t200 -78q118 0 220 79t110 135q2 14 4 50t4 48q4 36 33 61t65 25q34 0 55 -25t17 -61q-16 -106 -174 -245t-344 -139q-100 0 -186 43t-137 105t-77 126t-20 110z" />
<glyph unicode="&#x16d;" d="M146 426l84 598h170l-96 -682q-14 -106 87 -181t261 -75t283 75t137 181l96 682h170l-110 -776q-22 -162 10 -162q50 0 146 48l-12 -92q-124 -42 -178 -42q-42 0 -65 14t-30 30t-22 30t-41 14q-16 0 -69 -22t-140 -44t-187 -22q-260 0 -390 121t-104 305zM384 1528 q6 36 38 61t68 25q34 0 57 -25t17 -61q0 -12 -10 -48t-12 -50q-8 -58 72 -136t200 -78q118 0 221 79t109 135q2 14 5 50t3 48q6 36 34 61t64 25q34 0 56 -25t16 -61q-14 -106 -173 -245t-345 -139q-100 0 -186 43t-137 105t-77 126t-20 110z" />
<glyph unicode="&#x16e;" d="M146 426l156 1110h170l-168 -1194q-14 -106 87 -181t261 -75t283 75t137 181l168 1194h170l-184 -1310q-20 -140 12 -140q50 0 146 48l-12 -92q-124 -42 -178 -42q-60 0 -91 33t-69 33q-4 0 -131 -33t-263 -33q-260 0 -390 121t-104 305zM686 1834q12 88 83 151t159 63 t142 -63t42 -151t-84 -150t-160 -62q-86 0 -140 63t-42 149zM770 1834q-8 -52 25 -90t85 -38q54 0 96 38t50 90q8 54 -24 91t-86 37q-52 0 -95 -37t-51 -91z" />
<glyph unicode="&#x16f;" d="M146 426l84 598h170l-96 -682q-14 -106 87 -181t261 -75t283 75t137 181l96 682h170l-110 -776q-22 -162 10 -162q50 0 146 48l-12 -92q-124 -42 -178 -42q-42 0 -65 14t-30 30t-22 30t-41 14q-16 0 -69 -22t-140 -44t-187 -22q-260 0 -390 121t-104 305zM614 1320 q12 88 83 151t159 63t142 -63t42 -151t-84 -150t-160 -62q-86 0 -140 63t-42 149zM698 1320q-8 -52 25 -90t85 -38q54 0 96 38t50 90q8 54 -24 91t-86 37q-52 0 -95 -37t-51 -91z" />
<glyph unicode="&#x170;" d="M146 426l156 1110h170l-168 -1194q-14 -106 87 -181t261 -75t283 75t137 181l168 1194h170l-184 -1310q-20 -140 12 -140q50 0 146 48l-12 -92q-124 -42 -178 -42q-60 0 -91 33t-69 33q-4 0 -131 -33t-263 -33q-260 0 -390 121t-104 305zM532 1820q18 0 37 13t42 58 t33 113q4 36 33 61t65 25q34 0 55 -25t17 -61q-16 -112 -120 -194t-154 -82q-22 0 -8 92zM1130 1820q18 0 37 13t42 58t33 113q4 36 33 61t63 25q36 0 57 -25t17 -61q-16 -112 -120 -194t-154 -82q-22 0 -8 92z" />
<glyph unicode="&#x171;" d="M146 426l84 598h170l-96 -682q-14 -106 87 -181t261 -75t283 75t137 181l96 682h170l-110 -776q-22 -162 10 -162q50 0 146 48l-12 -92q-124 -42 -178 -42q-42 0 -65 14t-30 30t-22 30t-41 14q-16 0 -69 -22t-140 -44t-187 -22q-260 0 -390 121t-104 305zM466 1352 q18 0 37 13t42 58t33 113q4 36 33 61t65 25q34 0 55 -25t17 -61q-16 -112 -119 -194t-153 -82q-22 0 -10 92zM1064 1352q18 0 37 13t42 58t33 113q4 36 33 61t63 25q36 0 57 -25t17 -61q-16 -112 -119 -194t-153 -82q-22 0 -10 92z" />
<glyph unicode="&#x172;" d="M146 426l156 1110h170l-168 -1194q-14 -106 87 -181t261 -75t283 75t137 181l168 1194h170l-216 -1536q-22 0 -68 -30t-54 -78q-2 -26 23 -70t21 -76q-6 -48 -43 -68t-75 -20q-22 0 -43 6t-39 27t-14 55q10 62 25 95t65 99q40 52 106 96q-22 30 -64 30q-4 0 -131 -33 t-263 -33q-260 0 -390 121t-104 305z" />
<glyph unicode="&#x173;" d="M146 426l84 598h170l-96 -682q-14 -106 87 -181t261 -75t283 75t137 181l96 682h170l-144 -1022v-2q-30 0 -72 -31t-48 -75q-4 -26 22 -70t20 -76q-6 -48 -43 -68t-75 -20q-22 0 -43 6t-39 27t-14 55q10 62 25 96t65 98q46 56 106 96q-24 28 -64 28q-4 0 -131 -33 t-263 -33q-260 0 -390 121t-104 305z" />
<glyph unicode="&#x174;" horiz-adv-x="2048" d="M146 426l156 1110h170l-168 -1194q-16 -114 48 -185t214 -71q156 0 259 73t119 183l84 596h170l-84 -596q-16 -110 67 -183t239 -73q150 0 234 71t100 185l168 1194h172l-156 -1110q-14 -96 -45 -168t-90 -133t-158 -93t-237 -32q-148 0 -233 41t-169 129 q-112 -88 -209 -129t-243 -41q-240 0 -337 118t-71 308zM748 1708q2 20 7 35t17 31t22 28t37 31t50 33t68 40t85 49t109 62t133 75q50 -34 103 -71t85 -58t69 -46t55 -39t40 -31t30 -29t17 -25t11 -26t2 -27t-2 -32q-6 -36 -34 -61t-62 -25q-36 0 -58 25t-16 61q10 74 0 98 q-6 8 -10 14l-8 12t-12 13t-14 12t-19 15t-23 16t-30 20t-35 25t-47 31t-54 36q-42 -22 -90 -49t-69 -39l-49 -28t-38 -23t-24 -18t-21 -18t-17 -19q-18 -24 -28 -98q-6 -36 -35 -61t-63 -25q-36 0 -62 25t-20 61z" />
<glyph unicode="&#x175;" horiz-adv-x="1962" d="M146 426l84 598h170l-96 -682q-16 -114 48 -185t214 -71q152 0 236 71t100 185l60 426h170l-60 -426q-16 -114 48 -185t214 -71q152 0 236 71t100 185l96 682h170l-84 -598q-14 -96 -45 -168t-90 -133t-158 -93t-237 -32q-94 0 -158 21t-96 46t-86 83q-12 14 -20 20 q-124 -98 -172 -124q-94 -46 -236 -46q-240 0 -337 118t-71 308zM640 1238q2 20 7 35t17 31t22 28t37 31t50 33t68 40t85 49t109 62t133 75q50 -34 103 -71t85 -58t69 -46t55 -39t40 -31t30 -29t17 -25t11 -26t2 -27t-2 -32q-6 -36 -34 -61t-62 -25q-36 0 -58 25t-16 61 q10 74 0 98q-6 8 -10 14l-8 12t-12 13t-14 12t-19 15t-23 16t-30 20t-35 25t-47 31t-54 36q-42 -22 -90 -49t-70 -39t-49 -28t-37 -23t-24 -18t-21 -18t-17 -19q-18 -24 -28 -98q-6 -36 -35 -61t-63 -25q-36 0 -62 25t-20 61z" />
<glyph unicode="&#x176;" d="M72 -170h146q38 -74 144 -123t230 -49q158 0 282 75t138 181l24 172q-180 -86 -396 -86q-260 0 -390 122t-104 306l156 1108h170l-168 -1192q-14 -108 87 -183t261 -75t283 75t137 183l168 1192h170l-216 -1536q-28 -204 -189 -315t-425 -111q-192 0 -320 69t-188 187z M406 1708q2 20 7 35t17 31t22 28t37 31t50 33t68 40t85 49t109 62t133 75q50 -34 103 -71t85 -58t69 -46t55 -39t40 -31t30 -29t17 -25t11 -26t2 -27t-2 -32q-6 -36 -34 -61t-62 -25q-36 0 -58 25t-16 61q10 74 0 98q-6 8 -10 14l-8 12t-12 13t-14 12t-19 15t-23 16t-30 20 t-35 25t-47 31t-54 36q-42 -22 -90 -49t-69 -39l-49 -28t-38 -23t-24 -18t-21 -18t-17 -19q-18 -24 -28 -98q-6 -36 -35 -61t-63 -25q-36 0 -62 25t-20 61z" />
<glyph unicode="&#x177;" d="M72 -170h146q38 -74 144 -123t230 -49q158 0 282 75t138 181l24 172q-180 -86 -396 -86q-260 0 -390 122t-104 306l84 596h170l-96 -680q-14 -108 87 -183t261 -75t283 75t137 183l96 680h170l-144 -1024q-26 -184 -192 -305t-422 -121q-192 0 -320 69t-188 187z M340 1234q2 20 6 35t16 31t23 28t38 31t50 33t67 40t85 49t110 62t133 75q48 -34 102 -71t86 -58t69 -46t55 -39t39 -31t30 -29t18 -25t11 -26t2 -27t-2 -32q-6 -36 -34 -61t-62 -25q-36 0 -58 25t-16 61q10 74 0 98q-6 8 -10 14l-8 12t-12 13t-14 12t-19 15t-23 16t-30 20 t-36 25t-47 31t-55 36q-40 -22 -88 -49t-70 -39t-49 -28t-37 -23t-25 -18t-22 -18t-15 -19q-18 -24 -28 -98q-6 -36 -35 -61t-63 -25q-36 0 -62 25t-20 61z" />
<glyph unicode="&#x178;" d="M72 -170h146q38 -74 144 -123t230 -49q158 0 282 75t138 181l24 172q-180 -86 -396 -86q-260 0 -390 122t-104 306l156 1108h170l-168 -1192q-14 -108 87 -183t261 -75t283 75t137 183l168 1192h170l-216 -1536q-28 -204 -189 -315t-425 -111q-192 0 -320 69t-188 187z M422 1792q4 36 34 61t64 25t56 -25t18 -61q-4 -34 -34 -59t-64 -25t-56 25t-18 59zM1106 1792q4 36 33 61t63 25q36 0 57 -25t17 -61q-4 -34 -33 -59t-65 -25q-34 0 -55 25t-17 59z" />
<glyph unicode="&#x179;" horiz-adv-x="1450" d="M86 0l64 86l958 1230q38 56 44 88q6 46 -52 46h-726l12 86h1098l-68 -86l-1062 -1364h938l-12 -86h-1194zM150 86zM900 1856q18 0 37 13t43 58t32 113q6 36 34 61t62 25q36 0 58 -25t16 -61q-16 -112 -116 -194t-150 -82q-28 0 -16 92zM1416 1450z" />
<glyph unicode="&#x17a;" d="M86 0l784 798q58 60 64 96q6 44 -78 44h-596l12 86h1046l-926 -938h814l-12 -86h-1108zM744 1352q18 0 37 13t42 58t33 113q4 36 33 61t63 25q36 0 57 -25t17 -61q-16 -112 -116 -194t-150 -82q-28 0 -16 92z" />
<glyph unicode="&#x17b;" horiz-adv-x="1450" d="M86 0l64 86l958 1230q38 56 44 88q6 46 -52 46h-726l12 86h1098l-68 -86l-1062 -1364h938l-12 -86h-1194zM150 86zM898 1830q4 36 33 61t65 25q34 0 55 -25t17 -61q-6 -34 -34 -59t-62 -25q-36 0 -58 25t-16 59zM1416 1450z" />
<glyph unicode="&#x17c;" d="M86 0l784 798q58 60 64 96q6 44 -78 44h-596l12 86h1046l-926 -938h814l-12 -86h-1108zM758 1450q4 36 33 61t65 25q34 0 55 -25t17 -61q-4 -34 -33 -59t-63 -25q-36 0 -57 25t-17 59z" />
<glyph unicode="&#x17d;" horiz-adv-x="1450" d="M86 0l64 86l958 1230q38 56 44 88q6 46 -52 46h-726l12 86h1098l-68 -86l-1062 -1364h938l-12 -86h-1194zM150 86zM530 1969q0 15 4 35q4 36 37 61t69 25q34 0 56 -25t18 -61q-10 -74 0 -98q6 -12 11 -19t17 -18t20 -18t30 -23t41 -28t59 -39t74 -49q28 16 65 36t56 31 t43 25t36 20t27 16t23 15t18 12t16 13t11 12t13 14q18 24 28 98q4 36 33 61t65 25q34 0 55 -25t17 -61q-2 -18 -6 -32t-10 -27t-19 -26l-25 -25t-38 -29t-48 -31t-66 -39t-82 -46t-102 -58t-122 -71q-54 36 -112 75t-92 62t-71 49t-56 40t-41 33t-29 31t-15 28t-8 31z M1416 1450z" />
<glyph unicode="&#x17e;" d="M86 0l784 798q58 60 64 96q6 44 -78 44h-596l12 86h1046l-926 -938h814l-12 -86h-1108zM379 1501q1 15 3 35q4 36 37 61t69 25q34 0 56 -25t18 -61q-10 -74 0 -98q6 -12 11 -19t17 -18t20 -18t30 -23t41 -28t59 -39t74 -49q30 16 66 36t55 31t43 25t36 20t27 16t23 15 t18 12t16 13t11 12t13 14q18 24 28 98q4 36 33 61t65 25q34 0 55 -25t17 -61q-2 -18 -6 -32t-10 -27t-19 -26l-25 -25t-38 -29t-48 -31t-66 -39t-81 -46t-102 -58t-123 -71q-54 36 -112 75t-92 62t-71 49t-56 40t-41 33t-29 31t-15 28t-7 31z" />
<glyph unicode="&#x1cd;" d="M86 0l162 1152q26 180 186 282t422 102q264 0 394 -103t106 -281l-162 -1152h-170l120 854h-768l-120 -854h-170zM388 938h768l42 300q14 102 -87 157t-267 55t-283 -55t-131 -157zM448 1969q0 15 4 35q4 36 37 61t69 25q34 0 56 -25t18 -61q-10 -74 0 -98q6 -12 11 -19 t17 -18t20 -18t30 -23t41 -28t59 -39t74 -49q28 16 65 36t56 31t43 25t36 20t27 16t23 15t18 12t16 13t11 12t13 14q18 24 28 98q4 36 33 61t65 25q34 0 55 -25t17 -61q-2 -18 -6 -32t-10 -27t-19 -26l-25 -25t-38 -29t-48 -31t-66 -39t-82 -46t-102 -58t-122 -71 q-54 36 -112 75t-92 62t-71 49t-56 40t-41 33t-29 31t-15 28t-8 31z" />
<glyph unicode="&#x1ce;" d="M146 426l30 214q26 180 186 282t422 102q264 0 394 -103t106 -281l-56 -392q-22 -162 10 -162q50 0 146 48l-12 -92q-124 -42 -178 -42q-42 0 -65 14t-30 30t-22 30t-41 14q-16 0 -69 -22t-140 -44t-187 -22q-260 0 -390 121t-104 305zM304 342q-14 -106 87 -181t261 -75 t283 75t137 181l54 384q14 102 -87 157t-267 55t-283 -55t-131 -157zM383 1501q1 15 3 35q4 36 37 61t69 25q34 0 56 -25t18 -61q-10 -74 0 -98q6 -12 11 -19t17 -18t20 -18t30 -23t41 -28t59 -39t74 -49q30 16 66 36t55 31t43 25t36 20t27 16t23 15t18 12t16 13t11 12 t13 14q18 24 28 98q4 36 33 61t65 25q34 0 55 -25t17 -61q-2 -18 -6 -32t-10 -27t-19 -26l-25 -25t-38 -29t-48 -31t-66 -39t-81 -46t-102 -58t-123 -71q-54 36 -112 75t-92 62t-71 49t-56 40t-41 33t-29 31t-15 28t-7 31z" />
<glyph unicode="&#x1cf;" horiz-adv-x="426" d="M86 0l216 1536h170l-216 -1536h-170zM155 2005q1 15 3 35q6 36 28 61t46 25q22 0 36 -25t8 -61q-10 -74 -4 -98q4 -12 6 -19t9 -18t12 -18t19 -23t26 -28t37 -39t47 -49q18 16 43 36t38 31t29 25t25 20t19 16l15 15l12 12t11 13l8 12t10 14q12 24 22 98q6 36 26 61t44 25 q22 0 35 -25t7 -61q-2 -18 -5 -32t-8 -27t-14 -26t-17 -25t-26 -29t-33 -31t-45 -39t-56 -46t-70 -58t-84 -71q-32 36 -69 75t-58 62t-44 49t-35 40t-25 33t-17 31t-8 28t-3 31z" />
<glyph unicode="&#x1d0;" horiz-adv-x="596" d="M116 212l114 812h170l-112 -798q-20 -140 12 -140q76 0 236 88l-12 -90q-148 -84 -268 -84q-170 0 -140 212zM174 1536q4 34 30 60t54 26q26 0 42 -26t12 -60q-10 -74 -4 -98q12 -32 20 -46t40 -48t106 -100q94 66 137 100t55 48t30 46q18 24 28 98q4 34 28 60t50 26 t42 -26t12 -60q-12 -84 -60 -130t-334 -254q-222 206 -250 240q-44 76 -38 144z" />
<glyph unicode="&#x1d1;" d="M146 426l102 726q26 180 186 282t422 102q264 0 394 -103t106 -281l-102 -726q-26 -184 -192 -305t-422 -121q-260 0 -390 121t-104 305zM304 342q-14 -106 87 -181t261 -75t283 75t137 181l126 896q14 102 -87 157t-267 55t-283 -55t-131 -157zM448 1969q0 15 4 35 q4 36 37 61t69 25q34 0 56 -25t18 -61q-10 -74 0 -98q6 -12 11 -19t17 -18t20 -18t30 -23t41 -28t59 -39t74 -49q28 16 65 36t56 31t43 25t36 20t27 16t23 15t18 12t16 13t11 12t13 14q18 24 28 98q4 36 33 61t65 25q34 0 55 -25t17 -61q-2 -18 -6 -32t-10 -27t-19 -26 l-25 -25t-38 -29t-48 -31t-66 -39t-82 -46t-102 -58t-122 -71q-54 36 -112 75t-92 62t-71 49t-56 40t-41 33t-29 31t-15 28t-8 31z" />
<glyph unicode="&#x1d2;" d="M146 426l30 214q26 180 186 282t422 102q264 0 394 -103t106 -281l-30 -214q-26 -184 -192 -305t-422 -121q-260 0 -390 121t-104 305zM304 342q-14 -106 87 -181t261 -75t283 75t137 181l54 384q14 102 -87 157t-267 55t-283 -55t-131 -157zM383 1501q1 15 3 35 q4 36 37 61t69 25q34 0 56 -25t18 -61q-10 -74 0 -98q6 -12 11 -19t17 -18t20 -18t30 -23t41 -28t59 -39t74 -49q30 16 66 36t55 31t43 25t36 20t27 16t23 15t18 12t16 13t11 12t13 14q18 24 28 98q4 36 33 61t65 25q34 0 55 -25t17 -61q-2 -18 -6 -32t-10 -27t-19 -26 l-25 -25t-38 -29t-48 -31t-66 -39t-81 -46t-102 -58t-123 -71q-54 36 -112 75t-92 62t-71 49t-56 40t-41 33t-29 31t-15 28t-7 31z" />
<glyph unicode="&#x1d3;" d="M146 426l156 1110h170l-168 -1194q-14 -106 87 -181t261 -75t283 75t137 181l168 1194h170l-184 -1310q-20 -140 12 -140q50 0 146 48l-12 -92q-124 -42 -178 -42q-60 0 -91 33t-69 33q-4 0 -131 -33t-263 -33q-260 0 -390 121t-104 305zM448 1969q0 15 4 35q4 36 37 61 t69 25q34 0 56 -25t18 -61q-10 -74 0 -98q6 -12 11 -19t17 -18t20 -18t30 -23t41 -28t59 -39t74 -49q28 16 65 36t56 31t43 25t36 20t27 16t23 15t18 12t16 13t11 12t13 14q18 24 28 98q4 36 33 61t65 25q34 0 55 -25t17 -61q-2 -18 -6 -32t-10 -27t-19 -26l-25 -25t-38 -29 t-48 -31t-66 -39t-82 -46t-102 -58t-122 -71q-54 36 -112 75t-92 62t-71 49t-56 40t-41 33t-29 31t-15 28t-8 31z" />
<glyph unicode="&#x1d4;" d="M146 426l84 598h170l-96 -682q-14 -106 87 -181t261 -75t283 75t137 181l96 682h170l-110 -776q-22 -162 10 -162q50 0 146 48l-12 -92q-124 -42 -178 -42q-42 0 -65 14t-30 30t-22 30t-41 14q-16 0 -69 -22t-140 -44t-187 -22q-260 0 -390 121t-104 305zM383 1501 q1 15 3 35q4 36 37 61t69 25q34 0 56 -25t18 -61q-10 -74 0 -98q6 -12 11 -19t17 -18t20 -18t30 -23t41 -28t59 -39t74 -49q30 16 66 36t55 31t43 25t36 20t27 16t23 15t18 12t16 13t11 12t13 14q18 24 28 98q4 36 33 61t65 25q34 0 55 -25t17 -61q-2 -18 -6 -32t-10 -27 t-19 -26l-25 -25t-38 -29t-48 -31t-66 -39t-81 -46t-102 -58t-123 -71q-54 36 -112 75t-92 62t-71 49t-56 40t-41 33t-29 31t-15 28t-7 31z" />
<glyph unicode="&#x1d5;" d="M146 426l156 1110h170l-168 -1194q-14 -106 87 -181t261 -75t283 75t137 181l168 1194h170l-184 -1310q-20 -140 12 -140q50 0 146 48l-12 -92q-124 -42 -178 -42q-60 0 -91 33t-69 33q-4 0 -131 -33t-263 -33q-260 0 -390 121t-104 305zM360 1960l12 86h1110l-12 -86 h-1110zM464 1792q4 36 34 61t64 25t56 -25t18 -61q-4 -34 -34 -59t-64 -25t-56 25t-18 59zM1148 1792q4 36 33 61t63 25q36 0 57 -25t17 -61q-4 -34 -33 -59t-65 -25q-34 0 -55 25t-17 59z" />
<glyph unicode="&#x1d6;" d="M146 426l84 598h170l-96 -682q-14 -106 87 -181t261 -75t283 75t137 181l96 682h170l-110 -776q-22 -162 10 -162q50 0 146 48l-12 -92q-124 -42 -178 -42q-42 0 -65 14t-30 30t-22 30t-41 14q-16 0 -69 -22t-140 -44t-187 -22q-260 0 -390 121t-104 305zM312 1622l12 86 h1110l-12 -86h-1110zM416 1450q4 36 34 61t64 25t56 -25t18 -61q-4 -34 -34 -59t-64 -25t-56 25t-18 59zM1100 1450q4 36 33 61t63 25q36 0 57 -25t17 -61q-4 -34 -33 -59t-65 -25q-34 0 -55 25t-17 59z" />
<glyph unicode="&#x1d8;" d="M146 426l84 598h170l-96 -682q-14 -106 87 -181t261 -75t283 75t137 181l96 682h170l-110 -776q-22 -162 10 -162q50 0 146 48l-12 -92q-124 -42 -178 -42q-42 0 -65 14t-30 30t-22 30t-41 14q-16 0 -69 -22t-140 -44t-187 -22q-260 0 -390 121t-104 305zM416 1450 q4 36 34 61t64 25t56 -25t18 -61q-4 -34 -34 -59t-64 -25t-56 25t-18 59zM776 1716q18 0 36 13t42 58t34 113q4 36 33 61t63 25q36 0 57 -25t17 -61q-16 -112 -117 -194t-151 -82q-28 0 -14 92zM1100 1450q4 36 33 61t63 25q36 0 57 -25t17 -61q-4 -34 -33 -59t-65 -25 q-34 0 -55 25t-17 59z" />
<glyph unicode="&#x1da;" d="M146 426l84 598h170l-96 -682q-14 -106 87 -181t261 -75t283 75t137 181l96 682h170l-110 -776q-22 -162 10 -162q50 0 146 48l-12 -92q-124 -42 -178 -42q-42 0 -65 14t-30 30t-22 30t-41 14q-16 0 -69 -22t-140 -44t-187 -22q-260 0 -390 121t-104 305zM416 1450 q4 36 34 61t64 25t56 -25t18 -61q-4 -34 -34 -59t-64 -25t-56 25t-18 59zM448 1969q0 15 4 35q4 36 37 61t69 25q34 0 56 -25t18 -61q-10 -74 0 -98q6 -12 11 -19t17 -18t20 -18t30 -23t41 -28t59 -39t74 -49q28 16 65 36t56 31t43 25t36 20t27 16t23 15t18 12t16 13t11 12 t13 14q18 24 28 98q4 36 33 61t65 25q34 0 55 -25t17 -61q-2 -18 -6 -32t-10 -27t-19 -26l-25 -25t-38 -29t-48 -31t-66 -39t-82 -46t-102 -58t-122 -71q-54 36 -112 75t-92 62t-71 49t-56 40t-41 33t-29 31t-15 28t-8 31zM1100 1450q4 36 33 61t63 25q36 0 57 -25t17 -61 q-4 -34 -33 -59t-65 -25q-34 0 -55 25t-17 59z" />
<glyph unicode="&#x1dc;" d="M146 426l84 598h170l-96 -682q-14 -106 87 -181t261 -75t283 75t137 181l96 682h170l-110 -776q-22 -162 10 -162q50 0 146 48l-12 -92q-124 -42 -178 -42q-42 0 -65 14t-30 30t-22 30t-41 14q-16 0 -69 -22t-140 -44t-187 -22q-260 0 -390 121t-104 305zM416 1450 q4 36 34 61t64 25t56 -25t18 -61q-4 -34 -34 -59t-64 -25t-56 25t-18 59zM778 1898q6 36 35 61t63 25t57 -25t17 -61q-8 -68 1 -113t24 -58t33 -13q-12 -92 -40 -92q-50 0 -127 82t-63 194zM1100 1450q4 36 33 61t63 25q36 0 57 -25t17 -61q-4 -34 -33 -59t-65 -25 q-34 0 -55 25t-17 59z" />
<glyph unicode="&#x1de;" d="M86 0l162 1152q26 180 186 282t422 102q264 0 394 -103t106 -281l-162 -1152h-170l120 854h-768l-120 -854h-170zM360 1960l12 86h1110l-12 -86h-1110zM388 938h768l42 300q14 102 -87 157t-267 55t-283 -55t-131 -157zM422 1792q4 36 34 61t64 25t56 -25t18 -61 q-4 -34 -34 -59t-64 -25t-56 25t-18 59zM1106 1792q4 36 33 61t63 25q36 0 57 -25t17 -61q-4 -34 -33 -59t-65 -25q-34 0 -55 25t-17 59z" />
<glyph unicode="&#x1df;" d="M146 426l30 214q26 180 186 282t422 102q264 0 394 -103t106 -281l-56 -392q-22 -162 10 -162q50 0 146 48l-12 -92q-124 -42 -178 -42q-42 0 -65 14t-30 30t-22 30t-41 14q-16 0 -69 -22t-140 -44t-187 -22q-260 0 -390 121t-104 305zM304 342q-14 -106 87 -181t261 -75 t283 75t137 181l54 384q14 102 -87 157t-267 55t-283 -55t-131 -157zM312 1622l12 86h1110l-12 -86h-1110zM416 1450q4 36 34 61t64 25t56 -25t18 -61q-4 -34 -34 -59t-64 -25t-56 25t-18 59zM1100 1450q4 36 33 61t63 25q36 0 57 -25t17 -61q-4 -34 -33 -59t-65 -25 q-34 0 -55 25t-17 59z" />
<glyph unicode="&#x1e0;" horiz-adv-x="1280" d="M86 0l162 1152q26 180 186 282t422 102q264 0 394 -103t106 -281l-162 -1152h-170l120 854h-768l-120 -854h-170zM358 1950l12 86h1110l-12 -86h-1110zM388 938h768l42 300q14 102 -87 157t-267 55t-283 -55t-131 -157zM798 1742q6 36 34 61t64 25q34 0 56 -25t16 -61 q-4 -34 -32 -59t-62 -25q-36 0 -58 25t-18 59z" />
<glyph unicode="&#x1e1;" horiz-adv-x="1280" d="M146 426l30 214q26 180 186 282t422 102q264 0 394 -103t106 -281l-56 -392q-22 -162 10 -162q50 0 146 48l-12 -92q-124 -42 -178 -42q-42 0 -65 14t-30 30t-22 30t-41 14q-16 0 -69 -22t-140 -44t-187 -22q-260 0 -390 121t-104 305zM304 342q-14 -106 87 -181t261 -75 t283 75t137 181l54 384q14 102 -87 157t-267 55t-283 -55t-131 -157zM324 1706l12 86h1110l-12 -86h-1110zM758 1450q4 36 33 61t65 25q34 0 55 -25t17 -61q-4 -34 -33 -59t-63 -25q-36 0 -57 25t-17 59z" />
<glyph unicode="&#x1e2;" horiz-adv-x="2304" d="M86 0l162 1152q26 180 186 282t422 102q176 0 372 -90l12 90h1110l-12 -86h-684q-68 0 -102 -3t-78 -15t-66 -42t-30 -80l-52 -372h684l-12 -84h-684l-88 -628q-8 -50 6 -80t55 -42t74 -15t101 -3h684l-12 -86h-1110l120 854h-768l-120 -854h-170zM388 938h768l42 300 q14 102 -87 157t-267 55t-283 -55t-131 -157zM806 1792l12 86h1110l-12 -86h-1110z" />
<glyph unicode="&#x1e3;" horiz-adv-x="2304" d="M144 406q16 128 158 166q98 26 422 26h384l18 128q14 102 -87 157t-267 55q-232 0 -344 -96l-80 94q182 88 436 88q278 0 448 -156q200 156 490 156q260 0 391 -121t105 -305l-12 -86h-940l-24 -170q-14 -106 88 -181t260 -75q164 0 278 56t136 156h172 q-64 -136 -218 -217t-380 -81q-212 0 -372 86l-12 -86q-34 0 -76 33t-84 33q-4 0 -131 -33t-263 -33q-256 0 -388 121t-108 285zM304 342q-14 -106 87 -181t261 -75t283 75t137 181l24 170h-384q-86 0 -151 -7t-124 -25t-92 -53t-41 -85zM746 1366l12 86h1110l-12 -86h-1110 zM1278 598h768l18 128q14 102 -87 157t-267 55t-283 -56t-131 -156z" />
<glyph unicode="&#x1e4;" horiz-adv-x="1280" d="M146 426l102 726q26 180 186 282t422 102q452 0 500 -298h-158q14 102 -87 157t-267 55t-283 -55t-131 -157l-126 -896q-14 -106 87 -181t261 -75t283 75t137 181l12 84h-426l12 86h426l48 342h-342l12 84h512l-60 -426h86l-12 -86h-86q-26 -184 -192 -305t-422 -121 q-260 0 -390 121t-104 305z" />
<glyph unicode="&#x1e5;" horiz-adv-x="1280" d="M72 -170h146q38 -74 144 -123t230 -49q104 0 197 35t153 93h-374l12 86h420q8 20 12 42l24 172q-180 -86 -396 -86q-260 0 -390 121t-104 305l30 214q26 180 186 282t422 102q264 0 394 -103t106 -281l-90 -640q-10 -68 -48 -128h116l-12 -86h-170q-110 -98 -225 -155 t-275 -57q-192 0 -320 69t-188 187zM304 342q-14 -106 87 -181t261 -75t283 75t137 181l54 384q14 102 -87 157t-267 55t-283 -55t-131 -157z" />
<glyph unicode="&#x1e6;" d="M86 -86h158q-14 -106 88 -181t260 -75t282 75t138 181l24 172q-180 -86 -396 -86q-260 0 -390 121t-104 305l102 726q26 180 186 282t422 102q264 0 394 -103t106 -281l-6 -42h-170l18 128q14 102 -87 157t-267 55t-283 -55t-131 -157l-126 -896q-14 -106 87 -181 t261 -75t283 75t137 181l48 340h170l-96 -682q-26 -184 -192 -305t-422 -121q-224 0 -347 93t-147 247zM448 1969q0 15 4 35q4 36 37 61t69 25q34 0 56 -25t18 -61q-10 -74 0 -98q6 -12 11 -19t17 -18t20 -18t30 -23t41 -28t59 -39t74 -49q28 16 65 36t56 31t43 25t36 20 t27 16t23 15t18 12t16 13t11 12t13 14q18 24 28 98q4 36 33 61t65 25q34 0 55 -25t17 -61q-2 -18 -6 -32t-10 -27t-19 -26l-25 -25t-38 -29t-48 -31t-66 -39t-82 -46t-102 -58t-122 -71q-54 36 -112 75t-92 62t-71 49t-56 40t-41 33t-29 31t-15 28t-8 31z" />
<glyph unicode="&#x1e7;" d="M72 -170h146q38 -74 144 -123t230 -49q158 0 282 75t138 181l24 172q-180 -86 -396 -86q-260 0 -390 121t-104 305l30 214q26 180 186 282t422 102q264 0 394 -103t106 -281l-90 -640q-26 -184 -192 -305t-422 -121q-192 0 -320 69t-188 187zM304 342q-14 -106 87 -181 t261 -75t283 75t137 181l54 384q14 102 -87 157t-267 55t-283 -55t-131 -157zM383 1501q1 15 3 35q4 36 37 61t69 25q34 0 56 -25t18 -61q-10 -74 0 -98q6 -12 11 -19t17 -18t20 -18t30 -23t41 -28t59 -39t74 -49q30 16 66 36t55 31t43 25t36 20t27 16t23 15t18 12t16 13 t11 12t13 14q18 24 28 98q4 36 33 61t65 25q34 0 55 -25t17 -61q-2 -18 -6 -32t-10 -27t-19 -26l-25 -25t-38 -29t-48 -31t-66 -39t-81 -46t-102 -58t-123 -71q-54 36 -112 75t-92 62t-71 49t-56 40t-41 33t-29 31t-15 28t-7 31z" />
<glyph unicode="&#x1e8;" d="M86 0l216 1536h170l-52 -370l926 370l54 -72l-510 -216q472 -48 418 -438l-82 -584q-20 -140 12 -140q50 0 146 48l-12 -92q-124 -42 -178 -42q-170 0 -140 212v2l96 682q18 128 -98 205t-354 77l-292 -110l-150 -1068h-170zM448 1969q0 15 4 35q4 36 37 61t69 25 q34 0 56 -25t18 -61q-10 -74 0 -98q6 -12 11 -19t17 -18t20 -18t30 -23t41 -28t59 -39t74 -49q28 16 65 36t56 31t43 25t36 20t27 16t23 15t18 12t16 13t11 12t13 14q18 24 28 98q4 36 33 61t65 25q34 0 55 -25t17 -61q-2 -18 -6 -32t-10 -27t-19 -26l-25 -25t-38 -29 t-48 -31t-66 -39t-82 -46t-102 -58t-122 -71q-54 36 -112 75t-92 62t-71 49t-56 40t-41 33t-29 31t-15 28t-8 31z" />
<glyph unicode="&#x1e9;" d="M86 0l216 1536h170l-124 -882l926 370l54 -72l-472 -190q200 -30 307 -123t89 -233l-26 -180q-20 -140 12 -140q50 0 146 48l-12 -92q-124 -42 -178 -42q-170 0 -140 214l32 234q16 100 -120 172t-302 72l-330 -136l-78 -556h-170zM448 1969q0 15 4 35q4 36 37 61t69 25 q34 0 56 -25t18 -61q-10 -74 0 -98q6 -12 11 -19t17 -18t20 -18t30 -23t41 -28t59 -39t74 -49q28 16 65 36t56 31t43 25t36 20t27 16t23 15t18 12t16 13t11 12t13 14q18 24 28 98q4 36 33 61t65 25q34 0 55 -25t17 -61q-2 -18 -6 -32t-10 -27t-19 -26l-25 -25t-38 -29 t-48 -31t-66 -39t-82 -46t-102 -58t-122 -71q-54 36 -112 75t-92 62t-71 49t-56 40t-41 33t-29 31t-15 28t-8 31z" />
<glyph unicode="&#x1ea;" d="M146 426l102 726q26 180 186 282t422 102q264 0 394 -103t106 -281l-102 -726q-26 -184 -192 -305t-422 -121q-24 0 -69 -30t-53 -78q-2 -26 23 -70t21 -76q-6 -48 -44 -68t-76 -20q-22 0 -43 6t-38 27t-13 55q10 62 25 96t65 98q22 32 70 70q-196 30 -290 145t-72 271z M304 342q-14 -106 87 -181t261 -75t283 75t137 181l126 896q14 102 -87 157t-267 55t-283 -55t-131 -157z" />
<glyph unicode="&#x1eb;" d="M146 426l30 214q26 180 186 282t422 102q264 0 394 -103t106 -281l-30 -214q-26 -184 -192 -305t-422 -121q-24 0 -69 -30t-53 -78q-2 -26 23 -70t21 -76q-6 -48 -44 -68t-76 -20q-22 0 -43 6t-38 27t-13 55q10 62 25 96t65 98q22 32 70 70q-196 30 -290 145t-72 271z M304 342q-14 -106 87 -181t261 -75t283 75t137 181l54 384q14 102 -87 157t-267 55t-283 -55t-131 -157z" />
<glyph unicode="&#x1ec;" d="M146 426l102 726q26 180 186 282t422 102q264 0 394 -103t106 -281l-102 -726q-26 -184 -192 -305t-422 -121q-24 0 -69 -30t-53 -78q-2 -26 23 -70t21 -76q-6 -48 -44 -68t-76 -20q-22 0 -43 6t-38 27t-13 55q10 62 25 96t65 98q22 32 70 70q-196 30 -290 145t-72 271z M304 342q-14 -106 87 -181t261 -75t283 75t137 181l126 896q14 102 -87 157t-267 55t-283 -55t-131 -157zM324 1706l12 86h1110l-12 -86h-1110z" />
<glyph unicode="&#x1ed;" d="M146 426l30 214q26 180 186 282t422 102q264 0 394 -103t106 -281l-30 -214q-26 -184 -192 -305t-422 -121q-24 0 -69 -30t-53 -78q-2 -26 23 -70t21 -76q-6 -48 -44 -68t-76 -20q-22 0 -43 6t-38 27t-13 55q10 62 25 96t65 98q22 32 70 70q-196 30 -290 145t-72 271z M276 1366l12 86h1110l-12 -86h-1110zM304 342q-14 -106 87 -181t261 -75t283 75t137 181l54 384q14 102 -87 157t-267 55t-283 -55t-131 -157z" />
<glyph unicode="&#x1f0;" horiz-adv-x="512" d="M-58 -408l14 92q46 -26 92 -26q32 0 52 142l172 1224h170l-174 -1240q-30 -210 -200 -210q-76 0 -126 18zM85 1492q-1 18 3 44q4 34 30 60t54 26q26 0 42 -26t12 -60q-10 -74 -2 -98q6 -14 12 -24t12 -19t23 -24t31 -27t48 -43t62 -57q30 20 64 44t50 36t37 26t30 22 t20 17t17 16t12 15t14 18q16 24 26 98q4 36 27 61t51 25q26 0 42 -26t12 -60q-4 -24 -9 -41t-12 -32t-25 -33t-34 -32t-53 -42t-69 -51t-94 -68t-118 -85q-48 44 -104 94t-82 73t-57 52t-42 44t-20 37t-10 40z" />
<glyph unicode="&#x1f4;" d="M86 -86h158q-14 -106 88 -181t260 -75t282 75t138 181l24 172q-180 -86 -396 -86q-260 0 -390 121t-104 305l102 726q26 180 186 282t422 102q264 0 394 -103t106 -281l-6 -42h-170l18 128q14 102 -87 157t-267 55t-283 -55t-131 -157l-126 -896q-14 -106 87 -181 t261 -75t283 75t137 181l48 340h170l-96 -682q-26 -184 -192 -305t-422 -121q-224 0 -347 93t-147 247zM854 1820q18 0 37 13t42 58t33 113q4 36 33 61t63 25q36 0 57 -25t17 -61q-16 -112 -117 -194t-151 -82q-28 0 -14 92z" />
<glyph unicode="&#x1f5;" d="M72 -170h146q38 -74 144 -123t230 -49q158 0 282 75t138 181l24 172q-180 -86 -396 -86q-260 0 -390 121t-104 305l30 214q26 180 186 282t422 102q264 0 394 -103t106 -281l-90 -640q-26 -184 -192 -305t-422 -121q-192 0 -320 69t-188 187zM304 342q-14 -106 87 -181 t261 -75t283 75t137 181l54 384q14 102 -87 157t-267 55t-283 -55t-131 -157zM702 1352q18 0 37 13t42 58t33 113q4 36 33 61t63 25q36 0 57 -25t17 -61q-16 -112 -116 -194t-150 -82q-28 0 -16 92z" />
<glyph unicode="&#x1f8;" d="M86 0l216 1536h554q264 0 394 -103t106 -281l-162 -1152h-170l174 1238q14 102 -87 157t-267 55t-283 -55t-131 -157l-174 -1238h-170zM708 2004q4 36 34 61t64 25t56 -25t18 -61q-10 -68 0 -113t25 -58t33 -13q-14 -92 -42 -92q-50 0 -127 82t-61 194z" />
<glyph unicode="&#x1f9;" d="M86 0l144 1024h170l-10 -68q174 68 394 68q264 0 394 -103t106 -281l-58 -414q-20 -140 12 -140q50 0 146 48l-12 -92q-124 -42 -178 -42q-170 0 -140 214l72 512q14 102 -87 157t-267 55t-283 -55t-131 -157l-102 -726h-170zM728 1536q4 36 34 61t64 25t56 -25t18 -61 q-10 -68 0 -113t25 -58t33 -13q-12 -92 -40 -92q-50 0 -128 82t-62 194z" />
<glyph unicode="&#x1fb;" d="M146 426l30 214q26 180 186 282t422 102q264 0 394 -103t106 -281l-56 -392q-22 -162 10 -162q50 0 146 48l-12 -92q-124 -42 -178 -42q-42 0 -65 14t-30 30t-22 30t-41 14q-16 0 -69 -22t-140 -44t-187 -22q-260 0 -390 121t-104 305zM304 342q-14 -106 87 -181t261 -75 t283 75t137 181l54 384q14 102 -87 157t-267 55t-283 -55t-131 -157zM604 1322q12 88 83 151t159 63t142 -63t42 -151t-84 -150t-160 -62q-86 0 -140 63t-42 149zM688 1322q-8 -52 25 -90t85 -38q54 0 96 38t50 90q8 54 -24 91t-86 37q-52 0 -95 -37t-51 -91zM758 1750 q18 0 37 13t42 58t33 113q4 36 33 61t63 25q36 0 57 -25t17 -61q-16 -112 -116 -194t-150 -82q-28 0 -16 92z" />
<glyph unicode="&#x1fc;" horiz-adv-x="2304" d="M86 0l162 1152q26 180 186 282t422 102q176 0 372 -90l12 90h1110l-12 -86h-684q-68 0 -102 -3t-78 -15t-66 -42t-30 -80l-52 -372h684l-12 -84h-684l-88 -628q-8 -50 6 -80t55 -42t74 -15t101 -3h684l-12 -86h-1110l120 854h-768l-120 -854h-170zM388 938h768l42 300 q14 102 -87 157t-267 55t-283 -55t-131 -157zM1280 1820q18 0 37 13t42 58t33 113q4 36 33 61t63 25q36 0 57 -25t17 -61q-16 -112 -117 -194t-151 -82q-28 0 -14 92z" />
<glyph unicode="&#x1fd;" horiz-adv-x="2304" d="M144 406q16 128 158 166q98 26 422 26h384l18 128q14 102 -87 157t-267 55q-232 0 -344 -96l-80 94q182 88 436 88q278 0 448 -156q200 156 490 156q260 0 391 -121t105 -305l-12 -86h-940l-24 -170q-14 -106 88 -181t260 -75q164 0 278 56t136 156h172 q-64 -136 -218 -217t-380 -81q-212 0 -372 86l-12 -86q-34 0 -76 33t-84 33q-4 0 -131 -33t-263 -33q-256 0 -388 121t-108 285zM304 342q-14 -106 87 -181t261 -75t283 75t137 181l24 170h-384q-86 0 -151 -7t-124 -25t-92 -53t-41 -85zM1172 1352q18 0 37 13t42 58t33 113 q4 36 33 61t63 25q36 0 57 -25t17 -61q-16 -112 -116 -194t-150 -82q-28 0 -16 92zM1278 598h768l18 128q14 102 -87 157t-267 55t-283 -56t-131 -156z" />
<glyph unicode="&#x1fe;" d="M96 0l92 134q-74 70 -42 292l102 726q26 180 186 282t422 102q148 0 278 -38l88 124h116l-110 -156q90 -68 117 -137t11 -177l-102 -726q-26 -184 -192 -305t-422 -121q-218 0 -374 86l-60 -86h-110zM304 298l772 1114q-90 38 -232 38q-166 0 -283 -55t-131 -157 l-126 -896q-4 -22 0 -44zM348 200q98 -114 304 -114q160 0 283 75t137 181l126 896q10 74 -42 124zM854 1820q18 0 37 13t42 58t33 113q4 36 33 61t63 25q36 0 57 -25t17 -61q-16 -112 -117 -194t-151 -82q-28 0 -14 92z" />
<glyph unicode="&#x1ff;" horiz-adv-x="1536" d="M230 426l30 214q26 180 187 282t423 102q116 0 208 -20l72 106h116l-90 -128q116 -64 163 -144t31 -198l-30 -214q-26 -184 -192 -305t-422 -121q-114 0 -210 24l-76 -110h-110l94 140q-228 128 -194 372zM390 342q-16 -116 102 -190l530 770q-82 16 -164 16 q-166 0 -283 -55t-131 -157zM574 110q74 -24 164 -24q158 0 282 75t138 181l54 384q14 104 -98 164zM894 1352q18 0 37 13t42 58t33 113q4 36 33 61t63 25q36 0 57 -25t17 -61q-16 -112 -116 -194t-150 -82q-28 0 -16 92z" />
<glyph unicode="&#x200;" d="M86 0l162 1152q26 180 186 282t422 102q264 0 394 -103t106 -281l-162 -1152h-170l120 854h-768l-120 -854h-170zM388 938h768l42 300q14 102 -87 157t-267 55t-283 -55t-131 -157zM474 1956q6 36 34 61t62 25q36 0 58 -25t16 -61q-8 -68 2 -113t26 -58t34 -13 q-14 -92 -36 -92q-50 0 -130 82t-66 194zM1054 1956q6 36 34 61t62 25q36 0 58 -25t16 -61q-8 -68 2 -113t26 -58t34 -13q-14 -92 -36 -92q-50 0 -130 82t-66 194z" />
<glyph unicode="&#x201;" d="M146 426l30 214q26 180 186 282t422 102q264 0 394 -103t106 -281l-56 -392q-22 -162 10 -162q50 0 146 48l-12 -92q-124 -42 -178 -42q-42 0 -65 14t-30 30t-22 30t-41 14q-16 0 -69 -22t-140 -44t-187 -22q-260 0 -390 121t-104 305zM304 342q-14 -106 87 -181t261 -75 t283 75t137 181l54 384q14 102 -87 157t-267 55t-283 -55t-131 -157zM438 1536q4 36 33 61t63 25q36 0 57 -25t17 -61q-10 -68 1 -113t26 -58t33 -13q-12 -92 -34 -92q-50 0 -131 82t-65 194zM1018 1536q4 36 33 61t63 25q36 0 57 -25t17 -61q-10 -68 1 -113t26 -58t33 -13 q-12 -92 -34 -92q-50 0 -131 82t-65 194z" />
<glyph unicode="&#x202;" d="M86 0l162 1152q26 180 186 282t422 102q264 0 394 -103t106 -281l-162 -1152h-170l120 854h-768l-120 -854h-170zM388 938h768l42 300q14 102 -87 157t-267 55t-283 -55t-131 -157zM414 1742q8 46 52 110t112 126t166 105t198 43q188 0 308 -138t104 -246q-4 -34 -33 -59 t-63 -25t-57 25t-19 59q2 12 11 49t11 51q8 56 -73 135t-199 79t-220 -79t-110 -135q-2 -14 -4 -51t-4 -49q-4 -34 -32 -59t-64 -25t-62 25t-22 59z" />
<glyph unicode="&#x203;" d="M146 426l30 214q26 180 186 282t422 102q264 0 394 -103t106 -281l-56 -392q-22 -162 10 -162q50 0 146 48l-12 -92q-124 -42 -178 -42q-42 0 -65 14t-30 30t-22 30t-41 14q-16 0 -69 -22t-140 -44t-187 -22q-260 0 -390 121t-104 305zM304 342q-14 -106 87 -181t261 -75 t283 75t137 181l54 384q14 102 -87 157t-267 55t-283 -55t-131 -157zM342 1230q8 46 52 110t112 126t166 105t198 43q188 0 308 -138t104 -246q-4 -34 -33 -59t-63 -25t-57 25t-19 59q2 12 11 49t11 51q8 56 -73 135t-199 79t-220 -79t-110 -135q-2 -14 -4 -51t-4 -49 q-4 -34 -32 -59t-64 -25t-62 25t-22 59z" />
<glyph unicode="&#x204;" d="M86 0l216 1536h1108l-12 -86h-682q-68 0 -102 -3t-78 -15t-66 -42t-30 -80l-52 -372h682l-12 -84h-682l-88 -628q-8 -50 6 -80t55 -42t74 -15t101 -3h682l-12 -86h-1108zM494 1934q4 36 33 61t63 25q36 0 57 -25t17 -61q-10 -68 1 -113t26 -58t33 -13q-12 -92 -34 -92 q-50 0 -131 82t-65 194zM1074 1934q4 36 33 61t63 25q36 0 57 -25t17 -61q-10 -68 1 -113t26 -58t33 -13q-12 -92 -34 -92q-50 0 -131 82t-65 194z" />
<glyph unicode="&#x205;" d="M146 426l30 214q26 180 186 282t422 102q260 0 390 -121t104 -305l-12 -86h-938l-24 -170q-14 -106 87 -181t261 -75q126 0 255 49t187 121h116q-204 -256 -570 -256q-260 0 -390 121t-104 305zM340 598h768l18 128q14 102 -87 157t-267 55t-283 -55t-131 -157zM380 1422 q4 36 33 61t63 25q36 0 57 -25t17 -61q-10 -68 1 -113t26 -58t33 -13q-12 -92 -34 -92q-50 0 -131 82t-65 194zM960 1422q4 36 33 61t63 25q36 0 57 -25t17 -61q-10 -68 1 -113t26 -58t33 -13q-12 -92 -34 -92q-50 0 -131 82t-65 194z" />
<glyph unicode="&#x206;" d="M86 0l216 1536h1108l-12 -86h-682q-68 0 -102 -3t-78 -15t-66 -42t-30 -80l-52 -372h682l-12 -84h-682l-88 -628q-8 -50 6 -80t55 -42t74 -15t101 -3h682l-12 -86h-1108zM414 1742q8 46 52 110t112 126t166 105t198 43q188 0 308 -138t104 -246q-4 -34 -33 -59t-63 -25 t-57 25t-19 59q2 12 11 49t11 51q8 56 -73 135t-199 79t-220 -79t-110 -135q-2 -14 -4 -51t-4 -49q-4 -34 -32 -59t-64 -25t-62 25t-22 59z" />
<glyph unicode="&#x207;" d="M146 426l30 214q26 180 186 282t422 102q260 0 390 -121t104 -305l-12 -86h-938l-24 -170q-14 -106 87 -181t261 -75q126 0 255 49t187 121h116q-204 -256 -570 -256q-260 0 -390 121t-104 305zM340 598h768l18 128q14 102 -87 157t-267 55t-283 -55t-131 -157zM342 1230 q8 46 52 110t112 126t166 105t198 43q188 0 308 -138t104 -246q-4 -34 -33 -59t-63 -25t-57 25t-19 59q2 12 11 49t11 51q8 56 -73 135t-199 79t-220 -79t-110 -135q-2 -14 -4 -51t-4 -49q-4 -34 -32 -59t-64 -25t-62 25t-22 59z" />
<glyph unicode="&#x208;" horiz-adv-x="426" d="M84 0l216 1536h170l-216 -1536h-170zM144 1934q4 36 33 61t65 25q34 0 55 -25t17 -61q-10 -68 1 -113t26 -58t33 -13q-12 -92 -34 -92q-50 0 -131 82t-65 194zM528 1934q4 36 33 61t65 25q34 0 55 -25t17 -61q-10 -68 1 -113t26 -58t33 -13q-12 -92 -34 -92 q-50 0 -131 82t-65 194z" />
<glyph unicode="&#x209;" horiz-adv-x="640" d="M114 1422q4 36 34 61t64 25t56 -25t18 -61q-10 -68 0 -113t25 -58t33 -13q-12 -92 -32 -92q-52 0 -133 82t-65 194zM116 212l114 812h170l-112 -798q-20 -140 12 -140q76 0 236 88l-12 -90q-148 -84 -268 -84q-170 0 -140 212zM498 1422q4 36 34 61t64 25t56 -25t18 -61 q-10 -68 0 -113t25 -58t33 -13q-12 -92 -32 -92q-52 0 -133 82t-65 194z" />
<glyph unicode="&#x20a;" horiz-adv-x="426" d="M330 1742q16 108 176 246t350 138q188 0 308 -138t104 -246q-4 -34 -32 -59t-64 -25q-34 0 -56 25t-18 59q2 12 10 49t10 51q8 56 -73 135t-199 79t-220 -79t-110 -135q-2 -14 -4 -51t-4 -49q-4 -34 -32 -59t-62 -25q-36 0 -62 25t-22 59zM470 0l216 1536h170l-216 -1536 h-170z" />
<glyph unicode="&#x20b;" horiz-adv-x="596" d="M258 1230q16 108 176 246t350 138q188 0 308 -138t104 -246q-4 -34 -32 -59t-64 -25q-34 0 -56 25t-18 59q2 12 10 49t10 51q8 56 -73 135t-199 79t-220 -79t-110 -135q-2 -14 -4 -51t-4 -49q-4 -34 -32 -59t-62 -25q-36 0 -62 25t-22 59zM372 212l114 812h170l-112 -798 q-20 -140 12 -140q76 0 236 88l-12 -90q-148 -84 -268 -84q-170 0 -140 212z" />
<glyph unicode="&#x20c;" d="M146 426l102 726q26 180 186 282t422 102q264 0 394 -103t106 -281l-102 -726q-26 -184 -192 -305t-422 -121q-260 0 -390 121t-104 305zM304 342q-14 -106 87 -181t261 -75t283 75t137 181l126 896q14 102 -87 157t-267 55t-283 -55t-131 -157zM494 1934q4 36 33 61 t63 25q36 0 57 -25t17 -61q-10 -68 1 -113t26 -58t33 -13q-12 -92 -34 -92q-50 0 -131 82t-65 194zM1074 1934q4 36 33 61t63 25q36 0 57 -25t17 -61q-10 -68 1 -113t26 -58t33 -13q-12 -92 -34 -92q-50 0 -131 82t-65 194z" />
<glyph unicode="&#x20d;" d="M146 426l30 214q26 180 186 282t422 102q264 0 394 -103t106 -281l-30 -214q-26 -184 -192 -305t-422 -121q-260 0 -390 121t-104 305zM304 342q-14 -106 87 -181t261 -75t283 75t137 181l54 384q14 102 -87 157t-267 55t-283 -55t-131 -157zM422 1422q4 36 33 61t63 25 q36 0 57 -25t17 -61q-10 -68 1 -113t26 -58t33 -13q-12 -92 -34 -92q-50 0 -131 82t-65 194zM1002 1422q4 36 33 61t63 25q36 0 57 -25t17 -61q-10 -68 1 -113t26 -58t33 -13q-12 -92 -34 -92q-50 0 -131 82t-65 194z" />
<glyph unicode="&#x20e;" d="M146 426l102 726q26 180 186 282t422 102q264 0 394 -103t106 -281l-102 -726q-26 -184 -192 -305t-422 -121q-260 0 -390 121t-104 305zM304 342q-14 -106 87 -181t261 -75t283 75t137 181l126 896q14 102 -87 157t-267 55t-283 -55t-131 -157zM414 1742q8 46 52 110 t112 126t166 105t198 43q188 0 308 -138t104 -246q-4 -34 -33 -59t-63 -25t-57 25t-19 59q2 12 11 49t11 51q8 56 -73 135t-199 79t-220 -79t-110 -135q-2 -14 -4 -51t-4 -49q-4 -34 -32 -59t-64 -25t-62 25t-22 59z" />
<glyph unicode="&#x20f;" d="M146 426l30 214q26 180 186 282t422 102q264 0 394 -103t106 -281l-30 -214q-26 -184 -192 -305t-422 -121q-260 0 -390 121t-104 305zM304 342q-14 -106 87 -181t261 -75t283 75t137 181l54 384q14 102 -87 157t-267 55t-283 -55t-131 -157zM342 1230q8 46 52 110 t112 126t166 105t198 43q188 0 308 -138t104 -246q-4 -34 -33 -59t-63 -25t-57 25t-19 59q2 12 11 49t11 51q8 56 -73 135t-199 79t-220 -79t-110 -135q-2 -14 -4 -51t-4 -49q-4 -34 -32 -59t-64 -25t-62 25t-22 59z" />
<glyph unicode="&#x210;" d="M86 0l216 1536h512q240 0 364 -85t100 -257v-2q-28 -202 -218 -292q134 -52 182 -136t30 -210l-46 -328q-20 -140 12 -140q50 0 146 48l-12 -92q-124 -42 -178 -42q-170 0 -140 214l60 426q14 102 -87 158t-267 56h-384l-120 -854h-170zM408 1082q-8 -52 15 -82t84 -43 t112 -16t153 -3q146 0 231 64t97 148l12 88q14 102 -87 157t-267 55q-68 0 -100 -1t-79 -7t-70 -19t-42 -38t-25 -63zM410 1934q4 36 33 61t63 25q36 0 57 -25t17 -61q-10 -68 1 -113t26 -58t33 -13q-12 -92 -34 -92q-50 0 -131 82t-65 194zM990 1934q4 36 33 61t63 25 q36 0 57 -25t17 -61q-10 -68 1 -113t26 -58t33 -13q-12 -92 -34 -92q-50 0 -131 82t-65 194z" />
<glyph unicode="&#x211;" horiz-adv-x="768" d="M86 0l144 1024h170l-10 -68q174 68 352 68l-12 -86q-162 0 -260 -54t-112 -158l-102 -726h-170zM200 1422q4 36 33 61t65 25q34 0 55 -25t17 -61q-10 -68 1 -113t26 -58t33 -13q-12 -92 -34 -92q-50 0 -131 82t-65 194zM542 1422q4 36 33 61t63 25q36 0 57 -25t17 -61 q-10 -68 1 -113t26 -58t33 -13q-12 -92 -34 -92q-50 0 -131 82t-65 194z" />
<glyph unicode="&#x212;" d="M86 0l216 1536h512q240 0 364 -85t100 -257v-2q-28 -202 -218 -292q134 -52 182 -136t30 -210l-46 -328q-20 -140 12 -140q50 0 146 48l-12 -92q-124 -42 -178 -42q-170 0 -140 214l60 426q14 102 -87 158t-267 56h-384l-120 -854h-170zM370 1706q6 46 50 110t113 126 t167 105t198 43q188 0 307 -138t105 -246q-6 -36 -35 -61t-63 -25t-57 25t-17 61q2 12 11 48t11 50q8 56 -73 135t-199 79t-220 -78t-110 -136q-2 -14 -4 -50t-4 -48q-6 -36 -34 -61t-64 -25t-62 25t-20 61zM408 1082q-8 -52 15 -82t84 -43t112 -16t153 -3q146 0 231 64 t97 148l12 88q14 102 -87 157t-267 55q-68 0 -100 -1t-79 -7t-70 -19t-42 -38t-25 -63z" />
<glyph unicode="&#x213;" horiz-adv-x="768" d="M86 0l144 1024h170l-10 -68q174 68 352 68l-12 -86q-162 0 -260 -54t-112 -158l-102 -726h-170zM176 1238q6 46 43 110t95 126t140 105t162 43q154 0 249 -138t79 -246q-4 -36 -29 -61t-53 -25t-46 25t-12 61q2 12 10 48t10 50q8 56 -56 135t-161 79t-182 -78t-93 -136 q-2 -14 -5 -50t-5 -48q-4 -36 -28 -61t-54 -25t-50 25t-14 61z" />
<glyph unicode="&#x214;" d="M146 426l156 1110h170l-168 -1194q-14 -106 87 -181t261 -75t283 75t137 181l168 1194h170l-184 -1310q-20 -140 12 -140q50 0 146 48l-12 -92q-124 -42 -178 -42q-60 0 -91 33t-69 33q-4 0 -131 -33t-263 -33q-260 0 -390 121t-104 305zM494 1934q4 36 33 61t63 25 q36 0 57 -25t17 -61q-10 -68 1 -113t26 -58t33 -13q-12 -92 -34 -92q-50 0 -131 82t-65 194zM1074 1934q4 36 33 61t63 25q36 0 57 -25t17 -61q-10 -68 1 -113t26 -58t33 -13q-12 -92 -34 -92q-50 0 -131 82t-65 194z" />
<glyph unicode="&#x215;" d="M146 426l84 598h170l-96 -682q-14 -106 87 -181t261 -75t283 75t137 181l96 682h170l-110 -776q-22 -162 10 -162q50 0 146 48l-12 -92q-124 -42 -178 -42q-42 0 -65 14t-30 30t-22 30t-41 14q-16 0 -69 -22t-140 -44t-187 -22q-260 0 -390 121t-104 305zM438 1536 q4 36 33 61t63 25q36 0 57 -25t17 -61q-10 -68 1 -113t26 -58t33 -13q-12 -92 -34 -92q-50 0 -131 82t-65 194zM1018 1536q4 36 33 61t63 25q36 0 57 -25t17 -61q-10 -68 1 -113t26 -58t33 -13q-12 -92 -34 -92q-50 0 -131 82t-65 194z" />
<glyph unicode="&#x216;" d="M146 426l156 1110h170l-168 -1194q-14 -106 87 -181t261 -75t283 75t137 181l168 1194h170l-184 -1310q-20 -140 12 -140q50 0 146 48l-12 -92q-124 -42 -178 -42q-60 0 -91 33t-69 33q-4 0 -131 -33t-263 -33q-260 0 -390 121t-104 305zM416 1744q6 46 50 110t112 126 t167 105t199 43q188 0 307 -138t105 -246q-6 -36 -35 -61t-63 -25t-57 25t-17 61q0 12 9 48t11 50q8 56 -73 135t-199 79t-219 -78t-111 -136q-2 -14 -4 -50t-2 -48q-6 -36 -34 -61t-64 -25t-62 25t-20 61z" />
<glyph unicode="&#x217;" d="M146 426l84 598h170l-96 -682q-14 -106 87 -181t261 -75t283 75t137 181l96 682h170l-110 -776q-22 -162 10 -162q50 0 146 48l-12 -92q-124 -42 -178 -42q-42 0 -65 14t-30 30t-22 30t-41 14q-16 0 -69 -22t-140 -44t-187 -22q-260 0 -390 121t-104 305zM344 1238 q6 46 50 110t113 126t167 105t198 43q188 0 308 -138t104 -246q-6 -36 -35 -61t-63 -25t-57 25t-17 61q2 12 11 48t11 50q8 56 -73 135t-199 79t-220 -78t-110 -136q-2 -14 -4 -50t-4 -48q-6 -36 -34 -61t-64 -25t-62 25t-20 61z" />
<glyph unicode="&#x218;" d="M136 298h158q-14 -100 87 -156t267 -56q164 0 286 86t142 222q18 134 -64 222t-268 150q-466 150 -432 380q8 62 45 127t102 126t168 99t229 38q230 0 343 -74t135 -224h-158q14 102 -77 157t-255 55q-154 0 -248 -76t-112 -200q-16 -118 50 -193t222 -125 q288 -94 402 -196t96 -232v-2q-26 -184 -193 -305t-425 -121q-450 0 -500 298zM456 -426l14 92q18 0 36 13t41 58t31 113q6 36 36 61t64 25t56 -25t16 -61q-14 -112 -128 -194t-166 -82z" />
<glyph unicode="&#x219;" d="M136 298h162q-14 -102 85 -157t265 -55q118 0 200 15t144 65t74 134q30 212 -354 212q-218 0 -345 63t-113 171q18 124 159 201t393 77q236 0 339 -44t151 -170h-200q-30 80 -94 104t-208 24q-168 0 -261 -44t-109 -148q-6 -54 42 -89t114 -47t144 -12q286 0 407 -92 t105 -206v-2q-24 -170 -170 -234t-430 -64q-450 0 -500 298zM456 -426l14 92q18 0 36 13t41 58t31 113q6 36 36 61t64 25t56 -25t16 -61q-14 -112 -128 -194t-166 -82z" />
<glyph unicode="&#x21a;" d="M290 1450l12 86h1108l-12 -86h-468l-204 -1450h-172l204 1450h-468zM440 -426l14 92q18 0 36 13t41 58t31 113q6 36 36 61t64 25t56 -25t16 -61q-14 -112 -128 -194t-166 -82z" />
<glyph unicode="&#x21b;" horiz-adv-x="682" d="M154 -426l14 92q18 0 36 13t41 58t31 113q6 36 36 61t64 25t56 -25t16 -61q-14 -112 -128 -194t-166 -82zM200 212l102 726h-84l12 86h84l72 512h172l-72 -512h256l-12 -86h-256l-100 -712q-20 -140 12 -140q76 0 236 88l-12 -90q-148 -84 -268 -84q-172 0 -142 212z" />
<glyph unicode="&#x21e;" d="M86 0l216 1536h170l-84 -598h768l84 598h170l-216 -1536h-170l120 854h-768l-120 -854h-170zM454 2005q0 15 2 35q6 36 38 61t68 25q34 0 57 -25t17 -61q-10 -74 0 -98q8 -12 13 -19t16 -18t19 -18t31 -23t41 -28t58 -39t76 -49q28 16 65 36t55 31t42 25t36 20t28 16 t23 15t17 12t16 13l12 12t12 14q18 24 28 98q6 36 34 61t64 25q34 0 56 -25t16 -61q-2 -18 -6 -32t-10 -27t-19 -26t-24 -25t-38 -29t-49 -31t-65 -39t-81 -46t-102 -58t-124 -71q-52 36 -111 75t-92 62t-71 49t-57 40t-40 33t-28 31t-15 28t-8 31z" />
<glyph unicode="&#x21f;" d="M86 0l216 1536h170l-82 -580q174 68 394 68q264 0 394 -103t106 -281l-58 -414q-20 -140 12 -140q50 0 146 48l-12 -92q-124 -42 -178 -42q-170 0 -140 214l72 512q14 102 -87 157t-267 55t-283 -55t-131 -157l-102 -726h-170zM454 2005q0 15 2 35q6 36 38 61t68 25 q34 0 57 -25t17 -61q-10 -74 0 -98q8 -12 13 -19t16 -18t19 -18t31 -23t41 -28t58 -39t76 -49q28 16 65 36t55 31t42 25t36 20t28 16t23 15t17 12t16 13l12 12t12 14q18 24 28 98q6 36 34 61t64 25q34 0 56 -25t16 -61q-2 -18 -6 -32t-10 -27t-19 -26t-24 -25t-38 -29 t-49 -31t-65 -39t-81 -46t-102 -58t-124 -71q-52 36 -111 75t-92 62t-71 49t-57 40t-40 33t-28 31t-15 28t-8 31z" />
<glyph unicode="&#x226;" d="M86 0l162 1152q26 180 186 282t422 102q264 0 394 -103t106 -281l-162 -1152h-170l120 854h-768l-120 -854h-170zM388 938h768l42 300q14 102 -87 157t-267 55t-283 -55t-131 -157zM798 1742q6 36 34 61t64 25q34 0 56 -25t16 -61q-4 -34 -32 -59t-62 -25q-36 0 -58 25 t-18 59z" />
<glyph unicode="&#x227;" d="M146 426l30 214q26 180 186 282t422 102q264 0 394 -103t106 -281l-56 -392q-22 -162 10 -162q50 0 146 48l-12 -92q-124 -42 -178 -42q-42 0 -65 14t-30 30t-22 30t-41 14q-16 0 -69 -22t-140 -44t-187 -22q-260 0 -390 121t-104 305zM304 342q-14 -106 87 -181t261 -75 t283 75t137 181l54 384q14 102 -87 157t-267 55t-283 -55t-131 -157zM758 1450q4 36 33 61t65 25q34 0 55 -25t17 -61q-4 -34 -33 -59t-63 -25q-36 0 -57 25t-17 59z" />
<glyph unicode="&#x228;" d="M86 0l216 1536h1108l-12 -86h-682q-68 0 -102 -3t-78 -15t-66 -42t-30 -80l-52 -372h682l-12 -84h-682l-88 -628q-8 -50 6 -80t55 -42t74 -15t101 -3h682l-12 -86h-408q32 -42 40 -60q30 -64 37 -98t-3 -96q-6 -48 -43 -68t-75 -20q-22 0 -43 6t-39 27t-14 55q4 32 43 76 t41 70q8 48 -29 78t-61 30h-554z" />
<glyph unicode="&#x229;" d="M146 426l30 214q26 180 186 282t422 102q260 0 390 -121t104 -305l-12 -86h-938l-24 -170q-14 -106 87 -181t261 -75q126 0 255 49t187 121h116q-164 -206 -434 -246q34 -30 50 -70q30 -64 37 -98t-3 -96q-6 -48 -43 -68t-75 -20q-22 0 -43 6t-39 27t-14 55q4 32 43 76 t41 70q8 48 -29 78t-61 30q-260 0 -390 121t-104 305zM340 598h768l18 128q14 102 -87 157t-267 55t-283 -55t-131 -157z" />
<glyph unicode="&#x22a;" d="M146 426l102 726q26 180 186 282t422 102q264 0 394 -103t106 -281l-102 -726q-26 -184 -192 -305t-422 -121q-260 0 -390 121t-104 305zM304 342q-14 -106 87 -181t261 -75t283 75t137 181l126 896q14 102 -87 157t-267 55t-283 -55t-131 -157zM364 1998l12 86h1110 l-12 -86h-1110zM464 1792q4 36 34 61t64 25t56 -25t18 -61q-4 -34 -34 -59t-64 -25t-56 25t-18 59zM1148 1792q4 36 33 61t63 25q36 0 57 -25t17 -61q-4 -34 -33 -59t-65 -25q-34 0 -55 25t-17 59z" />
<glyph unicode="&#x22b;" d="M146 426l30 214q26 180 186 282t422 102q264 0 394 -103t106 -281l-30 -214q-26 -184 -192 -305t-422 -121q-260 0 -390 121t-104 305zM304 342q-14 -106 87 -181t261 -75t283 75t137 181l54 384q14 102 -87 157t-267 55t-283 -55t-131 -157zM324 1706l12 86h1110 l-12 -86h-1110zM416 1450q4 36 34 61t64 25t56 -25t18 -61q-4 -34 -34 -59t-64 -25t-56 25t-18 59zM1100 1450q4 36 33 61t63 25q36 0 57 -25t17 -61q-4 -34 -33 -59t-65 -25q-34 0 -55 25t-17 59z" />
<glyph unicode="&#x22d;" d="M146 426l30 214q26 180 186 282t422 102q264 0 394 -103t106 -281l-30 -214q-26 -184 -192 -305t-422 -121q-260 0 -390 121t-104 305zM304 342q-14 -106 87 -181t261 -75t283 75t137 181l54 384q14 102 -87 157t-267 55t-283 -55t-131 -157zM324 1704l12 86h1110 l-12 -86h-1110zM356 1324q8 56 35 120t86 121t131 57q86 0 146 -35t90 -86t54 -101t57 -85t81 -35q82 0 112 214h170q-8 -56 -35 -120t-85 -121t-130 -57q-80 0 -137 35t-90 85t-60 100t-62 85t-81 35q-82 0 -112 -212h-170z" />
<glyph unicode="&#x22e;" d="M146 426l102 726q26 180 186 282t422 102q264 0 394 -103t106 -281l-102 -726q-26 -184 -192 -305t-422 -121q-260 0 -390 121t-104 305zM304 342q-14 -106 87 -181t261 -75t283 75t137 181l126 896q14 102 -87 157t-267 55t-283 -55t-131 -157zM798 1742q6 36 34 61 t64 25q34 0 56 -25t16 -61q-4 -34 -32 -59t-62 -25q-36 0 -58 25t-18 59z" />
<glyph unicode="&#x22f;" d="M146 426l30 214q26 180 186 282t422 102q264 0 394 -103t106 -281l-30 -214q-26 -184 -192 -305t-422 -121q-260 0 -390 121t-104 305zM304 342q-14 -106 87 -181t261 -75t283 75t137 181l54 384q14 102 -87 157t-267 55t-283 -55t-131 -157zM758 1450q4 36 33 61t65 25 q34 0 55 -25t17 -61q-4 -34 -33 -59t-63 -25q-36 0 -57 25t-17 59z" />
<glyph unicode="&#x230;" d="M146 426l102 726q26 180 186 282t422 102q264 0 394 -103t106 -281l-102 -726q-26 -184 -192 -305t-422 -121q-260 0 -390 121t-104 305zM304 342q-14 -106 87 -181t261 -75t283 75t137 181l126 896q14 102 -87 157t-267 55t-283 -55t-131 -157zM358 1950l12 86h1110 l-12 -86h-1110zM798 1742q6 36 34 61t64 25q34 0 56 -25t16 -61q-4 -34 -32 -59t-62 -25q-36 0 -58 25t-18 59z" />
<glyph unicode="&#x2c6;" horiz-adv-x="1536" d="M430 1238q2 20 7 35t17 31t22 28t37 31t50 33t68 40t85 49t109 62t133 75q50 -34 103 -71t85 -58t69 -46t55 -39t40 -31t30 -29t17 -25t11 -26t2 -27t-2 -32q-6 -36 -34 -61t-62 -25q-36 0 -58 25t-16 61q10 74 0 98q-6 8 -10 14l-8 12t-12 13t-14 12t-19 15t-23 16 t-30 20t-35 25t-47 31t-54 36q-42 -22 -90 -49t-70 -39t-49 -28t-37 -23t-24 -18t-21 -18t-17 -19q-18 -24 -28 -98q-6 -36 -35 -61t-63 -25q-36 0 -62 25t-20 61z" />
<glyph unicode="&#x2c7;" horiz-adv-x="1536" d="M456 1415q0 15 4 35q4 36 37 61t69 25q34 0 56 -25t18 -61q-10 -74 0 -98q6 -12 11 -19t17 -18t20 -18t30 -23t41 -28t59 -39t74 -49q28 16 65 36t56 31t43 25t36 20t27 16t23 15t18 12t16 13t11 12t13 14q18 24 28 98q4 36 33 61t65 25q34 0 55 -25t17 -61 q-2 -18 -6 -32t-10 -27t-19 -26l-25 -25t-38 -29t-48 -31t-66 -39t-82 -46t-102 -58t-122 -71q-54 36 -112 75t-92 62t-71 49t-56 40t-41 33t-29 31t-15 28t-8 31z" />
<glyph unicode="&#x2d8;" horiz-adv-x="1536" d="M460 1450q4 36 37 61t69 25q34 0 56 -25t18 -61q-2 -12 -11 -48t-11 -50q-8 -58 72 -136t200 -78q118 0 220 79t110 135q2 14 4 50t4 48q4 36 33 61t65 25q34 0 55 -25t17 -61q-16 -106 -174 -245t-344 -139q-100 0 -186 43t-137 105t-77 126t-20 110z" />
<glyph unicode="&#x2d9;" horiz-adv-x="426" d="M332 1450q4 36 33 61t65 25q34 0 55 -25t17 -61q-4 -34 -33 -59t-63 -25q-36 0 -57 25t-17 59z" />
<glyph unicode="&#x2da;" horiz-adv-x="596" d="M272 1322q12 88 83 151t159 63t142 -63t42 -151t-84 -150t-160 -62q-86 0 -140 63t-42 149zM356 1322q-8 -52 25 -90t85 -38q54 0 96 38t50 90q8 54 -24 91t-86 37q-52 0 -95 -37t-51 -91z" />
<glyph unicode="&#x2db;" horiz-adv-x="1620" d="M1074 -254q10 62 25 96t65 98q46 64 118 107t96 43l-12 -90q-24 0 -70 -30t-54 -78q-2 -26 23 -70t21 -76q-6 -48 -43 -68t-75 -20q-22 0 -43 6t-38 27t-13 55z" />
<glyph unicode="&#x2dc;" horiz-adv-x="1536" d="M430 1238q8 56 35 120t86 121t131 57q86 0 146 -35t90 -86t54 -101t57 -85t81 -35q82 0 112 214h170q-8 -56 -35 -120t-85 -121t-130 -57q-80 0 -137 35t-90 85t-60 100t-62 85t-81 35q-82 0 -112 -212h-170z" />
<glyph unicode="&#x2dd;" horiz-adv-x="1536" d="M476 1266q18 0 37 13t42 58t33 113q4 36 33 61t65 25q34 0 55 -25t17 -61q-16 -112 -120 -194t-154 -82q-22 0 -8 92zM1074 1266q18 0 37 13t42 58t33 113q4 36 33 61t63 25q36 0 57 -25t17 -61q-16 -112 -120 -194t-154 -82q-22 0 -8 92z" />
<glyph unicode="&#x400;" horiz-adv-x="1280" d="M86 0l216 1536h1108l-12 -86h-682q-68 0 -102 -3t-78 -15t-66 -42t-30 -80l-52 -372h682l-12 -84h-682l-88 -628q-8 -50 6 -80t55 -42t74 -15t101 -3h682l-12 -86h-1108zM840 2040q6 36 35 61t63 25t57 -25t17 -61q-8 -68 1 -113t24 -58t33 -13q-12 -92 -40 -92 q-50 0 -128 82t-62 194z" />
<glyph unicode="&#x401;" horiz-adv-x="1280" d="M86 0l216 1536h1108l-12 -86h-682q-68 0 -102 -3t-78 -15t-66 -42t-30 -80l-52 -372h682l-12 -84h-682l-88 -628q-8 -50 6 -80t55 -42t74 -15t101 -3h682l-12 -86h-1108zM468 1828q6 36 35 61t63 25t57 -25t17 -61q-4 -34 -33 -59t-63 -25t-57 25t-19 59zM1152 1828 q6 36 34 61t62 25q36 0 58 -25t16 -61q-4 -34 -32 -59t-64 -25q-34 0 -56 25t-18 59z" />
<glyph unicode="&#x402;" horiz-adv-x="1706" d="M290 1450l12 86h1280l-12 -86h-598l-70 -494q74 30 103 39t83 19t122 10q256 0 349 -98t67 -286l-120 -856q-30 -210 -200 -210q-78 0 -126 18l14 92q46 -26 92 -26q32 0 52 142l130 926q14 106 -50 159t-220 53t-235 -53t-93 -159l-102 -726h-170l204 1450h-512z" />
<glyph unicode="&#x403;" horiz-adv-x="1200" d="M86 0l216 1536h1024l-12 -86h-598q-68 0 -102 -3t-78 -15t-66 -42t-30 -80l-172 -1224l-12 -86h-170zM814 1856q18 0 37 13t43 58t32 113q6 36 34 61t62 25q36 0 58 -25t16 -61q-16 -112 -116 -194t-150 -82q-28 0 -16 92z" />
<glyph unicode="&#x404;" d="M146 426l102 726q26 180 186 282t422 102q382 0 504 -214l-162 -84q14 102 -87 157t-267 55t-283 -55t-131 -157l-42 -300h598l-12 -84h-598l-72 -512q-14 -106 87 -181t261 -75t283 75t137 181l134 -106q-218 -236 -566 -236q-260 0 -390 121t-104 305z" />
<glyph unicode="&#x405;" d="M136 298h158q-14 -100 87 -156t267 -56q164 0 286 86t142 222q18 134 -64 222t-268 150q-466 150 -432 380q8 62 45 127t102 126t168 99t229 38q230 0 343 -74t135 -224h-158q14 102 -77 157t-255 55q-154 0 -248 -76t-112 -200q-16 -118 50 -193t222 -125 q288 -94 402 -196t96 -232v-2q-26 -184 -193 -305t-425 -121q-450 0 -500 298z" />
<glyph unicode="&#x406;" horiz-adv-x="426" d="M86 0l216 1536h170l-216 -1536h-170z" />
<glyph unicode="&#x407;" horiz-adv-x="426" d="M86 0l216 1536h170l-216 -1536h-170zM158 1742q6 36 35 61t63 25t57 -25t17 -61q-4 -34 -33 -59t-63 -25t-57 25t-19 59zM500 1742q6 36 34 61t64 25q34 0 56 -25t16 -61q-4 -34 -32 -59t-62 -25q-36 0 -58 25t-18 59z" />
<glyph unicode="&#x408;" horiz-adv-x="596" d="M28 -408l14 92q46 -26 134 -26q32 0 52 142l232 1650h-170l12 86h340l-246 -1752q-30 -210 -200 -210q-120 0 -168 18z" />
<glyph unicode="&#x409;" horiz-adv-x="2388" d="M42 0l12 86h96q36 0 60 38t61 187t84 435t117 790h1024l-64 -454q-8 -52 15 -82t84 -43t112 -16t153 -3q140 0 240 -32t151 -78t77 -111t29 -117t-7 -110q-26 -192 -199 -341t-423 -149h-384h-170l204 1450h-684q-120 -838 -164 -1034q-64 -282 -162 -362 q-70 -54 -198 -54h-64zM1312 226q-6 -34 3 -59t37 -40t54 -24t79 -12t87 -4t104 -1q160 0 283 75t137 181l42 298q14 102 -87 158t-267 56h-384z" />
<glyph unicode="&#x40a;" horiz-adv-x="2304" d="M86 0l216 1536h170l-84 -598h768l84 598h170l-64 -454q-4 -34 4 -60t36 -41t55 -24t79 -13t88 -5t102 -1q140 0 240 -32t152 -78t78 -111t29 -117t-7 -110q-26 -192 -200 -341t-424 -149h-384h-170l120 854h-768l-120 -854h-170zM1226 226q-6 -34 3 -59t37 -40t54 -24 t79 -12t87 -4t104 -1q160 0 283 75t137 181l42 298q14 102 -87 158t-267 56h-384z" />
<glyph unicode="&#x40b;" horiz-adv-x="1706" d="M290 1450l12 86h1280l-12 -86h-598l-70 -494q74 30 103 39t83 19t122 10q256 0 349 -98t67 -286l-90 -640h-170l102 726q14 106 -50 159t-220 53t-235 -53t-93 -159l-102 -726h-170l204 1450h-512z" />
<glyph unicode="&#x40c;" horiz-adv-x="1280" d="M86 0l216 1536h170l-52 -370l926 370l54 -72l-510 -216q472 -48 418 -438l-82 -584q-20 -140 12 -140q50 0 146 48l-12 -92q-124 -42 -178 -42q-170 0 -140 212v2l96 682q18 128 -98 205t-354 77l-292 -110l-150 -1068h-170zM836 1856q18 0 37 13t43 58t32 113 q6 36 34 61t62 25q36 0 58 -25t16 -61q-16 -112 -116 -194t-150 -82q-28 0 -16 92z" />
<glyph unicode="&#x40d;" horiz-adv-x="1280" d="M86 0l216 1536h170l-94 -668q104 78 174 106q100 42 232 50q150 0 284 123t150 239l22 150h170l-216 -1536h-170l156 1110q-186 -172 -408 -172q-152 0 -283 -104t-147 -216l-86 -618h-170zM798 2040q6 36 35 61t63 25t57 -25t17 -61q-8 -68 1 -113t24 -58t33 -13 q-12 -92 -40 -92q-50 0 -128 82t-62 194z" />
<glyph unicode="&#x40e;" horiz-adv-x="1280" d="M72 -170h146q38 -74 144 -123t230 -49q158 0 282 75t138 181l24 172q-180 -86 -396 -86q-260 0 -390 122t-104 306l156 1108h170l-168 -1192q-14 -108 87 -183t261 -75t283 75t137 183l168 1192h170l-216 -1536q-28 -204 -189 -315t-425 -111q-192 0 -320 69t-188 187z M458 2044q4 36 37 61t69 25q34 0 56 -25t18 -61q-2 -12 -11 -48t-11 -50q-8 -58 72 -136t200 -78q118 0 220 79t110 135q2 14 4 50t4 48q4 36 33 61t65 25q34 0 55 -25t17 -61q-16 -106 -174 -245t-344 -139q-100 0 -186 43t-138 105t-78 126t-18 110z" />
<glyph unicode="&#x40f;" horiz-adv-x="1450" d="M86 0l216 1536h170l-204 -1450h768l204 1450h170l-184 -1310q-20 -140 12 -140h96l-12 -86h-640l-36 -256h-84l36 256h-512z" />
<glyph unicode="&#x410;" d="M86 0l162 1152q26 180 186 282t422 102q264 0 394 -103t106 -281l-162 -1152h-170l120 854h-768l-120 -854h-170zM388 938h768l42 300q14 102 -87 157t-267 55t-283 -55t-131 -157z" />
<glyph unicode="&#x411;" d="M86 0l216 1536h938l-12 -86h-470q-54 0 -81 -1t-70 -4t-65 -12t-47 -24t-38 -40t-17 -59l-32 -228q-8 -52 15 -82t84 -43t112 -16t153 -3q140 0 240 -32t151 -78t77 -111t29 -117t-7 -110q-26 -192 -199 -341t-423 -149h-554zM288 226q-6 -34 3 -59t37 -40t54 -24t79 -12 t87 -4t104 -1q160 0 283 75t137 181l42 298q14 102 -87 158t-267 56h-384zM302 1536z" />
<glyph unicode="&#x412;" d="M86 0l216 1536h512q244 0 365 -93t97 -255v-2q-30 -214 -216 -286q142 -80 183 -170t17 -260q-26 -190 -197 -330t-423 -140h-554zM288 226q-6 -34 3 -59t37 -40t54 -24t79 -12t87 -4t104 -1q154 0 282 94t144 204l30 214q14 106 -88 181t-260 75h-384zM302 1536z M408 1082q-8 -52 15 -82t84 -43t112 -16t153 -3q162 0 237 51t93 185l10 64q30 212 -354 212q-54 0 -81 -1t-70 -4t-65 -12t-47 -24t-38 -40t-17 -59z" />
<glyph unicode="&#x413;" horiz-adv-x="1280" d="M86 0l216 1536h1024l-12 -86h-598q-68 0 -102 -3t-78 -15t-66 -42t-30 -80l-172 -1224l-12 -86h-170z" />
<glyph unicode="&#x414;" horiz-adv-x="1620" d="M62 -170l36 256h84q96 52 145 103t59 123l172 1224h938l-204 -1450h170l-36 -256h-84l24 170h-1196l-24 -170h-84zM354 86h768l192 1364h-598l-162 -1154q-8 -48 -71 -129t-129 -81z" />
<glyph unicode="&#x415;" d="M86 0l216 1536h1108l-12 -86h-682q-68 0 -102 -3t-78 -15t-66 -42t-30 -80l-52 -372h682l-12 -84h-682l-88 -628q-8 -50 6 -80t55 -42t74 -15t101 -3h682l-12 -86h-1108z" />
<glyph unicode="&#x416;" horiz-adv-x="2304" d="M86 0l130 918q42 312 420 368l-348 146l74 72l826 -338l52 370h170l-52 -370l924 340l54 -72l-394 -148q364 -56 322 -368l-130 -918h-172l140 1002q16 102 -85 158t-269 56l-404 -148l-150 -1068h-170l150 1068l-364 148q-168 0 -283 -56t-131 -158l-140 -1002h-170z " />
<glyph unicode="&#x417;" d="M146 426h170l-12 -84q-14 -106 87 -181t261 -75q148 0 275 67t141 167l46 320q30 214 -268 214l12 84q56 0 99 17t69 42t43 64t25 70t14 73l12 84q22 162 -276 162q-146 0 -243 -43t-123 -127h-128q60 138 171 197t335 59q248 0 347 -84t81 -214q-10 -64 -21 -107 t-33 -95t-63 -86t-99 -52q242 -74 198 -386l-12 -86q-26 -184 -192 -305t-422 -121q-260 0 -390 121t-104 305z" />
<glyph unicode="&#x418;" d="M86 0l216 1536h170l-94 -668q104 78 174 106q100 42 232 50q150 0 284 123t150 239l22 150h170l-216 -1536h-170l156 1110q-186 -172 -408 -172q-152 0 -283 -104t-147 -216l-86 -618h-170z" />
<glyph unicode="&#x419;" d="M86 0l216 1536h170l-94 -668q104 78 174 106q100 42 232 50q150 0 284 123t150 239l22 150h170l-216 -1536h-170l156 1110q-186 -172 -408 -172q-152 0 -283 -104t-147 -216l-86 -618h-170zM456 2040q6 36 38 61t68 25q34 0 57 -25t17 -61q0 -12 -10 -48t-12 -50 q-8 -58 72 -136t200 -78q118 0 221 79t109 135q2 14 5 50t3 48q6 36 34 61t64 25q34 0 56 -25t16 -61q-14 -106 -173 -245t-345 -139q-100 0 -186 43t-137 105t-77 126t-20 110z" />
<glyph unicode="&#x41a;" d="M86 0l216 1536h170l-52 -370l926 370l54 -72l-510 -216q472 -48 418 -438l-82 -584q-20 -140 12 -140q50 0 146 48l-12 -92q-124 -42 -178 -42q-170 0 -140 212v2l96 682q18 128 -98 205t-354 77l-292 -110l-150 -1068h-170z" />
<glyph unicode="&#x41b;" horiz-adv-x="1450" d="M86 0l12 86h52q36 0 60 38t61 187t84 435t117 790h1024l-216 -1536h-170l204 1450h-684q-130 -902 -190 -1132q-64 -240 -158 -292q-44 -26 -112 -26h-84z" />
<glyph unicode="&#x41c;" horiz-adv-x="1792" d="M86 0l216 1536h170q42 -6 108 -22t217 -81t237 -153q100 80 258 144t266 88l108 24h172l-216 -1536h-172l180 1280q16 118 -110 118q-118 0 -265 -94t-161 -194l-48 -342h-170l48 342q16 118 -92 197t-234 79q-148 0 -162 -106l-180 -1280h-170z" />
<glyph unicode="&#x41d;" d="M86 0l216 1536h170l-84 -598h768l84 598h170l-216 -1536h-170l120 854h-768l-120 -854h-170z" />
<glyph unicode="&#x41e;" d="M146 426l102 726q26 180 186 282t422 102q264 0 394 -103t106 -281l-102 -726q-26 -184 -192 -305t-422 -121q-260 0 -390 121t-104 305zM304 342q-14 -106 87 -181t261 -75t283 75t137 181l126 896q14 102 -87 157t-267 55t-283 -55t-131 -157z" />
<glyph unicode="&#x41f;" d="M86 0l216 1536h1108l-216 -1536h-170l204 1450h-768l-204 -1450h-170z" />
<glyph unicode="&#x420;" d="M86 0l216 1536h554q264 0 394 -103t106 -281l-30 -214q-26 -184 -192 -305t-422 -121q-216 0 -372 86l-84 -598h-170zM376 854q-14 -106 87 -181t261 -75t283 75t137 181l54 384q14 102 -87 157t-267 55t-283 -55t-131 -157z" />
<glyph unicode="&#x421;" d="M146 426l102 726q26 180 186 282t422 102q238 0 381 -82t131 -216h-128q14 100 -105 156t-291 56q-166 0 -283 -55t-131 -157l-126 -896q-14 -106 87 -181t261 -75q164 0 306 76t156 180h128q-32 -136 -204 -239t-398 -103q-260 0 -390 121t-104 305z" />
<glyph unicode="&#x422;" d="M290 1450l12 86h1108l-12 -86h-468l-204 -1450h-172l204 1450h-468z" />
<glyph unicode="&#x423;" d="M72 -170h146q38 -74 144 -123t230 -49q158 0 282 75t138 181l24 172q-180 -86 -396 -86q-260 0 -390 122t-104 306l156 1108h170l-168 -1192q-14 -108 87 -183t261 -75t283 75t137 183l168 1192h170l-216 -1536q-28 -204 -189 -315t-425 -111q-192 0 -320 69t-188 187z " />
<glyph unicode="&#x424;" horiz-adv-x="1620" d="M170 598l66 468q22 162 194 261t456 119l12 90h172l-12 -90q276 -22 420 -122t122 -258l-66 -468q-24 -166 -201 -283t-455 -141l-24 -174h-172l26 178q-272 26 -416 142t-122 278zM328 512q-12 -88 100 -158t290 -92l156 1100q-190 -14 -317 -69t-139 -141zM890 262 q186 22 318 92t144 158l90 640q12 86 -98 140t-300 66z" />
<glyph unicode="&#x425;" d="M86 0l78 554q18 136 87 220t221 126q-138 48 -182 145t-24 235l36 256h170l-48 -342q-16 -106 87 -181t261 -75t281 75t139 181l48 342h170l-36 -256q-42 -292 -314 -380q140 -40 185 -126t27 -220l-78 -554h-170l90 640q14 102 -87 158t-267 56t-283 -56t-131 -158 l-90 -640h-170z" />
<glyph unicode="&#x426;" horiz-adv-x="1536" d="M86 0l216 1536h170l-204 -1450h768l204 1450h170l-184 -1310q-20 -140 12 -140h140l-48 -342h-86l36 256h-1194z" />
<glyph unicode="&#x427;" d="M254 1196l48 340h170l-60 -424q-14 -108 87 -183t261 -75t283 75t137 183l60 424h170l-216 -1536h-170l120 854q-180 -86 -396 -86q-260 0 -390 122t-104 306z" />
<glyph unicode="&#x428;" horiz-adv-x="1876" d="M86 0l216 1536h170l-204 -1450h512l204 1450h170l-204 -1450h512l204 1450h172l-184 -1310q-20 -140 12 -140h138l-12 -86h-1706z" />
<glyph unicode="&#x429;" horiz-adv-x="1962" d="M86 0l216 1536h170l-204 -1450h512l204 1450h170l-204 -1450h512l204 1450h172l-184 -1310q-20 -140 12 -140h138l-48 -342h-86l36 256h-1620z" />
<glyph unicode="&#x42a;" horiz-adv-x="1792" d="M290 1450l12 86h596l-64 -454q-4 -34 4 -60t36 -41t55 -24t79 -13t88 -5t102 -1q138 0 239 -31t152 -77t77 -110t30 -116t-4 -110q-28 -200 -195 -347t-431 -147h-554l204 1450h-426zM714 226q-6 -34 3 -59t37 -40t54 -24t79 -12t87 -4t104 -1q160 0 283 75t137 181 l42 298q14 102 -87 158t-267 56h-384z" />
<glyph unicode="&#x42b;" horiz-adv-x="1706" d="M86 0l216 1536h170l-64 -454q-8 -52 15 -82t84 -43t112 -16t153 -3q138 0 239 -31t151 -77t77 -110t30 -116t-5 -110l-2 -4q-32 -206 -200 -348t-422 -142h-554zM288 226q-6 -34 3 -59t37 -40t54 -24t79 -12t87 -4t104 -1q160 0 283 75t137 181l42 298q14 102 -87 158 t-267 56h-384zM1366 0l216 1536h170l-216 -1536h-170z" />
<glyph unicode="&#x42c;" d="M86 0l216 1536h170l-64 -454q-8 -52 15 -82t84 -43t112 -16t153 -3q138 0 239 -31t151 -77t77 -110t30 -116t-5 -110l-2 -4q-32 -206 -200 -348t-422 -142h-554zM288 226q-6 -34 3 -59t37 -40t54 -24t79 -12t87 -4t104 -1q160 0 283 75t137 181l42 298q14 102 -87 158 t-267 56h-384z" />
<glyph unicode="&#x42d;" d="M142 236l162 106q-14 -106 87 -181t261 -75t283 75t137 181l60 426h-598l12 86h598l54 384q14 102 -87 157t-267 55t-283 -55t-131 -157l-138 84q122 124 244 169t320 45q262 0 394 -102t106 -282l-102 -726q-26 -184 -190 -305t-424 -121q-190 0 -308 56t-190 180z" />
<glyph unicode="&#x42e;" horiz-adv-x="1792" d="M86 0l216 1536h170l-84 -598h256l30 214q26 180 186 282t422 102q266 0 396 -103t106 -281l-102 -726q-26 -184 -193 -305t-423 -121q-260 0 -390 121t-104 305l60 428h-256l-120 -854h-170zM730 342q-14 -106 88 -181t260 -75q160 0 283 75t137 181l126 896 q14 102 -87 157t-267 55t-283 -56t-131 -156z" />
<glyph unicode="&#x42f;" d="M86 0l78 554q18 132 89 217t219 129q-102 46 -126 114t-8 178v2q24 172 172 257t388 85h512l-216 -1536h-170l120 854h-384q-166 0 -283 -56t-131 -158l-90 -640h-170zM504 1150q-12 -84 55 -148t213 -64q102 0 153 3t116 16t96 43t39 82l34 240q6 38 -7 63t-32 38 t-64 19t-77 7t-100 1q-166 0 -283 -55t-131 -157z" />
<glyph unicode="&#x430;" d="M146 426l30 214q26 180 186 282t422 102q264 0 394 -103t106 -281l-56 -392q-22 -162 10 -162q50 0 146 48l-12 -92q-124 -42 -178 -42q-42 0 -65 14t-30 30t-22 30t-41 14q-16 0 -69 -22t-140 -44t-187 -22q-260 0 -390 121t-104 305zM304 342q-14 -106 87 -181t261 -75 t283 75t137 181l54 384q14 102 -87 157t-267 55t-283 -55t-131 -157z" />
<glyph unicode="&#x431;" d="M146 426l74 526q22 154 76 265t121 172t164 95t178 43t189 9h206l-12 -86h-170q-84 0 -147 -5t-140 -26t-128 -58t-92 -104t-55 -161l-20 -140q174 68 394 68q264 0 394 -103t106 -281l-30 -214q-26 -184 -192 -305t-422 -121q-260 0 -390 121t-104 305zM304 342 q-14 -106 87 -181t261 -75t283 75t137 181l54 384q14 102 -87 157t-267 55t-283 -55t-131 -157z" />
<glyph unicode="&#x432;" d="M106 81q-6 25 0 59l104 744q6 34 18 59t37 40t47 24t65 12t70 4t81 1h256q248 0 349 -73t85 -183q-10 -76 -63 -138t-135 -74q118 -20 175 -83t43 -153q-18 -138 -180 -229t-418 -91h-256q-54 0 -81 1t-68 4t-61 12t-41 24t-27 40zM288 167q6 -25 27 -40t41 -24t61 -12 t68 -4t81 -1h86q156 0 278 59t134 133q14 100 -61 167t-249 67h-426l-40 -286q-6 -34 0 -59zM340 598h426q134 0 203 57t79 121q10 74 -69 118t-207 44h-86q-54 0 -81 -1t-70 -4t-65 -12t-47 -24t-38 -40t-17 -59z" />
<glyph unicode="&#x433;" horiz-adv-x="1280" d="M128 298v2q8 52 39 100t93 95t176 75t266 28q80 0 150 12t127 47t63 89q28 192 -356 192q-118 0 -168 -14t-90 -64l-92 104q96 60 362 60q258 0 396 -79t120 -199q-14 -108 -160 -171t-364 -63q-174 0 -276 -55t-116 -159q-10 -64 17 -108t85 -65t124 -30t154 -9 q126 0 217 42t129 116l96 -116q-158 -128 -454 -128q-288 0 -425 65t-113 233z" />
<glyph unicode="&#x434;" horiz-adv-x="1536" d="M230 426l30 214q24 178 184 281t426 103q218 0 374 -68l2 12q24 176 -120 329t-324 153h-86l12 86h122q238 0 412 -203t140 -467l-62 -440q-26 -184 -190 -305t-424 -121q-256 0 -389 121t-107 305zM390 342q-14 -106 87 -181t261 -75q158 0 282 75t138 181l54 384 q14 100 -87 156t-267 56t-283 -55t-131 -157z" />
<glyph unicode="&#x435;" d="M146 426l30 214q26 180 186 282t422 102q260 0 390 -121t104 -305l-12 -86h-938l-24 -170q-14 -106 87 -181t261 -75q126 0 255 49t187 121h116q-204 -256 -570 -256q-260 0 -390 121t-104 305zM340 598h768l18 128q14 102 -87 157t-267 55t-283 -55t-131 -157z" />
<glyph unicode="&#x436;" horiz-adv-x="2304" d="M88 8l12 90q46 -12 126 -12q158 0 282 75t138 181l54 384q14 100 -87 156t-267 56q-74 0 -130 -8l14 88q60 6 128 6q262 0 394 -102t106 -282l-16 -116l308 368l18 132h170l-94 -668l338 402q164 266 568 266q66 0 128 -6l-14 -88q-56 8 -126 8q-166 0 -283 -55 t-131 -157l-54 -384q-14 -106 87 -181t261 -75q62 0 130 12l-12 -90q-58 -8 -130 -8q-260 0 -391 121t-105 305l14 104l-306 -366l-24 -164h-170l98 698l-358 -424q-196 -274 -550 -274q-48 0 -126 8z" />
<glyph unicode="&#x437;" d="M146 426h170l-12 -84q-14 -106 87 -181t261 -75q150 0 278 78t138 156q16 104 -58 184t-244 94l12 84q138 0 203 40t73 98q6 48 -32 75t-97 35t-153 8q-146 0 -243 -43t-123 -127h-128q58 122 174 189t332 67q256 0 355 -55t85 -159q-20 -142 -192 -168 q238 -100 212 -280q-20 -142 -187 -252t-417 -110q-260 0 -390 121t-104 305z" />
<glyph unicode="&#x438;" d="M146 426l84 598h170l-96 -682q-14 -106 87 -181t261 -75t283 75t137 181l96 682h170l-110 -776q-22 -162 10 -162q50 0 146 48l-12 -92q-124 -42 -178 -42q-42 0 -65 14t-30 30t-22 30t-41 14q-16 0 -69 -22t-140 -44t-187 -22q-260 0 -390 121t-104 305z" />
<glyph unicode="&#x439;" d="M146 426l84 598h170l-96 -682q-14 -106 87 -181t261 -75t283 75t137 181l96 682h170l-110 -776q-22 -162 10 -162q50 0 146 48l-12 -92q-124 -42 -178 -42q-42 0 -65 14t-30 30t-22 30t-41 14q-16 0 -69 -22t-140 -44t-187 -22q-260 0 -390 121t-104 305zM386 1536 q4 36 37 61t69 25q34 0 56 -25t18 -61q-2 -12 -11 -48t-11 -50q-8 -58 72 -136t200 -78q118 0 220 79t110 135q2 14 4 50t4 48q4 36 33 61t65 25q34 0 55 -25t17 -61q-16 -106 -174 -245t-344 -139q-100 0 -186 43t-137 105t-77 126t-20 110z" />
<glyph unicode="&#x43a;" d="M86 0l144 1024h170l-52 -370l926 370l54 -72l-472 -190q200 -30 307 -123t89 -233l-26 -180q-20 -140 12 -140q50 0 146 48l-12 -92q-124 -42 -178 -42q-170 0 -140 214l32 234q16 100 -120 172t-302 72l-330 -136l-78 -556h-170z" />
<glyph unicode="&#x43b;" d="M86 0l12 86h52q48 0 78 50t64 204t76 462q14 94 146 158t270 64h554l-110 -776q-22 -162 10 -162q50 0 146 48l-12 -92q-124 -42 -178 -42q-170 0 -138 232l100 706h-214q-58 0 -89 -1t-85 -4t-85 -12t-67 -24t-55 -40t-23 -59q-22 -162 -38 -258t-39 -199t-47 -157 t-59 -101t-80 -65t-105 -18h-84z" />
<glyph unicode="&#x43c;" horiz-adv-x="1620" d="M86 0l144 1024h170q32 -6 84 -22t179 -81t213 -153q100 80 237 144t223 88l88 24h170l-112 -798q-20 -140 12 -140q50 0 146 48l-12 -92q-124 -42 -178 -42q-170 0 -140 214l78 554q16 118 -88 118q-100 0 -224 -93t-138 -195l-36 -256h-172l36 256q16 118 -72 197 t-194 79q-54 0 -91 -27t-45 -79l-108 -768h-170z" />
<glyph unicode="&#x43d;" horiz-adv-x="1280" d="M86 0l144 1024h170l-48 -342h682l48 342h172l-112 -798q-20 -140 12 -140q48 0 144 48l-12 -92q-126 -42 -176 -42q-172 0 -142 214l54 384h-682l-84 -598h-170z" />
<glyph unicode="&#x43e;" d="M146 426l30 214q26 180 186 282t422 102q264 0 394 -103t106 -281l-30 -214q-26 -184 -192 -305t-422 -121q-260 0 -390 121t-104 305zM304 342q-14 -106 87 -181t261 -75t283 75t137 181l54 384q14 102 -87 157t-267 55t-283 -55t-131 -157z" />
<glyph unicode="&#x43f;" d="M86 0l144 1024h170l-10 -68q174 68 394 68q264 0 394 -103t106 -281l-58 -414q-20 -140 12 -140q50 0 146 48l-12 -92q-124 -42 -178 -42q-170 0 -140 214l72 512q14 102 -87 157t-267 55t-283 -55t-131 -157l-102 -726h-170z" />
<glyph unicode="&#x440;" d="M26 -426l204 1450h170l-10 -68q174 68 394 68q264 0 394 -103t106 -281l-30 -214q-26 -184 -192 -305t-422 -121q-216 0 -372 86l-72 -512h-170zM304 342q-14 -106 87 -181t261 -75t283 75t137 181l54 384q14 102 -87 157t-267 55t-283 -55t-131 -157z" />
<glyph unicode="&#x441;" d="M146 426l30 214q26 180 186 282t422 102q468 0 512 -298h-170q14 102 -87 157t-267 55t-283 -55t-131 -157l-54 -384q-14 -106 87 -181t261 -75t283 75t137 181h170q-70 -154 -224 -248t-378 -94q-260 0 -390 121t-104 305z" />
<glyph unicode="&#x442;" horiz-adv-x="1962" d="M86 0l144 1024h170l-10 -68q74 30 103 39t83 19t122 10q102 0 170 -20t98 -42t96 -80q86 60 121 81t109 41t174 20q140 0 231 -26t134 -79t54 -119t-3 -160l-58 -414q-20 -140 12 -140q48 0 144 48l-12 -92q-124 -42 -176 -42q-170 0 -140 214l72 512q14 106 -50 159 t-220 53t-235 -53t-93 -159l-102 -726h-170l102 726q14 106 -50 159t-220 53t-235 -53t-93 -159l-102 -726h-170z" />
<glyph unicode="&#x443;" d="M72 -170h146q38 -74 144 -123t230 -49q158 0 282 75t138 181l24 172q-180 -86 -396 -86q-260 0 -390 122t-104 306l84 596h170l-96 -680q-14 -108 87 -183t261 -75t283 75t137 183l96 680h170l-144 -1024q-26 -184 -192 -305t-422 -121q-192 0 -320 69t-188 187z" />
<glyph unicode="&#x444;" horiz-adv-x="1536" d="M146 426l30 214q22 164 175 262t433 118l18 132q28 194 124 289t314 95l-12 -86q-96 0 -163 -55t-81 -157l-30 -218q272 -20 398 -119t104 -261l-30 -214q-24 -168 -183 -283t-433 -139l-6 -46q-28 -194 -124 -289t-314 -95l12 84q96 0 163 56t81 158l18 134 q-266 24 -392 140t-102 280zM304 342q-12 -92 81 -161t267 -89l120 842q-184 -12 -293 -66t-121 -142zM822 92q182 20 295 89t125 161l54 384q12 88 -80 141t-276 65z" />
<glyph unicode="&#x445;" d="M86 0l30 214q18 134 87 219t221 125q-138 50 -182 146t-24 234l12 86h170l-32 -234q-28 -192 356 -192t412 192l32 234h170l-12 -86q-40 -290 -314 -380q140 -40 185 -125t27 -219l-30 -214h-170l48 342q8 50 -17 85t-78 53t-116 25t-149 7t-151 -7t-124 -25t-92 -53 t-41 -85l-48 -342h-170z" />
<glyph unicode="&#x446;" d="M146 426l84 598h170l-96 -682q-14 -106 87 -181t261 -75t283 75t137 181l96 682h170l-110 -776q-22 -162 10 -162q50 0 146 48l-12 -92q-118 -40 -174 -42q-22 0 -68 -30t-54 -78q-2 -26 23 -70t21 -76q-6 -48 -43 -68t-75 -20q-22 0 -43 6t-39 27t-14 55q14 104 90 194 q54 62 108 96q-2 4 -9 15t-10 15t-10 11t-17 9t-22 2q-16 0 -69 -22t-140 -44t-187 -22q-260 0 -390 121t-104 305z" />
<glyph unicode="&#x447;" horiz-adv-x="1280" d="M206 856l24 168h170l-36 -254q-16 -114 48 -186t214 -72q158 0 282 76t138 182l36 254h172l-144 -1024h-172l72 512q-180 -86 -396 -86q-468 0 -408 430z" />
<glyph unicode="&#x448;" horiz-adv-x="1962" d="M146 426l84 598h170l-96 -682q-16 -114 48 -185t214 -71q152 0 236 71t100 185l96 682h170l-96 -682q-16 -114 48 -185t214 -71q152 0 236 71t100 185l96 682h170l-54 -390l-56 -386q-22 -162 10 -162q48 0 144 48l-12 -92q-124 -42 -176 -42q-58 0 -91 33t-69 33 q-16 0 -40 -10t-50 -23t-84 -23t-136 -10q-94 0 -158 21t-96 46t-86 83q-12 14 -20 20q-124 -98 -172 -124q-94 -46 -236 -46q-240 0 -337 118t-71 308z" />
<glyph unicode="&#x449;" horiz-adv-x="1962" d="M146 426l84 598h170l-96 -682q-16 -114 48 -185t214 -71q152 0 236 71t100 185l96 682h170l-96 -682q-16 -114 48 -185t214 -71q80 0 143 26t97 60t57 76t30 63t9 31l96 682h170l-110 -776q-22 -162 10 -162q48 0 144 48l-12 -92q-124 -42 -176 -42q-24 0 -69 -30 t-53 -78q-2 -26 23 -70t21 -76q-6 -48 -44 -68t-76 -20q-22 0 -43 6t-38 27t-13 55q14 104 90 194q54 62 108 96q-30 30 -66 30q-16 0 -40 -10t-50 -23t-84 -23t-136 -10q-94 0 -158 21t-96 46t-86 83q-12 14 -20 20q-124 -98 -172 -124q-94 -46 -236 -46q-240 0 -337 118 t-71 308z" />
<glyph unicode="&#x44a;" horiz-adv-x="1792" d="M218 938l12 86h596l-48 -342h384q260 0 395 -94t113 -246q-18 -122 -186 -232t-418 -110h-128q-166 0 -283 92t-99 228l88 618h-426zM730 342q-24 -166 45 -211t303 -45q160 0 283 75t137 181t-88 181t-260 75h-384z" />
<glyph unicode="&#x44b;" horiz-adv-x="1706" d="M130 320l100 704h170l-48 -342h384q258 0 393 -94t113 -246q-18 -122 -186 -232t-416 -110h-128q-166 0 -283 92t-99 228zM304 342q-24 -166 45 -211t303 -45q160 0 283 75t137 181t-88 181t-260 75h-384zM1366 0l144 1024h170l-144 -1024h-170z" />
<glyph unicode="&#x44c;" d="M130 320l100 704h170l-48 -342h384q258 0 393 -94t113 -246q-18 -122 -186 -232t-416 -110h-128q-166 0 -283 92t-99 228zM304 342q-24 -166 45 -211t303 -45q160 0 283 75t137 181t-88 181t-260 75h-384z" />
<glyph unicode="&#x44d;" d="M186 236l118 106q-14 -106 87 -181t261 -75t283 75t137 181l24 170h-598l12 86h598l18 128q14 102 -87 157t-267 55t-283 -55t-131 -157l-94 84q98 106 218 160t302 54q262 0 394 -102t106 -282l-30 -214q-26 -184 -190 -305t-424 -121q-312 0 -454 236z" />
<glyph unicode="&#x44e;" horiz-adv-x="1792" d="M86 0l144 1024h170l-48 -342h256q20 150 182 246t420 96q266 0 396 -103t106 -281l-30 -214q-26 -184 -193 -305t-423 -121q-260 0 -390 121t-104 305l24 172h-256l-84 -598h-170zM730 342q-14 -106 88 -181t260 -75q160 0 283 75t137 181l54 384q14 102 -87 157t-267 55 t-283 -56t-131 -156z" />
<glyph unicode="&#x44f;" d="M86 0l50 362q14 90 90 164t202 116q-166 10 -144 168q14 104 129 159t371 55h554l-144 -1024h-170l84 598h-426q-174 -14 -270 -94t-112 -184l-44 -320h-170zM458 820q-8 -58 45 -98t191 -40h426l36 256h-384q-94 0 -155 -8t-107 -35t-52 -75z" />
<glyph unicode="&#x450;" d="M146 426l30 214q26 180 186 282t422 102q260 0 390 -121t104 -305l-12 -86h-938l-24 -170q-14 -106 87 -181t261 -75q126 0 255 49t187 121h116q-204 -256 -570 -256q-260 0 -390 121t-104 305zM340 598h768l18 128q14 102 -87 157t-267 55t-283 -55t-131 -157zM726 1528 q6 36 35 61t63 25t57 -25t17 -61q-8 -68 1 -113t24 -58t33 -13q-12 -92 -40 -92q-50 0 -127 82t-63 194z" />
<glyph unicode="&#x451;" d="M146 426l30 214q26 180 186 282t422 102q260 0 390 -121t104 -305l-12 -86h-938l-24 -170q-14 -106 87 -181t261 -75q126 0 255 49t187 121h116q-204 -256 -570 -256q-260 0 -390 121t-104 305zM340 598h768l18 128q14 102 -87 157t-267 55t-283 -55t-131 -157zM374 1450 q4 36 34 61t64 25t56 -25t18 -61q-4 -34 -34 -59t-64 -25t-56 25t-18 59zM1058 1450q4 36 33 61t63 25q36 0 57 -25t17 -61q-4 -34 -33 -59t-65 -25q-34 0 -55 25t-17 59z" />
<glyph unicode="&#x452;" horiz-adv-x="1280" d="M86 0l144 1024h-86l12 86h86l60 426h170l-60 -426h598l-12 -86h-598l-34 -238q174 68 352 68q260 0 372 -101t86 -283l-96 -686q-30 -210 -202 -210q-78 0 -126 18l14 92q46 -26 92 -26q32 0 52 142l106 754q14 104 -68 159t-242 55q-134 0 -246 -57t-126 -157l-78 -554 h-170z" />
<glyph unicode="&#x453;" horiz-adv-x="1280" d="M128 298v2q8 52 39 100t93 95t176 75t266 28q80 0 150 12t127 47t63 89q28 192 -356 192q-118 0 -168 -14t-90 -64l-92 104q96 60 362 60q258 0 396 -79t120 -199q-14 -108 -160 -171t-364 -63q-174 0 -276 -55t-116 -159q-10 -64 17 -108t85 -65t124 -30t154 -9 q126 0 217 42t129 116l96 -116q-158 -128 -454 -128q-288 0 -425 65t-113 233zM700 1344q18 0 37 13t43 58t32 113q6 36 34 61t62 25q36 0 58 -25t16 -61q-14 -112 -115 -194t-151 -82q-28 0 -16 92z" />
<glyph unicode="&#x454;" d="M146 426l30 214q26 180 186 282t422 102q362 0 504 -214l-162 -84q14 102 -87 157t-267 55t-283 -55t-131 -157l-18 -128h598l-12 -86h-598l-24 -170q-14 -106 87 -181t261 -75t283 75t137 181l134 -106q-212 -236 -566 -236q-260 0 -390 121t-104 305z" />
<glyph unicode="&#x455;" d="M136 298h162q-14 -102 85 -157t265 -55q118 0 200 15t144 65t74 134q30 212 -354 212q-218 0 -345 63t-113 171q18 124 159 201t393 77q236 0 339 -44t151 -170h-200q-30 80 -94 104t-208 24q-168 0 -261 -44t-109 -148q-6 -54 42 -89t114 -47t144 -12q286 0 407 -92 t105 -206v-2q-24 -170 -170 -234t-430 -64q-450 0 -500 298z" />
<glyph unicode="&#x456;" horiz-adv-x="596" d="M116 212l114 812h170l-112 -798q-20 -140 12 -140q76 0 236 88l-12 -90q-148 -84 -268 -84q-170 0 -140 212zM290 1450q4 36 33 61t63 25q36 0 57 -25t17 -61q-4 -34 -33 -59t-65 -25q-34 0 -55 25t-17 59z" />
<glyph unicode="&#x457;" horiz-adv-x="596" d="M116 212l114 812h170l-112 -798q-20 -140 12 -140q76 0 236 88l-12 -90q-148 -84 -268 -84q-170 0 -140 212zM162 1450q4 36 33 61t65 25q34 0 55 -25t17 -61q-4 -34 -33 -59t-63 -25q-36 0 -57 25t-17 59zM630 1450q4 36 33 61t65 25q34 0 55 -25t17 -61q-4 -34 -33 -59 t-63 -25q-36 0 -57 25t-17 59z" />
<glyph unicode="&#x458;" horiz-adv-x="512" d="M-16 -408l14 92q46 -26 92 -26q32 0 52 142l172 1224h172l-174 -1240q-30 -210 -202 -210q-78 0 -126 18zM374 1450q4 36 34 61t64 25t56 -25t18 -61q-4 -34 -34 -59t-64 -25t-56 25t-18 59z" />
<glyph unicode="&#x459;" horiz-adv-x="2304" d="M86 0l12 86h52q48 0 78 50t64 204t76 462q14 94 146 158t270 64h554l-48 -342h384q260 0 395 -94t113 -246q-18 -122 -186 -232t-418 -110h-128q-166 0 -283 92t-99 228l88 618h-214q-58 0 -89 -1t-85 -4t-85 -12t-67 -24t-55 -40t-23 -59q-22 -162 -38 -258t-39 -199 t-47 -157t-59 -101t-80 -65t-105 -18h-84zM1242 342q-24 -166 45 -211t303 -45q160 0 283 75t137 181t-88 181t-260 75h-384z" />
<glyph unicode="&#x45a;" horiz-adv-x="2218" d="M86 0l144 1024h170l-48 -342h682l48 342h172l-48 -342h384q258 0 393 -94t113 -246q-18 -122 -186 -232t-416 -110h-128q-166 0 -284 92t-100 228l40 278h-682l-84 -598h-170zM1158 342q-24 -166 45 -211t303 -45q160 0 283 75t137 181t-88 181t-260 75h-384z" />
<glyph unicode="&#x45b;" horiz-adv-x="1280" d="M86 0l144 1024h-86l12 86h86l60 426h170l-60 -426h598l-12 -86h-598l-34 -238q174 68 352 68q260 0 372 -101t86 -283l-66 -470h-172l78 554q14 104 -68 159t-242 55q-138 0 -248 -57t-124 -157l-78 -554h-170z" />
<glyph unicode="&#x45c;" d="M86 0l144 1024h170l-52 -370l926 370l54 -72l-472 -190q200 -30 307 -123t89 -233l-26 -180q-20 -140 12 -140q50 0 146 48l-12 -92q-124 -42 -178 -42q-170 0 -140 214l32 234q16 100 -120 172t-302 72l-330 -136l-78 -556h-170zM722 1344q18 0 37 13t43 58t32 113 q6 36 34 61t62 25q36 0 58 -25t16 -61q-14 -112 -115 -194t-151 -82q-28 0 -16 92z" />
<glyph unicode="&#x45d;" d="M146 426l84 598h170l-96 -682q-14 -106 87 -181t261 -75t283 75t137 181l96 682h170l-110 -776q-22 -162 10 -162q50 0 146 48l-12 -92q-124 -42 -178 -42q-42 0 -65 14t-30 30t-22 30t-41 14q-16 0 -69 -22t-140 -44t-187 -22q-260 0 -390 121t-104 305zM682 1528 q6 36 35 61t63 25t57 -25t17 -61q-8 -68 1 -113t24 -58t33 -13q-12 -92 -40 -92q-50 0 -127 82t-63 194z" />
<glyph unicode="&#x45e;" d="M72 -170h146q38 -74 144 -123t230 -49q158 0 282 75t138 181l24 172q-180 -86 -396 -86q-260 0 -390 122t-104 306l84 596h170l-96 -680q-14 -108 87 -183t261 -75t283 75t137 183l96 680h170l-144 -1024q-26 -184 -192 -305t-422 -121q-192 0 -320 69t-188 187z M386 1532q4 36 37 61t69 25q34 0 56 -25t18 -61q-2 -12 -11 -48t-11 -50q-8 -58 72 -136t200 -78q118 0 220 79t110 135q2 14 4 50t4 48q4 36 33 61t65 25q34 0 55 -25t17 -61q-16 -106 -174 -245t-344 -139q-100 0 -186 43t-138 105t-78 126t-18 110z" />
<glyph unicode="&#x45f;" d="M146 426l84 598h170l-96 -682q-14 -106 87 -181t261 -75t283 75t137 181l96 682h170l-110 -776q-22 -162 10 -162q50 0 146 48l-12 -92q-124 -42 -178 -42q-42 0 -65 14t-30 30t-22 30t-41 14q-12 0 -111 -37t-199 -47q-30 -8 -69 -39t-45 -73q-2 -26 23 -70t21 -76 q-6 -48 -44 -68t-76 -20q-22 0 -43 6t-38 27t-13 55q14 104 90 194q6 10 17 20t23 23t18 19q-234 12 -351 131t-93 293z" />
<glyph unicode="&#x464;" horiz-adv-x="1792" d="M86 0l216 1536h170l-84 -598h256l30 214q26 180 186 282t422 102q188 0 326 -61t178 -153l-162 -84q14 102 -87 157t-267 55t-283 -56t-131 -156l-42 -300h598l-12 -84h-598l-72 -512q-14 -106 88 -181t260 -75q160 0 283 75t137 181l134 -106q-178 -236 -566 -236 q-260 0 -390 121t-104 305l60 428h-256l-120 -854h-170z" />
<glyph unicode="&#x465;" horiz-adv-x="1792" d="M86 0l144 1024h170l-48 -342h256q16 122 112 202t219 110t271 30q366 0 504 -214l-162 -84q14 102 -87 157t-267 55t-283 -56t-131 -156l-6 -44h598l-12 -84h-598l-36 -256q-14 -106 88 -181t260 -75q160 0 283 75t137 181l134 -106q-210 -236 -566 -236q-260 0 -390 121 t-104 305l24 172h-256l-84 -598h-170z" />
<glyph unicode="&#x490;" horiz-adv-x="1280" d="M86 0l216 1536h854q52 0 70 16t26 70l24 170h86l-48 -342h-598q-68 0 -102 -3t-78 -15t-66 -42t-30 -80l-184 -1310h-170z" />
<glyph unicode="&#x491;" horiz-adv-x="1108" d="M86 0l144 1024h684q52 0 70 16t26 70l24 170h84l-48 -342h-682l-132 -938h-170z" />
<glyph unicode="&#x494;" horiz-adv-x="1280" d="M86 0l216 1536h1024l-12 -86h-598q-68 0 -102 -3t-78 -15t-66 -42t-30 -80l-50 -354q174 68 330 68q262 0 384 -102t96 -282l-120 -856q-8 -50 -91 -130t-195 -80q-78 0 -126 18l14 92q46 -26 92 -26q64 0 96 43t40 99l130 926q14 102 -79 157t-253 55q-320 0 -350 -212 l-102 -726h-170z" />
<glyph unicode="&#x495;" horiz-adv-x="1108" d="M86 0l144 1024h852l-12 -86h-682l-58 -408q114 68 266 68q204 0 301 -103t71 -281l-60 -430q-8 -52 -91 -131t-195 -79q-78 0 -126 18l14 92q46 -26 92 -26q64 0 97 44t41 98l70 498q30 214 -226 214q-102 0 -187 -57t-99 -157l-42 -298h-170z" />
<glyph unicode="&#x4c0;" horiz-adv-x="426" d="M86 0l216 1536h170l-216 -1536h-170z" />
<glyph unicode="&#x4c1;" horiz-adv-x="2304" d="M86 0l130 918q42 312 420 368l-348 146l74 72l826 -338l52 370h170l-52 -370l924 340l54 -72l-394 -148q364 -56 322 -368l-130 -918h-172l140 1002q16 102 -85 158t-269 56l-404 -148l-150 -1068h-170l150 1068l-364 148q-168 0 -283 -56t-131 -158l-140 -1002h-170z M920 1998q6 36 38 61t68 25q34 0 57 -25t17 -61q0 -12 -10 -48t-10 -50q-10 -58 70 -136t200 -78q118 0 221 79t111 135q0 14 3 50t3 48q6 36 34 61t64 25q34 0 56 -25t16 -61q-14 -106 -173 -245t-345 -139q-100 0 -186 43t-137 105t-77 126t-20 110z" />
<glyph unicode="&#x4c2;" horiz-adv-x="2304" d="M88 8l12 90q46 -12 126 -12q158 0 282 75t138 181l54 384q14 100 -87 156t-267 56q-74 0 -130 -8l14 88q60 6 128 6q262 0 394 -102t106 -282l-16 -116l308 368l18 132h170l-94 -668l338 402q164 266 568 266q66 0 128 -6l-14 -88q-56 8 -126 8q-166 0 -283 -55 t-131 -157l-54 -384q-14 -106 87 -181t261 -75q62 0 130 12l-12 -90q-58 -8 -130 -8q-260 0 -391 121t-105 305l14 104l-306 -366l-24 -164h-170l98 698l-358 -424q-196 -274 -550 -274q-48 0 -126 8zM856 1534q4 36 37 61t69 25q34 0 56 -25t18 -61q-2 -12 -11 -48t-11 -50 q-8 -58 72 -136t200 -78q118 0 220 79t110 135q2 14 4 50t4 48q4 36 33 61t65 25q34 0 55 -25t17 -61q-16 -106 -174 -245t-344 -139q-100 0 -186 43t-137 105t-77 126t-20 110z" />
<glyph unicode="&#x4d0;" d="M86 0l162 1152q26 180 186 282t422 102q264 0 394 -103t106 -281l-162 -1152h-170l120 854h-768l-120 -854h-170zM388 938h768l42 300q14 102 -87 157t-267 55t-283 -55t-131 -157zM456 2040q6 36 38 61t68 25q34 0 57 -25t17 -61q0 -12 -10 -48t-12 -50q-8 -58 72 -136 t200 -78q118 0 221 79t109 135q2 14 5 50t3 48q6 36 34 61t64 25q34 0 56 -25t16 -61q-14 -106 -173 -245t-345 -139q-100 0 -186 43t-137 105t-77 126t-20 110z" />
<glyph unicode="&#x4d1;" d="M146 426l30 214q26 180 186 282t422 102q264 0 394 -103t106 -281l-56 -392q-22 -162 10 -162q50 0 146 48l-12 -92q-124 -42 -178 -42q-42 0 -65 14t-30 30t-22 30t-41 14q-16 0 -69 -22t-140 -44t-187 -22q-260 0 -390 121t-104 305zM304 342q-14 -106 87 -181t261 -75 t283 75t137 181l54 384q14 102 -87 157t-267 55t-283 -55t-131 -157zM408 1536q4 36 37 61t69 25q34 0 56 -25t18 -61q-2 -12 -11 -48t-11 -50q-8 -58 72 -136t200 -78q118 0 220 79t110 135q2 14 4 50t4 48q4 36 33 61t65 25q34 0 55 -25t17 -61q-16 -106 -174 -245 t-344 -139q-100 0 -186 43t-137 105t-77 126t-20 110z" />
<glyph unicode="&#x4d2;" d="M86 0l162 1152q26 180 186 282t422 102q264 0 394 -103t106 -281l-162 -1152h-170l120 854h-768l-120 -854h-170zM388 938h768l42 300q14 102 -87 157t-267 55t-283 -55t-131 -157zM426 1828q6 36 35 61t63 25t57 -25t17 -61q-4 -34 -33 -59t-63 -25t-57 25t-19 59z M1110 1828q6 36 34 61t62 25q36 0 58 -25t16 -61q-4 -34 -32 -59t-64 -25q-34 0 -56 25t-18 59z" />
<glyph unicode="&#x4d3;" d="M146 426l30 214q26 180 186 282t422 102q264 0 394 -103t106 -281l-56 -392q-22 -162 10 -162q50 0 146 48l-12 -92q-124 -42 -178 -42q-42 0 -65 14t-30 30t-22 30t-41 14q-16 0 -69 -22t-140 -44t-187 -22q-260 0 -390 121t-104 305zM304 342q-14 -106 87 -181t261 -75 t283 75t137 181l54 384q14 102 -87 157t-267 55t-283 -55t-131 -157zM438 1450q4 36 34 61t64 25t56 -25t18 -61q-4 -34 -34 -59t-64 -25t-56 25t-18 59zM1122 1450q4 36 33 61t63 25q36 0 57 -25t17 -61q-4 -34 -33 -59t-65 -25q-34 0 -55 25t-17 59z" />
<glyph unicode="&#x4d4;" horiz-adv-x="2304" d="M86 0l162 1152q26 180 186 282t422 102q176 0 372 -90l12 90h1110l-12 -86h-684q-68 0 -102 -3t-78 -15t-66 -42t-30 -80l-52 -372h684l-12 -84h-684l-88 -628q-8 -50 6 -80t55 -42t74 -15t101 -3h684l-12 -86h-1110l120 854h-768l-120 -854h-170zM388 938h768l42 300 q14 102 -87 157t-267 55t-283 -55t-131 -157z" />
<glyph unicode="&#x4d5;" horiz-adv-x="2304" d="M144 406q16 128 158 166q98 26 422 26h384l18 128q14 102 -87 157t-267 55q-232 0 -344 -96l-80 94q182 88 436 88q278 0 448 -156q200 156 490 156q260 0 391 -121t105 -305l-12 -86h-940l-24 -170q-14 -106 88 -181t260 -75q164 0 278 56t136 156h172 q-64 -136 -218 -217t-380 -81q-212 0 -372 86l-12 -86q-34 0 -76 33t-84 33q-4 0 -131 -33t-263 -33q-256 0 -388 121t-108 285zM304 342q-14 -106 87 -181t261 -75t283 75t137 181l24 170h-384q-86 0 -151 -7t-124 -25t-92 -53t-41 -85zM1278 598h768l18 128 q14 102 -87 157t-267 55t-283 -56t-131 -156z" />
<glyph unicode="&#x4d6;" d="M86 0l216 1536h1108l-12 -86h-682q-68 0 -102 -3t-78 -15t-66 -42t-30 -80l-52 -372h682l-12 -84h-682l-88 -628q-8 -50 6 -80t55 -42t74 -15t101 -3h682l-12 -86h-1108zM542 2040q6 36 38 61t68 25q34 0 57 -25t17 -61q0 -12 -10 -48t-12 -50q-8 -58 72 -136t200 -78 q118 0 221 79t109 135q2 14 5 50t3 48q6 36 34 61t64 25q34 0 56 -25t16 -61q-14 -106 -173 -245t-345 -139q-100 0 -186 43t-137 105t-77 126t-20 110z" />
<glyph unicode="&#x4d7;" d="M146 426l30 214q26 180 186 282t422 102q260 0 390 -121t104 -305l-12 -86h-938l-24 -170q-14 -106 87 -181t261 -75q126 0 255 49t187 121h116q-204 -256 -570 -256q-260 0 -390 121t-104 305zM340 598h768l18 128q14 102 -87 157t-267 55t-283 -55t-131 -157zM386 1536 q4 36 37 61t69 25q34 0 56 -25t18 -61q-2 -12 -11 -48t-11 -50q-8 -58 72 -136t200 -78q118 0 220 79t110 135q2 14 4 50t4 48q4 36 33 61t65 25q34 0 55 -25t17 -61q-16 -106 -174 -245t-344 -139q-100 0 -186 43t-137 105t-77 126t-20 110z" />
<glyph unicode="&#x4dc;" horiz-adv-x="2304" d="M86 0l130 918q42 312 420 368l-348 146l74 72l826 -338l52 370h170l-52 -370l924 340l54 -72l-394 -148q364 -56 322 -368l-130 -918h-172l140 1002q16 102 -85 158t-269 56l-404 -148l-150 -1068h-170l150 1068l-364 148q-168 0 -283 -56t-131 -158l-140 -1002h-170z M938 1828q6 36 35 61t63 25t57 -25t17 -61q-4 -34 -33 -59t-63 -25t-57 25t-19 59zM1622 1828q6 36 34 61t62 25q36 0 58 -25t16 -61q-4 -34 -32 -59t-64 -25q-34 0 -56 25t-18 59z" />
<glyph unicode="&#x4dd;" horiz-adv-x="2304" d="M88 8l12 90q46 -12 126 -12q158 0 282 75t138 181l54 384q14 100 -87 156t-267 56q-74 0 -130 -8l14 88q60 6 128 6q262 0 394 -102t106 -282l-16 -116l308 368l18 132h170l-94 -668l338 402q164 266 568 266q66 0 128 -6l-14 -88q-56 8 -126 8q-166 0 -283 -55 t-131 -157l-54 -384q-14 -106 87 -181t261 -75q62 0 130 12l-12 -90q-58 -8 -130 -8q-260 0 -391 121t-105 305l14 104l-306 -366l-24 -164h-170l98 698l-358 -424q-196 -274 -550 -274q-48 0 -126 8zM886 1450q4 36 34 61t64 25t56 -25t18 -61q-4 -34 -34 -59t-64 -25 t-56 25t-18 59zM1570 1450q4 36 33 61t63 25q36 0 57 -25t17 -61q-4 -34 -33 -59t-65 -25q-34 0 -55 25t-17 59z" />
<glyph unicode="&#x4de;" d="M146 426h170l-12 -84q-14 -106 87 -181t261 -75q148 0 275 67t141 167l46 320q30 214 -268 214l12 84q56 0 99 17t69 42t43 64t25 70t14 73l12 84q22 162 -276 162q-146 0 -243 -43t-123 -127h-128q60 138 171 197t335 59q248 0 347 -84t81 -214q-10 -64 -21 -107 t-33 -95t-63 -86t-99 -52q242 -74 198 -386l-12 -86q-26 -184 -192 -305t-422 -121q-260 0 -390 121t-104 305zM468 1828q6 36 35 61t63 25t57 -25t17 -61q-4 -34 -33 -59t-63 -25t-57 25t-19 59zM1152 1828q6 36 34 61t62 25q36 0 58 -25t16 -61q-4 -34 -32 -59t-64 -25 q-34 0 -56 25t-18 59z" />
<glyph unicode="&#x4df;" d="M146 426h170l-12 -84q-14 -106 87 -181t261 -75q150 0 278 78t138 156q16 104 -58 184t-244 94l12 84q138 0 203 40t73 98q6 48 -32 75t-97 35t-153 8q-146 0 -243 -43t-123 -127h-128q58 122 174 189t332 67q256 0 355 -55t85 -159q-20 -142 -192 -168 q238 -100 212 -280q-20 -142 -187 -252t-417 -110q-260 0 -390 121t-104 305zM416 1450q4 36 34 61t64 25t56 -25t18 -61q-4 -34 -34 -59t-64 -25t-56 25t-18 59zM1100 1450q4 36 33 61t63 25q36 0 57 -25t17 -61q-4 -34 -33 -59t-65 -25q-34 0 -55 25t-17 59z" />
<glyph unicode="&#x4e2;" d="M86 0l216 1536h170l-94 -668q104 78 174 106q100 42 232 50q150 0 284 123t150 239l22 150h170l-216 -1536h-170l156 1110q-186 -172 -408 -172q-152 0 -283 -104t-147 -216l-86 -618h-170zM318 1658l12 86h1110l-12 -86h-1110z" />
<glyph unicode="&#x4e3;" d="M146 426l84 598h170l-96 -682q-14 -106 87 -181t261 -75t283 75t137 181l96 682h170l-110 -776q-22 -162 10 -162q50 0 146 48l-12 -92q-124 -42 -178 -42q-42 0 -65 14t-30 30t-22 30t-41 14q-16 0 -69 -22t-140 -44t-187 -22q-260 0 -390 121t-104 305zM276 1366l12 86 h1110l-12 -86h-1110z" />
<glyph unicode="&#x4e4;" d="M86 0l216 1536h170l-94 -668q104 78 174 106q100 42 232 50q150 0 284 123t150 239l22 150h170l-216 -1536h-170l156 1110q-186 -172 -408 -172q-152 0 -283 -104t-147 -216l-86 -618h-170zM468 1828q6 36 35 61t63 25t57 -25t17 -61q-4 -34 -33 -59t-63 -25t-57 25 t-19 59zM1152 1828q6 36 34 61t62 25q36 0 58 -25t16 -61q-4 -34 -32 -59t-64 -25q-34 0 -56 25t-18 59z" />
<glyph unicode="&#x4e5;" d="M146 426l84 598h170l-96 -682q-14 -106 87 -181t261 -75t283 75t137 181l96 682h170l-110 -776q-22 -162 10 -162q50 0 146 48l-12 -92q-124 -42 -178 -42q-42 0 -65 14t-30 30t-22 30t-41 14q-16 0 -69 -22t-140 -44t-187 -22q-260 0 -390 121t-104 305zM374 1450 q4 36 34 61t64 25t56 -25t18 -61q-4 -34 -34 -59t-64 -25t-56 25t-18 59zM1058 1450q4 36 33 61t63 25q36 0 57 -25t17 -61q-4 -34 -33 -59t-65 -25q-34 0 -55 25t-17 59z" />
<glyph unicode="&#x4e6;" d="M146 426l102 726q26 180 186 282t422 102q264 0 394 -103t106 -281l-102 -726q-26 -184 -192 -305t-422 -121q-260 0 -390 121t-104 305zM304 342q-14 -106 87 -181t261 -75t283 75t137 181l126 896q14 102 -87 157t-267 55t-283 -55t-131 -157zM468 1828q6 36 35 61 t63 25t57 -25t17 -61q-4 -34 -33 -59t-63 -25t-57 25t-19 59zM1152 1828q6 36 34 61t62 25q36 0 58 -25t16 -61q-4 -34 -32 -59t-64 -25q-34 0 -56 25t-18 59z" />
<glyph unicode="&#x4e7;" d="M146 426l30 214q26 180 186 282t422 102q264 0 394 -103t106 -281l-30 -214q-26 -184 -192 -305t-422 -121q-260 0 -390 121t-104 305zM304 342q-14 -106 87 -181t261 -75t283 75t137 181l54 384q14 102 -87 157t-267 55t-283 -55t-131 -157zM416 1450q4 36 34 61t64 25 t56 -25t18 -61q-4 -34 -34 -59t-64 -25t-56 25t-18 59zM1100 1450q4 36 33 61t63 25q36 0 57 -25t17 -61q-4 -34 -33 -59t-65 -25q-34 0 -55 25t-17 59z" />
<glyph unicode="&#x4e8;" d="M146 426l102 726q26 180 186 282t422 102q264 0 394 -103t106 -281l-102 -726q-26 -184 -192 -305t-422 -121q-260 0 -390 121t-104 305zM304 342q-14 -106 87 -181t261 -75t283 75t137 181l60 426h-768zM376 854h768l54 384q14 102 -87 157t-267 55t-283 -55t-131 -157z " />
<glyph unicode="&#x4e9;" d="M146 426l30 214q26 180 186 282t422 102q264 0 394 -103t106 -281l-30 -214q-26 -184 -192 -305t-422 -121q-260 0 -390 121t-104 305zM304 342q-14 -106 87 -181t261 -75t283 75t137 181l24 170h-768zM340 598h768l18 128q14 102 -87 157t-267 55t-283 -55t-131 -157z " />
<glyph unicode="&#x4ea;" d="M146 426l102 726q26 180 186 282t422 102q264 0 394 -103t106 -281l-102 -726q-26 -184 -192 -305t-422 -121q-260 0 -390 121t-104 305zM304 342q-14 -106 87 -181t261 -75t283 75t137 181l60 426h-768zM376 854h768l54 384q14 102 -87 157t-267 55t-283 -55t-131 -157z M468 1828q6 36 35 61t63 25t57 -25t17 -61q-4 -34 -33 -59t-63 -25t-57 25t-19 59zM1152 1828q6 36 34 61t62 25q36 0 58 -25t16 -61q-4 -34 -32 -59t-64 -25q-34 0 -56 25t-18 59z" />
<glyph unicode="&#x4eb;" d="M146 426l30 214q26 180 186 282t422 102q264 0 394 -103t106 -281l-30 -214q-26 -184 -192 -305t-422 -121q-260 0 -390 121t-104 305zM304 342q-14 -106 87 -181t261 -75t283 75t137 181l24 170h-768zM340 598h768l18 128q14 102 -87 157t-267 55t-283 -55t-131 -157z M416 1450q4 36 34 61t64 25t56 -25t18 -61q-4 -34 -34 -59t-64 -25t-56 25t-18 59zM1100 1450q4 36 33 61t63 25q36 0 57 -25t17 -61q-4 -34 -33 -59t-65 -25q-34 0 -55 25t-17 59z" />
<glyph unicode="&#x4ec;" d="M142 236l162 106q-14 -106 87 -181t261 -75t283 75t137 181l60 426h-598l12 86h598l54 384q14 102 -87 157t-267 55t-283 -55t-131 -157l-138 84q122 124 244 169t320 45q262 0 394 -102t106 -282l-102 -726q-26 -184 -190 -305t-424 -121q-190 0 -308 56t-190 180z M480 1828q6 36 35 61t63 25t57 -25t17 -61q-4 -34 -33 -59t-63 -25t-57 25t-19 59zM1164 1828q6 36 34 61t62 25q36 0 58 -25t16 -61q-4 -34 -32 -59t-64 -25q-34 0 -56 25t-18 59z" />
<glyph unicode="&#x4ed;" d="M186 236l118 106q-14 -106 87 -181t261 -75t283 75t137 181l24 170h-598l12 86h598l18 128q14 102 -87 157t-267 55t-283 -55t-131 -157l-94 84q98 106 218 160t302 54q262 0 394 -102t106 -282l-30 -214q-26 -184 -190 -305t-424 -121q-312 0 -454 236zM406 1450 q4 36 34 61t64 25t56 -25t18 -61q-4 -34 -34 -59t-64 -25t-56 25t-18 59zM1090 1450q4 36 33 61t63 25q36 0 57 -25t17 -61q-4 -34 -33 -59t-65 -25q-34 0 -55 25t-17 59z" />
<glyph unicode="&#x4ee;" d="M72 -170h146q38 -74 144 -123t230 -49q158 0 282 75t138 181l24 172q-180 -86 -396 -86q-260 0 -390 122t-104 306l156 1108h170l-168 -1192q-14 -108 87 -183t261 -75t283 75t137 183l168 1192h170l-216 -1536q-28 -204 -189 -315t-425 -111q-192 0 -320 69t-188 187z M318 1660l12 86h1110l-12 -86h-1110z" />
<glyph unicode="&#x4ef;" d="M72 -170h146q38 -74 144 -123t230 -49q158 0 282 75t138 181l24 172q-180 -86 -396 -86q-260 0 -390 122t-104 306l84 596h170l-96 -680q-14 -108 87 -183t261 -75t283 75t137 183l96 680h170l-144 -1024q-26 -184 -192 -305t-422 -121q-192 0 -320 69t-188 187z M276 1366l12 86h1110l-12 -86h-1110z" />
<glyph unicode="&#x4f0;" d="M72 -170h146q38 -74 144 -123t230 -49q158 0 282 75t138 181l24 172q-180 -86 -396 -86q-260 0 -390 122t-104 306l156 1108h170l-168 -1192q-14 -108 87 -183t261 -75t283 75t137 183l168 1192h170l-216 -1536q-28 -204 -189 -315t-425 -111q-192 0 -320 69t-188 187z M470 1830q4 36 34 61t64 25t56 -25t18 -61q-6 -34 -35 -59t-63 -25t-57 25t-17 59zM1154 1830q4 36 33 61t63 25q36 0 57 -25t17 -61q-6 -34 -34 -59t-64 -25q-34 0 -56 25t-16 59z" />
<glyph unicode="&#x4f1;" d="M72 -170h146q38 -74 144 -123t230 -49q158 0 282 75t138 181l24 172q-180 -86 -396 -86q-260 0 -390 122t-104 306l84 596h170l-96 -680q-14 -108 87 -183t261 -75t283 75t137 183l96 680h170l-144 -1024q-26 -184 -192 -305t-422 -121q-192 0 -320 69t-188 187z M398 1318q4 36 34 61t64 25t56 -25t18 -61q-6 -34 -35 -59t-63 -25t-57 25t-17 59zM1082 1318q4 36 33 61t63 25q36 0 57 -25t17 -61q-6 -34 -34 -59t-64 -25q-34 0 -56 25t-16 59z" />
<glyph unicode="&#x4f2;" d="M72 -170h146q38 -74 144 -123t230 -49q158 0 282 75t138 181l24 172q-180 -86 -396 -86q-260 0 -390 122t-104 306l156 1108h170l-168 -1192q-14 -108 87 -183t261 -75t283 75t137 183l168 1192h170l-216 -1536q-28 -204 -189 -315t-425 -111q-192 0 -320 69t-188 187z M518 1860q18 0 37 13t42 58t33 113q4 36 33 61t65 25q34 0 55 -25t17 -61q-16 -112 -120 -194t-154 -82q-22 0 -8 92zM1116 1860q18 0 37 13t42 58t33 113q4 36 33 61t63 25q36 0 57 -25t17 -61q-16 -112 -120 -194t-154 -82q-22 0 -8 92z" />
<glyph unicode="&#x4f3;" d="M72 -170h146q38 -74 144 -123t230 -49q158 0 282 75t138 181l24 172q-180 -86 -396 -86q-260 0 -390 122t-104 306l84 596h170l-96 -680q-14 -108 87 -183t261 -75t283 75t137 183l96 680h170l-144 -1024q-26 -184 -192 -305t-422 -121q-192 0 -320 69t-188 187z M446 1348q18 0 37 13t42 58t33 113q4 36 33 61t65 25q34 0 55 -25t17 -61q-16 -112 -120 -194t-154 -82q-22 0 -8 92zM1044 1348q18 0 37 13t42 58t33 113q4 36 33 61t63 25q36 0 57 -25t17 -61q-16 -112 -120 -194t-154 -82q-22 0 -8 92z" />
<glyph unicode="&#x4f4;" d="M254 1196l48 340h170l-60 -424q-14 -108 87 -183t261 -75t283 75t137 183l60 424h170l-216 -1536h-170l120 854q-180 -86 -396 -86q-260 0 -390 122t-104 306zM428 1830q4 36 34 61t64 25t56 -25t18 -61q-6 -34 -35 -59t-63 -25t-57 25t-17 59zM1112 1830q4 36 33 61 t63 25q36 0 57 -25t17 -61q-6 -34 -34 -59t-64 -25q-34 0 -56 25t-16 59z" />
<glyph unicode="&#x4f5;" horiz-adv-x="1280" d="M206 856l24 168h170l-36 -254q-16 -114 48 -186t214 -72q158 0 282 76t138 182l36 254h172l-144 -1024h-172l72 512q-180 -86 -396 -86q-468 0 -408 430zM374 1450q4 36 34 61t64 25t56 -25t18 -61q-4 -34 -34 -59t-64 -25t-56 25t-18 59zM1058 1450q4 36 33 61t63 25 q36 0 57 -25t17 -61q-4 -34 -33 -59t-65 -25q-34 0 -55 25t-17 59z" />
</font>
</defs>
</svg>
