<?xml version="1.0" encoding="UTF-8" standalone="no"?>
<!DOCTYPE svg PUBLIC "-//W3C//DTD SVG 1.1//EN"
 "http://www.w3.org/Graphics/SVG/1.1/DTD/svg11.dtd">
<!-- Generated by graphviz version 2.38.0 (20140413.2041)
 -->
<!-- Title: controllers_diagram Pages: 1 -->
<svg width="1398pt" height="1150pt"
 viewBox="0.00 0.00 1397.81 1149.94" xmlns="http://www.w3.org/2000/svg" xmlns:xlink="http://www.w3.org/1999/xlink">
<g id="graph0" class="graph" transform="scale(1 1) rotate(0) translate(591.807 557.939)">
<title>controllers_diagram</title>
<polygon fill="none" stroke="none" points="-591.807,592 -591.807,-557.939 806,-557.939 806,592 -591.807,592"/>
<!-- _diagram_info -->
<g id="node1" class="node"><title>_diagram_info</title>
<text text-anchor="start" x="596" y="524.4" font-family="Times,serif" font-size="13.00">Controllers diagram</text>
<text text-anchor="start" x="596" y="538.4" font-family="Times,serif" font-size="13.00">Date: Mar 21 2016 &#45; 15:55</text>
<text text-anchor="start" x="596" y="552.4" font-family="Times,serif" font-size="13.00">Migration version: 20151222003253</text>
<text text-anchor="start" x="596" y="566.4" font-family="Times,serif" font-size="13.00">Generated by RailRoady 1.4.2</text>
<text text-anchor="start" x="596" y="580.4" font-family="Times,serif" font-size="13.00">http://railroady.prestonlee.com</text>
</g>
<!-- StaticPagesController -->
<g id="node2" class="node"><title>StaticPagesController</title>
<path fill="none" stroke="black" d="M-98.9295,503.488C-98.9295,503.488 11.0705,503.488 11.0705,503.488 17.0705,503.488 23.0705,497.488 23.0705,491.488 23.0705,491.488 23.0705,377.488 23.0705,377.488 23.0705,371.488 17.0705,365.488 11.0705,365.488 11.0705,365.488 -98.9295,365.488 -98.9295,365.488 -104.93,365.488 -110.93,371.488 -110.93,377.488 -110.93,377.488 -110.93,491.488 -110.93,491.488 -110.93,497.488 -104.93,503.488 -98.9295,503.488"/>
<text text-anchor="middle" x="-43.9295" y="380.688" font-family="Times,serif" font-size="14.00">StaticPagesController</text>
<polyline fill="none" stroke="black" points="-110.93,388.488 23.0705,388.488 "/>
<text text-anchor="start" x="-102.93" y="403.688" font-family="Times,serif" font-size="14.00">about</text>
<text text-anchor="start" x="-102.93" y="418.688" font-family="Times,serif" font-size="14.00">contacts</text>
<text text-anchor="start" x="-102.93" y="433.688" font-family="Times,serif" font-size="14.00">home</text>
<text text-anchor="start" x="-102.93" y="448.688" font-family="Times,serif" font-size="14.00">userslist</text>
<polyline fill="none" stroke="black" points="-110.93,456.488 23.0705,456.488 "/>
<polyline fill="none" stroke="black" points="-110.93,480.488 23.0705,480.488 "/>
<text text-anchor="start" x="-102.93" y="495.688" font-family="Times,serif" font-size="14.00">_layout</text>
</g>
<!-- ApplicationController -->
<g id="node3" class="node"><title>ApplicationController</title>
<path fill="none" stroke="black" d="M-86.3472,175.068C-86.3472,175.068 25.6528,175.068 25.6528,175.068 31.6528,175.068 37.6528,169.068 37.6528,163.068 37.6528,163.068 37.6528,93.0682 37.6528,93.0682 37.6528,87.0682 31.6528,81.0682 25.6528,81.0682 25.6528,81.0682 -86.3472,81.0682 -86.3472,81.0682 -92.3472,81.0682 -98.3472,87.0682 -98.3472,93.0682 -98.3472,93.0682 -98.3472,163.068 -98.3472,163.068 -98.3472,169.068 -92.3472,175.068 -86.3472,175.068"/>
<text text-anchor="middle" x="-30.3472" y="96.2682" font-family="Times,serif" font-size="14.00">ApplicationController</text>
<polyline fill="none" stroke="black" points="-98.3472,104.068 37.6528,104.068 "/>
<polyline fill="none" stroke="black" points="-98.3472,128.068 37.6528,128.068 "/>
<polyline fill="none" stroke="black" points="-98.3472,152.068 37.6528,152.068 "/>
<text text-anchor="start" x="-90.3472" y="167.268" font-family="Times,serif" font-size="14.00">_layout</text>
</g>
<!-- ApplicationController&#45;&gt;StaticPagesController -->
<g id="edge1" class="edge"><title>ApplicationController&#45;&gt;StaticPagesController</title>
<path fill="none" stroke="black" d="M-32.4397,175.275C-34.6907,226.058 -38.2925,307.317 -40.8633,365.314"/>
</g>
<!-- DeviseController -->
<g id="node10" class="node"><title>DeviseController</title>
<path fill="none" stroke="black" d="M-126.714,41.2411C-126.714,41.2411 40.2865,41.2411 40.2865,41.2411 46.2865,41.2411 52.2865,35.2411 52.2865,29.2411 52.2865,29.2411 52.2865,-323.759 52.2865,-323.759 52.2865,-329.759 46.2865,-335.759 40.2865,-335.759 40.2865,-335.759 -126.714,-335.759 -126.714,-335.759 -132.714,-335.759 -138.714,-329.759 -138.714,-323.759 -138.714,-323.759 -138.714,29.2411 -138.714,29.2411 -138.714,35.2411 -132.714,41.2411 -126.714,41.2411"/>
<text text-anchor="middle" x="-43.2135" y="-320.559" font-family="Times,serif" font-size="14.00">DeviseController</text>
<polyline fill="none" stroke="black" points="-138.714,-312.759 52.2865,-312.759 "/>
<text text-anchor="start" x="-130.714" y="-297.559" font-family="Times,serif" font-size="14.00">_prefixes</text>
<polyline fill="none" stroke="black" points="-138.714,-289.759 52.2865,-289.759 "/>
<text text-anchor="start" x="-130.714" y="-274.559" font-family="Times,serif" font-size="14.00">assert_is_devise_resource!</text>
<text text-anchor="start" x="-130.714" y="-259.559" font-family="Times,serif" font-size="14.00">clean_up_passwords</text>
<text text-anchor="start" x="-130.714" y="-244.559" font-family="Times,serif" font-size="14.00">devise_i18n_options</text>
<text text-anchor="start" x="-130.714" y="-229.559" font-family="Times,serif" font-size="14.00">devise_mapping</text>
<text text-anchor="start" x="-130.714" y="-214.559" font-family="Times,serif" font-size="14.00">find_message</text>
<text text-anchor="start" x="-130.714" y="-199.559" font-family="Times,serif" font-size="14.00">navigational_formats</text>
<text text-anchor="start" x="-130.714" y="-184.559" font-family="Times,serif" font-size="14.00">require_no_authentication</text>
<text text-anchor="start" x="-130.714" y="-169.559" font-family="Times,serif" font-size="14.00">resource</text>
<text text-anchor="start" x="-130.714" y="-154.559" font-family="Times,serif" font-size="14.00">resource=</text>
<text text-anchor="start" x="-130.714" y="-139.559" font-family="Times,serif" font-size="14.00">resource_class</text>
<text text-anchor="start" x="-130.714" y="-124.559" font-family="Times,serif" font-size="14.00">resource_name</text>
<text text-anchor="start" x="-130.714" y="-109.559" font-family="Times,serif" font-size="14.00">resource_params</text>
<text text-anchor="start" x="-130.714" y="-94.5589" font-family="Times,serif" font-size="14.00">respond_with_navigational</text>
<text text-anchor="start" x="-130.714" y="-79.5589" font-family="Times,serif" font-size="14.00">scope_name</text>
<text text-anchor="start" x="-130.714" y="-64.5589" font-family="Times,serif" font-size="14.00">set_flash_message</text>
<text text-anchor="start" x="-130.714" y="-49.5589" font-family="Times,serif" font-size="14.00">set_minimum_password_length</text>
<text text-anchor="start" x="-130.714" y="-34.5589" font-family="Times,serif" font-size="14.00">signed_in_resource</text>
<text text-anchor="start" x="-130.714" y="-19.5589" font-family="Times,serif" font-size="14.00">successfully_sent?</text>
<text text-anchor="start" x="-130.714" y="-4.55891" font-family="Times,serif" font-size="14.00">translation_scope</text>
<text text-anchor="start" x="-130.714" y="10.4411" font-family="Times,serif" font-size="14.00">unknown_action!</text>
<polyline fill="none" stroke="black" points="-138.714,18.2411 52.2865,18.2411 "/>
<text text-anchor="start" x="-130.714" y="33.4411" font-family="Times,serif" font-size="14.00">_layout</text>
</g>
<!-- ApplicationController&#45;&gt;DeviseController -->
<g id="edge8" class="edge"><title>ApplicationController&#45;&gt;DeviseController</title>
<path fill="none" stroke="black" d="M-32.5444,81.0507C-33.097,69.2244 -33.7248,55.7916 -34.3925,41.5028"/>
</g>
<!-- Entypo::CharmapController -->
<g id="node11" class="node"><title>Entypo::CharmapController</title>
<path fill="none" stroke="black" d="M286.582,427.494C286.582,427.494 431.582,427.494 431.582,427.494 437.582,427.494 443.582,421.494 443.582,415.494 443.582,415.494 443.582,346.494 443.582,346.494 443.582,340.494 437.582,334.494 431.582,334.494 431.582,334.494 286.582,334.494 286.582,334.494 280.582,334.494 274.582,340.494 274.582,346.494 274.582,346.494 274.582,415.494 274.582,415.494 274.582,421.494 280.582,427.494 286.582,427.494"/>
<text text-anchor="middle" x="359.082" y="349.694" font-family="Times,serif" font-size="14.00">Entypo::CharmapController</text>
<polyline fill="none" stroke="black" points="274.582,357.494 443.582,357.494 "/>
<text text-anchor="start" x="282.582" y="372.694" font-family="Times,serif" font-size="14.00">index</text>
<polyline fill="none" stroke="black" points="274.582,380.494 443.582,380.494 "/>
<polyline fill="none" stroke="black" points="274.582,404.494 443.582,404.494 "/>
<text text-anchor="start" x="282.582" y="419.694" font-family="Times,serif" font-size="14.00">_layout</text>
</g>
<!-- ApplicationController&#45;&gt;Entypo::CharmapController -->
<g id="edge9" class="edge"><title>ApplicationController&#45;&gt;Entypo::CharmapController</title>
<path fill="none" stroke="black" d="M37.9318,172.414C107.845,217.821 216.072,288.112 287.25,334.341"/>
</g>
<!-- Devise::SessionsController -->
<g id="node4" class="node"><title>Devise::SessionsController</title>
<path fill="none" stroke="black" d="M-509.064,485.35C-509.064,485.35 -369.064,485.35 -369.064,485.35 -363.064,485.35 -357.064,479.35 -357.064,473.35 -357.064,473.35 -357.064,285.35 -357.064,285.35 -357.064,279.35 -363.064,273.35 -369.064,273.35 -369.064,273.35 -509.064,273.35 -509.064,273.35 -515.064,273.35 -521.064,279.35 -521.064,285.35 -521.064,285.35 -521.064,473.35 -521.064,473.35 -521.064,479.35 -515.064,485.35 -509.064,485.35"/>
<text text-anchor="middle" x="-439.064" y="288.55" font-family="Times,serif" font-size="14.00">Devise::SessionsController</text>
<polyline fill="none" stroke="black" points="-521.064,296.35 -357.064,296.35 "/>
<text text-anchor="start" x="-513.064" y="311.55" font-family="Times,serif" font-size="14.00">create</text>
<text text-anchor="start" x="-513.064" y="326.55" font-family="Times,serif" font-size="14.00">destroy</text>
<text text-anchor="start" x="-513.064" y="341.55" font-family="Times,serif" font-size="14.00">new</text>
<polyline fill="none" stroke="black" points="-521.064,349.35 -357.064,349.35 "/>
<text text-anchor="start" x="-513.064" y="364.55" font-family="Times,serif" font-size="14.00">auth_options</text>
<text text-anchor="start" x="-513.064" y="379.55" font-family="Times,serif" font-size="14.00">serialize_options</text>
<text text-anchor="start" x="-513.064" y="394.55" font-family="Times,serif" font-size="14.00">sign_in_params</text>
<text text-anchor="start" x="-513.064" y="409.55" font-family="Times,serif" font-size="14.00">translation_scope</text>
<polyline fill="none" stroke="black" points="-521.064,417.35 -357.064,417.35 "/>
<text text-anchor="start" x="-513.064" y="432.55" font-family="Times,serif" font-size="14.00">_layout</text>
<text text-anchor="start" x="-513.064" y="447.55" font-family="Times,serif" font-size="14.00">all_signed_out?</text>
<text text-anchor="start" x="-513.064" y="462.55" font-family="Times,serif" font-size="14.00">respond_to_on_destroy</text>
<text text-anchor="start" x="-513.064" y="477.55" font-family="Times,serif" font-size="14.00">verify_signed_out_user</text>
</g>
<!-- Devise::PasswordsController -->
<g id="node5" class="node"><title>Devise::PasswordsController</title>
<path fill="none" stroke="black" d="M-176.624,-356.439C-176.624,-356.439 101.376,-356.439 101.376,-356.439 107.376,-356.439 113.376,-362.439 113.376,-368.439 113.376,-368.439 113.376,-541.439 113.376,-541.439 113.376,-547.439 107.376,-553.439 101.376,-553.439 101.376,-553.439 -176.624,-553.439 -176.624,-553.439 -182.624,-553.439 -188.624,-547.439 -188.624,-541.439 -188.624,-541.439 -188.624,-368.439 -188.624,-368.439 -188.624,-362.439 -182.624,-356.439 -176.624,-356.439"/>
<text text-anchor="middle" x="-37.6242" y="-538.239" font-family="Times,serif" font-size="14.00">Devise::PasswordsController</text>
<polyline fill="none" stroke="black" points="-188.624,-530.439 113.376,-530.439 "/>
<text text-anchor="start" x="-180.624" y="-515.239" font-family="Times,serif" font-size="14.00">create</text>
<text text-anchor="start" x="-180.624" y="-500.239" font-family="Times,serif" font-size="14.00">edit</text>
<text text-anchor="start" x="-180.624" y="-485.239" font-family="Times,serif" font-size="14.00">new</text>
<text text-anchor="start" x="-180.624" y="-470.239" font-family="Times,serif" font-size="14.00">update</text>
<polyline fill="none" stroke="black" points="-188.624,-462.439 113.376,-462.439 "/>
<text text-anchor="start" x="-180.624" y="-447.239" font-family="Times,serif" font-size="14.00">after_resetting_password_path_for</text>
<text text-anchor="start" x="-180.624" y="-432.239" font-family="Times,serif" font-size="14.00">after_sending_reset_password_instructions_path_for</text>
<text text-anchor="start" x="-180.624" y="-417.239" font-family="Times,serif" font-size="14.00">assert_reset_token_passed</text>
<text text-anchor="start" x="-180.624" y="-402.239" font-family="Times,serif" font-size="14.00">translation_scope</text>
<text text-anchor="start" x="-180.624" y="-387.239" font-family="Times,serif" font-size="14.00">unlockable?</text>
<polyline fill="none" stroke="black" points="-188.624,-379.439 113.376,-379.439 "/>
<text text-anchor="start" x="-180.624" y="-364.239" font-family="Times,serif" font-size="14.00">_layout</text>
</g>
<!-- Devise::OmniauthCallbacksController -->
<g id="node6" class="node"><title>Devise::OmniauthCallbacksController</title>
<path fill="none" stroke="black" d="M259.423,-325.669C259.423,-325.669 460.423,-325.669 460.423,-325.669 466.423,-325.669 472.423,-331.669 472.423,-337.669 472.423,-337.669 472.423,-465.669 472.423,-465.669 472.423,-471.669 466.423,-477.669 460.423,-477.669 460.423,-477.669 259.423,-477.669 259.423,-477.669 253.423,-477.669 247.423,-471.669 247.423,-465.669 247.423,-465.669 247.423,-337.669 247.423,-337.669 247.423,-331.669 253.423,-325.669 259.423,-325.669"/>
<text text-anchor="middle" x="359.923" y="-462.469" font-family="Times,serif" font-size="14.00">Devise::OmniauthCallbacksController</text>
<polyline fill="none" stroke="black" points="247.423,-454.669 472.423,-454.669 "/>
<text text-anchor="start" x="255.423" y="-439.469" font-family="Times,serif" font-size="14.00">failure</text>
<text text-anchor="start" x="255.423" y="-424.469" font-family="Times,serif" font-size="14.00">passthru</text>
<polyline fill="none" stroke="black" points="247.423,-416.669 472.423,-416.669 "/>
<text text-anchor="start" x="255.423" y="-401.469" font-family="Times,serif" font-size="14.00">after_omniauth_failure_path_for</text>
<text text-anchor="start" x="255.423" y="-386.469" font-family="Times,serif" font-size="14.00">failed_strategy</text>
<text text-anchor="start" x="255.423" y="-371.469" font-family="Times,serif" font-size="14.00">failure_message</text>
<text text-anchor="start" x="255.423" y="-356.469" font-family="Times,serif" font-size="14.00">translation_scope</text>
<polyline fill="none" stroke="black" points="247.423,-348.669 472.423,-348.669 "/>
<text text-anchor="start" x="255.423" y="-333.469" font-family="Times,serif" font-size="14.00">_layout</text>
</g>
<!-- Devise::ConfirmationsController -->
<g id="node7" class="node"><title>Devise::ConfirmationsController</title>
<path fill="none" stroke="black" d="M-575.807,-325.205C-575.807,-325.205 -299.807,-325.205 -299.807,-325.205 -293.807,-325.205 -287.807,-331.205 -287.807,-337.205 -287.807,-337.205 -287.807,-465.205 -287.807,-465.205 -287.807,-471.205 -293.807,-477.205 -299.807,-477.205 -299.807,-477.205 -575.807,-477.205 -575.807,-477.205 -581.807,-477.205 -587.807,-471.205 -587.807,-465.205 -587.807,-465.205 -587.807,-337.205 -587.807,-337.205 -587.807,-331.205 -581.807,-325.205 -575.807,-325.205"/>
<text text-anchor="middle" x="-437.807" y="-462.005" font-family="Times,serif" font-size="14.00">Devise::ConfirmationsController</text>
<polyline fill="none" stroke="black" points="-587.807,-454.205 -287.807,-454.205 "/>
<text text-anchor="start" x="-579.807" y="-439.005" font-family="Times,serif" font-size="14.00">create</text>
<text text-anchor="start" x="-579.807" y="-424.005" font-family="Times,serif" font-size="14.00">new</text>
<text text-anchor="start" x="-579.807" y="-409.005" font-family="Times,serif" font-size="14.00">show</text>
<polyline fill="none" stroke="black" points="-587.807,-401.205 -287.807,-401.205 "/>
<text text-anchor="start" x="-579.807" y="-386.005" font-family="Times,serif" font-size="14.00">after_confirmation_path_for</text>
<text text-anchor="start" x="-579.807" y="-371.005" font-family="Times,serif" font-size="14.00">after_resending_confirmation_instructions_path_for</text>
<text text-anchor="start" x="-579.807" y="-356.005" font-family="Times,serif" font-size="14.00">translation_scope</text>
<polyline fill="none" stroke="black" points="-587.807,-348.205 -287.807,-348.205 "/>
<text text-anchor="start" x="-579.807" y="-333.005" font-family="Times,serif" font-size="14.00">_layout</text>
</g>
<!-- Devise::RegistrationsController -->
<g id="node8" class="node"><title>Devise::RegistrationsController</title>
<path fill="none" stroke="black" d="M-520.971,149.289C-520.971,149.289 -351.971,149.289 -351.971,149.289 -345.971,149.289 -339.971,143.289 -339.971,137.289 -339.971,137.289 -339.971,-155.711 -339.971,-155.711 -339.971,-161.711 -345.971,-167.711 -351.971,-167.711 -351.971,-167.711 -520.971,-167.711 -520.971,-167.711 -526.971,-167.711 -532.971,-161.711 -532.971,-155.711 -532.971,-155.711 -532.971,137.289 -532.971,137.289 -532.971,143.289 -526.971,149.289 -520.971,149.289"/>
<text text-anchor="middle" x="-436.471" y="-152.511" font-family="Times,serif" font-size="14.00">Devise::RegistrationsController</text>
<polyline fill="none" stroke="black" points="-532.971,-144.711 -339.971,-144.711 "/>
<text text-anchor="start" x="-524.971" y="-129.511" font-family="Times,serif" font-size="14.00">cancel</text>
<text text-anchor="start" x="-524.971" y="-114.511" font-family="Times,serif" font-size="14.00">create</text>
<text text-anchor="start" x="-524.971" y="-99.511" font-family="Times,serif" font-size="14.00">destroy</text>
<text text-anchor="start" x="-524.971" y="-84.511" font-family="Times,serif" font-size="14.00">edit</text>
<text text-anchor="start" x="-524.971" y="-69.511" font-family="Times,serif" font-size="14.00">new</text>
<text text-anchor="start" x="-524.971" y="-54.511" font-family="Times,serif" font-size="14.00">update</text>
<polyline fill="none" stroke="black" points="-532.971,-46.711 -339.971,-46.711 "/>
<text text-anchor="start" x="-524.971" y="-31.511" font-family="Times,serif" font-size="14.00">account_update_params</text>
<text text-anchor="start" x="-524.971" y="-16.511" font-family="Times,serif" font-size="14.00">after_inactive_sign_up_path_for</text>
<text text-anchor="start" x="-524.971" y="-1.51098" font-family="Times,serif" font-size="14.00">after_sign_up_path_for</text>
<text text-anchor="start" x="-524.971" y="13.489" font-family="Times,serif" font-size="14.00">after_update_path_for</text>
<text text-anchor="start" x="-524.971" y="28.489" font-family="Times,serif" font-size="14.00">authenticate_scope!</text>
<text text-anchor="start" x="-524.971" y="43.489" font-family="Times,serif" font-size="14.00">build_resource</text>
<text text-anchor="start" x="-524.971" y="58.489" font-family="Times,serif" font-size="14.00">sign_up</text>
<text text-anchor="start" x="-524.971" y="73.489" font-family="Times,serif" font-size="14.00">sign_up_params</text>
<text text-anchor="start" x="-524.971" y="88.489" font-family="Times,serif" font-size="14.00">translation_scope</text>
<text text-anchor="start" x="-524.971" y="103.489" font-family="Times,serif" font-size="14.00">update_needs_confirmation?</text>
<text text-anchor="start" x="-524.971" y="118.489" font-family="Times,serif" font-size="14.00">update_resource</text>
<polyline fill="none" stroke="black" points="-532.971,126.289 -339.971,126.289 "/>
<text text-anchor="start" x="-524.971" y="141.489" font-family="Times,serif" font-size="14.00">_layout</text>
</g>
<!-- Devise::UnlocksController -->
<g id="node9" class="node"><title>Devise::UnlocksController</title>
<path fill="none" stroke="black" d="M245.435,63.898C245.435,63.898 477.435,63.898 477.435,63.898 483.435,63.898 489.435,57.898 489.435,51.898 489.435,51.898 489.435,-76.102 489.435,-76.102 489.435,-82.102 483.435,-88.102 477.435,-88.102 477.435,-88.102 245.435,-88.102 245.435,-88.102 239.435,-88.102 233.435,-82.102 233.435,-76.102 233.435,-76.102 233.435,51.898 233.435,51.898 233.435,57.898 239.435,63.898 245.435,63.898"/>
<text text-anchor="middle" x="361.435" y="-72.902" font-family="Times,serif" font-size="14.00">Devise::UnlocksController</text>
<polyline fill="none" stroke="black" points="233.435,-65.102 489.435,-65.102 "/>
<text text-anchor="start" x="241.435" y="-49.902" font-family="Times,serif" font-size="14.00">create</text>
<text text-anchor="start" x="241.435" y="-34.902" font-family="Times,serif" font-size="14.00">new</text>
<text text-anchor="start" x="241.435" y="-19.902" font-family="Times,serif" font-size="14.00">show</text>
<polyline fill="none" stroke="black" points="233.435,-12.102 489.435,-12.102 "/>
<text text-anchor="start" x="241.435" y="3.09802" font-family="Times,serif" font-size="14.00">after_sending_unlock_instructions_path_for</text>
<text text-anchor="start" x="241.435" y="18.098" font-family="Times,serif" font-size="14.00">after_unlock_path_for</text>
<text text-anchor="start" x="241.435" y="33.098" font-family="Times,serif" font-size="14.00">translation_scope</text>
<polyline fill="none" stroke="black" points="233.435,40.898 489.435,40.898 "/>
<text text-anchor="start" x="241.435" y="56.098" font-family="Times,serif" font-size="14.00">_layout</text>
</g>
<!-- DeviseController&#45;&gt;Devise::SessionsController -->
<g id="edge2" class="edge"><title>DeviseController&#45;&gt;Devise::SessionsController</title>
<path fill="none" stroke="black" d="M-138.786,-20.1173C-206.28,69.6719 -295.682,188.606 -359.341,273.292"/>
</g>
<!-- DeviseController&#45;&gt;Devise::PasswordsController -->
<g id="edge3" class="edge"><title>DeviseController&#45;&gt;Devise::PasswordsController</title>
<path fill="none" stroke="black" d="M-39.7852,-335.982C-39.6609,-342.824 -39.5384,-349.568 -39.4187,-356.157"/>
</g>
<!-- DeviseController&#45;&gt;Devise::OmniauthCallbacksController -->
<g id="edge4" class="edge"><title>DeviseController&#45;&gt;Devise::OmniauthCallbacksController</title>
<path fill="none" stroke="black" d="M52.3242,-207.551C110.766,-244.432 185.833,-291.805 247.179,-330.519"/>
</g>
<!-- DeviseController&#45;&gt;Devise::ConfirmationsController -->
<g id="edge5" class="edge"><title>DeviseController&#45;&gt;Devise::ConfirmationsController</title>
<path fill="none" stroke="black" d="M-138.734,-208.732C-193.133,-243.742 -261.747,-287.899 -319.529,-325.086"/>
</g>
<!-- DeviseController&#45;&gt;Devise::RegistrationsController -->
<g id="edge6" class="edge"><title>DeviseController&#45;&gt;Devise::RegistrationsController</title>
<path fill="none" stroke="black" d="M-138.912,-113.665C-199.843,-92.2761 -278.514,-64.6597 -339.659,-43.1954"/>
</g>
<!-- DeviseController&#45;&gt;Devise::UnlocksController -->
<g id="edge7" class="edge"><title>DeviseController&#45;&gt;Devise::UnlocksController</title>
<path fill="none" stroke="black" d="M52.4262,-115.314C106.407,-97.284 174.579,-74.5138 233.149,-54.9508"/>
</g>
</g>
</svg>
