<?xml version="1.0" encoding="UTF-8" standalone="no"?>
<!DOCTYPE svg PUBLIC "-//W3C//DTD SVG 1.1//EN"
 "http://www.w3.org/Graphics/SVG/1.1/DTD/svg11.dtd">
<!-- Generated by graphviz version 2.38.0 (20140413.2041)
 -->
<!-- Title: controllers_diagram Pages: 1 -->
<svg width="900pt" height="999pt"
 viewBox="0.00 0.00 899.50 999.00" xmlns="http://www.w3.org/2000/svg" xmlns:xlink="http://www.w3.org/1999/xlink">
<g id="graph0" class="graph" transform="scale(1 1) rotate(0) translate(327.5 563.5)">
<title>controllers_diagram</title>
<polygon fill="none" stroke="none" points="-327.5,435.5 -327.5,-563.5 572,-563.5 572,435.5 -327.5,435.5"/>
<!-- _diagram_info -->
<g id="node1" class="node"><title>_diagram_info</title>
<text text-anchor="start" x="8" y="170.4" font-family="Times,serif" font-size="13.00">Controllers diagram</text>
<text text-anchor="start" x="8" y="184.4" font-family="Times,serif" font-size="13.00">Date: Apr 01 2016 &#45; 00:26</text>
<text text-anchor="start" x="8" y="198.4" font-family="Times,serif" font-size="13.00">Migration version: 20160330122905</text>
<text text-anchor="start" x="8" y="212.4" font-family="Times,serif" font-size="13.00">Generated by RailRoady 1.4.2</text>
<text text-anchor="start" x="8" y="226.4" font-family="Times,serif" font-size="13.00">http://railroady.prestonlee.com</text>
</g>
<!-- SessionsController -->
<g id="node2" class="node"><title>SessionsController</title>
<path fill="none" stroke="black" d="M-113.5,-360.5C-113.5,-360.5 -6.5,-360.5 -6.5,-360.5 -0.5,-360.5 5.5,-366.5 5.5,-372.5 5.5,-372.5 5.5,-471.5 5.5,-471.5 5.5,-477.5 -0.5,-483.5 -6.5,-483.5 -6.5,-483.5 -113.5,-483.5 -113.5,-483.5 -119.5,-483.5 -125.5,-477.5 -125.5,-471.5 -125.5,-471.5 -125.5,-372.5 -125.5,-372.5 -125.5,-366.5 -119.5,-360.5 -113.5,-360.5"/>
<text text-anchor="middle" x="-60" y="-468.3" font-family="Times,serif" font-size="14.00">SessionsController</text>
<polyline fill="none" stroke="black" points="-125.5,-460.5 5.5,-460.5 "/>
<text text-anchor="start" x="-117.5" y="-445.3" font-family="Times,serif" font-size="14.00">create</text>
<text text-anchor="start" x="-117.5" y="-430.3" font-family="Times,serif" font-size="14.00">failure</text>
<text text-anchor="start" x="-117.5" y="-415.3" font-family="Times,serif" font-size="14.00">sign_in_and_redirect</text>
<polyline fill="none" stroke="black" points="-125.5,-407.5 5.5,-407.5 "/>
<polyline fill="none" stroke="black" points="-125.5,-383.5 5.5,-383.5 "/>
<text text-anchor="start" x="-117.5" y="-368.3" font-family="Times,serif" font-size="14.00">_layout</text>
</g>
<!-- GalleriesController -->
<g id="node3" class="node"><title>GalleriesController</title>
<path fill="none" stroke="black" d="M102.5,89C102.5,89 199.5,89 199.5,89 205.5,89 211.5,83 211.5,77 211.5,77 211.5,-127 211.5,-127 211.5,-133 205.5,-139 199.5,-139 199.5,-139 102.5,-139 102.5,-139 96.5,-139 90.5,-133 90.5,-127 90.5,-127 90.5,77 90.5,77 90.5,83 96.5,89 102.5,89"/>
<text text-anchor="middle" x="151" y="-123.8" font-family="Times,serif" font-size="14.00">GalleriesController</text>
<polyline fill="none" stroke="black" points="90.5,-116 211.5,-116 "/>
<text text-anchor="start" x="98.5" y="-100.8" font-family="Times,serif" font-size="14.00">create</text>
<text text-anchor="start" x="98.5" y="-85.8" font-family="Times,serif" font-size="14.00">destroy</text>
<text text-anchor="start" x="98.5" y="-70.8" font-family="Times,serif" font-size="14.00">edit</text>
<text text-anchor="start" x="98.5" y="-55.8" font-family="Times,serif" font-size="14.00">gallery</text>
<text text-anchor="start" x="98.5" y="-40.8" font-family="Times,serif" font-size="14.00">index</text>
<text text-anchor="start" x="98.5" y="-25.8" font-family="Times,serif" font-size="14.00">new</text>
<text text-anchor="start" x="98.5" y="-10.8" font-family="Times,serif" font-size="14.00">product</text>
<text text-anchor="start" x="98.5" y="4.2" font-family="Times,serif" font-size="14.00">show</text>
<text text-anchor="start" x="98.5" y="19.2" font-family="Times,serif" font-size="14.00">update</text>
<polyline fill="none" stroke="black" points="90.5,27 211.5,27 "/>
<polyline fill="none" stroke="black" points="90.5,51 211.5,51 "/>
<text text-anchor="start" x="98.5" y="66.2" font-family="Times,serif" font-size="14.00">_layout</text>
<text text-anchor="start" x="98.5" y="81.2" font-family="Times,serif" font-size="14.00">gallery_params</text>
</g>
<!-- MessengersController -->
<g id="node4" class="node"><title>MessengersController</title>
<path fill="none" stroke="black" d="M-78,125.5C-78,125.5 50,125.5 50,125.5 56,125.5 62,119.5 62,113.5 62,113.5 62,-105.5 62,-105.5 62,-111.5 56,-117.5 50,-117.5 50,-117.5 -78,-117.5 -78,-117.5 -84,-117.5 -90,-111.5 -90,-105.5 -90,-105.5 -90,113.5 -90,113.5 -90,119.5 -84,125.5 -78,125.5"/>
<text text-anchor="middle" x="-14" y="-102.3" font-family="Times,serif" font-size="14.00">MessengersController</text>
<polyline fill="none" stroke="black" points="-90,-94.5 62,-94.5 "/>
<text text-anchor="start" x="-82" y="-79.3" font-family="Times,serif" font-size="14.00">load_previous_messages</text>
<text text-anchor="start" x="-82" y="-64.3" font-family="Times,serif" font-size="14.00">mark_as_read</text>
<text text-anchor="start" x="-82" y="-49.3" font-family="Times,serif" font-size="14.00">running?</text>
<text text-anchor="start" x="-82" y="-34.3" font-family="Times,serif" font-size="14.00">send_message</text>
<text text-anchor="start" x="-82" y="-19.3" font-family="Times,serif" font-size="14.00">start</text>
<text text-anchor="start" x="-82" y="-4.3" font-family="Times,serif" font-size="14.00">stop</text>
<polyline fill="none" stroke="black" points="-90,3.5 62,3.5 "/>
<polyline fill="none" stroke="black" points="-90,27.5 62,27.5 "/>
<text text-anchor="start" x="-82" y="42.7" font-family="Times,serif" font-size="14.00">_layout</text>
<text text-anchor="start" x="-82" y="57.7" font-family="Times,serif" font-size="14.00">get_polling_params</text>
<text text-anchor="start" x="-82" y="72.7" font-family="Times,serif" font-size="14.00">get_unread_messages</text>
<text text-anchor="start" x="-82" y="87.7" font-family="Times,serif" font-size="14.00">in_fiber</text>
<text text-anchor="start" x="-82" y="102.7" font-family="Times,serif" font-size="14.00">initialize</text>
<text text-anchor="start" x="-82" y="117.7" font-family="Times,serif" font-size="14.00">send_to_websocket</text>
</g>
<!-- FabricsController -->
<g id="node5" class="node"><title>FabricsController</title>
<path fill="none" stroke="black" d="M192,-180.5C192,-180.5 280,-180.5 280,-180.5 286,-180.5 292,-186.5 292,-192.5 292,-192.5 292,-381.5 292,-381.5 292,-387.5 286,-393.5 280,-393.5 280,-393.5 192,-393.5 192,-393.5 186,-393.5 180,-387.5 180,-381.5 180,-381.5 180,-192.5 180,-192.5 180,-186.5 186,-180.5 192,-180.5"/>
<text text-anchor="middle" x="236" y="-378.3" font-family="Times,serif" font-size="14.00">FabricsController</text>
<polyline fill="none" stroke="black" points="180,-370.5 292,-370.5 "/>
<text text-anchor="start" x="188" y="-355.3" font-family="Times,serif" font-size="14.00">create</text>
<text text-anchor="start" x="188" y="-340.3" font-family="Times,serif" font-size="14.00">destroy</text>
<text text-anchor="start" x="188" y="-325.3" font-family="Times,serif" font-size="14.00">edit</text>
<text text-anchor="start" x="188" y="-310.3" font-family="Times,serif" font-size="14.00">image</text>
<text text-anchor="start" x="188" y="-295.3" font-family="Times,serif" font-size="14.00">index</text>
<text text-anchor="start" x="188" y="-280.3" font-family="Times,serif" font-size="14.00">new</text>
<text text-anchor="start" x="188" y="-265.3" font-family="Times,serif" font-size="14.00">show</text>
<text text-anchor="start" x="188" y="-250.3" font-family="Times,serif" font-size="14.00">update</text>
<polyline fill="none" stroke="black" points="180,-242.5 292,-242.5 "/>
<polyline fill="none" stroke="black" points="180,-218.5 292,-218.5 "/>
<text text-anchor="start" x="188" y="-203.3" font-family="Times,serif" font-size="14.00">_layout</text>
<text text-anchor="start" x="188" y="-188.3" font-family="Times,serif" font-size="14.00">fabric_params</text>
</g>
<!-- BrandsController -->
<g id="node6" class="node"><title>BrandsController</title>
<path fill="none" stroke="black" d="M-150,359C-150,359 -64,359 -64,359 -58,359 -52,353 -52,347 -52,347 -52,173 -52,173 -52,167 -58,161 -64,161 -64,161 -150,161 -150,161 -156,161 -162,167 -162,173 -162,173 -162,347 -162,347 -162,353 -156,359 -150,359"/>
<text text-anchor="middle" x="-107" y="176.2" font-family="Times,serif" font-size="14.00">BrandsController</text>
<polyline fill="none" stroke="black" points="-162,184 -52,184 "/>
<text text-anchor="start" x="-154" y="199.2" font-family="Times,serif" font-size="14.00">create</text>
<text text-anchor="start" x="-154" y="214.2" font-family="Times,serif" font-size="14.00">destroy</text>
<text text-anchor="start" x="-154" y="229.2" font-family="Times,serif" font-size="14.00">edit</text>
<text text-anchor="start" x="-154" y="244.2" font-family="Times,serif" font-size="14.00">index</text>
<text text-anchor="start" x="-154" y="259.2" font-family="Times,serif" font-size="14.00">new</text>
<text text-anchor="start" x="-154" y="274.2" font-family="Times,serif" font-size="14.00">show</text>
<text text-anchor="start" x="-154" y="289.2" font-family="Times,serif" font-size="14.00">update</text>
<polyline fill="none" stroke="black" points="-162,297 -52,297 "/>
<polyline fill="none" stroke="black" points="-162,321 -52,321 "/>
<text text-anchor="start" x="-154" y="336.2" font-family="Times,serif" font-size="14.00">_layout</text>
<text text-anchor="start" x="-154" y="351.2" font-family="Times,serif" font-size="14.00">brand_params</text>
</g>
<!-- DashboardsController -->
<g id="node7" class="node"><title>DashboardsController</title>
<path fill="none" stroke="black" d="M426,251C426,251 538,251 538,251 544,251 550,245 550,239 550,239 550,155 550,155 550,149 544,143 538,143 538,143 426,143 426,143 420,143 414,149 414,155 414,155 414,239 414,239 414,245 420,251 426,251"/>
<text text-anchor="middle" x="482" y="158.2" font-family="Times,serif" font-size="14.00">DashboardsController</text>
<polyline fill="none" stroke="black" points="414,166 550,166 "/>
<text text-anchor="start" x="422" y="181.2" font-family="Times,serif" font-size="14.00">index</text>
<polyline fill="none" stroke="black" points="414,189 550,189 "/>
<polyline fill="none" stroke="black" points="414,213 550,213 "/>
<text text-anchor="start" x="422" y="228.2" font-family="Times,serif" font-size="14.00">_layout</text>
<text text-anchor="start" x="422" y="243.2" font-family="Times,serif" font-size="14.00">process_feed</text>
</g>
<!-- CategoriesController -->
<g id="node8" class="node"><title>CategoriesController</title>
<path fill="none" stroke="black" d="M-240,71C-240,71 -134,71 -134,71 -128,71 -122,65 -122,59 -122,59 -122,-115 -122,-115 -122,-121 -128,-127 -134,-127 -134,-127 -240,-127 -240,-127 -246,-127 -252,-121 -252,-115 -252,-115 -252,59 -252,59 -252,65 -246,71 -240,71"/>
<text text-anchor="middle" x="-187" y="-111.8" font-family="Times,serif" font-size="14.00">CategoriesController</text>
<polyline fill="none" stroke="black" points="-252,-104 -122,-104 "/>
<text text-anchor="start" x="-244" y="-88.8" font-family="Times,serif" font-size="14.00">create</text>
<text text-anchor="start" x="-244" y="-73.8" font-family="Times,serif" font-size="14.00">destroy</text>
<text text-anchor="start" x="-244" y="-58.8" font-family="Times,serif" font-size="14.00">edit</text>
<text text-anchor="start" x="-244" y="-43.8" font-family="Times,serif" font-size="14.00">index</text>
<text text-anchor="start" x="-244" y="-28.8" font-family="Times,serif" font-size="14.00">new</text>
<text text-anchor="start" x="-244" y="-13.8" font-family="Times,serif" font-size="14.00">show</text>
<text text-anchor="start" x="-244" y="1.2" font-family="Times,serif" font-size="14.00">update</text>
<polyline fill="none" stroke="black" points="-252,9 -122,9 "/>
<polyline fill="none" stroke="black" points="-252,33 -122,33 "/>
<text text-anchor="start" x="-244" y="48.2" font-family="Times,serif" font-size="14.00">_layout</text>
<text text-anchor="start" x="-244" y="63.2" font-family="Times,serif" font-size="14.00">category_params</text>
</g>
<!-- StaticPagesController -->
<g id="node9" class="node"><title>StaticPagesController</title>
<path fill="none" stroke="black" d="M264,251.5C264,251.5 374,251.5 374,251.5 380,251.5 386,245.5 386,239.5 386,239.5 386,80.5 386,80.5 386,74.5 380,68.5 374,68.5 374,68.5 264,68.5 264,68.5 258,68.5 252,74.5 252,80.5 252,80.5 252,239.5 252,239.5 252,245.5 258,251.5 264,251.5"/>
<text text-anchor="middle" x="319" y="83.7" font-family="Times,serif" font-size="14.00">StaticPagesController</text>
<polyline fill="none" stroke="black" points="252,91.5 386,91.5 "/>
<text text-anchor="start" x="260" y="106.7" font-family="Times,serif" font-size="14.00">about</text>
<text text-anchor="start" x="260" y="121.7" font-family="Times,serif" font-size="14.00">adminpanel</text>
<text text-anchor="start" x="260" y="136.7" font-family="Times,serif" font-size="14.00">contacts</text>
<text text-anchor="start" x="260" y="151.7" font-family="Times,serif" font-size="14.00">home</text>
<text text-anchor="start" x="260" y="166.7" font-family="Times,serif" font-size="14.00">modpanel</text>
<text text-anchor="start" x="260" y="181.7" font-family="Times,serif" font-size="14.00">privatpolicy</text>
<text text-anchor="start" x="260" y="196.7" font-family="Times,serif" font-size="14.00">userslist</text>
<polyline fill="none" stroke="black" points="252,204.5 386,204.5 "/>
<polyline fill="none" stroke="black" points="252,228.5 386,228.5 "/>
<text text-anchor="start" x="260" y="243.7" font-family="Times,serif" font-size="14.00">_layout</text>
</g>
<!-- UsersController -->
<g id="node10" class="node"><title>UsersController</title>
<path fill="none" stroke="black" d="M-257.5,-271C-257.5,-271 -178.5,-271 -178.5,-271 -172.5,-271 -166.5,-277 -166.5,-283 -166.5,-283 -166.5,-487 -166.5,-487 -166.5,-493 -172.5,-499 -178.5,-499 -178.5,-499 -257.5,-499 -257.5,-499 -263.5,-499 -269.5,-493 -269.5,-487 -269.5,-487 -269.5,-283 -269.5,-283 -269.5,-277 -263.5,-271 -257.5,-271"/>
<text text-anchor="middle" x="-218" y="-483.8" font-family="Times,serif" font-size="14.00">UsersController</text>
<polyline fill="none" stroke="black" points="-269.5,-476 -166.5,-476 "/>
<text text-anchor="start" x="-261.5" y="-460.8" font-family="Times,serif" font-size="14.00">create</text>
<text text-anchor="start" x="-261.5" y="-445.8" font-family="Times,serif" font-size="14.00">destroy</text>
<text text-anchor="start" x="-261.5" y="-430.8" font-family="Times,serif" font-size="14.00">edit</text>
<text text-anchor="start" x="-261.5" y="-415.8" font-family="Times,serif" font-size="14.00">finish_signup</text>
<text text-anchor="start" x="-261.5" y="-400.8" font-family="Times,serif" font-size="14.00">index</text>
<text text-anchor="start" x="-261.5" y="-385.8" font-family="Times,serif" font-size="14.00">new</text>
<text text-anchor="start" x="-261.5" y="-370.8" font-family="Times,serif" font-size="14.00">show</text>
<text text-anchor="start" x="-261.5" y="-355.8" font-family="Times,serif" font-size="14.00">update</text>
<polyline fill="none" stroke="black" points="-269.5,-348 -166.5,-348 "/>
<polyline fill="none" stroke="black" points="-269.5,-324 -166.5,-324 "/>
<text text-anchor="start" x="-261.5" y="-308.8" font-family="Times,serif" font-size="14.00">_layout</text>
<text text-anchor="start" x="-261.5" y="-293.8" font-family="Times,serif" font-size="14.00">set_user</text>
<text text-anchor="start" x="-261.5" y="-278.8" font-family="Times,serif" font-size="14.00">user_params</text>
</g>
<!-- ApplicationController -->
<g id="node11" class="node"><title>ApplicationController</title>
<path fill="none" stroke="black" d="M444,431C444,431 556,431 556,431 562,431 568,425 568,419 568,419 568,335 568,335 568,329 562,323 556,323 556,323 444,323 444,323 438,323 432,329 432,335 432,335 432,419 432,419 432,425 438,431 444,431"/>
<text text-anchor="middle" x="500" y="338.2" font-family="Times,serif" font-size="14.00">ApplicationController</text>
<polyline fill="none" stroke="black" points="432,346 568,346 "/>
<text text-anchor="start" x="440" y="361.2" font-family="Times,serif" font-size="14.00">logged_in?</text>
<text text-anchor="start" x="440" y="376.2" font-family="Times,serif" font-size="14.00">require_admin</text>
<polyline fill="none" stroke="black" points="432,384 568,384 "/>
<polyline fill="none" stroke="black" points="432,408 568,408 "/>
<text text-anchor="start" x="440" y="423.2" font-family="Times,serif" font-size="14.00">_layout</text>
</g>
<!-- ProductsController -->
<g id="node12" class="node"><title>ProductsController</title>
<path fill="none" stroke="black" d="M-311.5,323.5C-311.5,323.5 -216.5,323.5 -216.5,323.5 -210.5,323.5 -204.5,317.5 -204.5,311.5 -204.5,311.5 -204.5,122.5 -204.5,122.5 -204.5,116.5 -210.5,110.5 -216.5,110.5 -216.5,110.5 -311.5,110.5 -311.5,110.5 -317.5,110.5 -323.5,116.5 -323.5,122.5 -323.5,122.5 -323.5,311.5 -323.5,311.5 -323.5,317.5 -317.5,323.5 -311.5,323.5"/>
<text text-anchor="middle" x="-264" y="125.7" font-family="Times,serif" font-size="14.00">ProductsController</text>
<polyline fill="none" stroke="black" points="-323.5,133.5 -204.5,133.5 "/>
<text text-anchor="start" x="-315.5" y="148.7" font-family="Times,serif" font-size="14.00">create</text>
<text text-anchor="start" x="-315.5" y="163.7" font-family="Times,serif" font-size="14.00">destroy</text>
<text text-anchor="start" x="-315.5" y="178.7" font-family="Times,serif" font-size="14.00">edit</text>
<text text-anchor="start" x="-315.5" y="193.7" font-family="Times,serif" font-size="14.00">index</text>
<text text-anchor="start" x="-315.5" y="208.7" font-family="Times,serif" font-size="14.00">new</text>
<text text-anchor="start" x="-315.5" y="223.7" font-family="Times,serif" font-size="14.00">picture</text>
<text text-anchor="start" x="-315.5" y="238.7" font-family="Times,serif" font-size="14.00">show</text>
<text text-anchor="start" x="-315.5" y="253.7" font-family="Times,serif" font-size="14.00">update</text>
<polyline fill="none" stroke="black" points="-323.5,261.5 -204.5,261.5 "/>
<polyline fill="none" stroke="black" points="-323.5,285.5 -204.5,285.5 "/>
<text text-anchor="start" x="-315.5" y="300.7" font-family="Times,serif" font-size="14.00">_layout</text>
<text text-anchor="start" x="-315.5" y="315.7" font-family="Times,serif" font-size="14.00">product_params</text>
</g>
<!-- OmniauthCallbacksController -->
<g id="node13" class="node"><title>OmniauthCallbacksController</title>
<path fill="none" stroke="black" d="M-114,-163C-114,-163 42,-163 42,-163 48,-163 54,-169 54,-175 54,-175 54,-319 54,-319 54,-325 48,-331 42,-331 42,-331 -114,-331 -114,-331 -120,-331 -126,-325 -126,-319 -126,-319 -126,-175 -126,-175 -126,-169 -120,-163 -114,-163"/>
<text text-anchor="middle" x="-36" y="-315.8" font-family="Times,serif" font-size="14.00">OmniauthCallbacksController</text>
<polyline fill="none" stroke="black" points="-126,-308 54,-308 "/>
<text text-anchor="start" x="-118" y="-292.8" font-family="Times,serif" font-size="14.00">after_sign_in_path_for</text>
<text text-anchor="start" x="-118" y="-277.8" font-family="Times,serif" font-size="14.00">facebook</text>
<text text-anchor="start" x="-118" y="-262.8" font-family="Times,serif" font-size="14.00">google</text>
<text text-anchor="start" x="-118" y="-247.8" font-family="Times,serif" font-size="14.00">linkedin</text>
<text text-anchor="start" x="-118" y="-232.8" font-family="Times,serif" font-size="14.00">twitter</text>
<text text-anchor="start" x="-118" y="-217.8" font-family="Times,serif" font-size="14.00">vkontakte</text>
<polyline fill="none" stroke="black" points="-126,-210 54,-210 "/>
<polyline fill="none" stroke="black" points="-126,-186 54,-186 "/>
<text text-anchor="start" x="-118" y="-170.8" font-family="Times,serif" font-size="14.00">_layout</text>
</g>
<!-- ImagesController -->
<g id="node14" class="node"><title>ImagesController</title>
<path fill="none" stroke="black" d="M336.5,35.5C336.5,35.5 439.5,35.5 439.5,35.5 445.5,35.5 451.5,29.5 451.5,23.5 451.5,23.5 451.5,-165.5 451.5,-165.5 451.5,-171.5 445.5,-177.5 439.5,-177.5 439.5,-177.5 336.5,-177.5 336.5,-177.5 330.5,-177.5 324.5,-171.5 324.5,-165.5 324.5,-165.5 324.5,23.5 324.5,23.5 324.5,29.5 330.5,35.5 336.5,35.5"/>
<text text-anchor="middle" x="388" y="-162.3" font-family="Times,serif" font-size="14.00">ImagesController</text>
<polyline fill="none" stroke="black" points="324.5,-154.5 451.5,-154.5 "/>
<text text-anchor="start" x="332.5" y="-139.3" font-family="Times,serif" font-size="14.00">create</text>
<text text-anchor="start" x="332.5" y="-124.3" font-family="Times,serif" font-size="14.00">create_from_gallery</text>
<text text-anchor="start" x="332.5" y="-109.3" font-family="Times,serif" font-size="14.00">destroy</text>
<text text-anchor="start" x="332.5" y="-94.3" font-family="Times,serif" font-size="14.00">edit</text>
<text text-anchor="start" x="332.5" y="-79.3" font-family="Times,serif" font-size="14.00">index</text>
<text text-anchor="start" x="332.5" y="-64.3" font-family="Times,serif" font-size="14.00">new</text>
<text text-anchor="start" x="332.5" y="-49.3" font-family="Times,serif" font-size="14.00">show</text>
<text text-anchor="start" x="332.5" y="-34.3" font-family="Times,serif" font-size="14.00">update</text>
<polyline fill="none" stroke="black" points="324.5,-26.5 451.5,-26.5 "/>
<polyline fill="none" stroke="black" points="324.5,-2.5 451.5,-2.5 "/>
<text text-anchor="start" x="332.5" y="12.7" font-family="Times,serif" font-size="14.00">_layout</text>
<text text-anchor="start" x="332.5" y="27.7" font-family="Times,serif" font-size="14.00">image_params</text>
</g>
<!-- RegistrationsController -->
<g id="node15" class="node"><title>RegistrationsController</title>
<path fill="none" stroke="black" d="M12,359C12,359 182,359 182,359 188,359 194,353 194,347 194,347 194,279 194,279 194,273 188,267 182,267 182,267 12,267 12,267 6,267 0,273 0,279 0,279 0,347 0,347 0,353 6,359 12,359"/>
<text text-anchor="middle" x="97" y="282.2" font-family="Times,serif" font-size="14.00">RegistrationsController</text>
<polyline fill="none" stroke="black" points="0,290 194,290 "/>
<text text-anchor="start" x="8" y="305.2" font-family="Times,serif" font-size="14.00">create</text>
<polyline fill="none" stroke="black" points="0,313 194,313 "/>
<text text-anchor="start" x="8" y="328.2" font-family="Times,serif" font-size="14.00">configure_permitted_parameters</text>
<polyline fill="none" stroke="black" points="0,336 194,336 "/>
<text text-anchor="start" x="8" y="351.2" font-family="Times,serif" font-size="14.00">_layout</text>
</g>
<!-- SizesController -->
<g id="node16" class="node"><title>SizesController</title>
<path fill="none" stroke="black" d="M48.5,-361C48.5,-361 125.5,-361 125.5,-361 131.5,-361 137.5,-367 137.5,-373 137.5,-373 137.5,-547 137.5,-547 137.5,-553 131.5,-559 125.5,-559 125.5,-559 48.5,-559 48.5,-559 42.5,-559 36.5,-553 36.5,-547 36.5,-547 36.5,-373 36.5,-373 36.5,-367 42.5,-361 48.5,-361"/>
<text text-anchor="middle" x="87" y="-543.8" font-family="Times,serif" font-size="14.00">SizesController</text>
<polyline fill="none" stroke="black" points="36.5,-536 137.5,-536 "/>
<text text-anchor="start" x="44.5" y="-520.8" font-family="Times,serif" font-size="14.00">create</text>
<text text-anchor="start" x="44.5" y="-505.8" font-family="Times,serif" font-size="14.00">destroy</text>
<text text-anchor="start" x="44.5" y="-490.8" font-family="Times,serif" font-size="14.00">edit</text>
<text text-anchor="start" x="44.5" y="-475.8" font-family="Times,serif" font-size="14.00">index</text>
<text text-anchor="start" x="44.5" y="-460.8" font-family="Times,serif" font-size="14.00">new</text>
<text text-anchor="start" x="44.5" y="-445.8" font-family="Times,serif" font-size="14.00">show</text>
<text text-anchor="start" x="44.5" y="-430.8" font-family="Times,serif" font-size="14.00">update</text>
<polyline fill="none" stroke="black" points="36.5,-423 137.5,-423 "/>
<polyline fill="none" stroke="black" points="36.5,-399 137.5,-399 "/>
<text text-anchor="start" x="44.5" y="-383.8" font-family="Times,serif" font-size="14.00">_layout</text>
<text text-anchor="start" x="44.5" y="-368.8" font-family="Times,serif" font-size="14.00">size_params</text>
</g>
<!-- ColorsController -->
<g id="node17" class="node"><title>ColorsController</title>
<path fill="none" stroke="black" d="M336,-216.5C336,-216.5 420,-216.5 420,-216.5 426,-216.5 432,-222.5 432,-228.5 432,-228.5 432,-417.5 432,-417.5 432,-423.5 426,-429.5 420,-429.5 420,-429.5 336,-429.5 336,-429.5 330,-429.5 324,-423.5 324,-417.5 324,-417.5 324,-228.5 324,-228.5 324,-222.5 330,-216.5 336,-216.5"/>
<text text-anchor="middle" x="378" y="-414.3" font-family="Times,serif" font-size="14.00">ColorsController</text>
<polyline fill="none" stroke="black" points="324,-406.5 432,-406.5 "/>
<text text-anchor="start" x="332" y="-391.3" font-family="Times,serif" font-size="14.00">create</text>
<text text-anchor="start" x="332" y="-376.3" font-family="Times,serif" font-size="14.00">destroy</text>
<text text-anchor="start" x="332" y="-361.3" font-family="Times,serif" font-size="14.00">edit</text>
<text text-anchor="start" x="332" y="-346.3" font-family="Times,serif" font-size="14.00">gid</text>
<text text-anchor="start" x="332" y="-331.3" font-family="Times,serif" font-size="14.00">index</text>
<text text-anchor="start" x="332" y="-316.3" font-family="Times,serif" font-size="14.00">new</text>
<text text-anchor="start" x="332" y="-301.3" font-family="Times,serif" font-size="14.00">show</text>
<text text-anchor="start" x="332" y="-286.3" font-family="Times,serif" font-size="14.00">update</text>
<polyline fill="none" stroke="black" points="324,-278.5 432,-278.5 "/>
<polyline fill="none" stroke="black" points="324,-254.5 432,-254.5 "/>
<text text-anchor="start" x="332" y="-239.3" font-family="Times,serif" font-size="14.00">_layout</text>
<text text-anchor="start" x="332" y="-224.3" font-family="Times,serif" font-size="14.00">color_params</text>
</g>
<!-- RemoteContentController -->
<g id="node18" class="node"><title>RemoteContentController</title>
<path fill="none" stroke="black" d="M246,377C246,377 380,377 380,377 386,377 392,371 392,365 392,365 392,295 392,295 392,289 386,283 380,283 380,283 246,283 246,283 240,283 234,289 234,295 234,295 234,365 234,365 234,371 240,377 246,377"/>
<text text-anchor="middle" x="313" y="298.2" font-family="Times,serif" font-size="14.00">RemoteContentController</text>
<polyline fill="none" stroke="black" points="234,306 392,306 "/>
<polyline fill="none" stroke="black" points="234,330 392,330 "/>
<polyline fill="none" stroke="black" points="234,354 392,354 "/>
<text text-anchor="start" x="242" y="369.2" font-family="Times,serif" font-size="14.00">_layout</text>
</g>
</g>
</svg>
