<?xml version="1.0" encoding="UTF-8" standalone="no"?>
<!DOCTYPE svg PUBLIC "-//W3C//DTD SVG 1.1//EN"
 "http://www.w3.org/Graphics/SVG/1.1/DTD/svg11.dtd">
<!-- Generated by graphviz version 2.38.0 (20140413.2041)
 -->
<!-- Title: models_diagram Pages: 1 -->
<svg width="2288pt" height="891pt"
 viewBox="0.00 0.00 2288.00 891.00" xmlns="http://www.w3.org/2000/svg" xmlns:xlink="http://www.w3.org/1999/xlink">
<g id="graph0" class="graph" transform="scale(1 1) rotate(0) translate(4 887)">
<title>models_diagram</title>
<polygon fill="none" stroke="none" points="-4,4 -4,-887 2284,-887 2284,4 -4,4"/>
<!-- _diagram_info -->
<g id="node1" class="node"><title>_diagram_info</title>
<text text-anchor="start" x="8" y="-749.1" font-family="Times,serif" font-size="13.00">Models diagram</text>
<text text-anchor="start" x="8" y="-735.1" font-family="Times,serif" font-size="13.00">Date: Apr 01 2016 &#45; 00:26</text>
<text text-anchor="start" x="8" y="-721.1" font-family="Times,serif" font-size="13.00">Migration version: 20160330122905</text>
<text text-anchor="start" x="8" y="-707.1" font-family="Times,serif" font-size="13.00">Generated by RailRoady 1.4.2</text>
<text text-anchor="start" x="8" y="-693.1" font-family="Times,serif" font-size="13.00">http://railroady.prestonlee.com</text>
</g>
<!-- User -->
<g id="node2" class="node"><title>User</title>
<path fill="none" stroke="black" d="M244.5,-566.5C244.5,-566.5 533.5,-566.5 533.5,-566.5 539.5,-566.5 545.5,-572.5 545.5,-578.5 545.5,-578.5 545.5,-870.5 545.5,-870.5 545.5,-876.5 539.5,-882.5 533.5,-882.5 533.5,-882.5 244.5,-882.5 244.5,-882.5 238.5,-882.5 232.5,-876.5 232.5,-870.5 232.5,-870.5 232.5,-578.5 232.5,-578.5 232.5,-572.5 238.5,-566.5 244.5,-566.5"/>
<text text-anchor="middle" x="389" y="-867.3" font-family="Times,serif" font-size="14.00">User</text>
<polyline fill="none" stroke="black" points="232.5,-859.5 545.5,-859.5 "/>
<text text-anchor="start" x="240.5" y="-844.3" font-family="Times,serif" font-size="14.00">id :integer</text>
<text text-anchor="start" x="240.5" y="-829.3" font-family="Times,serif" font-size="14.00">email :character varying(255)</text>
<text text-anchor="start" x="240.5" y="-814.3" font-family="Times,serif" font-size="14.00">encrypted_password :character varying(255)</text>
<text text-anchor="start" x="240.5" y="-799.3" font-family="Times,serif" font-size="14.00">reset_password_token :character varying(255)</text>
<text text-anchor="start" x="240.5" y="-784.3" font-family="Times,serif" font-size="14.00">reset_password_sent_at :timestamp without time zone</text>
<text text-anchor="start" x="240.5" y="-769.3" font-family="Times,serif" font-size="14.00">remember_created_at :timestamp without time zone</text>
<text text-anchor="start" x="240.5" y="-754.3" font-family="Times,serif" font-size="14.00">sign_in_count :integer</text>
<text text-anchor="start" x="240.5" y="-739.3" font-family="Times,serif" font-size="14.00">current_sign_in_at :timestamp without time zone</text>
<text text-anchor="start" x="240.5" y="-724.3" font-family="Times,serif" font-size="14.00">last_sign_in_at :timestamp without time zone</text>
<text text-anchor="start" x="240.5" y="-709.3" font-family="Times,serif" font-size="14.00">current_sign_in_ip :inet</text>
<text text-anchor="start" x="240.5" y="-694.3" font-family="Times,serif" font-size="14.00">last_sign_in_ip :inet</text>
<text text-anchor="start" x="240.5" y="-679.3" font-family="Times,serif" font-size="14.00">created_at :timestamp without time zone</text>
<text text-anchor="start" x="240.5" y="-664.3" font-family="Times,serif" font-size="14.00">updated_at :timestamp without time zone</text>
<text text-anchor="start" x="240.5" y="-649.3" font-family="Times,serif" font-size="14.00">name :character varying(255)</text>
<text text-anchor="start" x="240.5" y="-634.3" font-family="Times,serif" font-size="14.00">is_admin :boolean</text>
<text text-anchor="start" x="240.5" y="-619.3" font-family="Times,serif" font-size="14.00">is_moderator :boolean</text>
<text text-anchor="start" x="240.5" y="-604.3" font-family="Times,serif" font-size="14.00">confirmation_token :character varying(255)</text>
<text text-anchor="start" x="240.5" y="-589.3" font-family="Times,serif" font-size="14.00">confirmed_at :timestamp without time zone</text>
<text text-anchor="start" x="240.5" y="-574.3" font-family="Times,serif" font-size="14.00">confirmation_sent_at :timestamp without time zone</text>
</g>
<!-- Identity -->
<g id="node8" class="node"><title>Identity</title>
<path fill="none" stroke="black" d="M279,-392.5C279,-392.5 499,-392.5 499,-392.5 505,-392.5 511,-398.5 511,-404.5 511,-404.5 511,-501.5 511,-501.5 511,-507.5 505,-513.5 499,-513.5 499,-513.5 279,-513.5 279,-513.5 273,-513.5 267,-507.5 267,-501.5 267,-501.5 267,-404.5 267,-404.5 267,-398.5 273,-392.5 279,-392.5"/>
<text text-anchor="middle" x="389" y="-498.3" font-family="Times,serif" font-size="14.00">Identity</text>
<polyline fill="none" stroke="black" points="267,-490.5 511,-490.5 "/>
<text text-anchor="start" x="275" y="-475.3" font-family="Times,serif" font-size="14.00">id :integer</text>
<text text-anchor="start" x="275" y="-460.3" font-family="Times,serif" font-size="14.00">user_id :integer</text>
<text text-anchor="start" x="275" y="-445.3" font-family="Times,serif" font-size="14.00">provider :character varying(255)</text>
<text text-anchor="start" x="275" y="-430.3" font-family="Times,serif" font-size="14.00">uid :character varying(255)</text>
<text text-anchor="start" x="275" y="-415.3" font-family="Times,serif" font-size="14.00">created_at :timestamp without time zone</text>
<text text-anchor="start" x="275" y="-400.3" font-family="Times,serif" font-size="14.00">updated_at :timestamp without time zone</text>
</g>
<!-- User&#45;&gt;Identity -->
<g id="edge1" class="edge"><title>User&#45;&gt;Identity</title>
<path fill="none" stroke="#49bdbb" d="M389,-558.104C389,-546.238 389,-534.706 389,-523.905"/>
<ellipse fill="none" stroke="#49bdbb" cx="389" cy="-562.341" rx="4" ry="4"/>
<polygon fill="#49bdbb" stroke="#49bdbb" points="389,-523.785 393.5,-513.785 389,-518.785 389,-513.785 389,-513.785 389,-513.785 389,-518.785 384.5,-513.785 389,-523.785 389,-523.785"/>
</g>
<!-- Product -->
<g id="node3" class="node"><title>Product</title>
<path fill="none" stroke="black" d="M949,-574C949,-574 1169,-574 1169,-574 1175,-574 1181,-580 1181,-586 1181,-586 1181,-863 1181,-863 1181,-869 1175,-875 1169,-875 1169,-875 949,-875 949,-875 943,-875 937,-869 937,-863 937,-863 937,-586 937,-586 937,-580 943,-574 949,-574"/>
<text text-anchor="middle" x="1059" y="-859.8" font-family="Times,serif" font-size="14.00">Product</text>
<polyline fill="none" stroke="black" points="937,-852 1181,-852 "/>
<text text-anchor="start" x="945" y="-836.8" font-family="Times,serif" font-size="14.00">id :integer</text>
<text text-anchor="start" x="945" y="-821.8" font-family="Times,serif" font-size="14.00">name :character varying(255)</text>
<text text-anchor="start" x="945" y="-806.8" font-family="Times,serif" font-size="14.00">description :character varying(255)</text>
<text text-anchor="start" x="945" y="-791.8" font-family="Times,serif" font-size="14.00">show :boolean</text>
<text text-anchor="start" x="945" y="-776.8" font-family="Times,serif" font-size="14.00">amount_min :integer</text>
<text text-anchor="start" x="945" y="-761.8" font-family="Times,serif" font-size="14.00">amount_max :integer</text>
<text text-anchor="start" x="945" y="-746.8" font-family="Times,serif" font-size="14.00">price_min :integer</text>
<text text-anchor="start" x="945" y="-731.8" font-family="Times,serif" font-size="14.00">price_max :integer</text>
<text text-anchor="start" x="945" y="-716.8" font-family="Times,serif" font-size="14.00">cut_type :character varying(255)</text>
<text text-anchor="start" x="945" y="-701.8" font-family="Times,serif" font-size="14.00">collar_type :character varying(255)</text>
<text text-anchor="start" x="945" y="-686.8" font-family="Times,serif" font-size="14.00">sleeve_type :character varying(255)</text>
<text text-anchor="start" x="945" y="-671.8" font-family="Times,serif" font-size="14.00">cuff_type :character varying(255)</text>
<text text-anchor="start" x="945" y="-656.8" font-family="Times,serif" font-size="14.00">style_type :character varying(255)</text>
<text text-anchor="start" x="945" y="-641.8" font-family="Times,serif" font-size="14.00">brand_id :integer</text>
<text text-anchor="start" x="945" y="-626.8" font-family="Times,serif" font-size="14.00">category_id :integer</text>
<text text-anchor="start" x="945" y="-611.8" font-family="Times,serif" font-size="14.00">picture_id :integer</text>
<text text-anchor="start" x="945" y="-596.8" font-family="Times,serif" font-size="14.00">created_at :timestamp without time zone</text>
<text text-anchor="start" x="945" y="-581.8" font-family="Times,serif" font-size="14.00">updated_at :timestamp without time zone</text>
</g>
<!-- Gallery -->
<g id="node4" class="node"><title>Gallery</title>
<path fill="none" stroke="black" d="M972,-174.5C972,-174.5 1192,-174.5 1192,-174.5 1198,-174.5 1204,-180.5 1204,-186.5 1204,-186.5 1204,-313.5 1204,-313.5 1204,-319.5 1198,-325.5 1192,-325.5 1192,-325.5 972,-325.5 972,-325.5 966,-325.5 960,-319.5 960,-313.5 960,-313.5 960,-186.5 960,-186.5 960,-180.5 966,-174.5 972,-174.5"/>
<text text-anchor="middle" x="1082" y="-310.3" font-family="Times,serif" font-size="14.00">Gallery</text>
<polyline fill="none" stroke="black" points="960,-302.5 1204,-302.5 "/>
<text text-anchor="start" x="968" y="-287.3" font-family="Times,serif" font-size="14.00">id :integer</text>
<text text-anchor="start" x="968" y="-272.3" font-family="Times,serif" font-size="14.00">name :character varying(255)</text>
<text text-anchor="start" x="968" y="-257.3" font-family="Times,serif" font-size="14.00">description :character varying(255)</text>
<text text-anchor="start" x="968" y="-242.3" font-family="Times,serif" font-size="14.00">created_at :timestamp without time zone</text>
<text text-anchor="start" x="968" y="-227.3" font-family="Times,serif" font-size="14.00">updated_at :timestamp without time zone</text>
<text text-anchor="start" x="968" y="-212.3" font-family="Times,serif" font-size="14.00">color_id :integer</text>
<text text-anchor="start" x="968" y="-197.3" font-family="Times,serif" font-size="14.00">fabric_id :integer</text>
<text text-anchor="start" x="968" y="-182.3" font-family="Times,serif" font-size="14.00">product_id :integer</text>
</g>
<!-- Product&#45;&gt;Gallery -->
<g id="edge2" class="edge"><title>Product&#45;&gt;Gallery</title>
<path fill="none" stroke="#3f96df" d="M928.78,-712.893C809.938,-695.515 640.622,-649.706 558,-529 519.842,-473.253 516.186,-430.06 558,-377 605.883,-316.239 810.542,-281.402 949.462,-264.35"/>
<ellipse fill="none" stroke="#3f96df" cx="932.931" cy="-713.483" rx="4.00001" ry="4.00001"/>
<polygon fill="#3f96df" stroke="#3f96df" points="949.836,-264.304 960.305,-267.57 954.8,-263.704 959.764,-263.103 959.764,-263.103 959.764,-263.103 954.8,-263.704 959.223,-258.635 949.836,-264.304 949.836,-264.304"/>
</g>
<!-- Size -->
<g id="node5" class="node"><title>Size</title>
<path fill="none" stroke="black" d="M579,-400C579,-400 799,-400 799,-400 805,-400 811,-406 811,-412 811,-412 811,-494 811,-494 811,-500 805,-506 799,-506 799,-506 579,-506 579,-506 573,-506 567,-500 567,-494 567,-494 567,-412 567,-412 567,-406 573,-400 579,-400"/>
<text text-anchor="middle" x="689" y="-490.8" font-family="Times,serif" font-size="14.00">Size</text>
<polyline fill="none" stroke="black" points="567,-483 811,-483 "/>
<text text-anchor="start" x="575" y="-467.8" font-family="Times,serif" font-size="14.00">id :integer</text>
<text text-anchor="start" x="575" y="-452.8" font-family="Times,serif" font-size="14.00">name :character varying(255)</text>
<text text-anchor="start" x="575" y="-437.8" font-family="Times,serif" font-size="14.00">sign :character varying(255)</text>
<text text-anchor="start" x="575" y="-422.8" font-family="Times,serif" font-size="14.00">created_at :timestamp without time zone</text>
<text text-anchor="start" x="575" y="-407.8" font-family="Times,serif" font-size="14.00">updated_at :timestamp without time zone</text>
</g>
<!-- Product&#45;&gt;Size -->
<g id="edge7" class="edge"><title>Product&#45;&gt;Size</title>
<path fill="none" stroke="#f7ad08" d="M928.549,-628.482C875.283,-589.685 815.392,-546.061 768.819,-512.139"/>
<polygon fill="#f7ad08" stroke="#f7ad08" points="928.74,-628.621 934.173,-638.146 932.781,-631.565 936.823,-634.509 936.823,-634.509 936.823,-634.509 932.781,-631.565 939.472,-630.871 928.74,-628.621 928.74,-628.621"/>
<polygon fill="#f7ad08" stroke="#f7ad08" points="768.662,-512.024 763.228,-502.499 764.62,-509.08 760.579,-506.136 760.579,-506.136 760.579,-506.136 764.62,-509.08 757.929,-509.774 768.662,-512.024 768.662,-512.024"/>
</g>
<!-- Color -->
<g id="node9" class="node"><title>Color</title>
<path fill="none" stroke="black" d="M841,-400C841,-400 1061,-400 1061,-400 1067,-400 1073,-406 1073,-412 1073,-412 1073,-494 1073,-494 1073,-500 1067,-506 1061,-506 1061,-506 841,-506 841,-506 835,-506 829,-500 829,-494 829,-494 829,-412 829,-412 829,-406 835,-400 841,-400"/>
<text text-anchor="middle" x="951" y="-490.8" font-family="Times,serif" font-size="14.00">Color</text>
<polyline fill="none" stroke="black" points="829,-483 1073,-483 "/>
<text text-anchor="start" x="837" y="-467.8" font-family="Times,serif" font-size="14.00">id :integer</text>
<text text-anchor="start" x="837" y="-452.8" font-family="Times,serif" font-size="14.00">name :character varying(255)</text>
<text text-anchor="start" x="837" y="-437.8" font-family="Times,serif" font-size="14.00">color_gid :character varying(255)</text>
<text text-anchor="start" x="837" y="-422.8" font-family="Times,serif" font-size="14.00">created_at :timestamp without time zone</text>
<text text-anchor="start" x="837" y="-407.8" font-family="Times,serif" font-size="14.00">updated_at :timestamp without time zone</text>
</g>
<!-- Product&#45;&gt;Color -->
<g id="edge4" class="edge"><title>Product&#45;&gt;Color</title>
<path fill="none" stroke="#1cecec" d="M995.26,-564.445C988.385,-547.289 981.727,-530.676 975.754,-515.77"/>
<polygon fill="#1cecec" stroke="#1cecec" points="995.279,-564.494 994.822,-575.45 997.139,-569.135 998.999,-573.776 998.999,-573.776 998.999,-573.776 997.139,-569.135 1003.18,-572.102 995.279,-564.494 995.279,-564.494"/>
<polygon fill="#1cecec" stroke="#1cecec" points="975.651,-515.514 976.109,-504.558 973.791,-510.873 971.932,-506.232 971.932,-506.232 971.932,-506.232 973.791,-510.873 967.754,-507.906 975.651,-515.514 975.651,-515.514"/>
</g>
<!-- Image -->
<g id="node10" class="node"><title>Image</title>
<path fill="none" stroke="black" d="M1253,-0.5C1253,-0.5 1473,-0.5 1473,-0.5 1479,-0.5 1485,-6.5 1485,-12.5 1485,-12.5 1485,-124.5 1485,-124.5 1485,-130.5 1479,-136.5 1473,-136.5 1473,-136.5 1253,-136.5 1253,-136.5 1247,-136.5 1241,-130.5 1241,-124.5 1241,-124.5 1241,-12.5 1241,-12.5 1241,-6.5 1247,-0.5 1253,-0.5"/>
<text text-anchor="middle" x="1363" y="-121.3" font-family="Times,serif" font-size="14.00">Image</text>
<polyline fill="none" stroke="black" points="1241,-113.5 1485,-113.5 "/>
<text text-anchor="start" x="1249" y="-98.3" font-family="Times,serif" font-size="14.00">id :integer</text>
<text text-anchor="start" x="1249" y="-83.3" font-family="Times,serif" font-size="14.00">description :character varying(255)</text>
<text text-anchor="start" x="1249" y="-68.3" font-family="Times,serif" font-size="14.00">attachement :character varying(255)</text>
<text text-anchor="start" x="1249" y="-53.3" font-family="Times,serif" font-size="14.00">file_id :character varying(255)</text>
<text text-anchor="start" x="1249" y="-38.3" font-family="Times,serif" font-size="14.00">created_at :timestamp without time zone</text>
<text text-anchor="start" x="1249" y="-23.3" font-family="Times,serif" font-size="14.00">updated_at :timestamp without time zone</text>
<text text-anchor="start" x="1249" y="-8.3" font-family="Times,serif" font-size="14.00">gallery_id :integer</text>
</g>
<!-- Product&#45;&gt;Image -->
<g id="edge3" class="edge"><title>Product&#45;&gt;Image</title>
<path fill="none" stroke="#d62825" d="M1186.7,-568.097C1187.8,-567.386 1188.9,-566.687 1190,-566 1249.77,-528.824 1299.29,-583.372 1344,-529 1390.33,-472.653 1380.2,-262.622 1370.61,-147.02"/>
<polygon fill="#d62825" stroke="#d62825" points="1186.66,-568.127 1175.87,-570.065 1182.53,-570.952 1178.41,-573.778 1178.41,-573.778 1178.41,-573.778 1182.53,-570.952 1180.95,-577.49 1186.66,-568.127 1186.66,-568.127"/>
<polygon fill="#d62825" stroke="#d62825" points="1370.59,-146.782 1374.22,-136.437 1370.16,-141.799 1369.74,-136.817 1369.74,-136.817 1369.74,-136.817 1370.16,-141.799 1365.26,-137.198 1370.59,-146.782 1370.59,-146.782"/>
</g>
<!-- Product&#45;&gt;Image -->
<g id="edge6" class="edge"><title>Product&#45;&gt;Image</title>
<path fill="none" stroke="#c0bf94" d="M1184.31,-569.25C1186.19,-568.128 1188.09,-567.044 1190,-566 1263.21,-526.021 1327.9,-598.519 1374,-529 1450.86,-413.097 1417.97,-242.042 1389.14,-144.644"/>
<ellipse fill="none" stroke="#c0bf94" cx="1180.54" cy="-571.628" rx="4.00002" ry="4.00002"/>
<ellipse fill="#c0bf94" stroke="#c0bf94" cx="1387.96" cy="-140.726" rx="4.00001" ry="4.00001"/>
<text text-anchor="middle" x="1440" y="-347.8" font-family="Times,serif" font-size="14.00">picture</text>
</g>
<!-- Fabric -->
<g id="node11" class="node"><title>Fabric</title>
<path fill="none" stroke="black" d="M1103,-377.5C1103,-377.5 1323,-377.5 1323,-377.5 1329,-377.5 1335,-383.5 1335,-389.5 1335,-389.5 1335,-516.5 1335,-516.5 1335,-522.5 1329,-528.5 1323,-528.5 1323,-528.5 1103,-528.5 1103,-528.5 1097,-528.5 1091,-522.5 1091,-516.5 1091,-516.5 1091,-389.5 1091,-389.5 1091,-383.5 1097,-377.5 1103,-377.5"/>
<text text-anchor="middle" x="1213" y="-513.3" font-family="Times,serif" font-size="14.00">Fabric</text>
<polyline fill="none" stroke="black" points="1091,-505.5 1335,-505.5 "/>
<text text-anchor="start" x="1099" y="-490.3" font-family="Times,serif" font-size="14.00">id :integer</text>
<text text-anchor="start" x="1099" y="-475.3" font-family="Times,serif" font-size="14.00">name :character varying(255)</text>
<text text-anchor="start" x="1099" y="-460.3" font-family="Times,serif" font-size="14.00">description :character varying(255)</text>
<text text-anchor="start" x="1099" y="-445.3" font-family="Times,serif" font-size="14.00">composition :character varying(255)</text>
<text text-anchor="start" x="1099" y="-430.3" font-family="Times,serif" font-size="14.00">attachement :character varying(255)</text>
<text text-anchor="start" x="1099" y="-415.3" font-family="Times,serif" font-size="14.00">image_id :character varying(255)</text>
<text text-anchor="start" x="1099" y="-400.3" font-family="Times,serif" font-size="14.00">created_at :timestamp without time zone</text>
<text text-anchor="start" x="1099" y="-385.3" font-family="Times,serif" font-size="14.00">updated_at :timestamp without time zone</text>
</g>
<!-- Product&#45;&gt;Fabric -->
<g id="edge5" class="edge"><title>Product&#45;&gt;Fabric</title>
<path fill="none" stroke="#12ea78" d="M1149.56,-565.019C1154.96,-555.576 1160.26,-546.293 1165.36,-537.364"/>
<polygon fill="#12ea78" stroke="#12ea78" points="1149.52,-565.094 1140.65,-571.543 1147.04,-569.435 1144.56,-573.776 1144.56,-573.776 1144.56,-573.776 1147.04,-569.435 1148.46,-576.009 1149.52,-565.094 1149.52,-565.094"/>
<polygon fill="#12ea78" stroke="#12ea78" points="1165.43,-537.243 1174.3,-530.793 1167.91,-532.902 1170.39,-528.561 1170.39,-528.561 1170.39,-528.561 1167.91,-532.902 1166.49,-526.328 1165.43,-537.243 1165.43,-537.243"/>
</g>
<!-- Gallery&#45;&gt;Image -->
<g id="edge8" class="edge"><title>Gallery&#45;&gt;Image</title>
<path fill="none" stroke="#3321dd" d="M1205.64,-170.018C1220.2,-160.717 1235.01,-151.26 1249.42,-142.053"/>
<ellipse fill="none" stroke="#3321dd" cx="1202.1" cy="-172.282" rx="4.00002" ry="4.00002"/>
<polygon fill="#3321dd" stroke="#3321dd" points="1249.43,-142.048 1260.28,-140.457 1253.64,-139.356 1257.86,-136.664 1257.86,-136.664 1257.86,-136.664 1253.64,-139.356 1255.43,-132.872 1249.43,-142.048 1249.43,-142.048"/>
</g>
<!-- Messenger -->
<g id="node6" class="node"><title>Messenger</title>
<path fill="none" stroke="black" d="M1211,-686.5C1211,-686.5 1431,-686.5 1431,-686.5 1437,-686.5 1443,-692.5 1443,-698.5 1443,-698.5 1443,-750.5 1443,-750.5 1443,-756.5 1437,-762.5 1431,-762.5 1431,-762.5 1211,-762.5 1211,-762.5 1205,-762.5 1199,-756.5 1199,-750.5 1199,-750.5 1199,-698.5 1199,-698.5 1199,-692.5 1205,-686.5 1211,-686.5"/>
<text text-anchor="middle" x="1321" y="-747.3" font-family="Times,serif" font-size="14.00">Messenger</text>
<polyline fill="none" stroke="black" points="1199,-739.5 1443,-739.5 "/>
<text text-anchor="start" x="1207" y="-724.3" font-family="Times,serif" font-size="14.00">id :integer</text>
<text text-anchor="start" x="1207" y="-709.3" font-family="Times,serif" font-size="14.00">created_at :timestamp without time zone</text>
<text text-anchor="start" x="1207" y="-694.3" font-family="Times,serif" font-size="14.00">updated_at :timestamp without time zone</text>
</g>
<!-- Brand -->
<g id="node7" class="node"><title>Brand</title>
<path fill="none" stroke="black" d="M1473,-649C1473,-649 1693,-649 1693,-649 1699,-649 1705,-655 1705,-661 1705,-661 1705,-788 1705,-788 1705,-794 1699,-800 1693,-800 1693,-800 1473,-800 1473,-800 1467,-800 1461,-794 1461,-788 1461,-788 1461,-661 1461,-661 1461,-655 1467,-649 1473,-649"/>
<text text-anchor="middle" x="1583" y="-784.8" font-family="Times,serif" font-size="14.00">Brand</text>
<polyline fill="none" stroke="black" points="1461,-777 1705,-777 "/>
<text text-anchor="start" x="1469" y="-761.8" font-family="Times,serif" font-size="14.00">id :integer</text>
<text text-anchor="start" x="1469" y="-746.8" font-family="Times,serif" font-size="14.00">name :character varying(255)</text>
<text text-anchor="start" x="1469" y="-731.8" font-family="Times,serif" font-size="14.00">description :character varying(255)</text>
<text text-anchor="start" x="1469" y="-716.8" font-family="Times,serif" font-size="14.00">image :character varying(255)</text>
<text text-anchor="start" x="1469" y="-701.8" font-family="Times,serif" font-size="14.00">created_at :timestamp without time zone</text>
<text text-anchor="start" x="1469" y="-686.8" font-family="Times,serif" font-size="14.00">updated_at :timestamp without time zone</text>
<text text-anchor="start" x="1469" y="-671.8" font-family="Times,serif" font-size="14.00">attachement :character varying(255)</text>
<text text-anchor="start" x="1469" y="-656.8" font-family="Times,serif" font-size="14.00">image_id :character varying(255)</text>
</g>
<!-- Color&#45;&gt;Gallery -->
<g id="edge9" class="edge"><title>Color&#45;&gt;Gallery</title>
<path fill="none" stroke="#9b1ab9" d="M989.314,-393.213C1001.39,-374.686 1014.96,-353.859 1027.92,-333.977"/>
<ellipse fill="none" stroke="#9b1ab9" cx="987.09" cy="-396.625" rx="4.00002" ry="4.00002"/>
<polygon fill="#9b1ab9" stroke="#9b1ab9" points="1027.97,-333.901 1037.2,-327.98 1030.7,-329.712 1033.43,-325.523 1033.43,-325.523 1033.43,-325.523 1030.7,-329.712 1029.66,-323.066 1027.97,-333.901 1027.97,-333.901"/>
</g>
<!-- Fabric&#45;&gt;Gallery -->
<g id="edge10" class="edge"><title>Fabric&#45;&gt;Gallery</title>
<path fill="none" stroke="#8554e8" d="M1159.99,-370.668C1152.21,-358.728 1144.18,-346.412 1136.37,-334.43"/>
<ellipse fill="none" stroke="#8554e8" cx="1162.22" cy="-374.09" rx="4.00002" ry="4.00002"/>
<polygon fill="#8554e8" stroke="#8554e8" points="1136.19,-334.152 1134.5,-323.317 1133.46,-329.963 1130.73,-325.774 1130.73,-325.774 1130.73,-325.774 1133.46,-329.963 1126.96,-328.231 1136.19,-334.152 1136.19,-334.152"/>
</g>
<!-- Dashboard -->
<g id="node12" class="node"><title>Dashboard</title>
<path fill="none" stroke="black" d="M1735,-671.5C1735,-671.5 1955,-671.5 1955,-671.5 1961,-671.5 1967,-677.5 1967,-683.5 1967,-683.5 1967,-765.5 1967,-765.5 1967,-771.5 1961,-777.5 1955,-777.5 1955,-777.5 1735,-777.5 1735,-777.5 1729,-777.5 1723,-771.5 1723,-765.5 1723,-765.5 1723,-683.5 1723,-683.5 1723,-677.5 1729,-671.5 1735,-671.5"/>
<text text-anchor="middle" x="1845" y="-762.3" font-family="Times,serif" font-size="14.00">Dashboard</text>
<polyline fill="none" stroke="black" points="1723,-754.5 1967,-754.5 "/>
<text text-anchor="start" x="1731" y="-739.3" font-family="Times,serif" font-size="14.00">id :integer</text>
<text text-anchor="start" x="1731" y="-724.3" font-family="Times,serif" font-size="14.00">user_id :integer</text>
<text text-anchor="start" x="1731" y="-709.3" font-family="Times,serif" font-size="14.00">messenger_id :integer</text>
<text text-anchor="start" x="1731" y="-694.3" font-family="Times,serif" font-size="14.00">created_at :timestamp without time zone</text>
<text text-anchor="start" x="1731" y="-679.3" font-family="Times,serif" font-size="14.00">updated_at :timestamp without time zone</text>
</g>
<!-- Category -->
<g id="node13" class="node"><title>Category</title>
<path fill="none" stroke="black" d="M1997,-656.5C1997,-656.5 2217,-656.5 2217,-656.5 2223,-656.5 2229,-662.5 2229,-668.5 2229,-668.5 2229,-780.5 2229,-780.5 2229,-786.5 2223,-792.5 2217,-792.5 2217,-792.5 1997,-792.5 1997,-792.5 1991,-792.5 1985,-786.5 1985,-780.5 1985,-780.5 1985,-668.5 1985,-668.5 1985,-662.5 1991,-656.5 1997,-656.5"/>
<text text-anchor="middle" x="2107" y="-777.3" font-family="Times,serif" font-size="14.00">Category</text>
<polyline fill="none" stroke="black" points="1985,-769.5 2229,-769.5 "/>
<text text-anchor="start" x="1993" y="-754.3" font-family="Times,serif" font-size="14.00">id :integer</text>
<text text-anchor="start" x="1993" y="-739.3" font-family="Times,serif" font-size="14.00">name_ua :character varying(255)</text>
<text text-anchor="start" x="1993" y="-724.3" font-family="Times,serif" font-size="14.00">name_ru :character varying(255)</text>
<text text-anchor="start" x="1993" y="-709.3" font-family="Times,serif" font-size="14.00">name_en :character varying(255)</text>
<text text-anchor="start" x="1993" y="-694.3" font-family="Times,serif" font-size="14.00">created_at :timestamp without time zone</text>
<text text-anchor="start" x="1993" y="-679.3" font-family="Times,serif" font-size="14.00">updated_at :timestamp without time zone</text>
<text text-anchor="start" x="1993" y="-664.3" font-family="Times,serif" font-size="14.00">parent_id :integer</text>
</g>
<!-- Category&#45;&gt;Category -->
<g id="edge11" class="edge"><title>Category&#45;&gt;Category</title>
<path fill="none" stroke="#984260" d="M2236.31,-746.118C2243.03,-740.786 2247,-733.58 2247,-724.5 2247,-716.161 2243.65,-709.403 2237.9,-704.225"/>
<ellipse fill="none" stroke="#984260" cx="2232.78" cy="-748.35" rx="4.00002" ry="4.00002"/>
<polygon fill="#984260" stroke="#984260" points="2237.7,-704.092 2231.91,-694.777 2233.55,-701.301 2229.4,-698.511 2229.4,-698.511 2229.4,-698.511 2233.55,-701.301 2226.89,-702.245 2237.7,-704.092 2237.7,-704.092"/>
<text text-anchor="middle" x="2263.5" y="-720.8" font-family="Times,serif" font-size="14.00">childs</text>
</g>
</g>
</svg>
