<?xml version="1.0" encoding="UTF-8" standalone="no"?>
<!DOCTYPE svg PUBLIC "-//W3C//DTD SVG 1.1//EN"
 "http://www.w3.org/Graphics/SVG/1.1/DTD/svg11.dtd">
<!-- Generated by graphviz version 2.38.0 (20140413.2041)
 -->
<!-- Title: models_diagram Pages: 1 -->
<svg width="1014pt" height="319pt"
 viewBox="0.00 0.00 1013.90 319.00" xmlns="http://www.w3.org/2000/svg" xmlns:xlink="http://www.w3.org/1999/xlink">
<g id="graph0" class="graph" transform="scale(1 1) rotate(0) translate(4 315)">
<title>models_diagram</title>
<polygon fill="none" stroke="none" points="-4,4 -4,-315 1009.9,-315 1009.9,4 -4,4"/>
<!-- _diagram_info -->
<g id="node1" class="node"><title>_diagram_info</title>
<text text-anchor="start" x="8" y="-296.6" font-family="Times,serif" font-size="13.00">Models diagram</text>
<text text-anchor="start" x="8" y="-282.6" font-family="Times,serif" font-size="13.00">Date: Apr 01 2016 &#45; 00:26</text>
<text text-anchor="start" x="8" y="-268.6" font-family="Times,serif" font-size="13.00">Migration version: 20160330122905</text>
<text text-anchor="start" x="8" y="-254.6" font-family="Times,serif" font-size="13.00">Generated by RailRoady 1.4.2</text>
<text text-anchor="start" x="8" y="-240.6" font-family="Times,serif" font-size="13.00">http://railroady.prestonlee.com</text>
</g>
<!-- User -->
<g id="node2" class="node"><title>User</title>
<ellipse fill="none" stroke="black" cx="259" cy="-272" rx="27.0966" ry="18"/>
<text text-anchor="middle" x="259" y="-268.3" font-family="Times,serif" font-size="14.00">User</text>
</g>
<!-- Identity -->
<g id="node8" class="node"><title>Identity</title>
<ellipse fill="none" stroke="black" cx="259" cy="-178" rx="38.1938" ry="18"/>
<text text-anchor="middle" x="259" y="-174.3" font-family="Times,serif" font-size="14.00">Identity</text>
</g>
<!-- User&#45;&gt;Identity -->
<g id="edge1" class="edge"><title>User&#45;&gt;Identity</title>
<path fill="none" stroke="#4f4bbf" d="M259,-245.451C259,-233.315 259,-218.795 259,-206.427"/>
<ellipse fill="none" stroke="#4f4bbf" cx="259" cy="-249.696" rx="4" ry="4"/>
<polygon fill="#4f4bbf" stroke="#4f4bbf" points="259,-206.227 263.5,-196.227 259,-201.227 259,-196.227 259,-196.227 259,-196.227 259,-201.227 254.5,-196.227 259,-206.227 259,-206.227"/>
</g>
<!-- Product -->
<g id="node3" class="node"><title>Product</title>
<ellipse fill="none" stroke="black" cx="497" cy="-272" rx="38.1938" ry="18"/>
<text text-anchor="middle" x="497" y="-268.3" font-family="Times,serif" font-size="14.00">Product</text>
</g>
<!-- Gallery -->
<g id="node4" class="node"><title>Gallery</title>
<ellipse fill="none" stroke="black" cx="497" cy="-91" rx="37.0935" ry="18"/>
<text text-anchor="middle" x="497" y="-87.3" font-family="Times,serif" font-size="14.00">Gallery</text>
</g>
<!-- Product&#45;&gt;Gallery -->
<g id="edge2" class="edge"><title>Product&#45;&gt;Gallery</title>
<path fill="none" stroke="#ddab9c" d="M455.731,-260.464C400.199,-244.155 311.872,-209.437 344,-160 367.672,-123.575 415.849,-106.504 451.851,-98.6034"/>
<ellipse fill="none" stroke="#ddab9c" cx="459.822" cy="-261.636" rx="4.00001" ry="4.00001"/>
<polygon fill="#ddab9c" stroke="#ddab9c" points="451.853,-98.6031 462.55,-101.02 456.753,-97.6065 461.653,-96.6099 461.653,-96.6099 461.653,-96.6099 456.753,-97.6065 460.756,-92.2002 451.853,-98.6031 451.853,-98.6031"/>
</g>
<!-- Size -->
<g id="node5" class="node"><title>Size</title>
<ellipse fill="none" stroke="black" cx="380" cy="-178" rx="27" ry="18"/>
<text text-anchor="middle" x="380" y="-174.3" font-family="Times,serif" font-size="14.00">Size</text>
</g>
<!-- Product&#45;&gt;Size -->
<g id="edge7" class="edge"><title>Product&#45;&gt;Size</title>
<path fill="none" stroke="#11402d" d="M470.334,-250.032C450.664,-234.565 424.09,-213.669 404.861,-198.549"/>
<polygon fill="#11402d" stroke="#11402d" points="470.341,-250.037 475.42,-259.756 474.271,-253.128 478.202,-256.219 478.202,-256.219 478.202,-256.219 474.271,-253.128 480.983,-252.681 470.341,-250.037 470.341,-250.037"/>
<polygon fill="#11402d" stroke="#11402d" points="404.714,-198.433 399.634,-188.714 400.783,-195.342 396.853,-192.252 396.853,-192.252 396.853,-192.252 400.783,-195.342 394.071,-195.789 404.714,-198.433 404.714,-198.433"/>
</g>
<!-- Color -->
<g id="node9" class="node"><title>Color</title>
<ellipse fill="none" stroke="black" cx="456" cy="-178" rx="30.5947" ry="18"/>
<text text-anchor="middle" x="456" y="-174.3" font-family="Times,serif" font-size="14.00">Color</text>
</g>
<!-- Product&#45;&gt;Color -->
<g id="edge4" class="edge"><title>Product&#45;&gt;Color</title>
<path fill="none" stroke="#12278a" d="M485.365,-244.892C479.819,-232.447 473.2,-217.596 467.652,-205.145"/>
<polygon fill="#12278a" stroke="#12278a" points="485.409,-244.992 485.37,-255.958 487.445,-249.559 489.48,-254.126 489.48,-254.126 489.48,-254.126 487.445,-249.559 493.59,-252.294 485.409,-244.992 485.409,-244.992"/>
<polygon fill="#12278a" stroke="#12278a" points="467.543,-204.901 467.583,-193.935 465.508,-200.334 463.472,-195.767 463.472,-195.767 463.472,-195.767 465.508,-200.334 459.362,-197.599 467.543,-204.901 467.543,-204.901"/>
</g>
<!-- Image -->
<g id="node10" class="node"><title>Image</title>
<ellipse fill="none" stroke="black" cx="599" cy="-18" rx="33.2948" ry="18"/>
<text text-anchor="middle" x="599" y="-14.3" font-family="Times,serif" font-size="14.00">Image</text>
</g>
<!-- Product&#45;&gt;Image -->
<g id="edge3" class="edge"><title>Product&#45;&gt;Image</title>
<path fill="none" stroke="#a6ac70" d="M524.184,-250.003C545.754,-232.729 573.352,-209.041 580,-196 604.615,-147.716 604.423,-82.5289 601.859,-46.2514"/>
<polygon fill="#a6ac70" stroke="#a6ac70" points="524.107,-250.064 513.474,-252.747 520.188,-253.169 516.269,-256.274 516.269,-256.274 516.269,-256.274 520.188,-253.169 519.063,-259.801 524.107,-250.064 524.107,-250.064"/>
<polygon fill="#a6ac70" stroke="#a6ac70" points="601.834,-45.938 605.497,-35.6022 601.423,-40.9549 601.012,-35.9718 601.012,-35.9718 601.012,-35.9718 601.423,-40.9549 596.528,-36.3413 601.834,-45.938 601.834,-45.938"/>
</g>
<!-- Product&#45;&gt;Image -->
<g id="edge6" class="edge"><title>Product&#45;&gt;Image</title>
<path fill="none" stroke="#6c0027" d="M521.225,-250.513C528.658,-244.59 536.992,-238.298 545,-233 569.57,-216.744 584.89,-221.291 600,-196 632.574,-141.479 630.236,-115.894 616,-54 615.16,-50.3462 613.885,-46.6317 612.403,-43.0545"/>
<ellipse fill="none" stroke="#6c0027" cx="517.796" cy="-253.292" rx="4.00002" ry="4.00002"/>
<ellipse fill="#6c0027" stroke="#6c0027" cx="610.597" cy="-39.15" rx="4.00002" ry="4.00002"/>
<text text-anchor="middle" x="644" y="-130.8" font-family="Times,serif" font-size="14.00">picture</text>
</g>
<!-- Fabric -->
<g id="node11" class="node"><title>Fabric</title>
<ellipse fill="none" stroke="black" cx="538" cy="-178" rx="33.2948" ry="18"/>
<text text-anchor="middle" x="538" y="-174.3" font-family="Times,serif" font-size="14.00">Fabric</text>
</g>
<!-- Product&#45;&gt;Fabric -->
<g id="edge5" class="edge"><title>Product&#45;&gt;Fabric</title>
<path fill="none" stroke="#166c0b" d="M508.635,-244.892C514.181,-232.447 520.8,-217.596 526.348,-205.145"/>
<polygon fill="#166c0b" stroke="#166c0b" points="508.591,-244.992 500.41,-252.294 506.555,-249.559 504.52,-254.126 504.52,-254.126 504.52,-254.126 506.555,-249.559 508.63,-255.958 508.591,-244.992 508.591,-244.992"/>
<polygon fill="#166c0b" stroke="#166c0b" points="526.457,-204.901 534.638,-197.599 528.492,-200.334 530.528,-195.767 530.528,-195.767 530.528,-195.767 528.492,-200.334 526.417,-193.935 526.457,-204.901 526.457,-204.901"/>
</g>
<!-- Gallery&#45;&gt;Image -->
<g id="edge8" class="edge"><title>Gallery&#45;&gt;Image</title>
<path fill="none" stroke="#d85088" d="M524.288,-71.0056C538.683,-60.985 556.322,-48.7075 570.845,-38.5984"/>
<ellipse fill="none" stroke="#d85088" cx="520.924" cy="-73.3469" rx="4.00002" ry="4.00002"/>
<polygon fill="#d85088" stroke="#d85088" points="571.22,-38.3369 581.999,-36.3172 575.324,-35.4804 579.428,-32.6239 579.428,-32.6239 579.428,-32.6239 575.324,-35.4804 576.857,-28.9305 571.22,-38.3369 571.22,-38.3369"/>
</g>
<!-- Messenger -->
<g id="node6" class="node"><title>Messenger</title>
<ellipse fill="none" stroke="black" cx="603" cy="-272" rx="49.2915" ry="18"/>
<text text-anchor="middle" x="603" y="-268.3" font-family="Times,serif" font-size="14.00">Messenger</text>
</g>
<!-- Brand -->
<g id="node7" class="node"><title>Brand</title>
<ellipse fill="none" stroke="black" cx="703" cy="-272" rx="32.4942" ry="18"/>
<text text-anchor="middle" x="703" y="-268.3" font-family="Times,serif" font-size="14.00">Brand</text>
</g>
<!-- Color&#45;&gt;Gallery -->
<g id="edge9" class="edge"><title>Color&#45;&gt;Gallery</title>
<path fill="none" stroke="#9b9975" d="M467.51,-153.139C472.802,-142.166 479.092,-129.127 484.5,-117.914"/>
<ellipse fill="none" stroke="#9b9975" cx="465.643" cy="-157.008" rx="4.00002" ry="4.00002"/>
<polygon fill="#9b9975" stroke="#9b9975" points="484.635,-117.636 493.032,-110.584 486.807,-113.132 488.979,-108.629 488.979,-108.629 488.979,-108.629 486.807,-113.132 484.926,-106.674 484.635,-117.636 484.635,-117.636"/>
</g>
<!-- Fabric&#45;&gt;Gallery -->
<g id="edge10" class="edge"><title>Fabric&#45;&gt;Gallery</title>
<path fill="none" stroke="#6cf364" d="M526.317,-152.778C521.065,-141.892 514.861,-129.028 509.515,-117.945"/>
<ellipse fill="none" stroke="#6cf364" cx="528.162" cy="-156.604" rx="4.00002" ry="4.00002"/>
<polygon fill="#6cf364" stroke="#6cf364" points="509.428,-117.765 509.137,-106.803 507.256,-113.262 505.083,-108.758 505.083,-108.758 505.083,-108.758 507.256,-113.262 501.03,-110.713 509.428,-117.765 509.428,-117.765"/>
</g>
<!-- Dashboard -->
<g id="node12" class="node"><title>Dashboard</title>
<ellipse fill="none" stroke="black" cx="802" cy="-272" rx="48.9926" ry="18"/>
<text text-anchor="middle" x="802" y="-268.3" font-family="Times,serif" font-size="14.00">Dashboard</text>
</g>
<!-- Category -->
<g id="node13" class="node"><title>Category</title>
<ellipse fill="none" stroke="black" cx="912" cy="-272" rx="42.7926" ry="18"/>
<text text-anchor="middle" x="912" y="-268.3" font-family="Times,serif" font-size="14.00">Category</text>
</g>
<!-- Category&#45;&gt;Category -->
<g id="edge11" class="edge"><title>Category&#45;&gt;Category</title>
<path fill="none" stroke="#607cd4" d="M955.249,-282.292C965.405,-281.444 972.896,-278.014 972.896,-272 972.896,-266.399 966.398,-263.039 957.301,-261.919"/>
<ellipse fill="none" stroke="#607cd4" cx="951.043" cy="-282.366" rx="4" ry="4"/>
<polygon fill="#607cd4" stroke="#607cd4" points="957.038,-261.91 947.2,-257.067 952.041,-261.737 947.044,-261.564 947.044,-261.564 947.044,-261.564 952.041,-261.737 946.888,-266.061 957.038,-261.91 957.038,-261.91"/>
<text text-anchor="middle" x="989.396" y="-268.3" font-family="Times,serif" font-size="14.00">childs</text>
</g>
</g>
</svg>
