<?xml version="1.0" encoding="UTF-8" standalone="no"?>
<!DOCTYPE svg PUBLIC "-//W3C//DTD SVG 1.1//EN"
 "http://www.w3.org/Graphics/SVG/1.1/DTD/svg11.dtd">
<!-- Generated by graphviz version 2.38.0 (20140413.2041)
 -->
<!-- Title: models_diagram Pages: 1 -->
<svg width="478pt" height="349pt"
 viewBox="0.00 0.00 477.50 349.00" xmlns="http://www.w3.org/2000/svg" xmlns:xlink="http://www.w3.org/1999/xlink">
<g id="graph0" class="graph" transform="scale(1 1) rotate(0) translate(4 345)">
<title>models_diagram</title>
<polygon fill="none" stroke="none" points="-4,4 -4,-345 473.5,-345 473.5,4 -4,4"/>
<!-- _diagram_info -->
<g id="node1" class="node"><title>_diagram_info</title>
<text text-anchor="start" x="8" y="-326.6" font-family="Times,serif" font-size="13.00">Models diagram</text>
<text text-anchor="start" x="8" y="-312.6" font-family="Times,serif" font-size="13.00">Date: Mar 21 2016 &#45; 15:54</text>
<text text-anchor="start" x="8" y="-298.6" font-family="Times,serif" font-size="13.00">Migration version: 20151222003253</text>
<text text-anchor="start" x="8" y="-284.6" font-family="Times,serif" font-size="13.00">Generated by RailRoady 1.4.2</text>
<text text-anchor="start" x="8" y="-270.6" font-family="Times,serif" font-size="13.00">http://railroady.prestonlee.com</text>
</g>
<!-- User -->
<g id="node2" class="node"><title>User</title>
<path fill="none" stroke="black" d="M168.5,-0.5C168.5,-0.5 457.5,-0.5 457.5,-0.5 463.5,-0.5 469.5,-6.5 469.5,-12.5 469.5,-12.5 469.5,-214.5 469.5,-214.5 469.5,-220.5 463.5,-226.5 457.5,-226.5 457.5,-226.5 168.5,-226.5 168.5,-226.5 162.5,-226.5 156.5,-220.5 156.5,-214.5 156.5,-214.5 156.5,-12.5 156.5,-12.5 156.5,-6.5 162.5,-0.5 168.5,-0.5"/>
<text text-anchor="middle" x="313" y="-211.3" font-family="Times,serif" font-size="14.00">User</text>
<polyline fill="none" stroke="black" points="156.5,-203.5 469.5,-203.5 "/>
<text text-anchor="start" x="164.5" y="-188.3" font-family="Times,serif" font-size="14.00">id :integer</text>
<text text-anchor="start" x="164.5" y="-173.3" font-family="Times,serif" font-size="14.00">email :character varying(255)</text>
<text text-anchor="start" x="164.5" y="-158.3" font-family="Times,serif" font-size="14.00">encrypted_password :character varying(255)</text>
<text text-anchor="start" x="164.5" y="-143.3" font-family="Times,serif" font-size="14.00">reset_password_token :character varying(255)</text>
<text text-anchor="start" x="164.5" y="-128.3" font-family="Times,serif" font-size="14.00">reset_password_sent_at :timestamp without time zone</text>
<text text-anchor="start" x="164.5" y="-113.3" font-family="Times,serif" font-size="14.00">remember_created_at :timestamp without time zone</text>
<text text-anchor="start" x="164.5" y="-98.3" font-family="Times,serif" font-size="14.00">sign_in_count :integer</text>
<text text-anchor="start" x="164.5" y="-83.3" font-family="Times,serif" font-size="14.00">current_sign_in_at :timestamp without time zone</text>
<text text-anchor="start" x="164.5" y="-68.3" font-family="Times,serif" font-size="14.00">last_sign_in_at :timestamp without time zone</text>
<text text-anchor="start" x="164.5" y="-53.3" font-family="Times,serif" font-size="14.00">current_sign_in_ip :inet</text>
<text text-anchor="start" x="164.5" y="-38.3" font-family="Times,serif" font-size="14.00">last_sign_in_ip :inet</text>
<text text-anchor="start" x="164.5" y="-23.3" font-family="Times,serif" font-size="14.00">created_at :timestamp without time zone</text>
<text text-anchor="start" x="164.5" y="-8.3" font-family="Times,serif" font-size="14.00">updated_at :timestamp without time zone</text>
</g>
<!-- ActiveRecord::Base -->
<g id="node3" class="node"><title>ActiveRecord::Base</title>
<ellipse fill="none" stroke="black" cx="313" cy="-302" rx="81.4863" ry="18"/>
<text text-anchor="middle" x="313" y="-298.3" font-family="Times,serif" font-size="14.00">ActiveRecord::Base</text>
</g>
<!-- ActiveRecord::Base&#45;&gt;User -->
<g id="edge1" class="edge"><title>ActiveRecord::Base&#45;&gt;User</title>
<path fill="none" stroke="black" d="M313,-283.789C313,-269.902 313,-249.053 313,-226.687"/>
</g>
</g>
</svg>
